%TF.GenerationSoftware,KiCad,Pcbnew,7.0.9*%
%TF.CreationDate,2025-04-05T19:15:52-04:00*%
%TF.ProjectId,Pneumatactor_WiredPressureSensing,506e6575-6d61-4746-9163-746f725f5769,rev?*%
%TF.SameCoordinates,Original*%
%TF.FileFunction,Drillmap*%
%TF.FilePolarity,Positive*%
%FSLAX45Y45*%
G04 Gerber Fmt 4.5, Leading zero omitted, Abs format (unit mm)*
G04 Created by KiCad (PCBNEW 7.0.9) date 2025-04-05 19:15:52*
%MOMM*%
%LPD*%
G01*
G04 APERTURE LIST*
%ADD10C,0.100000*%
%ADD11C,0.200000*%
G04 APERTURE END LIST*
D10*
X3797300Y-3111500D02*
X4584700Y-3111500D01*
X4584700Y-3937000D01*
X3797300Y-3937000D01*
X3797300Y-3111500D01*
D11*
X4053077Y-4253484D02*
X4053077Y-4053484D01*
X4053077Y-4053484D02*
X4100696Y-4053484D01*
X4100696Y-4053484D02*
X4129267Y-4063008D01*
X4129267Y-4063008D02*
X4148315Y-4082055D01*
X4148315Y-4082055D02*
X4157839Y-4101103D01*
X4157839Y-4101103D02*
X4167362Y-4139198D01*
X4167362Y-4139198D02*
X4167362Y-4167769D01*
X4167362Y-4167769D02*
X4157839Y-4205865D01*
X4157839Y-4205865D02*
X4148315Y-4224912D01*
X4148315Y-4224912D02*
X4129267Y-4243960D01*
X4129267Y-4243960D02*
X4100696Y-4253484D01*
X4100696Y-4253484D02*
X4053077Y-4253484D01*
X4253077Y-4253484D02*
X4253077Y-4120150D01*
X4253077Y-4158246D02*
X4262601Y-4139198D01*
X4262601Y-4139198D02*
X4272124Y-4129674D01*
X4272124Y-4129674D02*
X4291172Y-4120150D01*
X4291172Y-4120150D02*
X4310220Y-4120150D01*
X4376886Y-4253484D02*
X4376886Y-4120150D01*
X4376886Y-4053484D02*
X4367363Y-4063008D01*
X4367363Y-4063008D02*
X4376886Y-4072531D01*
X4376886Y-4072531D02*
X4386410Y-4063008D01*
X4386410Y-4063008D02*
X4376886Y-4053484D01*
X4376886Y-4053484D02*
X4376886Y-4072531D01*
X4500696Y-4253484D02*
X4481648Y-4243960D01*
X4481648Y-4243960D02*
X4472124Y-4224912D01*
X4472124Y-4224912D02*
X4472124Y-4053484D01*
X4605458Y-4253484D02*
X4586410Y-4243960D01*
X4586410Y-4243960D02*
X4576886Y-4224912D01*
X4576886Y-4224912D02*
X4576886Y-4053484D01*
X4834029Y-4253484D02*
X4834029Y-4053484D01*
X4834029Y-4053484D02*
X4900696Y-4196341D01*
X4900696Y-4196341D02*
X4967363Y-4053484D01*
X4967363Y-4053484D02*
X4967363Y-4253484D01*
X5148315Y-4253484D02*
X5148315Y-4148722D01*
X5148315Y-4148722D02*
X5138791Y-4129674D01*
X5138791Y-4129674D02*
X5119744Y-4120150D01*
X5119744Y-4120150D02*
X5081648Y-4120150D01*
X5081648Y-4120150D02*
X5062601Y-4129674D01*
X5148315Y-4243960D02*
X5129267Y-4253484D01*
X5129267Y-4253484D02*
X5081648Y-4253484D01*
X5081648Y-4253484D02*
X5062601Y-4243960D01*
X5062601Y-4243960D02*
X5053077Y-4224912D01*
X5053077Y-4224912D02*
X5053077Y-4205865D01*
X5053077Y-4205865D02*
X5062601Y-4186817D01*
X5062601Y-4186817D02*
X5081648Y-4177293D01*
X5081648Y-4177293D02*
X5129267Y-4177293D01*
X5129267Y-4177293D02*
X5148315Y-4167769D01*
X5243553Y-4120150D02*
X5243553Y-4320150D01*
X5243553Y-4129674D02*
X5262601Y-4120150D01*
X5262601Y-4120150D02*
X5300696Y-4120150D01*
X5300696Y-4120150D02*
X5319744Y-4129674D01*
X5319744Y-4129674D02*
X5329267Y-4139198D01*
X5329267Y-4139198D02*
X5338791Y-4158246D01*
X5338791Y-4158246D02*
X5338791Y-4215389D01*
X5338791Y-4215389D02*
X5329267Y-4234436D01*
X5329267Y-4234436D02*
X5319744Y-4243960D01*
X5319744Y-4243960D02*
X5300696Y-4253484D01*
X5300696Y-4253484D02*
X5262601Y-4253484D01*
X5262601Y-4253484D02*
X5243553Y-4243960D01*
X5424505Y-4234436D02*
X5434029Y-4243960D01*
X5434029Y-4243960D02*
X5424505Y-4253484D01*
X5424505Y-4253484D02*
X5414982Y-4243960D01*
X5414982Y-4243960D02*
X5424505Y-4234436D01*
X5424505Y-4234436D02*
X5424505Y-4253484D01*
X5424505Y-4129674D02*
X5434029Y-4139198D01*
X5434029Y-4139198D02*
X5424505Y-4148722D01*
X5424505Y-4148722D02*
X5414982Y-4139198D01*
X5414982Y-4139198D02*
X5424505Y-4129674D01*
X5424505Y-4129674D02*
X5424505Y-4148722D01*
M02*
