%TF.GenerationSoftware,KiCad,Pcbnew,7.0.9*%
%TF.CreationDate,2025-04-05T19:17:22-04:00*%
%TF.ProjectId,Pneumatactor_WiredPressureSensing,506e6575-6d61-4746-9163-746f725f5769,rev?*%
%TF.SameCoordinates,Original*%
%TF.FileFunction,Profile,NP*%
%FSLAX46Y46*%
G04 Gerber Fmt 4.6, Leading zero omitted, Abs format (unit mm)*
G04 Created by KiCad (PCBNEW 7.0.9) date 2025-04-05 19:17:22*
%MOMM*%
%LPD*%
G01*
G04 APERTURE LIST*
%TA.AperFunction,Profile*%
%ADD10C,0.100000*%
%TD*%
%ADD11C,0.150000*%
G04 APERTURE END LIST*
D10*
X37973000Y-31115000D02*
X45847000Y-31115000D01*
X45847000Y-39370000D01*
X37973000Y-39370000D01*
X37973000Y-31115000D01*
D11*
X37719524Y-25990819D02*
X38386190Y-25990819D01*
X38386190Y-25990819D02*
X37957619Y-26990819D01*
X38767143Y-26895580D02*
X38814762Y-26943200D01*
X38814762Y-26943200D02*
X38767143Y-26990819D01*
X38767143Y-26990819D02*
X38719524Y-26943200D01*
X38719524Y-26943200D02*
X38767143Y-26895580D01*
X38767143Y-26895580D02*
X38767143Y-26990819D01*
X39386190Y-26419390D02*
X39290952Y-26371771D01*
X39290952Y-26371771D02*
X39243333Y-26324152D01*
X39243333Y-26324152D02*
X39195714Y-26228914D01*
X39195714Y-26228914D02*
X39195714Y-26181295D01*
X39195714Y-26181295D02*
X39243333Y-26086057D01*
X39243333Y-26086057D02*
X39290952Y-26038438D01*
X39290952Y-26038438D02*
X39386190Y-25990819D01*
X39386190Y-25990819D02*
X39576666Y-25990819D01*
X39576666Y-25990819D02*
X39671904Y-26038438D01*
X39671904Y-26038438D02*
X39719523Y-26086057D01*
X39719523Y-26086057D02*
X39767142Y-26181295D01*
X39767142Y-26181295D02*
X39767142Y-26228914D01*
X39767142Y-26228914D02*
X39719523Y-26324152D01*
X39719523Y-26324152D02*
X39671904Y-26371771D01*
X39671904Y-26371771D02*
X39576666Y-26419390D01*
X39576666Y-26419390D02*
X39386190Y-26419390D01*
X39386190Y-26419390D02*
X39290952Y-26467009D01*
X39290952Y-26467009D02*
X39243333Y-26514628D01*
X39243333Y-26514628D02*
X39195714Y-26609866D01*
X39195714Y-26609866D02*
X39195714Y-26800342D01*
X39195714Y-26800342D02*
X39243333Y-26895580D01*
X39243333Y-26895580D02*
X39290952Y-26943200D01*
X39290952Y-26943200D02*
X39386190Y-26990819D01*
X39386190Y-26990819D02*
X39576666Y-26990819D01*
X39576666Y-26990819D02*
X39671904Y-26943200D01*
X39671904Y-26943200D02*
X39719523Y-26895580D01*
X39719523Y-26895580D02*
X39767142Y-26800342D01*
X39767142Y-26800342D02*
X39767142Y-26609866D01*
X39767142Y-26609866D02*
X39719523Y-26514628D01*
X39719523Y-26514628D02*
X39671904Y-26467009D01*
X39671904Y-26467009D02*
X39576666Y-26419390D01*
X40100476Y-25990819D02*
X40767142Y-25990819D01*
X40767142Y-25990819D02*
X40338571Y-26990819D01*
X41576666Y-26324152D02*
X41576666Y-26990819D01*
X41338571Y-25943200D02*
X41100476Y-26657485D01*
X41100476Y-26657485D02*
X41719523Y-26657485D01*
X42290952Y-25990819D02*
X42386190Y-25990819D01*
X42386190Y-25990819D02*
X42481428Y-26038438D01*
X42481428Y-26038438D02*
X42529047Y-26086057D01*
X42529047Y-26086057D02*
X42576666Y-26181295D01*
X42576666Y-26181295D02*
X42624285Y-26371771D01*
X42624285Y-26371771D02*
X42624285Y-26609866D01*
X42624285Y-26609866D02*
X42576666Y-26800342D01*
X42576666Y-26800342D02*
X42529047Y-26895580D01*
X42529047Y-26895580D02*
X42481428Y-26943200D01*
X42481428Y-26943200D02*
X42386190Y-26990819D01*
X42386190Y-26990819D02*
X42290952Y-26990819D01*
X42290952Y-26990819D02*
X42195714Y-26943200D01*
X42195714Y-26943200D02*
X42148095Y-26895580D01*
X42148095Y-26895580D02*
X42100476Y-26800342D01*
X42100476Y-26800342D02*
X42052857Y-26609866D01*
X42052857Y-26609866D02*
X42052857Y-26371771D01*
X42052857Y-26371771D02*
X42100476Y-26181295D01*
X42100476Y-26181295D02*
X42148095Y-26086057D01*
X42148095Y-26086057D02*
X42195714Y-26038438D01*
X42195714Y-26038438D02*
X42290952Y-25990819D01*
X43814762Y-26990819D02*
X43814762Y-26324152D01*
X43814762Y-26419390D02*
X43862381Y-26371771D01*
X43862381Y-26371771D02*
X43957619Y-26324152D01*
X43957619Y-26324152D02*
X44100476Y-26324152D01*
X44100476Y-26324152D02*
X44195714Y-26371771D01*
X44195714Y-26371771D02*
X44243333Y-26467009D01*
X44243333Y-26467009D02*
X44243333Y-26990819D01*
X44243333Y-26467009D02*
X44290952Y-26371771D01*
X44290952Y-26371771D02*
X44386190Y-26324152D01*
X44386190Y-26324152D02*
X44529047Y-26324152D01*
X44529047Y-26324152D02*
X44624286Y-26371771D01*
X44624286Y-26371771D02*
X44671905Y-26467009D01*
X44671905Y-26467009D02*
X44671905Y-26990819D01*
X45148095Y-26990819D02*
X45148095Y-26324152D01*
X45148095Y-26419390D02*
X45195714Y-26371771D01*
X45195714Y-26371771D02*
X45290952Y-26324152D01*
X45290952Y-26324152D02*
X45433809Y-26324152D01*
X45433809Y-26324152D02*
X45529047Y-26371771D01*
X45529047Y-26371771D02*
X45576666Y-26467009D01*
X45576666Y-26467009D02*
X45576666Y-26990819D01*
X45576666Y-26467009D02*
X45624285Y-26371771D01*
X45624285Y-26371771D02*
X45719523Y-26324152D01*
X45719523Y-26324152D02*
X45862380Y-26324152D01*
X45862380Y-26324152D02*
X45957619Y-26371771D01*
X45957619Y-26371771D02*
X46005238Y-26467009D01*
X46005238Y-26467009D02*
X46005238Y-26990819D01*
D10*
X45847000Y-30615000D02*
X45847000Y-27099580D01*
X37973000Y-30615000D02*
X37973000Y-27099580D01*
X45847000Y-27686000D02*
X37973000Y-27686000D01*
X45847000Y-27686000D02*
X37973000Y-27686000D01*
X45847000Y-27686000D02*
X44720496Y-28272421D01*
X45847000Y-27686000D02*
X44720496Y-27099579D01*
X37973000Y-27686000D02*
X39099504Y-27099579D01*
X37973000Y-27686000D02*
X39099504Y-28272421D01*
D11*
X33531390Y-39194880D02*
X33483771Y-39290118D01*
X33483771Y-39290118D02*
X33436152Y-39337737D01*
X33436152Y-39337737D02*
X33340914Y-39385356D01*
X33340914Y-39385356D02*
X33293295Y-39385356D01*
X33293295Y-39385356D02*
X33198057Y-39337737D01*
X33198057Y-39337737D02*
X33150438Y-39290118D01*
X33150438Y-39290118D02*
X33102819Y-39194880D01*
X33102819Y-39194880D02*
X33102819Y-39004404D01*
X33102819Y-39004404D02*
X33150438Y-38909166D01*
X33150438Y-38909166D02*
X33198057Y-38861547D01*
X33198057Y-38861547D02*
X33293295Y-38813928D01*
X33293295Y-38813928D02*
X33340914Y-38813928D01*
X33340914Y-38813928D02*
X33436152Y-38861547D01*
X33436152Y-38861547D02*
X33483771Y-38909166D01*
X33483771Y-38909166D02*
X33531390Y-39004404D01*
X33531390Y-39004404D02*
X33531390Y-39194880D01*
X33531390Y-39194880D02*
X33579009Y-39290118D01*
X33579009Y-39290118D02*
X33626628Y-39337737D01*
X33626628Y-39337737D02*
X33721866Y-39385356D01*
X33721866Y-39385356D02*
X33912342Y-39385356D01*
X33912342Y-39385356D02*
X34007580Y-39337737D01*
X34007580Y-39337737D02*
X34055200Y-39290118D01*
X34055200Y-39290118D02*
X34102819Y-39194880D01*
X34102819Y-39194880D02*
X34102819Y-39004404D01*
X34102819Y-39004404D02*
X34055200Y-38909166D01*
X34055200Y-38909166D02*
X34007580Y-38861547D01*
X34007580Y-38861547D02*
X33912342Y-38813928D01*
X33912342Y-38813928D02*
X33721866Y-38813928D01*
X33721866Y-38813928D02*
X33626628Y-38861547D01*
X33626628Y-38861547D02*
X33579009Y-38909166D01*
X33579009Y-38909166D02*
X33531390Y-39004404D01*
X34007580Y-38385356D02*
X34055200Y-38337737D01*
X34055200Y-38337737D02*
X34102819Y-38385356D01*
X34102819Y-38385356D02*
X34055200Y-38432975D01*
X34055200Y-38432975D02*
X34007580Y-38385356D01*
X34007580Y-38385356D02*
X34102819Y-38385356D01*
X33198057Y-37956785D02*
X33150438Y-37909166D01*
X33150438Y-37909166D02*
X33102819Y-37813928D01*
X33102819Y-37813928D02*
X33102819Y-37575833D01*
X33102819Y-37575833D02*
X33150438Y-37480595D01*
X33150438Y-37480595D02*
X33198057Y-37432976D01*
X33198057Y-37432976D02*
X33293295Y-37385357D01*
X33293295Y-37385357D02*
X33388533Y-37385357D01*
X33388533Y-37385357D02*
X33531390Y-37432976D01*
X33531390Y-37432976D02*
X34102819Y-38004404D01*
X34102819Y-38004404D02*
X34102819Y-37385357D01*
X33102819Y-36480595D02*
X33102819Y-36956785D01*
X33102819Y-36956785D02*
X33579009Y-37004404D01*
X33579009Y-37004404D02*
X33531390Y-36956785D01*
X33531390Y-36956785D02*
X33483771Y-36861547D01*
X33483771Y-36861547D02*
X33483771Y-36623452D01*
X33483771Y-36623452D02*
X33531390Y-36528214D01*
X33531390Y-36528214D02*
X33579009Y-36480595D01*
X33579009Y-36480595D02*
X33674247Y-36432976D01*
X33674247Y-36432976D02*
X33912342Y-36432976D01*
X33912342Y-36432976D02*
X34007580Y-36480595D01*
X34007580Y-36480595D02*
X34055200Y-36528214D01*
X34055200Y-36528214D02*
X34102819Y-36623452D01*
X34102819Y-36623452D02*
X34102819Y-36861547D01*
X34102819Y-36861547D02*
X34055200Y-36956785D01*
X34055200Y-36956785D02*
X34007580Y-37004404D01*
X33102819Y-35528214D02*
X33102819Y-36004404D01*
X33102819Y-36004404D02*
X33579009Y-36052023D01*
X33579009Y-36052023D02*
X33531390Y-36004404D01*
X33531390Y-36004404D02*
X33483771Y-35909166D01*
X33483771Y-35909166D02*
X33483771Y-35671071D01*
X33483771Y-35671071D02*
X33531390Y-35575833D01*
X33531390Y-35575833D02*
X33579009Y-35528214D01*
X33579009Y-35528214D02*
X33674247Y-35480595D01*
X33674247Y-35480595D02*
X33912342Y-35480595D01*
X33912342Y-35480595D02*
X34007580Y-35528214D01*
X34007580Y-35528214D02*
X34055200Y-35575833D01*
X34055200Y-35575833D02*
X34102819Y-35671071D01*
X34102819Y-35671071D02*
X34102819Y-35909166D01*
X34102819Y-35909166D02*
X34055200Y-36004404D01*
X34055200Y-36004404D02*
X34007580Y-36052023D01*
X33102819Y-34861547D02*
X33102819Y-34766309D01*
X33102819Y-34766309D02*
X33150438Y-34671071D01*
X33150438Y-34671071D02*
X33198057Y-34623452D01*
X33198057Y-34623452D02*
X33293295Y-34575833D01*
X33293295Y-34575833D02*
X33483771Y-34528214D01*
X33483771Y-34528214D02*
X33721866Y-34528214D01*
X33721866Y-34528214D02*
X33912342Y-34575833D01*
X33912342Y-34575833D02*
X34007580Y-34623452D01*
X34007580Y-34623452D02*
X34055200Y-34671071D01*
X34055200Y-34671071D02*
X34102819Y-34766309D01*
X34102819Y-34766309D02*
X34102819Y-34861547D01*
X34102819Y-34861547D02*
X34055200Y-34956785D01*
X34055200Y-34956785D02*
X34007580Y-35004404D01*
X34007580Y-35004404D02*
X33912342Y-35052023D01*
X33912342Y-35052023D02*
X33721866Y-35099642D01*
X33721866Y-35099642D02*
X33483771Y-35099642D01*
X33483771Y-35099642D02*
X33293295Y-35052023D01*
X33293295Y-35052023D02*
X33198057Y-35004404D01*
X33198057Y-35004404D02*
X33150438Y-34956785D01*
X33150438Y-34956785D02*
X33102819Y-34861547D01*
X34102819Y-33337737D02*
X33436152Y-33337737D01*
X33531390Y-33337737D02*
X33483771Y-33290118D01*
X33483771Y-33290118D02*
X33436152Y-33194880D01*
X33436152Y-33194880D02*
X33436152Y-33052023D01*
X33436152Y-33052023D02*
X33483771Y-32956785D01*
X33483771Y-32956785D02*
X33579009Y-32909166D01*
X33579009Y-32909166D02*
X34102819Y-32909166D01*
X33579009Y-32909166D02*
X33483771Y-32861547D01*
X33483771Y-32861547D02*
X33436152Y-32766309D01*
X33436152Y-32766309D02*
X33436152Y-32623452D01*
X33436152Y-32623452D02*
X33483771Y-32528213D01*
X33483771Y-32528213D02*
X33579009Y-32480594D01*
X33579009Y-32480594D02*
X34102819Y-32480594D01*
X34102819Y-32004404D02*
X33436152Y-32004404D01*
X33531390Y-32004404D02*
X33483771Y-31956785D01*
X33483771Y-31956785D02*
X33436152Y-31861547D01*
X33436152Y-31861547D02*
X33436152Y-31718690D01*
X33436152Y-31718690D02*
X33483771Y-31623452D01*
X33483771Y-31623452D02*
X33579009Y-31575833D01*
X33579009Y-31575833D02*
X34102819Y-31575833D01*
X33579009Y-31575833D02*
X33483771Y-31528214D01*
X33483771Y-31528214D02*
X33436152Y-31432976D01*
X33436152Y-31432976D02*
X33436152Y-31290119D01*
X33436152Y-31290119D02*
X33483771Y-31194880D01*
X33483771Y-31194880D02*
X33579009Y-31147261D01*
X33579009Y-31147261D02*
X34102819Y-31147261D01*
D10*
X37473000Y-31115000D02*
X34211580Y-31115000D01*
X37473000Y-39370000D02*
X34211580Y-39370000D01*
X34798000Y-31115000D02*
X34798000Y-39370000D01*
X34798000Y-31115000D02*
X34798000Y-39370000D01*
X34798000Y-31115000D02*
X35384421Y-32241504D01*
X34798000Y-31115000D02*
X34211579Y-32241504D01*
X34798000Y-39370000D02*
X34211579Y-38243496D01*
X34798000Y-39370000D02*
X35384421Y-38243496D01*
M02*
