%TF.GenerationSoftware,KiCad,Pcbnew,7.0.9*%
%TF.CreationDate,2025-04-05T19:17:22-04:00*%
%TF.ProjectId,Pneumatactor_WiredPressureSensing,506e6575-6d61-4746-9163-746f725f5769,rev?*%
%TF.SameCoordinates,Original*%
%TF.FileFunction,Copper,L1,Top*%
%TF.FilePolarity,Positive*%
%FSLAX46Y46*%
G04 Gerber Fmt 4.6, Leading zero omitted, Abs format (unit mm)*
G04 Created by KiCad (PCBNEW 7.0.9) date 2025-04-05 19:17:22*
%MOMM*%
%LPD*%
G01*
G04 APERTURE LIST*
%TA.AperFunction,SMDPad,CuDef*%
%ADD10R,2.260600X0.889000*%
%TD*%
%TA.AperFunction,SMDPad,CuDef*%
%ADD11R,2.794000X0.889000*%
%TD*%
%TA.AperFunction,ViaPad*%
%ADD12C,0.800000*%
%TD*%
%TA.AperFunction,Conductor*%
%ADD13C,0.250000*%
%TD*%
G04 APERTURE END LIST*
D10*
%TO.P,U1,1,SCLK*%
%TO.N,SCLK*%
X39235002Y-33409000D03*
%TO.P,U1,2,GND*%
%TO.N,GND*%
X39235002Y-34659000D03*
D11*
%TO.P,U1,3,CSB*%
%TO.N,CSB*%
X39501702Y-35909000D03*
D10*
%TO.P,U1,4,NC*%
%TO.N,unconnected-(U1-NC-Pad4)*%
X39235002Y-37159000D03*
%TO.P,U1,5,VDD*%
%TO.N,VDD*%
X44584998Y-37159000D03*
%TO.P,U1,6,PS*%
%TO.N,GND*%
X44584998Y-35909000D03*
%TO.P,U1,7,SDI\u005CSDA*%
%TO.N,SDI*%
X44584998Y-34659000D03*
%TO.P,U1,8,SDO*%
%TO.N,SDO*%
X44584998Y-33409000D03*
%TD*%
D12*
%TO.N,VDD*%
X42037000Y-38735000D03*
%TO.N,GND*%
X45212000Y-38735000D03*
X38534972Y-38842435D03*
X42037000Y-37719000D03*
X45218705Y-31737142D03*
X38602294Y-31736653D03*
%TO.N,SCLK*%
X42037000Y-36322000D03*
%TO.N,SDO*%
X43053000Y-31750000D03*
%TO.N,SDI*%
X40640000Y-31750000D03*
%TD*%
D13*
%TO.N,VDD*%
X44584998Y-37159000D02*
X43299998Y-38444000D01*
X42328000Y-38444000D02*
X42037000Y-38735000D01*
X43299998Y-38444000D02*
X42328000Y-38444000D01*
%TO.N,GND*%
X39235002Y-34659000D02*
X40755000Y-34659000D01*
X41312000Y-36994000D02*
X42037000Y-37719000D01*
X40755000Y-34659000D02*
X41312000Y-35216000D01*
X41312000Y-35216000D02*
X41312000Y-36994000D01*
X42037000Y-37482198D02*
X43610198Y-35909000D01*
X42037000Y-37719000D02*
X42037000Y-37482198D01*
X43610198Y-35909000D02*
X44584998Y-35909000D01*
%TO.N,SCLK*%
X42037000Y-36322000D02*
X42037000Y-35236198D01*
X42037000Y-35236198D02*
X40209802Y-33409000D01*
X40209802Y-33409000D02*
X39235002Y-33409000D01*
%TO.N,SDO*%
X43053000Y-31750000D02*
X43053000Y-31877002D01*
X43053000Y-31877002D02*
X44584998Y-33409000D01*
%TO.N,SDI*%
X40640000Y-31750000D02*
X43549000Y-34659000D01*
X43549000Y-34659000D02*
X44584998Y-34659000D01*
%TD*%
%TA.AperFunction,Conductor*%
%TO.N,GND*%
G36*
X42937208Y-36422003D02*
G01*
X42961487Y-36461915D01*
X43011343Y-36595586D01*
X43011345Y-36595588D01*
X43097507Y-36710686D01*
X43097509Y-36710688D01*
X43104507Y-36715927D01*
X43146379Y-36771859D01*
X43154198Y-36815195D01*
X43154198Y-37648356D01*
X43154200Y-37648382D01*
X43157111Y-37673487D01*
X43157113Y-37673491D01*
X43202491Y-37776264D01*
X43208986Y-37785745D01*
X43206066Y-37787745D01*
X43230041Y-37831652D01*
X43225057Y-37901344D01*
X43196559Y-37945689D01*
X43160071Y-37982179D01*
X43098748Y-38015665D01*
X43072387Y-38018500D01*
X42260604Y-38018500D01*
X42237639Y-38025962D01*
X42218723Y-38030503D01*
X42185239Y-38035807D01*
X42184970Y-38034109D01*
X42128736Y-38036146D01*
X42122058Y-38034500D01*
X42122056Y-38034500D01*
X41951944Y-38034500D01*
X41786773Y-38075210D01*
X41636150Y-38154263D01*
X41508816Y-38267072D01*
X41412182Y-38407068D01*
X41351860Y-38566125D01*
X41351859Y-38566130D01*
X41331355Y-38735000D01*
X41351859Y-38903869D01*
X41351860Y-38903874D01*
X41412182Y-39062931D01*
X41489580Y-39175060D01*
X41511463Y-39241414D01*
X41493998Y-39309066D01*
X41442730Y-39356536D01*
X41387530Y-39369500D01*
X38097500Y-39369500D01*
X38030461Y-39349815D01*
X37984706Y-39297011D01*
X37973500Y-39245500D01*
X37973500Y-38027999D01*
X37993185Y-37960960D01*
X38045989Y-37915205D01*
X38097495Y-37903999D01*
X40410166Y-37903999D01*
X40410181Y-37903997D01*
X40410184Y-37903997D01*
X40435289Y-37901086D01*
X40435290Y-37901085D01*
X40435293Y-37901085D01*
X40538067Y-37855706D01*
X40617508Y-37776265D01*
X40662887Y-37673491D01*
X40665802Y-37648365D01*
X40665801Y-36777998D01*
X40685485Y-36710960D01*
X40738289Y-36665205D01*
X40789801Y-36653999D01*
X40943558Y-36653999D01*
X40943566Y-36653999D01*
X40943581Y-36653997D01*
X40943584Y-36653997D01*
X40968689Y-36651086D01*
X40968690Y-36651085D01*
X40968693Y-36651085D01*
X41071467Y-36605706D01*
X41150908Y-36526265D01*
X41150911Y-36526257D01*
X41154790Y-36520596D01*
X41208916Y-36476413D01*
X41278337Y-36468506D01*
X41341012Y-36499385D01*
X41373033Y-36546701D01*
X41412182Y-36649931D01*
X41454308Y-36710960D01*
X41508817Y-36789929D01*
X41537337Y-36815195D01*
X41636150Y-36902736D01*
X41786773Y-36981789D01*
X41786775Y-36981790D01*
X41951944Y-37022500D01*
X42122056Y-37022500D01*
X42287225Y-36981790D01*
X42366692Y-36940081D01*
X42437849Y-36902736D01*
X42437850Y-36902734D01*
X42437852Y-36902734D01*
X42565183Y-36789929D01*
X42661818Y-36649930D01*
X42722140Y-36490872D01*
X42722209Y-36490306D01*
X42722373Y-36489924D01*
X42723935Y-36483588D01*
X42724988Y-36483847D01*
X42749828Y-36426127D01*
X42807760Y-36387068D01*
X42877613Y-36385531D01*
X42937208Y-36422003D01*
G37*
%TD.AperFunction*%
%TA.AperFunction,Conductor*%
G36*
X45789539Y-37923684D02*
G01*
X45835294Y-37976488D01*
X45846500Y-38027999D01*
X45846500Y-39245500D01*
X45826815Y-39312539D01*
X45774011Y-39358294D01*
X45722500Y-39369500D01*
X42686470Y-39369500D01*
X42619431Y-39349815D01*
X42573676Y-39297011D01*
X42563732Y-39227853D01*
X42584420Y-39175060D01*
X42598265Y-39155001D01*
X42661818Y-39062930D01*
X42704825Y-38949529D01*
X42747003Y-38893826D01*
X42812600Y-38869769D01*
X42820767Y-38869500D01*
X43367390Y-38869500D01*
X43367391Y-38869500D01*
X43390358Y-38862036D01*
X43409274Y-38857495D01*
X43433124Y-38853719D01*
X43454634Y-38842757D01*
X43472612Y-38835310D01*
X43495579Y-38827849D01*
X43515116Y-38813653D01*
X43531704Y-38803488D01*
X43553218Y-38792528D01*
X43648526Y-38697220D01*
X44405427Y-37940317D01*
X44466750Y-37906833D01*
X44493108Y-37903999D01*
X45722500Y-37903999D01*
X45789539Y-37923684D01*
G37*
%TD.AperFunction*%
%TA.AperFunction,Conductor*%
G36*
X40057569Y-31135185D02*
G01*
X40103324Y-31187989D01*
X40113268Y-31257147D01*
X40092580Y-31309940D01*
X40015183Y-31422068D01*
X40015182Y-31422068D01*
X39954860Y-31581125D01*
X39954859Y-31581130D01*
X39934355Y-31750000D01*
X39954859Y-31918869D01*
X39954860Y-31918874D01*
X40015182Y-32077931D01*
X40077475Y-32168177D01*
X40111817Y-32217929D01*
X40197272Y-32293635D01*
X40239150Y-32330736D01*
X40389773Y-32409789D01*
X40389775Y-32409790D01*
X40423145Y-32418015D01*
X40429588Y-32419603D01*
X40489969Y-32454759D01*
X40490362Y-32455529D01*
X40540360Y-32447698D01*
X40553937Y-32450251D01*
X40554944Y-32450500D01*
X40687390Y-32450500D01*
X40754429Y-32470185D01*
X40775071Y-32486819D01*
X43117879Y-34829627D01*
X43151364Y-34890950D01*
X43154198Y-34917308D01*
X43154198Y-35002803D01*
X43134513Y-35069842D01*
X43104512Y-35102067D01*
X43097515Y-35107304D01*
X43097506Y-35107314D01*
X43011347Y-35222406D01*
X43011343Y-35222413D01*
X42961101Y-35357120D01*
X42961099Y-35357127D01*
X42954698Y-35416655D01*
X42954698Y-35659000D01*
X44710998Y-35659000D01*
X44778037Y-35678685D01*
X44823792Y-35731489D01*
X44834998Y-35783000D01*
X44834998Y-36035000D01*
X44815313Y-36102039D01*
X44762509Y-36147794D01*
X44710998Y-36159000D01*
X42954698Y-36159000D01*
X42923314Y-36190384D01*
X42861990Y-36223868D01*
X42792299Y-36218883D01*
X42736365Y-36177012D01*
X42719692Y-36146675D01*
X42661818Y-35994070D01*
X42565183Y-35854071D01*
X42565181Y-35854069D01*
X42504273Y-35800109D01*
X42467146Y-35740920D01*
X42462500Y-35707294D01*
X42462500Y-35168806D01*
X42462499Y-35168802D01*
X42455039Y-35145843D01*
X42450495Y-35126919D01*
X42449610Y-35121330D01*
X42446719Y-35103072D01*
X42435753Y-35081552D01*
X42428308Y-35063576D01*
X42422102Y-35044474D01*
X42420849Y-35040617D01*
X42406653Y-35021078D01*
X42396493Y-35004499D01*
X42385528Y-34982978D01*
X42290220Y-34887670D01*
X42283155Y-34880605D01*
X42283148Y-34880599D01*
X40702120Y-33299570D01*
X40668635Y-33238247D01*
X40665801Y-33211889D01*
X40665801Y-32919643D01*
X40665801Y-32919636D01*
X40665799Y-32919617D01*
X40662888Y-32894512D01*
X40662887Y-32894510D01*
X40662887Y-32894509D01*
X40617508Y-32791735D01*
X40538067Y-32712294D01*
X40534867Y-32710881D01*
X40474173Y-32684082D01*
X40437317Y-32652950D01*
X40405360Y-32663880D01*
X40399913Y-32664000D01*
X38097500Y-32664000D01*
X38030461Y-32644315D01*
X37984706Y-32591511D01*
X37973500Y-32540000D01*
X37973500Y-31239500D01*
X37993185Y-31172461D01*
X38045989Y-31126706D01*
X38097500Y-31115500D01*
X39990530Y-31115500D01*
X40057569Y-31135185D01*
G37*
%TD.AperFunction*%
%TA.AperFunction,Conductor*%
G36*
X41070505Y-34871896D02*
G01*
X41076983Y-34877928D01*
X41211024Y-35011969D01*
X41244509Y-35073292D01*
X41241126Y-35120588D01*
X41299982Y-35121330D01*
X41351232Y-35152177D01*
X41575181Y-35376126D01*
X41608666Y-35437449D01*
X41611500Y-35463807D01*
X41611500Y-35707294D01*
X41591815Y-35774333D01*
X41569727Y-35800109D01*
X41508817Y-35854070D01*
X41425250Y-35975136D01*
X41370967Y-36019126D01*
X41301519Y-36026785D01*
X41238954Y-35995681D01*
X41203137Y-35935690D01*
X41199201Y-35904695D01*
X41199201Y-35419643D01*
X41199201Y-35419636D01*
X41199199Y-35419617D01*
X41196288Y-35394512D01*
X41196287Y-35394508D01*
X41150117Y-35289944D01*
X41141045Y-35220666D01*
X41141408Y-35219895D01*
X41132189Y-35223334D01*
X41073257Y-35213084D01*
X40968697Y-35166916D01*
X40959695Y-35164467D01*
X40960503Y-35161496D01*
X40910681Y-35140363D01*
X40871320Y-35082635D01*
X40865302Y-35044474D01*
X40865302Y-34965609D01*
X40884987Y-34898570D01*
X40937791Y-34852815D01*
X41006949Y-34842871D01*
X41070505Y-34871896D01*
G37*
%TD.AperFunction*%
%TA.AperFunction,Conductor*%
G36*
X45789539Y-31135185D02*
G01*
X45835294Y-31187989D01*
X45846500Y-31239500D01*
X45846500Y-32540000D01*
X45826815Y-32607039D01*
X45774011Y-32652794D01*
X45722500Y-32664000D01*
X44493108Y-32664000D01*
X44426069Y-32644315D01*
X44405427Y-32627681D01*
X43776336Y-31998590D01*
X43742851Y-31937267D01*
X43740921Y-31895966D01*
X43758645Y-31750000D01*
X43738140Y-31581128D01*
X43677818Y-31422070D01*
X43608313Y-31321376D01*
X43600420Y-31309940D01*
X43578537Y-31243586D01*
X43596002Y-31175934D01*
X43647270Y-31128464D01*
X43702470Y-31115500D01*
X45722500Y-31115500D01*
X45789539Y-31135185D01*
G37*
%TD.AperFunction*%
%TD*%
M02*
