%TF.GenerationSoftware,KiCad,Pcbnew,7.0.9*%
%TF.CreationDate,2025-04-05T19:15:52-04:00*%
%TF.ProjectId,Pneumatactor_WiredPressureSensing,506e6575-6d61-4746-9163-746f725f5769,rev?*%
%TF.SameCoordinates,Original*%
%TF.FileFunction,Drillmap*%
%TF.FilePolarity,Positive*%
%FSLAX45Y45*%
G04 Gerber Fmt 4.5, Leading zero omitted, Abs format (unit mm)*
G04 Created by KiCad (PCBNEW 7.0.9) date 2025-04-05 19:15:52*
%MOMM*%
%LPD*%
G01*
G04 APERTURE LIST*
%ADD10C,0.100000*%
%ADD11C,0.200000*%
G04 APERTURE END LIST*
D10*
X3797300Y-3111500D02*
X4584700Y-3111500D01*
X4584700Y-3937000D01*
X3797300Y-3937000D01*
X3797300Y-3111500D01*
D11*
D10*
X3833497Y-3864243D02*
X3873497Y-3904243D01*
X3873497Y-3864243D02*
X3833497Y-3904243D01*
X3840229Y-3153665D02*
X3880229Y-3193665D01*
X3880229Y-3153665D02*
X3840229Y-3193665D01*
X4044000Y-3155000D02*
X4084000Y-3195000D01*
X4084000Y-3155000D02*
X4044000Y-3195000D01*
X4183700Y-3612200D02*
X4223700Y-3652200D01*
X4223700Y-3612200D02*
X4183700Y-3652200D01*
X4183700Y-3751900D02*
X4223700Y-3791900D01*
X4223700Y-3751900D02*
X4183700Y-3791900D01*
X4183700Y-3853500D02*
X4223700Y-3893500D01*
X4223700Y-3853500D02*
X4183700Y-3893500D01*
X4285300Y-3155000D02*
X4325300Y-3195000D01*
X4325300Y-3155000D02*
X4285300Y-3195000D01*
X4501200Y-3853500D02*
X4541200Y-3893500D01*
X4541200Y-3853500D02*
X4501200Y-3893500D01*
X4501871Y-3153714D02*
X4541871Y-3193714D01*
X4541871Y-3153714D02*
X4501871Y-3193714D01*
D11*
X4053077Y-4253484D02*
X4053077Y-4053484D01*
X4053077Y-4053484D02*
X4100696Y-4053484D01*
X4100696Y-4053484D02*
X4129267Y-4063008D01*
X4129267Y-4063008D02*
X4148315Y-4082055D01*
X4148315Y-4082055D02*
X4157839Y-4101103D01*
X4157839Y-4101103D02*
X4167362Y-4139198D01*
X4167362Y-4139198D02*
X4167362Y-4167769D01*
X4167362Y-4167769D02*
X4157839Y-4205865D01*
X4157839Y-4205865D02*
X4148315Y-4224912D01*
X4148315Y-4224912D02*
X4129267Y-4243960D01*
X4129267Y-4243960D02*
X4100696Y-4253484D01*
X4100696Y-4253484D02*
X4053077Y-4253484D01*
X4253077Y-4253484D02*
X4253077Y-4120150D01*
X4253077Y-4158246D02*
X4262601Y-4139198D01*
X4262601Y-4139198D02*
X4272124Y-4129674D01*
X4272124Y-4129674D02*
X4291172Y-4120150D01*
X4291172Y-4120150D02*
X4310220Y-4120150D01*
X4376886Y-4253484D02*
X4376886Y-4120150D01*
X4376886Y-4053484D02*
X4367363Y-4063008D01*
X4367363Y-4063008D02*
X4376886Y-4072531D01*
X4376886Y-4072531D02*
X4386410Y-4063008D01*
X4386410Y-4063008D02*
X4376886Y-4053484D01*
X4376886Y-4053484D02*
X4376886Y-4072531D01*
X4500696Y-4253484D02*
X4481648Y-4243960D01*
X4481648Y-4243960D02*
X4472124Y-4224912D01*
X4472124Y-4224912D02*
X4472124Y-4053484D01*
X4605458Y-4253484D02*
X4586410Y-4243960D01*
X4586410Y-4243960D02*
X4576886Y-4224912D01*
X4576886Y-4224912D02*
X4576886Y-4053484D01*
X4834029Y-4253484D02*
X4834029Y-4053484D01*
X4834029Y-4053484D02*
X4900696Y-4196341D01*
X4900696Y-4196341D02*
X4967363Y-4053484D01*
X4967363Y-4053484D02*
X4967363Y-4253484D01*
X5148315Y-4253484D02*
X5148315Y-4148722D01*
X5148315Y-4148722D02*
X5138791Y-4129674D01*
X5138791Y-4129674D02*
X5119744Y-4120150D01*
X5119744Y-4120150D02*
X5081648Y-4120150D01*
X5081648Y-4120150D02*
X5062601Y-4129674D01*
X5148315Y-4243960D02*
X5129267Y-4253484D01*
X5129267Y-4253484D02*
X5081648Y-4253484D01*
X5081648Y-4253484D02*
X5062601Y-4243960D01*
X5062601Y-4243960D02*
X5053077Y-4224912D01*
X5053077Y-4224912D02*
X5053077Y-4205865D01*
X5053077Y-4205865D02*
X5062601Y-4186817D01*
X5062601Y-4186817D02*
X5081648Y-4177293D01*
X5081648Y-4177293D02*
X5129267Y-4177293D01*
X5129267Y-4177293D02*
X5148315Y-4167769D01*
X5243553Y-4120150D02*
X5243553Y-4320150D01*
X5243553Y-4129674D02*
X5262601Y-4120150D01*
X5262601Y-4120150D02*
X5300696Y-4120150D01*
X5300696Y-4120150D02*
X5319744Y-4129674D01*
X5319744Y-4129674D02*
X5329267Y-4139198D01*
X5329267Y-4139198D02*
X5338791Y-4158246D01*
X5338791Y-4158246D02*
X5338791Y-4215389D01*
X5338791Y-4215389D02*
X5329267Y-4234436D01*
X5329267Y-4234436D02*
X5319744Y-4243960D01*
X5319744Y-4243960D02*
X5300696Y-4253484D01*
X5300696Y-4253484D02*
X5262601Y-4253484D01*
X5262601Y-4253484D02*
X5243553Y-4243960D01*
X5424505Y-4234436D02*
X5434029Y-4243960D01*
X5434029Y-4243960D02*
X5424505Y-4253484D01*
X5424505Y-4253484D02*
X5414982Y-4243960D01*
X5414982Y-4243960D02*
X5424505Y-4234436D01*
X5424505Y-4234436D02*
X5424505Y-4253484D01*
X5424505Y-4129674D02*
X5434029Y-4139198D01*
X5434029Y-4139198D02*
X5424505Y-4148722D01*
X5424505Y-4148722D02*
X5414982Y-4139198D01*
X5414982Y-4139198D02*
X5424505Y-4129674D01*
X5424505Y-4129674D02*
X5424505Y-4148722D01*
D10*
X3752300Y-4562000D02*
X3792300Y-4602000D01*
X3792300Y-4562000D02*
X3752300Y-4602000D01*
D11*
X4091172Y-4473484D02*
X4110220Y-4473484D01*
X4110220Y-4473484D02*
X4129267Y-4483008D01*
X4129267Y-4483008D02*
X4138791Y-4492531D01*
X4138791Y-4492531D02*
X4148315Y-4511579D01*
X4148315Y-4511579D02*
X4157839Y-4549674D01*
X4157839Y-4549674D02*
X4157839Y-4597293D01*
X4157839Y-4597293D02*
X4148315Y-4635389D01*
X4148315Y-4635389D02*
X4138791Y-4654436D01*
X4138791Y-4654436D02*
X4129267Y-4663960D01*
X4129267Y-4663960D02*
X4110220Y-4673484D01*
X4110220Y-4673484D02*
X4091172Y-4673484D01*
X4091172Y-4673484D02*
X4072124Y-4663960D01*
X4072124Y-4663960D02*
X4062601Y-4654436D01*
X4062601Y-4654436D02*
X4053077Y-4635389D01*
X4053077Y-4635389D02*
X4043553Y-4597293D01*
X4043553Y-4597293D02*
X4043553Y-4549674D01*
X4043553Y-4549674D02*
X4053077Y-4511579D01*
X4053077Y-4511579D02*
X4062601Y-4492531D01*
X4062601Y-4492531D02*
X4072124Y-4483008D01*
X4072124Y-4483008D02*
X4091172Y-4473484D01*
X4243553Y-4654436D02*
X4253077Y-4663960D01*
X4253077Y-4663960D02*
X4243553Y-4673484D01*
X4243553Y-4673484D02*
X4234029Y-4663960D01*
X4234029Y-4663960D02*
X4243553Y-4654436D01*
X4243553Y-4654436D02*
X4243553Y-4673484D01*
X4424505Y-4540150D02*
X4424505Y-4673484D01*
X4376886Y-4463960D02*
X4329267Y-4606817D01*
X4329267Y-4606817D02*
X4453077Y-4606817D01*
X4567363Y-4473484D02*
X4586410Y-4473484D01*
X4586410Y-4473484D02*
X4605458Y-4483008D01*
X4605458Y-4483008D02*
X4614982Y-4492531D01*
X4614982Y-4492531D02*
X4624505Y-4511579D01*
X4624505Y-4511579D02*
X4634029Y-4549674D01*
X4634029Y-4549674D02*
X4634029Y-4597293D01*
X4634029Y-4597293D02*
X4624505Y-4635389D01*
X4624505Y-4635389D02*
X4614982Y-4654436D01*
X4614982Y-4654436D02*
X4605458Y-4663960D01*
X4605458Y-4663960D02*
X4586410Y-4673484D01*
X4586410Y-4673484D02*
X4567363Y-4673484D01*
X4567363Y-4673484D02*
X4548315Y-4663960D01*
X4548315Y-4663960D02*
X4538791Y-4654436D01*
X4538791Y-4654436D02*
X4529267Y-4635389D01*
X4529267Y-4635389D02*
X4519744Y-4597293D01*
X4519744Y-4597293D02*
X4519744Y-4549674D01*
X4519744Y-4549674D02*
X4529267Y-4511579D01*
X4529267Y-4511579D02*
X4538791Y-4492531D01*
X4538791Y-4492531D02*
X4548315Y-4483008D01*
X4548315Y-4483008D02*
X4567363Y-4473484D01*
X4757839Y-4473484D02*
X4776886Y-4473484D01*
X4776886Y-4473484D02*
X4795934Y-4483008D01*
X4795934Y-4483008D02*
X4805458Y-4492531D01*
X4805458Y-4492531D02*
X4814982Y-4511579D01*
X4814982Y-4511579D02*
X4824505Y-4549674D01*
X4824505Y-4549674D02*
X4824505Y-4597293D01*
X4824505Y-4597293D02*
X4814982Y-4635389D01*
X4814982Y-4635389D02*
X4805458Y-4654436D01*
X4805458Y-4654436D02*
X4795934Y-4663960D01*
X4795934Y-4663960D02*
X4776886Y-4673484D01*
X4776886Y-4673484D02*
X4757839Y-4673484D01*
X4757839Y-4673484D02*
X4738791Y-4663960D01*
X4738791Y-4663960D02*
X4729267Y-4654436D01*
X4729267Y-4654436D02*
X4719744Y-4635389D01*
X4719744Y-4635389D02*
X4710220Y-4597293D01*
X4710220Y-4597293D02*
X4710220Y-4549674D01*
X4710220Y-4549674D02*
X4719744Y-4511579D01*
X4719744Y-4511579D02*
X4729267Y-4492531D01*
X4729267Y-4492531D02*
X4738791Y-4483008D01*
X4738791Y-4483008D02*
X4757839Y-4473484D01*
X4910220Y-4673484D02*
X4910220Y-4540150D01*
X4910220Y-4559198D02*
X4919744Y-4549674D01*
X4919744Y-4549674D02*
X4938791Y-4540150D01*
X4938791Y-4540150D02*
X4967363Y-4540150D01*
X4967363Y-4540150D02*
X4986410Y-4549674D01*
X4986410Y-4549674D02*
X4995934Y-4568722D01*
X4995934Y-4568722D02*
X4995934Y-4673484D01*
X4995934Y-4568722D02*
X5005458Y-4549674D01*
X5005458Y-4549674D02*
X5024505Y-4540150D01*
X5024505Y-4540150D02*
X5053077Y-4540150D01*
X5053077Y-4540150D02*
X5072125Y-4549674D01*
X5072125Y-4549674D02*
X5081648Y-4568722D01*
X5081648Y-4568722D02*
X5081648Y-4673484D01*
X5176886Y-4673484D02*
X5176886Y-4540150D01*
X5176886Y-4559198D02*
X5186410Y-4549674D01*
X5186410Y-4549674D02*
X5205458Y-4540150D01*
X5205458Y-4540150D02*
X5234029Y-4540150D01*
X5234029Y-4540150D02*
X5253077Y-4549674D01*
X5253077Y-4549674D02*
X5262601Y-4568722D01*
X5262601Y-4568722D02*
X5262601Y-4673484D01*
X5262601Y-4568722D02*
X5272125Y-4549674D01*
X5272125Y-4549674D02*
X5291172Y-4540150D01*
X5291172Y-4540150D02*
X5319744Y-4540150D01*
X5319744Y-4540150D02*
X5338791Y-4549674D01*
X5338791Y-4549674D02*
X5348315Y-4568722D01*
X5348315Y-4568722D02*
X5348315Y-4673484D01*
X5738791Y-4463960D02*
X5567363Y-4721103D01*
X5995934Y-4473484D02*
X6014982Y-4473484D01*
X6014982Y-4473484D02*
X6034029Y-4483008D01*
X6034029Y-4483008D02*
X6043553Y-4492531D01*
X6043553Y-4492531D02*
X6053077Y-4511579D01*
X6053077Y-4511579D02*
X6062601Y-4549674D01*
X6062601Y-4549674D02*
X6062601Y-4597293D01*
X6062601Y-4597293D02*
X6053077Y-4635389D01*
X6053077Y-4635389D02*
X6043553Y-4654436D01*
X6043553Y-4654436D02*
X6034029Y-4663960D01*
X6034029Y-4663960D02*
X6014982Y-4673484D01*
X6014982Y-4673484D02*
X5995934Y-4673484D01*
X5995934Y-4673484D02*
X5976886Y-4663960D01*
X5976886Y-4663960D02*
X5967363Y-4654436D01*
X5967363Y-4654436D02*
X5957839Y-4635389D01*
X5957839Y-4635389D02*
X5948315Y-4597293D01*
X5948315Y-4597293D02*
X5948315Y-4549674D01*
X5948315Y-4549674D02*
X5957839Y-4511579D01*
X5957839Y-4511579D02*
X5967363Y-4492531D01*
X5967363Y-4492531D02*
X5976886Y-4483008D01*
X5976886Y-4483008D02*
X5995934Y-4473484D01*
X6148315Y-4654436D02*
X6157839Y-4663960D01*
X6157839Y-4663960D02*
X6148315Y-4673484D01*
X6148315Y-4673484D02*
X6138791Y-4663960D01*
X6138791Y-4663960D02*
X6148315Y-4654436D01*
X6148315Y-4654436D02*
X6148315Y-4673484D01*
X6281648Y-4473484D02*
X6300696Y-4473484D01*
X6300696Y-4473484D02*
X6319744Y-4483008D01*
X6319744Y-4483008D02*
X6329267Y-4492531D01*
X6329267Y-4492531D02*
X6338791Y-4511579D01*
X6338791Y-4511579D02*
X6348315Y-4549674D01*
X6348315Y-4549674D02*
X6348315Y-4597293D01*
X6348315Y-4597293D02*
X6338791Y-4635389D01*
X6338791Y-4635389D02*
X6329267Y-4654436D01*
X6329267Y-4654436D02*
X6319744Y-4663960D01*
X6319744Y-4663960D02*
X6300696Y-4673484D01*
X6300696Y-4673484D02*
X6281648Y-4673484D01*
X6281648Y-4673484D02*
X6262601Y-4663960D01*
X6262601Y-4663960D02*
X6253077Y-4654436D01*
X6253077Y-4654436D02*
X6243553Y-4635389D01*
X6243553Y-4635389D02*
X6234029Y-4597293D01*
X6234029Y-4597293D02*
X6234029Y-4549674D01*
X6234029Y-4549674D02*
X6243553Y-4511579D01*
X6243553Y-4511579D02*
X6253077Y-4492531D01*
X6253077Y-4492531D02*
X6262601Y-4483008D01*
X6262601Y-4483008D02*
X6281648Y-4473484D01*
X6538791Y-4673484D02*
X6424506Y-4673484D01*
X6481648Y-4673484D02*
X6481648Y-4473484D01*
X6481648Y-4473484D02*
X6462601Y-4502055D01*
X6462601Y-4502055D02*
X6443553Y-4521103D01*
X6443553Y-4521103D02*
X6424506Y-4530627D01*
X6719744Y-4473484D02*
X6624506Y-4473484D01*
X6624506Y-4473484D02*
X6614982Y-4568722D01*
X6614982Y-4568722D02*
X6624506Y-4559198D01*
X6624506Y-4559198D02*
X6643553Y-4549674D01*
X6643553Y-4549674D02*
X6691172Y-4549674D01*
X6691172Y-4549674D02*
X6710220Y-4559198D01*
X6710220Y-4559198D02*
X6719744Y-4568722D01*
X6719744Y-4568722D02*
X6729267Y-4587770D01*
X6729267Y-4587770D02*
X6729267Y-4635389D01*
X6729267Y-4635389D02*
X6719744Y-4654436D01*
X6719744Y-4654436D02*
X6710220Y-4663960D01*
X6710220Y-4663960D02*
X6691172Y-4673484D01*
X6691172Y-4673484D02*
X6643553Y-4673484D01*
X6643553Y-4673484D02*
X6624506Y-4663960D01*
X6624506Y-4663960D02*
X6614982Y-4654436D01*
X6795934Y-4473484D02*
X6929267Y-4473484D01*
X6929267Y-4473484D02*
X6843553Y-4673484D01*
X6995934Y-4473484D02*
X6995934Y-4511579D01*
X7072125Y-4473484D02*
X7072125Y-4511579D01*
X7367363Y-4749674D02*
X7357839Y-4740150D01*
X7357839Y-4740150D02*
X7338791Y-4711579D01*
X7338791Y-4711579D02*
X7329268Y-4692531D01*
X7329268Y-4692531D02*
X7319744Y-4663960D01*
X7319744Y-4663960D02*
X7310220Y-4616341D01*
X7310220Y-4616341D02*
X7310220Y-4578246D01*
X7310220Y-4578246D02*
X7319744Y-4530627D01*
X7319744Y-4530627D02*
X7329268Y-4502055D01*
X7329268Y-4502055D02*
X7338791Y-4483008D01*
X7338791Y-4483008D02*
X7357839Y-4454436D01*
X7357839Y-4454436D02*
X7367363Y-4444912D01*
X7453077Y-4673484D02*
X7491172Y-4673484D01*
X7491172Y-4673484D02*
X7510220Y-4663960D01*
X7510220Y-4663960D02*
X7519744Y-4654436D01*
X7519744Y-4654436D02*
X7538791Y-4625865D01*
X7538791Y-4625865D02*
X7548315Y-4587770D01*
X7548315Y-4587770D02*
X7548315Y-4511579D01*
X7548315Y-4511579D02*
X7538791Y-4492531D01*
X7538791Y-4492531D02*
X7529268Y-4483008D01*
X7529268Y-4483008D02*
X7510220Y-4473484D01*
X7510220Y-4473484D02*
X7472125Y-4473484D01*
X7472125Y-4473484D02*
X7453077Y-4483008D01*
X7453077Y-4483008D02*
X7443553Y-4492531D01*
X7443553Y-4492531D02*
X7434029Y-4511579D01*
X7434029Y-4511579D02*
X7434029Y-4559198D01*
X7434029Y-4559198D02*
X7443553Y-4578246D01*
X7443553Y-4578246D02*
X7453077Y-4587770D01*
X7453077Y-4587770D02*
X7472125Y-4597293D01*
X7472125Y-4597293D02*
X7510220Y-4597293D01*
X7510220Y-4597293D02*
X7529268Y-4587770D01*
X7529268Y-4587770D02*
X7538791Y-4578246D01*
X7538791Y-4578246D02*
X7548315Y-4559198D01*
X7786410Y-4673484D02*
X7786410Y-4473484D01*
X7872125Y-4673484D02*
X7872125Y-4568722D01*
X7872125Y-4568722D02*
X7862601Y-4549674D01*
X7862601Y-4549674D02*
X7843553Y-4540150D01*
X7843553Y-4540150D02*
X7814982Y-4540150D01*
X7814982Y-4540150D02*
X7795934Y-4549674D01*
X7795934Y-4549674D02*
X7786410Y-4559198D01*
X7995934Y-4673484D02*
X7976887Y-4663960D01*
X7976887Y-4663960D02*
X7967363Y-4654436D01*
X7967363Y-4654436D02*
X7957839Y-4635389D01*
X7957839Y-4635389D02*
X7957839Y-4578246D01*
X7957839Y-4578246D02*
X7967363Y-4559198D01*
X7967363Y-4559198D02*
X7976887Y-4549674D01*
X7976887Y-4549674D02*
X7995934Y-4540150D01*
X7995934Y-4540150D02*
X8024506Y-4540150D01*
X8024506Y-4540150D02*
X8043553Y-4549674D01*
X8043553Y-4549674D02*
X8053077Y-4559198D01*
X8053077Y-4559198D02*
X8062601Y-4578246D01*
X8062601Y-4578246D02*
X8062601Y-4635389D01*
X8062601Y-4635389D02*
X8053077Y-4654436D01*
X8053077Y-4654436D02*
X8043553Y-4663960D01*
X8043553Y-4663960D02*
X8024506Y-4673484D01*
X8024506Y-4673484D02*
X7995934Y-4673484D01*
X8176887Y-4673484D02*
X8157839Y-4663960D01*
X8157839Y-4663960D02*
X8148315Y-4644912D01*
X8148315Y-4644912D02*
X8148315Y-4473484D01*
X8329268Y-4663960D02*
X8310220Y-4673484D01*
X8310220Y-4673484D02*
X8272125Y-4673484D01*
X8272125Y-4673484D02*
X8253077Y-4663960D01*
X8253077Y-4663960D02*
X8243553Y-4644912D01*
X8243553Y-4644912D02*
X8243553Y-4568722D01*
X8243553Y-4568722D02*
X8253077Y-4549674D01*
X8253077Y-4549674D02*
X8272125Y-4540150D01*
X8272125Y-4540150D02*
X8310220Y-4540150D01*
X8310220Y-4540150D02*
X8329268Y-4549674D01*
X8329268Y-4549674D02*
X8338791Y-4568722D01*
X8338791Y-4568722D02*
X8338791Y-4587770D01*
X8338791Y-4587770D02*
X8243553Y-4606817D01*
X8414982Y-4663960D02*
X8434030Y-4673484D01*
X8434030Y-4673484D02*
X8472125Y-4673484D01*
X8472125Y-4673484D02*
X8491173Y-4663960D01*
X8491173Y-4663960D02*
X8500696Y-4644912D01*
X8500696Y-4644912D02*
X8500696Y-4635389D01*
X8500696Y-4635389D02*
X8491173Y-4616341D01*
X8491173Y-4616341D02*
X8472125Y-4606817D01*
X8472125Y-4606817D02*
X8443553Y-4606817D01*
X8443553Y-4606817D02*
X8424506Y-4597293D01*
X8424506Y-4597293D02*
X8414982Y-4578246D01*
X8414982Y-4578246D02*
X8414982Y-4568722D01*
X8414982Y-4568722D02*
X8424506Y-4549674D01*
X8424506Y-4549674D02*
X8443553Y-4540150D01*
X8443553Y-4540150D02*
X8472125Y-4540150D01*
X8472125Y-4540150D02*
X8491173Y-4549674D01*
X8567363Y-4749674D02*
X8576887Y-4740150D01*
X8576887Y-4740150D02*
X8595934Y-4711579D01*
X8595934Y-4711579D02*
X8605458Y-4692531D01*
X8605458Y-4692531D02*
X8614982Y-4663960D01*
X8614982Y-4663960D02*
X8624506Y-4616341D01*
X8624506Y-4616341D02*
X8624506Y-4578246D01*
X8624506Y-4578246D02*
X8614982Y-4530627D01*
X8614982Y-4530627D02*
X8605458Y-4502055D01*
X8605458Y-4502055D02*
X8595934Y-4483008D01*
X8595934Y-4483008D02*
X8576887Y-4454436D01*
X8576887Y-4454436D02*
X8567363Y-4444912D01*
M02*
