%TF.GenerationSoftware,KiCad,Pcbnew,7.0.9*%
%TF.CreationDate,2025-03-23T18:57:58-04:00*%
%TF.ProjectId,Pneumatactors_NanoEvery_PumpControl,506e6575-6d61-4746-9163-746f72735f4e,rev?*%
%TF.SameCoordinates,Original*%
%TF.FileFunction,Copper,L2,Bot*%
%TF.FilePolarity,Positive*%
%FSLAX46Y46*%
G04 Gerber Fmt 4.6, Leading zero omitted, Abs format (unit mm)*
G04 Created by KiCad (PCBNEW 7.0.9) date 2025-03-23 18:57:58*
%MOMM*%
%LPD*%
G01*
G04 APERTURE LIST*
%TA.AperFunction,ComponentPad*%
%ADD10R,2.200000X2.200000*%
%TD*%
%TA.AperFunction,ComponentPad*%
%ADD11O,2.200000X2.200000*%
%TD*%
%TA.AperFunction,ComponentPad*%
%ADD12C,1.700000*%
%TD*%
%TA.AperFunction,ComponentPad*%
%ADD13C,5.500000*%
%TD*%
%TA.AperFunction,ComponentPad*%
%ADD14R,1.700000X1.700000*%
%TD*%
%TA.AperFunction,ComponentPad*%
%ADD15O,1.700000X1.700000*%
%TD*%
%TA.AperFunction,ComponentPad*%
%ADD16C,1.600000*%
%TD*%
%TA.AperFunction,ComponentPad*%
%ADD17O,1.600000X1.600000*%
%TD*%
%TA.AperFunction,ComponentPad*%
%ADD18R,1.600000X1.600000*%
%TD*%
%TA.AperFunction,ViaPad*%
%ADD19C,0.800000*%
%TD*%
%TA.AperFunction,Conductor*%
%ADD20C,0.250000*%
%TD*%
%TA.AperFunction,Conductor*%
%ADD21C,1.000000*%
%TD*%
G04 APERTURE END LIST*
D10*
%TO.P,D1,1,K*%
%TO.N,Net-(D1-K)*%
X66040000Y-57150000D03*
D11*
%TO.P,D1,2,A*%
%TO.N,5V*%
X55880000Y-57150000D03*
%TD*%
D12*
%TO.P,U1,1,VM*%
%TO.N,unconnected-(U1-VM-Pad1)*%
X45720000Y-96520000D03*
%TO.P,U1,2,GND*%
%TO.N,GND*%
X45720000Y-99060000D03*
%TO.P,U1,3,VCC*%
%TO.N,5V_NANO*%
X45720000Y-101600000D03*
%TO.P,U1,4,OCC*%
%TO.N,unconnected-(U1-OCC-Pad4)*%
X45720000Y-104140000D03*
%TO.P,U1,5,EN*%
%TO.N,EN*%
X45720000Y-106680000D03*
%TO.P,U1,6,ENB*%
%TO.N,GND*%
X45720000Y-109220000D03*
%TO.P,U1,7,PWM2*%
%TO.N,PWM2*%
X45720000Y-111760000D03*
%TO.P,U1,8,PWM1*%
%TO.N,PWM1*%
X45720000Y-114300000D03*
%TO.P,U1,9,OCM*%
%TO.N,unconnected-(U1-OCM-Pad9)*%
X45720000Y-116840000D03*
%TO.P,U1,10,OCM*%
%TO.N,unconnected-(U1-OCM-Pad10)*%
X45720000Y-119380000D03*
%TO.P,U1,11,VIN*%
%TO.N,5V*%
X68580000Y-104140000D03*
%TO.P,U1,12,GND*%
%TO.N,GND*%
X68580000Y-106680000D03*
%TO.P,U1,13,OUT2*%
%TO.N,unconnected-(U1-OUT2-Pad13)*%
X68580000Y-109220000D03*
%TO.P,U1,14,OUT1*%
%TO.N,unconnected-(U1-OUT1-Pad14)*%
X68580000Y-111760000D03*
%TD*%
D13*
%TO.P,H2,1*%
%TO.N,N/C*%
X75010000Y-35250000D03*
%TD*%
D14*
%TO.P,J2,1,Pin_1*%
%TO.N,SCL*%
X67090000Y-153460000D03*
D15*
%TO.P,J2,2,Pin_2*%
%TO.N,GND*%
X67090000Y-156000000D03*
%TO.P,J2,3,Pin_3*%
%TO.N,SDA*%
X64550000Y-153460000D03*
%TO.P,J2,4,Pin_4*%
%TO.N,unconnected-(J2-Pin_4-Pad4)*%
X64550000Y-156000000D03*
%TO.P,J2,5,Pin_5*%
%TO.N,unconnected-(J2-Pin_5-Pad5)*%
X62010000Y-153460000D03*
%TO.P,J2,6,Pin_6*%
%TO.N,unconnected-(J2-Pin_6-Pad6)*%
X62010000Y-156000000D03*
%TO.P,J2,7,Pin_7*%
%TO.N,unconnected-(J2-Pin_7-Pad7)*%
X59470000Y-153460000D03*
%TO.P,J2,8,Pin_8*%
%TO.N,unconnected-(J2-Pin_8-Pad8)*%
X59470000Y-156000000D03*
%TO.P,J2,9,Pin_9*%
%TO.N,unconnected-(J2-Pin_9-Pad9)*%
X56930000Y-153460000D03*
%TO.P,J2,10,Pin_10*%
%TO.N,GND*%
X56930000Y-156000000D03*
%TD*%
D14*
%TO.P,J4,1,Pin_1*%
%TO.N,5V_BUS*%
X60550000Y-35250000D03*
D15*
%TO.P,J4,2,Pin_2*%
%TO.N,GND*%
X58010000Y-35250000D03*
%TO.P,J4,3,Pin_3*%
%TO.N,SCL*%
X55470000Y-35250000D03*
%TO.P,J4,4,Pin_4*%
%TO.N,SDA*%
X52930000Y-35250000D03*
%TO.P,J4,5,Pin_5*%
%TO.N,GND*%
X50390000Y-35250000D03*
%TD*%
D14*
%TO.P,J1,1,Pin_1*%
%TO.N,Net-(D1-K)*%
X72390000Y-57150000D03*
D15*
%TO.P,J1,2,Pin_2*%
%TO.N,Net-(A1-VIN)*%
X74930000Y-57150000D03*
%TD*%
D13*
%TO.P,H1,1*%
%TO.N,N/C*%
X37510000Y-35250000D03*
%TD*%
D16*
%TO.P,R1,1*%
%TO.N,SDA*%
X67090000Y-142000000D03*
D17*
%TO.P,R1,2*%
%TO.N,5V*%
X56930000Y-142000000D03*
%TD*%
D13*
%TO.P,H3,1*%
%TO.N,N/C*%
X37510000Y-155000000D03*
%TD*%
D16*
%TO.P,R2,1*%
%TO.N,SCL*%
X67170000Y-147000000D03*
D17*
%TO.P,R2,2*%
%TO.N,5V*%
X57010000Y-147000000D03*
%TD*%
D13*
%TO.P,H4,1*%
%TO.N,N/C*%
X75010000Y-155000000D03*
%TD*%
D14*
%TO.P,J5,1,Pin_1*%
%TO.N,5V*%
X64770000Y-46990000D03*
D15*
%TO.P,J5,2,Pin_2*%
%TO.N,5V_BUS*%
X64770000Y-44450000D03*
%TD*%
D18*
%TO.P,A1,1,TX1*%
%TO.N,unconnected-(A1-TX1-Pad1)*%
X74930000Y-63500000D03*
D17*
%TO.P,A1,2,RX1*%
%TO.N,unconnected-(A1-RX1-Pad2)*%
X72390000Y-63500000D03*
%TO.P,A1,3,~{RESET}*%
%TO.N,unconnected-(A1-~{RESET}-Pad3)*%
X69850000Y-63500000D03*
%TO.P,A1,4,GND*%
%TO.N,GND*%
X67310000Y-63500000D03*
%TO.P,A1,5,D2*%
%TO.N,unconnected-(A1-D2-Pad5)*%
X64770000Y-63500000D03*
%TO.P,A1,6,D3*%
%TO.N,unconnected-(A1-D3-Pad6)*%
X62230000Y-63500000D03*
%TO.P,A1,7,D4*%
%TO.N,EN*%
X59690000Y-63500000D03*
%TO.P,A1,8,D5*%
%TO.N,PWM1*%
X57150000Y-63500000D03*
%TO.P,A1,9,D6*%
%TO.N,PWM2*%
X54610000Y-63500000D03*
%TO.P,A1,10,D7*%
%TO.N,unconnected-(A1-D7-Pad10)*%
X52070000Y-63500000D03*
%TO.P,A1,11,D8*%
%TO.N,unconnected-(A1-D8-Pad11)*%
X49530000Y-63500000D03*
%TO.P,A1,12,D9*%
%TO.N,unconnected-(A1-D9-Pad12)*%
X46990000Y-63500000D03*
%TO.P,A1,13,D10*%
%TO.N,unconnected-(A1-D10-Pad13)*%
X44450000Y-63500000D03*
%TO.P,A1,14,MOSI*%
%TO.N,unconnected-(A1-MOSI-Pad14)*%
X41910000Y-63500000D03*
%TO.P,A1,15,MISO*%
%TO.N,unconnected-(A1-MISO-Pad15)*%
X39370000Y-63500000D03*
%TO.P,A1,16,SCK*%
%TO.N,unconnected-(A1-SCK-Pad16)*%
X39370000Y-78740000D03*
%TO.P,A1,17,3V3*%
%TO.N,unconnected-(A1-3V3-Pad17)*%
X41910000Y-78740000D03*
%TO.P,A1,18,AREF*%
%TO.N,unconnected-(A1-AREF-Pad18)*%
X44450000Y-78740000D03*
%TO.P,A1,19,A0*%
%TO.N,unconnected-(A1-A0-Pad19)*%
X46990000Y-78740000D03*
%TO.P,A1,20,A1*%
%TO.N,unconnected-(A1-A1-Pad20)*%
X49530000Y-78740000D03*
%TO.P,A1,21,A2*%
%TO.N,unconnected-(A1-A2-Pad21)*%
X52070000Y-78740000D03*
%TO.P,A1,22,A3*%
%TO.N,unconnected-(A1-A3-Pad22)*%
X54610000Y-78740000D03*
%TO.P,A1,23,SDA/A4*%
%TO.N,SDA*%
X57150000Y-78740000D03*
%TO.P,A1,24,SCL/A5*%
%TO.N,SCL*%
X59690000Y-78740000D03*
%TO.P,A1,25,A6*%
%TO.N,unconnected-(A1-A6-Pad25)*%
X62230000Y-78740000D03*
%TO.P,A1,26,A7*%
%TO.N,unconnected-(A1-A7-Pad26)*%
X64770000Y-78740000D03*
%TO.P,A1,27,+5V*%
%TO.N,5V_NANO*%
X67310000Y-78740000D03*
%TO.P,A1,28,~{RESET}*%
%TO.N,unconnected-(A1-~{RESET}-Pad28)*%
X69850000Y-78740000D03*
%TO.P,A1,29,GND*%
%TO.N,GND*%
X72390000Y-78740000D03*
%TO.P,A1,30,VIN*%
%TO.N,Net-(A1-VIN)*%
X74930000Y-78740000D03*
%TD*%
D14*
%TO.P,J6,1,Pin_1*%
%TO.N,5V*%
X48265000Y-136525000D03*
D15*
%TO.P,J6,2,Pin_2*%
%TO.N,5V_BARREL*%
X45725000Y-136525000D03*
%TD*%
D19*
%TO.N,GND*%
X52070000Y-44450000D03*
X52070000Y-70485000D03*
X59690000Y-70485000D03*
%TO.N,5V_NANO*%
X60960000Y-86360000D03*
%TD*%
D20*
%TO.N,EN*%
X63500000Y-67310000D02*
X63500000Y-88900000D01*
X63500000Y-88900000D02*
X45720000Y-106680000D01*
X59690000Y-63500000D02*
X63500000Y-67310000D01*
%TO.N,SDA*%
X50945000Y-37235000D02*
X50945000Y-72535000D01*
X52930000Y-35250000D02*
X50945000Y-37235000D01*
X50945000Y-72535000D02*
X57150000Y-78740000D01*
%TO.N,SCL*%
X55470000Y-35250000D02*
X53340000Y-37380000D01*
X54745000Y-35975000D02*
X55470000Y-35250000D01*
X53340000Y-72390000D02*
X59690000Y-78740000D01*
X53340000Y-37380000D02*
X53340000Y-72390000D01*
%TO.N,5V_NANO*%
X60960000Y-86360000D02*
X45720000Y-101600000D01*
D21*
%TO.N,5V*%
X66962032Y-46990000D02*
X64770000Y-46990000D01*
X48265000Y-136525000D02*
X48265000Y-124455000D01*
X48265000Y-124455000D02*
X68580000Y-104140000D01*
X78105000Y-94615000D02*
X78105000Y-58132968D01*
X68580000Y-104140000D02*
X78105000Y-94615000D01*
X78105000Y-58132968D02*
X66962032Y-46990000D01*
%TD*%
%TA.AperFunction,Conductor*%
%TO.N,GND*%
G36*
X58487865Y-64043348D02*
G01*
X58532382Y-64094725D01*
X58559429Y-64152728D01*
X58559432Y-64152734D01*
X58689954Y-64339141D01*
X58850858Y-64500045D01*
X58850861Y-64500047D01*
X59037266Y-64630568D01*
X59243504Y-64726739D01*
X59463308Y-64785635D01*
X59620780Y-64799412D01*
X59689998Y-64805468D01*
X59690000Y-64805468D01*
X59690002Y-64805468D01*
X59759220Y-64799412D01*
X59916692Y-64785635D01*
X59985048Y-64767319D01*
X60054896Y-64768980D01*
X60104822Y-64799412D01*
X62838181Y-67532771D01*
X62871666Y-67594094D01*
X62874500Y-67620452D01*
X62874500Y-77410950D01*
X62854815Y-77477989D01*
X62802011Y-77523744D01*
X62732853Y-77533688D01*
X62698099Y-77523334D01*
X62676498Y-77513262D01*
X62676488Y-77513258D01*
X62456697Y-77454366D01*
X62456693Y-77454365D01*
X62456692Y-77454365D01*
X62456691Y-77454364D01*
X62456686Y-77454364D01*
X62230002Y-77434532D01*
X62229998Y-77434532D01*
X62003313Y-77454364D01*
X62003302Y-77454366D01*
X61783511Y-77513258D01*
X61783502Y-77513261D01*
X61577267Y-77609431D01*
X61577265Y-77609432D01*
X61390858Y-77739954D01*
X61229954Y-77900858D01*
X61099432Y-78087265D01*
X61099431Y-78087267D01*
X61072382Y-78145275D01*
X61026209Y-78197714D01*
X60959016Y-78216866D01*
X60892135Y-78196650D01*
X60847618Y-78145275D01*
X60820686Y-78087520D01*
X60820568Y-78087266D01*
X60690047Y-77900861D01*
X60690045Y-77900858D01*
X60529141Y-77739954D01*
X60342734Y-77609432D01*
X60342732Y-77609431D01*
X60136497Y-77513261D01*
X60136488Y-77513258D01*
X59916697Y-77454366D01*
X59916693Y-77454365D01*
X59916692Y-77454365D01*
X59916691Y-77454364D01*
X59916686Y-77454364D01*
X59690002Y-77434532D01*
X59689999Y-77434532D01*
X59463313Y-77454364D01*
X59463296Y-77454367D01*
X59394949Y-77472680D01*
X59325099Y-77471016D01*
X59275177Y-77440586D01*
X54001819Y-72167228D01*
X53968334Y-72105905D01*
X53965500Y-72079547D01*
X53965500Y-64829048D01*
X53985185Y-64762009D01*
X54037989Y-64716254D01*
X54107147Y-64706310D01*
X54141905Y-64716667D01*
X54163504Y-64726739D01*
X54383308Y-64785635D01*
X54540780Y-64799412D01*
X54609998Y-64805468D01*
X54610000Y-64805468D01*
X54610002Y-64805468D01*
X54679220Y-64799412D01*
X54836692Y-64785635D01*
X55056496Y-64726739D01*
X55262734Y-64630568D01*
X55449139Y-64500047D01*
X55610047Y-64339139D01*
X55740568Y-64152734D01*
X55767618Y-64094724D01*
X55813790Y-64042285D01*
X55880983Y-64023133D01*
X55947865Y-64043348D01*
X55992382Y-64094725D01*
X56019429Y-64152728D01*
X56019432Y-64152734D01*
X56149954Y-64339141D01*
X56310858Y-64500045D01*
X56310861Y-64500047D01*
X56497266Y-64630568D01*
X56703504Y-64726739D01*
X56923308Y-64785635D01*
X57080780Y-64799412D01*
X57149998Y-64805468D01*
X57150000Y-64805468D01*
X57150002Y-64805468D01*
X57219220Y-64799412D01*
X57376692Y-64785635D01*
X57596496Y-64726739D01*
X57802734Y-64630568D01*
X57989139Y-64500047D01*
X58150047Y-64339139D01*
X58280568Y-64152734D01*
X58307618Y-64094724D01*
X58353790Y-64042285D01*
X58420983Y-64023133D01*
X58487865Y-64043348D01*
G37*
%TD.AperFunction*%
%TA.AperFunction,Conductor*%
G36*
X52670954Y-64734691D02*
G01*
X52709195Y-64793167D01*
X52714500Y-64829048D01*
X52714500Y-72307255D01*
X52712775Y-72322872D01*
X52713061Y-72322899D01*
X52712326Y-72330665D01*
X52714500Y-72399814D01*
X52714500Y-72429343D01*
X52714501Y-72429360D01*
X52715368Y-72436231D01*
X52715826Y-72442050D01*
X52717290Y-72488624D01*
X52717291Y-72488627D01*
X52722880Y-72507867D01*
X52726824Y-72526911D01*
X52729086Y-72544814D01*
X52729336Y-72546791D01*
X52746490Y-72590119D01*
X52748382Y-72595647D01*
X52761382Y-72640390D01*
X52768755Y-72652858D01*
X52771580Y-72657634D01*
X52780138Y-72675103D01*
X52787514Y-72693732D01*
X52814898Y-72731423D01*
X52818106Y-72736307D01*
X52841827Y-72776416D01*
X52841833Y-72776424D01*
X52855990Y-72790580D01*
X52868628Y-72805376D01*
X52880405Y-72821586D01*
X52880406Y-72821587D01*
X52916309Y-72851288D01*
X52920620Y-72855210D01*
X57044940Y-76979531D01*
X57292590Y-77227181D01*
X57326075Y-77288504D01*
X57321091Y-77358196D01*
X57279219Y-77414129D01*
X57213755Y-77438546D01*
X57194102Y-77438390D01*
X57150002Y-77434532D01*
X57149999Y-77434532D01*
X56923313Y-77454364D01*
X56923296Y-77454367D01*
X56854949Y-77472680D01*
X56785099Y-77471016D01*
X56735177Y-77440586D01*
X51606819Y-72312228D01*
X51573334Y-72250905D01*
X51570500Y-72224547D01*
X51570500Y-64874136D01*
X51590185Y-64807097D01*
X51642989Y-64761342D01*
X51712147Y-64751398D01*
X51726582Y-64754358D01*
X51843308Y-64785635D01*
X52000780Y-64799412D01*
X52069998Y-64805468D01*
X52070000Y-64805468D01*
X52070002Y-64805468D01*
X52139220Y-64799412D01*
X52296692Y-64785635D01*
X52516496Y-64726739D01*
X52538093Y-64716667D01*
X52607169Y-64706173D01*
X52670954Y-64734691D01*
G37*
%TD.AperFunction*%
%TA.AperFunction,Conductor*%
G36*
X52594125Y-36558143D02*
G01*
X52628780Y-36567428D01*
X52694592Y-36585063D01*
X52871034Y-36600500D01*
X52929999Y-36605659D01*
X52930387Y-36605659D01*
X52930551Y-36605707D01*
X52935394Y-36606131D01*
X52935308Y-36607104D01*
X52997426Y-36625344D01*
X53043181Y-36678148D01*
X53053125Y-36747306D01*
X53024100Y-36810862D01*
X53018081Y-36817326D01*
X52970990Y-36864418D01*
X52956208Y-36879200D01*
X52943951Y-36889020D01*
X52944134Y-36889241D01*
X52938123Y-36894213D01*
X52890772Y-36944636D01*
X52869889Y-36965519D01*
X52869877Y-36965532D01*
X52865621Y-36971017D01*
X52861837Y-36975447D01*
X52829937Y-37009418D01*
X52829936Y-37009420D01*
X52820284Y-37026976D01*
X52809610Y-37043226D01*
X52797329Y-37059061D01*
X52797324Y-37059068D01*
X52778815Y-37101838D01*
X52776245Y-37107084D01*
X52753803Y-37147906D01*
X52748822Y-37167307D01*
X52742521Y-37185710D01*
X52734562Y-37204102D01*
X52734561Y-37204105D01*
X52727271Y-37250127D01*
X52726087Y-37255846D01*
X52714501Y-37300972D01*
X52714500Y-37300982D01*
X52714500Y-37321016D01*
X52712973Y-37340415D01*
X52709840Y-37360194D01*
X52709840Y-37360195D01*
X52714225Y-37406583D01*
X52714500Y-37412421D01*
X52714500Y-62170950D01*
X52694815Y-62237989D01*
X52642011Y-62283744D01*
X52572853Y-62293688D01*
X52538099Y-62283334D01*
X52516498Y-62273262D01*
X52516488Y-62273258D01*
X52296697Y-62214366D01*
X52296693Y-62214365D01*
X52296692Y-62214365D01*
X52296691Y-62214364D01*
X52296686Y-62214364D01*
X52070002Y-62194532D01*
X52069998Y-62194532D01*
X51843313Y-62214364D01*
X51843302Y-62214366D01*
X51726593Y-62245638D01*
X51656743Y-62243975D01*
X51598881Y-62204812D01*
X51571377Y-62140583D01*
X51570500Y-62125863D01*
X51570500Y-37545451D01*
X51590185Y-37478412D01*
X51606815Y-37457774D01*
X52474353Y-36590235D01*
X52535674Y-36556752D01*
X52594125Y-36558143D01*
G37*
%TD.AperFunction*%
%TA.AperFunction,Conductor*%
G36*
X79952539Y-30770185D02*
G01*
X79998294Y-30822989D01*
X80009500Y-30874500D01*
X80009500Y-159625500D01*
X79989815Y-159692539D01*
X79937011Y-159738294D01*
X79885500Y-159749500D01*
X53464000Y-159749500D01*
X53396961Y-159729815D01*
X53351206Y-159677011D01*
X53340000Y-159625500D01*
X53340000Y-153460000D01*
X55574341Y-153460000D01*
X55594936Y-153695403D01*
X55594938Y-153695413D01*
X55656094Y-153923655D01*
X55656096Y-153923659D01*
X55656097Y-153923663D01*
X55660000Y-153932032D01*
X55755965Y-154137830D01*
X55755967Y-154137834D01*
X55864281Y-154292521D01*
X55891501Y-154331396D01*
X55891506Y-154331402D01*
X56058597Y-154498493D01*
X56058603Y-154498498D01*
X56244594Y-154628730D01*
X56288219Y-154683307D01*
X56295413Y-154752805D01*
X56263890Y-154815160D01*
X56244595Y-154831880D01*
X56058922Y-154961890D01*
X56058920Y-154961891D01*
X55891891Y-155128920D01*
X55891886Y-155128926D01*
X55756400Y-155322420D01*
X55756399Y-155322422D01*
X55656570Y-155536507D01*
X55656567Y-155536513D01*
X55599364Y-155749999D01*
X55599364Y-155750000D01*
X56496314Y-155750000D01*
X56470507Y-155790156D01*
X56430000Y-155928111D01*
X56430000Y-156071889D01*
X56470507Y-156209844D01*
X56496314Y-156250000D01*
X55599364Y-156250000D01*
X55656567Y-156463486D01*
X55656570Y-156463492D01*
X55756399Y-156677578D01*
X55891894Y-156871082D01*
X56058917Y-157038105D01*
X56252421Y-157173600D01*
X56466507Y-157273429D01*
X56466516Y-157273433D01*
X56680000Y-157330634D01*
X56680000Y-156435501D01*
X56787685Y-156484680D01*
X56894237Y-156500000D01*
X56965763Y-156500000D01*
X57072315Y-156484680D01*
X57180000Y-156435501D01*
X57180000Y-157330633D01*
X57393483Y-157273433D01*
X57393492Y-157273429D01*
X57607578Y-157173600D01*
X57801082Y-157038105D01*
X57968105Y-156871082D01*
X58098119Y-156685405D01*
X58152696Y-156641781D01*
X58222195Y-156634588D01*
X58284549Y-156666110D01*
X58301269Y-156685405D01*
X58431505Y-156871401D01*
X58598599Y-157038495D01*
X58695384Y-157106265D01*
X58792165Y-157174032D01*
X58792167Y-157174033D01*
X58792170Y-157174035D01*
X59006337Y-157273903D01*
X59234592Y-157335063D01*
X59422918Y-157351539D01*
X59469999Y-157355659D01*
X59470000Y-157355659D01*
X59470001Y-157355659D01*
X59509234Y-157352226D01*
X59705408Y-157335063D01*
X59933663Y-157273903D01*
X60147830Y-157174035D01*
X60341401Y-157038495D01*
X60508495Y-156871401D01*
X60638425Y-156685842D01*
X60693002Y-156642217D01*
X60762500Y-156635023D01*
X60824855Y-156666546D01*
X60841575Y-156685842D01*
X60971281Y-156871082D01*
X60971505Y-156871401D01*
X61138599Y-157038495D01*
X61235384Y-157106265D01*
X61332165Y-157174032D01*
X61332167Y-157174033D01*
X61332170Y-157174035D01*
X61546337Y-157273903D01*
X61774592Y-157335063D01*
X61962918Y-157351539D01*
X62009999Y-157355659D01*
X62010000Y-157355659D01*
X62010001Y-157355659D01*
X62049234Y-157352226D01*
X62245408Y-157335063D01*
X62473663Y-157273903D01*
X62687830Y-157174035D01*
X62881401Y-157038495D01*
X63048495Y-156871401D01*
X63178425Y-156685842D01*
X63233002Y-156642217D01*
X63302500Y-156635023D01*
X63364855Y-156666546D01*
X63381575Y-156685842D01*
X63511281Y-156871082D01*
X63511505Y-156871401D01*
X63678599Y-157038495D01*
X63775384Y-157106265D01*
X63872165Y-157174032D01*
X63872167Y-157174033D01*
X63872170Y-157174035D01*
X64086337Y-157273903D01*
X64314592Y-157335063D01*
X64502918Y-157351539D01*
X64549999Y-157355659D01*
X64550000Y-157355659D01*
X64550001Y-157355659D01*
X64589234Y-157352226D01*
X64785408Y-157335063D01*
X65013663Y-157273903D01*
X65227830Y-157174035D01*
X65421401Y-157038495D01*
X65588495Y-156871401D01*
X65718730Y-156685405D01*
X65773307Y-156641781D01*
X65842805Y-156634587D01*
X65905160Y-156666110D01*
X65921879Y-156685405D01*
X66051890Y-156871078D01*
X66218917Y-157038105D01*
X66412421Y-157173600D01*
X66626507Y-157273429D01*
X66626516Y-157273433D01*
X66840000Y-157330634D01*
X66840000Y-156435501D01*
X66947685Y-156484680D01*
X67054237Y-156500000D01*
X67125763Y-156500000D01*
X67232315Y-156484680D01*
X67340000Y-156435501D01*
X67340000Y-157330633D01*
X67553483Y-157273433D01*
X67553492Y-157273429D01*
X67767578Y-157173600D01*
X67961082Y-157038105D01*
X68128105Y-156871082D01*
X68263600Y-156677578D01*
X68363429Y-156463492D01*
X68363432Y-156463486D01*
X68420636Y-156250000D01*
X67523686Y-156250000D01*
X67549493Y-156209844D01*
X67590000Y-156071889D01*
X67590000Y-155928111D01*
X67549493Y-155790156D01*
X67523686Y-155750000D01*
X68420636Y-155750000D01*
X68420635Y-155749999D01*
X68363432Y-155536513D01*
X68363429Y-155536507D01*
X68263600Y-155322422D01*
X68263599Y-155322420D01*
X68128113Y-155128926D01*
X68128108Y-155128920D01*
X68006053Y-155006865D01*
X68002306Y-155000002D01*
X71754726Y-155000002D01*
X71773808Y-155351954D01*
X71830833Y-155699793D01*
X71830834Y-155699796D01*
X71925126Y-156039408D01*
X71925127Y-156039410D01*
X72055588Y-156366844D01*
X72055597Y-156366862D01*
X72197536Y-156634587D01*
X72220695Y-156678269D01*
X72351642Y-156871402D01*
X72418498Y-156970006D01*
X72418505Y-156970016D01*
X72591801Y-157174035D01*
X72646686Y-157238650D01*
X72902580Y-157481046D01*
X73183182Y-157694354D01*
X73485202Y-157876074D01*
X73485206Y-157876075D01*
X73485210Y-157876078D01*
X73805088Y-158024070D01*
X73805092Y-158024070D01*
X73805099Y-158024074D01*
X74139122Y-158136619D01*
X74483355Y-158212391D01*
X74833763Y-158250500D01*
X74833769Y-158250500D01*
X75186231Y-158250500D01*
X75186237Y-158250500D01*
X75536645Y-158212391D01*
X75880878Y-158136619D01*
X76214901Y-158024074D01*
X76214908Y-158024070D01*
X76214911Y-158024070D01*
X76534789Y-157876078D01*
X76534798Y-157876074D01*
X76836818Y-157694354D01*
X77117420Y-157481046D01*
X77373314Y-157238650D01*
X77601501Y-156970008D01*
X77799305Y-156678269D01*
X77964407Y-156366854D01*
X78094871Y-156039414D01*
X78189168Y-155699788D01*
X78246191Y-155351957D01*
X78265274Y-155000000D01*
X78260412Y-154910337D01*
X78248086Y-154683002D01*
X78246191Y-154648043D01*
X78189168Y-154300212D01*
X78134195Y-154102217D01*
X78094873Y-153960591D01*
X78094872Y-153960589D01*
X78080159Y-153923663D01*
X78053058Y-153855645D01*
X77964411Y-153633155D01*
X77964402Y-153633137D01*
X77799305Y-153321731D01*
X77601501Y-153029992D01*
X77601497Y-153029987D01*
X77601494Y-153029983D01*
X77373314Y-152761350D01*
X77190943Y-152588599D01*
X77117420Y-152518954D01*
X77117413Y-152518948D01*
X77117410Y-152518946D01*
X76952791Y-152393806D01*
X76836818Y-152305646D01*
X76836815Y-152305644D01*
X76534802Y-152123928D01*
X76534789Y-152123921D01*
X76214911Y-151975929D01*
X76214906Y-151975928D01*
X76214903Y-151975927D01*
X76214901Y-151975926D01*
X76108432Y-151940052D01*
X75880880Y-151863381D01*
X75536643Y-151787608D01*
X75186238Y-151749500D01*
X75186237Y-151749500D01*
X74833763Y-151749500D01*
X74833761Y-151749500D01*
X74483356Y-151787608D01*
X74139119Y-151863381D01*
X73805093Y-151975928D01*
X73805088Y-151975929D01*
X73485210Y-152123921D01*
X73485197Y-152123928D01*
X73183184Y-152305644D01*
X72902589Y-152518946D01*
X72902580Y-152518954D01*
X72646685Y-152761350D01*
X72418505Y-153029983D01*
X72418498Y-153029993D01*
X72220695Y-153321730D01*
X72055597Y-153633137D01*
X72055588Y-153633155D01*
X71925127Y-153960589D01*
X71925126Y-153960591D01*
X71830834Y-154300203D01*
X71830833Y-154300206D01*
X71773808Y-154648045D01*
X71754726Y-154999997D01*
X71754726Y-155000002D01*
X68002306Y-155000002D01*
X67972568Y-154945542D01*
X67977552Y-154875850D01*
X68019424Y-154819917D01*
X68050400Y-154803002D01*
X68182331Y-154753796D01*
X68297546Y-154667546D01*
X68383796Y-154552331D01*
X68434091Y-154417483D01*
X68440500Y-154357873D01*
X68440499Y-152562128D01*
X68434091Y-152502517D01*
X68432810Y-152499083D01*
X68383797Y-152367671D01*
X68383793Y-152367664D01*
X68297547Y-152252455D01*
X68297544Y-152252452D01*
X68182335Y-152166206D01*
X68182328Y-152166202D01*
X68047482Y-152115908D01*
X68047483Y-152115908D01*
X67987883Y-152109501D01*
X67987881Y-152109500D01*
X67987873Y-152109500D01*
X67987864Y-152109500D01*
X66192129Y-152109500D01*
X66192123Y-152109501D01*
X66132516Y-152115908D01*
X65997671Y-152166202D01*
X65997664Y-152166206D01*
X65882455Y-152252452D01*
X65882452Y-152252455D01*
X65796206Y-152367664D01*
X65796203Y-152367669D01*
X65747189Y-152499083D01*
X65705317Y-152555016D01*
X65639853Y-152579433D01*
X65571580Y-152564581D01*
X65543326Y-152543430D01*
X65421402Y-152421506D01*
X65421395Y-152421501D01*
X65227834Y-152285967D01*
X65227830Y-152285965D01*
X65227828Y-152285964D01*
X65013663Y-152186097D01*
X65013659Y-152186096D01*
X65013655Y-152186094D01*
X64785413Y-152124938D01*
X64785403Y-152124936D01*
X64550001Y-152104341D01*
X64549999Y-152104341D01*
X64314596Y-152124936D01*
X64314586Y-152124938D01*
X64086344Y-152186094D01*
X64086335Y-152186098D01*
X63872171Y-152285964D01*
X63872169Y-152285965D01*
X63678597Y-152421505D01*
X63511505Y-152588597D01*
X63381575Y-152774158D01*
X63326998Y-152817783D01*
X63257500Y-152824977D01*
X63195145Y-152793454D01*
X63178425Y-152774158D01*
X63048494Y-152588597D01*
X62881402Y-152421506D01*
X62881395Y-152421501D01*
X62687834Y-152285967D01*
X62687830Y-152285965D01*
X62687828Y-152285964D01*
X62473663Y-152186097D01*
X62473659Y-152186096D01*
X62473655Y-152186094D01*
X62245413Y-152124938D01*
X62245403Y-152124936D01*
X62010001Y-152104341D01*
X62009999Y-152104341D01*
X61774596Y-152124936D01*
X61774586Y-152124938D01*
X61546344Y-152186094D01*
X61546335Y-152186098D01*
X61332171Y-152285964D01*
X61332169Y-152285965D01*
X61138597Y-152421505D01*
X60971505Y-152588597D01*
X60841575Y-152774158D01*
X60786998Y-152817783D01*
X60717500Y-152824977D01*
X60655145Y-152793454D01*
X60638425Y-152774158D01*
X60508494Y-152588597D01*
X60341402Y-152421506D01*
X60341395Y-152421501D01*
X60147834Y-152285967D01*
X60147830Y-152285965D01*
X60147828Y-152285964D01*
X59933663Y-152186097D01*
X59933659Y-152186096D01*
X59933655Y-152186094D01*
X59705413Y-152124938D01*
X59705403Y-152124936D01*
X59470001Y-152104341D01*
X59469999Y-152104341D01*
X59234596Y-152124936D01*
X59234586Y-152124938D01*
X59006344Y-152186094D01*
X59006335Y-152186098D01*
X58792171Y-152285964D01*
X58792169Y-152285965D01*
X58598597Y-152421505D01*
X58431505Y-152588597D01*
X58301575Y-152774158D01*
X58246998Y-152817783D01*
X58177500Y-152824977D01*
X58115145Y-152793454D01*
X58098425Y-152774158D01*
X57968494Y-152588597D01*
X57801402Y-152421506D01*
X57801395Y-152421501D01*
X57607834Y-152285967D01*
X57607830Y-152285965D01*
X57607828Y-152285964D01*
X57393663Y-152186097D01*
X57393659Y-152186096D01*
X57393655Y-152186094D01*
X57165413Y-152124938D01*
X57165403Y-152124936D01*
X56930001Y-152104341D01*
X56929999Y-152104341D01*
X56694596Y-152124936D01*
X56694586Y-152124938D01*
X56466344Y-152186094D01*
X56466335Y-152186098D01*
X56252171Y-152285964D01*
X56252169Y-152285965D01*
X56058597Y-152421505D01*
X55891505Y-152588597D01*
X55755965Y-152782169D01*
X55755964Y-152782171D01*
X55656098Y-152996335D01*
X55656094Y-152996344D01*
X55594938Y-153224586D01*
X55594936Y-153224596D01*
X55574341Y-153459999D01*
X55574341Y-153460000D01*
X53340000Y-153460000D01*
X53340000Y-147000001D01*
X55704532Y-147000001D01*
X55724364Y-147226686D01*
X55724366Y-147226697D01*
X55783258Y-147446488D01*
X55783261Y-147446497D01*
X55879431Y-147652732D01*
X55879432Y-147652734D01*
X56009954Y-147839141D01*
X56170858Y-148000045D01*
X56170861Y-148000047D01*
X56357266Y-148130568D01*
X56563504Y-148226739D01*
X56783308Y-148285635D01*
X56945230Y-148299801D01*
X57009998Y-148305468D01*
X57010000Y-148305468D01*
X57010002Y-148305468D01*
X57066673Y-148300509D01*
X57236692Y-148285635D01*
X57456496Y-148226739D01*
X57662734Y-148130568D01*
X57849139Y-148000047D01*
X58010047Y-147839139D01*
X58140568Y-147652734D01*
X58236739Y-147446496D01*
X58295635Y-147226692D01*
X58315468Y-147000001D01*
X65864532Y-147000001D01*
X65884364Y-147226686D01*
X65884366Y-147226697D01*
X65943258Y-147446488D01*
X65943261Y-147446497D01*
X66039431Y-147652732D01*
X66039432Y-147652734D01*
X66169954Y-147839141D01*
X66330858Y-148000045D01*
X66330861Y-148000047D01*
X66517266Y-148130568D01*
X66723504Y-148226739D01*
X66943308Y-148285635D01*
X67105230Y-148299801D01*
X67169998Y-148305468D01*
X67170000Y-148305468D01*
X67170002Y-148305468D01*
X67226673Y-148300509D01*
X67396692Y-148285635D01*
X67616496Y-148226739D01*
X67822734Y-148130568D01*
X68009139Y-148000047D01*
X68170047Y-147839139D01*
X68300568Y-147652734D01*
X68396739Y-147446496D01*
X68455635Y-147226692D01*
X68475468Y-147000000D01*
X68455635Y-146773308D01*
X68396739Y-146553504D01*
X68300568Y-146347266D01*
X68170047Y-146160861D01*
X68170045Y-146160858D01*
X68009141Y-145999954D01*
X67822734Y-145869432D01*
X67822732Y-145869431D01*
X67616497Y-145773261D01*
X67616488Y-145773258D01*
X67396697Y-145714366D01*
X67396693Y-145714365D01*
X67396692Y-145714365D01*
X67396691Y-145714364D01*
X67396686Y-145714364D01*
X67170002Y-145694532D01*
X67169998Y-145694532D01*
X66943313Y-145714364D01*
X66943302Y-145714366D01*
X66723511Y-145773258D01*
X66723502Y-145773261D01*
X66517267Y-145869431D01*
X66517265Y-145869432D01*
X66330858Y-145999954D01*
X66169954Y-146160858D01*
X66039432Y-146347265D01*
X66039431Y-146347267D01*
X65943261Y-146553502D01*
X65943258Y-146553511D01*
X65884366Y-146773302D01*
X65884364Y-146773313D01*
X65864532Y-146999998D01*
X65864532Y-147000001D01*
X58315468Y-147000001D01*
X58315468Y-147000000D01*
X58295635Y-146773308D01*
X58236739Y-146553504D01*
X58140568Y-146347266D01*
X58010047Y-146160861D01*
X58010045Y-146160858D01*
X57849141Y-145999954D01*
X57662734Y-145869432D01*
X57662732Y-145869431D01*
X57456497Y-145773261D01*
X57456488Y-145773258D01*
X57236697Y-145714366D01*
X57236693Y-145714365D01*
X57236692Y-145714365D01*
X57236691Y-145714364D01*
X57236686Y-145714364D01*
X57010002Y-145694532D01*
X57009998Y-145694532D01*
X56783313Y-145714364D01*
X56783302Y-145714366D01*
X56563511Y-145773258D01*
X56563502Y-145773261D01*
X56357267Y-145869431D01*
X56357265Y-145869432D01*
X56170858Y-145999954D01*
X56009954Y-146160858D01*
X55879432Y-146347265D01*
X55879431Y-146347267D01*
X55783261Y-146553502D01*
X55783258Y-146553511D01*
X55724366Y-146773302D01*
X55724364Y-146773313D01*
X55704532Y-146999998D01*
X55704532Y-147000001D01*
X53340000Y-147000001D01*
X53340000Y-142000001D01*
X55624532Y-142000001D01*
X55644364Y-142226686D01*
X55644366Y-142226697D01*
X55703258Y-142446488D01*
X55703261Y-142446497D01*
X55799431Y-142652732D01*
X55799432Y-142652734D01*
X55929954Y-142839141D01*
X56090858Y-143000045D01*
X56090861Y-143000047D01*
X56277266Y-143130568D01*
X56483504Y-143226739D01*
X56703308Y-143285635D01*
X56865230Y-143299801D01*
X56929998Y-143305468D01*
X56930000Y-143305468D01*
X56930002Y-143305468D01*
X56986673Y-143300509D01*
X57156692Y-143285635D01*
X57376496Y-143226739D01*
X57582734Y-143130568D01*
X57769139Y-143000047D01*
X57930047Y-142839139D01*
X58060568Y-142652734D01*
X58156739Y-142446496D01*
X58215635Y-142226692D01*
X58235468Y-142000001D01*
X65784532Y-142000001D01*
X65804364Y-142226686D01*
X65804366Y-142226697D01*
X65863258Y-142446488D01*
X65863261Y-142446497D01*
X65959431Y-142652732D01*
X65959432Y-142652734D01*
X66089954Y-142839141D01*
X66250858Y-143000045D01*
X66250861Y-143000047D01*
X66437266Y-143130568D01*
X66643504Y-143226739D01*
X66863308Y-143285635D01*
X67025230Y-143299801D01*
X67089998Y-143305468D01*
X67090000Y-143305468D01*
X67090002Y-143305468D01*
X67146673Y-143300509D01*
X67316692Y-143285635D01*
X67536496Y-143226739D01*
X67742734Y-143130568D01*
X67929139Y-143000047D01*
X68090047Y-142839139D01*
X68220568Y-142652734D01*
X68316739Y-142446496D01*
X68375635Y-142226692D01*
X68395468Y-142000000D01*
X68375635Y-141773308D01*
X68316739Y-141553504D01*
X68220568Y-141347266D01*
X68090047Y-141160861D01*
X68090045Y-141160858D01*
X67929141Y-140999954D01*
X67742734Y-140869432D01*
X67742732Y-140869431D01*
X67536497Y-140773261D01*
X67536488Y-140773258D01*
X67316697Y-140714366D01*
X67316693Y-140714365D01*
X67316692Y-140714365D01*
X67316691Y-140714364D01*
X67316686Y-140714364D01*
X67090002Y-140694532D01*
X67089998Y-140694532D01*
X66863313Y-140714364D01*
X66863302Y-140714366D01*
X66643511Y-140773258D01*
X66643502Y-140773261D01*
X66437267Y-140869431D01*
X66437265Y-140869432D01*
X66250858Y-140999954D01*
X66089954Y-141160858D01*
X65959432Y-141347265D01*
X65959431Y-141347267D01*
X65863261Y-141553502D01*
X65863258Y-141553511D01*
X65804366Y-141773302D01*
X65804364Y-141773313D01*
X65784532Y-141999998D01*
X65784532Y-142000001D01*
X58235468Y-142000001D01*
X58235468Y-142000000D01*
X58215635Y-141773308D01*
X58156739Y-141553504D01*
X58060568Y-141347266D01*
X57930047Y-141160861D01*
X57930045Y-141160858D01*
X57769141Y-140999954D01*
X57582734Y-140869432D01*
X57582732Y-140869431D01*
X57376497Y-140773261D01*
X57376488Y-140773258D01*
X57156697Y-140714366D01*
X57156693Y-140714365D01*
X57156692Y-140714365D01*
X57156691Y-140714364D01*
X57156686Y-140714364D01*
X56930002Y-140694532D01*
X56929998Y-140694532D01*
X56703313Y-140714364D01*
X56703302Y-140714366D01*
X56483511Y-140773258D01*
X56483502Y-140773261D01*
X56277267Y-140869431D01*
X56277265Y-140869432D01*
X56090858Y-140999954D01*
X55929954Y-141160858D01*
X55799432Y-141347265D01*
X55799431Y-141347267D01*
X55703261Y-141553502D01*
X55703258Y-141553511D01*
X55644366Y-141773302D01*
X55644364Y-141773313D01*
X55624532Y-141999998D01*
X55624532Y-142000001D01*
X53340000Y-142000001D01*
X53340000Y-140970000D01*
X41275000Y-140970000D01*
X41275000Y-159625500D01*
X41255315Y-159692539D01*
X41202511Y-159738294D01*
X41151000Y-159749500D01*
X32634500Y-159749500D01*
X32567461Y-159729815D01*
X32521706Y-159677011D01*
X32510500Y-159625500D01*
X32510500Y-155000002D01*
X34254726Y-155000002D01*
X34273808Y-155351954D01*
X34330833Y-155699793D01*
X34330834Y-155699796D01*
X34425126Y-156039408D01*
X34425127Y-156039410D01*
X34555588Y-156366844D01*
X34555597Y-156366862D01*
X34697536Y-156634587D01*
X34720695Y-156678269D01*
X34851642Y-156871402D01*
X34918498Y-156970006D01*
X34918505Y-156970016D01*
X35091801Y-157174035D01*
X35146686Y-157238650D01*
X35402580Y-157481046D01*
X35683182Y-157694354D01*
X35985202Y-157876074D01*
X35985206Y-157876075D01*
X35985210Y-157876078D01*
X36305088Y-158024070D01*
X36305092Y-158024070D01*
X36305099Y-158024074D01*
X36639122Y-158136619D01*
X36983355Y-158212391D01*
X37333763Y-158250500D01*
X37333769Y-158250500D01*
X37686231Y-158250500D01*
X37686237Y-158250500D01*
X38036645Y-158212391D01*
X38380878Y-158136619D01*
X38714901Y-158024074D01*
X38714908Y-158024070D01*
X38714911Y-158024070D01*
X39034789Y-157876078D01*
X39034798Y-157876074D01*
X39336818Y-157694354D01*
X39617420Y-157481046D01*
X39873314Y-157238650D01*
X40101501Y-156970008D01*
X40299305Y-156678269D01*
X40464407Y-156366854D01*
X40594871Y-156039414D01*
X40689168Y-155699788D01*
X40746191Y-155351957D01*
X40765274Y-155000000D01*
X40760412Y-154910337D01*
X40748086Y-154683002D01*
X40746191Y-154648043D01*
X40689168Y-154300212D01*
X40634195Y-154102217D01*
X40594873Y-153960591D01*
X40594872Y-153960589D01*
X40580159Y-153923663D01*
X40553058Y-153855645D01*
X40464411Y-153633155D01*
X40464402Y-153633137D01*
X40299305Y-153321731D01*
X40101501Y-153029992D01*
X40101497Y-153029987D01*
X40101494Y-153029983D01*
X39873314Y-152761350D01*
X39690943Y-152588599D01*
X39617420Y-152518954D01*
X39617413Y-152518948D01*
X39617410Y-152518946D01*
X39452791Y-152393806D01*
X39336818Y-152305646D01*
X39336815Y-152305644D01*
X39034802Y-152123928D01*
X39034789Y-152123921D01*
X38714911Y-151975929D01*
X38714906Y-151975928D01*
X38714903Y-151975927D01*
X38714901Y-151975926D01*
X38608432Y-151940052D01*
X38380880Y-151863381D01*
X38036643Y-151787608D01*
X37686238Y-151749500D01*
X37686237Y-151749500D01*
X37333763Y-151749500D01*
X37333761Y-151749500D01*
X36983356Y-151787608D01*
X36639119Y-151863381D01*
X36305093Y-151975928D01*
X36305088Y-151975929D01*
X35985210Y-152123921D01*
X35985197Y-152123928D01*
X35683184Y-152305644D01*
X35402589Y-152518946D01*
X35402580Y-152518954D01*
X35146685Y-152761350D01*
X34918505Y-153029983D01*
X34918498Y-153029993D01*
X34720695Y-153321730D01*
X34555597Y-153633137D01*
X34555588Y-153633155D01*
X34425127Y-153960589D01*
X34425126Y-153960591D01*
X34330834Y-154300203D01*
X34330833Y-154300206D01*
X34273808Y-154648045D01*
X34254726Y-154999997D01*
X34254726Y-155000002D01*
X32510500Y-155000002D01*
X32510500Y-136525000D01*
X44369341Y-136525000D01*
X44389936Y-136760403D01*
X44389938Y-136760413D01*
X44451094Y-136988655D01*
X44451096Y-136988659D01*
X44451097Y-136988663D01*
X44535499Y-137169663D01*
X44550965Y-137202830D01*
X44550967Y-137202834D01*
X44659281Y-137357521D01*
X44686505Y-137396401D01*
X44853599Y-137563495D01*
X44950384Y-137631265D01*
X45047165Y-137699032D01*
X45047167Y-137699033D01*
X45047170Y-137699035D01*
X45261337Y-137798903D01*
X45489592Y-137860063D01*
X45666034Y-137875500D01*
X45724999Y-137880659D01*
X45725000Y-137880659D01*
X45725001Y-137880659D01*
X45783966Y-137875500D01*
X45960408Y-137860063D01*
X46188663Y-137798903D01*
X46402830Y-137699035D01*
X46596401Y-137563495D01*
X46718329Y-137441566D01*
X46779648Y-137408084D01*
X46849340Y-137413068D01*
X46905274Y-137454939D01*
X46922189Y-137485917D01*
X46971202Y-137617328D01*
X46971206Y-137617335D01*
X47057452Y-137732544D01*
X47057455Y-137732547D01*
X47172664Y-137818793D01*
X47172671Y-137818797D01*
X47307517Y-137869091D01*
X47307516Y-137869091D01*
X47314444Y-137869835D01*
X47367127Y-137875500D01*
X49162872Y-137875499D01*
X49222483Y-137869091D01*
X49357331Y-137818796D01*
X49472546Y-137732546D01*
X49558796Y-137617331D01*
X49609091Y-137482483D01*
X49615500Y-137422873D01*
X49615499Y-135627128D01*
X49609091Y-135567517D01*
X49607810Y-135564083D01*
X49558797Y-135432671D01*
X49558793Y-135432664D01*
X49472547Y-135317455D01*
X49472544Y-135317452D01*
X49357335Y-135231206D01*
X49357332Y-135231205D01*
X49357331Y-135231204D01*
X49346161Y-135227038D01*
X49290231Y-135185166D01*
X49265816Y-135119701D01*
X49265500Y-135110858D01*
X49265500Y-124920782D01*
X49285185Y-124853743D01*
X49301814Y-124833106D01*
X67088107Y-107046812D01*
X67149426Y-107013330D01*
X67219118Y-107018314D01*
X67275051Y-107060186D01*
X67295559Y-107102402D01*
X67306567Y-107143485D01*
X67306570Y-107143492D01*
X67406400Y-107357579D01*
X67406402Y-107357583D01*
X67465072Y-107441373D01*
X67465073Y-107441373D01*
X68096922Y-106809523D01*
X68120507Y-106889844D01*
X68198239Y-107010798D01*
X68306900Y-107104952D01*
X68437685Y-107164680D01*
X68447466Y-107166086D01*
X67818625Y-107794925D01*
X67894594Y-107848119D01*
X67938219Y-107902696D01*
X67945413Y-107972194D01*
X67913890Y-108034549D01*
X67894595Y-108051269D01*
X67708594Y-108181508D01*
X67541505Y-108348597D01*
X67405965Y-108542169D01*
X67405964Y-108542171D01*
X67306098Y-108756335D01*
X67306094Y-108756344D01*
X67244938Y-108984586D01*
X67244936Y-108984596D01*
X67224341Y-109219999D01*
X67224341Y-109220000D01*
X67244936Y-109455403D01*
X67244938Y-109455413D01*
X67306094Y-109683655D01*
X67306096Y-109683659D01*
X67306097Y-109683663D01*
X67405847Y-109897578D01*
X67405965Y-109897830D01*
X67405967Y-109897834D01*
X67541501Y-110091395D01*
X67541506Y-110091402D01*
X67708597Y-110258493D01*
X67708603Y-110258498D01*
X67894158Y-110388425D01*
X67937783Y-110443002D01*
X67944977Y-110512500D01*
X67913454Y-110574855D01*
X67894158Y-110591575D01*
X67708597Y-110721505D01*
X67541505Y-110888597D01*
X67405965Y-111082169D01*
X67405964Y-111082171D01*
X67306098Y-111296335D01*
X67306094Y-111296344D01*
X67244938Y-111524586D01*
X67244936Y-111524596D01*
X67224341Y-111759999D01*
X67224341Y-111760000D01*
X67244936Y-111995403D01*
X67244938Y-111995413D01*
X67306094Y-112223655D01*
X67306096Y-112223659D01*
X67306097Y-112223663D01*
X67405965Y-112437830D01*
X67405967Y-112437834D01*
X67514281Y-112592521D01*
X67541505Y-112631401D01*
X67708599Y-112798495D01*
X67805384Y-112866265D01*
X67902165Y-112934032D01*
X67902167Y-112934033D01*
X67902170Y-112934035D01*
X68116337Y-113033903D01*
X68344592Y-113095063D01*
X68532918Y-113111539D01*
X68579999Y-113115659D01*
X68580000Y-113115659D01*
X68580001Y-113115659D01*
X68619234Y-113112226D01*
X68815408Y-113095063D01*
X69043663Y-113033903D01*
X69257830Y-112934035D01*
X69451401Y-112798495D01*
X69618495Y-112631401D01*
X69754035Y-112437830D01*
X69853903Y-112223663D01*
X69915063Y-111995408D01*
X69935659Y-111760000D01*
X69915063Y-111524592D01*
X69853903Y-111296337D01*
X69754035Y-111082171D01*
X69618495Y-110888599D01*
X69618494Y-110888597D01*
X69451402Y-110721506D01*
X69451396Y-110721501D01*
X69265842Y-110591575D01*
X69222217Y-110536998D01*
X69215023Y-110467500D01*
X69246546Y-110405145D01*
X69265842Y-110388425D01*
X69342248Y-110334925D01*
X69451401Y-110258495D01*
X69618495Y-110091401D01*
X69754035Y-109897830D01*
X69853903Y-109683663D01*
X69915063Y-109455408D01*
X69935659Y-109220000D01*
X69915063Y-108984592D01*
X69853903Y-108756337D01*
X69754035Y-108542171D01*
X69695537Y-108458626D01*
X69618494Y-108348597D01*
X69451402Y-108181506D01*
X69451401Y-108181505D01*
X69283844Y-108064180D01*
X69265405Y-108051269D01*
X69221781Y-107996692D01*
X69214588Y-107927193D01*
X69246110Y-107864839D01*
X69265405Y-107848119D01*
X69341373Y-107794925D01*
X68712533Y-107166086D01*
X68722315Y-107164680D01*
X68853100Y-107104952D01*
X68961761Y-107010798D01*
X69039493Y-106889844D01*
X69063076Y-106809524D01*
X69694925Y-107441373D01*
X69694926Y-107441373D01*
X69753598Y-107357582D01*
X69753600Y-107357578D01*
X69853429Y-107143492D01*
X69853433Y-107143483D01*
X69914567Y-106915326D01*
X69914569Y-106915315D01*
X69935157Y-106680001D01*
X69935157Y-106679998D01*
X69914569Y-106444684D01*
X69914567Y-106444673D01*
X69853433Y-106216516D01*
X69853429Y-106216507D01*
X69753600Y-106002423D01*
X69753599Y-106002421D01*
X69694925Y-105918626D01*
X69694925Y-105918625D01*
X69063076Y-106550475D01*
X69039493Y-106470156D01*
X68961761Y-106349202D01*
X68853100Y-106255048D01*
X68722315Y-106195320D01*
X68712532Y-106193913D01*
X69341373Y-105565073D01*
X69341373Y-105565072D01*
X69265405Y-105511880D01*
X69221780Y-105457304D01*
X69214586Y-105387805D01*
X69246108Y-105325451D01*
X69265399Y-105308734D01*
X69451401Y-105178495D01*
X69618495Y-105011401D01*
X69754035Y-104817830D01*
X69853903Y-104603663D01*
X69915063Y-104375408D01*
X69926043Y-104249901D01*
X69951495Y-104184834D01*
X69961882Y-104173037D01*
X78803467Y-95331452D01*
X78868053Y-95270059D01*
X78903099Y-95219706D01*
X78905938Y-95215941D01*
X78909612Y-95211435D01*
X78944698Y-95168407D01*
X78960601Y-95137960D01*
X78964674Y-95131239D01*
X78969489Y-95124320D01*
X78984295Y-95103049D01*
X79008492Y-95046660D01*
X79010498Y-95042435D01*
X79038909Y-94988049D01*
X79048357Y-94955022D01*
X79050988Y-94947633D01*
X79064540Y-94916058D01*
X79076895Y-94855930D01*
X79077999Y-94851429D01*
X79094886Y-94792418D01*
X79097494Y-94758157D01*
X79098585Y-94750389D01*
X79105500Y-94716743D01*
X79105500Y-94655398D01*
X79105679Y-94650688D01*
X79110337Y-94589524D01*
X79105997Y-94555442D01*
X79105500Y-94547603D01*
X79105500Y-58145643D01*
X79107756Y-58056610D01*
X79107755Y-58056609D01*
X79107756Y-58056604D01*
X79096929Y-57996201D01*
X79096282Y-57991588D01*
X79090074Y-57930530D01*
X79090073Y-57930528D01*
X79090073Y-57930525D01*
X79079790Y-57897755D01*
X79077917Y-57890122D01*
X79071858Y-57856316D01*
X79049102Y-57799346D01*
X79047521Y-57794905D01*
X79029159Y-57736380D01*
X79029158Y-57736378D01*
X79029157Y-57736375D01*
X79012488Y-57706346D01*
X79009117Y-57699246D01*
X78996378Y-57667354D01*
X78996377Y-57667351D01*
X78962620Y-57616131D01*
X78960180Y-57612102D01*
X78949379Y-57592643D01*
X78930409Y-57558466D01*
X78930407Y-57558463D01*
X78908033Y-57532402D01*
X78903302Y-57526127D01*
X78884402Y-57497449D01*
X78841012Y-57454059D01*
X78837822Y-57450616D01*
X78797867Y-57404074D01*
X78797863Y-57404070D01*
X78770698Y-57383042D01*
X78764803Y-57377850D01*
X67678484Y-46291532D01*
X67617093Y-46226949D01*
X67617092Y-46226948D01*
X67617091Y-46226947D01*
X67589236Y-46207559D01*
X67566741Y-46191902D01*
X67562978Y-46189064D01*
X67515445Y-46150305D01*
X67515438Y-46150300D01*
X67484991Y-46134397D01*
X67478283Y-46130334D01*
X67450081Y-46110705D01*
X67450078Y-46110703D01*
X67450077Y-46110703D01*
X67450073Y-46110701D01*
X67393712Y-46086514D01*
X67389456Y-46084493D01*
X67335089Y-46056094D01*
X67335082Y-46056091D01*
X67335081Y-46056091D01*
X67329040Y-46054362D01*
X67302062Y-46046642D01*
X67294662Y-46044008D01*
X67263089Y-46030459D01*
X67263090Y-46030459D01*
X67202998Y-46018109D01*
X67198423Y-46016986D01*
X67139452Y-46000113D01*
X67139457Y-46000113D01*
X67105190Y-45997503D01*
X67097412Y-45996412D01*
X67063774Y-45989500D01*
X67063773Y-45989500D01*
X67002434Y-45989500D01*
X66997727Y-45989321D01*
X66992153Y-45988896D01*
X66936556Y-45984662D01*
X66916621Y-45987201D01*
X66902472Y-45989003D01*
X66894643Y-45989500D01*
X66184141Y-45989500D01*
X66117102Y-45969815D01*
X66071347Y-45917011D01*
X66067969Y-45908859D01*
X66063796Y-45897669D01*
X66063793Y-45897665D01*
X66063793Y-45897664D01*
X65977547Y-45782455D01*
X65977544Y-45782452D01*
X65862335Y-45696206D01*
X65862328Y-45696202D01*
X65730917Y-45647189D01*
X65674983Y-45605318D01*
X65650566Y-45539853D01*
X65665418Y-45471580D01*
X65686563Y-45443332D01*
X65808495Y-45321401D01*
X65944035Y-45127830D01*
X66043903Y-44913663D01*
X66105063Y-44685408D01*
X66125659Y-44450000D01*
X66105063Y-44214592D01*
X66043903Y-43986337D01*
X65944035Y-43772171D01*
X65808495Y-43578599D01*
X65808494Y-43578597D01*
X65641402Y-43411506D01*
X65641395Y-43411501D01*
X65447834Y-43275967D01*
X65447830Y-43275965D01*
X65447828Y-43275964D01*
X65233663Y-43176097D01*
X65233659Y-43176096D01*
X65233655Y-43176094D01*
X65005413Y-43114938D01*
X65005403Y-43114936D01*
X64770001Y-43094341D01*
X64769999Y-43094341D01*
X64534596Y-43114936D01*
X64534586Y-43114938D01*
X64306344Y-43176094D01*
X64306335Y-43176098D01*
X64092171Y-43275964D01*
X64092169Y-43275965D01*
X63898597Y-43411505D01*
X63731505Y-43578597D01*
X63595965Y-43772169D01*
X63595964Y-43772171D01*
X63496098Y-43986335D01*
X63496094Y-43986344D01*
X63434938Y-44214586D01*
X63434936Y-44214596D01*
X63414341Y-44449999D01*
X63414341Y-44450000D01*
X63434936Y-44685403D01*
X63434938Y-44685413D01*
X63496094Y-44913655D01*
X63496096Y-44913659D01*
X63496097Y-44913663D01*
X63595965Y-45127830D01*
X63595967Y-45127834D01*
X63704281Y-45282521D01*
X63731501Y-45321396D01*
X63731506Y-45321402D01*
X63853430Y-45443326D01*
X63886915Y-45504649D01*
X63881931Y-45574341D01*
X63840059Y-45630274D01*
X63809083Y-45647189D01*
X63677669Y-45696203D01*
X63677664Y-45696206D01*
X63562455Y-45782452D01*
X63562452Y-45782455D01*
X63476206Y-45897664D01*
X63476202Y-45897671D01*
X63425908Y-46032517D01*
X63419501Y-46092116D01*
X63419500Y-46092135D01*
X63419500Y-47887870D01*
X63419501Y-47887876D01*
X63425908Y-47947483D01*
X63476202Y-48082328D01*
X63476206Y-48082335D01*
X63562452Y-48197544D01*
X63562455Y-48197547D01*
X63677664Y-48283793D01*
X63677671Y-48283797D01*
X63812517Y-48334091D01*
X63812516Y-48334091D01*
X63819444Y-48334835D01*
X63872127Y-48340500D01*
X65667872Y-48340499D01*
X65727483Y-48334091D01*
X65862331Y-48283796D01*
X65977546Y-48197546D01*
X66063796Y-48082331D01*
X66067960Y-48071165D01*
X66109829Y-48015234D01*
X66175293Y-47990816D01*
X66184141Y-47990500D01*
X66496249Y-47990500D01*
X66563288Y-48010185D01*
X66583930Y-48026819D01*
X74318522Y-55761411D01*
X74352007Y-55822734D01*
X74347023Y-55892426D01*
X74305151Y-55948359D01*
X74283246Y-55961474D01*
X74252171Y-55975964D01*
X74252169Y-55975965D01*
X74058600Y-56111503D01*
X73936673Y-56233430D01*
X73875350Y-56266914D01*
X73805658Y-56261930D01*
X73749725Y-56220058D01*
X73732810Y-56189081D01*
X73683797Y-56057671D01*
X73683793Y-56057664D01*
X73597547Y-55942455D01*
X73597544Y-55942452D01*
X73482335Y-55856206D01*
X73482328Y-55856202D01*
X73347482Y-55805908D01*
X73347483Y-55805908D01*
X73287883Y-55799501D01*
X73287881Y-55799500D01*
X73287873Y-55799500D01*
X73287864Y-55799500D01*
X71492129Y-55799500D01*
X71492123Y-55799501D01*
X71432516Y-55805908D01*
X71297671Y-55856202D01*
X71297664Y-55856206D01*
X71182455Y-55942452D01*
X71182452Y-55942455D01*
X71096206Y-56057664D01*
X71096202Y-56057671D01*
X71045908Y-56192517D01*
X71039501Y-56252116D01*
X71039500Y-56252135D01*
X71039500Y-58047870D01*
X71039501Y-58047876D01*
X71045908Y-58107483D01*
X71096202Y-58242328D01*
X71096206Y-58242335D01*
X71182452Y-58357544D01*
X71182455Y-58357547D01*
X71297664Y-58443793D01*
X71297671Y-58443797D01*
X71432517Y-58494091D01*
X71432516Y-58494091D01*
X71439444Y-58494835D01*
X71492127Y-58500500D01*
X73287872Y-58500499D01*
X73347483Y-58494091D01*
X73482331Y-58443796D01*
X73597546Y-58357546D01*
X73683796Y-58242331D01*
X73732810Y-58110916D01*
X73774681Y-58054984D01*
X73840145Y-58030566D01*
X73908418Y-58045417D01*
X73936673Y-58066569D01*
X74058599Y-58188495D01*
X74155384Y-58256265D01*
X74252165Y-58324032D01*
X74252167Y-58324033D01*
X74252170Y-58324035D01*
X74466337Y-58423903D01*
X74694592Y-58485063D01*
X74871034Y-58500500D01*
X74929999Y-58505659D01*
X74930000Y-58505659D01*
X74930001Y-58505659D01*
X74988966Y-58500500D01*
X75165408Y-58485063D01*
X75393663Y-58423903D01*
X75607830Y-58324035D01*
X75801401Y-58188495D01*
X75968495Y-58021401D01*
X76104035Y-57827830D01*
X76118527Y-57796751D01*
X76164694Y-57744316D01*
X76231887Y-57725162D01*
X76298769Y-57745376D01*
X76318588Y-57761477D01*
X77068181Y-58511070D01*
X77101666Y-58572393D01*
X77104500Y-58598751D01*
X77104500Y-94149217D01*
X77084815Y-94216256D01*
X77068181Y-94236898D01*
X68546970Y-102758108D01*
X68485647Y-102791593D01*
X68470098Y-102793955D01*
X68344596Y-102804936D01*
X68344586Y-102804938D01*
X68116344Y-102866094D01*
X68116335Y-102866098D01*
X67902171Y-102965964D01*
X67902169Y-102965965D01*
X67708597Y-103101505D01*
X67541505Y-103268597D01*
X67405965Y-103462169D01*
X67405964Y-103462171D01*
X67306098Y-103676335D01*
X67306094Y-103676344D01*
X67244938Y-103904586D01*
X67244936Y-103904596D01*
X67233955Y-104030098D01*
X67208502Y-104095166D01*
X67198108Y-104106970D01*
X47566532Y-123738546D01*
X47501946Y-123799942D01*
X47466899Y-123850294D01*
X47464062Y-123854056D01*
X47425302Y-123901592D01*
X47425299Y-123901597D01*
X47409392Y-123932047D01*
X47405324Y-123938761D01*
X47385702Y-123966954D01*
X47361509Y-124023330D01*
X47359488Y-124027584D01*
X47331091Y-124081951D01*
X47331090Y-124081952D01*
X47321640Y-124114975D01*
X47319007Y-124122371D01*
X47305459Y-124153943D01*
X47293113Y-124214019D01*
X47291990Y-124218595D01*
X47275113Y-124277577D01*
X47275113Y-124277579D01*
X47272503Y-124311841D01*
X47271414Y-124319608D01*
X47265980Y-124346052D01*
X47264500Y-124353258D01*
X47264500Y-124414597D01*
X47264321Y-124419306D01*
X47259662Y-124480474D01*
X47261707Y-124496527D01*
X47264003Y-124514560D01*
X47264500Y-124522388D01*
X47264500Y-135110858D01*
X47244815Y-135177897D01*
X47192011Y-135223652D01*
X47183847Y-135227034D01*
X47172669Y-135231204D01*
X47172664Y-135231206D01*
X47057455Y-135317452D01*
X47057452Y-135317455D01*
X46971206Y-135432664D01*
X46971203Y-135432669D01*
X46922189Y-135564083D01*
X46880317Y-135620016D01*
X46814853Y-135644433D01*
X46746580Y-135629581D01*
X46718326Y-135608430D01*
X46596402Y-135486506D01*
X46596395Y-135486501D01*
X46402834Y-135350967D01*
X46402830Y-135350965D01*
X46402828Y-135350964D01*
X46188663Y-135251097D01*
X46188659Y-135251096D01*
X46188655Y-135251094D01*
X45960413Y-135189938D01*
X45960403Y-135189936D01*
X45725001Y-135169341D01*
X45724999Y-135169341D01*
X45489596Y-135189936D01*
X45489586Y-135189938D01*
X45261344Y-135251094D01*
X45261335Y-135251098D01*
X45047171Y-135350964D01*
X45047169Y-135350965D01*
X44853597Y-135486505D01*
X44686505Y-135653597D01*
X44550965Y-135847169D01*
X44550964Y-135847171D01*
X44451098Y-136061335D01*
X44451094Y-136061344D01*
X44389938Y-136289586D01*
X44389936Y-136289596D01*
X44369341Y-136524999D01*
X44369341Y-136525000D01*
X32510500Y-136525000D01*
X32510500Y-78740001D01*
X38064532Y-78740001D01*
X38084364Y-78966686D01*
X38084366Y-78966697D01*
X38143258Y-79186488D01*
X38143261Y-79186497D01*
X38239431Y-79392732D01*
X38239432Y-79392734D01*
X38369954Y-79579141D01*
X38530858Y-79740045D01*
X38530861Y-79740047D01*
X38717266Y-79870568D01*
X38923504Y-79966739D01*
X39143308Y-80025635D01*
X39305230Y-80039801D01*
X39369998Y-80045468D01*
X39370000Y-80045468D01*
X39370002Y-80045468D01*
X39426673Y-80040509D01*
X39596692Y-80025635D01*
X39816496Y-79966739D01*
X40022734Y-79870568D01*
X40209139Y-79740047D01*
X40370047Y-79579139D01*
X40500568Y-79392734D01*
X40527618Y-79334724D01*
X40573790Y-79282285D01*
X40640983Y-79263133D01*
X40707865Y-79283348D01*
X40752382Y-79334725D01*
X40779429Y-79392728D01*
X40779432Y-79392734D01*
X40909954Y-79579141D01*
X41070858Y-79740045D01*
X41070861Y-79740047D01*
X41257266Y-79870568D01*
X41463504Y-79966739D01*
X41683308Y-80025635D01*
X41845230Y-80039801D01*
X41909998Y-80045468D01*
X41910000Y-80045468D01*
X41910002Y-80045468D01*
X41966673Y-80040509D01*
X42136692Y-80025635D01*
X42356496Y-79966739D01*
X42562734Y-79870568D01*
X42749139Y-79740047D01*
X42910047Y-79579139D01*
X43040568Y-79392734D01*
X43067618Y-79334724D01*
X43113790Y-79282285D01*
X43180983Y-79263133D01*
X43247865Y-79283348D01*
X43292382Y-79334725D01*
X43319429Y-79392728D01*
X43319432Y-79392734D01*
X43449954Y-79579141D01*
X43610858Y-79740045D01*
X43610861Y-79740047D01*
X43797266Y-79870568D01*
X44003504Y-79966739D01*
X44223308Y-80025635D01*
X44385230Y-80039801D01*
X44449998Y-80045468D01*
X44450000Y-80045468D01*
X44450002Y-80045468D01*
X44506673Y-80040509D01*
X44676692Y-80025635D01*
X44896496Y-79966739D01*
X45102734Y-79870568D01*
X45289139Y-79740047D01*
X45450047Y-79579139D01*
X45580568Y-79392734D01*
X45607618Y-79334724D01*
X45653790Y-79282285D01*
X45720983Y-79263133D01*
X45787865Y-79283348D01*
X45832382Y-79334725D01*
X45859429Y-79392728D01*
X45859432Y-79392734D01*
X45989954Y-79579141D01*
X46150858Y-79740045D01*
X46150861Y-79740047D01*
X46337266Y-79870568D01*
X46543504Y-79966739D01*
X46763308Y-80025635D01*
X46925230Y-80039801D01*
X46989998Y-80045468D01*
X46990000Y-80045468D01*
X46990002Y-80045468D01*
X47046673Y-80040509D01*
X47216692Y-80025635D01*
X47436496Y-79966739D01*
X47642734Y-79870568D01*
X47829139Y-79740047D01*
X47990047Y-79579139D01*
X48120568Y-79392734D01*
X48147618Y-79334724D01*
X48193790Y-79282285D01*
X48260983Y-79263133D01*
X48327865Y-79283348D01*
X48372382Y-79334725D01*
X48399429Y-79392728D01*
X48399432Y-79392734D01*
X48529954Y-79579141D01*
X48690858Y-79740045D01*
X48690861Y-79740047D01*
X48877266Y-79870568D01*
X49083504Y-79966739D01*
X49303308Y-80025635D01*
X49465230Y-80039801D01*
X49529998Y-80045468D01*
X49530000Y-80045468D01*
X49530002Y-80045468D01*
X49586673Y-80040509D01*
X49756692Y-80025635D01*
X49976496Y-79966739D01*
X50182734Y-79870568D01*
X50369139Y-79740047D01*
X50530047Y-79579139D01*
X50660568Y-79392734D01*
X50687618Y-79334724D01*
X50733790Y-79282285D01*
X50800983Y-79263133D01*
X50867865Y-79283348D01*
X50912382Y-79334725D01*
X50939429Y-79392728D01*
X50939432Y-79392734D01*
X51069954Y-79579141D01*
X51230858Y-79740045D01*
X51230861Y-79740047D01*
X51417266Y-79870568D01*
X51623504Y-79966739D01*
X51843308Y-80025635D01*
X52005230Y-80039801D01*
X52069998Y-80045468D01*
X52070000Y-80045468D01*
X52070002Y-80045468D01*
X52126673Y-80040509D01*
X52296692Y-80025635D01*
X52516496Y-79966739D01*
X52722734Y-79870568D01*
X52909139Y-79740047D01*
X53070047Y-79579139D01*
X53200568Y-79392734D01*
X53227618Y-79334724D01*
X53273790Y-79282285D01*
X53340983Y-79263133D01*
X53407865Y-79283348D01*
X53452382Y-79334725D01*
X53479429Y-79392728D01*
X53479432Y-79392734D01*
X53609954Y-79579141D01*
X53770858Y-79740045D01*
X53770861Y-79740047D01*
X53957266Y-79870568D01*
X54163504Y-79966739D01*
X54383308Y-80025635D01*
X54545230Y-80039801D01*
X54609998Y-80045468D01*
X54610000Y-80045468D01*
X54610002Y-80045468D01*
X54666673Y-80040509D01*
X54836692Y-80025635D01*
X55056496Y-79966739D01*
X55262734Y-79870568D01*
X55449139Y-79740047D01*
X55610047Y-79579139D01*
X55740568Y-79392734D01*
X55767618Y-79334724D01*
X55813790Y-79282285D01*
X55880983Y-79263133D01*
X55947865Y-79283348D01*
X55992382Y-79334725D01*
X56019429Y-79392728D01*
X56019432Y-79392734D01*
X56149954Y-79579141D01*
X56310858Y-79740045D01*
X56310861Y-79740047D01*
X56497266Y-79870568D01*
X56703504Y-79966739D01*
X56923308Y-80025635D01*
X57085230Y-80039801D01*
X57149998Y-80045468D01*
X57150000Y-80045468D01*
X57150002Y-80045468D01*
X57206673Y-80040509D01*
X57376692Y-80025635D01*
X57596496Y-79966739D01*
X57802734Y-79870568D01*
X57989139Y-79740047D01*
X58150047Y-79579139D01*
X58280568Y-79392734D01*
X58307618Y-79334724D01*
X58353790Y-79282285D01*
X58420983Y-79263133D01*
X58487865Y-79283348D01*
X58532382Y-79334725D01*
X58559429Y-79392728D01*
X58559432Y-79392734D01*
X58689954Y-79579141D01*
X58850858Y-79740045D01*
X58850861Y-79740047D01*
X59037266Y-79870568D01*
X59243504Y-79966739D01*
X59463308Y-80025635D01*
X59625230Y-80039801D01*
X59689998Y-80045468D01*
X59690000Y-80045468D01*
X59690002Y-80045468D01*
X59746673Y-80040509D01*
X59916692Y-80025635D01*
X60136496Y-79966739D01*
X60342734Y-79870568D01*
X60529139Y-79740047D01*
X60690047Y-79579139D01*
X60820568Y-79392734D01*
X60847618Y-79334724D01*
X60893790Y-79282285D01*
X60960983Y-79263133D01*
X61027865Y-79283348D01*
X61072382Y-79334725D01*
X61099429Y-79392728D01*
X61099432Y-79392734D01*
X61229954Y-79579141D01*
X61390858Y-79740045D01*
X61390861Y-79740047D01*
X61577266Y-79870568D01*
X61783504Y-79966739D01*
X62003308Y-80025635D01*
X62165230Y-80039801D01*
X62229998Y-80045468D01*
X62230000Y-80045468D01*
X62230002Y-80045468D01*
X62286673Y-80040509D01*
X62456692Y-80025635D01*
X62676496Y-79966739D01*
X62698093Y-79956667D01*
X62767169Y-79946173D01*
X62830954Y-79974691D01*
X62869195Y-80033167D01*
X62874500Y-80069048D01*
X62874500Y-88589546D01*
X62854815Y-88656585D01*
X62838181Y-88677227D01*
X47287340Y-104228068D01*
X47226017Y-104261553D01*
X47156325Y-104256569D01*
X47100392Y-104214697D01*
X47075975Y-104149233D01*
X47075659Y-104140387D01*
X47075659Y-104139999D01*
X47069977Y-104075057D01*
X47055063Y-103904592D01*
X46993903Y-103676337D01*
X46894035Y-103462171D01*
X46758495Y-103268599D01*
X46758494Y-103268597D01*
X46591402Y-103101506D01*
X46591396Y-103101501D01*
X46405842Y-102971575D01*
X46362217Y-102916998D01*
X46355023Y-102847500D01*
X46386546Y-102785145D01*
X46405842Y-102768425D01*
X46428026Y-102752891D01*
X46591401Y-102638495D01*
X46758495Y-102471401D01*
X46894035Y-102277830D01*
X46993903Y-102063663D01*
X47055063Y-101835408D01*
X47075659Y-101600000D01*
X47055063Y-101364592D01*
X47028143Y-101264125D01*
X47029806Y-101194276D01*
X47060235Y-101144353D01*
X60907771Y-87296819D01*
X60969094Y-87263334D01*
X60995452Y-87260500D01*
X61054644Y-87260500D01*
X61054646Y-87260500D01*
X61239803Y-87221144D01*
X61412730Y-87144151D01*
X61565871Y-87032888D01*
X61692533Y-86892216D01*
X61787179Y-86728284D01*
X61845674Y-86548256D01*
X61865460Y-86360000D01*
X61845674Y-86171744D01*
X61787179Y-85991716D01*
X61692533Y-85827784D01*
X61565871Y-85687112D01*
X61565870Y-85687111D01*
X61412734Y-85575851D01*
X61412729Y-85575848D01*
X61239807Y-85498857D01*
X61239802Y-85498855D01*
X61094001Y-85467865D01*
X61054646Y-85459500D01*
X60865354Y-85459500D01*
X60832897Y-85466398D01*
X60680197Y-85498855D01*
X60680192Y-85498857D01*
X60507270Y-85575848D01*
X60507265Y-85575851D01*
X60354129Y-85687111D01*
X60227466Y-85827785D01*
X60132821Y-85991715D01*
X60132818Y-85991722D01*
X60074327Y-86171740D01*
X60074326Y-86171744D01*
X60066405Y-86247105D01*
X60056678Y-86339651D01*
X60030093Y-86404266D01*
X60021038Y-86414370D01*
X47286838Y-99148569D01*
X47225515Y-99182054D01*
X47155823Y-99177070D01*
X47099890Y-99135198D01*
X47075473Y-99069734D01*
X47075157Y-99060888D01*
X47075157Y-99059998D01*
X47054569Y-98824684D01*
X47054567Y-98824673D01*
X46993433Y-98596516D01*
X46993429Y-98596507D01*
X46893600Y-98382423D01*
X46893599Y-98382421D01*
X46834925Y-98298626D01*
X46834925Y-98298625D01*
X46203076Y-98930475D01*
X46179493Y-98850156D01*
X46101761Y-98729202D01*
X45993100Y-98635048D01*
X45862315Y-98575320D01*
X45852533Y-98573913D01*
X46481373Y-97945073D01*
X46481373Y-97945072D01*
X46405405Y-97891880D01*
X46361780Y-97837304D01*
X46354586Y-97767805D01*
X46386108Y-97705451D01*
X46405399Y-97688734D01*
X46591401Y-97558495D01*
X46758495Y-97391401D01*
X46894035Y-97197830D01*
X46993903Y-96983663D01*
X47055063Y-96755408D01*
X47075659Y-96520000D01*
X47055063Y-96284592D01*
X46993903Y-96056337D01*
X46894035Y-95842171D01*
X46758495Y-95648599D01*
X46758494Y-95648597D01*
X46591402Y-95481506D01*
X46591395Y-95481501D01*
X46397834Y-95345967D01*
X46397830Y-95345965D01*
X46366705Y-95331451D01*
X46183663Y-95246097D01*
X46183659Y-95246096D01*
X46183655Y-95246094D01*
X45955413Y-95184938D01*
X45955403Y-95184936D01*
X45720001Y-95164341D01*
X45719999Y-95164341D01*
X45484596Y-95184936D01*
X45484586Y-95184938D01*
X45256344Y-95246094D01*
X45256335Y-95246098D01*
X45042171Y-95345964D01*
X45042169Y-95345965D01*
X44848597Y-95481505D01*
X44681505Y-95648597D01*
X44545965Y-95842169D01*
X44545964Y-95842171D01*
X44446098Y-96056335D01*
X44446094Y-96056344D01*
X44384938Y-96284586D01*
X44384936Y-96284596D01*
X44364341Y-96519999D01*
X44364341Y-96520000D01*
X44384936Y-96755403D01*
X44384938Y-96755413D01*
X44446094Y-96983655D01*
X44446096Y-96983659D01*
X44446097Y-96983663D01*
X44545965Y-97197830D01*
X44545967Y-97197834D01*
X44654281Y-97352521D01*
X44681505Y-97391401D01*
X44848599Y-97558495D01*
X45034594Y-97688730D01*
X45078218Y-97743307D01*
X45085411Y-97812806D01*
X45053889Y-97875160D01*
X45034593Y-97891880D01*
X44958626Y-97945072D01*
X44958625Y-97945072D01*
X45587466Y-98573913D01*
X45577685Y-98575320D01*
X45446900Y-98635048D01*
X45338239Y-98729202D01*
X45260507Y-98850156D01*
X45236923Y-98930476D01*
X44605072Y-98298625D01*
X44546401Y-98382419D01*
X44446570Y-98596507D01*
X44446566Y-98596516D01*
X44385432Y-98824673D01*
X44385430Y-98824684D01*
X44364843Y-99059998D01*
X44364843Y-99060001D01*
X44385430Y-99295315D01*
X44385432Y-99295326D01*
X44446566Y-99523483D01*
X44446570Y-99523492D01*
X44546400Y-99737579D01*
X44546402Y-99737583D01*
X44605072Y-99821373D01*
X44605073Y-99821373D01*
X45236923Y-99189523D01*
X45260507Y-99269844D01*
X45338239Y-99390798D01*
X45446900Y-99484952D01*
X45577685Y-99544680D01*
X45587466Y-99546086D01*
X44958625Y-100174925D01*
X45034594Y-100228119D01*
X45078219Y-100282696D01*
X45085413Y-100352194D01*
X45053890Y-100414549D01*
X45034595Y-100431269D01*
X44848594Y-100561508D01*
X44681505Y-100728597D01*
X44545965Y-100922169D01*
X44545964Y-100922171D01*
X44446098Y-101136335D01*
X44446094Y-101136344D01*
X44384938Y-101364586D01*
X44384936Y-101364596D01*
X44364341Y-101599999D01*
X44364341Y-101600000D01*
X44384936Y-101835403D01*
X44384938Y-101835413D01*
X44446094Y-102063655D01*
X44446096Y-102063659D01*
X44446097Y-102063663D01*
X44545965Y-102277830D01*
X44545967Y-102277834D01*
X44681501Y-102471395D01*
X44681506Y-102471402D01*
X44848597Y-102638493D01*
X44848603Y-102638498D01*
X45034158Y-102768425D01*
X45077783Y-102823002D01*
X45084977Y-102892500D01*
X45053454Y-102954855D01*
X45034158Y-102971575D01*
X44848597Y-103101505D01*
X44681505Y-103268597D01*
X44545965Y-103462169D01*
X44545964Y-103462171D01*
X44446098Y-103676335D01*
X44446094Y-103676344D01*
X44384938Y-103904586D01*
X44384936Y-103904596D01*
X44364341Y-104139999D01*
X44364341Y-104140000D01*
X44384936Y-104375403D01*
X44384938Y-104375413D01*
X44446094Y-104603655D01*
X44446096Y-104603659D01*
X44446097Y-104603663D01*
X44545965Y-104817830D01*
X44545967Y-104817834D01*
X44681501Y-105011395D01*
X44681506Y-105011402D01*
X44848597Y-105178493D01*
X44848603Y-105178498D01*
X45034158Y-105308425D01*
X45077783Y-105363002D01*
X45084977Y-105432500D01*
X45053454Y-105494855D01*
X45034158Y-105511575D01*
X44848597Y-105641505D01*
X44681505Y-105808597D01*
X44545965Y-106002169D01*
X44545964Y-106002171D01*
X44446098Y-106216335D01*
X44446094Y-106216344D01*
X44384938Y-106444586D01*
X44384936Y-106444596D01*
X44364341Y-106679999D01*
X44364341Y-106680000D01*
X44384936Y-106915403D01*
X44384938Y-106915413D01*
X44446094Y-107143655D01*
X44446096Y-107143659D01*
X44446097Y-107143663D01*
X44545847Y-107357578D01*
X44545965Y-107357830D01*
X44545967Y-107357834D01*
X44604462Y-107441373D01*
X44681505Y-107551401D01*
X44848599Y-107718495D01*
X45033721Y-107848119D01*
X45034594Y-107848730D01*
X45078218Y-107903307D01*
X45085411Y-107972806D01*
X45053889Y-108035160D01*
X45034593Y-108051880D01*
X44958626Y-108105072D01*
X44958625Y-108105072D01*
X45587466Y-108733913D01*
X45577685Y-108735320D01*
X45446900Y-108795048D01*
X45338239Y-108889202D01*
X45260507Y-109010156D01*
X45236923Y-109090476D01*
X44605072Y-108458625D01*
X44546401Y-108542419D01*
X44446570Y-108756507D01*
X44446566Y-108756516D01*
X44385432Y-108984673D01*
X44385430Y-108984684D01*
X44364843Y-109219998D01*
X44364843Y-109220001D01*
X44385430Y-109455315D01*
X44385432Y-109455326D01*
X44446566Y-109683483D01*
X44446570Y-109683492D01*
X44546400Y-109897579D01*
X44546402Y-109897583D01*
X44605072Y-109981373D01*
X44605073Y-109981373D01*
X45236923Y-109349523D01*
X45260507Y-109429844D01*
X45338239Y-109550798D01*
X45446900Y-109644952D01*
X45577685Y-109704680D01*
X45587466Y-109706086D01*
X44958625Y-110334925D01*
X45034594Y-110388119D01*
X45078219Y-110442696D01*
X45085413Y-110512194D01*
X45053890Y-110574549D01*
X45034595Y-110591269D01*
X44848594Y-110721508D01*
X44681505Y-110888597D01*
X44545965Y-111082169D01*
X44545964Y-111082171D01*
X44446098Y-111296335D01*
X44446094Y-111296344D01*
X44384938Y-111524586D01*
X44384936Y-111524596D01*
X44364341Y-111759999D01*
X44364341Y-111760000D01*
X44384936Y-111995403D01*
X44384938Y-111995413D01*
X44446094Y-112223655D01*
X44446096Y-112223659D01*
X44446097Y-112223663D01*
X44545965Y-112437830D01*
X44545967Y-112437834D01*
X44681501Y-112631395D01*
X44681506Y-112631402D01*
X44848597Y-112798493D01*
X44848603Y-112798498D01*
X45034158Y-112928425D01*
X45077783Y-112983002D01*
X45084977Y-113052500D01*
X45053454Y-113114855D01*
X45034158Y-113131575D01*
X44848597Y-113261505D01*
X44681505Y-113428597D01*
X44545965Y-113622169D01*
X44545964Y-113622171D01*
X44446098Y-113836335D01*
X44446094Y-113836344D01*
X44384938Y-114064586D01*
X44384936Y-114064596D01*
X44364341Y-114299999D01*
X44364341Y-114300000D01*
X44384936Y-114535403D01*
X44384938Y-114535413D01*
X44446094Y-114763655D01*
X44446096Y-114763659D01*
X44446097Y-114763663D01*
X44545965Y-114977830D01*
X44545967Y-114977834D01*
X44681501Y-115171395D01*
X44681506Y-115171402D01*
X44848597Y-115338493D01*
X44848603Y-115338498D01*
X45034158Y-115468425D01*
X45077783Y-115523002D01*
X45084977Y-115592500D01*
X45053454Y-115654855D01*
X45034158Y-115671575D01*
X44848597Y-115801505D01*
X44681505Y-115968597D01*
X44545965Y-116162169D01*
X44545964Y-116162171D01*
X44446098Y-116376335D01*
X44446094Y-116376344D01*
X44384938Y-116604586D01*
X44384936Y-116604596D01*
X44364341Y-116839999D01*
X44364341Y-116840000D01*
X44384936Y-117075403D01*
X44384938Y-117075413D01*
X44446094Y-117303655D01*
X44446096Y-117303659D01*
X44446097Y-117303663D01*
X44545965Y-117517830D01*
X44545967Y-117517834D01*
X44681501Y-117711395D01*
X44681506Y-117711402D01*
X44848597Y-117878493D01*
X44848603Y-117878498D01*
X45034158Y-118008425D01*
X45077783Y-118063002D01*
X45084977Y-118132500D01*
X45053454Y-118194855D01*
X45034158Y-118211575D01*
X44848597Y-118341505D01*
X44681505Y-118508597D01*
X44545965Y-118702169D01*
X44545964Y-118702171D01*
X44446098Y-118916335D01*
X44446094Y-118916344D01*
X44384938Y-119144586D01*
X44384936Y-119144596D01*
X44364341Y-119379999D01*
X44364341Y-119380000D01*
X44384936Y-119615403D01*
X44384938Y-119615413D01*
X44446094Y-119843655D01*
X44446096Y-119843659D01*
X44446097Y-119843663D01*
X44545965Y-120057830D01*
X44545967Y-120057834D01*
X44654281Y-120212521D01*
X44681505Y-120251401D01*
X44848599Y-120418495D01*
X44945384Y-120486265D01*
X45042165Y-120554032D01*
X45042167Y-120554033D01*
X45042170Y-120554035D01*
X45256337Y-120653903D01*
X45484592Y-120715063D01*
X45672918Y-120731539D01*
X45719999Y-120735659D01*
X45720000Y-120735659D01*
X45720001Y-120735659D01*
X45759234Y-120732226D01*
X45955408Y-120715063D01*
X46183663Y-120653903D01*
X46397830Y-120554035D01*
X46591401Y-120418495D01*
X46758495Y-120251401D01*
X46894035Y-120057830D01*
X46993903Y-119843663D01*
X47055063Y-119615408D01*
X47075659Y-119380000D01*
X47055063Y-119144592D01*
X46993903Y-118916337D01*
X46894035Y-118702171D01*
X46758495Y-118508599D01*
X46758494Y-118508597D01*
X46591402Y-118341506D01*
X46591396Y-118341501D01*
X46405842Y-118211575D01*
X46362217Y-118156998D01*
X46355023Y-118087500D01*
X46386546Y-118025145D01*
X46405842Y-118008425D01*
X46428026Y-117992891D01*
X46591401Y-117878495D01*
X46758495Y-117711401D01*
X46894035Y-117517830D01*
X46993903Y-117303663D01*
X47055063Y-117075408D01*
X47075659Y-116840000D01*
X47055063Y-116604592D01*
X46993903Y-116376337D01*
X46894035Y-116162171D01*
X46758495Y-115968599D01*
X46758494Y-115968597D01*
X46591402Y-115801506D01*
X46591396Y-115801501D01*
X46405842Y-115671575D01*
X46362217Y-115616998D01*
X46355023Y-115547500D01*
X46386546Y-115485145D01*
X46405842Y-115468425D01*
X46428026Y-115452891D01*
X46591401Y-115338495D01*
X46758495Y-115171401D01*
X46894035Y-114977830D01*
X46993903Y-114763663D01*
X47055063Y-114535408D01*
X47075659Y-114300000D01*
X47055063Y-114064592D01*
X46993903Y-113836337D01*
X46894035Y-113622171D01*
X46758495Y-113428599D01*
X46758494Y-113428597D01*
X46591402Y-113261506D01*
X46591396Y-113261501D01*
X46405842Y-113131575D01*
X46362217Y-113076998D01*
X46355023Y-113007500D01*
X46386546Y-112945145D01*
X46405842Y-112928425D01*
X46428026Y-112912891D01*
X46591401Y-112798495D01*
X46758495Y-112631401D01*
X46894035Y-112437830D01*
X46993903Y-112223663D01*
X47055063Y-111995408D01*
X47075659Y-111760000D01*
X47055063Y-111524592D01*
X46993903Y-111296337D01*
X46894035Y-111082171D01*
X46758495Y-110888599D01*
X46758494Y-110888597D01*
X46591402Y-110721506D01*
X46591401Y-110721505D01*
X46405405Y-110591269D01*
X46361781Y-110536692D01*
X46354588Y-110467193D01*
X46386110Y-110404839D01*
X46405405Y-110388119D01*
X46481373Y-110334925D01*
X45852533Y-109706086D01*
X45862315Y-109704680D01*
X45993100Y-109644952D01*
X46101761Y-109550798D01*
X46179493Y-109429844D01*
X46203076Y-109349524D01*
X46834925Y-109981373D01*
X46834926Y-109981373D01*
X46893598Y-109897582D01*
X46893600Y-109897578D01*
X46993429Y-109683492D01*
X46993433Y-109683483D01*
X47054567Y-109455326D01*
X47054569Y-109455315D01*
X47075157Y-109220001D01*
X47075157Y-109219998D01*
X47054569Y-108984684D01*
X47054567Y-108984673D01*
X46993433Y-108756516D01*
X46993429Y-108756507D01*
X46893600Y-108542423D01*
X46893599Y-108542421D01*
X46834925Y-108458626D01*
X46834925Y-108458625D01*
X46203076Y-109090475D01*
X46179493Y-109010156D01*
X46101761Y-108889202D01*
X45993100Y-108795048D01*
X45862315Y-108735320D01*
X45852533Y-108733913D01*
X46481373Y-108105073D01*
X46481373Y-108105072D01*
X46405405Y-108051880D01*
X46361780Y-107997304D01*
X46354586Y-107927805D01*
X46386108Y-107865451D01*
X46405399Y-107848734D01*
X46591401Y-107718495D01*
X46758495Y-107551401D01*
X46894035Y-107357830D01*
X46993903Y-107143663D01*
X47055063Y-106915408D01*
X47075659Y-106680000D01*
X47055063Y-106444592D01*
X47028143Y-106344125D01*
X47029806Y-106274276D01*
X47060235Y-106224353D01*
X63883788Y-89400801D01*
X63896042Y-89390986D01*
X63895859Y-89390764D01*
X63901866Y-89385792D01*
X63901877Y-89385786D01*
X63932775Y-89352882D01*
X63949227Y-89335364D01*
X63959671Y-89324918D01*
X63970120Y-89314471D01*
X63974379Y-89308978D01*
X63978152Y-89304561D01*
X64010062Y-89270582D01*
X64019713Y-89253024D01*
X64030396Y-89236761D01*
X64042673Y-89220936D01*
X64061185Y-89178153D01*
X64063738Y-89172941D01*
X64086197Y-89132092D01*
X64091180Y-89112680D01*
X64097481Y-89094280D01*
X64105437Y-89075896D01*
X64112729Y-89029852D01*
X64113906Y-89024171D01*
X64125500Y-88979019D01*
X64125500Y-88958983D01*
X64127027Y-88939582D01*
X64130160Y-88919804D01*
X64125775Y-88873415D01*
X64125500Y-88867577D01*
X64125500Y-80069048D01*
X64145185Y-80002009D01*
X64197989Y-79956254D01*
X64267147Y-79946310D01*
X64301905Y-79956667D01*
X64323504Y-79966739D01*
X64543308Y-80025635D01*
X64705230Y-80039801D01*
X64769998Y-80045468D01*
X64770000Y-80045468D01*
X64770002Y-80045468D01*
X64826673Y-80040509D01*
X64996692Y-80025635D01*
X65216496Y-79966739D01*
X65422734Y-79870568D01*
X65609139Y-79740047D01*
X65770047Y-79579139D01*
X65900568Y-79392734D01*
X65927618Y-79334724D01*
X65973790Y-79282285D01*
X66040983Y-79263133D01*
X66107865Y-79283348D01*
X66152382Y-79334725D01*
X66179429Y-79392728D01*
X66179432Y-79392734D01*
X66309954Y-79579141D01*
X66470858Y-79740045D01*
X66470861Y-79740047D01*
X66657266Y-79870568D01*
X66863504Y-79966739D01*
X67083308Y-80025635D01*
X67245230Y-80039801D01*
X67309998Y-80045468D01*
X67310000Y-80045468D01*
X67310002Y-80045468D01*
X67366673Y-80040509D01*
X67536692Y-80025635D01*
X67756496Y-79966739D01*
X67962734Y-79870568D01*
X68149139Y-79740047D01*
X68310047Y-79579139D01*
X68440568Y-79392734D01*
X68467618Y-79334724D01*
X68513790Y-79282285D01*
X68580983Y-79263133D01*
X68647865Y-79283348D01*
X68692382Y-79334725D01*
X68719429Y-79392728D01*
X68719432Y-79392734D01*
X68849954Y-79579141D01*
X69010858Y-79740045D01*
X69010861Y-79740047D01*
X69197266Y-79870568D01*
X69403504Y-79966739D01*
X69623308Y-80025635D01*
X69785230Y-80039801D01*
X69849998Y-80045468D01*
X69850000Y-80045468D01*
X69850002Y-80045468D01*
X69906673Y-80040509D01*
X70076692Y-80025635D01*
X70296496Y-79966739D01*
X70502734Y-79870568D01*
X70689139Y-79740047D01*
X70850047Y-79579139D01*
X70980568Y-79392734D01*
X71007895Y-79334129D01*
X71054064Y-79281695D01*
X71121257Y-79262542D01*
X71188139Y-79282757D01*
X71232657Y-79334133D01*
X71259865Y-79392482D01*
X71390342Y-79578820D01*
X71551179Y-79739657D01*
X71737517Y-79870134D01*
X71943673Y-79966265D01*
X71943682Y-79966269D01*
X72139999Y-80018872D01*
X72140000Y-80018871D01*
X72140000Y-79175501D01*
X72247685Y-79224680D01*
X72354237Y-79240000D01*
X72425763Y-79240000D01*
X72532315Y-79224680D01*
X72640000Y-79175501D01*
X72640000Y-80018872D01*
X72836317Y-79966269D01*
X72836326Y-79966265D01*
X73042482Y-79870134D01*
X73228820Y-79739657D01*
X73389657Y-79578820D01*
X73520132Y-79392484D01*
X73547341Y-79334134D01*
X73593513Y-79281695D01*
X73660707Y-79262542D01*
X73727588Y-79282757D01*
X73772106Y-79334133D01*
X73799431Y-79392732D01*
X73799432Y-79392734D01*
X73929954Y-79579141D01*
X74090858Y-79740045D01*
X74090861Y-79740047D01*
X74277266Y-79870568D01*
X74483504Y-79966739D01*
X74703308Y-80025635D01*
X74865230Y-80039801D01*
X74929998Y-80045468D01*
X74930000Y-80045468D01*
X74930002Y-80045468D01*
X74986673Y-80040509D01*
X75156692Y-80025635D01*
X75376496Y-79966739D01*
X75582734Y-79870568D01*
X75769139Y-79740047D01*
X75930047Y-79579139D01*
X76060568Y-79392734D01*
X76156739Y-79186496D01*
X76215635Y-78966692D01*
X76235468Y-78740000D01*
X76215635Y-78513308D01*
X76156739Y-78293504D01*
X76060568Y-78087266D01*
X75930047Y-77900861D01*
X75930045Y-77900858D01*
X75769141Y-77739954D01*
X75582734Y-77609432D01*
X75582732Y-77609431D01*
X75376497Y-77513261D01*
X75376488Y-77513258D01*
X75156697Y-77454366D01*
X75156693Y-77454365D01*
X75156692Y-77454365D01*
X75156691Y-77454364D01*
X75156686Y-77454364D01*
X74930002Y-77434532D01*
X74929998Y-77434532D01*
X74703313Y-77454364D01*
X74703302Y-77454366D01*
X74483511Y-77513258D01*
X74483502Y-77513261D01*
X74277267Y-77609431D01*
X74277265Y-77609432D01*
X74090858Y-77739954D01*
X73929954Y-77900858D01*
X73799433Y-78087264D01*
X73799432Y-78087266D01*
X73799315Y-78087518D01*
X73772106Y-78145867D01*
X73725933Y-78198306D01*
X73658739Y-78217457D01*
X73591858Y-78197241D01*
X73547342Y-78145865D01*
X73520135Y-78087520D01*
X73520134Y-78087518D01*
X73389657Y-77901179D01*
X73228820Y-77740342D01*
X73042482Y-77609865D01*
X72836328Y-77513734D01*
X72640000Y-77461127D01*
X72640000Y-78304498D01*
X72532315Y-78255320D01*
X72425763Y-78240000D01*
X72354237Y-78240000D01*
X72247685Y-78255320D01*
X72140000Y-78304498D01*
X72140000Y-77461127D01*
X71943671Y-77513734D01*
X71737517Y-77609865D01*
X71551179Y-77740342D01*
X71390342Y-77901179D01*
X71259867Y-78087515D01*
X71232657Y-78145867D01*
X71186484Y-78198306D01*
X71119290Y-78217457D01*
X71052409Y-78197241D01*
X71007893Y-78145865D01*
X70980685Y-78087518D01*
X70980568Y-78087266D01*
X70850047Y-77900861D01*
X70850045Y-77900858D01*
X70689141Y-77739954D01*
X70502734Y-77609432D01*
X70502732Y-77609431D01*
X70296497Y-77513261D01*
X70296488Y-77513258D01*
X70076697Y-77454366D01*
X70076693Y-77454365D01*
X70076692Y-77454365D01*
X70076691Y-77454364D01*
X70076686Y-77454364D01*
X69850002Y-77434532D01*
X69849998Y-77434532D01*
X69623313Y-77454364D01*
X69623302Y-77454366D01*
X69403511Y-77513258D01*
X69403502Y-77513261D01*
X69197267Y-77609431D01*
X69197265Y-77609432D01*
X69010858Y-77739954D01*
X68849954Y-77900858D01*
X68719432Y-78087265D01*
X68719431Y-78087267D01*
X68692382Y-78145275D01*
X68646209Y-78197714D01*
X68579016Y-78216866D01*
X68512135Y-78196650D01*
X68467618Y-78145275D01*
X68440686Y-78087520D01*
X68440568Y-78087266D01*
X68310047Y-77900861D01*
X68310045Y-77900858D01*
X68149141Y-77739954D01*
X67962734Y-77609432D01*
X67962732Y-77609431D01*
X67756497Y-77513261D01*
X67756488Y-77513258D01*
X67536697Y-77454366D01*
X67536693Y-77454365D01*
X67536692Y-77454365D01*
X67536691Y-77454364D01*
X67536686Y-77454364D01*
X67310002Y-77434532D01*
X67309998Y-77434532D01*
X67083313Y-77454364D01*
X67083302Y-77454366D01*
X66863511Y-77513258D01*
X66863502Y-77513261D01*
X66657267Y-77609431D01*
X66657265Y-77609432D01*
X66470858Y-77739954D01*
X66309954Y-77900858D01*
X66179432Y-78087265D01*
X66179431Y-78087267D01*
X66152382Y-78145275D01*
X66106209Y-78197714D01*
X66039016Y-78216866D01*
X65972135Y-78196650D01*
X65927618Y-78145275D01*
X65900686Y-78087520D01*
X65900568Y-78087266D01*
X65770047Y-77900861D01*
X65770045Y-77900858D01*
X65609141Y-77739954D01*
X65422734Y-77609432D01*
X65422732Y-77609431D01*
X65216497Y-77513261D01*
X65216488Y-77513258D01*
X64996697Y-77454366D01*
X64996693Y-77454365D01*
X64996692Y-77454365D01*
X64996691Y-77454364D01*
X64996686Y-77454364D01*
X64770002Y-77434532D01*
X64769998Y-77434532D01*
X64543313Y-77454364D01*
X64543302Y-77454366D01*
X64323511Y-77513258D01*
X64323501Y-77513262D01*
X64301901Y-77523334D01*
X64232824Y-77533824D01*
X64169040Y-77505302D01*
X64130803Y-77446824D01*
X64125500Y-77410950D01*
X64125500Y-67392742D01*
X64127224Y-67377122D01*
X64126939Y-67377095D01*
X64127673Y-67369333D01*
X64125500Y-67300172D01*
X64125500Y-67270656D01*
X64125500Y-67270650D01*
X64124631Y-67263779D01*
X64124173Y-67257952D01*
X64122710Y-67211373D01*
X64117119Y-67192130D01*
X64113173Y-67173078D01*
X64110664Y-67153208D01*
X64093504Y-67109867D01*
X64091624Y-67104379D01*
X64078618Y-67059610D01*
X64068422Y-67042370D01*
X64059861Y-67024894D01*
X64052487Y-67006270D01*
X64052486Y-67006268D01*
X64025079Y-66968545D01*
X64021888Y-66963686D01*
X63998172Y-66923583D01*
X63998165Y-66923574D01*
X63984006Y-66909415D01*
X63971368Y-66894619D01*
X63959594Y-66878413D01*
X63923688Y-66848709D01*
X63919376Y-66844786D01*
X62087409Y-65012818D01*
X62053924Y-64951495D01*
X62058908Y-64881803D01*
X62100780Y-64825870D01*
X62166244Y-64801453D01*
X62185890Y-64801608D01*
X62230000Y-64805468D01*
X62230000Y-64805467D01*
X62230001Y-64805468D01*
X62230002Y-64805468D01*
X62299220Y-64799412D01*
X62456692Y-64785635D01*
X62676496Y-64726739D01*
X62882734Y-64630568D01*
X63069139Y-64500047D01*
X63230047Y-64339139D01*
X63360568Y-64152734D01*
X63387618Y-64094724D01*
X63433790Y-64042285D01*
X63500983Y-64023133D01*
X63567865Y-64043348D01*
X63612382Y-64094725D01*
X63639429Y-64152728D01*
X63639432Y-64152734D01*
X63769954Y-64339141D01*
X63930858Y-64500045D01*
X63930861Y-64500047D01*
X64117266Y-64630568D01*
X64323504Y-64726739D01*
X64543308Y-64785635D01*
X64700780Y-64799412D01*
X64769998Y-64805468D01*
X64770000Y-64805468D01*
X64770002Y-64805468D01*
X64839220Y-64799412D01*
X64996692Y-64785635D01*
X65216496Y-64726739D01*
X65422734Y-64630568D01*
X65609139Y-64500047D01*
X65770047Y-64339139D01*
X65900568Y-64152734D01*
X65927895Y-64094129D01*
X65974064Y-64041695D01*
X66041257Y-64022542D01*
X66108139Y-64042757D01*
X66152657Y-64094133D01*
X66179865Y-64152482D01*
X66310342Y-64338820D01*
X66471179Y-64499657D01*
X66657517Y-64630134D01*
X66863673Y-64726265D01*
X66863682Y-64726269D01*
X67059999Y-64778872D01*
X67060000Y-64778871D01*
X67060000Y-63935501D01*
X67167685Y-63984680D01*
X67274237Y-64000000D01*
X67345763Y-64000000D01*
X67452315Y-63984680D01*
X67560000Y-63935501D01*
X67560000Y-64778872D01*
X67756317Y-64726269D01*
X67756326Y-64726265D01*
X67962482Y-64630134D01*
X68148820Y-64499657D01*
X68309657Y-64338820D01*
X68440132Y-64152484D01*
X68467341Y-64094134D01*
X68513513Y-64041695D01*
X68580707Y-64022542D01*
X68647588Y-64042757D01*
X68692106Y-64094133D01*
X68719431Y-64152732D01*
X68719432Y-64152734D01*
X68849954Y-64339141D01*
X69010858Y-64500045D01*
X69010861Y-64500047D01*
X69197266Y-64630568D01*
X69403504Y-64726739D01*
X69623308Y-64785635D01*
X69780780Y-64799412D01*
X69849998Y-64805468D01*
X69850000Y-64805468D01*
X69850002Y-64805468D01*
X69919220Y-64799412D01*
X70076692Y-64785635D01*
X70296496Y-64726739D01*
X70502734Y-64630568D01*
X70689139Y-64500047D01*
X70850047Y-64339139D01*
X70980568Y-64152734D01*
X71007618Y-64094724D01*
X71053790Y-64042285D01*
X71120983Y-64023133D01*
X71187865Y-64043348D01*
X71232382Y-64094725D01*
X71259429Y-64152728D01*
X71259432Y-64152734D01*
X71389954Y-64339141D01*
X71550858Y-64500045D01*
X71550861Y-64500047D01*
X71737266Y-64630568D01*
X71943504Y-64726739D01*
X72163308Y-64785635D01*
X72320780Y-64799412D01*
X72389998Y-64805468D01*
X72390000Y-64805468D01*
X72390002Y-64805468D01*
X72459220Y-64799412D01*
X72616692Y-64785635D01*
X72836496Y-64726739D01*
X73042734Y-64630568D01*
X73229139Y-64500047D01*
X73390047Y-64339139D01*
X73407272Y-64314539D01*
X73461848Y-64270913D01*
X73531346Y-64263718D01*
X73593701Y-64295239D01*
X73629116Y-64355468D01*
X73632138Y-64372406D01*
X73635908Y-64407483D01*
X73686202Y-64542328D01*
X73686206Y-64542335D01*
X73772452Y-64657544D01*
X73772455Y-64657547D01*
X73887664Y-64743793D01*
X73887671Y-64743797D01*
X74022517Y-64794091D01*
X74022516Y-64794091D01*
X74029444Y-64794835D01*
X74082127Y-64800500D01*
X75777872Y-64800499D01*
X75837483Y-64794091D01*
X75972331Y-64743796D01*
X76087546Y-64657546D01*
X76173796Y-64542331D01*
X76224091Y-64407483D01*
X76230500Y-64347873D01*
X76230499Y-62652128D01*
X76224091Y-62592517D01*
X76189567Y-62499954D01*
X76173797Y-62457671D01*
X76173793Y-62457664D01*
X76087547Y-62342455D01*
X76087544Y-62342452D01*
X75972335Y-62256206D01*
X75972328Y-62256202D01*
X75837482Y-62205908D01*
X75837483Y-62205908D01*
X75777883Y-62199501D01*
X75777881Y-62199500D01*
X75777873Y-62199500D01*
X75777864Y-62199500D01*
X74082129Y-62199500D01*
X74082123Y-62199501D01*
X74022516Y-62205908D01*
X73887671Y-62256202D01*
X73887664Y-62256206D01*
X73772455Y-62342452D01*
X73772452Y-62342455D01*
X73686206Y-62457664D01*
X73686202Y-62457671D01*
X73635908Y-62592516D01*
X73632137Y-62627596D01*
X73605398Y-62692146D01*
X73548006Y-62731994D01*
X73478180Y-62734487D01*
X73418092Y-62698834D01*
X73407273Y-62685462D01*
X73390045Y-62660858D01*
X73229141Y-62499954D01*
X73042734Y-62369432D01*
X73042732Y-62369431D01*
X72836497Y-62273261D01*
X72836488Y-62273258D01*
X72616697Y-62214366D01*
X72616693Y-62214365D01*
X72616692Y-62214365D01*
X72616691Y-62214364D01*
X72616686Y-62214364D01*
X72390002Y-62194532D01*
X72389998Y-62194532D01*
X72163313Y-62214364D01*
X72163302Y-62214366D01*
X71943511Y-62273258D01*
X71943502Y-62273261D01*
X71737267Y-62369431D01*
X71737265Y-62369432D01*
X71550858Y-62499954D01*
X71389954Y-62660858D01*
X71259432Y-62847265D01*
X71259431Y-62847267D01*
X71232382Y-62905275D01*
X71186209Y-62957714D01*
X71119016Y-62976866D01*
X71052135Y-62956650D01*
X71007618Y-62905275D01*
X70980686Y-62847520D01*
X70980568Y-62847266D01*
X70850047Y-62660861D01*
X70850045Y-62660858D01*
X70689141Y-62499954D01*
X70502734Y-62369432D01*
X70502732Y-62369431D01*
X70296497Y-62273261D01*
X70296488Y-62273258D01*
X70076697Y-62214366D01*
X70076693Y-62214365D01*
X70076692Y-62214365D01*
X70076691Y-62214364D01*
X70076686Y-62214364D01*
X69850002Y-62194532D01*
X69849998Y-62194532D01*
X69623313Y-62214364D01*
X69623302Y-62214366D01*
X69403511Y-62273258D01*
X69403502Y-62273261D01*
X69197267Y-62369431D01*
X69197265Y-62369432D01*
X69010858Y-62499954D01*
X68849954Y-62660858D01*
X68719433Y-62847264D01*
X68719432Y-62847266D01*
X68719315Y-62847518D01*
X68692106Y-62905867D01*
X68645933Y-62958306D01*
X68578739Y-62977457D01*
X68511858Y-62957241D01*
X68467342Y-62905865D01*
X68440135Y-62847520D01*
X68440134Y-62847518D01*
X68309657Y-62661179D01*
X68148820Y-62500342D01*
X67962482Y-62369865D01*
X67756328Y-62273734D01*
X67560000Y-62221127D01*
X67560000Y-63064498D01*
X67452315Y-63015320D01*
X67345763Y-63000000D01*
X67274237Y-63000000D01*
X67167685Y-63015320D01*
X67060000Y-63064498D01*
X67060000Y-62221127D01*
X66863671Y-62273734D01*
X66657517Y-62369865D01*
X66471179Y-62500342D01*
X66310342Y-62661179D01*
X66179867Y-62847515D01*
X66152657Y-62905867D01*
X66106484Y-62958306D01*
X66039290Y-62977457D01*
X65972409Y-62957241D01*
X65927893Y-62905865D01*
X65900685Y-62847518D01*
X65900568Y-62847266D01*
X65770047Y-62660861D01*
X65770045Y-62660858D01*
X65609141Y-62499954D01*
X65422734Y-62369432D01*
X65422732Y-62369431D01*
X65216497Y-62273261D01*
X65216488Y-62273258D01*
X64996697Y-62214366D01*
X64996693Y-62214365D01*
X64996692Y-62214365D01*
X64996691Y-62214364D01*
X64996686Y-62214364D01*
X64770002Y-62194532D01*
X64769998Y-62194532D01*
X64543313Y-62214364D01*
X64543302Y-62214366D01*
X64323511Y-62273258D01*
X64323502Y-62273261D01*
X64117267Y-62369431D01*
X64117265Y-62369432D01*
X63930858Y-62499954D01*
X63769954Y-62660858D01*
X63639432Y-62847265D01*
X63639431Y-62847267D01*
X63612382Y-62905275D01*
X63566209Y-62957714D01*
X63499016Y-62976866D01*
X63432135Y-62956650D01*
X63387618Y-62905275D01*
X63360686Y-62847520D01*
X63360568Y-62847266D01*
X63230047Y-62660861D01*
X63230045Y-62660858D01*
X63069141Y-62499954D01*
X62882734Y-62369432D01*
X62882732Y-62369431D01*
X62676497Y-62273261D01*
X62676488Y-62273258D01*
X62456697Y-62214366D01*
X62456693Y-62214365D01*
X62456692Y-62214365D01*
X62456691Y-62214364D01*
X62456686Y-62214364D01*
X62230002Y-62194532D01*
X62229998Y-62194532D01*
X62003313Y-62214364D01*
X62003302Y-62214366D01*
X61783511Y-62273258D01*
X61783502Y-62273261D01*
X61577267Y-62369431D01*
X61577265Y-62369432D01*
X61390858Y-62499954D01*
X61229954Y-62660858D01*
X61099432Y-62847265D01*
X61099431Y-62847267D01*
X61072382Y-62905275D01*
X61026209Y-62957714D01*
X60959016Y-62976866D01*
X60892135Y-62956650D01*
X60847618Y-62905275D01*
X60820686Y-62847520D01*
X60820568Y-62847266D01*
X60690047Y-62660861D01*
X60690045Y-62660858D01*
X60529141Y-62499954D01*
X60342734Y-62369432D01*
X60342732Y-62369431D01*
X60136497Y-62273261D01*
X60136488Y-62273258D01*
X59916697Y-62214366D01*
X59916693Y-62214365D01*
X59916692Y-62214365D01*
X59916691Y-62214364D01*
X59916686Y-62214364D01*
X59690002Y-62194532D01*
X59689998Y-62194532D01*
X59463313Y-62214364D01*
X59463302Y-62214366D01*
X59243511Y-62273258D01*
X59243502Y-62273261D01*
X59037267Y-62369431D01*
X59037265Y-62369432D01*
X58850858Y-62499954D01*
X58689954Y-62660858D01*
X58559432Y-62847265D01*
X58559431Y-62847267D01*
X58532382Y-62905275D01*
X58486209Y-62957714D01*
X58419016Y-62976866D01*
X58352135Y-62956650D01*
X58307618Y-62905275D01*
X58280686Y-62847520D01*
X58280568Y-62847266D01*
X58150047Y-62660861D01*
X58150045Y-62660858D01*
X57989141Y-62499954D01*
X57802734Y-62369432D01*
X57802732Y-62369431D01*
X57596497Y-62273261D01*
X57596488Y-62273258D01*
X57376697Y-62214366D01*
X57376693Y-62214365D01*
X57376692Y-62214365D01*
X57376691Y-62214364D01*
X57376686Y-62214364D01*
X57150002Y-62194532D01*
X57149998Y-62194532D01*
X56923313Y-62214364D01*
X56923302Y-62214366D01*
X56703511Y-62273258D01*
X56703502Y-62273261D01*
X56497267Y-62369431D01*
X56497265Y-62369432D01*
X56310858Y-62499954D01*
X56149954Y-62660858D01*
X56019432Y-62847265D01*
X56019431Y-62847267D01*
X55992382Y-62905275D01*
X55946209Y-62957714D01*
X55879016Y-62976866D01*
X55812135Y-62956650D01*
X55767618Y-62905275D01*
X55740686Y-62847520D01*
X55740568Y-62847266D01*
X55610047Y-62660861D01*
X55610045Y-62660858D01*
X55449141Y-62499954D01*
X55262734Y-62369432D01*
X55262732Y-62369431D01*
X55056497Y-62273261D01*
X55056488Y-62273258D01*
X54836697Y-62214366D01*
X54836693Y-62214365D01*
X54836692Y-62214365D01*
X54836691Y-62214364D01*
X54836686Y-62214364D01*
X54610002Y-62194532D01*
X54609998Y-62194532D01*
X54383313Y-62214364D01*
X54383302Y-62214366D01*
X54163511Y-62273258D01*
X54163501Y-62273262D01*
X54141901Y-62283334D01*
X54072824Y-62293824D01*
X54009040Y-62265302D01*
X53970803Y-62206824D01*
X53965500Y-62170950D01*
X53965500Y-57150000D01*
X54274551Y-57150000D01*
X54294317Y-57401151D01*
X54353126Y-57646110D01*
X54449533Y-57878859D01*
X54581160Y-58093653D01*
X54581161Y-58093656D01*
X54636604Y-58158571D01*
X54744776Y-58285224D01*
X54893066Y-58411875D01*
X54936343Y-58448838D01*
X54936346Y-58448839D01*
X55151140Y-58580466D01*
X55383889Y-58676873D01*
X55628852Y-58735683D01*
X55880000Y-58755449D01*
X56131148Y-58735683D01*
X56376111Y-58676873D01*
X56608859Y-58580466D01*
X56823659Y-58448836D01*
X57000417Y-58297870D01*
X64439500Y-58297870D01*
X64439501Y-58297876D01*
X64445908Y-58357483D01*
X64496202Y-58492328D01*
X64496206Y-58492335D01*
X64582452Y-58607544D01*
X64582455Y-58607547D01*
X64697664Y-58693793D01*
X64697671Y-58693797D01*
X64832517Y-58744091D01*
X64832516Y-58744091D01*
X64839444Y-58744835D01*
X64892127Y-58750500D01*
X67187872Y-58750499D01*
X67247483Y-58744091D01*
X67382331Y-58693796D01*
X67497546Y-58607546D01*
X67583796Y-58492331D01*
X67634091Y-58357483D01*
X67640500Y-58297873D01*
X67640499Y-56002128D01*
X67634091Y-55942517D01*
X67615408Y-55892426D01*
X67583797Y-55807671D01*
X67583793Y-55807664D01*
X67497547Y-55692455D01*
X67497544Y-55692452D01*
X67382335Y-55606206D01*
X67382328Y-55606202D01*
X67247482Y-55555908D01*
X67247483Y-55555908D01*
X67187883Y-55549501D01*
X67187881Y-55549500D01*
X67187873Y-55549500D01*
X67187864Y-55549500D01*
X64892129Y-55549500D01*
X64892123Y-55549501D01*
X64832516Y-55555908D01*
X64697671Y-55606202D01*
X64697664Y-55606206D01*
X64582455Y-55692452D01*
X64582452Y-55692455D01*
X64496206Y-55807664D01*
X64496202Y-55807671D01*
X64445908Y-55942517D01*
X64439501Y-56002116D01*
X64439501Y-56002123D01*
X64439500Y-56002135D01*
X64439500Y-58297870D01*
X57000417Y-58297870D01*
X57015224Y-58285224D01*
X57178836Y-58093659D01*
X57310466Y-57878859D01*
X57406873Y-57646111D01*
X57465683Y-57401148D01*
X57485449Y-57150000D01*
X57465683Y-56898852D01*
X57406873Y-56653889D01*
X57345341Y-56505337D01*
X57310466Y-56421140D01*
X57178839Y-56206346D01*
X57178838Y-56206343D01*
X57097838Y-56111505D01*
X57015224Y-56014776D01*
X56865187Y-55886632D01*
X56823656Y-55851161D01*
X56823653Y-55851160D01*
X56608859Y-55719533D01*
X56376110Y-55623126D01*
X56131151Y-55564317D01*
X55880000Y-55544551D01*
X55628848Y-55564317D01*
X55383889Y-55623126D01*
X55151140Y-55719533D01*
X54936346Y-55851160D01*
X54936343Y-55851161D01*
X54744776Y-56014776D01*
X54581161Y-56206343D01*
X54581160Y-56206346D01*
X54449533Y-56421140D01*
X54353126Y-56653889D01*
X54294317Y-56898848D01*
X54274551Y-57150000D01*
X53965500Y-57150000D01*
X53965500Y-37690451D01*
X53985185Y-37623412D01*
X54001814Y-37602774D01*
X55014353Y-36590235D01*
X55075674Y-36556752D01*
X55134125Y-36558143D01*
X55168780Y-36567428D01*
X55234592Y-36585063D01*
X55411034Y-36600500D01*
X55469999Y-36605659D01*
X55470000Y-36605659D01*
X55470001Y-36605659D01*
X55528966Y-36600500D01*
X55705408Y-36585063D01*
X55933663Y-36523903D01*
X56147830Y-36424035D01*
X56341401Y-36288495D01*
X56508495Y-36121401D01*
X56638730Y-35935405D01*
X56693307Y-35891781D01*
X56762805Y-35884587D01*
X56825160Y-35916110D01*
X56841879Y-35935405D01*
X56971890Y-36121078D01*
X57138917Y-36288105D01*
X57332421Y-36423600D01*
X57546507Y-36523429D01*
X57546516Y-36523433D01*
X57760000Y-36580634D01*
X57760000Y-35685501D01*
X57867685Y-35734680D01*
X57974237Y-35750000D01*
X58045763Y-35750000D01*
X58152315Y-35734680D01*
X58260000Y-35685501D01*
X58260000Y-36580633D01*
X58473483Y-36523433D01*
X58473492Y-36523429D01*
X58687578Y-36423600D01*
X58881078Y-36288108D01*
X59003133Y-36166053D01*
X59064456Y-36132568D01*
X59134148Y-36137552D01*
X59190082Y-36179423D01*
X59206997Y-36210401D01*
X59256202Y-36342328D01*
X59256206Y-36342335D01*
X59342452Y-36457544D01*
X59342455Y-36457547D01*
X59457664Y-36543793D01*
X59457671Y-36543797D01*
X59592517Y-36594091D01*
X59592516Y-36594091D01*
X59599444Y-36594835D01*
X59652127Y-36600500D01*
X61447872Y-36600499D01*
X61507483Y-36594091D01*
X61642331Y-36543796D01*
X61757546Y-36457546D01*
X61843796Y-36342331D01*
X61894091Y-36207483D01*
X61900500Y-36147873D01*
X61900500Y-35250002D01*
X71754726Y-35250002D01*
X71773808Y-35601954D01*
X71830833Y-35949793D01*
X71830834Y-35949796D01*
X71925126Y-36289408D01*
X71925127Y-36289410D01*
X72055588Y-36616844D01*
X72055593Y-36616854D01*
X72220695Y-36928269D01*
X72415236Y-37215196D01*
X72418498Y-37220006D01*
X72418505Y-37220016D01*
X72579448Y-37409492D01*
X72646686Y-37488650D01*
X72902580Y-37731046D01*
X73183182Y-37944354D01*
X73485202Y-38126074D01*
X73485206Y-38126075D01*
X73485210Y-38126078D01*
X73805088Y-38274070D01*
X73805092Y-38274070D01*
X73805099Y-38274074D01*
X74139122Y-38386619D01*
X74483355Y-38462391D01*
X74833763Y-38500500D01*
X74833769Y-38500500D01*
X75186231Y-38500500D01*
X75186237Y-38500500D01*
X75536645Y-38462391D01*
X75880878Y-38386619D01*
X76214901Y-38274074D01*
X76214908Y-38274070D01*
X76214911Y-38274070D01*
X76534789Y-38126078D01*
X76534798Y-38126074D01*
X76836818Y-37944354D01*
X77117420Y-37731046D01*
X77373314Y-37488650D01*
X77601501Y-37220008D01*
X77799305Y-36928269D01*
X77964407Y-36616854D01*
X78094871Y-36289414D01*
X78095126Y-36288498D01*
X78141609Y-36121078D01*
X78189168Y-35949788D01*
X78246191Y-35601957D01*
X78265274Y-35250000D01*
X78246191Y-34898043D01*
X78189168Y-34550212D01*
X78139118Y-34369949D01*
X78094873Y-34210591D01*
X78094872Y-34210589D01*
X77964411Y-33883155D01*
X77964402Y-33883137D01*
X77799304Y-33571730D01*
X77601501Y-33279992D01*
X77601497Y-33279987D01*
X77601494Y-33279983D01*
X77373314Y-33011350D01*
X77117420Y-32768954D01*
X77117413Y-32768948D01*
X77117410Y-32768946D01*
X76836815Y-32555644D01*
X76534802Y-32373928D01*
X76534789Y-32373921D01*
X76214911Y-32225929D01*
X76214906Y-32225928D01*
X76214903Y-32225927D01*
X76214901Y-32225926D01*
X76108432Y-32190052D01*
X75880880Y-32113381D01*
X75536643Y-32037608D01*
X75186238Y-31999500D01*
X75186237Y-31999500D01*
X74833763Y-31999500D01*
X74833761Y-31999500D01*
X74483356Y-32037608D01*
X74139119Y-32113381D01*
X73805093Y-32225928D01*
X73805088Y-32225929D01*
X73485210Y-32373921D01*
X73485197Y-32373928D01*
X73183184Y-32555644D01*
X72902589Y-32768946D01*
X72902580Y-32768954D01*
X72646685Y-33011350D01*
X72418505Y-33279983D01*
X72418498Y-33279993D01*
X72220695Y-33571730D01*
X72055597Y-33883137D01*
X72055588Y-33883155D01*
X71925127Y-34210589D01*
X71925126Y-34210591D01*
X71830834Y-34550203D01*
X71830833Y-34550206D01*
X71773808Y-34898045D01*
X71754726Y-35249997D01*
X71754726Y-35250002D01*
X61900500Y-35250002D01*
X61900499Y-34352128D01*
X61894091Y-34292517D01*
X61893002Y-34289598D01*
X61843797Y-34157671D01*
X61843793Y-34157664D01*
X61757547Y-34042455D01*
X61757544Y-34042452D01*
X61642335Y-33956206D01*
X61642328Y-33956202D01*
X61507482Y-33905908D01*
X61507483Y-33905908D01*
X61447883Y-33899501D01*
X61447881Y-33899500D01*
X61447873Y-33899500D01*
X61447864Y-33899500D01*
X59652129Y-33899500D01*
X59652123Y-33899501D01*
X59592516Y-33905908D01*
X59457671Y-33956202D01*
X59457664Y-33956206D01*
X59342455Y-34042452D01*
X59342452Y-34042455D01*
X59256206Y-34157664D01*
X59256202Y-34157671D01*
X59206997Y-34289598D01*
X59165126Y-34345532D01*
X59099661Y-34369949D01*
X59031388Y-34355097D01*
X59003134Y-34333946D01*
X58881082Y-34211894D01*
X58687578Y-34076399D01*
X58473492Y-33976570D01*
X58473486Y-33976567D01*
X58260000Y-33919364D01*
X58260000Y-34814498D01*
X58152315Y-34765320D01*
X58045763Y-34750000D01*
X57974237Y-34750000D01*
X57867685Y-34765320D01*
X57760000Y-34814498D01*
X57760000Y-33919364D01*
X57759999Y-33919364D01*
X57546513Y-33976567D01*
X57546507Y-33976570D01*
X57332422Y-34076399D01*
X57332420Y-34076400D01*
X57138926Y-34211886D01*
X57138920Y-34211891D01*
X56971891Y-34378920D01*
X56971890Y-34378922D01*
X56841880Y-34564595D01*
X56787303Y-34608219D01*
X56717804Y-34615412D01*
X56655450Y-34583890D01*
X56638730Y-34564594D01*
X56508494Y-34378597D01*
X56341402Y-34211506D01*
X56341395Y-34211501D01*
X56340095Y-34210591D01*
X56264518Y-34157671D01*
X56147834Y-34075967D01*
X56147830Y-34075965D01*
X56147828Y-34075964D01*
X55933663Y-33976097D01*
X55933659Y-33976096D01*
X55933655Y-33976094D01*
X55705413Y-33914938D01*
X55705403Y-33914936D01*
X55470001Y-33894341D01*
X55469999Y-33894341D01*
X55234596Y-33914936D01*
X55234586Y-33914938D01*
X55006344Y-33976094D01*
X55006335Y-33976098D01*
X54792171Y-34075964D01*
X54792169Y-34075965D01*
X54598597Y-34211505D01*
X54431505Y-34378597D01*
X54301575Y-34564158D01*
X54246998Y-34607783D01*
X54177500Y-34614977D01*
X54115145Y-34583454D01*
X54098425Y-34564158D01*
X53968494Y-34378597D01*
X53801402Y-34211506D01*
X53801395Y-34211501D01*
X53800095Y-34210591D01*
X53724518Y-34157671D01*
X53607834Y-34075967D01*
X53607830Y-34075965D01*
X53607828Y-34075964D01*
X53393663Y-33976097D01*
X53393659Y-33976096D01*
X53393655Y-33976094D01*
X53165413Y-33914938D01*
X53165403Y-33914936D01*
X52930001Y-33894341D01*
X52929999Y-33894341D01*
X52694596Y-33914936D01*
X52694586Y-33914938D01*
X52466344Y-33976094D01*
X52466335Y-33976098D01*
X52252171Y-34075964D01*
X52252169Y-34075965D01*
X52058597Y-34211505D01*
X51891508Y-34378594D01*
X51761269Y-34564595D01*
X51706692Y-34608219D01*
X51637193Y-34615412D01*
X51574839Y-34583890D01*
X51558119Y-34564594D01*
X51428113Y-34378926D01*
X51428108Y-34378920D01*
X51261082Y-34211894D01*
X51067578Y-34076399D01*
X50853492Y-33976570D01*
X50853486Y-33976567D01*
X50640000Y-33919364D01*
X50640000Y-34814498D01*
X50532315Y-34765320D01*
X50425763Y-34750000D01*
X50354237Y-34750000D01*
X50247685Y-34765320D01*
X50140000Y-34814498D01*
X50140000Y-33919364D01*
X50139999Y-33919364D01*
X49926513Y-33976567D01*
X49926507Y-33976570D01*
X49712422Y-34076399D01*
X49712420Y-34076400D01*
X49518926Y-34211886D01*
X49518920Y-34211891D01*
X49351891Y-34378920D01*
X49351886Y-34378926D01*
X49216400Y-34572420D01*
X49216399Y-34572422D01*
X49116570Y-34786507D01*
X49116567Y-34786513D01*
X49059364Y-34999999D01*
X49059364Y-35000000D01*
X49956314Y-35000000D01*
X49930507Y-35040156D01*
X49890000Y-35178111D01*
X49890000Y-35321889D01*
X49930507Y-35459844D01*
X49956314Y-35500000D01*
X49059364Y-35500000D01*
X49116567Y-35713486D01*
X49116570Y-35713492D01*
X49216399Y-35927578D01*
X49351894Y-36121082D01*
X49518917Y-36288105D01*
X49712421Y-36423600D01*
X49926507Y-36523429D01*
X49926516Y-36523433D01*
X50140000Y-36580634D01*
X50140000Y-35685501D01*
X50247685Y-35734680D01*
X50354237Y-35750000D01*
X50425763Y-35750000D01*
X50532315Y-35734680D01*
X50640000Y-35685501D01*
X50640000Y-36604046D01*
X50620315Y-36671085D01*
X50603680Y-36691728D01*
X50561207Y-36734200D01*
X50548951Y-36744020D01*
X50549134Y-36744241D01*
X50543123Y-36749213D01*
X50495772Y-36799636D01*
X50474889Y-36820519D01*
X50474877Y-36820532D01*
X50470621Y-36826017D01*
X50466837Y-36830447D01*
X50434937Y-36864418D01*
X50434936Y-36864420D01*
X50425284Y-36881976D01*
X50414610Y-36898226D01*
X50402329Y-36914061D01*
X50402324Y-36914068D01*
X50383815Y-36956838D01*
X50381245Y-36962084D01*
X50358803Y-37002906D01*
X50353822Y-37022307D01*
X50347521Y-37040710D01*
X50339562Y-37059102D01*
X50339561Y-37059105D01*
X50332271Y-37105127D01*
X50331087Y-37110846D01*
X50319501Y-37155972D01*
X50319500Y-37155982D01*
X50319500Y-37176016D01*
X50317973Y-37195415D01*
X50314840Y-37215194D01*
X50314840Y-37215195D01*
X50319225Y-37261583D01*
X50319500Y-37267421D01*
X50319500Y-62238566D01*
X50299815Y-62305605D01*
X50247011Y-62351360D01*
X50177853Y-62361304D01*
X50143095Y-62350948D01*
X50124880Y-62342454D01*
X49976496Y-62273261D01*
X49976492Y-62273260D01*
X49976488Y-62273258D01*
X49756697Y-62214366D01*
X49756693Y-62214365D01*
X49756692Y-62214365D01*
X49756691Y-62214364D01*
X49756686Y-62214364D01*
X49530002Y-62194532D01*
X49529998Y-62194532D01*
X49303313Y-62214364D01*
X49303302Y-62214366D01*
X49083511Y-62273258D01*
X49083502Y-62273261D01*
X48877267Y-62369431D01*
X48877265Y-62369432D01*
X48690858Y-62499954D01*
X48529954Y-62660858D01*
X48399432Y-62847265D01*
X48399431Y-62847267D01*
X48372382Y-62905275D01*
X48326209Y-62957714D01*
X48259016Y-62976866D01*
X48192135Y-62956650D01*
X48147618Y-62905275D01*
X48120686Y-62847520D01*
X48120568Y-62847266D01*
X47990047Y-62660861D01*
X47990045Y-62660858D01*
X47829141Y-62499954D01*
X47642734Y-62369432D01*
X47642732Y-62369431D01*
X47436497Y-62273261D01*
X47436488Y-62273258D01*
X47216697Y-62214366D01*
X47216693Y-62214365D01*
X47216692Y-62214365D01*
X47216691Y-62214364D01*
X47216686Y-62214364D01*
X46990002Y-62194532D01*
X46989998Y-62194532D01*
X46763313Y-62214364D01*
X46763302Y-62214366D01*
X46543511Y-62273258D01*
X46543502Y-62273261D01*
X46337267Y-62369431D01*
X46337265Y-62369432D01*
X46150858Y-62499954D01*
X45989954Y-62660858D01*
X45859432Y-62847265D01*
X45859431Y-62847267D01*
X45832382Y-62905275D01*
X45786209Y-62957714D01*
X45719016Y-62976866D01*
X45652135Y-62956650D01*
X45607618Y-62905275D01*
X45580686Y-62847520D01*
X45580568Y-62847266D01*
X45450047Y-62660861D01*
X45450045Y-62660858D01*
X45289141Y-62499954D01*
X45102734Y-62369432D01*
X45102732Y-62369431D01*
X44896497Y-62273261D01*
X44896488Y-62273258D01*
X44676697Y-62214366D01*
X44676693Y-62214365D01*
X44676692Y-62214365D01*
X44676691Y-62214364D01*
X44676686Y-62214364D01*
X44450002Y-62194532D01*
X44449998Y-62194532D01*
X44223313Y-62214364D01*
X44223302Y-62214366D01*
X44003511Y-62273258D01*
X44003502Y-62273261D01*
X43797267Y-62369431D01*
X43797265Y-62369432D01*
X43610858Y-62499954D01*
X43449954Y-62660858D01*
X43319432Y-62847265D01*
X43319431Y-62847267D01*
X43292382Y-62905275D01*
X43246209Y-62957714D01*
X43179016Y-62976866D01*
X43112135Y-62956650D01*
X43067618Y-62905275D01*
X43040686Y-62847520D01*
X43040568Y-62847266D01*
X42910047Y-62660861D01*
X42910045Y-62660858D01*
X42749141Y-62499954D01*
X42562734Y-62369432D01*
X42562732Y-62369431D01*
X42356497Y-62273261D01*
X42356488Y-62273258D01*
X42136697Y-62214366D01*
X42136693Y-62214365D01*
X42136692Y-62214365D01*
X42136691Y-62214364D01*
X42136686Y-62214364D01*
X41910002Y-62194532D01*
X41909998Y-62194532D01*
X41683313Y-62214364D01*
X41683302Y-62214366D01*
X41463511Y-62273258D01*
X41463502Y-62273261D01*
X41257267Y-62369431D01*
X41257265Y-62369432D01*
X41070858Y-62499954D01*
X40909954Y-62660858D01*
X40779432Y-62847265D01*
X40779431Y-62847267D01*
X40752382Y-62905275D01*
X40706209Y-62957714D01*
X40639016Y-62976866D01*
X40572135Y-62956650D01*
X40527618Y-62905275D01*
X40500686Y-62847520D01*
X40500568Y-62847266D01*
X40370047Y-62660861D01*
X40370045Y-62660858D01*
X40209141Y-62499954D01*
X40022734Y-62369432D01*
X40022732Y-62369431D01*
X39816497Y-62273261D01*
X39816488Y-62273258D01*
X39596697Y-62214366D01*
X39596693Y-62214365D01*
X39596692Y-62214365D01*
X39596691Y-62214364D01*
X39596686Y-62214364D01*
X39370002Y-62194532D01*
X39369998Y-62194532D01*
X39143313Y-62214364D01*
X39143302Y-62214366D01*
X38923511Y-62273258D01*
X38923502Y-62273261D01*
X38717267Y-62369431D01*
X38717265Y-62369432D01*
X38530858Y-62499954D01*
X38369954Y-62660858D01*
X38239432Y-62847265D01*
X38239431Y-62847267D01*
X38143261Y-63053502D01*
X38143258Y-63053511D01*
X38084366Y-63273302D01*
X38084364Y-63273313D01*
X38064532Y-63499998D01*
X38064532Y-63500001D01*
X38084364Y-63726686D01*
X38084366Y-63726697D01*
X38143258Y-63946488D01*
X38143261Y-63946497D01*
X38239431Y-64152732D01*
X38239432Y-64152734D01*
X38369954Y-64339141D01*
X38530858Y-64500045D01*
X38530861Y-64500047D01*
X38717266Y-64630568D01*
X38923504Y-64726739D01*
X39143308Y-64785635D01*
X39300780Y-64799412D01*
X39369998Y-64805468D01*
X39370000Y-64805468D01*
X39370002Y-64805468D01*
X39439220Y-64799412D01*
X39596692Y-64785635D01*
X39816496Y-64726739D01*
X40022734Y-64630568D01*
X40209139Y-64500047D01*
X40370047Y-64339139D01*
X40500568Y-64152734D01*
X40527618Y-64094724D01*
X40573790Y-64042285D01*
X40640983Y-64023133D01*
X40707865Y-64043348D01*
X40752382Y-64094725D01*
X40779429Y-64152728D01*
X40779432Y-64152734D01*
X40909954Y-64339141D01*
X41070858Y-64500045D01*
X41070861Y-64500047D01*
X41257266Y-64630568D01*
X41463504Y-64726739D01*
X41683308Y-64785635D01*
X41840780Y-64799412D01*
X41909998Y-64805468D01*
X41910000Y-64805468D01*
X41910002Y-64805468D01*
X41979220Y-64799412D01*
X42136692Y-64785635D01*
X42356496Y-64726739D01*
X42562734Y-64630568D01*
X42749139Y-64500047D01*
X42910047Y-64339139D01*
X43040568Y-64152734D01*
X43067618Y-64094724D01*
X43113790Y-64042285D01*
X43180983Y-64023133D01*
X43247865Y-64043348D01*
X43292382Y-64094725D01*
X43319429Y-64152728D01*
X43319432Y-64152734D01*
X43449954Y-64339141D01*
X43610858Y-64500045D01*
X43610861Y-64500047D01*
X43797266Y-64630568D01*
X44003504Y-64726739D01*
X44223308Y-64785635D01*
X44380780Y-64799412D01*
X44449998Y-64805468D01*
X44450000Y-64805468D01*
X44450002Y-64805468D01*
X44519220Y-64799412D01*
X44676692Y-64785635D01*
X44896496Y-64726739D01*
X45102734Y-64630568D01*
X45289139Y-64500047D01*
X45450047Y-64339139D01*
X45580568Y-64152734D01*
X45607618Y-64094724D01*
X45653790Y-64042285D01*
X45720983Y-64023133D01*
X45787865Y-64043348D01*
X45832382Y-64094725D01*
X45859429Y-64152728D01*
X45859432Y-64152734D01*
X45989954Y-64339141D01*
X46150858Y-64500045D01*
X46150861Y-64500047D01*
X46337266Y-64630568D01*
X46543504Y-64726739D01*
X46763308Y-64785635D01*
X46920780Y-64799412D01*
X46989998Y-64805468D01*
X46990000Y-64805468D01*
X46990002Y-64805468D01*
X47059220Y-64799412D01*
X47216692Y-64785635D01*
X47436496Y-64726739D01*
X47642734Y-64630568D01*
X47829139Y-64500047D01*
X47990047Y-64339139D01*
X48120568Y-64152734D01*
X48147618Y-64094724D01*
X48193790Y-64042285D01*
X48260983Y-64023133D01*
X48327865Y-64043348D01*
X48372382Y-64094725D01*
X48399429Y-64152728D01*
X48399432Y-64152734D01*
X48529954Y-64339141D01*
X48690858Y-64500045D01*
X48690861Y-64500047D01*
X48877266Y-64630568D01*
X49083504Y-64726739D01*
X49303308Y-64785635D01*
X49460780Y-64799412D01*
X49529998Y-64805468D01*
X49530000Y-64805468D01*
X49530002Y-64805468D01*
X49599220Y-64799412D01*
X49756692Y-64785635D01*
X49976496Y-64726739D01*
X50143095Y-64649051D01*
X50212173Y-64638560D01*
X50275957Y-64667080D01*
X50314196Y-64725556D01*
X50319500Y-64761434D01*
X50319500Y-72452255D01*
X50317775Y-72467872D01*
X50318061Y-72467899D01*
X50317326Y-72475665D01*
X50319500Y-72544814D01*
X50319500Y-72574343D01*
X50319501Y-72574360D01*
X50320368Y-72581231D01*
X50320826Y-72587050D01*
X50322290Y-72633624D01*
X50322291Y-72633627D01*
X50327880Y-72652867D01*
X50331824Y-72671911D01*
X50332228Y-72675103D01*
X50334336Y-72691791D01*
X50351490Y-72735119D01*
X50353382Y-72740647D01*
X50366381Y-72785388D01*
X50376580Y-72802634D01*
X50385136Y-72820100D01*
X50392514Y-72838732D01*
X50419898Y-72876423D01*
X50423106Y-72881307D01*
X50446827Y-72921416D01*
X50446833Y-72921424D01*
X50460990Y-72935580D01*
X50473628Y-72950376D01*
X50485405Y-72966586D01*
X50485406Y-72966587D01*
X50521309Y-72996288D01*
X50525620Y-73000210D01*
X54505906Y-76980496D01*
X54752590Y-77227181D01*
X54786075Y-77288504D01*
X54781091Y-77358196D01*
X54739219Y-77414129D01*
X54673755Y-77438546D01*
X54654102Y-77438390D01*
X54610002Y-77434532D01*
X54609998Y-77434532D01*
X54383313Y-77454364D01*
X54383302Y-77454366D01*
X54163511Y-77513258D01*
X54163502Y-77513261D01*
X53957267Y-77609431D01*
X53957265Y-77609432D01*
X53770858Y-77739954D01*
X53609954Y-77900858D01*
X53479432Y-78087265D01*
X53479431Y-78087267D01*
X53452382Y-78145275D01*
X53406209Y-78197714D01*
X53339016Y-78216866D01*
X53272135Y-78196650D01*
X53227618Y-78145275D01*
X53200686Y-78087520D01*
X53200568Y-78087266D01*
X53070047Y-77900861D01*
X53070045Y-77900858D01*
X52909141Y-77739954D01*
X52722734Y-77609432D01*
X52722732Y-77609431D01*
X52516497Y-77513261D01*
X52516488Y-77513258D01*
X52296697Y-77454366D01*
X52296693Y-77454365D01*
X52296692Y-77454365D01*
X52296691Y-77454364D01*
X52296686Y-77454364D01*
X52070002Y-77434532D01*
X52069998Y-77434532D01*
X51843313Y-77454364D01*
X51843302Y-77454366D01*
X51623511Y-77513258D01*
X51623502Y-77513261D01*
X51417267Y-77609431D01*
X51417265Y-77609432D01*
X51230858Y-77739954D01*
X51069954Y-77900858D01*
X50939432Y-78087265D01*
X50939431Y-78087267D01*
X50912382Y-78145275D01*
X50866209Y-78197714D01*
X50799016Y-78216866D01*
X50732135Y-78196650D01*
X50687618Y-78145275D01*
X50660686Y-78087520D01*
X50660568Y-78087266D01*
X50530047Y-77900861D01*
X50530045Y-77900858D01*
X50369141Y-77739954D01*
X50182734Y-77609432D01*
X50182732Y-77609431D01*
X49976497Y-77513261D01*
X49976488Y-77513258D01*
X49756697Y-77454366D01*
X49756693Y-77454365D01*
X49756692Y-77454365D01*
X49756691Y-77454364D01*
X49756686Y-77454364D01*
X49530002Y-77434532D01*
X49529998Y-77434532D01*
X49303313Y-77454364D01*
X49303302Y-77454366D01*
X49083511Y-77513258D01*
X49083502Y-77513261D01*
X48877267Y-77609431D01*
X48877265Y-77609432D01*
X48690858Y-77739954D01*
X48529954Y-77900858D01*
X48399432Y-78087265D01*
X48399431Y-78087267D01*
X48372382Y-78145275D01*
X48326209Y-78197714D01*
X48259016Y-78216866D01*
X48192135Y-78196650D01*
X48147618Y-78145275D01*
X48120686Y-78087520D01*
X48120568Y-78087266D01*
X47990047Y-77900861D01*
X47990045Y-77900858D01*
X47829141Y-77739954D01*
X47642734Y-77609432D01*
X47642732Y-77609431D01*
X47436497Y-77513261D01*
X47436488Y-77513258D01*
X47216697Y-77454366D01*
X47216693Y-77454365D01*
X47216692Y-77454365D01*
X47216691Y-77454364D01*
X47216686Y-77454364D01*
X46990002Y-77434532D01*
X46989998Y-77434532D01*
X46763313Y-77454364D01*
X46763302Y-77454366D01*
X46543511Y-77513258D01*
X46543502Y-77513261D01*
X46337267Y-77609431D01*
X46337265Y-77609432D01*
X46150858Y-77739954D01*
X45989954Y-77900858D01*
X45859432Y-78087265D01*
X45859431Y-78087267D01*
X45832382Y-78145275D01*
X45786209Y-78197714D01*
X45719016Y-78216866D01*
X45652135Y-78196650D01*
X45607618Y-78145275D01*
X45580686Y-78087520D01*
X45580568Y-78087266D01*
X45450047Y-77900861D01*
X45450045Y-77900858D01*
X45289141Y-77739954D01*
X45102734Y-77609432D01*
X45102732Y-77609431D01*
X44896497Y-77513261D01*
X44896488Y-77513258D01*
X44676697Y-77454366D01*
X44676693Y-77454365D01*
X44676692Y-77454365D01*
X44676691Y-77454364D01*
X44676686Y-77454364D01*
X44450002Y-77434532D01*
X44449998Y-77434532D01*
X44223313Y-77454364D01*
X44223302Y-77454366D01*
X44003511Y-77513258D01*
X44003502Y-77513261D01*
X43797267Y-77609431D01*
X43797265Y-77609432D01*
X43610858Y-77739954D01*
X43449954Y-77900858D01*
X43319432Y-78087265D01*
X43319431Y-78087267D01*
X43292382Y-78145275D01*
X43246209Y-78197714D01*
X43179016Y-78216866D01*
X43112135Y-78196650D01*
X43067618Y-78145275D01*
X43040686Y-78087520D01*
X43040568Y-78087266D01*
X42910047Y-77900861D01*
X42910045Y-77900858D01*
X42749141Y-77739954D01*
X42562734Y-77609432D01*
X42562732Y-77609431D01*
X42356497Y-77513261D01*
X42356488Y-77513258D01*
X42136697Y-77454366D01*
X42136693Y-77454365D01*
X42136692Y-77454365D01*
X42136691Y-77454364D01*
X42136686Y-77454364D01*
X41910002Y-77434532D01*
X41909998Y-77434532D01*
X41683313Y-77454364D01*
X41683302Y-77454366D01*
X41463511Y-77513258D01*
X41463502Y-77513261D01*
X41257267Y-77609431D01*
X41257265Y-77609432D01*
X41070858Y-77739954D01*
X40909954Y-77900858D01*
X40779432Y-78087265D01*
X40779431Y-78087267D01*
X40752382Y-78145275D01*
X40706209Y-78197714D01*
X40639016Y-78216866D01*
X40572135Y-78196650D01*
X40527618Y-78145275D01*
X40500686Y-78087520D01*
X40500568Y-78087266D01*
X40370047Y-77900861D01*
X40370045Y-77900858D01*
X40209141Y-77739954D01*
X40022734Y-77609432D01*
X40022732Y-77609431D01*
X39816497Y-77513261D01*
X39816488Y-77513258D01*
X39596697Y-77454366D01*
X39596693Y-77454365D01*
X39596692Y-77454365D01*
X39596691Y-77454364D01*
X39596686Y-77454364D01*
X39370002Y-77434532D01*
X39369998Y-77434532D01*
X39143313Y-77454364D01*
X39143302Y-77454366D01*
X38923511Y-77513258D01*
X38923502Y-77513261D01*
X38717267Y-77609431D01*
X38717265Y-77609432D01*
X38530858Y-77739954D01*
X38369954Y-77900858D01*
X38239432Y-78087265D01*
X38239431Y-78087267D01*
X38143261Y-78293502D01*
X38143258Y-78293511D01*
X38084366Y-78513302D01*
X38084364Y-78513313D01*
X38064532Y-78739998D01*
X38064532Y-78740001D01*
X32510500Y-78740001D01*
X32510500Y-35250002D01*
X34254726Y-35250002D01*
X34273808Y-35601954D01*
X34330833Y-35949793D01*
X34330834Y-35949796D01*
X34425126Y-36289408D01*
X34425127Y-36289410D01*
X34555588Y-36616844D01*
X34555593Y-36616854D01*
X34720695Y-36928269D01*
X34915236Y-37215196D01*
X34918498Y-37220006D01*
X34918505Y-37220016D01*
X35079448Y-37409492D01*
X35146686Y-37488650D01*
X35402580Y-37731046D01*
X35683182Y-37944354D01*
X35985202Y-38126074D01*
X35985206Y-38126075D01*
X35985210Y-38126078D01*
X36305088Y-38274070D01*
X36305092Y-38274070D01*
X36305099Y-38274074D01*
X36639122Y-38386619D01*
X36983355Y-38462391D01*
X37333763Y-38500500D01*
X37333769Y-38500500D01*
X37686231Y-38500500D01*
X37686237Y-38500500D01*
X38036645Y-38462391D01*
X38380878Y-38386619D01*
X38714901Y-38274074D01*
X38714908Y-38274070D01*
X38714911Y-38274070D01*
X39034789Y-38126078D01*
X39034798Y-38126074D01*
X39336818Y-37944354D01*
X39617420Y-37731046D01*
X39873314Y-37488650D01*
X40101501Y-37220008D01*
X40299305Y-36928269D01*
X40464407Y-36616854D01*
X40594871Y-36289414D01*
X40595126Y-36288498D01*
X40641609Y-36121078D01*
X40689168Y-35949788D01*
X40746191Y-35601957D01*
X40765274Y-35250000D01*
X40746191Y-34898043D01*
X40689168Y-34550212D01*
X40639118Y-34369949D01*
X40594873Y-34210591D01*
X40594872Y-34210589D01*
X40464411Y-33883155D01*
X40464402Y-33883137D01*
X40299304Y-33571730D01*
X40101501Y-33279992D01*
X40101497Y-33279987D01*
X40101494Y-33279983D01*
X39873314Y-33011350D01*
X39617420Y-32768954D01*
X39617413Y-32768948D01*
X39617410Y-32768946D01*
X39336815Y-32555644D01*
X39034802Y-32373928D01*
X39034789Y-32373921D01*
X38714911Y-32225929D01*
X38714906Y-32225928D01*
X38714903Y-32225927D01*
X38714901Y-32225926D01*
X38608432Y-32190052D01*
X38380880Y-32113381D01*
X38036643Y-32037608D01*
X37686238Y-31999500D01*
X37686237Y-31999500D01*
X37333763Y-31999500D01*
X37333761Y-31999500D01*
X36983356Y-32037608D01*
X36639119Y-32113381D01*
X36305093Y-32225928D01*
X36305088Y-32225929D01*
X35985210Y-32373921D01*
X35985197Y-32373928D01*
X35683184Y-32555644D01*
X35402589Y-32768946D01*
X35402580Y-32768954D01*
X35146685Y-33011350D01*
X34918505Y-33279983D01*
X34918498Y-33279993D01*
X34720695Y-33571730D01*
X34555597Y-33883137D01*
X34555588Y-33883155D01*
X34425127Y-34210589D01*
X34425126Y-34210591D01*
X34330834Y-34550203D01*
X34330833Y-34550206D01*
X34273808Y-34898045D01*
X34254726Y-35249997D01*
X34254726Y-35250002D01*
X32510500Y-35250002D01*
X32510500Y-30874500D01*
X32530185Y-30807461D01*
X32582989Y-30761706D01*
X32634500Y-30750500D01*
X79885500Y-30750500D01*
X79952539Y-30770185D01*
G37*
%TD.AperFunction*%
%TD*%
M02*
