%TF.GenerationSoftware,KiCad,Pcbnew,7.0.9*%
%TF.CreationDate,2025-03-23T18:57:56-04:00*%
%TF.ProjectId,Pneumatactors_NanoEvery_PumpControl,506e6575-6d61-4746-9163-746f72735f4e,rev?*%
%TF.SameCoordinates,Original*%
%TF.FileFunction,Drillmap*%
%TF.FilePolarity,Positive*%
%FSLAX45Y45*%
G04 Gerber Fmt 4.5, Leading zero omitted, Abs format (unit mm)*
G04 Created by KiCad (PCBNEW 7.0.9) date 2025-03-23 18:57:56*
%MOMM*%
%LPD*%
G01*
G04 APERTURE LIST*
%ADD10C,0.100000*%
%ADD11C,0.200000*%
%ADD12C,0.110000*%
%ADD13C,0.320000*%
G04 APERTURE END LIST*
D10*
X3251000Y-3075000D02*
X8001000Y-3075000D01*
X8001000Y-15975000D01*
X3251000Y-15975000D01*
X3251000Y-3075000D01*
D11*
D10*
X5187000Y-4425000D02*
X5227000Y-4465000D01*
X5227000Y-4425000D02*
X5187000Y-4465000D01*
X5187000Y-7028500D02*
X5227000Y-7068500D01*
X5227000Y-7028500D02*
X5187000Y-7068500D01*
X5949000Y-7028500D02*
X5989000Y-7068500D01*
X5989000Y-7028500D02*
X5949000Y-7068500D01*
X6076000Y-8616000D02*
X6116000Y-8656000D01*
X6116000Y-8616000D02*
X6076000Y-8656000D01*
X5733000Y-14200000D02*
G75*
G03*
X5733000Y-14200000I-40000J0D01*
G01*
X5741000Y-14700000D02*
G75*
G03*
X5741000Y-14700000I-40000J0D01*
G01*
X6749000Y-14200000D02*
G75*
G03*
X6749000Y-14200000I-40000J0D01*
G01*
X6757000Y-14700000D02*
G75*
G03*
X6757000Y-14700000I-40000J0D01*
G01*
X3937000Y-6300000D02*
X3937000Y-6400000D01*
X3887000Y-6350000D02*
X3987000Y-6350000D01*
X3937000Y-7824000D02*
X3937000Y-7924000D01*
X3887000Y-7874000D02*
X3987000Y-7874000D01*
X4191000Y-6300000D02*
X4191000Y-6400000D01*
X4141000Y-6350000D02*
X4241000Y-6350000D01*
X4191000Y-7824000D02*
X4191000Y-7924000D01*
X4141000Y-7874000D02*
X4241000Y-7874000D01*
X4445000Y-6300000D02*
X4445000Y-6400000D01*
X4395000Y-6350000D02*
X4495000Y-6350000D01*
X4445000Y-7824000D02*
X4445000Y-7924000D01*
X4395000Y-7874000D02*
X4495000Y-7874000D01*
X4572000Y-9602000D02*
X4572000Y-9702000D01*
X4522000Y-9652000D02*
X4622000Y-9652000D01*
X4572000Y-9856000D02*
X4572000Y-9956000D01*
X4522000Y-9906000D02*
X4622000Y-9906000D01*
X4572000Y-10110000D02*
X4572000Y-10210000D01*
X4522000Y-10160000D02*
X4622000Y-10160000D01*
X4572000Y-10364000D02*
X4572000Y-10464000D01*
X4522000Y-10414000D02*
X4622000Y-10414000D01*
X4572000Y-10618000D02*
X4572000Y-10718000D01*
X4522000Y-10668000D02*
X4622000Y-10668000D01*
X4572000Y-10872000D02*
X4572000Y-10972000D01*
X4522000Y-10922000D02*
X4622000Y-10922000D01*
X4572000Y-11126000D02*
X4572000Y-11226000D01*
X4522000Y-11176000D02*
X4622000Y-11176000D01*
X4572000Y-11380000D02*
X4572000Y-11480000D01*
X4522000Y-11430000D02*
X4622000Y-11430000D01*
X4572000Y-11634000D02*
X4572000Y-11734000D01*
X4522000Y-11684000D02*
X4622000Y-11684000D01*
X4572000Y-11888000D02*
X4572000Y-11988000D01*
X4522000Y-11938000D02*
X4622000Y-11938000D01*
X4572500Y-13602500D02*
X4572500Y-13702500D01*
X4522500Y-13652500D02*
X4622500Y-13652500D01*
X4699000Y-6300000D02*
X4699000Y-6400000D01*
X4649000Y-6350000D02*
X4749000Y-6350000D01*
X4699000Y-7824000D02*
X4699000Y-7924000D01*
X4649000Y-7874000D02*
X4749000Y-7874000D01*
X4826500Y-13602500D02*
X4826500Y-13702500D01*
X4776500Y-13652500D02*
X4876500Y-13652500D01*
X4953000Y-6300000D02*
X4953000Y-6400000D01*
X4903000Y-6350000D02*
X5003000Y-6350000D01*
X4953000Y-7824000D02*
X4953000Y-7924000D01*
X4903000Y-7874000D02*
X5003000Y-7874000D01*
X5039000Y-3475000D02*
X5039000Y-3575000D01*
X4989000Y-3525000D02*
X5089000Y-3525000D01*
X5207000Y-6300000D02*
X5207000Y-6400000D01*
X5157000Y-6350000D02*
X5257000Y-6350000D01*
X5207000Y-7824000D02*
X5207000Y-7924000D01*
X5157000Y-7874000D02*
X5257000Y-7874000D01*
X5293000Y-3475000D02*
X5293000Y-3575000D01*
X5243000Y-3525000D02*
X5343000Y-3525000D01*
X5461000Y-6300000D02*
X5461000Y-6400000D01*
X5411000Y-6350000D02*
X5511000Y-6350000D01*
X5461000Y-7824000D02*
X5461000Y-7924000D01*
X5411000Y-7874000D02*
X5511000Y-7874000D01*
X5547000Y-3475000D02*
X5547000Y-3575000D01*
X5497000Y-3525000D02*
X5597000Y-3525000D01*
X5693000Y-15296000D02*
X5693000Y-15396000D01*
X5643000Y-15346000D02*
X5743000Y-15346000D01*
X5693000Y-15550000D02*
X5693000Y-15650000D01*
X5643000Y-15600000D02*
X5743000Y-15600000D01*
X5715000Y-6300000D02*
X5715000Y-6400000D01*
X5665000Y-6350000D02*
X5765000Y-6350000D01*
X5715000Y-7824000D02*
X5715000Y-7924000D01*
X5665000Y-7874000D02*
X5765000Y-7874000D01*
X5801000Y-3475000D02*
X5801000Y-3575000D01*
X5751000Y-3525000D02*
X5851000Y-3525000D01*
X5947000Y-15296000D02*
X5947000Y-15396000D01*
X5897000Y-15346000D02*
X5997000Y-15346000D01*
X5947000Y-15550000D02*
X5947000Y-15650000D01*
X5897000Y-15600000D02*
X5997000Y-15600000D01*
X5969000Y-6300000D02*
X5969000Y-6400000D01*
X5919000Y-6350000D02*
X6019000Y-6350000D01*
X5969000Y-7824000D02*
X5969000Y-7924000D01*
X5919000Y-7874000D02*
X6019000Y-7874000D01*
X6055000Y-3475000D02*
X6055000Y-3575000D01*
X6005000Y-3525000D02*
X6105000Y-3525000D01*
X6201000Y-15296000D02*
X6201000Y-15396000D01*
X6151000Y-15346000D02*
X6251000Y-15346000D01*
X6201000Y-15550000D02*
X6201000Y-15650000D01*
X6151000Y-15600000D02*
X6251000Y-15600000D01*
X6223000Y-6300000D02*
X6223000Y-6400000D01*
X6173000Y-6350000D02*
X6273000Y-6350000D01*
X6223000Y-7824000D02*
X6223000Y-7924000D01*
X6173000Y-7874000D02*
X6273000Y-7874000D01*
X6455000Y-15296000D02*
X6455000Y-15396000D01*
X6405000Y-15346000D02*
X6505000Y-15346000D01*
X6455000Y-15550000D02*
X6455000Y-15650000D01*
X6405000Y-15600000D02*
X6505000Y-15600000D01*
X6477000Y-4395000D02*
X6477000Y-4495000D01*
X6427000Y-4445000D02*
X6527000Y-4445000D01*
X6477000Y-4649000D02*
X6477000Y-4749000D01*
X6427000Y-4699000D02*
X6527000Y-4699000D01*
X6477000Y-6300000D02*
X6477000Y-6400000D01*
X6427000Y-6350000D02*
X6527000Y-6350000D01*
X6477000Y-7824000D02*
X6477000Y-7924000D01*
X6427000Y-7874000D02*
X6527000Y-7874000D01*
X6709000Y-15296000D02*
X6709000Y-15396000D01*
X6659000Y-15346000D02*
X6759000Y-15346000D01*
X6709000Y-15550000D02*
X6709000Y-15650000D01*
X6659000Y-15600000D02*
X6759000Y-15600000D01*
X6731000Y-6300000D02*
X6731000Y-6400000D01*
X6681000Y-6350000D02*
X6781000Y-6350000D01*
X6731000Y-7824000D02*
X6731000Y-7924000D01*
X6681000Y-7874000D02*
X6781000Y-7874000D01*
X6858000Y-10364000D02*
X6858000Y-10464000D01*
X6808000Y-10414000D02*
X6908000Y-10414000D01*
X6858000Y-10618000D02*
X6858000Y-10718000D01*
X6808000Y-10668000D02*
X6908000Y-10668000D01*
X6858000Y-10872000D02*
X6858000Y-10972000D01*
X6808000Y-10922000D02*
X6908000Y-10922000D01*
X6858000Y-11126000D02*
X6858000Y-11226000D01*
X6808000Y-11176000D02*
X6908000Y-11176000D01*
X6985000Y-6300000D02*
X6985000Y-6400000D01*
X6935000Y-6350000D02*
X7035000Y-6350000D01*
X6985000Y-7824000D02*
X6985000Y-7924000D01*
X6935000Y-7874000D02*
X7035000Y-7874000D01*
X7239000Y-5665000D02*
X7239000Y-5765000D01*
X7189000Y-5715000D02*
X7289000Y-5715000D01*
X7239000Y-6300000D02*
X7239000Y-6400000D01*
X7189000Y-6350000D02*
X7289000Y-6350000D01*
X7239000Y-7824000D02*
X7239000Y-7924000D01*
X7189000Y-7874000D02*
X7289000Y-7874000D01*
X7493000Y-5665000D02*
X7493000Y-5765000D01*
X7443000Y-5715000D02*
X7543000Y-5715000D01*
X7493000Y-6300000D02*
X7493000Y-6400000D01*
X7443000Y-6350000D02*
X7543000Y-6350000D01*
X7493000Y-7824000D02*
X7493000Y-7924000D01*
X7443000Y-7874000D02*
X7543000Y-7874000D01*
D12*
X5626891Y-5753891D02*
X5626891Y-5676109D01*
X5549109Y-5676109D01*
X5549109Y-5753891D01*
X5626891Y-5753891D01*
X6642891Y-5753891D02*
X6642891Y-5676109D01*
X6565109Y-5676109D01*
X6565109Y-5753891D01*
X6642891Y-5753891D01*
D13*
X3751000Y-3685000D02*
X3911000Y-3525000D01*
X3751000Y-3365000D01*
X3591000Y-3525000D01*
X3751000Y-3685000D01*
X3751000Y-15660000D02*
X3911000Y-15500000D01*
X3751000Y-15340000D01*
X3591000Y-15500000D01*
X3751000Y-15660000D01*
X7501000Y-3685000D02*
X7661000Y-3525000D01*
X7501000Y-3365000D01*
X7341000Y-3525000D01*
X7501000Y-3685000D01*
X7501000Y-15660000D02*
X7661000Y-15500000D01*
X7501000Y-15340000D01*
X7341000Y-15500000D01*
X7501000Y-15660000D01*
D11*
X3506777Y-16291484D02*
X3506777Y-16091484D01*
X3506777Y-16091484D02*
X3554396Y-16091484D01*
X3554396Y-16091484D02*
X3582967Y-16101008D01*
X3582967Y-16101008D02*
X3602015Y-16120055D01*
X3602015Y-16120055D02*
X3611539Y-16139103D01*
X3611539Y-16139103D02*
X3621062Y-16177198D01*
X3621062Y-16177198D02*
X3621062Y-16205769D01*
X3621062Y-16205769D02*
X3611539Y-16243865D01*
X3611539Y-16243865D02*
X3602015Y-16262912D01*
X3602015Y-16262912D02*
X3582967Y-16281960D01*
X3582967Y-16281960D02*
X3554396Y-16291484D01*
X3554396Y-16291484D02*
X3506777Y-16291484D01*
X3706777Y-16291484D02*
X3706777Y-16158150D01*
X3706777Y-16196246D02*
X3716301Y-16177198D01*
X3716301Y-16177198D02*
X3725824Y-16167674D01*
X3725824Y-16167674D02*
X3744872Y-16158150D01*
X3744872Y-16158150D02*
X3763920Y-16158150D01*
X3830586Y-16291484D02*
X3830586Y-16158150D01*
X3830586Y-16091484D02*
X3821062Y-16101008D01*
X3821062Y-16101008D02*
X3830586Y-16110531D01*
X3830586Y-16110531D02*
X3840110Y-16101008D01*
X3840110Y-16101008D02*
X3830586Y-16091484D01*
X3830586Y-16091484D02*
X3830586Y-16110531D01*
X3954396Y-16291484D02*
X3935348Y-16281960D01*
X3935348Y-16281960D02*
X3925824Y-16262912D01*
X3925824Y-16262912D02*
X3925824Y-16091484D01*
X4059158Y-16291484D02*
X4040110Y-16281960D01*
X4040110Y-16281960D02*
X4030586Y-16262912D01*
X4030586Y-16262912D02*
X4030586Y-16091484D01*
X4287729Y-16291484D02*
X4287729Y-16091484D01*
X4287729Y-16091484D02*
X4354396Y-16234341D01*
X4354396Y-16234341D02*
X4421063Y-16091484D01*
X4421063Y-16091484D02*
X4421063Y-16291484D01*
X4602015Y-16291484D02*
X4602015Y-16186722D01*
X4602015Y-16186722D02*
X4592491Y-16167674D01*
X4592491Y-16167674D02*
X4573444Y-16158150D01*
X4573444Y-16158150D02*
X4535348Y-16158150D01*
X4535348Y-16158150D02*
X4516301Y-16167674D01*
X4602015Y-16281960D02*
X4582967Y-16291484D01*
X4582967Y-16291484D02*
X4535348Y-16291484D01*
X4535348Y-16291484D02*
X4516301Y-16281960D01*
X4516301Y-16281960D02*
X4506777Y-16262912D01*
X4506777Y-16262912D02*
X4506777Y-16243865D01*
X4506777Y-16243865D02*
X4516301Y-16224817D01*
X4516301Y-16224817D02*
X4535348Y-16215293D01*
X4535348Y-16215293D02*
X4582967Y-16215293D01*
X4582967Y-16215293D02*
X4602015Y-16205769D01*
X4697253Y-16158150D02*
X4697253Y-16358150D01*
X4697253Y-16167674D02*
X4716301Y-16158150D01*
X4716301Y-16158150D02*
X4754396Y-16158150D01*
X4754396Y-16158150D02*
X4773444Y-16167674D01*
X4773444Y-16167674D02*
X4782967Y-16177198D01*
X4782967Y-16177198D02*
X4792491Y-16196246D01*
X4792491Y-16196246D02*
X4792491Y-16253388D01*
X4792491Y-16253388D02*
X4782967Y-16272436D01*
X4782967Y-16272436D02*
X4773444Y-16281960D01*
X4773444Y-16281960D02*
X4754396Y-16291484D01*
X4754396Y-16291484D02*
X4716301Y-16291484D01*
X4716301Y-16291484D02*
X4697253Y-16281960D01*
X4878205Y-16272436D02*
X4887729Y-16281960D01*
X4887729Y-16281960D02*
X4878205Y-16291484D01*
X4878205Y-16291484D02*
X4868682Y-16281960D01*
X4868682Y-16281960D02*
X4878205Y-16272436D01*
X4878205Y-16272436D02*
X4878205Y-16291484D01*
X4878205Y-16167674D02*
X4887729Y-16177198D01*
X4887729Y-16177198D02*
X4878205Y-16186722D01*
X4878205Y-16186722D02*
X4868682Y-16177198D01*
X4868682Y-16177198D02*
X4878205Y-16167674D01*
X4878205Y-16167674D02*
X4878205Y-16186722D01*
D10*
X3206000Y-16600000D02*
X3246000Y-16640000D01*
X3246000Y-16600000D02*
X3206000Y-16640000D01*
D11*
X3544872Y-16511484D02*
X3563920Y-16511484D01*
X3563920Y-16511484D02*
X3582967Y-16521008D01*
X3582967Y-16521008D02*
X3592491Y-16530531D01*
X3592491Y-16530531D02*
X3602015Y-16549579D01*
X3602015Y-16549579D02*
X3611539Y-16587674D01*
X3611539Y-16587674D02*
X3611539Y-16635293D01*
X3611539Y-16635293D02*
X3602015Y-16673388D01*
X3602015Y-16673388D02*
X3592491Y-16692436D01*
X3592491Y-16692436D02*
X3582967Y-16701960D01*
X3582967Y-16701960D02*
X3563920Y-16711484D01*
X3563920Y-16711484D02*
X3544872Y-16711484D01*
X3544872Y-16711484D02*
X3525824Y-16701960D01*
X3525824Y-16701960D02*
X3516301Y-16692436D01*
X3516301Y-16692436D02*
X3506777Y-16673388D01*
X3506777Y-16673388D02*
X3497253Y-16635293D01*
X3497253Y-16635293D02*
X3497253Y-16587674D01*
X3497253Y-16587674D02*
X3506777Y-16549579D01*
X3506777Y-16549579D02*
X3516301Y-16530531D01*
X3516301Y-16530531D02*
X3525824Y-16521008D01*
X3525824Y-16521008D02*
X3544872Y-16511484D01*
X3697253Y-16692436D02*
X3706777Y-16701960D01*
X3706777Y-16701960D02*
X3697253Y-16711484D01*
X3697253Y-16711484D02*
X3687729Y-16701960D01*
X3687729Y-16701960D02*
X3697253Y-16692436D01*
X3697253Y-16692436D02*
X3697253Y-16711484D01*
X3878205Y-16578150D02*
X3878205Y-16711484D01*
X3830586Y-16501960D02*
X3782967Y-16644817D01*
X3782967Y-16644817D02*
X3906777Y-16644817D01*
X4021062Y-16511484D02*
X4040110Y-16511484D01*
X4040110Y-16511484D02*
X4059158Y-16521008D01*
X4059158Y-16521008D02*
X4068682Y-16530531D01*
X4068682Y-16530531D02*
X4078205Y-16549579D01*
X4078205Y-16549579D02*
X4087729Y-16587674D01*
X4087729Y-16587674D02*
X4087729Y-16635293D01*
X4087729Y-16635293D02*
X4078205Y-16673388D01*
X4078205Y-16673388D02*
X4068682Y-16692436D01*
X4068682Y-16692436D02*
X4059158Y-16701960D01*
X4059158Y-16701960D02*
X4040110Y-16711484D01*
X4040110Y-16711484D02*
X4021062Y-16711484D01*
X4021062Y-16711484D02*
X4002015Y-16701960D01*
X4002015Y-16701960D02*
X3992491Y-16692436D01*
X3992491Y-16692436D02*
X3982967Y-16673388D01*
X3982967Y-16673388D02*
X3973443Y-16635293D01*
X3973443Y-16635293D02*
X3973443Y-16587674D01*
X3973443Y-16587674D02*
X3982967Y-16549579D01*
X3982967Y-16549579D02*
X3992491Y-16530531D01*
X3992491Y-16530531D02*
X4002015Y-16521008D01*
X4002015Y-16521008D02*
X4021062Y-16511484D01*
X4211539Y-16511484D02*
X4230586Y-16511484D01*
X4230586Y-16511484D02*
X4249634Y-16521008D01*
X4249634Y-16521008D02*
X4259158Y-16530531D01*
X4259158Y-16530531D02*
X4268682Y-16549579D01*
X4268682Y-16549579D02*
X4278205Y-16587674D01*
X4278205Y-16587674D02*
X4278205Y-16635293D01*
X4278205Y-16635293D02*
X4268682Y-16673388D01*
X4268682Y-16673388D02*
X4259158Y-16692436D01*
X4259158Y-16692436D02*
X4249634Y-16701960D01*
X4249634Y-16701960D02*
X4230586Y-16711484D01*
X4230586Y-16711484D02*
X4211539Y-16711484D01*
X4211539Y-16711484D02*
X4192491Y-16701960D01*
X4192491Y-16701960D02*
X4182967Y-16692436D01*
X4182967Y-16692436D02*
X4173443Y-16673388D01*
X4173443Y-16673388D02*
X4163920Y-16635293D01*
X4163920Y-16635293D02*
X4163920Y-16587674D01*
X4163920Y-16587674D02*
X4173443Y-16549579D01*
X4173443Y-16549579D02*
X4182967Y-16530531D01*
X4182967Y-16530531D02*
X4192491Y-16521008D01*
X4192491Y-16521008D02*
X4211539Y-16511484D01*
X4363920Y-16711484D02*
X4363920Y-16578150D01*
X4363920Y-16597198D02*
X4373444Y-16587674D01*
X4373444Y-16587674D02*
X4392491Y-16578150D01*
X4392491Y-16578150D02*
X4421063Y-16578150D01*
X4421063Y-16578150D02*
X4440110Y-16587674D01*
X4440110Y-16587674D02*
X4449634Y-16606722D01*
X4449634Y-16606722D02*
X4449634Y-16711484D01*
X4449634Y-16606722D02*
X4459158Y-16587674D01*
X4459158Y-16587674D02*
X4478205Y-16578150D01*
X4478205Y-16578150D02*
X4506777Y-16578150D01*
X4506777Y-16578150D02*
X4525825Y-16587674D01*
X4525825Y-16587674D02*
X4535348Y-16606722D01*
X4535348Y-16606722D02*
X4535348Y-16711484D01*
X4630586Y-16711484D02*
X4630586Y-16578150D01*
X4630586Y-16597198D02*
X4640110Y-16587674D01*
X4640110Y-16587674D02*
X4659158Y-16578150D01*
X4659158Y-16578150D02*
X4687729Y-16578150D01*
X4687729Y-16578150D02*
X4706777Y-16587674D01*
X4706777Y-16587674D02*
X4716301Y-16606722D01*
X4716301Y-16606722D02*
X4716301Y-16711484D01*
X4716301Y-16606722D02*
X4725825Y-16587674D01*
X4725825Y-16587674D02*
X4744872Y-16578150D01*
X4744872Y-16578150D02*
X4773444Y-16578150D01*
X4773444Y-16578150D02*
X4792491Y-16587674D01*
X4792491Y-16587674D02*
X4802015Y-16606722D01*
X4802015Y-16606722D02*
X4802015Y-16711484D01*
X5192491Y-16501960D02*
X5021063Y-16759103D01*
X5449634Y-16511484D02*
X5468682Y-16511484D01*
X5468682Y-16511484D02*
X5487729Y-16521008D01*
X5487729Y-16521008D02*
X5497253Y-16530531D01*
X5497253Y-16530531D02*
X5506777Y-16549579D01*
X5506777Y-16549579D02*
X5516301Y-16587674D01*
X5516301Y-16587674D02*
X5516301Y-16635293D01*
X5516301Y-16635293D02*
X5506777Y-16673388D01*
X5506777Y-16673388D02*
X5497253Y-16692436D01*
X5497253Y-16692436D02*
X5487729Y-16701960D01*
X5487729Y-16701960D02*
X5468682Y-16711484D01*
X5468682Y-16711484D02*
X5449634Y-16711484D01*
X5449634Y-16711484D02*
X5430587Y-16701960D01*
X5430587Y-16701960D02*
X5421063Y-16692436D01*
X5421063Y-16692436D02*
X5411539Y-16673388D01*
X5411539Y-16673388D02*
X5402015Y-16635293D01*
X5402015Y-16635293D02*
X5402015Y-16587674D01*
X5402015Y-16587674D02*
X5411539Y-16549579D01*
X5411539Y-16549579D02*
X5421063Y-16530531D01*
X5421063Y-16530531D02*
X5430587Y-16521008D01*
X5430587Y-16521008D02*
X5449634Y-16511484D01*
X5602015Y-16692436D02*
X5611539Y-16701960D01*
X5611539Y-16701960D02*
X5602015Y-16711484D01*
X5602015Y-16711484D02*
X5592491Y-16701960D01*
X5592491Y-16701960D02*
X5602015Y-16692436D01*
X5602015Y-16692436D02*
X5602015Y-16711484D01*
X5735348Y-16511484D02*
X5754396Y-16511484D01*
X5754396Y-16511484D02*
X5773444Y-16521008D01*
X5773444Y-16521008D02*
X5782967Y-16530531D01*
X5782967Y-16530531D02*
X5792491Y-16549579D01*
X5792491Y-16549579D02*
X5802015Y-16587674D01*
X5802015Y-16587674D02*
X5802015Y-16635293D01*
X5802015Y-16635293D02*
X5792491Y-16673388D01*
X5792491Y-16673388D02*
X5782967Y-16692436D01*
X5782967Y-16692436D02*
X5773444Y-16701960D01*
X5773444Y-16701960D02*
X5754396Y-16711484D01*
X5754396Y-16711484D02*
X5735348Y-16711484D01*
X5735348Y-16711484D02*
X5716301Y-16701960D01*
X5716301Y-16701960D02*
X5706777Y-16692436D01*
X5706777Y-16692436D02*
X5697253Y-16673388D01*
X5697253Y-16673388D02*
X5687729Y-16635293D01*
X5687729Y-16635293D02*
X5687729Y-16587674D01*
X5687729Y-16587674D02*
X5697253Y-16549579D01*
X5697253Y-16549579D02*
X5706777Y-16530531D01*
X5706777Y-16530531D02*
X5716301Y-16521008D01*
X5716301Y-16521008D02*
X5735348Y-16511484D01*
X5992491Y-16711484D02*
X5878206Y-16711484D01*
X5935348Y-16711484D02*
X5935348Y-16511484D01*
X5935348Y-16511484D02*
X5916301Y-16540055D01*
X5916301Y-16540055D02*
X5897253Y-16559103D01*
X5897253Y-16559103D02*
X5878206Y-16568627D01*
X6173444Y-16511484D02*
X6078206Y-16511484D01*
X6078206Y-16511484D02*
X6068682Y-16606722D01*
X6068682Y-16606722D02*
X6078206Y-16597198D01*
X6078206Y-16597198D02*
X6097253Y-16587674D01*
X6097253Y-16587674D02*
X6144872Y-16587674D01*
X6144872Y-16587674D02*
X6163920Y-16597198D01*
X6163920Y-16597198D02*
X6173444Y-16606722D01*
X6173444Y-16606722D02*
X6182967Y-16625769D01*
X6182967Y-16625769D02*
X6182967Y-16673388D01*
X6182967Y-16673388D02*
X6173444Y-16692436D01*
X6173444Y-16692436D02*
X6163920Y-16701960D01*
X6163920Y-16701960D02*
X6144872Y-16711484D01*
X6144872Y-16711484D02*
X6097253Y-16711484D01*
X6097253Y-16711484D02*
X6078206Y-16701960D01*
X6078206Y-16701960D02*
X6068682Y-16692436D01*
X6249634Y-16511484D02*
X6382967Y-16511484D01*
X6382967Y-16511484D02*
X6297253Y-16711484D01*
X6449634Y-16511484D02*
X6449634Y-16549579D01*
X6525825Y-16511484D02*
X6525825Y-16549579D01*
X6821063Y-16787674D02*
X6811539Y-16778150D01*
X6811539Y-16778150D02*
X6792491Y-16749579D01*
X6792491Y-16749579D02*
X6782968Y-16730531D01*
X6782968Y-16730531D02*
X6773444Y-16701960D01*
X6773444Y-16701960D02*
X6763920Y-16654341D01*
X6763920Y-16654341D02*
X6763920Y-16616246D01*
X6763920Y-16616246D02*
X6773444Y-16568627D01*
X6773444Y-16568627D02*
X6782968Y-16540055D01*
X6782968Y-16540055D02*
X6792491Y-16521008D01*
X6792491Y-16521008D02*
X6811539Y-16492436D01*
X6811539Y-16492436D02*
X6821063Y-16482912D01*
X6982968Y-16578150D02*
X6982968Y-16711484D01*
X6935348Y-16501960D02*
X6887729Y-16644817D01*
X6887729Y-16644817D02*
X7011539Y-16644817D01*
X7240110Y-16711484D02*
X7240110Y-16511484D01*
X7325825Y-16711484D02*
X7325825Y-16606722D01*
X7325825Y-16606722D02*
X7316301Y-16587674D01*
X7316301Y-16587674D02*
X7297253Y-16578150D01*
X7297253Y-16578150D02*
X7268682Y-16578150D01*
X7268682Y-16578150D02*
X7249634Y-16587674D01*
X7249634Y-16587674D02*
X7240110Y-16597198D01*
X7449634Y-16711484D02*
X7430587Y-16701960D01*
X7430587Y-16701960D02*
X7421063Y-16692436D01*
X7421063Y-16692436D02*
X7411539Y-16673388D01*
X7411539Y-16673388D02*
X7411539Y-16616246D01*
X7411539Y-16616246D02*
X7421063Y-16597198D01*
X7421063Y-16597198D02*
X7430587Y-16587674D01*
X7430587Y-16587674D02*
X7449634Y-16578150D01*
X7449634Y-16578150D02*
X7478206Y-16578150D01*
X7478206Y-16578150D02*
X7497253Y-16587674D01*
X7497253Y-16587674D02*
X7506777Y-16597198D01*
X7506777Y-16597198D02*
X7516301Y-16616246D01*
X7516301Y-16616246D02*
X7516301Y-16673388D01*
X7516301Y-16673388D02*
X7506777Y-16692436D01*
X7506777Y-16692436D02*
X7497253Y-16701960D01*
X7497253Y-16701960D02*
X7478206Y-16711484D01*
X7478206Y-16711484D02*
X7449634Y-16711484D01*
X7630587Y-16711484D02*
X7611539Y-16701960D01*
X7611539Y-16701960D02*
X7602015Y-16682912D01*
X7602015Y-16682912D02*
X7602015Y-16511484D01*
X7782968Y-16701960D02*
X7763920Y-16711484D01*
X7763920Y-16711484D02*
X7725825Y-16711484D01*
X7725825Y-16711484D02*
X7706777Y-16701960D01*
X7706777Y-16701960D02*
X7697253Y-16682912D01*
X7697253Y-16682912D02*
X7697253Y-16606722D01*
X7697253Y-16606722D02*
X7706777Y-16587674D01*
X7706777Y-16587674D02*
X7725825Y-16578150D01*
X7725825Y-16578150D02*
X7763920Y-16578150D01*
X7763920Y-16578150D02*
X7782968Y-16587674D01*
X7782968Y-16587674D02*
X7792491Y-16606722D01*
X7792491Y-16606722D02*
X7792491Y-16625769D01*
X7792491Y-16625769D02*
X7697253Y-16644817D01*
X7868682Y-16701960D02*
X7887730Y-16711484D01*
X7887730Y-16711484D02*
X7925825Y-16711484D01*
X7925825Y-16711484D02*
X7944872Y-16701960D01*
X7944872Y-16701960D02*
X7954396Y-16682912D01*
X7954396Y-16682912D02*
X7954396Y-16673388D01*
X7954396Y-16673388D02*
X7944872Y-16654341D01*
X7944872Y-16654341D02*
X7925825Y-16644817D01*
X7925825Y-16644817D02*
X7897253Y-16644817D01*
X7897253Y-16644817D02*
X7878206Y-16635293D01*
X7878206Y-16635293D02*
X7868682Y-16616246D01*
X7868682Y-16616246D02*
X7868682Y-16606722D01*
X7868682Y-16606722D02*
X7878206Y-16587674D01*
X7878206Y-16587674D02*
X7897253Y-16578150D01*
X7897253Y-16578150D02*
X7925825Y-16578150D01*
X7925825Y-16578150D02*
X7944872Y-16587674D01*
X8021063Y-16787674D02*
X8030587Y-16778150D01*
X8030587Y-16778150D02*
X8049634Y-16749579D01*
X8049634Y-16749579D02*
X8059158Y-16730531D01*
X8059158Y-16730531D02*
X8068682Y-16701960D01*
X8068682Y-16701960D02*
X8078206Y-16654341D01*
X8078206Y-16654341D02*
X8078206Y-16616246D01*
X8078206Y-16616246D02*
X8068682Y-16568627D01*
X8068682Y-16568627D02*
X8059158Y-16540055D01*
X8059158Y-16540055D02*
X8049634Y-16521008D01*
X8049634Y-16521008D02*
X8030587Y-16492436D01*
X8030587Y-16492436D02*
X8021063Y-16482912D01*
D10*
X3246000Y-16884000D02*
G75*
G03*
X3246000Y-16884000I-40000J0D01*
G01*
D11*
X3544872Y-16775484D02*
X3563920Y-16775484D01*
X3563920Y-16775484D02*
X3582967Y-16785008D01*
X3582967Y-16785008D02*
X3592491Y-16794531D01*
X3592491Y-16794531D02*
X3602015Y-16813579D01*
X3602015Y-16813579D02*
X3611539Y-16851674D01*
X3611539Y-16851674D02*
X3611539Y-16899293D01*
X3611539Y-16899293D02*
X3602015Y-16937389D01*
X3602015Y-16937389D02*
X3592491Y-16956436D01*
X3592491Y-16956436D02*
X3582967Y-16965960D01*
X3582967Y-16965960D02*
X3563920Y-16975484D01*
X3563920Y-16975484D02*
X3544872Y-16975484D01*
X3544872Y-16975484D02*
X3525824Y-16965960D01*
X3525824Y-16965960D02*
X3516301Y-16956436D01*
X3516301Y-16956436D02*
X3506777Y-16937389D01*
X3506777Y-16937389D02*
X3497253Y-16899293D01*
X3497253Y-16899293D02*
X3497253Y-16851674D01*
X3497253Y-16851674D02*
X3506777Y-16813579D01*
X3506777Y-16813579D02*
X3516301Y-16794531D01*
X3516301Y-16794531D02*
X3525824Y-16785008D01*
X3525824Y-16785008D02*
X3544872Y-16775484D01*
X3697253Y-16956436D02*
X3706777Y-16965960D01*
X3706777Y-16965960D02*
X3697253Y-16975484D01*
X3697253Y-16975484D02*
X3687729Y-16965960D01*
X3687729Y-16965960D02*
X3697253Y-16956436D01*
X3697253Y-16956436D02*
X3697253Y-16975484D01*
X3821062Y-16861198D02*
X3802015Y-16851674D01*
X3802015Y-16851674D02*
X3792491Y-16842150D01*
X3792491Y-16842150D02*
X3782967Y-16823103D01*
X3782967Y-16823103D02*
X3782967Y-16813579D01*
X3782967Y-16813579D02*
X3792491Y-16794531D01*
X3792491Y-16794531D02*
X3802015Y-16785008D01*
X3802015Y-16785008D02*
X3821062Y-16775484D01*
X3821062Y-16775484D02*
X3859158Y-16775484D01*
X3859158Y-16775484D02*
X3878205Y-16785008D01*
X3878205Y-16785008D02*
X3887729Y-16794531D01*
X3887729Y-16794531D02*
X3897253Y-16813579D01*
X3897253Y-16813579D02*
X3897253Y-16823103D01*
X3897253Y-16823103D02*
X3887729Y-16842150D01*
X3887729Y-16842150D02*
X3878205Y-16851674D01*
X3878205Y-16851674D02*
X3859158Y-16861198D01*
X3859158Y-16861198D02*
X3821062Y-16861198D01*
X3821062Y-16861198D02*
X3802015Y-16870722D01*
X3802015Y-16870722D02*
X3792491Y-16880246D01*
X3792491Y-16880246D02*
X3782967Y-16899293D01*
X3782967Y-16899293D02*
X3782967Y-16937389D01*
X3782967Y-16937389D02*
X3792491Y-16956436D01*
X3792491Y-16956436D02*
X3802015Y-16965960D01*
X3802015Y-16965960D02*
X3821062Y-16975484D01*
X3821062Y-16975484D02*
X3859158Y-16975484D01*
X3859158Y-16975484D02*
X3878205Y-16965960D01*
X3878205Y-16965960D02*
X3887729Y-16956436D01*
X3887729Y-16956436D02*
X3897253Y-16937389D01*
X3897253Y-16937389D02*
X3897253Y-16899293D01*
X3897253Y-16899293D02*
X3887729Y-16880246D01*
X3887729Y-16880246D02*
X3878205Y-16870722D01*
X3878205Y-16870722D02*
X3859158Y-16861198D01*
X4021062Y-16775484D02*
X4040110Y-16775484D01*
X4040110Y-16775484D02*
X4059158Y-16785008D01*
X4059158Y-16785008D02*
X4068682Y-16794531D01*
X4068682Y-16794531D02*
X4078205Y-16813579D01*
X4078205Y-16813579D02*
X4087729Y-16851674D01*
X4087729Y-16851674D02*
X4087729Y-16899293D01*
X4087729Y-16899293D02*
X4078205Y-16937389D01*
X4078205Y-16937389D02*
X4068682Y-16956436D01*
X4068682Y-16956436D02*
X4059158Y-16965960D01*
X4059158Y-16965960D02*
X4040110Y-16975484D01*
X4040110Y-16975484D02*
X4021062Y-16975484D01*
X4021062Y-16975484D02*
X4002015Y-16965960D01*
X4002015Y-16965960D02*
X3992491Y-16956436D01*
X3992491Y-16956436D02*
X3982967Y-16937389D01*
X3982967Y-16937389D02*
X3973443Y-16899293D01*
X3973443Y-16899293D02*
X3973443Y-16851674D01*
X3973443Y-16851674D02*
X3982967Y-16813579D01*
X3982967Y-16813579D02*
X3992491Y-16794531D01*
X3992491Y-16794531D02*
X4002015Y-16785008D01*
X4002015Y-16785008D02*
X4021062Y-16775484D01*
X4211539Y-16775484D02*
X4230586Y-16775484D01*
X4230586Y-16775484D02*
X4249634Y-16785008D01*
X4249634Y-16785008D02*
X4259158Y-16794531D01*
X4259158Y-16794531D02*
X4268682Y-16813579D01*
X4268682Y-16813579D02*
X4278205Y-16851674D01*
X4278205Y-16851674D02*
X4278205Y-16899293D01*
X4278205Y-16899293D02*
X4268682Y-16937389D01*
X4268682Y-16937389D02*
X4259158Y-16956436D01*
X4259158Y-16956436D02*
X4249634Y-16965960D01*
X4249634Y-16965960D02*
X4230586Y-16975484D01*
X4230586Y-16975484D02*
X4211539Y-16975484D01*
X4211539Y-16975484D02*
X4192491Y-16965960D01*
X4192491Y-16965960D02*
X4182967Y-16956436D01*
X4182967Y-16956436D02*
X4173443Y-16937389D01*
X4173443Y-16937389D02*
X4163920Y-16899293D01*
X4163920Y-16899293D02*
X4163920Y-16851674D01*
X4163920Y-16851674D02*
X4173443Y-16813579D01*
X4173443Y-16813579D02*
X4182967Y-16794531D01*
X4182967Y-16794531D02*
X4192491Y-16785008D01*
X4192491Y-16785008D02*
X4211539Y-16775484D01*
X4363920Y-16975484D02*
X4363920Y-16842150D01*
X4363920Y-16861198D02*
X4373444Y-16851674D01*
X4373444Y-16851674D02*
X4392491Y-16842150D01*
X4392491Y-16842150D02*
X4421063Y-16842150D01*
X4421063Y-16842150D02*
X4440110Y-16851674D01*
X4440110Y-16851674D02*
X4449634Y-16870722D01*
X4449634Y-16870722D02*
X4449634Y-16975484D01*
X4449634Y-16870722D02*
X4459158Y-16851674D01*
X4459158Y-16851674D02*
X4478205Y-16842150D01*
X4478205Y-16842150D02*
X4506777Y-16842150D01*
X4506777Y-16842150D02*
X4525825Y-16851674D01*
X4525825Y-16851674D02*
X4535348Y-16870722D01*
X4535348Y-16870722D02*
X4535348Y-16975484D01*
X4630586Y-16975484D02*
X4630586Y-16842150D01*
X4630586Y-16861198D02*
X4640110Y-16851674D01*
X4640110Y-16851674D02*
X4659158Y-16842150D01*
X4659158Y-16842150D02*
X4687729Y-16842150D01*
X4687729Y-16842150D02*
X4706777Y-16851674D01*
X4706777Y-16851674D02*
X4716301Y-16870722D01*
X4716301Y-16870722D02*
X4716301Y-16975484D01*
X4716301Y-16870722D02*
X4725825Y-16851674D01*
X4725825Y-16851674D02*
X4744872Y-16842150D01*
X4744872Y-16842150D02*
X4773444Y-16842150D01*
X4773444Y-16842150D02*
X4792491Y-16851674D01*
X4792491Y-16851674D02*
X4802015Y-16870722D01*
X4802015Y-16870722D02*
X4802015Y-16975484D01*
X5192491Y-16765960D02*
X5021063Y-17023103D01*
X5449634Y-16775484D02*
X5468682Y-16775484D01*
X5468682Y-16775484D02*
X5487729Y-16785008D01*
X5487729Y-16785008D02*
X5497253Y-16794531D01*
X5497253Y-16794531D02*
X5506777Y-16813579D01*
X5506777Y-16813579D02*
X5516301Y-16851674D01*
X5516301Y-16851674D02*
X5516301Y-16899293D01*
X5516301Y-16899293D02*
X5506777Y-16937389D01*
X5506777Y-16937389D02*
X5497253Y-16956436D01*
X5497253Y-16956436D02*
X5487729Y-16965960D01*
X5487729Y-16965960D02*
X5468682Y-16975484D01*
X5468682Y-16975484D02*
X5449634Y-16975484D01*
X5449634Y-16975484D02*
X5430587Y-16965960D01*
X5430587Y-16965960D02*
X5421063Y-16956436D01*
X5421063Y-16956436D02*
X5411539Y-16937389D01*
X5411539Y-16937389D02*
X5402015Y-16899293D01*
X5402015Y-16899293D02*
X5402015Y-16851674D01*
X5402015Y-16851674D02*
X5411539Y-16813579D01*
X5411539Y-16813579D02*
X5421063Y-16794531D01*
X5421063Y-16794531D02*
X5430587Y-16785008D01*
X5430587Y-16785008D02*
X5449634Y-16775484D01*
X5602015Y-16956436D02*
X5611539Y-16965960D01*
X5611539Y-16965960D02*
X5602015Y-16975484D01*
X5602015Y-16975484D02*
X5592491Y-16965960D01*
X5592491Y-16965960D02*
X5602015Y-16956436D01*
X5602015Y-16956436D02*
X5602015Y-16975484D01*
X5735348Y-16775484D02*
X5754396Y-16775484D01*
X5754396Y-16775484D02*
X5773444Y-16785008D01*
X5773444Y-16785008D02*
X5782967Y-16794531D01*
X5782967Y-16794531D02*
X5792491Y-16813579D01*
X5792491Y-16813579D02*
X5802015Y-16851674D01*
X5802015Y-16851674D02*
X5802015Y-16899293D01*
X5802015Y-16899293D02*
X5792491Y-16937389D01*
X5792491Y-16937389D02*
X5782967Y-16956436D01*
X5782967Y-16956436D02*
X5773444Y-16965960D01*
X5773444Y-16965960D02*
X5754396Y-16975484D01*
X5754396Y-16975484D02*
X5735348Y-16975484D01*
X5735348Y-16975484D02*
X5716301Y-16965960D01*
X5716301Y-16965960D02*
X5706777Y-16956436D01*
X5706777Y-16956436D02*
X5697253Y-16937389D01*
X5697253Y-16937389D02*
X5687729Y-16899293D01*
X5687729Y-16899293D02*
X5687729Y-16851674D01*
X5687729Y-16851674D02*
X5697253Y-16813579D01*
X5697253Y-16813579D02*
X5706777Y-16794531D01*
X5706777Y-16794531D02*
X5716301Y-16785008D01*
X5716301Y-16785008D02*
X5735348Y-16775484D01*
X5868682Y-16775484D02*
X5992491Y-16775484D01*
X5992491Y-16775484D02*
X5925825Y-16851674D01*
X5925825Y-16851674D02*
X5954396Y-16851674D01*
X5954396Y-16851674D02*
X5973444Y-16861198D01*
X5973444Y-16861198D02*
X5982967Y-16870722D01*
X5982967Y-16870722D02*
X5992491Y-16889770D01*
X5992491Y-16889770D02*
X5992491Y-16937389D01*
X5992491Y-16937389D02*
X5982967Y-16956436D01*
X5982967Y-16956436D02*
X5973444Y-16965960D01*
X5973444Y-16965960D02*
X5954396Y-16975484D01*
X5954396Y-16975484D02*
X5897253Y-16975484D01*
X5897253Y-16975484D02*
X5878206Y-16965960D01*
X5878206Y-16965960D02*
X5868682Y-16956436D01*
X6182967Y-16975484D02*
X6068682Y-16975484D01*
X6125825Y-16975484D02*
X6125825Y-16775484D01*
X6125825Y-16775484D02*
X6106777Y-16804055D01*
X6106777Y-16804055D02*
X6087729Y-16823103D01*
X6087729Y-16823103D02*
X6068682Y-16832627D01*
X6363920Y-16775484D02*
X6268682Y-16775484D01*
X6268682Y-16775484D02*
X6259158Y-16870722D01*
X6259158Y-16870722D02*
X6268682Y-16861198D01*
X6268682Y-16861198D02*
X6287729Y-16851674D01*
X6287729Y-16851674D02*
X6335348Y-16851674D01*
X6335348Y-16851674D02*
X6354396Y-16861198D01*
X6354396Y-16861198D02*
X6363920Y-16870722D01*
X6363920Y-16870722D02*
X6373444Y-16889770D01*
X6373444Y-16889770D02*
X6373444Y-16937389D01*
X6373444Y-16937389D02*
X6363920Y-16956436D01*
X6363920Y-16956436D02*
X6354396Y-16965960D01*
X6354396Y-16965960D02*
X6335348Y-16975484D01*
X6335348Y-16975484D02*
X6287729Y-16975484D01*
X6287729Y-16975484D02*
X6268682Y-16965960D01*
X6268682Y-16965960D02*
X6259158Y-16956436D01*
X6449634Y-16775484D02*
X6449634Y-16813579D01*
X6525825Y-16775484D02*
X6525825Y-16813579D01*
X6821063Y-17051674D02*
X6811539Y-17042150D01*
X6811539Y-17042150D02*
X6792491Y-17013579D01*
X6792491Y-17013579D02*
X6782968Y-16994531D01*
X6782968Y-16994531D02*
X6773444Y-16965960D01*
X6773444Y-16965960D02*
X6763920Y-16918341D01*
X6763920Y-16918341D02*
X6763920Y-16880246D01*
X6763920Y-16880246D02*
X6773444Y-16832627D01*
X6773444Y-16832627D02*
X6782968Y-16804055D01*
X6782968Y-16804055D02*
X6792491Y-16785008D01*
X6792491Y-16785008D02*
X6811539Y-16756436D01*
X6811539Y-16756436D02*
X6821063Y-16746912D01*
X6982968Y-16842150D02*
X6982968Y-16975484D01*
X6935348Y-16765960D02*
X6887729Y-16908817D01*
X6887729Y-16908817D02*
X7011539Y-16908817D01*
X7240110Y-16975484D02*
X7240110Y-16775484D01*
X7325825Y-16975484D02*
X7325825Y-16870722D01*
X7325825Y-16870722D02*
X7316301Y-16851674D01*
X7316301Y-16851674D02*
X7297253Y-16842150D01*
X7297253Y-16842150D02*
X7268682Y-16842150D01*
X7268682Y-16842150D02*
X7249634Y-16851674D01*
X7249634Y-16851674D02*
X7240110Y-16861198D01*
X7449634Y-16975484D02*
X7430587Y-16965960D01*
X7430587Y-16965960D02*
X7421063Y-16956436D01*
X7421063Y-16956436D02*
X7411539Y-16937389D01*
X7411539Y-16937389D02*
X7411539Y-16880246D01*
X7411539Y-16880246D02*
X7421063Y-16861198D01*
X7421063Y-16861198D02*
X7430587Y-16851674D01*
X7430587Y-16851674D02*
X7449634Y-16842150D01*
X7449634Y-16842150D02*
X7478206Y-16842150D01*
X7478206Y-16842150D02*
X7497253Y-16851674D01*
X7497253Y-16851674D02*
X7506777Y-16861198D01*
X7506777Y-16861198D02*
X7516301Y-16880246D01*
X7516301Y-16880246D02*
X7516301Y-16937389D01*
X7516301Y-16937389D02*
X7506777Y-16956436D01*
X7506777Y-16956436D02*
X7497253Y-16965960D01*
X7497253Y-16965960D02*
X7478206Y-16975484D01*
X7478206Y-16975484D02*
X7449634Y-16975484D01*
X7630587Y-16975484D02*
X7611539Y-16965960D01*
X7611539Y-16965960D02*
X7602015Y-16946912D01*
X7602015Y-16946912D02*
X7602015Y-16775484D01*
X7782968Y-16965960D02*
X7763920Y-16975484D01*
X7763920Y-16975484D02*
X7725825Y-16975484D01*
X7725825Y-16975484D02*
X7706777Y-16965960D01*
X7706777Y-16965960D02*
X7697253Y-16946912D01*
X7697253Y-16946912D02*
X7697253Y-16870722D01*
X7697253Y-16870722D02*
X7706777Y-16851674D01*
X7706777Y-16851674D02*
X7725825Y-16842150D01*
X7725825Y-16842150D02*
X7763920Y-16842150D01*
X7763920Y-16842150D02*
X7782968Y-16851674D01*
X7782968Y-16851674D02*
X7792491Y-16870722D01*
X7792491Y-16870722D02*
X7792491Y-16889770D01*
X7792491Y-16889770D02*
X7697253Y-16908817D01*
X7868682Y-16965960D02*
X7887730Y-16975484D01*
X7887730Y-16975484D02*
X7925825Y-16975484D01*
X7925825Y-16975484D02*
X7944872Y-16965960D01*
X7944872Y-16965960D02*
X7954396Y-16946912D01*
X7954396Y-16946912D02*
X7954396Y-16937389D01*
X7954396Y-16937389D02*
X7944872Y-16918341D01*
X7944872Y-16918341D02*
X7925825Y-16908817D01*
X7925825Y-16908817D02*
X7897253Y-16908817D01*
X7897253Y-16908817D02*
X7878206Y-16899293D01*
X7878206Y-16899293D02*
X7868682Y-16880246D01*
X7868682Y-16880246D02*
X7868682Y-16870722D01*
X7868682Y-16870722D02*
X7878206Y-16851674D01*
X7878206Y-16851674D02*
X7897253Y-16842150D01*
X7897253Y-16842150D02*
X7925825Y-16842150D01*
X7925825Y-16842150D02*
X7944872Y-16851674D01*
X8021063Y-17051674D02*
X8030587Y-17042150D01*
X8030587Y-17042150D02*
X8049634Y-17013579D01*
X8049634Y-17013579D02*
X8059158Y-16994531D01*
X8059158Y-16994531D02*
X8068682Y-16965960D01*
X8068682Y-16965960D02*
X8078206Y-16918341D01*
X8078206Y-16918341D02*
X8078206Y-16880246D01*
X8078206Y-16880246D02*
X8068682Y-16832627D01*
X8068682Y-16832627D02*
X8059158Y-16804055D01*
X8059158Y-16804055D02*
X8049634Y-16785008D01*
X8049634Y-16785008D02*
X8030587Y-16756436D01*
X8030587Y-16756436D02*
X8021063Y-16746912D01*
D10*
X3196000Y-17098000D02*
X3196000Y-17198000D01*
X3146000Y-17148000D02*
X3246000Y-17148000D01*
D11*
X3611539Y-17239484D02*
X3497253Y-17239484D01*
X3554396Y-17239484D02*
X3554396Y-17039484D01*
X3554396Y-17039484D02*
X3535348Y-17068055D01*
X3535348Y-17068055D02*
X3516301Y-17087103D01*
X3516301Y-17087103D02*
X3497253Y-17096627D01*
X3697253Y-17220436D02*
X3706777Y-17229960D01*
X3706777Y-17229960D02*
X3697253Y-17239484D01*
X3697253Y-17239484D02*
X3687729Y-17229960D01*
X3687729Y-17229960D02*
X3697253Y-17220436D01*
X3697253Y-17220436D02*
X3697253Y-17239484D01*
X3830586Y-17039484D02*
X3849634Y-17039484D01*
X3849634Y-17039484D02*
X3868682Y-17049008D01*
X3868682Y-17049008D02*
X3878205Y-17058531D01*
X3878205Y-17058531D02*
X3887729Y-17077579D01*
X3887729Y-17077579D02*
X3897253Y-17115674D01*
X3897253Y-17115674D02*
X3897253Y-17163293D01*
X3897253Y-17163293D02*
X3887729Y-17201389D01*
X3887729Y-17201389D02*
X3878205Y-17220436D01*
X3878205Y-17220436D02*
X3868682Y-17229960D01*
X3868682Y-17229960D02*
X3849634Y-17239484D01*
X3849634Y-17239484D02*
X3830586Y-17239484D01*
X3830586Y-17239484D02*
X3811539Y-17229960D01*
X3811539Y-17229960D02*
X3802015Y-17220436D01*
X3802015Y-17220436D02*
X3792491Y-17201389D01*
X3792491Y-17201389D02*
X3782967Y-17163293D01*
X3782967Y-17163293D02*
X3782967Y-17115674D01*
X3782967Y-17115674D02*
X3792491Y-17077579D01*
X3792491Y-17077579D02*
X3802015Y-17058531D01*
X3802015Y-17058531D02*
X3811539Y-17049008D01*
X3811539Y-17049008D02*
X3830586Y-17039484D01*
X4021062Y-17039484D02*
X4040110Y-17039484D01*
X4040110Y-17039484D02*
X4059158Y-17049008D01*
X4059158Y-17049008D02*
X4068682Y-17058531D01*
X4068682Y-17058531D02*
X4078205Y-17077579D01*
X4078205Y-17077579D02*
X4087729Y-17115674D01*
X4087729Y-17115674D02*
X4087729Y-17163293D01*
X4087729Y-17163293D02*
X4078205Y-17201389D01*
X4078205Y-17201389D02*
X4068682Y-17220436D01*
X4068682Y-17220436D02*
X4059158Y-17229960D01*
X4059158Y-17229960D02*
X4040110Y-17239484D01*
X4040110Y-17239484D02*
X4021062Y-17239484D01*
X4021062Y-17239484D02*
X4002015Y-17229960D01*
X4002015Y-17229960D02*
X3992491Y-17220436D01*
X3992491Y-17220436D02*
X3982967Y-17201389D01*
X3982967Y-17201389D02*
X3973443Y-17163293D01*
X3973443Y-17163293D02*
X3973443Y-17115674D01*
X3973443Y-17115674D02*
X3982967Y-17077579D01*
X3982967Y-17077579D02*
X3992491Y-17058531D01*
X3992491Y-17058531D02*
X4002015Y-17049008D01*
X4002015Y-17049008D02*
X4021062Y-17039484D01*
X4211539Y-17039484D02*
X4230586Y-17039484D01*
X4230586Y-17039484D02*
X4249634Y-17049008D01*
X4249634Y-17049008D02*
X4259158Y-17058531D01*
X4259158Y-17058531D02*
X4268682Y-17077579D01*
X4268682Y-17077579D02*
X4278205Y-17115674D01*
X4278205Y-17115674D02*
X4278205Y-17163293D01*
X4278205Y-17163293D02*
X4268682Y-17201389D01*
X4268682Y-17201389D02*
X4259158Y-17220436D01*
X4259158Y-17220436D02*
X4249634Y-17229960D01*
X4249634Y-17229960D02*
X4230586Y-17239484D01*
X4230586Y-17239484D02*
X4211539Y-17239484D01*
X4211539Y-17239484D02*
X4192491Y-17229960D01*
X4192491Y-17229960D02*
X4182967Y-17220436D01*
X4182967Y-17220436D02*
X4173443Y-17201389D01*
X4173443Y-17201389D02*
X4163920Y-17163293D01*
X4163920Y-17163293D02*
X4163920Y-17115674D01*
X4163920Y-17115674D02*
X4173443Y-17077579D01*
X4173443Y-17077579D02*
X4182967Y-17058531D01*
X4182967Y-17058531D02*
X4192491Y-17049008D01*
X4192491Y-17049008D02*
X4211539Y-17039484D01*
X4363920Y-17239484D02*
X4363920Y-17106150D01*
X4363920Y-17125198D02*
X4373444Y-17115674D01*
X4373444Y-17115674D02*
X4392491Y-17106150D01*
X4392491Y-17106150D02*
X4421063Y-17106150D01*
X4421063Y-17106150D02*
X4440110Y-17115674D01*
X4440110Y-17115674D02*
X4449634Y-17134722D01*
X4449634Y-17134722D02*
X4449634Y-17239484D01*
X4449634Y-17134722D02*
X4459158Y-17115674D01*
X4459158Y-17115674D02*
X4478205Y-17106150D01*
X4478205Y-17106150D02*
X4506777Y-17106150D01*
X4506777Y-17106150D02*
X4525825Y-17115674D01*
X4525825Y-17115674D02*
X4535348Y-17134722D01*
X4535348Y-17134722D02*
X4535348Y-17239484D01*
X4630586Y-17239484D02*
X4630586Y-17106150D01*
X4630586Y-17125198D02*
X4640110Y-17115674D01*
X4640110Y-17115674D02*
X4659158Y-17106150D01*
X4659158Y-17106150D02*
X4687729Y-17106150D01*
X4687729Y-17106150D02*
X4706777Y-17115674D01*
X4706777Y-17115674D02*
X4716301Y-17134722D01*
X4716301Y-17134722D02*
X4716301Y-17239484D01*
X4716301Y-17134722D02*
X4725825Y-17115674D01*
X4725825Y-17115674D02*
X4744872Y-17106150D01*
X4744872Y-17106150D02*
X4773444Y-17106150D01*
X4773444Y-17106150D02*
X4792491Y-17115674D01*
X4792491Y-17115674D02*
X4802015Y-17134722D01*
X4802015Y-17134722D02*
X4802015Y-17239484D01*
X5192491Y-17029960D02*
X5021063Y-17287103D01*
X5449634Y-17039484D02*
X5468682Y-17039484D01*
X5468682Y-17039484D02*
X5487729Y-17049008D01*
X5487729Y-17049008D02*
X5497253Y-17058531D01*
X5497253Y-17058531D02*
X5506777Y-17077579D01*
X5506777Y-17077579D02*
X5516301Y-17115674D01*
X5516301Y-17115674D02*
X5516301Y-17163293D01*
X5516301Y-17163293D02*
X5506777Y-17201389D01*
X5506777Y-17201389D02*
X5497253Y-17220436D01*
X5497253Y-17220436D02*
X5487729Y-17229960D01*
X5487729Y-17229960D02*
X5468682Y-17239484D01*
X5468682Y-17239484D02*
X5449634Y-17239484D01*
X5449634Y-17239484D02*
X5430587Y-17229960D01*
X5430587Y-17229960D02*
X5421063Y-17220436D01*
X5421063Y-17220436D02*
X5411539Y-17201389D01*
X5411539Y-17201389D02*
X5402015Y-17163293D01*
X5402015Y-17163293D02*
X5402015Y-17115674D01*
X5402015Y-17115674D02*
X5411539Y-17077579D01*
X5411539Y-17077579D02*
X5421063Y-17058531D01*
X5421063Y-17058531D02*
X5430587Y-17049008D01*
X5430587Y-17049008D02*
X5449634Y-17039484D01*
X5602015Y-17220436D02*
X5611539Y-17229960D01*
X5611539Y-17229960D02*
X5602015Y-17239484D01*
X5602015Y-17239484D02*
X5592491Y-17229960D01*
X5592491Y-17229960D02*
X5602015Y-17220436D01*
X5602015Y-17220436D02*
X5602015Y-17239484D01*
X5735348Y-17039484D02*
X5754396Y-17039484D01*
X5754396Y-17039484D02*
X5773444Y-17049008D01*
X5773444Y-17049008D02*
X5782967Y-17058531D01*
X5782967Y-17058531D02*
X5792491Y-17077579D01*
X5792491Y-17077579D02*
X5802015Y-17115674D01*
X5802015Y-17115674D02*
X5802015Y-17163293D01*
X5802015Y-17163293D02*
X5792491Y-17201389D01*
X5792491Y-17201389D02*
X5782967Y-17220436D01*
X5782967Y-17220436D02*
X5773444Y-17229960D01*
X5773444Y-17229960D02*
X5754396Y-17239484D01*
X5754396Y-17239484D02*
X5735348Y-17239484D01*
X5735348Y-17239484D02*
X5716301Y-17229960D01*
X5716301Y-17229960D02*
X5706777Y-17220436D01*
X5706777Y-17220436D02*
X5697253Y-17201389D01*
X5697253Y-17201389D02*
X5687729Y-17163293D01*
X5687729Y-17163293D02*
X5687729Y-17115674D01*
X5687729Y-17115674D02*
X5697253Y-17077579D01*
X5697253Y-17077579D02*
X5706777Y-17058531D01*
X5706777Y-17058531D02*
X5716301Y-17049008D01*
X5716301Y-17049008D02*
X5735348Y-17039484D01*
X5868682Y-17039484D02*
X5992491Y-17039484D01*
X5992491Y-17039484D02*
X5925825Y-17115674D01*
X5925825Y-17115674D02*
X5954396Y-17115674D01*
X5954396Y-17115674D02*
X5973444Y-17125198D01*
X5973444Y-17125198D02*
X5982967Y-17134722D01*
X5982967Y-17134722D02*
X5992491Y-17153770D01*
X5992491Y-17153770D02*
X5992491Y-17201389D01*
X5992491Y-17201389D02*
X5982967Y-17220436D01*
X5982967Y-17220436D02*
X5973444Y-17229960D01*
X5973444Y-17229960D02*
X5954396Y-17239484D01*
X5954396Y-17239484D02*
X5897253Y-17239484D01*
X5897253Y-17239484D02*
X5878206Y-17229960D01*
X5878206Y-17229960D02*
X5868682Y-17220436D01*
X6087729Y-17239484D02*
X6125825Y-17239484D01*
X6125825Y-17239484D02*
X6144872Y-17229960D01*
X6144872Y-17229960D02*
X6154396Y-17220436D01*
X6154396Y-17220436D02*
X6173444Y-17191865D01*
X6173444Y-17191865D02*
X6182967Y-17153770D01*
X6182967Y-17153770D02*
X6182967Y-17077579D01*
X6182967Y-17077579D02*
X6173444Y-17058531D01*
X6173444Y-17058531D02*
X6163920Y-17049008D01*
X6163920Y-17049008D02*
X6144872Y-17039484D01*
X6144872Y-17039484D02*
X6106777Y-17039484D01*
X6106777Y-17039484D02*
X6087729Y-17049008D01*
X6087729Y-17049008D02*
X6078206Y-17058531D01*
X6078206Y-17058531D02*
X6068682Y-17077579D01*
X6068682Y-17077579D02*
X6068682Y-17125198D01*
X6068682Y-17125198D02*
X6078206Y-17144246D01*
X6078206Y-17144246D02*
X6087729Y-17153770D01*
X6087729Y-17153770D02*
X6106777Y-17163293D01*
X6106777Y-17163293D02*
X6144872Y-17163293D01*
X6144872Y-17163293D02*
X6163920Y-17153770D01*
X6163920Y-17153770D02*
X6173444Y-17144246D01*
X6173444Y-17144246D02*
X6182967Y-17125198D01*
X6354396Y-17106150D02*
X6354396Y-17239484D01*
X6306777Y-17029960D02*
X6259158Y-17172817D01*
X6259158Y-17172817D02*
X6382967Y-17172817D01*
X6449634Y-17039484D02*
X6449634Y-17077579D01*
X6525825Y-17039484D02*
X6525825Y-17077579D01*
X6821063Y-17315674D02*
X6811539Y-17306150D01*
X6811539Y-17306150D02*
X6792491Y-17277579D01*
X6792491Y-17277579D02*
X6782968Y-17258531D01*
X6782968Y-17258531D02*
X6773444Y-17229960D01*
X6773444Y-17229960D02*
X6763920Y-17182341D01*
X6763920Y-17182341D02*
X6763920Y-17144246D01*
X6763920Y-17144246D02*
X6773444Y-17096627D01*
X6773444Y-17096627D02*
X6782968Y-17068055D01*
X6782968Y-17068055D02*
X6792491Y-17049008D01*
X6792491Y-17049008D02*
X6811539Y-17020436D01*
X6811539Y-17020436D02*
X6821063Y-17010912D01*
X6982968Y-17039484D02*
X6944872Y-17039484D01*
X6944872Y-17039484D02*
X6925825Y-17049008D01*
X6925825Y-17049008D02*
X6916301Y-17058531D01*
X6916301Y-17058531D02*
X6897253Y-17087103D01*
X6897253Y-17087103D02*
X6887729Y-17125198D01*
X6887729Y-17125198D02*
X6887729Y-17201389D01*
X6887729Y-17201389D02*
X6897253Y-17220436D01*
X6897253Y-17220436D02*
X6906777Y-17229960D01*
X6906777Y-17229960D02*
X6925825Y-17239484D01*
X6925825Y-17239484D02*
X6963920Y-17239484D01*
X6963920Y-17239484D02*
X6982968Y-17229960D01*
X6982968Y-17229960D02*
X6992491Y-17220436D01*
X6992491Y-17220436D02*
X7002015Y-17201389D01*
X7002015Y-17201389D02*
X7002015Y-17153770D01*
X7002015Y-17153770D02*
X6992491Y-17134722D01*
X6992491Y-17134722D02*
X6982968Y-17125198D01*
X6982968Y-17125198D02*
X6963920Y-17115674D01*
X6963920Y-17115674D02*
X6925825Y-17115674D01*
X6925825Y-17115674D02*
X6906777Y-17125198D01*
X6906777Y-17125198D02*
X6897253Y-17134722D01*
X6897253Y-17134722D02*
X6887729Y-17153770D01*
X7182968Y-17039484D02*
X7087729Y-17039484D01*
X7087729Y-17039484D02*
X7078206Y-17134722D01*
X7078206Y-17134722D02*
X7087729Y-17125198D01*
X7087729Y-17125198D02*
X7106777Y-17115674D01*
X7106777Y-17115674D02*
X7154396Y-17115674D01*
X7154396Y-17115674D02*
X7173444Y-17125198D01*
X7173444Y-17125198D02*
X7182968Y-17134722D01*
X7182968Y-17134722D02*
X7192491Y-17153770D01*
X7192491Y-17153770D02*
X7192491Y-17201389D01*
X7192491Y-17201389D02*
X7182968Y-17220436D01*
X7182968Y-17220436D02*
X7173444Y-17229960D01*
X7173444Y-17229960D02*
X7154396Y-17239484D01*
X7154396Y-17239484D02*
X7106777Y-17239484D01*
X7106777Y-17239484D02*
X7087729Y-17229960D01*
X7087729Y-17229960D02*
X7078206Y-17220436D01*
X7430587Y-17239484D02*
X7430587Y-17039484D01*
X7516301Y-17239484D02*
X7516301Y-17134722D01*
X7516301Y-17134722D02*
X7506777Y-17115674D01*
X7506777Y-17115674D02*
X7487730Y-17106150D01*
X7487730Y-17106150D02*
X7459158Y-17106150D01*
X7459158Y-17106150D02*
X7440110Y-17115674D01*
X7440110Y-17115674D02*
X7430587Y-17125198D01*
X7640110Y-17239484D02*
X7621063Y-17229960D01*
X7621063Y-17229960D02*
X7611539Y-17220436D01*
X7611539Y-17220436D02*
X7602015Y-17201389D01*
X7602015Y-17201389D02*
X7602015Y-17144246D01*
X7602015Y-17144246D02*
X7611539Y-17125198D01*
X7611539Y-17125198D02*
X7621063Y-17115674D01*
X7621063Y-17115674D02*
X7640110Y-17106150D01*
X7640110Y-17106150D02*
X7668682Y-17106150D01*
X7668682Y-17106150D02*
X7687730Y-17115674D01*
X7687730Y-17115674D02*
X7697253Y-17125198D01*
X7697253Y-17125198D02*
X7706777Y-17144246D01*
X7706777Y-17144246D02*
X7706777Y-17201389D01*
X7706777Y-17201389D02*
X7697253Y-17220436D01*
X7697253Y-17220436D02*
X7687730Y-17229960D01*
X7687730Y-17229960D02*
X7668682Y-17239484D01*
X7668682Y-17239484D02*
X7640110Y-17239484D01*
X7821063Y-17239484D02*
X7802015Y-17229960D01*
X7802015Y-17229960D02*
X7792491Y-17210912D01*
X7792491Y-17210912D02*
X7792491Y-17039484D01*
X7973444Y-17229960D02*
X7954396Y-17239484D01*
X7954396Y-17239484D02*
X7916301Y-17239484D01*
X7916301Y-17239484D02*
X7897253Y-17229960D01*
X7897253Y-17229960D02*
X7887730Y-17210912D01*
X7887730Y-17210912D02*
X7887730Y-17134722D01*
X7887730Y-17134722D02*
X7897253Y-17115674D01*
X7897253Y-17115674D02*
X7916301Y-17106150D01*
X7916301Y-17106150D02*
X7954396Y-17106150D01*
X7954396Y-17106150D02*
X7973444Y-17115674D01*
X7973444Y-17115674D02*
X7982968Y-17134722D01*
X7982968Y-17134722D02*
X7982968Y-17153770D01*
X7982968Y-17153770D02*
X7887730Y-17172817D01*
X8059158Y-17229960D02*
X8078206Y-17239484D01*
X8078206Y-17239484D02*
X8116301Y-17239484D01*
X8116301Y-17239484D02*
X8135349Y-17229960D01*
X8135349Y-17229960D02*
X8144872Y-17210912D01*
X8144872Y-17210912D02*
X8144872Y-17201389D01*
X8144872Y-17201389D02*
X8135349Y-17182341D01*
X8135349Y-17182341D02*
X8116301Y-17172817D01*
X8116301Y-17172817D02*
X8087730Y-17172817D01*
X8087730Y-17172817D02*
X8068682Y-17163293D01*
X8068682Y-17163293D02*
X8059158Y-17144246D01*
X8059158Y-17144246D02*
X8059158Y-17134722D01*
X8059158Y-17134722D02*
X8068682Y-17115674D01*
X8068682Y-17115674D02*
X8087730Y-17106150D01*
X8087730Y-17106150D02*
X8116301Y-17106150D01*
X8116301Y-17106150D02*
X8135349Y-17115674D01*
X8211539Y-17315674D02*
X8221063Y-17306150D01*
X8221063Y-17306150D02*
X8240111Y-17277579D01*
X8240111Y-17277579D02*
X8249634Y-17258531D01*
X8249634Y-17258531D02*
X8259158Y-17229960D01*
X8259158Y-17229960D02*
X8268682Y-17182341D01*
X8268682Y-17182341D02*
X8268682Y-17144246D01*
X8268682Y-17144246D02*
X8259158Y-17096627D01*
X8259158Y-17096627D02*
X8249634Y-17068055D01*
X8249634Y-17068055D02*
X8240111Y-17049008D01*
X8240111Y-17049008D02*
X8221063Y-17020436D01*
X8221063Y-17020436D02*
X8211539Y-17010912D01*
D12*
X3229891Y-17450891D02*
X3229891Y-17373109D01*
X3152109Y-17373109D01*
X3152109Y-17450891D01*
X3229891Y-17450891D01*
D11*
X3611539Y-17503484D02*
X3497253Y-17503484D01*
X3554396Y-17503484D02*
X3554396Y-17303484D01*
X3554396Y-17303484D02*
X3535348Y-17332055D01*
X3535348Y-17332055D02*
X3516301Y-17351103D01*
X3516301Y-17351103D02*
X3497253Y-17360627D01*
X3697253Y-17484436D02*
X3706777Y-17493960D01*
X3706777Y-17493960D02*
X3697253Y-17503484D01*
X3697253Y-17503484D02*
X3687729Y-17493960D01*
X3687729Y-17493960D02*
X3697253Y-17484436D01*
X3697253Y-17484436D02*
X3697253Y-17503484D01*
X3897253Y-17503484D02*
X3782967Y-17503484D01*
X3840110Y-17503484D02*
X3840110Y-17303484D01*
X3840110Y-17303484D02*
X3821062Y-17332055D01*
X3821062Y-17332055D02*
X3802015Y-17351103D01*
X3802015Y-17351103D02*
X3782967Y-17360627D01*
X4021062Y-17303484D02*
X4040110Y-17303484D01*
X4040110Y-17303484D02*
X4059158Y-17313008D01*
X4059158Y-17313008D02*
X4068682Y-17322531D01*
X4068682Y-17322531D02*
X4078205Y-17341579D01*
X4078205Y-17341579D02*
X4087729Y-17379674D01*
X4087729Y-17379674D02*
X4087729Y-17427293D01*
X4087729Y-17427293D02*
X4078205Y-17465389D01*
X4078205Y-17465389D02*
X4068682Y-17484436D01*
X4068682Y-17484436D02*
X4059158Y-17493960D01*
X4059158Y-17493960D02*
X4040110Y-17503484D01*
X4040110Y-17503484D02*
X4021062Y-17503484D01*
X4021062Y-17503484D02*
X4002015Y-17493960D01*
X4002015Y-17493960D02*
X3992491Y-17484436D01*
X3992491Y-17484436D02*
X3982967Y-17465389D01*
X3982967Y-17465389D02*
X3973443Y-17427293D01*
X3973443Y-17427293D02*
X3973443Y-17379674D01*
X3973443Y-17379674D02*
X3982967Y-17341579D01*
X3982967Y-17341579D02*
X3992491Y-17322531D01*
X3992491Y-17322531D02*
X4002015Y-17313008D01*
X4002015Y-17313008D02*
X4021062Y-17303484D01*
X4211539Y-17303484D02*
X4230586Y-17303484D01*
X4230586Y-17303484D02*
X4249634Y-17313008D01*
X4249634Y-17313008D02*
X4259158Y-17322531D01*
X4259158Y-17322531D02*
X4268682Y-17341579D01*
X4268682Y-17341579D02*
X4278205Y-17379674D01*
X4278205Y-17379674D02*
X4278205Y-17427293D01*
X4278205Y-17427293D02*
X4268682Y-17465389D01*
X4268682Y-17465389D02*
X4259158Y-17484436D01*
X4259158Y-17484436D02*
X4249634Y-17493960D01*
X4249634Y-17493960D02*
X4230586Y-17503484D01*
X4230586Y-17503484D02*
X4211539Y-17503484D01*
X4211539Y-17503484D02*
X4192491Y-17493960D01*
X4192491Y-17493960D02*
X4182967Y-17484436D01*
X4182967Y-17484436D02*
X4173443Y-17465389D01*
X4173443Y-17465389D02*
X4163920Y-17427293D01*
X4163920Y-17427293D02*
X4163920Y-17379674D01*
X4163920Y-17379674D02*
X4173443Y-17341579D01*
X4173443Y-17341579D02*
X4182967Y-17322531D01*
X4182967Y-17322531D02*
X4192491Y-17313008D01*
X4192491Y-17313008D02*
X4211539Y-17303484D01*
X4363920Y-17503484D02*
X4363920Y-17370150D01*
X4363920Y-17389198D02*
X4373444Y-17379674D01*
X4373444Y-17379674D02*
X4392491Y-17370150D01*
X4392491Y-17370150D02*
X4421063Y-17370150D01*
X4421063Y-17370150D02*
X4440110Y-17379674D01*
X4440110Y-17379674D02*
X4449634Y-17398722D01*
X4449634Y-17398722D02*
X4449634Y-17503484D01*
X4449634Y-17398722D02*
X4459158Y-17379674D01*
X4459158Y-17379674D02*
X4478205Y-17370150D01*
X4478205Y-17370150D02*
X4506777Y-17370150D01*
X4506777Y-17370150D02*
X4525825Y-17379674D01*
X4525825Y-17379674D02*
X4535348Y-17398722D01*
X4535348Y-17398722D02*
X4535348Y-17503484D01*
X4630586Y-17503484D02*
X4630586Y-17370150D01*
X4630586Y-17389198D02*
X4640110Y-17379674D01*
X4640110Y-17379674D02*
X4659158Y-17370150D01*
X4659158Y-17370150D02*
X4687729Y-17370150D01*
X4687729Y-17370150D02*
X4706777Y-17379674D01*
X4706777Y-17379674D02*
X4716301Y-17398722D01*
X4716301Y-17398722D02*
X4716301Y-17503484D01*
X4716301Y-17398722D02*
X4725825Y-17379674D01*
X4725825Y-17379674D02*
X4744872Y-17370150D01*
X4744872Y-17370150D02*
X4773444Y-17370150D01*
X4773444Y-17370150D02*
X4792491Y-17379674D01*
X4792491Y-17379674D02*
X4802015Y-17398722D01*
X4802015Y-17398722D02*
X4802015Y-17503484D01*
X5192491Y-17293960D02*
X5021063Y-17551103D01*
X5449634Y-17303484D02*
X5468682Y-17303484D01*
X5468682Y-17303484D02*
X5487729Y-17313008D01*
X5487729Y-17313008D02*
X5497253Y-17322531D01*
X5497253Y-17322531D02*
X5506777Y-17341579D01*
X5506777Y-17341579D02*
X5516301Y-17379674D01*
X5516301Y-17379674D02*
X5516301Y-17427293D01*
X5516301Y-17427293D02*
X5506777Y-17465389D01*
X5506777Y-17465389D02*
X5497253Y-17484436D01*
X5497253Y-17484436D02*
X5487729Y-17493960D01*
X5487729Y-17493960D02*
X5468682Y-17503484D01*
X5468682Y-17503484D02*
X5449634Y-17503484D01*
X5449634Y-17503484D02*
X5430587Y-17493960D01*
X5430587Y-17493960D02*
X5421063Y-17484436D01*
X5421063Y-17484436D02*
X5411539Y-17465389D01*
X5411539Y-17465389D02*
X5402015Y-17427293D01*
X5402015Y-17427293D02*
X5402015Y-17379674D01*
X5402015Y-17379674D02*
X5411539Y-17341579D01*
X5411539Y-17341579D02*
X5421063Y-17322531D01*
X5421063Y-17322531D02*
X5430587Y-17313008D01*
X5430587Y-17313008D02*
X5449634Y-17303484D01*
X5602015Y-17484436D02*
X5611539Y-17493960D01*
X5611539Y-17493960D02*
X5602015Y-17503484D01*
X5602015Y-17503484D02*
X5592491Y-17493960D01*
X5592491Y-17493960D02*
X5602015Y-17484436D01*
X5602015Y-17484436D02*
X5602015Y-17503484D01*
X5735348Y-17303484D02*
X5754396Y-17303484D01*
X5754396Y-17303484D02*
X5773444Y-17313008D01*
X5773444Y-17313008D02*
X5782967Y-17322531D01*
X5782967Y-17322531D02*
X5792491Y-17341579D01*
X5792491Y-17341579D02*
X5802015Y-17379674D01*
X5802015Y-17379674D02*
X5802015Y-17427293D01*
X5802015Y-17427293D02*
X5792491Y-17465389D01*
X5792491Y-17465389D02*
X5782967Y-17484436D01*
X5782967Y-17484436D02*
X5773444Y-17493960D01*
X5773444Y-17493960D02*
X5754396Y-17503484D01*
X5754396Y-17503484D02*
X5735348Y-17503484D01*
X5735348Y-17503484D02*
X5716301Y-17493960D01*
X5716301Y-17493960D02*
X5706777Y-17484436D01*
X5706777Y-17484436D02*
X5697253Y-17465389D01*
X5697253Y-17465389D02*
X5687729Y-17427293D01*
X5687729Y-17427293D02*
X5687729Y-17379674D01*
X5687729Y-17379674D02*
X5697253Y-17341579D01*
X5697253Y-17341579D02*
X5706777Y-17322531D01*
X5706777Y-17322531D02*
X5716301Y-17313008D01*
X5716301Y-17313008D02*
X5735348Y-17303484D01*
X5973444Y-17370150D02*
X5973444Y-17503484D01*
X5925825Y-17293960D02*
X5878206Y-17436817D01*
X5878206Y-17436817D02*
X6002015Y-17436817D01*
X6059158Y-17303484D02*
X6182967Y-17303484D01*
X6182967Y-17303484D02*
X6116301Y-17379674D01*
X6116301Y-17379674D02*
X6144872Y-17379674D01*
X6144872Y-17379674D02*
X6163920Y-17389198D01*
X6163920Y-17389198D02*
X6173444Y-17398722D01*
X6173444Y-17398722D02*
X6182967Y-17417770D01*
X6182967Y-17417770D02*
X6182967Y-17465389D01*
X6182967Y-17465389D02*
X6173444Y-17484436D01*
X6173444Y-17484436D02*
X6163920Y-17493960D01*
X6163920Y-17493960D02*
X6144872Y-17503484D01*
X6144872Y-17503484D02*
X6087729Y-17503484D01*
X6087729Y-17503484D02*
X6068682Y-17493960D01*
X6068682Y-17493960D02*
X6059158Y-17484436D01*
X6249634Y-17303484D02*
X6373444Y-17303484D01*
X6373444Y-17303484D02*
X6306777Y-17379674D01*
X6306777Y-17379674D02*
X6335348Y-17379674D01*
X6335348Y-17379674D02*
X6354396Y-17389198D01*
X6354396Y-17389198D02*
X6363920Y-17398722D01*
X6363920Y-17398722D02*
X6373444Y-17417770D01*
X6373444Y-17417770D02*
X6373444Y-17465389D01*
X6373444Y-17465389D02*
X6363920Y-17484436D01*
X6363920Y-17484436D02*
X6354396Y-17493960D01*
X6354396Y-17493960D02*
X6335348Y-17503484D01*
X6335348Y-17503484D02*
X6278206Y-17503484D01*
X6278206Y-17503484D02*
X6259158Y-17493960D01*
X6259158Y-17493960D02*
X6249634Y-17484436D01*
X6449634Y-17303484D02*
X6449634Y-17341579D01*
X6525825Y-17303484D02*
X6525825Y-17341579D01*
X6821063Y-17579674D02*
X6811539Y-17570150D01*
X6811539Y-17570150D02*
X6792491Y-17541579D01*
X6792491Y-17541579D02*
X6782968Y-17522531D01*
X6782968Y-17522531D02*
X6773444Y-17493960D01*
X6773444Y-17493960D02*
X6763920Y-17446341D01*
X6763920Y-17446341D02*
X6763920Y-17408246D01*
X6763920Y-17408246D02*
X6773444Y-17360627D01*
X6773444Y-17360627D02*
X6782968Y-17332055D01*
X6782968Y-17332055D02*
X6792491Y-17313008D01*
X6792491Y-17313008D02*
X6811539Y-17284436D01*
X6811539Y-17284436D02*
X6821063Y-17274912D01*
X6887729Y-17322531D02*
X6897253Y-17313008D01*
X6897253Y-17313008D02*
X6916301Y-17303484D01*
X6916301Y-17303484D02*
X6963920Y-17303484D01*
X6963920Y-17303484D02*
X6982968Y-17313008D01*
X6982968Y-17313008D02*
X6992491Y-17322531D01*
X6992491Y-17322531D02*
X7002015Y-17341579D01*
X7002015Y-17341579D02*
X7002015Y-17360627D01*
X7002015Y-17360627D02*
X6992491Y-17389198D01*
X6992491Y-17389198D02*
X6878206Y-17503484D01*
X6878206Y-17503484D02*
X7002015Y-17503484D01*
X7240110Y-17503484D02*
X7240110Y-17303484D01*
X7325825Y-17503484D02*
X7325825Y-17398722D01*
X7325825Y-17398722D02*
X7316301Y-17379674D01*
X7316301Y-17379674D02*
X7297253Y-17370150D01*
X7297253Y-17370150D02*
X7268682Y-17370150D01*
X7268682Y-17370150D02*
X7249634Y-17379674D01*
X7249634Y-17379674D02*
X7240110Y-17389198D01*
X7449634Y-17503484D02*
X7430587Y-17493960D01*
X7430587Y-17493960D02*
X7421063Y-17484436D01*
X7421063Y-17484436D02*
X7411539Y-17465389D01*
X7411539Y-17465389D02*
X7411539Y-17408246D01*
X7411539Y-17408246D02*
X7421063Y-17389198D01*
X7421063Y-17389198D02*
X7430587Y-17379674D01*
X7430587Y-17379674D02*
X7449634Y-17370150D01*
X7449634Y-17370150D02*
X7478206Y-17370150D01*
X7478206Y-17370150D02*
X7497253Y-17379674D01*
X7497253Y-17379674D02*
X7506777Y-17389198D01*
X7506777Y-17389198D02*
X7516301Y-17408246D01*
X7516301Y-17408246D02*
X7516301Y-17465389D01*
X7516301Y-17465389D02*
X7506777Y-17484436D01*
X7506777Y-17484436D02*
X7497253Y-17493960D01*
X7497253Y-17493960D02*
X7478206Y-17503484D01*
X7478206Y-17503484D02*
X7449634Y-17503484D01*
X7630587Y-17503484D02*
X7611539Y-17493960D01*
X7611539Y-17493960D02*
X7602015Y-17474912D01*
X7602015Y-17474912D02*
X7602015Y-17303484D01*
X7782968Y-17493960D02*
X7763920Y-17503484D01*
X7763920Y-17503484D02*
X7725825Y-17503484D01*
X7725825Y-17503484D02*
X7706777Y-17493960D01*
X7706777Y-17493960D02*
X7697253Y-17474912D01*
X7697253Y-17474912D02*
X7697253Y-17398722D01*
X7697253Y-17398722D02*
X7706777Y-17379674D01*
X7706777Y-17379674D02*
X7725825Y-17370150D01*
X7725825Y-17370150D02*
X7763920Y-17370150D01*
X7763920Y-17370150D02*
X7782968Y-17379674D01*
X7782968Y-17379674D02*
X7792491Y-17398722D01*
X7792491Y-17398722D02*
X7792491Y-17417770D01*
X7792491Y-17417770D02*
X7697253Y-17436817D01*
X7868682Y-17493960D02*
X7887730Y-17503484D01*
X7887730Y-17503484D02*
X7925825Y-17503484D01*
X7925825Y-17503484D02*
X7944872Y-17493960D01*
X7944872Y-17493960D02*
X7954396Y-17474912D01*
X7954396Y-17474912D02*
X7954396Y-17465389D01*
X7954396Y-17465389D02*
X7944872Y-17446341D01*
X7944872Y-17446341D02*
X7925825Y-17436817D01*
X7925825Y-17436817D02*
X7897253Y-17436817D01*
X7897253Y-17436817D02*
X7878206Y-17427293D01*
X7878206Y-17427293D02*
X7868682Y-17408246D01*
X7868682Y-17408246D02*
X7868682Y-17398722D01*
X7868682Y-17398722D02*
X7878206Y-17379674D01*
X7878206Y-17379674D02*
X7897253Y-17370150D01*
X7897253Y-17370150D02*
X7925825Y-17370150D01*
X7925825Y-17370150D02*
X7944872Y-17379674D01*
X8021063Y-17579674D02*
X8030587Y-17570150D01*
X8030587Y-17570150D02*
X8049634Y-17541579D01*
X8049634Y-17541579D02*
X8059158Y-17522531D01*
X8059158Y-17522531D02*
X8068682Y-17493960D01*
X8068682Y-17493960D02*
X8078206Y-17446341D01*
X8078206Y-17446341D02*
X8078206Y-17408246D01*
X8078206Y-17408246D02*
X8068682Y-17360627D01*
X8068682Y-17360627D02*
X8059158Y-17332055D01*
X8059158Y-17332055D02*
X8049634Y-17313008D01*
X8049634Y-17313008D02*
X8030587Y-17284436D01*
X8030587Y-17284436D02*
X8021063Y-17274912D01*
X3146000Y-17776000D02*
X3246000Y-17676000D01*
X3146000Y-17576000D01*
X3046000Y-17676000D01*
X3146000Y-17776000D01*
X3487729Y-17567484D02*
X3611539Y-17567484D01*
X3611539Y-17567484D02*
X3544872Y-17643674D01*
X3544872Y-17643674D02*
X3573443Y-17643674D01*
X3573443Y-17643674D02*
X3592491Y-17653198D01*
X3592491Y-17653198D02*
X3602015Y-17662722D01*
X3602015Y-17662722D02*
X3611539Y-17681770D01*
X3611539Y-17681770D02*
X3611539Y-17729389D01*
X3611539Y-17729389D02*
X3602015Y-17748436D01*
X3602015Y-17748436D02*
X3592491Y-17757960D01*
X3592491Y-17757960D02*
X3573443Y-17767484D01*
X3573443Y-17767484D02*
X3516301Y-17767484D01*
X3516301Y-17767484D02*
X3497253Y-17757960D01*
X3497253Y-17757960D02*
X3487729Y-17748436D01*
X3697253Y-17748436D02*
X3706777Y-17757960D01*
X3706777Y-17757960D02*
X3697253Y-17767484D01*
X3697253Y-17767484D02*
X3687729Y-17757960D01*
X3687729Y-17757960D02*
X3697253Y-17748436D01*
X3697253Y-17748436D02*
X3697253Y-17767484D01*
X3782967Y-17586531D02*
X3792491Y-17577008D01*
X3792491Y-17577008D02*
X3811539Y-17567484D01*
X3811539Y-17567484D02*
X3859158Y-17567484D01*
X3859158Y-17567484D02*
X3878205Y-17577008D01*
X3878205Y-17577008D02*
X3887729Y-17586531D01*
X3887729Y-17586531D02*
X3897253Y-17605579D01*
X3897253Y-17605579D02*
X3897253Y-17624627D01*
X3897253Y-17624627D02*
X3887729Y-17653198D01*
X3887729Y-17653198D02*
X3773443Y-17767484D01*
X3773443Y-17767484D02*
X3897253Y-17767484D01*
X4021062Y-17567484D02*
X4040110Y-17567484D01*
X4040110Y-17567484D02*
X4059158Y-17577008D01*
X4059158Y-17577008D02*
X4068682Y-17586531D01*
X4068682Y-17586531D02*
X4078205Y-17605579D01*
X4078205Y-17605579D02*
X4087729Y-17643674D01*
X4087729Y-17643674D02*
X4087729Y-17691293D01*
X4087729Y-17691293D02*
X4078205Y-17729389D01*
X4078205Y-17729389D02*
X4068682Y-17748436D01*
X4068682Y-17748436D02*
X4059158Y-17757960D01*
X4059158Y-17757960D02*
X4040110Y-17767484D01*
X4040110Y-17767484D02*
X4021062Y-17767484D01*
X4021062Y-17767484D02*
X4002015Y-17757960D01*
X4002015Y-17757960D02*
X3992491Y-17748436D01*
X3992491Y-17748436D02*
X3982967Y-17729389D01*
X3982967Y-17729389D02*
X3973443Y-17691293D01*
X3973443Y-17691293D02*
X3973443Y-17643674D01*
X3973443Y-17643674D02*
X3982967Y-17605579D01*
X3982967Y-17605579D02*
X3992491Y-17586531D01*
X3992491Y-17586531D02*
X4002015Y-17577008D01*
X4002015Y-17577008D02*
X4021062Y-17567484D01*
X4211539Y-17567484D02*
X4230586Y-17567484D01*
X4230586Y-17567484D02*
X4249634Y-17577008D01*
X4249634Y-17577008D02*
X4259158Y-17586531D01*
X4259158Y-17586531D02*
X4268682Y-17605579D01*
X4268682Y-17605579D02*
X4278205Y-17643674D01*
X4278205Y-17643674D02*
X4278205Y-17691293D01*
X4278205Y-17691293D02*
X4268682Y-17729389D01*
X4268682Y-17729389D02*
X4259158Y-17748436D01*
X4259158Y-17748436D02*
X4249634Y-17757960D01*
X4249634Y-17757960D02*
X4230586Y-17767484D01*
X4230586Y-17767484D02*
X4211539Y-17767484D01*
X4211539Y-17767484D02*
X4192491Y-17757960D01*
X4192491Y-17757960D02*
X4182967Y-17748436D01*
X4182967Y-17748436D02*
X4173443Y-17729389D01*
X4173443Y-17729389D02*
X4163920Y-17691293D01*
X4163920Y-17691293D02*
X4163920Y-17643674D01*
X4163920Y-17643674D02*
X4173443Y-17605579D01*
X4173443Y-17605579D02*
X4182967Y-17586531D01*
X4182967Y-17586531D02*
X4192491Y-17577008D01*
X4192491Y-17577008D02*
X4211539Y-17567484D01*
X4363920Y-17767484D02*
X4363920Y-17634150D01*
X4363920Y-17653198D02*
X4373444Y-17643674D01*
X4373444Y-17643674D02*
X4392491Y-17634150D01*
X4392491Y-17634150D02*
X4421063Y-17634150D01*
X4421063Y-17634150D02*
X4440110Y-17643674D01*
X4440110Y-17643674D02*
X4449634Y-17662722D01*
X4449634Y-17662722D02*
X4449634Y-17767484D01*
X4449634Y-17662722D02*
X4459158Y-17643674D01*
X4459158Y-17643674D02*
X4478205Y-17634150D01*
X4478205Y-17634150D02*
X4506777Y-17634150D01*
X4506777Y-17634150D02*
X4525825Y-17643674D01*
X4525825Y-17643674D02*
X4535348Y-17662722D01*
X4535348Y-17662722D02*
X4535348Y-17767484D01*
X4630586Y-17767484D02*
X4630586Y-17634150D01*
X4630586Y-17653198D02*
X4640110Y-17643674D01*
X4640110Y-17643674D02*
X4659158Y-17634150D01*
X4659158Y-17634150D02*
X4687729Y-17634150D01*
X4687729Y-17634150D02*
X4706777Y-17643674D01*
X4706777Y-17643674D02*
X4716301Y-17662722D01*
X4716301Y-17662722D02*
X4716301Y-17767484D01*
X4716301Y-17662722D02*
X4725825Y-17643674D01*
X4725825Y-17643674D02*
X4744872Y-17634150D01*
X4744872Y-17634150D02*
X4773444Y-17634150D01*
X4773444Y-17634150D02*
X4792491Y-17643674D01*
X4792491Y-17643674D02*
X4802015Y-17662722D01*
X4802015Y-17662722D02*
X4802015Y-17767484D01*
X5192491Y-17557960D02*
X5021063Y-17815103D01*
X5449634Y-17567484D02*
X5468682Y-17567484D01*
X5468682Y-17567484D02*
X5487729Y-17577008D01*
X5487729Y-17577008D02*
X5497253Y-17586531D01*
X5497253Y-17586531D02*
X5506777Y-17605579D01*
X5506777Y-17605579D02*
X5516301Y-17643674D01*
X5516301Y-17643674D02*
X5516301Y-17691293D01*
X5516301Y-17691293D02*
X5506777Y-17729389D01*
X5506777Y-17729389D02*
X5497253Y-17748436D01*
X5497253Y-17748436D02*
X5487729Y-17757960D01*
X5487729Y-17757960D02*
X5468682Y-17767484D01*
X5468682Y-17767484D02*
X5449634Y-17767484D01*
X5449634Y-17767484D02*
X5430587Y-17757960D01*
X5430587Y-17757960D02*
X5421063Y-17748436D01*
X5421063Y-17748436D02*
X5411539Y-17729389D01*
X5411539Y-17729389D02*
X5402015Y-17691293D01*
X5402015Y-17691293D02*
X5402015Y-17643674D01*
X5402015Y-17643674D02*
X5411539Y-17605579D01*
X5411539Y-17605579D02*
X5421063Y-17586531D01*
X5421063Y-17586531D02*
X5430587Y-17577008D01*
X5430587Y-17577008D02*
X5449634Y-17567484D01*
X5602015Y-17748436D02*
X5611539Y-17757960D01*
X5611539Y-17757960D02*
X5602015Y-17767484D01*
X5602015Y-17767484D02*
X5592491Y-17757960D01*
X5592491Y-17757960D02*
X5602015Y-17748436D01*
X5602015Y-17748436D02*
X5602015Y-17767484D01*
X5802015Y-17767484D02*
X5687729Y-17767484D01*
X5744872Y-17767484D02*
X5744872Y-17567484D01*
X5744872Y-17567484D02*
X5725825Y-17596055D01*
X5725825Y-17596055D02*
X5706777Y-17615103D01*
X5706777Y-17615103D02*
X5687729Y-17624627D01*
X5878206Y-17586531D02*
X5887729Y-17577008D01*
X5887729Y-17577008D02*
X5906777Y-17567484D01*
X5906777Y-17567484D02*
X5954396Y-17567484D01*
X5954396Y-17567484D02*
X5973444Y-17577008D01*
X5973444Y-17577008D02*
X5982967Y-17586531D01*
X5982967Y-17586531D02*
X5992491Y-17605579D01*
X5992491Y-17605579D02*
X5992491Y-17624627D01*
X5992491Y-17624627D02*
X5982967Y-17653198D01*
X5982967Y-17653198D02*
X5868682Y-17767484D01*
X5868682Y-17767484D02*
X5992491Y-17767484D01*
X6163920Y-17567484D02*
X6125825Y-17567484D01*
X6125825Y-17567484D02*
X6106777Y-17577008D01*
X6106777Y-17577008D02*
X6097253Y-17586531D01*
X6097253Y-17586531D02*
X6078206Y-17615103D01*
X6078206Y-17615103D02*
X6068682Y-17653198D01*
X6068682Y-17653198D02*
X6068682Y-17729389D01*
X6068682Y-17729389D02*
X6078206Y-17748436D01*
X6078206Y-17748436D02*
X6087729Y-17757960D01*
X6087729Y-17757960D02*
X6106777Y-17767484D01*
X6106777Y-17767484D02*
X6144872Y-17767484D01*
X6144872Y-17767484D02*
X6163920Y-17757960D01*
X6163920Y-17757960D02*
X6173444Y-17748436D01*
X6173444Y-17748436D02*
X6182967Y-17729389D01*
X6182967Y-17729389D02*
X6182967Y-17681770D01*
X6182967Y-17681770D02*
X6173444Y-17662722D01*
X6173444Y-17662722D02*
X6163920Y-17653198D01*
X6163920Y-17653198D02*
X6144872Y-17643674D01*
X6144872Y-17643674D02*
X6106777Y-17643674D01*
X6106777Y-17643674D02*
X6087729Y-17653198D01*
X6087729Y-17653198D02*
X6078206Y-17662722D01*
X6078206Y-17662722D02*
X6068682Y-17681770D01*
X6306777Y-17567484D02*
X6325825Y-17567484D01*
X6325825Y-17567484D02*
X6344872Y-17577008D01*
X6344872Y-17577008D02*
X6354396Y-17586531D01*
X6354396Y-17586531D02*
X6363920Y-17605579D01*
X6363920Y-17605579D02*
X6373444Y-17643674D01*
X6373444Y-17643674D02*
X6373444Y-17691293D01*
X6373444Y-17691293D02*
X6363920Y-17729389D01*
X6363920Y-17729389D02*
X6354396Y-17748436D01*
X6354396Y-17748436D02*
X6344872Y-17757960D01*
X6344872Y-17757960D02*
X6325825Y-17767484D01*
X6325825Y-17767484D02*
X6306777Y-17767484D01*
X6306777Y-17767484D02*
X6287729Y-17757960D01*
X6287729Y-17757960D02*
X6278206Y-17748436D01*
X6278206Y-17748436D02*
X6268682Y-17729389D01*
X6268682Y-17729389D02*
X6259158Y-17691293D01*
X6259158Y-17691293D02*
X6259158Y-17643674D01*
X6259158Y-17643674D02*
X6268682Y-17605579D01*
X6268682Y-17605579D02*
X6278206Y-17586531D01*
X6278206Y-17586531D02*
X6287729Y-17577008D01*
X6287729Y-17577008D02*
X6306777Y-17567484D01*
X6449634Y-17567484D02*
X6449634Y-17605579D01*
X6525825Y-17567484D02*
X6525825Y-17605579D01*
X6821063Y-17843674D02*
X6811539Y-17834150D01*
X6811539Y-17834150D02*
X6792491Y-17805579D01*
X6792491Y-17805579D02*
X6782968Y-17786531D01*
X6782968Y-17786531D02*
X6773444Y-17757960D01*
X6773444Y-17757960D02*
X6763920Y-17710341D01*
X6763920Y-17710341D02*
X6763920Y-17672246D01*
X6763920Y-17672246D02*
X6773444Y-17624627D01*
X6773444Y-17624627D02*
X6782968Y-17596055D01*
X6782968Y-17596055D02*
X6792491Y-17577008D01*
X6792491Y-17577008D02*
X6811539Y-17548436D01*
X6811539Y-17548436D02*
X6821063Y-17538912D01*
X6982968Y-17634150D02*
X6982968Y-17767484D01*
X6935348Y-17557960D02*
X6887729Y-17700817D01*
X6887729Y-17700817D02*
X7011539Y-17700817D01*
X7240110Y-17767484D02*
X7240110Y-17567484D01*
X7325825Y-17767484D02*
X7325825Y-17662722D01*
X7325825Y-17662722D02*
X7316301Y-17643674D01*
X7316301Y-17643674D02*
X7297253Y-17634150D01*
X7297253Y-17634150D02*
X7268682Y-17634150D01*
X7268682Y-17634150D02*
X7249634Y-17643674D01*
X7249634Y-17643674D02*
X7240110Y-17653198D01*
X7449634Y-17767484D02*
X7430587Y-17757960D01*
X7430587Y-17757960D02*
X7421063Y-17748436D01*
X7421063Y-17748436D02*
X7411539Y-17729389D01*
X7411539Y-17729389D02*
X7411539Y-17672246D01*
X7411539Y-17672246D02*
X7421063Y-17653198D01*
X7421063Y-17653198D02*
X7430587Y-17643674D01*
X7430587Y-17643674D02*
X7449634Y-17634150D01*
X7449634Y-17634150D02*
X7478206Y-17634150D01*
X7478206Y-17634150D02*
X7497253Y-17643674D01*
X7497253Y-17643674D02*
X7506777Y-17653198D01*
X7506777Y-17653198D02*
X7516301Y-17672246D01*
X7516301Y-17672246D02*
X7516301Y-17729389D01*
X7516301Y-17729389D02*
X7506777Y-17748436D01*
X7506777Y-17748436D02*
X7497253Y-17757960D01*
X7497253Y-17757960D02*
X7478206Y-17767484D01*
X7478206Y-17767484D02*
X7449634Y-17767484D01*
X7630587Y-17767484D02*
X7611539Y-17757960D01*
X7611539Y-17757960D02*
X7602015Y-17738912D01*
X7602015Y-17738912D02*
X7602015Y-17567484D01*
X7782968Y-17757960D02*
X7763920Y-17767484D01*
X7763920Y-17767484D02*
X7725825Y-17767484D01*
X7725825Y-17767484D02*
X7706777Y-17757960D01*
X7706777Y-17757960D02*
X7697253Y-17738912D01*
X7697253Y-17738912D02*
X7697253Y-17662722D01*
X7697253Y-17662722D02*
X7706777Y-17643674D01*
X7706777Y-17643674D02*
X7725825Y-17634150D01*
X7725825Y-17634150D02*
X7763920Y-17634150D01*
X7763920Y-17634150D02*
X7782968Y-17643674D01*
X7782968Y-17643674D02*
X7792491Y-17662722D01*
X7792491Y-17662722D02*
X7792491Y-17681770D01*
X7792491Y-17681770D02*
X7697253Y-17700817D01*
X7868682Y-17757960D02*
X7887730Y-17767484D01*
X7887730Y-17767484D02*
X7925825Y-17767484D01*
X7925825Y-17767484D02*
X7944872Y-17757960D01*
X7944872Y-17757960D02*
X7954396Y-17738912D01*
X7954396Y-17738912D02*
X7954396Y-17729389D01*
X7954396Y-17729389D02*
X7944872Y-17710341D01*
X7944872Y-17710341D02*
X7925825Y-17700817D01*
X7925825Y-17700817D02*
X7897253Y-17700817D01*
X7897253Y-17700817D02*
X7878206Y-17691293D01*
X7878206Y-17691293D02*
X7868682Y-17672246D01*
X7868682Y-17672246D02*
X7868682Y-17662722D01*
X7868682Y-17662722D02*
X7878206Y-17643674D01*
X7878206Y-17643674D02*
X7897253Y-17634150D01*
X7897253Y-17634150D02*
X7925825Y-17634150D01*
X7925825Y-17634150D02*
X7944872Y-17643674D01*
X8021063Y-17843674D02*
X8030587Y-17834150D01*
X8030587Y-17834150D02*
X8049634Y-17805579D01*
X8049634Y-17805579D02*
X8059158Y-17786531D01*
X8059158Y-17786531D02*
X8068682Y-17757960D01*
X8068682Y-17757960D02*
X8078206Y-17710341D01*
X8078206Y-17710341D02*
X8078206Y-17672246D01*
X8078206Y-17672246D02*
X8068682Y-17624627D01*
X8068682Y-17624627D02*
X8059158Y-17596055D01*
X8059158Y-17596055D02*
X8049634Y-17577008D01*
X8049634Y-17577008D02*
X8030587Y-17548436D01*
X8030587Y-17548436D02*
X8021063Y-17538912D01*
M02*
