%TF.GenerationSoftware,KiCad,Pcbnew,7.0.9*%
%TF.CreationDate,2025-03-02T20:15:54-05:00*%
%TF.ProjectId,Module_Nano_Pump,4d6f6475-6c65-45f4-9e61-6e6f5f50756d,rev?*%
%TF.SameCoordinates,Original*%
%TF.FileFunction,Soldermask,Top*%
%TF.FilePolarity,Negative*%
%FSLAX46Y46*%
G04 Gerber Fmt 4.6, Leading zero omitted, Abs format (unit mm)*
G04 Created by KiCad (PCBNEW 7.0.9) date 2025-03-02 20:15:54*
%MOMM*%
%LPD*%
G01*
G04 APERTURE LIST*
%ADD10R,2.200000X2.200000*%
%ADD11O,2.200000X2.200000*%
%ADD12C,1.700000*%
%ADD13C,0.990600*%
%ADD14O,4.013200X1.498600*%
%ADD15O,3.505200X1.498600*%
%ADD16O,1.498600X3.505200*%
%ADD17C,5.500000*%
%ADD18R,1.700000X1.700000*%
%ADD19O,1.700000X1.700000*%
%ADD20C,1.600000*%
%ADD21O,1.600000X1.600000*%
%ADD22R,1.600000X1.600000*%
G04 APERTURE END LIST*
D10*
%TO.C,D1*%
X66040000Y-57150000D03*
D11*
X55880000Y-57150000D03*
%TD*%
D12*
%TO.C,U1*%
X45720000Y-96520000D03*
X45720000Y-99060000D03*
X45720000Y-101600000D03*
X45720000Y-104140000D03*
X45720000Y-106680000D03*
X45720000Y-109220000D03*
X45720000Y-111760000D03*
X45720000Y-114300000D03*
X45720000Y-116840000D03*
X45720000Y-119380000D03*
X68580000Y-104140000D03*
X68580000Y-106680000D03*
X68580000Y-109220000D03*
X68580000Y-111760000D03*
%TD*%
D13*
%TO.C,J3*%
X51709000Y-148010800D03*
X51709000Y-146004200D03*
X48267311Y-144010300D03*
X48013300Y-150004700D03*
X46006700Y-150004700D03*
X45752711Y-144010300D03*
D14*
X47010000Y-144010300D03*
D15*
X47010000Y-150004700D03*
D16*
X51709000Y-147007500D03*
%TD*%
D17*
%TO.C,H2*%
X75010000Y-35250000D03*
%TD*%
D18*
%TO.C,J2*%
X67090000Y-153460000D03*
D19*
X67090000Y-156000000D03*
X64550000Y-153460000D03*
X64550000Y-156000000D03*
X62010000Y-153460000D03*
X62010000Y-156000000D03*
X59470000Y-153460000D03*
X59470000Y-156000000D03*
X56930000Y-153460000D03*
X56930000Y-156000000D03*
%TD*%
D18*
%TO.C,J4*%
X60550000Y-35250000D03*
D19*
X58010000Y-35250000D03*
X55470000Y-35250000D03*
X52930000Y-35250000D03*
X50390000Y-35250000D03*
%TD*%
D18*
%TO.C,J1*%
X72390000Y-57150000D03*
D19*
X74930000Y-57150000D03*
%TD*%
D17*
%TO.C,H1*%
X37510000Y-35250000D03*
%TD*%
D20*
%TO.C,R1*%
X67090000Y-142000000D03*
D21*
X56930000Y-142000000D03*
%TD*%
D17*
%TO.C,H3*%
X37510000Y-155000000D03*
%TD*%
D20*
%TO.C,R2*%
X67170000Y-147000000D03*
D21*
X57010000Y-147000000D03*
%TD*%
D17*
%TO.C,H4*%
X75010000Y-155000000D03*
%TD*%
D18*
%TO.C,J5*%
X64770000Y-46990000D03*
D19*
X64770000Y-44450000D03*
%TD*%
D22*
%TO.C,A1*%
X74930000Y-63500000D03*
D21*
X72390000Y-63500000D03*
X69850000Y-63500000D03*
X67310000Y-63500000D03*
X64770000Y-63500000D03*
X62230000Y-63500000D03*
X59690000Y-63500000D03*
X57150000Y-63500000D03*
X54610000Y-63500000D03*
X52070000Y-63500000D03*
X49530000Y-63500000D03*
X46990000Y-63500000D03*
X44450000Y-63500000D03*
X41910000Y-63500000D03*
X39370000Y-63500000D03*
X39370000Y-78740000D03*
X41910000Y-78740000D03*
X44450000Y-78740000D03*
X46990000Y-78740000D03*
X49530000Y-78740000D03*
X52070000Y-78740000D03*
X54610000Y-78740000D03*
X57150000Y-78740000D03*
X59690000Y-78740000D03*
X62230000Y-78740000D03*
X64770000Y-78740000D03*
X67310000Y-78740000D03*
X69850000Y-78740000D03*
X72390000Y-78740000D03*
X74930000Y-78740000D03*
%TD*%
D18*
%TO.C,J6*%
X48265000Y-136525000D03*
D19*
X45725000Y-136525000D03*
%TD*%
M02*
