%TF.GenerationSoftware,KiCad,Pcbnew,7.0.9*%
%TF.CreationDate,2025-03-02T20:15:54-05:00*%
%TF.ProjectId,Module_Nano_Pump,4d6f6475-6c65-45f4-9e61-6e6f5f50756d,rev?*%
%TF.SameCoordinates,Original*%
%TF.FileFunction,Legend,Top*%
%TF.FilePolarity,Positive*%
%FSLAX46Y46*%
G04 Gerber Fmt 4.6, Leading zero omitted, Abs format (unit mm)*
G04 Created by KiCad (PCBNEW 7.0.9) date 2025-03-02 20:15:54*
%MOMM*%
%LPD*%
G01*
G04 APERTURE LIST*
%ADD10C,0.150000*%
%ADD11C,0.100000*%
%ADD12C,0.120000*%
%ADD13C,0.152400*%
G04 APERTURE END LIST*
D10*
X64832200Y-151460839D02*
X64879819Y-151317982D01*
X64879819Y-151317982D02*
X64879819Y-151079887D01*
X64879819Y-151079887D02*
X64832200Y-150984649D01*
X64832200Y-150984649D02*
X64784580Y-150937030D01*
X64784580Y-150937030D02*
X64689342Y-150889411D01*
X64689342Y-150889411D02*
X64594104Y-150889411D01*
X64594104Y-150889411D02*
X64498866Y-150937030D01*
X64498866Y-150937030D02*
X64451247Y-150984649D01*
X64451247Y-150984649D02*
X64403628Y-151079887D01*
X64403628Y-151079887D02*
X64356009Y-151270363D01*
X64356009Y-151270363D02*
X64308390Y-151365601D01*
X64308390Y-151365601D02*
X64260771Y-151413220D01*
X64260771Y-151413220D02*
X64165533Y-151460839D01*
X64165533Y-151460839D02*
X64070295Y-151460839D01*
X64070295Y-151460839D02*
X63975057Y-151413220D01*
X63975057Y-151413220D02*
X63927438Y-151365601D01*
X63927438Y-151365601D02*
X63879819Y-151270363D01*
X63879819Y-151270363D02*
X63879819Y-151032268D01*
X63879819Y-151032268D02*
X63927438Y-150889411D01*
X64879819Y-150460839D02*
X63879819Y-150460839D01*
X63879819Y-150460839D02*
X63879819Y-150222744D01*
X63879819Y-150222744D02*
X63927438Y-150079887D01*
X63927438Y-150079887D02*
X64022676Y-149984649D01*
X64022676Y-149984649D02*
X64117914Y-149937030D01*
X64117914Y-149937030D02*
X64308390Y-149889411D01*
X64308390Y-149889411D02*
X64451247Y-149889411D01*
X64451247Y-149889411D02*
X64641723Y-149937030D01*
X64641723Y-149937030D02*
X64736961Y-149984649D01*
X64736961Y-149984649D02*
X64832200Y-150079887D01*
X64832200Y-150079887D02*
X64879819Y-150222744D01*
X64879819Y-150222744D02*
X64879819Y-150460839D01*
X64594104Y-149508458D02*
X64594104Y-149032268D01*
X64879819Y-149603696D02*
X63879819Y-149270363D01*
X63879819Y-149270363D02*
X64879819Y-148937030D01*
X57427438Y-39389411D02*
X57379819Y-39484649D01*
X57379819Y-39484649D02*
X57379819Y-39627506D01*
X57379819Y-39627506D02*
X57427438Y-39770363D01*
X57427438Y-39770363D02*
X57522676Y-39865601D01*
X57522676Y-39865601D02*
X57617914Y-39913220D01*
X57617914Y-39913220D02*
X57808390Y-39960839D01*
X57808390Y-39960839D02*
X57951247Y-39960839D01*
X57951247Y-39960839D02*
X58141723Y-39913220D01*
X58141723Y-39913220D02*
X58236961Y-39865601D01*
X58236961Y-39865601D02*
X58332200Y-39770363D01*
X58332200Y-39770363D02*
X58379819Y-39627506D01*
X58379819Y-39627506D02*
X58379819Y-39532268D01*
X58379819Y-39532268D02*
X58332200Y-39389411D01*
X58332200Y-39389411D02*
X58284580Y-39341792D01*
X58284580Y-39341792D02*
X57951247Y-39341792D01*
X57951247Y-39341792D02*
X57951247Y-39532268D01*
X58379819Y-38913220D02*
X57379819Y-38913220D01*
X57379819Y-38913220D02*
X58379819Y-38341792D01*
X58379819Y-38341792D02*
X57379819Y-38341792D01*
X58379819Y-37865601D02*
X57379819Y-37865601D01*
X57379819Y-37865601D02*
X57379819Y-37627506D01*
X57379819Y-37627506D02*
X57427438Y-37484649D01*
X57427438Y-37484649D02*
X57522676Y-37389411D01*
X57522676Y-37389411D02*
X57617914Y-37341792D01*
X57617914Y-37341792D02*
X57808390Y-37294173D01*
X57808390Y-37294173D02*
X57951247Y-37294173D01*
X57951247Y-37294173D02*
X58141723Y-37341792D01*
X58141723Y-37341792D02*
X58236961Y-37389411D01*
X58236961Y-37389411D02*
X58332200Y-37484649D01*
X58332200Y-37484649D02*
X58379819Y-37627506D01*
X58379819Y-37627506D02*
X58379819Y-37865601D01*
X35724819Y-133648220D02*
X34724819Y-133648220D01*
X34724819Y-133648220D02*
X34724819Y-133267268D01*
X34724819Y-133267268D02*
X34772438Y-133172030D01*
X34772438Y-133172030D02*
X34820057Y-133124411D01*
X34820057Y-133124411D02*
X34915295Y-133076792D01*
X34915295Y-133076792D02*
X35058152Y-133076792D01*
X35058152Y-133076792D02*
X35153390Y-133124411D01*
X35153390Y-133124411D02*
X35201009Y-133172030D01*
X35201009Y-133172030D02*
X35248628Y-133267268D01*
X35248628Y-133267268D02*
X35248628Y-133648220D01*
X35058152Y-132648220D02*
X35724819Y-132648220D01*
X35153390Y-132648220D02*
X35105771Y-132600601D01*
X35105771Y-132600601D02*
X35058152Y-132505363D01*
X35058152Y-132505363D02*
X35058152Y-132362506D01*
X35058152Y-132362506D02*
X35105771Y-132267268D01*
X35105771Y-132267268D02*
X35201009Y-132219649D01*
X35201009Y-132219649D02*
X35724819Y-132219649D01*
X35677200Y-131362506D02*
X35724819Y-131457744D01*
X35724819Y-131457744D02*
X35724819Y-131648220D01*
X35724819Y-131648220D02*
X35677200Y-131743458D01*
X35677200Y-131743458D02*
X35581961Y-131791077D01*
X35581961Y-131791077D02*
X35201009Y-131791077D01*
X35201009Y-131791077D02*
X35105771Y-131743458D01*
X35105771Y-131743458D02*
X35058152Y-131648220D01*
X35058152Y-131648220D02*
X35058152Y-131457744D01*
X35058152Y-131457744D02*
X35105771Y-131362506D01*
X35105771Y-131362506D02*
X35201009Y-131314887D01*
X35201009Y-131314887D02*
X35296247Y-131314887D01*
X35296247Y-131314887D02*
X35391485Y-131791077D01*
X35058152Y-130457744D02*
X35724819Y-130457744D01*
X35058152Y-130886315D02*
X35581961Y-130886315D01*
X35581961Y-130886315D02*
X35677200Y-130838696D01*
X35677200Y-130838696D02*
X35724819Y-130743458D01*
X35724819Y-130743458D02*
X35724819Y-130600601D01*
X35724819Y-130600601D02*
X35677200Y-130505363D01*
X35677200Y-130505363D02*
X35629580Y-130457744D01*
X35724819Y-129981553D02*
X35058152Y-129981553D01*
X35153390Y-129981553D02*
X35105771Y-129933934D01*
X35105771Y-129933934D02*
X35058152Y-129838696D01*
X35058152Y-129838696D02*
X35058152Y-129695839D01*
X35058152Y-129695839D02*
X35105771Y-129600601D01*
X35105771Y-129600601D02*
X35201009Y-129552982D01*
X35201009Y-129552982D02*
X35724819Y-129552982D01*
X35201009Y-129552982D02*
X35105771Y-129505363D01*
X35105771Y-129505363D02*
X35058152Y-129410125D01*
X35058152Y-129410125D02*
X35058152Y-129267268D01*
X35058152Y-129267268D02*
X35105771Y-129172029D01*
X35105771Y-129172029D02*
X35201009Y-129124410D01*
X35201009Y-129124410D02*
X35724819Y-129124410D01*
X35724819Y-128219649D02*
X35201009Y-128219649D01*
X35201009Y-128219649D02*
X35105771Y-128267268D01*
X35105771Y-128267268D02*
X35058152Y-128362506D01*
X35058152Y-128362506D02*
X35058152Y-128552982D01*
X35058152Y-128552982D02*
X35105771Y-128648220D01*
X35677200Y-128219649D02*
X35724819Y-128314887D01*
X35724819Y-128314887D02*
X35724819Y-128552982D01*
X35724819Y-128552982D02*
X35677200Y-128648220D01*
X35677200Y-128648220D02*
X35581961Y-128695839D01*
X35581961Y-128695839D02*
X35486723Y-128695839D01*
X35486723Y-128695839D02*
X35391485Y-128648220D01*
X35391485Y-128648220D02*
X35343866Y-128552982D01*
X35343866Y-128552982D02*
X35343866Y-128314887D01*
X35343866Y-128314887D02*
X35296247Y-128219649D01*
X35058152Y-127886315D02*
X35058152Y-127505363D01*
X34724819Y-127743458D02*
X35581961Y-127743458D01*
X35581961Y-127743458D02*
X35677200Y-127695839D01*
X35677200Y-127695839D02*
X35724819Y-127600601D01*
X35724819Y-127600601D02*
X35724819Y-127505363D01*
X35724819Y-126743458D02*
X35201009Y-126743458D01*
X35201009Y-126743458D02*
X35105771Y-126791077D01*
X35105771Y-126791077D02*
X35058152Y-126886315D01*
X35058152Y-126886315D02*
X35058152Y-127076791D01*
X35058152Y-127076791D02*
X35105771Y-127172029D01*
X35677200Y-126743458D02*
X35724819Y-126838696D01*
X35724819Y-126838696D02*
X35724819Y-127076791D01*
X35724819Y-127076791D02*
X35677200Y-127172029D01*
X35677200Y-127172029D02*
X35581961Y-127219648D01*
X35581961Y-127219648D02*
X35486723Y-127219648D01*
X35486723Y-127219648D02*
X35391485Y-127172029D01*
X35391485Y-127172029D02*
X35343866Y-127076791D01*
X35343866Y-127076791D02*
X35343866Y-126838696D01*
X35343866Y-126838696D02*
X35296247Y-126743458D01*
X35677200Y-125838696D02*
X35724819Y-125933934D01*
X35724819Y-125933934D02*
X35724819Y-126124410D01*
X35724819Y-126124410D02*
X35677200Y-126219648D01*
X35677200Y-126219648D02*
X35629580Y-126267267D01*
X35629580Y-126267267D02*
X35534342Y-126314886D01*
X35534342Y-126314886D02*
X35248628Y-126314886D01*
X35248628Y-126314886D02*
X35153390Y-126267267D01*
X35153390Y-126267267D02*
X35105771Y-126219648D01*
X35105771Y-126219648D02*
X35058152Y-126124410D01*
X35058152Y-126124410D02*
X35058152Y-125933934D01*
X35058152Y-125933934D02*
X35105771Y-125838696D01*
X35058152Y-125552981D02*
X35058152Y-125172029D01*
X34724819Y-125410124D02*
X35581961Y-125410124D01*
X35581961Y-125410124D02*
X35677200Y-125362505D01*
X35677200Y-125362505D02*
X35724819Y-125267267D01*
X35724819Y-125267267D02*
X35724819Y-125172029D01*
X35724819Y-124695838D02*
X35677200Y-124791076D01*
X35677200Y-124791076D02*
X35629580Y-124838695D01*
X35629580Y-124838695D02*
X35534342Y-124886314D01*
X35534342Y-124886314D02*
X35248628Y-124886314D01*
X35248628Y-124886314D02*
X35153390Y-124838695D01*
X35153390Y-124838695D02*
X35105771Y-124791076D01*
X35105771Y-124791076D02*
X35058152Y-124695838D01*
X35058152Y-124695838D02*
X35058152Y-124552981D01*
X35058152Y-124552981D02*
X35105771Y-124457743D01*
X35105771Y-124457743D02*
X35153390Y-124410124D01*
X35153390Y-124410124D02*
X35248628Y-124362505D01*
X35248628Y-124362505D02*
X35534342Y-124362505D01*
X35534342Y-124362505D02*
X35629580Y-124410124D01*
X35629580Y-124410124D02*
X35677200Y-124457743D01*
X35677200Y-124457743D02*
X35724819Y-124552981D01*
X35724819Y-124552981D02*
X35724819Y-124695838D01*
X35724819Y-123933933D02*
X35058152Y-123933933D01*
X35248628Y-123933933D02*
X35153390Y-123886314D01*
X35153390Y-123886314D02*
X35105771Y-123838695D01*
X35105771Y-123838695D02*
X35058152Y-123743457D01*
X35058152Y-123743457D02*
X35058152Y-123648219D01*
X35724819Y-122552980D02*
X34724819Y-122552980D01*
X34724819Y-122552980D02*
X34724819Y-122172028D01*
X34724819Y-122172028D02*
X34772438Y-122076790D01*
X34772438Y-122076790D02*
X34820057Y-122029171D01*
X34820057Y-122029171D02*
X34915295Y-121981552D01*
X34915295Y-121981552D02*
X35058152Y-121981552D01*
X35058152Y-121981552D02*
X35153390Y-122029171D01*
X35153390Y-122029171D02*
X35201009Y-122076790D01*
X35201009Y-122076790D02*
X35248628Y-122172028D01*
X35248628Y-122172028D02*
X35248628Y-122552980D01*
X35058152Y-121124409D02*
X35724819Y-121124409D01*
X35058152Y-121552980D02*
X35581961Y-121552980D01*
X35581961Y-121552980D02*
X35677200Y-121505361D01*
X35677200Y-121505361D02*
X35724819Y-121410123D01*
X35724819Y-121410123D02*
X35724819Y-121267266D01*
X35724819Y-121267266D02*
X35677200Y-121172028D01*
X35677200Y-121172028D02*
X35629580Y-121124409D01*
X35724819Y-120648218D02*
X35058152Y-120648218D01*
X35153390Y-120648218D02*
X35105771Y-120600599D01*
X35105771Y-120600599D02*
X35058152Y-120505361D01*
X35058152Y-120505361D02*
X35058152Y-120362504D01*
X35058152Y-120362504D02*
X35105771Y-120267266D01*
X35105771Y-120267266D02*
X35201009Y-120219647D01*
X35201009Y-120219647D02*
X35724819Y-120219647D01*
X35201009Y-120219647D02*
X35105771Y-120172028D01*
X35105771Y-120172028D02*
X35058152Y-120076790D01*
X35058152Y-120076790D02*
X35058152Y-119933933D01*
X35058152Y-119933933D02*
X35105771Y-119838694D01*
X35105771Y-119838694D02*
X35201009Y-119791075D01*
X35201009Y-119791075D02*
X35724819Y-119791075D01*
X35058152Y-119314885D02*
X36058152Y-119314885D01*
X35105771Y-119314885D02*
X35058152Y-119219647D01*
X35058152Y-119219647D02*
X35058152Y-119029171D01*
X35058152Y-119029171D02*
X35105771Y-118933933D01*
X35105771Y-118933933D02*
X35153390Y-118886314D01*
X35153390Y-118886314D02*
X35248628Y-118838695D01*
X35248628Y-118838695D02*
X35534342Y-118838695D01*
X35534342Y-118838695D02*
X35629580Y-118886314D01*
X35629580Y-118886314D02*
X35677200Y-118933933D01*
X35677200Y-118933933D02*
X35724819Y-119029171D01*
X35724819Y-119029171D02*
X35724819Y-119219647D01*
X35724819Y-119219647D02*
X35677200Y-119314885D01*
X35439104Y-117695837D02*
X35439104Y-117219647D01*
X35724819Y-117791075D02*
X34724819Y-117457742D01*
X34724819Y-117457742D02*
X35724819Y-117124409D01*
X35677200Y-116362504D02*
X35724819Y-116457742D01*
X35724819Y-116457742D02*
X35724819Y-116648218D01*
X35724819Y-116648218D02*
X35677200Y-116743456D01*
X35677200Y-116743456D02*
X35629580Y-116791075D01*
X35629580Y-116791075D02*
X35534342Y-116838694D01*
X35534342Y-116838694D02*
X35248628Y-116838694D01*
X35248628Y-116838694D02*
X35153390Y-116791075D01*
X35153390Y-116791075D02*
X35105771Y-116743456D01*
X35105771Y-116743456D02*
X35058152Y-116648218D01*
X35058152Y-116648218D02*
X35058152Y-116457742D01*
X35058152Y-116457742D02*
X35105771Y-116362504D01*
X35058152Y-116076789D02*
X35058152Y-115695837D01*
X34724819Y-115933932D02*
X35581961Y-115933932D01*
X35581961Y-115933932D02*
X35677200Y-115886313D01*
X35677200Y-115886313D02*
X35724819Y-115791075D01*
X35724819Y-115791075D02*
X35724819Y-115695837D01*
X35058152Y-114933932D02*
X35724819Y-114933932D01*
X35058152Y-115362503D02*
X35581961Y-115362503D01*
X35581961Y-115362503D02*
X35677200Y-115314884D01*
X35677200Y-115314884D02*
X35724819Y-115219646D01*
X35724819Y-115219646D02*
X35724819Y-115076789D01*
X35724819Y-115076789D02*
X35677200Y-114981551D01*
X35677200Y-114981551D02*
X35629580Y-114933932D01*
X35724819Y-114029170D02*
X35201009Y-114029170D01*
X35201009Y-114029170D02*
X35105771Y-114076789D01*
X35105771Y-114076789D02*
X35058152Y-114172027D01*
X35058152Y-114172027D02*
X35058152Y-114362503D01*
X35058152Y-114362503D02*
X35105771Y-114457741D01*
X35677200Y-114029170D02*
X35724819Y-114124408D01*
X35724819Y-114124408D02*
X35724819Y-114362503D01*
X35724819Y-114362503D02*
X35677200Y-114457741D01*
X35677200Y-114457741D02*
X35581961Y-114505360D01*
X35581961Y-114505360D02*
X35486723Y-114505360D01*
X35486723Y-114505360D02*
X35391485Y-114457741D01*
X35391485Y-114457741D02*
X35343866Y-114362503D01*
X35343866Y-114362503D02*
X35343866Y-114124408D01*
X35343866Y-114124408D02*
X35296247Y-114029170D01*
X35058152Y-113695836D02*
X35058152Y-113314884D01*
X34724819Y-113552979D02*
X35581961Y-113552979D01*
X35581961Y-113552979D02*
X35677200Y-113505360D01*
X35677200Y-113505360D02*
X35724819Y-113410122D01*
X35724819Y-113410122D02*
X35724819Y-113314884D01*
X35724819Y-112981550D02*
X35058152Y-112981550D01*
X34724819Y-112981550D02*
X34772438Y-113029169D01*
X34772438Y-113029169D02*
X34820057Y-112981550D01*
X34820057Y-112981550D02*
X34772438Y-112933931D01*
X34772438Y-112933931D02*
X34724819Y-112981550D01*
X34724819Y-112981550D02*
X34820057Y-112981550D01*
X35724819Y-112362503D02*
X35677200Y-112457741D01*
X35677200Y-112457741D02*
X35629580Y-112505360D01*
X35629580Y-112505360D02*
X35534342Y-112552979D01*
X35534342Y-112552979D02*
X35248628Y-112552979D01*
X35248628Y-112552979D02*
X35153390Y-112505360D01*
X35153390Y-112505360D02*
X35105771Y-112457741D01*
X35105771Y-112457741D02*
X35058152Y-112362503D01*
X35058152Y-112362503D02*
X35058152Y-112219646D01*
X35058152Y-112219646D02*
X35105771Y-112124408D01*
X35105771Y-112124408D02*
X35153390Y-112076789D01*
X35153390Y-112076789D02*
X35248628Y-112029170D01*
X35248628Y-112029170D02*
X35534342Y-112029170D01*
X35534342Y-112029170D02*
X35629580Y-112076789D01*
X35629580Y-112076789D02*
X35677200Y-112124408D01*
X35677200Y-112124408D02*
X35724819Y-112219646D01*
X35724819Y-112219646D02*
X35724819Y-112362503D01*
X35058152Y-111600598D02*
X35724819Y-111600598D01*
X35153390Y-111600598D02*
X35105771Y-111552979D01*
X35105771Y-111552979D02*
X35058152Y-111457741D01*
X35058152Y-111457741D02*
X35058152Y-111314884D01*
X35058152Y-111314884D02*
X35105771Y-111219646D01*
X35105771Y-111219646D02*
X35201009Y-111172027D01*
X35201009Y-111172027D02*
X35724819Y-111172027D01*
X35724819Y-109933931D02*
X34724819Y-109933931D01*
X34724819Y-109933931D02*
X35439104Y-109600598D01*
X35439104Y-109600598D02*
X34724819Y-109267265D01*
X34724819Y-109267265D02*
X35724819Y-109267265D01*
X35724819Y-108648217D02*
X35677200Y-108743455D01*
X35677200Y-108743455D02*
X35629580Y-108791074D01*
X35629580Y-108791074D02*
X35534342Y-108838693D01*
X35534342Y-108838693D02*
X35248628Y-108838693D01*
X35248628Y-108838693D02*
X35153390Y-108791074D01*
X35153390Y-108791074D02*
X35105771Y-108743455D01*
X35105771Y-108743455D02*
X35058152Y-108648217D01*
X35058152Y-108648217D02*
X35058152Y-108505360D01*
X35058152Y-108505360D02*
X35105771Y-108410122D01*
X35105771Y-108410122D02*
X35153390Y-108362503D01*
X35153390Y-108362503D02*
X35248628Y-108314884D01*
X35248628Y-108314884D02*
X35534342Y-108314884D01*
X35534342Y-108314884D02*
X35629580Y-108362503D01*
X35629580Y-108362503D02*
X35677200Y-108410122D01*
X35677200Y-108410122D02*
X35724819Y-108505360D01*
X35724819Y-108505360D02*
X35724819Y-108648217D01*
X35724819Y-107457741D02*
X34724819Y-107457741D01*
X35677200Y-107457741D02*
X35724819Y-107552979D01*
X35724819Y-107552979D02*
X35724819Y-107743455D01*
X35724819Y-107743455D02*
X35677200Y-107838693D01*
X35677200Y-107838693D02*
X35629580Y-107886312D01*
X35629580Y-107886312D02*
X35534342Y-107933931D01*
X35534342Y-107933931D02*
X35248628Y-107933931D01*
X35248628Y-107933931D02*
X35153390Y-107886312D01*
X35153390Y-107886312D02*
X35105771Y-107838693D01*
X35105771Y-107838693D02*
X35058152Y-107743455D01*
X35058152Y-107743455D02*
X35058152Y-107552979D01*
X35058152Y-107552979D02*
X35105771Y-107457741D01*
X35058152Y-106552979D02*
X35724819Y-106552979D01*
X35058152Y-106981550D02*
X35581961Y-106981550D01*
X35581961Y-106981550D02*
X35677200Y-106933931D01*
X35677200Y-106933931D02*
X35724819Y-106838693D01*
X35724819Y-106838693D02*
X35724819Y-106695836D01*
X35724819Y-106695836D02*
X35677200Y-106600598D01*
X35677200Y-106600598D02*
X35629580Y-106552979D01*
X35724819Y-105933931D02*
X35677200Y-106029169D01*
X35677200Y-106029169D02*
X35581961Y-106076788D01*
X35581961Y-106076788D02*
X34724819Y-106076788D01*
X35677200Y-105172026D02*
X35724819Y-105267264D01*
X35724819Y-105267264D02*
X35724819Y-105457740D01*
X35724819Y-105457740D02*
X35677200Y-105552978D01*
X35677200Y-105552978D02*
X35581961Y-105600597D01*
X35581961Y-105600597D02*
X35201009Y-105600597D01*
X35201009Y-105600597D02*
X35105771Y-105552978D01*
X35105771Y-105552978D02*
X35058152Y-105457740D01*
X35058152Y-105457740D02*
X35058152Y-105267264D01*
X35058152Y-105267264D02*
X35105771Y-105172026D01*
X35105771Y-105172026D02*
X35201009Y-105124407D01*
X35201009Y-105124407D02*
X35296247Y-105124407D01*
X35296247Y-105124407D02*
X35391485Y-105600597D01*
X36572914Y-132838696D02*
X36525295Y-132933935D01*
X36525295Y-132933935D02*
X36525295Y-133124411D01*
X36525295Y-133124411D02*
X36572914Y-133219649D01*
X36572914Y-133219649D02*
X36668152Y-133314887D01*
X36668152Y-133314887D02*
X36763390Y-133362506D01*
X36763390Y-133362506D02*
X36953866Y-133362506D01*
X36953866Y-133362506D02*
X37049104Y-133314887D01*
X37049104Y-133314887D02*
X37144342Y-133219649D01*
X37144342Y-133219649D02*
X37191961Y-133124411D01*
X37191961Y-133124411D02*
X37191961Y-132933935D01*
X37191961Y-132933935D02*
X37144342Y-132838696D01*
X36191961Y-133029173D02*
X36239580Y-133267268D01*
X36239580Y-133267268D02*
X36382438Y-133505363D01*
X36382438Y-133505363D02*
X36620533Y-133648220D01*
X36620533Y-133648220D02*
X36858628Y-133695839D01*
X36858628Y-133695839D02*
X37096723Y-133648220D01*
X37096723Y-133648220D02*
X37334819Y-133505363D01*
X37334819Y-133505363D02*
X37477676Y-133267268D01*
X37477676Y-133267268D02*
X37525295Y-133029173D01*
X37525295Y-133029173D02*
X37477676Y-132791077D01*
X37477676Y-132791077D02*
X37334819Y-132552982D01*
X37334819Y-132552982D02*
X37096723Y-132410125D01*
X37096723Y-132410125D02*
X36858628Y-132362506D01*
X36858628Y-132362506D02*
X36620533Y-132410125D01*
X36620533Y-132410125D02*
X36382438Y-132552982D01*
X36382438Y-132552982D02*
X36239580Y-132791077D01*
X36239580Y-132791077D02*
X36191961Y-133029173D01*
X37049104Y-131219648D02*
X37049104Y-130743458D01*
X37334819Y-131314886D02*
X36334819Y-130981553D01*
X36334819Y-130981553D02*
X37334819Y-130648220D01*
X36668152Y-130314886D02*
X37334819Y-130314886D01*
X36763390Y-130314886D02*
X36715771Y-130267267D01*
X36715771Y-130267267D02*
X36668152Y-130172029D01*
X36668152Y-130172029D02*
X36668152Y-130029172D01*
X36668152Y-130029172D02*
X36715771Y-129933934D01*
X36715771Y-129933934D02*
X36811009Y-129886315D01*
X36811009Y-129886315D02*
X37334819Y-129886315D01*
X36668152Y-129505362D02*
X37334819Y-129314886D01*
X37334819Y-129314886D02*
X36858628Y-129124410D01*
X36858628Y-129124410D02*
X37334819Y-128933934D01*
X37334819Y-128933934D02*
X36668152Y-128743458D01*
X37334819Y-127933934D02*
X36811009Y-127933934D01*
X36811009Y-127933934D02*
X36715771Y-127981553D01*
X36715771Y-127981553D02*
X36668152Y-128076791D01*
X36668152Y-128076791D02*
X36668152Y-128267267D01*
X36668152Y-128267267D02*
X36715771Y-128362505D01*
X37287200Y-127933934D02*
X37334819Y-128029172D01*
X37334819Y-128029172D02*
X37334819Y-128267267D01*
X37334819Y-128267267D02*
X37287200Y-128362505D01*
X37287200Y-128362505D02*
X37191961Y-128410124D01*
X37191961Y-128410124D02*
X37096723Y-128410124D01*
X37096723Y-128410124D02*
X37001485Y-128362505D01*
X37001485Y-128362505D02*
X36953866Y-128267267D01*
X36953866Y-128267267D02*
X36953866Y-128029172D01*
X36953866Y-128029172D02*
X36906247Y-127933934D01*
X36668152Y-127552981D02*
X37334819Y-127314886D01*
X36668152Y-127076791D02*
X37334819Y-127314886D01*
X37334819Y-127314886D02*
X37572914Y-127410124D01*
X37572914Y-127410124D02*
X37620533Y-127457743D01*
X37620533Y-127457743D02*
X37668152Y-127552981D01*
X37334819Y-125933933D02*
X36334819Y-125933933D01*
X36334819Y-125933933D02*
X36334819Y-125552981D01*
X36334819Y-125552981D02*
X36382438Y-125457743D01*
X36382438Y-125457743D02*
X36430057Y-125410124D01*
X36430057Y-125410124D02*
X36525295Y-125362505D01*
X36525295Y-125362505D02*
X36668152Y-125362505D01*
X36668152Y-125362505D02*
X36763390Y-125410124D01*
X36763390Y-125410124D02*
X36811009Y-125457743D01*
X36811009Y-125457743D02*
X36858628Y-125552981D01*
X36858628Y-125552981D02*
X36858628Y-125933933D01*
X37334819Y-124933933D02*
X36668152Y-124933933D01*
X36334819Y-124933933D02*
X36382438Y-124981552D01*
X36382438Y-124981552D02*
X36430057Y-124933933D01*
X36430057Y-124933933D02*
X36382438Y-124886314D01*
X36382438Y-124886314D02*
X36334819Y-124933933D01*
X36334819Y-124933933D02*
X36430057Y-124933933D01*
X37334819Y-124457743D02*
X36668152Y-124457743D01*
X36763390Y-124457743D02*
X36715771Y-124410124D01*
X36715771Y-124410124D02*
X36668152Y-124314886D01*
X36668152Y-124314886D02*
X36668152Y-124172029D01*
X36668152Y-124172029D02*
X36715771Y-124076791D01*
X36715771Y-124076791D02*
X36811009Y-124029172D01*
X36811009Y-124029172D02*
X37334819Y-124029172D01*
X36811009Y-124029172D02*
X36715771Y-123981553D01*
X36715771Y-123981553D02*
X36668152Y-123886315D01*
X36668152Y-123886315D02*
X36668152Y-123743458D01*
X36668152Y-123743458D02*
X36715771Y-123648219D01*
X36715771Y-123648219D02*
X36811009Y-123600600D01*
X36811009Y-123600600D02*
X37334819Y-123600600D01*
X36668152Y-123124410D02*
X37668152Y-123124410D01*
X36715771Y-123124410D02*
X36668152Y-123029172D01*
X36668152Y-123029172D02*
X36668152Y-122838696D01*
X36668152Y-122838696D02*
X36715771Y-122743458D01*
X36715771Y-122743458D02*
X36763390Y-122695839D01*
X36763390Y-122695839D02*
X36858628Y-122648220D01*
X36858628Y-122648220D02*
X37144342Y-122648220D01*
X37144342Y-122648220D02*
X37239580Y-122695839D01*
X37239580Y-122695839D02*
X37287200Y-122743458D01*
X37287200Y-122743458D02*
X37334819Y-122838696D01*
X37334819Y-122838696D02*
X37334819Y-123029172D01*
X37334819Y-123029172D02*
X37287200Y-123124410D01*
X37334819Y-121791077D02*
X36811009Y-121791077D01*
X36811009Y-121791077D02*
X36715771Y-121838696D01*
X36715771Y-121838696D02*
X36668152Y-121933934D01*
X36668152Y-121933934D02*
X36668152Y-122124410D01*
X36668152Y-122124410D02*
X36715771Y-122219648D01*
X37287200Y-121791077D02*
X37334819Y-121886315D01*
X37334819Y-121886315D02*
X37334819Y-122124410D01*
X37334819Y-122124410D02*
X37287200Y-122219648D01*
X37287200Y-122219648D02*
X37191961Y-122267267D01*
X37191961Y-122267267D02*
X37096723Y-122267267D01*
X37096723Y-122267267D02*
X37001485Y-122219648D01*
X37001485Y-122219648D02*
X36953866Y-122124410D01*
X36953866Y-122124410D02*
X36953866Y-121886315D01*
X36953866Y-121886315D02*
X36906247Y-121791077D01*
X37334819Y-121172029D02*
X37287200Y-121267267D01*
X37287200Y-121267267D02*
X37191961Y-121314886D01*
X37191961Y-121314886D02*
X36334819Y-121314886D01*
X37334819Y-120791076D02*
X36334819Y-120791076D01*
X36953866Y-120695838D02*
X37334819Y-120410124D01*
X36668152Y-120410124D02*
X37049104Y-120791076D01*
X37334819Y-119552981D02*
X36811009Y-119552981D01*
X36811009Y-119552981D02*
X36715771Y-119600600D01*
X36715771Y-119600600D02*
X36668152Y-119695838D01*
X36668152Y-119695838D02*
X36668152Y-119886314D01*
X36668152Y-119886314D02*
X36715771Y-119981552D01*
X37287200Y-119552981D02*
X37334819Y-119648219D01*
X37334819Y-119648219D02*
X37334819Y-119886314D01*
X37334819Y-119886314D02*
X37287200Y-119981552D01*
X37287200Y-119981552D02*
X37191961Y-120029171D01*
X37191961Y-120029171D02*
X37096723Y-120029171D01*
X37096723Y-120029171D02*
X37001485Y-119981552D01*
X37001485Y-119981552D02*
X36953866Y-119886314D01*
X36953866Y-119886314D02*
X36953866Y-119648219D01*
X36953866Y-119648219D02*
X36906247Y-119552981D01*
X37334819Y-119076790D02*
X36668152Y-119076790D01*
X36858628Y-119076790D02*
X36763390Y-119029171D01*
X36763390Y-119029171D02*
X36715771Y-118981552D01*
X36715771Y-118981552D02*
X36668152Y-118886314D01*
X36668152Y-118886314D02*
X36668152Y-118791076D01*
X36430057Y-117743456D02*
X36382438Y-117695837D01*
X36382438Y-117695837D02*
X36334819Y-117600599D01*
X36334819Y-117600599D02*
X36334819Y-117362504D01*
X36334819Y-117362504D02*
X36382438Y-117267266D01*
X36382438Y-117267266D02*
X36430057Y-117219647D01*
X36430057Y-117219647D02*
X36525295Y-117172028D01*
X36525295Y-117172028D02*
X36620533Y-117172028D01*
X36620533Y-117172028D02*
X36763390Y-117219647D01*
X36763390Y-117219647D02*
X37334819Y-117791075D01*
X37334819Y-117791075D02*
X37334819Y-117172028D01*
X36334819Y-116552980D02*
X36334819Y-116457742D01*
X36334819Y-116457742D02*
X36382438Y-116362504D01*
X36382438Y-116362504D02*
X36430057Y-116314885D01*
X36430057Y-116314885D02*
X36525295Y-116267266D01*
X36525295Y-116267266D02*
X36715771Y-116219647D01*
X36715771Y-116219647D02*
X36953866Y-116219647D01*
X36953866Y-116219647D02*
X37144342Y-116267266D01*
X37144342Y-116267266D02*
X37239580Y-116314885D01*
X37239580Y-116314885D02*
X37287200Y-116362504D01*
X37287200Y-116362504D02*
X37334819Y-116457742D01*
X37334819Y-116457742D02*
X37334819Y-116552980D01*
X37334819Y-116552980D02*
X37287200Y-116648218D01*
X37287200Y-116648218D02*
X37239580Y-116695837D01*
X37239580Y-116695837D02*
X37144342Y-116743456D01*
X37144342Y-116743456D02*
X36953866Y-116791075D01*
X36953866Y-116791075D02*
X36715771Y-116791075D01*
X36715771Y-116791075D02*
X36525295Y-116743456D01*
X36525295Y-116743456D02*
X36430057Y-116695837D01*
X36430057Y-116695837D02*
X36382438Y-116648218D01*
X36382438Y-116648218D02*
X36334819Y-116552980D01*
X36430057Y-115838694D02*
X36382438Y-115791075D01*
X36382438Y-115791075D02*
X36334819Y-115695837D01*
X36334819Y-115695837D02*
X36334819Y-115457742D01*
X36334819Y-115457742D02*
X36382438Y-115362504D01*
X36382438Y-115362504D02*
X36430057Y-115314885D01*
X36430057Y-115314885D02*
X36525295Y-115267266D01*
X36525295Y-115267266D02*
X36620533Y-115267266D01*
X36620533Y-115267266D02*
X36763390Y-115314885D01*
X36763390Y-115314885D02*
X37334819Y-115886313D01*
X37334819Y-115886313D02*
X37334819Y-115267266D01*
X36334819Y-114362504D02*
X36334819Y-114838694D01*
X36334819Y-114838694D02*
X36811009Y-114886313D01*
X36811009Y-114886313D02*
X36763390Y-114838694D01*
X36763390Y-114838694D02*
X36715771Y-114743456D01*
X36715771Y-114743456D02*
X36715771Y-114505361D01*
X36715771Y-114505361D02*
X36763390Y-114410123D01*
X36763390Y-114410123D02*
X36811009Y-114362504D01*
X36811009Y-114362504D02*
X36906247Y-114314885D01*
X36906247Y-114314885D02*
X37144342Y-114314885D01*
X37144342Y-114314885D02*
X37239580Y-114362504D01*
X37239580Y-114362504D02*
X37287200Y-114410123D01*
X37287200Y-114410123D02*
X37334819Y-114505361D01*
X37334819Y-114505361D02*
X37334819Y-114743456D01*
X37334819Y-114743456D02*
X37287200Y-114838694D01*
X37287200Y-114838694D02*
X37239580Y-114886313D01*
X67487969Y-43954819D02*
X67011779Y-43954819D01*
X67011779Y-43954819D02*
X66964160Y-44431009D01*
X66964160Y-44431009D02*
X67011779Y-44383390D01*
X67011779Y-44383390D02*
X67107017Y-44335771D01*
X67107017Y-44335771D02*
X67345112Y-44335771D01*
X67345112Y-44335771D02*
X67440350Y-44383390D01*
X67440350Y-44383390D02*
X67487969Y-44431009D01*
X67487969Y-44431009D02*
X67535588Y-44526247D01*
X67535588Y-44526247D02*
X67535588Y-44764342D01*
X67535588Y-44764342D02*
X67487969Y-44859580D01*
X67487969Y-44859580D02*
X67440350Y-44907200D01*
X67440350Y-44907200D02*
X67345112Y-44954819D01*
X67345112Y-44954819D02*
X67107017Y-44954819D01*
X67107017Y-44954819D02*
X67011779Y-44907200D01*
X67011779Y-44907200D02*
X66964160Y-44859580D01*
X67821303Y-43954819D02*
X68154636Y-44954819D01*
X68154636Y-44954819D02*
X68487969Y-43954819D01*
X68583208Y-45050057D02*
X69345112Y-45050057D01*
X69916541Y-44431009D02*
X70059398Y-44478628D01*
X70059398Y-44478628D02*
X70107017Y-44526247D01*
X70107017Y-44526247D02*
X70154636Y-44621485D01*
X70154636Y-44621485D02*
X70154636Y-44764342D01*
X70154636Y-44764342D02*
X70107017Y-44859580D01*
X70107017Y-44859580D02*
X70059398Y-44907200D01*
X70059398Y-44907200D02*
X69964160Y-44954819D01*
X69964160Y-44954819D02*
X69583208Y-44954819D01*
X69583208Y-44954819D02*
X69583208Y-43954819D01*
X69583208Y-43954819D02*
X69916541Y-43954819D01*
X69916541Y-43954819D02*
X70011779Y-44002438D01*
X70011779Y-44002438D02*
X70059398Y-44050057D01*
X70059398Y-44050057D02*
X70107017Y-44145295D01*
X70107017Y-44145295D02*
X70107017Y-44240533D01*
X70107017Y-44240533D02*
X70059398Y-44335771D01*
X70059398Y-44335771D02*
X70011779Y-44383390D01*
X70011779Y-44383390D02*
X69916541Y-44431009D01*
X69916541Y-44431009D02*
X69583208Y-44431009D01*
X70583208Y-43954819D02*
X70583208Y-44764342D01*
X70583208Y-44764342D02*
X70630827Y-44859580D01*
X70630827Y-44859580D02*
X70678446Y-44907200D01*
X70678446Y-44907200D02*
X70773684Y-44954819D01*
X70773684Y-44954819D02*
X70964160Y-44954819D01*
X70964160Y-44954819D02*
X71059398Y-44907200D01*
X71059398Y-44907200D02*
X71107017Y-44859580D01*
X71107017Y-44859580D02*
X71154636Y-44764342D01*
X71154636Y-44764342D02*
X71154636Y-43954819D01*
X71583208Y-44907200D02*
X71726065Y-44954819D01*
X71726065Y-44954819D02*
X71964160Y-44954819D01*
X71964160Y-44954819D02*
X72059398Y-44907200D01*
X72059398Y-44907200D02*
X72107017Y-44859580D01*
X72107017Y-44859580D02*
X72154636Y-44764342D01*
X72154636Y-44764342D02*
X72154636Y-44669104D01*
X72154636Y-44669104D02*
X72107017Y-44573866D01*
X72107017Y-44573866D02*
X72059398Y-44526247D01*
X72059398Y-44526247D02*
X71964160Y-44478628D01*
X71964160Y-44478628D02*
X71773684Y-44431009D01*
X71773684Y-44431009D02*
X71678446Y-44383390D01*
X71678446Y-44383390D02*
X71630827Y-44335771D01*
X71630827Y-44335771D02*
X71583208Y-44240533D01*
X71583208Y-44240533D02*
X71583208Y-44145295D01*
X71583208Y-44145295D02*
X71630827Y-44050057D01*
X71630827Y-44050057D02*
X71678446Y-44002438D01*
X71678446Y-44002438D02*
X71773684Y-43954819D01*
X71773684Y-43954819D02*
X72011779Y-43954819D01*
X72011779Y-43954819D02*
X72154636Y-44002438D01*
X67332200Y-151460839D02*
X67379819Y-151317982D01*
X67379819Y-151317982D02*
X67379819Y-151079887D01*
X67379819Y-151079887D02*
X67332200Y-150984649D01*
X67332200Y-150984649D02*
X67284580Y-150937030D01*
X67284580Y-150937030D02*
X67189342Y-150889411D01*
X67189342Y-150889411D02*
X67094104Y-150889411D01*
X67094104Y-150889411D02*
X66998866Y-150937030D01*
X66998866Y-150937030D02*
X66951247Y-150984649D01*
X66951247Y-150984649D02*
X66903628Y-151079887D01*
X66903628Y-151079887D02*
X66856009Y-151270363D01*
X66856009Y-151270363D02*
X66808390Y-151365601D01*
X66808390Y-151365601D02*
X66760771Y-151413220D01*
X66760771Y-151413220D02*
X66665533Y-151460839D01*
X66665533Y-151460839D02*
X66570295Y-151460839D01*
X66570295Y-151460839D02*
X66475057Y-151413220D01*
X66475057Y-151413220D02*
X66427438Y-151365601D01*
X66427438Y-151365601D02*
X66379819Y-151270363D01*
X66379819Y-151270363D02*
X66379819Y-151032268D01*
X66379819Y-151032268D02*
X66427438Y-150889411D01*
X67284580Y-149889411D02*
X67332200Y-149937030D01*
X67332200Y-149937030D02*
X67379819Y-150079887D01*
X67379819Y-150079887D02*
X67379819Y-150175125D01*
X67379819Y-150175125D02*
X67332200Y-150317982D01*
X67332200Y-150317982D02*
X67236961Y-150413220D01*
X67236961Y-150413220D02*
X67141723Y-150460839D01*
X67141723Y-150460839D02*
X66951247Y-150508458D01*
X66951247Y-150508458D02*
X66808390Y-150508458D01*
X66808390Y-150508458D02*
X66617914Y-150460839D01*
X66617914Y-150460839D02*
X66522676Y-150413220D01*
X66522676Y-150413220D02*
X66427438Y-150317982D01*
X66427438Y-150317982D02*
X66379819Y-150175125D01*
X66379819Y-150175125D02*
X66379819Y-150079887D01*
X66379819Y-150079887D02*
X66427438Y-149937030D01*
X66427438Y-149937030D02*
X66475057Y-149889411D01*
X67379819Y-148984649D02*
X67379819Y-149460839D01*
X67379819Y-149460839D02*
X66379819Y-149460839D01*
X36372969Y-136029819D02*
X35896779Y-136029819D01*
X35896779Y-136029819D02*
X35849160Y-136506009D01*
X35849160Y-136506009D02*
X35896779Y-136458390D01*
X35896779Y-136458390D02*
X35992017Y-136410771D01*
X35992017Y-136410771D02*
X36230112Y-136410771D01*
X36230112Y-136410771D02*
X36325350Y-136458390D01*
X36325350Y-136458390D02*
X36372969Y-136506009D01*
X36372969Y-136506009D02*
X36420588Y-136601247D01*
X36420588Y-136601247D02*
X36420588Y-136839342D01*
X36420588Y-136839342D02*
X36372969Y-136934580D01*
X36372969Y-136934580D02*
X36325350Y-136982200D01*
X36325350Y-136982200D02*
X36230112Y-137029819D01*
X36230112Y-137029819D02*
X35992017Y-137029819D01*
X35992017Y-137029819D02*
X35896779Y-136982200D01*
X35896779Y-136982200D02*
X35849160Y-136934580D01*
X36706303Y-136029819D02*
X37039636Y-137029819D01*
X37039636Y-137029819D02*
X37372969Y-136029819D01*
X37468208Y-137125057D02*
X38230112Y-137125057D01*
X38801541Y-136506009D02*
X38944398Y-136553628D01*
X38944398Y-136553628D02*
X38992017Y-136601247D01*
X38992017Y-136601247D02*
X39039636Y-136696485D01*
X39039636Y-136696485D02*
X39039636Y-136839342D01*
X39039636Y-136839342D02*
X38992017Y-136934580D01*
X38992017Y-136934580D02*
X38944398Y-136982200D01*
X38944398Y-136982200D02*
X38849160Y-137029819D01*
X38849160Y-137029819D02*
X38468208Y-137029819D01*
X38468208Y-137029819D02*
X38468208Y-136029819D01*
X38468208Y-136029819D02*
X38801541Y-136029819D01*
X38801541Y-136029819D02*
X38896779Y-136077438D01*
X38896779Y-136077438D02*
X38944398Y-136125057D01*
X38944398Y-136125057D02*
X38992017Y-136220295D01*
X38992017Y-136220295D02*
X38992017Y-136315533D01*
X38992017Y-136315533D02*
X38944398Y-136410771D01*
X38944398Y-136410771D02*
X38896779Y-136458390D01*
X38896779Y-136458390D02*
X38801541Y-136506009D01*
X38801541Y-136506009D02*
X38468208Y-136506009D01*
X39420589Y-136744104D02*
X39896779Y-136744104D01*
X39325351Y-137029819D02*
X39658684Y-136029819D01*
X39658684Y-136029819D02*
X39992017Y-137029819D01*
X40896779Y-137029819D02*
X40563446Y-136553628D01*
X40325351Y-137029819D02*
X40325351Y-136029819D01*
X40325351Y-136029819D02*
X40706303Y-136029819D01*
X40706303Y-136029819D02*
X40801541Y-136077438D01*
X40801541Y-136077438D02*
X40849160Y-136125057D01*
X40849160Y-136125057D02*
X40896779Y-136220295D01*
X40896779Y-136220295D02*
X40896779Y-136363152D01*
X40896779Y-136363152D02*
X40849160Y-136458390D01*
X40849160Y-136458390D02*
X40801541Y-136506009D01*
X40801541Y-136506009D02*
X40706303Y-136553628D01*
X40706303Y-136553628D02*
X40325351Y-136553628D01*
X41896779Y-137029819D02*
X41563446Y-136553628D01*
X41325351Y-137029819D02*
X41325351Y-136029819D01*
X41325351Y-136029819D02*
X41706303Y-136029819D01*
X41706303Y-136029819D02*
X41801541Y-136077438D01*
X41801541Y-136077438D02*
X41849160Y-136125057D01*
X41849160Y-136125057D02*
X41896779Y-136220295D01*
X41896779Y-136220295D02*
X41896779Y-136363152D01*
X41896779Y-136363152D02*
X41849160Y-136458390D01*
X41849160Y-136458390D02*
X41801541Y-136506009D01*
X41801541Y-136506009D02*
X41706303Y-136553628D01*
X41706303Y-136553628D02*
X41325351Y-136553628D01*
X42325351Y-136506009D02*
X42658684Y-136506009D01*
X42801541Y-137029819D02*
X42325351Y-137029819D01*
X42325351Y-137029819D02*
X42325351Y-136029819D01*
X42325351Y-136029819D02*
X42801541Y-136029819D01*
X43706303Y-137029819D02*
X43230113Y-137029819D01*
X43230113Y-137029819D02*
X43230113Y-136029819D01*
X68799160Y-142572200D02*
X68942017Y-142619819D01*
X68942017Y-142619819D02*
X69180112Y-142619819D01*
X69180112Y-142619819D02*
X69275350Y-142572200D01*
X69275350Y-142572200D02*
X69322969Y-142524580D01*
X69322969Y-142524580D02*
X69370588Y-142429342D01*
X69370588Y-142429342D02*
X69370588Y-142334104D01*
X69370588Y-142334104D02*
X69322969Y-142238866D01*
X69322969Y-142238866D02*
X69275350Y-142191247D01*
X69275350Y-142191247D02*
X69180112Y-142143628D01*
X69180112Y-142143628D02*
X68989636Y-142096009D01*
X68989636Y-142096009D02*
X68894398Y-142048390D01*
X68894398Y-142048390D02*
X68846779Y-142000771D01*
X68846779Y-142000771D02*
X68799160Y-141905533D01*
X68799160Y-141905533D02*
X68799160Y-141810295D01*
X68799160Y-141810295D02*
X68846779Y-141715057D01*
X68846779Y-141715057D02*
X68894398Y-141667438D01*
X68894398Y-141667438D02*
X68989636Y-141619819D01*
X68989636Y-141619819D02*
X69227731Y-141619819D01*
X69227731Y-141619819D02*
X69370588Y-141667438D01*
X69799160Y-142619819D02*
X69799160Y-141619819D01*
X69799160Y-141619819D02*
X70037255Y-141619819D01*
X70037255Y-141619819D02*
X70180112Y-141667438D01*
X70180112Y-141667438D02*
X70275350Y-141762676D01*
X70275350Y-141762676D02*
X70322969Y-141857914D01*
X70322969Y-141857914D02*
X70370588Y-142048390D01*
X70370588Y-142048390D02*
X70370588Y-142191247D01*
X70370588Y-142191247D02*
X70322969Y-142381723D01*
X70322969Y-142381723D02*
X70275350Y-142476961D01*
X70275350Y-142476961D02*
X70180112Y-142572200D01*
X70180112Y-142572200D02*
X70037255Y-142619819D01*
X70037255Y-142619819D02*
X69799160Y-142619819D01*
X70751541Y-142334104D02*
X71227731Y-142334104D01*
X70656303Y-142619819D02*
X70989636Y-141619819D01*
X70989636Y-141619819D02*
X71322969Y-142619819D01*
X71418208Y-142715057D02*
X72180112Y-142715057D01*
X72418208Y-142619819D02*
X72418208Y-141619819D01*
X72418208Y-141619819D02*
X72799160Y-141619819D01*
X72799160Y-141619819D02*
X72894398Y-141667438D01*
X72894398Y-141667438D02*
X72942017Y-141715057D01*
X72942017Y-141715057D02*
X72989636Y-141810295D01*
X72989636Y-141810295D02*
X72989636Y-141953152D01*
X72989636Y-141953152D02*
X72942017Y-142048390D01*
X72942017Y-142048390D02*
X72894398Y-142096009D01*
X72894398Y-142096009D02*
X72799160Y-142143628D01*
X72799160Y-142143628D02*
X72418208Y-142143628D01*
X73418208Y-141619819D02*
X73418208Y-142429342D01*
X73418208Y-142429342D02*
X73465827Y-142524580D01*
X73465827Y-142524580D02*
X73513446Y-142572200D01*
X73513446Y-142572200D02*
X73608684Y-142619819D01*
X73608684Y-142619819D02*
X73799160Y-142619819D01*
X73799160Y-142619819D02*
X73894398Y-142572200D01*
X73894398Y-142572200D02*
X73942017Y-142524580D01*
X73942017Y-142524580D02*
X73989636Y-142429342D01*
X73989636Y-142429342D02*
X73989636Y-141619819D01*
X74942017Y-142619819D02*
X74465827Y-142619819D01*
X74465827Y-142619819D02*
X74465827Y-141619819D01*
X75751541Y-142619819D02*
X75275351Y-142619819D01*
X75275351Y-142619819D02*
X75275351Y-141619819D01*
X76084875Y-141619819D02*
X76084875Y-142429342D01*
X76084875Y-142429342D02*
X76132494Y-142524580D01*
X76132494Y-142524580D02*
X76180113Y-142572200D01*
X76180113Y-142572200D02*
X76275351Y-142619819D01*
X76275351Y-142619819D02*
X76465827Y-142619819D01*
X76465827Y-142619819D02*
X76561065Y-142572200D01*
X76561065Y-142572200D02*
X76608684Y-142524580D01*
X76608684Y-142524580D02*
X76656303Y-142429342D01*
X76656303Y-142429342D02*
X76656303Y-141619819D01*
X77132494Y-142619819D02*
X77132494Y-141619819D01*
X77132494Y-141619819D02*
X77513446Y-141619819D01*
X77513446Y-141619819D02*
X77608684Y-141667438D01*
X77608684Y-141667438D02*
X77656303Y-141715057D01*
X77656303Y-141715057D02*
X77703922Y-141810295D01*
X77703922Y-141810295D02*
X77703922Y-141953152D01*
X77703922Y-141953152D02*
X77656303Y-142048390D01*
X77656303Y-142048390D02*
X77608684Y-142096009D01*
X77608684Y-142096009D02*
X77513446Y-142143628D01*
X77513446Y-142143628D02*
X77132494Y-142143628D01*
X49927438Y-39389411D02*
X49879819Y-39484649D01*
X49879819Y-39484649D02*
X49879819Y-39627506D01*
X49879819Y-39627506D02*
X49927438Y-39770363D01*
X49927438Y-39770363D02*
X50022676Y-39865601D01*
X50022676Y-39865601D02*
X50117914Y-39913220D01*
X50117914Y-39913220D02*
X50308390Y-39960839D01*
X50308390Y-39960839D02*
X50451247Y-39960839D01*
X50451247Y-39960839D02*
X50641723Y-39913220D01*
X50641723Y-39913220D02*
X50736961Y-39865601D01*
X50736961Y-39865601D02*
X50832200Y-39770363D01*
X50832200Y-39770363D02*
X50879819Y-39627506D01*
X50879819Y-39627506D02*
X50879819Y-39532268D01*
X50879819Y-39532268D02*
X50832200Y-39389411D01*
X50832200Y-39389411D02*
X50784580Y-39341792D01*
X50784580Y-39341792D02*
X50451247Y-39341792D01*
X50451247Y-39341792D02*
X50451247Y-39532268D01*
X50879819Y-38913220D02*
X49879819Y-38913220D01*
X49879819Y-38913220D02*
X50879819Y-38341792D01*
X50879819Y-38341792D02*
X49879819Y-38341792D01*
X50879819Y-37865601D02*
X49879819Y-37865601D01*
X49879819Y-37865601D02*
X49879819Y-37627506D01*
X49879819Y-37627506D02*
X49927438Y-37484649D01*
X49927438Y-37484649D02*
X50022676Y-37389411D01*
X50022676Y-37389411D02*
X50117914Y-37341792D01*
X50117914Y-37341792D02*
X50308390Y-37294173D01*
X50308390Y-37294173D02*
X50451247Y-37294173D01*
X50451247Y-37294173D02*
X50641723Y-37341792D01*
X50641723Y-37341792D02*
X50736961Y-37389411D01*
X50736961Y-37389411D02*
X50832200Y-37484649D01*
X50832200Y-37484649D02*
X50879819Y-37627506D01*
X50879819Y-37627506D02*
X50879819Y-37865601D01*
X55832200Y-39960839D02*
X55879819Y-39817982D01*
X55879819Y-39817982D02*
X55879819Y-39579887D01*
X55879819Y-39579887D02*
X55832200Y-39484649D01*
X55832200Y-39484649D02*
X55784580Y-39437030D01*
X55784580Y-39437030D02*
X55689342Y-39389411D01*
X55689342Y-39389411D02*
X55594104Y-39389411D01*
X55594104Y-39389411D02*
X55498866Y-39437030D01*
X55498866Y-39437030D02*
X55451247Y-39484649D01*
X55451247Y-39484649D02*
X55403628Y-39579887D01*
X55403628Y-39579887D02*
X55356009Y-39770363D01*
X55356009Y-39770363D02*
X55308390Y-39865601D01*
X55308390Y-39865601D02*
X55260771Y-39913220D01*
X55260771Y-39913220D02*
X55165533Y-39960839D01*
X55165533Y-39960839D02*
X55070295Y-39960839D01*
X55070295Y-39960839D02*
X54975057Y-39913220D01*
X54975057Y-39913220D02*
X54927438Y-39865601D01*
X54927438Y-39865601D02*
X54879819Y-39770363D01*
X54879819Y-39770363D02*
X54879819Y-39532268D01*
X54879819Y-39532268D02*
X54927438Y-39389411D01*
X55784580Y-38389411D02*
X55832200Y-38437030D01*
X55832200Y-38437030D02*
X55879819Y-38579887D01*
X55879819Y-38579887D02*
X55879819Y-38675125D01*
X55879819Y-38675125D02*
X55832200Y-38817982D01*
X55832200Y-38817982D02*
X55736961Y-38913220D01*
X55736961Y-38913220D02*
X55641723Y-38960839D01*
X55641723Y-38960839D02*
X55451247Y-39008458D01*
X55451247Y-39008458D02*
X55308390Y-39008458D01*
X55308390Y-39008458D02*
X55117914Y-38960839D01*
X55117914Y-38960839D02*
X55022676Y-38913220D01*
X55022676Y-38913220D02*
X54927438Y-38817982D01*
X54927438Y-38817982D02*
X54879819Y-38675125D01*
X54879819Y-38675125D02*
X54879819Y-38579887D01*
X54879819Y-38579887D02*
X54927438Y-38437030D01*
X54927438Y-38437030D02*
X54975057Y-38389411D01*
X55879819Y-37484649D02*
X55879819Y-37960839D01*
X55879819Y-37960839D02*
X54879819Y-37960839D01*
X53332200Y-39960839D02*
X53379819Y-39817982D01*
X53379819Y-39817982D02*
X53379819Y-39579887D01*
X53379819Y-39579887D02*
X53332200Y-39484649D01*
X53332200Y-39484649D02*
X53284580Y-39437030D01*
X53284580Y-39437030D02*
X53189342Y-39389411D01*
X53189342Y-39389411D02*
X53094104Y-39389411D01*
X53094104Y-39389411D02*
X52998866Y-39437030D01*
X52998866Y-39437030D02*
X52951247Y-39484649D01*
X52951247Y-39484649D02*
X52903628Y-39579887D01*
X52903628Y-39579887D02*
X52856009Y-39770363D01*
X52856009Y-39770363D02*
X52808390Y-39865601D01*
X52808390Y-39865601D02*
X52760771Y-39913220D01*
X52760771Y-39913220D02*
X52665533Y-39960839D01*
X52665533Y-39960839D02*
X52570295Y-39960839D01*
X52570295Y-39960839D02*
X52475057Y-39913220D01*
X52475057Y-39913220D02*
X52427438Y-39865601D01*
X52427438Y-39865601D02*
X52379819Y-39770363D01*
X52379819Y-39770363D02*
X52379819Y-39532268D01*
X52379819Y-39532268D02*
X52427438Y-39389411D01*
X53379819Y-38960839D02*
X52379819Y-38960839D01*
X52379819Y-38960839D02*
X52379819Y-38722744D01*
X52379819Y-38722744D02*
X52427438Y-38579887D01*
X52427438Y-38579887D02*
X52522676Y-38484649D01*
X52522676Y-38484649D02*
X52617914Y-38437030D01*
X52617914Y-38437030D02*
X52808390Y-38389411D01*
X52808390Y-38389411D02*
X52951247Y-38389411D01*
X52951247Y-38389411D02*
X53141723Y-38437030D01*
X53141723Y-38437030D02*
X53236961Y-38484649D01*
X53236961Y-38484649D02*
X53332200Y-38579887D01*
X53332200Y-38579887D02*
X53379819Y-38722744D01*
X53379819Y-38722744D02*
X53379819Y-38960839D01*
X53094104Y-38008458D02*
X53094104Y-37532268D01*
X53379819Y-38103696D02*
X52379819Y-37770363D01*
X52379819Y-37770363D02*
X53379819Y-37437030D01*
X68799160Y-147572200D02*
X68942017Y-147619819D01*
X68942017Y-147619819D02*
X69180112Y-147619819D01*
X69180112Y-147619819D02*
X69275350Y-147572200D01*
X69275350Y-147572200D02*
X69322969Y-147524580D01*
X69322969Y-147524580D02*
X69370588Y-147429342D01*
X69370588Y-147429342D02*
X69370588Y-147334104D01*
X69370588Y-147334104D02*
X69322969Y-147238866D01*
X69322969Y-147238866D02*
X69275350Y-147191247D01*
X69275350Y-147191247D02*
X69180112Y-147143628D01*
X69180112Y-147143628D02*
X68989636Y-147096009D01*
X68989636Y-147096009D02*
X68894398Y-147048390D01*
X68894398Y-147048390D02*
X68846779Y-147000771D01*
X68846779Y-147000771D02*
X68799160Y-146905533D01*
X68799160Y-146905533D02*
X68799160Y-146810295D01*
X68799160Y-146810295D02*
X68846779Y-146715057D01*
X68846779Y-146715057D02*
X68894398Y-146667438D01*
X68894398Y-146667438D02*
X68989636Y-146619819D01*
X68989636Y-146619819D02*
X69227731Y-146619819D01*
X69227731Y-146619819D02*
X69370588Y-146667438D01*
X70370588Y-147524580D02*
X70322969Y-147572200D01*
X70322969Y-147572200D02*
X70180112Y-147619819D01*
X70180112Y-147619819D02*
X70084874Y-147619819D01*
X70084874Y-147619819D02*
X69942017Y-147572200D01*
X69942017Y-147572200D02*
X69846779Y-147476961D01*
X69846779Y-147476961D02*
X69799160Y-147381723D01*
X69799160Y-147381723D02*
X69751541Y-147191247D01*
X69751541Y-147191247D02*
X69751541Y-147048390D01*
X69751541Y-147048390D02*
X69799160Y-146857914D01*
X69799160Y-146857914D02*
X69846779Y-146762676D01*
X69846779Y-146762676D02*
X69942017Y-146667438D01*
X69942017Y-146667438D02*
X70084874Y-146619819D01*
X70084874Y-146619819D02*
X70180112Y-146619819D01*
X70180112Y-146619819D02*
X70322969Y-146667438D01*
X70322969Y-146667438D02*
X70370588Y-146715057D01*
X71275350Y-147619819D02*
X70799160Y-147619819D01*
X70799160Y-147619819D02*
X70799160Y-146619819D01*
X71370589Y-147715057D02*
X72132493Y-147715057D01*
X72370589Y-147619819D02*
X72370589Y-146619819D01*
X72370589Y-146619819D02*
X72751541Y-146619819D01*
X72751541Y-146619819D02*
X72846779Y-146667438D01*
X72846779Y-146667438D02*
X72894398Y-146715057D01*
X72894398Y-146715057D02*
X72942017Y-146810295D01*
X72942017Y-146810295D02*
X72942017Y-146953152D01*
X72942017Y-146953152D02*
X72894398Y-147048390D01*
X72894398Y-147048390D02*
X72846779Y-147096009D01*
X72846779Y-147096009D02*
X72751541Y-147143628D01*
X72751541Y-147143628D02*
X72370589Y-147143628D01*
X73370589Y-146619819D02*
X73370589Y-147429342D01*
X73370589Y-147429342D02*
X73418208Y-147524580D01*
X73418208Y-147524580D02*
X73465827Y-147572200D01*
X73465827Y-147572200D02*
X73561065Y-147619819D01*
X73561065Y-147619819D02*
X73751541Y-147619819D01*
X73751541Y-147619819D02*
X73846779Y-147572200D01*
X73846779Y-147572200D02*
X73894398Y-147524580D01*
X73894398Y-147524580D02*
X73942017Y-147429342D01*
X73942017Y-147429342D02*
X73942017Y-146619819D01*
X74894398Y-147619819D02*
X74418208Y-147619819D01*
X74418208Y-147619819D02*
X74418208Y-146619819D01*
X75703922Y-147619819D02*
X75227732Y-147619819D01*
X75227732Y-147619819D02*
X75227732Y-146619819D01*
X76037256Y-146619819D02*
X76037256Y-147429342D01*
X76037256Y-147429342D02*
X76084875Y-147524580D01*
X76084875Y-147524580D02*
X76132494Y-147572200D01*
X76132494Y-147572200D02*
X76227732Y-147619819D01*
X76227732Y-147619819D02*
X76418208Y-147619819D01*
X76418208Y-147619819D02*
X76513446Y-147572200D01*
X76513446Y-147572200D02*
X76561065Y-147524580D01*
X76561065Y-147524580D02*
X76608684Y-147429342D01*
X76608684Y-147429342D02*
X76608684Y-146619819D01*
X77084875Y-147619819D02*
X77084875Y-146619819D01*
X77084875Y-146619819D02*
X77465827Y-146619819D01*
X77465827Y-146619819D02*
X77561065Y-146667438D01*
X77561065Y-146667438D02*
X77608684Y-146715057D01*
X77608684Y-146715057D02*
X77656303Y-146810295D01*
X77656303Y-146810295D02*
X77656303Y-146953152D01*
X77656303Y-146953152D02*
X77608684Y-147048390D01*
X77608684Y-147048390D02*
X77561065Y-147096009D01*
X77561065Y-147096009D02*
X77465827Y-147143628D01*
X77465827Y-147143628D02*
X77084875Y-147143628D01*
X59879819Y-39437030D02*
X59879819Y-39913220D01*
X59879819Y-39913220D02*
X60356009Y-39960839D01*
X60356009Y-39960839D02*
X60308390Y-39913220D01*
X60308390Y-39913220D02*
X60260771Y-39817982D01*
X60260771Y-39817982D02*
X60260771Y-39579887D01*
X60260771Y-39579887D02*
X60308390Y-39484649D01*
X60308390Y-39484649D02*
X60356009Y-39437030D01*
X60356009Y-39437030D02*
X60451247Y-39389411D01*
X60451247Y-39389411D02*
X60689342Y-39389411D01*
X60689342Y-39389411D02*
X60784580Y-39437030D01*
X60784580Y-39437030D02*
X60832200Y-39484649D01*
X60832200Y-39484649D02*
X60879819Y-39579887D01*
X60879819Y-39579887D02*
X60879819Y-39817982D01*
X60879819Y-39817982D02*
X60832200Y-39913220D01*
X60832200Y-39913220D02*
X60784580Y-39960839D01*
X59879819Y-39103696D02*
X60879819Y-38770363D01*
X60879819Y-38770363D02*
X59879819Y-38437030D01*
X60221905Y-60074819D02*
X60221905Y-59074819D01*
X60221905Y-59074819D02*
X60460000Y-59074819D01*
X60460000Y-59074819D02*
X60602857Y-59122438D01*
X60602857Y-59122438D02*
X60698095Y-59217676D01*
X60698095Y-59217676D02*
X60745714Y-59312914D01*
X60745714Y-59312914D02*
X60793333Y-59503390D01*
X60793333Y-59503390D02*
X60793333Y-59646247D01*
X60793333Y-59646247D02*
X60745714Y-59836723D01*
X60745714Y-59836723D02*
X60698095Y-59931961D01*
X60698095Y-59931961D02*
X60602857Y-60027200D01*
X60602857Y-60027200D02*
X60460000Y-60074819D01*
X60460000Y-60074819D02*
X60221905Y-60074819D01*
X61745714Y-60074819D02*
X61174286Y-60074819D01*
X61460000Y-60074819D02*
X61460000Y-59074819D01*
X61460000Y-59074819D02*
X61364762Y-59217676D01*
X61364762Y-59217676D02*
X61269524Y-59312914D01*
X61269524Y-59312914D02*
X61174286Y-59360533D01*
X65778095Y-59704819D02*
X65778095Y-58704819D01*
X66349523Y-59704819D02*
X65920952Y-59133390D01*
X66349523Y-58704819D02*
X65778095Y-59276247D01*
D11*
X56388095Y-89627419D02*
X56388095Y-90436942D01*
X56388095Y-90436942D02*
X56435714Y-90532180D01*
X56435714Y-90532180D02*
X56483333Y-90579800D01*
X56483333Y-90579800D02*
X56578571Y-90627419D01*
X56578571Y-90627419D02*
X56769047Y-90627419D01*
X56769047Y-90627419D02*
X56864285Y-90579800D01*
X56864285Y-90579800D02*
X56911904Y-90532180D01*
X56911904Y-90532180D02*
X56959523Y-90436942D01*
X56959523Y-90436942D02*
X56959523Y-89627419D01*
X57959523Y-90627419D02*
X57388095Y-90627419D01*
X57673809Y-90627419D02*
X57673809Y-89627419D01*
X57673809Y-89627419D02*
X57578571Y-89770276D01*
X57578571Y-89770276D02*
X57483333Y-89865514D01*
X57483333Y-89865514D02*
X57388095Y-89913133D01*
D10*
X47343333Y-151045180D02*
X47343333Y-150330895D01*
X47343333Y-150330895D02*
X47390952Y-150188038D01*
X47390952Y-150188038D02*
X47486190Y-150092800D01*
X47486190Y-150092800D02*
X47629047Y-150045180D01*
X47629047Y-150045180D02*
X47724285Y-150045180D01*
X46962380Y-151045180D02*
X46343333Y-151045180D01*
X46343333Y-151045180D02*
X46676666Y-150664228D01*
X46676666Y-150664228D02*
X46533809Y-150664228D01*
X46533809Y-150664228D02*
X46438571Y-150616609D01*
X46438571Y-150616609D02*
X46390952Y-150568990D01*
X46390952Y-150568990D02*
X46343333Y-150473752D01*
X46343333Y-150473752D02*
X46343333Y-150235657D01*
X46343333Y-150235657D02*
X46390952Y-150140419D01*
X46390952Y-150140419D02*
X46438571Y-150092800D01*
X46438571Y-150092800D02*
X46533809Y-150045180D01*
X46533809Y-150045180D02*
X46819523Y-150045180D01*
X46819523Y-150045180D02*
X46914761Y-150092800D01*
X46914761Y-150092800D02*
X46962380Y-150140419D01*
X49549999Y-144555480D02*
X49549999Y-144317385D01*
X49788094Y-144412623D02*
X49549999Y-144317385D01*
X49549999Y-144317385D02*
X49311904Y-144412623D01*
X49692856Y-144126909D02*
X49549999Y-144317385D01*
X49549999Y-144317385D02*
X49407142Y-144126909D01*
X49550000Y-143465119D02*
X49550000Y-143703214D01*
X49311905Y-143607976D02*
X49550000Y-143703214D01*
X49550000Y-143703214D02*
X49788095Y-143607976D01*
X49407143Y-143893690D02*
X49550000Y-143703214D01*
X49550000Y-143703214D02*
X49692857Y-143893690D01*
X74248095Y-31954819D02*
X74248095Y-30954819D01*
X74248095Y-31431009D02*
X74819523Y-31431009D01*
X74819523Y-31954819D02*
X74819523Y-30954819D01*
X75248095Y-31050057D02*
X75295714Y-31002438D01*
X75295714Y-31002438D02*
X75390952Y-30954819D01*
X75390952Y-30954819D02*
X75629047Y-30954819D01*
X75629047Y-30954819D02*
X75724285Y-31002438D01*
X75724285Y-31002438D02*
X75771904Y-31050057D01*
X75771904Y-31050057D02*
X75819523Y-31145295D01*
X75819523Y-31145295D02*
X75819523Y-31240533D01*
X75819523Y-31240533D02*
X75771904Y-31383390D01*
X75771904Y-31383390D02*
X75200476Y-31954819D01*
X75200476Y-31954819D02*
X75819523Y-31954819D01*
X68874819Y-155063333D02*
X69589104Y-155063333D01*
X69589104Y-155063333D02*
X69731961Y-155110952D01*
X69731961Y-155110952D02*
X69827200Y-155206190D01*
X69827200Y-155206190D02*
X69874819Y-155349047D01*
X69874819Y-155349047D02*
X69874819Y-155444285D01*
X68970057Y-154634761D02*
X68922438Y-154587142D01*
X68922438Y-154587142D02*
X68874819Y-154491904D01*
X68874819Y-154491904D02*
X68874819Y-154253809D01*
X68874819Y-154253809D02*
X68922438Y-154158571D01*
X68922438Y-154158571D02*
X68970057Y-154110952D01*
X68970057Y-154110952D02*
X69065295Y-154063333D01*
X69065295Y-154063333D02*
X69160533Y-154063333D01*
X69160533Y-154063333D02*
X69303390Y-154110952D01*
X69303390Y-154110952D02*
X69874819Y-154682380D01*
X69874819Y-154682380D02*
X69874819Y-154063333D01*
X62334819Y-35583333D02*
X63049104Y-35583333D01*
X63049104Y-35583333D02*
X63191961Y-35630952D01*
X63191961Y-35630952D02*
X63287200Y-35726190D01*
X63287200Y-35726190D02*
X63334819Y-35869047D01*
X63334819Y-35869047D02*
X63334819Y-35964285D01*
X62668152Y-34678571D02*
X63334819Y-34678571D01*
X62287200Y-34916666D02*
X63001485Y-35154761D01*
X63001485Y-35154761D02*
X63001485Y-34535714D01*
X69514819Y-57483333D02*
X70229104Y-57483333D01*
X70229104Y-57483333D02*
X70371961Y-57530952D01*
X70371961Y-57530952D02*
X70467200Y-57626190D01*
X70467200Y-57626190D02*
X70514819Y-57769047D01*
X70514819Y-57769047D02*
X70514819Y-57864285D01*
X70514819Y-56483333D02*
X70514819Y-57054761D01*
X70514819Y-56769047D02*
X69514819Y-56769047D01*
X69514819Y-56769047D02*
X69657676Y-56864285D01*
X69657676Y-56864285D02*
X69752914Y-56959523D01*
X69752914Y-56959523D02*
X69800533Y-57054761D01*
X36748095Y-31954819D02*
X36748095Y-30954819D01*
X36748095Y-31431009D02*
X37319523Y-31431009D01*
X37319523Y-31954819D02*
X37319523Y-30954819D01*
X38319523Y-31954819D02*
X37748095Y-31954819D01*
X38033809Y-31954819D02*
X38033809Y-30954819D01*
X38033809Y-30954819D02*
X37938571Y-31097676D01*
X37938571Y-31097676D02*
X37843333Y-31192914D01*
X37843333Y-31192914D02*
X37748095Y-31240533D01*
X61843333Y-144824819D02*
X61510000Y-144348628D01*
X61271905Y-144824819D02*
X61271905Y-143824819D01*
X61271905Y-143824819D02*
X61652857Y-143824819D01*
X61652857Y-143824819D02*
X61748095Y-143872438D01*
X61748095Y-143872438D02*
X61795714Y-143920057D01*
X61795714Y-143920057D02*
X61843333Y-144015295D01*
X61843333Y-144015295D02*
X61843333Y-144158152D01*
X61843333Y-144158152D02*
X61795714Y-144253390D01*
X61795714Y-144253390D02*
X61748095Y-144301009D01*
X61748095Y-144301009D02*
X61652857Y-144348628D01*
X61652857Y-144348628D02*
X61271905Y-144348628D01*
X62795714Y-144824819D02*
X62224286Y-144824819D01*
X62510000Y-144824819D02*
X62510000Y-143824819D01*
X62510000Y-143824819D02*
X62414762Y-143967676D01*
X62414762Y-143967676D02*
X62319524Y-144062914D01*
X62319524Y-144062914D02*
X62224286Y-144110533D01*
X36748095Y-151704819D02*
X36748095Y-150704819D01*
X36748095Y-151181009D02*
X37319523Y-151181009D01*
X37319523Y-151704819D02*
X37319523Y-150704819D01*
X37700476Y-150704819D02*
X38319523Y-150704819D01*
X38319523Y-150704819D02*
X37986190Y-151085771D01*
X37986190Y-151085771D02*
X38129047Y-151085771D01*
X38129047Y-151085771D02*
X38224285Y-151133390D01*
X38224285Y-151133390D02*
X38271904Y-151181009D01*
X38271904Y-151181009D02*
X38319523Y-151276247D01*
X38319523Y-151276247D02*
X38319523Y-151514342D01*
X38319523Y-151514342D02*
X38271904Y-151609580D01*
X38271904Y-151609580D02*
X38224285Y-151657200D01*
X38224285Y-151657200D02*
X38129047Y-151704819D01*
X38129047Y-151704819D02*
X37843333Y-151704819D01*
X37843333Y-151704819D02*
X37748095Y-151657200D01*
X37748095Y-151657200D02*
X37700476Y-151609580D01*
X61923333Y-149824819D02*
X61590000Y-149348628D01*
X61351905Y-149824819D02*
X61351905Y-148824819D01*
X61351905Y-148824819D02*
X61732857Y-148824819D01*
X61732857Y-148824819D02*
X61828095Y-148872438D01*
X61828095Y-148872438D02*
X61875714Y-148920057D01*
X61875714Y-148920057D02*
X61923333Y-149015295D01*
X61923333Y-149015295D02*
X61923333Y-149158152D01*
X61923333Y-149158152D02*
X61875714Y-149253390D01*
X61875714Y-149253390D02*
X61828095Y-149301009D01*
X61828095Y-149301009D02*
X61732857Y-149348628D01*
X61732857Y-149348628D02*
X61351905Y-149348628D01*
X62304286Y-148920057D02*
X62351905Y-148872438D01*
X62351905Y-148872438D02*
X62447143Y-148824819D01*
X62447143Y-148824819D02*
X62685238Y-148824819D01*
X62685238Y-148824819D02*
X62780476Y-148872438D01*
X62780476Y-148872438D02*
X62828095Y-148920057D01*
X62828095Y-148920057D02*
X62875714Y-149015295D01*
X62875714Y-149015295D02*
X62875714Y-149110533D01*
X62875714Y-149110533D02*
X62828095Y-149253390D01*
X62828095Y-149253390D02*
X62256667Y-149824819D01*
X62256667Y-149824819D02*
X62875714Y-149824819D01*
X74248095Y-151704819D02*
X74248095Y-150704819D01*
X74248095Y-151181009D02*
X74819523Y-151181009D01*
X74819523Y-151704819D02*
X74819523Y-150704819D01*
X75724285Y-151038152D02*
X75724285Y-151704819D01*
X75486190Y-150657200D02*
X75248095Y-151371485D01*
X75248095Y-151371485D02*
X75867142Y-151371485D01*
X64436666Y-48774819D02*
X64436666Y-49489104D01*
X64436666Y-49489104D02*
X64389047Y-49631961D01*
X64389047Y-49631961D02*
X64293809Y-49727200D01*
X64293809Y-49727200D02*
X64150952Y-49774819D01*
X64150952Y-49774819D02*
X64055714Y-49774819D01*
X65389047Y-48774819D02*
X64912857Y-48774819D01*
X64912857Y-48774819D02*
X64865238Y-49251009D01*
X64865238Y-49251009D02*
X64912857Y-49203390D01*
X64912857Y-49203390D02*
X65008095Y-49155771D01*
X65008095Y-49155771D02*
X65246190Y-49155771D01*
X65246190Y-49155771D02*
X65341428Y-49203390D01*
X65341428Y-49203390D02*
X65389047Y-49251009D01*
X65389047Y-49251009D02*
X65436666Y-49346247D01*
X65436666Y-49346247D02*
X65436666Y-49584342D01*
X65436666Y-49584342D02*
X65389047Y-49679580D01*
X65389047Y-49679580D02*
X65341428Y-49727200D01*
X65341428Y-49727200D02*
X65246190Y-49774819D01*
X65246190Y-49774819D02*
X65008095Y-49774819D01*
X65008095Y-49774819D02*
X64912857Y-49727200D01*
X64912857Y-49727200D02*
X64865238Y-49679580D01*
X77639104Y-71834285D02*
X77639104Y-71358095D01*
X77924819Y-71929523D02*
X76924819Y-71596190D01*
X76924819Y-71596190D02*
X77924819Y-71262857D01*
X77924819Y-70405714D02*
X77924819Y-70977142D01*
X77924819Y-70691428D02*
X76924819Y-70691428D01*
X76924819Y-70691428D02*
X77067676Y-70786666D01*
X77067676Y-70786666D02*
X77162914Y-70881904D01*
X77162914Y-70881904D02*
X77210533Y-70977142D01*
X39915180Y-69858095D02*
X39105657Y-69858095D01*
X39105657Y-69858095D02*
X39010419Y-69905714D01*
X39010419Y-69905714D02*
X38962800Y-69953333D01*
X38962800Y-69953333D02*
X38915180Y-70048571D01*
X38915180Y-70048571D02*
X38915180Y-70239047D01*
X38915180Y-70239047D02*
X38962800Y-70334285D01*
X38962800Y-70334285D02*
X39010419Y-70381904D01*
X39010419Y-70381904D02*
X39105657Y-70429523D01*
X39105657Y-70429523D02*
X39915180Y-70429523D01*
X38962800Y-70858095D02*
X38915180Y-71000952D01*
X38915180Y-71000952D02*
X38915180Y-71239047D01*
X38915180Y-71239047D02*
X38962800Y-71334285D01*
X38962800Y-71334285D02*
X39010419Y-71381904D01*
X39010419Y-71381904D02*
X39105657Y-71429523D01*
X39105657Y-71429523D02*
X39200895Y-71429523D01*
X39200895Y-71429523D02*
X39296133Y-71381904D01*
X39296133Y-71381904D02*
X39343752Y-71334285D01*
X39343752Y-71334285D02*
X39391371Y-71239047D01*
X39391371Y-71239047D02*
X39438990Y-71048571D01*
X39438990Y-71048571D02*
X39486609Y-70953333D01*
X39486609Y-70953333D02*
X39534228Y-70905714D01*
X39534228Y-70905714D02*
X39629466Y-70858095D01*
X39629466Y-70858095D02*
X39724704Y-70858095D01*
X39724704Y-70858095D02*
X39819942Y-70905714D01*
X39819942Y-70905714D02*
X39867561Y-70953333D01*
X39867561Y-70953333D02*
X39915180Y-71048571D01*
X39915180Y-71048571D02*
X39915180Y-71286666D01*
X39915180Y-71286666D02*
X39867561Y-71429523D01*
X39438990Y-72191428D02*
X39391371Y-72334285D01*
X39391371Y-72334285D02*
X39343752Y-72381904D01*
X39343752Y-72381904D02*
X39248514Y-72429523D01*
X39248514Y-72429523D02*
X39105657Y-72429523D01*
X39105657Y-72429523D02*
X39010419Y-72381904D01*
X39010419Y-72381904D02*
X38962800Y-72334285D01*
X38962800Y-72334285D02*
X38915180Y-72239047D01*
X38915180Y-72239047D02*
X38915180Y-71858095D01*
X38915180Y-71858095D02*
X39915180Y-71858095D01*
X39915180Y-71858095D02*
X39915180Y-72191428D01*
X39915180Y-72191428D02*
X39867561Y-72286666D01*
X39867561Y-72286666D02*
X39819942Y-72334285D01*
X39819942Y-72334285D02*
X39724704Y-72381904D01*
X39724704Y-72381904D02*
X39629466Y-72381904D01*
X39629466Y-72381904D02*
X39534228Y-72334285D01*
X39534228Y-72334285D02*
X39486609Y-72286666D01*
X39486609Y-72286666D02*
X39438990Y-72191428D01*
X39438990Y-72191428D02*
X39438990Y-71858095D01*
X50049819Y-136858333D02*
X50764104Y-136858333D01*
X50764104Y-136858333D02*
X50906961Y-136905952D01*
X50906961Y-136905952D02*
X51002200Y-137001190D01*
X51002200Y-137001190D02*
X51049819Y-137144047D01*
X51049819Y-137144047D02*
X51049819Y-137239285D01*
X50049819Y-135953571D02*
X50049819Y-136144047D01*
X50049819Y-136144047D02*
X50097438Y-136239285D01*
X50097438Y-136239285D02*
X50145057Y-136286904D01*
X50145057Y-136286904D02*
X50287914Y-136382142D01*
X50287914Y-136382142D02*
X50478390Y-136429761D01*
X50478390Y-136429761D02*
X50859342Y-136429761D01*
X50859342Y-136429761D02*
X50954580Y-136382142D01*
X50954580Y-136382142D02*
X51002200Y-136334523D01*
X51002200Y-136334523D02*
X51049819Y-136239285D01*
X51049819Y-136239285D02*
X51049819Y-136048809D01*
X51049819Y-136048809D02*
X51002200Y-135953571D01*
X51002200Y-135953571D02*
X50954580Y-135905952D01*
X50954580Y-135905952D02*
X50859342Y-135858333D01*
X50859342Y-135858333D02*
X50621247Y-135858333D01*
X50621247Y-135858333D02*
X50526009Y-135905952D01*
X50526009Y-135905952D02*
X50478390Y-135953571D01*
X50478390Y-135953571D02*
X50430771Y-136048809D01*
X50430771Y-136048809D02*
X50430771Y-136239285D01*
X50430771Y-136239285D02*
X50478390Y-136334523D01*
X50478390Y-136334523D02*
X50526009Y-136382142D01*
X50526009Y-136382142D02*
X50621247Y-136429761D01*
D12*
%TO.C,D1*%
X64700000Y-57150000D02*
X63680000Y-57150000D01*
X63680000Y-58620000D02*
X63680000Y-55680000D01*
X63680000Y-55680000D02*
X58240000Y-55680000D01*
X62900000Y-58620000D02*
X62900000Y-55680000D01*
X62780000Y-58620000D02*
X62780000Y-55680000D01*
X62660000Y-58620000D02*
X62660000Y-55680000D01*
X58240000Y-58620000D02*
X63680000Y-58620000D01*
X58240000Y-55680000D02*
X58240000Y-58620000D01*
X57220000Y-57150000D02*
X58240000Y-57150000D01*
D11*
%TO.C,U1*%
X44450000Y-95250000D02*
X69850000Y-95250000D01*
X69850000Y-95250000D02*
X69850000Y-120650000D01*
X69850000Y-120650000D02*
X44450000Y-120650000D01*
X44450000Y-120650000D02*
X44450000Y-95250000D01*
X50800000Y-96520000D02*
X58420000Y-96520000D01*
X58420000Y-96520000D02*
X58420000Y-104140000D01*
X58420000Y-104140000D02*
X50800000Y-104140000D01*
X50800000Y-104140000D02*
X50800000Y-96520000D01*
X55880000Y-109220000D02*
X60960000Y-109220000D01*
X60960000Y-109220000D02*
X60960000Y-114300000D01*
X60960000Y-114300000D02*
X55880000Y-114300000D01*
X55880000Y-114300000D02*
X55880000Y-109220000D01*
X59690000Y-96520000D02*
X62230000Y-96520000D01*
X62230000Y-96520000D02*
X62230000Y-99060000D01*
X62230000Y-99060000D02*
X59690000Y-99060000D01*
X59690000Y-99060000D02*
X59690000Y-96520000D01*
X57150000Y-100330000D02*
G75*
G03*
X57150000Y-100330000I-2540000J0D01*
G01*
D13*
%TO.C,J3*%
X51632800Y-157827900D02*
X51632800Y-149090154D01*
X51632800Y-144924846D02*
X51632800Y-143172100D01*
X51632800Y-143172100D02*
X48951574Y-143172100D01*
X45068426Y-143172100D02*
X42387200Y-143172100D01*
X42387200Y-157827900D02*
X51632800Y-157827900D01*
X42387200Y-143172100D02*
X42387200Y-157827900D01*
D12*
%TO.C,J2*%
X68420000Y-152130000D02*
X68420000Y-153460000D01*
X67090000Y-152130000D02*
X68420000Y-152130000D01*
X65820000Y-152130000D02*
X55600000Y-152130000D01*
X65820000Y-152130000D02*
X65820000Y-154730000D01*
X55600000Y-152130000D02*
X55600000Y-157330000D01*
X68420000Y-154730000D02*
X68420000Y-157330000D01*
X65820000Y-154730000D02*
X68420000Y-154730000D01*
X68420000Y-157330000D02*
X55600000Y-157330000D01*
%TO.C,J4*%
X61880000Y-33920000D02*
X61880000Y-35250000D01*
X60550000Y-33920000D02*
X61880000Y-33920000D01*
X59280000Y-33920000D02*
X49060000Y-33920000D01*
X59280000Y-33920000D02*
X59280000Y-36580000D01*
X49060000Y-33920000D02*
X49060000Y-36580000D01*
X59280000Y-36580000D02*
X49060000Y-36580000D01*
%TO.C,J1*%
X71060000Y-58480000D02*
X71060000Y-57150000D01*
X72390000Y-58480000D02*
X71060000Y-58480000D01*
X73660000Y-58480000D02*
X76260000Y-58480000D01*
X73660000Y-58480000D02*
X73660000Y-55820000D01*
X76260000Y-58480000D02*
X76260000Y-55820000D01*
X73660000Y-55820000D02*
X76260000Y-55820000D01*
%TO.C,R1*%
X66050000Y-142000000D02*
X65280000Y-142000000D01*
X65280000Y-143370000D02*
X65280000Y-140630000D01*
X65280000Y-140630000D02*
X58740000Y-140630000D01*
X58740000Y-143370000D02*
X65280000Y-143370000D01*
X58740000Y-140630000D02*
X58740000Y-143370000D01*
X57970000Y-142000000D02*
X58740000Y-142000000D01*
%TO.C,R2*%
X66130000Y-147000000D02*
X65360000Y-147000000D01*
X65360000Y-148370000D02*
X65360000Y-145630000D01*
X65360000Y-145630000D02*
X58820000Y-145630000D01*
X58820000Y-148370000D02*
X65360000Y-148370000D01*
X58820000Y-145630000D02*
X58820000Y-148370000D01*
X58050000Y-147000000D02*
X58820000Y-147000000D01*
%TO.C,J5*%
X66100000Y-48320000D02*
X64770000Y-48320000D01*
X66100000Y-46990000D02*
X66100000Y-48320000D01*
X66100000Y-45720000D02*
X66100000Y-43120000D01*
X66100000Y-45720000D02*
X63440000Y-45720000D01*
X66100000Y-43120000D02*
X63440000Y-43120000D01*
X63440000Y-45720000D02*
X63440000Y-43120000D01*
%TO.C,A1*%
X78870000Y-62100000D02*
X76200000Y-62100000D01*
X73660000Y-62100000D02*
X35430000Y-62100000D01*
X35430000Y-62100000D02*
X35430000Y-67180000D01*
X76200000Y-64770000D02*
X76200000Y-62100000D01*
X73660000Y-64770000D02*
X73660000Y-62100000D01*
X73660000Y-64770000D02*
X76200000Y-64770000D01*
X73660000Y-64770000D02*
X38100000Y-64770000D01*
X38100000Y-64770000D02*
X38100000Y-62100000D01*
X43310000Y-67180000D02*
X43310000Y-75060000D01*
X32890000Y-67180000D02*
X43310000Y-67180000D01*
X43310000Y-75060000D02*
X32890000Y-75060000D01*
X32890000Y-75060000D02*
X32890000Y-67180000D01*
X76200000Y-77470000D02*
X38100000Y-77470000D01*
X76200000Y-77470000D02*
X76200000Y-80140000D01*
X38100000Y-77470000D02*
X38100000Y-80140000D01*
X78870000Y-80140000D02*
X78870000Y-62100000D01*
X35430000Y-80140000D02*
X35430000Y-75060000D01*
X35430000Y-80140000D02*
X78870000Y-80140000D01*
%TO.C,J6*%
X49595000Y-135195000D02*
X49595000Y-136525000D01*
X48265000Y-135195000D02*
X49595000Y-135195000D01*
X46995000Y-135195000D02*
X44395000Y-135195000D01*
X46995000Y-135195000D02*
X46995000Y-137855000D01*
X44395000Y-135195000D02*
X44395000Y-137855000D01*
X46995000Y-137855000D02*
X44395000Y-137855000D01*
%TD*%
M02*
