%TF.GenerationSoftware,KiCad,Pcbnew,9.0.1*%
%TF.CreationDate,2025-06-09T01:02:34-04:00*%
%TF.ProjectId,Pneumatactors_1Xiao_PiezoPumps_2Valves,506e6575-6d61-4746-9163-746f72735f31,rev?*%
%TF.SameCoordinates,Original*%
%TF.FileFunction,Copper,L2,Bot*%
%TF.FilePolarity,Positive*%
%FSLAX46Y46*%
G04 Gerber Fmt 4.6, Leading zero omitted, Abs format (unit mm)*
G04 Created by KiCad (PCBNEW 9.0.1) date 2025-06-09 01:02:34*
%MOMM*%
%LPD*%
G01*
G04 APERTURE LIST*
G04 Aperture macros list*
%AMRoundRect*
0 Rectangle with rounded corners*
0 $1 Rounding radius*
0 $2 $3 $4 $5 $6 $7 $8 $9 X,Y pos of 4 corners*
0 Add a 4 corners polygon primitive as box body*
4,1,4,$2,$3,$4,$5,$6,$7,$8,$9,$2,$3,0*
0 Add four circle primitives for the rounded corners*
1,1,$1+$1,$2,$3*
1,1,$1+$1,$4,$5*
1,1,$1+$1,$6,$7*
1,1,$1+$1,$8,$9*
0 Add four rect primitives between the rounded corners*
20,1,$1+$1,$2,$3,$4,$5,0*
20,1,$1+$1,$4,$5,$6,$7,0*
20,1,$1+$1,$6,$7,$8,$9,0*
20,1,$1+$1,$8,$9,$2,$3,0*%
G04 Aperture macros list end*
%TA.AperFunction,SMDPad,CuDef*%
%ADD10RoundRect,0.250000X1.000000X0.650000X-1.000000X0.650000X-1.000000X-0.650000X1.000000X-0.650000X0*%
%TD*%
%TA.AperFunction,SMDPad,CuDef*%
%ADD11RoundRect,0.250000X-0.250000X-1.500000X0.250000X-1.500000X0.250000X1.500000X-0.250000X1.500000X0*%
%TD*%
%TA.AperFunction,SMDPad,CuDef*%
%ADD12RoundRect,0.250001X-0.499999X-1.449999X0.499999X-1.449999X0.499999X1.449999X-0.499999X1.449999X0*%
%TD*%
%TA.AperFunction,SMDPad,CuDef*%
%ADD13R,1.701800X0.812800*%
%TD*%
%TA.AperFunction,SMDPad,CuDef*%
%ADD14R,3.098800X2.209800*%
%TD*%
%TA.AperFunction,SMDPad,CuDef*%
%ADD15RoundRect,0.150000X-0.587500X-0.150000X0.587500X-0.150000X0.587500X0.150000X-0.587500X0.150000X0*%
%TD*%
%TA.AperFunction,ComponentPad*%
%ADD16C,1.700000*%
%TD*%
%TA.AperFunction,ViaPad*%
%ADD17C,0.800000*%
%TD*%
%TA.AperFunction,Conductor*%
%ADD18C,0.250000*%
%TD*%
%TA.AperFunction,Conductor*%
%ADD19C,1.000000*%
%TD*%
%TA.AperFunction,Conductor*%
%ADD20C,0.500000*%
%TD*%
G04 APERTURE END LIST*
D10*
%TO.P,D2,1,K*%
%TO.N,5V*%
X37306000Y-85348501D03*
%TO.P,D2,2,A*%
%TO.N,Net-(D2-A)*%
X33306000Y-85348501D03*
%TD*%
%TO.P,D1,1,K*%
%TO.N,Net-(D1-K)*%
X40386000Y-66294000D03*
%TO.P,D1,2,A*%
%TO.N,5V*%
X36386000Y-66294000D03*
%TD*%
D11*
%TO.P,J3,1,Pin_1*%
%TO.N,GND*%
X34100000Y-61630000D03*
%TO.P,J3,2,Pin_2*%
%TO.N,BATTERY*%
X36100000Y-61630000D03*
D12*
%TO.P,J3,MP*%
%TO.N,N/C*%
X31750000Y-55880000D03*
X38450000Y-55880000D03*
%TD*%
D13*
%TO.P,J1,1,1*%
%TO.N,P1_A*%
X44704000Y-72654000D03*
%TO.P,J1,2,2*%
%TO.N,GND*%
X44704000Y-73904000D03*
%TO.P,J1,3,3*%
%TO.N,SCL*%
X44704000Y-75154000D03*
%TO.P,J1,4,4*%
%TO.N,SDA*%
X44704000Y-76404000D03*
%TO.P,J1,5,5*%
%TO.N,5V*%
X44704000Y-77654000D03*
D14*
%TO.P,J1,6*%
%TO.N,N/C*%
X47603999Y-80204000D03*
%TO.P,J1,7*%
X47603999Y-70104000D03*
%TD*%
D15*
%TO.P,Q1,1,G*%
%TO.N,V1*%
X32766000Y-82672000D03*
%TO.P,Q1,2,S*%
%TO.N,GND*%
X32766000Y-80772000D03*
%TO.P,Q1,3,D*%
%TO.N,Net-(D2-A)*%
X34641000Y-81722000D03*
%TD*%
%TO.P,Q2,1,G*%
%TO.N,V2*%
X40035000Y-82672000D03*
%TO.P,Q2,2,S*%
%TO.N,GND*%
X40035000Y-80772000D03*
%TO.P,Q2,3,D*%
%TO.N,Net-(D3-A)*%
X41910000Y-81722000D03*
%TD*%
D13*
%TO.P,J2,1,1*%
%TO.N,P2_A*%
X44704000Y-57825000D03*
%TO.P,J2,2,2*%
%TO.N,GND*%
X44704000Y-59075000D03*
%TO.P,J2,3,3*%
%TO.N,SCL*%
X44704000Y-60325000D03*
%TO.P,J2,4,4*%
%TO.N,SDA*%
X44704000Y-61575000D03*
%TO.P,J2,5,5*%
%TO.N,5V*%
X44704000Y-62825000D03*
D14*
%TO.P,J2,6*%
%TO.N,N/C*%
X47603999Y-65375000D03*
%TO.P,J2,7*%
X47603999Y-55275000D03*
%TD*%
D10*
%TO.P,D3,1,K*%
%TO.N,5V*%
X46887500Y-85348501D03*
%TO.P,D3,2,A*%
%TO.N,Net-(D3-A)*%
X42887500Y-85348501D03*
%TD*%
D16*
%TO.P,U2,1,VIN*%
%TO.N,BATTERY*%
X37846000Y-78486000D03*
%TO.P,U2,2,GND*%
%TO.N,GND*%
X35306000Y-78486000D03*
%TO.P,U2,3,VOUT*%
%TO.N,5V*%
X32766000Y-78486000D03*
%TD*%
D17*
%TO.N,GND*%
X46329600Y-57658000D03*
X46278800Y-60401200D03*
X46278800Y-73456800D03*
%TO.N,5V*%
X36386000Y-71374000D03*
X39878000Y-71120000D03*
X45329000Y-81682001D03*
X36929100Y-85348501D03*
X44704000Y-77675000D03*
%TO.N,Net-(D3-A)*%
X44079000Y-81682001D03*
%TO.N,P1_A*%
X44704000Y-70612000D03*
%TO.N,GND*%
X36576000Y-58166000D03*
X49530000Y-86868000D03*
X40386000Y-68326000D03*
X30683200Y-87071200D03*
X39878000Y-72644000D03*
X34036000Y-55118000D03*
X42672000Y-61976000D03*
X31496000Y-76454000D03*
X36576000Y-76708000D03*
X48869600Y-74218800D03*
X44450000Y-83820000D03*
%TO.N,P2_A*%
X44704000Y-57825000D03*
%TO.N,V1*%
X31242000Y-81788000D03*
%TO.N,V2*%
X39370000Y-81788000D03*
%TO.N,SDA*%
X44704000Y-76404000D03*
X38354000Y-80264000D03*
%TO.N,SCL*%
X32151500Y-69405500D03*
X40894000Y-74422000D03*
%TO.N,Net-(D1-K)*%
X42926000Y-54610000D03*
%TO.N,Net-(D2-A)*%
X34935000Y-81682001D03*
%TD*%
D18*
%TO.N,SCL*%
X42646600Y-60325000D02*
X41212000Y-58890400D01*
X43752000Y-54952140D02*
X43752000Y-54267860D01*
X44704000Y-60325000D02*
X42646600Y-60325000D01*
X41212000Y-58890400D02*
X41212000Y-57492140D01*
X41212000Y-57492140D02*
X43752000Y-54952140D01*
X43752000Y-54267860D02*
X43268140Y-53784000D01*
X43268140Y-53784000D02*
X37774486Y-53784000D01*
X37774486Y-53784000D02*
X32151500Y-59406986D01*
X32151500Y-59406986D02*
X32151500Y-69405500D01*
%TO.N,SDA*%
X44704000Y-61575000D02*
X45804900Y-61575000D01*
X45804900Y-61575000D02*
X46482000Y-62252100D01*
X47244000Y-73284700D02*
X47244000Y-74422000D01*
X47244000Y-74422000D02*
X45262000Y-76404000D01*
X46482000Y-62252100D02*
X46482000Y-63190699D01*
X46482000Y-63190699D02*
X45728599Y-63944100D01*
X45262000Y-76404000D02*
X44704000Y-76404000D01*
X45728599Y-63944100D02*
X45728599Y-71769299D01*
X45728599Y-71769299D02*
X47244000Y-73284700D01*
D19*
%TO.N,5V*%
X34861001Y-80581001D02*
X35445153Y-80581001D01*
X46887500Y-83240501D02*
X45329000Y-81682001D01*
X46887500Y-85348501D02*
X46887500Y-83240501D01*
X32766000Y-78486000D02*
X36386000Y-74866000D01*
X37306000Y-85348501D02*
X38907000Y-86949501D01*
X35445153Y-80581001D02*
X37306000Y-82441848D01*
X45286500Y-86949501D02*
X46887500Y-85348501D01*
X38907000Y-86949501D02*
X45286500Y-86949501D01*
X37306000Y-82441848D02*
X37306000Y-85348501D01*
X36386000Y-71374000D02*
X36386000Y-66294000D01*
X32766000Y-78486000D02*
X34861001Y-80581001D01*
X36386000Y-74866000D02*
X36386000Y-71374000D01*
X44704000Y-66294000D02*
X39878000Y-71120000D01*
X44704000Y-62825000D02*
X44704000Y-66294000D01*
D20*
%TO.N,Net-(D3-A)*%
X41910000Y-81722000D02*
X41910000Y-84371001D01*
X41910000Y-84371001D02*
X42887500Y-85348501D01*
X41910000Y-81722000D02*
X44039001Y-81722000D01*
X44039001Y-81722000D02*
X44079000Y-81682001D01*
D18*
%TO.N,P1_A*%
X44704000Y-72654000D02*
X44704000Y-70612000D01*
%TO.N,V1*%
X31882000Y-81788000D02*
X32766000Y-82672000D01*
X31242000Y-81788000D02*
X31882000Y-81788000D01*
%TO.N,V2*%
X39370000Y-81788000D02*
X39370000Y-82007000D01*
X39370000Y-82007000D02*
X40035000Y-82672000D01*
%TO.N,SDA*%
X38354000Y-80264000D02*
X42214000Y-76404000D01*
X42214000Y-76404000D02*
X44704000Y-76404000D01*
%TO.N,SCL*%
X44166000Y-75154000D02*
X44704000Y-75154000D01*
X40894000Y-74422000D02*
X41626000Y-75154000D01*
X43527100Y-74515100D02*
X44166000Y-75154000D01*
X41626000Y-75154000D02*
X44704000Y-75154000D01*
X44704000Y-60325000D02*
X44044700Y-60325000D01*
D19*
%TO.N,Net-(D1-K)*%
X40386000Y-66294000D02*
X40386000Y-57150000D01*
X40386000Y-57150000D02*
X42926000Y-54610000D01*
D20*
%TO.N,Net-(D2-A)*%
X34935000Y-81682001D02*
X34935000Y-83719501D01*
X34935000Y-83719501D02*
X33306000Y-85348501D01*
D19*
%TO.N,BATTERY*%
X38337000Y-63867000D02*
X38337000Y-77995000D01*
X36100000Y-61630000D02*
X38337000Y-63867000D01*
X38337000Y-77995000D02*
X37846000Y-78486000D01*
%TD*%
%TA.AperFunction,Conductor*%
%TO.N,GND*%
G36*
X37525336Y-53360185D02*
G01*
X37571091Y-53412989D01*
X37581035Y-53482147D01*
X37552010Y-53545703D01*
X37545978Y-53552181D01*
X31891037Y-59207121D01*
X31891033Y-59207127D01*
X31848181Y-59281347D01*
X31848182Y-59281348D01*
X31826000Y-59364133D01*
X31826000Y-68830669D01*
X31806315Y-68897708D01*
X31787482Y-68918184D01*
X31788531Y-68919233D01*
X31670981Y-69036782D01*
X31670975Y-69036790D01*
X31591926Y-69173709D01*
X31591923Y-69173716D01*
X31551000Y-69326443D01*
X31551000Y-69484556D01*
X31591923Y-69637283D01*
X31591926Y-69637290D01*
X31670975Y-69774209D01*
X31670979Y-69774214D01*
X31670980Y-69774216D01*
X31782784Y-69886020D01*
X31782786Y-69886021D01*
X31782790Y-69886024D01*
X31919709Y-69965073D01*
X31919716Y-69965077D01*
X32072443Y-70006000D01*
X32072445Y-70006000D01*
X32230555Y-70006000D01*
X32230557Y-70006000D01*
X32383284Y-69965077D01*
X32520216Y-69886020D01*
X32632020Y-69774216D01*
X32711077Y-69637284D01*
X32752000Y-69484557D01*
X32752000Y-69326443D01*
X32711077Y-69173716D01*
X32711073Y-69173709D01*
X32632024Y-69036790D01*
X32632018Y-69036782D01*
X32514469Y-68919233D01*
X32516707Y-68916994D01*
X32484298Y-68872580D01*
X32477000Y-68830669D01*
X32477000Y-63179986D01*
X33100001Y-63179986D01*
X33110494Y-63282697D01*
X33165641Y-63449119D01*
X33165643Y-63449124D01*
X33257684Y-63598345D01*
X33381654Y-63722315D01*
X33530875Y-63814356D01*
X33530880Y-63814358D01*
X33697302Y-63869505D01*
X33697309Y-63869506D01*
X33800019Y-63879999D01*
X34350000Y-63879999D01*
X34399972Y-63879999D01*
X34399986Y-63879998D01*
X34502697Y-63869505D01*
X34669119Y-63814358D01*
X34669124Y-63814356D01*
X34818345Y-63722315D01*
X34942315Y-63598345D01*
X35034356Y-63449124D01*
X35034358Y-63449119D01*
X35089505Y-63282697D01*
X35089506Y-63282690D01*
X35099999Y-63179986D01*
X35100000Y-63179973D01*
X35100000Y-61880000D01*
X34350000Y-61880000D01*
X34350000Y-63879999D01*
X33800019Y-63879999D01*
X33849999Y-63879998D01*
X33850000Y-63879998D01*
X33850000Y-61880000D01*
X33100001Y-61880000D01*
X33100001Y-63179986D01*
X32477000Y-63179986D01*
X32477000Y-60080013D01*
X33100000Y-60080013D01*
X33100000Y-61380000D01*
X33850000Y-61380000D01*
X34350000Y-61380000D01*
X35099999Y-61380000D01*
X35099999Y-60080028D01*
X35099998Y-60080013D01*
X35089505Y-59977302D01*
X35034358Y-59810880D01*
X35034356Y-59810875D01*
X34942315Y-59661654D01*
X34818345Y-59537684D01*
X34669124Y-59445643D01*
X34669119Y-59445641D01*
X34502697Y-59390494D01*
X34502690Y-59390493D01*
X34399986Y-59380000D01*
X34350000Y-59380000D01*
X34350000Y-61380000D01*
X33850000Y-61380000D01*
X33850000Y-59380000D01*
X33849999Y-59379999D01*
X33800029Y-59380000D01*
X33800011Y-59380001D01*
X33697302Y-59390494D01*
X33530880Y-59445641D01*
X33530875Y-59445643D01*
X33381654Y-59537684D01*
X33257684Y-59661654D01*
X33165643Y-59810875D01*
X33165641Y-59810880D01*
X33110494Y-59977302D01*
X33110493Y-59977309D01*
X33100000Y-60080013D01*
X32477000Y-60080013D01*
X32477000Y-59593174D01*
X32496685Y-59526135D01*
X32513314Y-59505498D01*
X37287821Y-54730990D01*
X37349142Y-54697507D01*
X37418834Y-54702491D01*
X37474767Y-54744363D01*
X37499184Y-54809827D01*
X37499500Y-54818673D01*
X37499500Y-57384258D01*
X37502354Y-57414698D01*
X37502354Y-57414699D01*
X37547206Y-57542881D01*
X37547207Y-57542882D01*
X37627850Y-57652150D01*
X37737118Y-57732793D01*
X37865302Y-57777646D01*
X37865301Y-57777646D01*
X37869271Y-57778018D01*
X37895735Y-57780500D01*
X39004264Y-57780499D01*
X39034698Y-57777646D01*
X39162882Y-57732793D01*
X39272150Y-57652150D01*
X39352793Y-57542882D01*
X39397646Y-57414698D01*
X39400500Y-57384265D01*
X39400499Y-54375736D01*
X39397646Y-54345302D01*
X39372854Y-54274452D01*
X39369294Y-54204675D01*
X39404023Y-54144048D01*
X39466016Y-54111821D01*
X39489897Y-54109500D01*
X42136482Y-54109500D01*
X42203521Y-54129185D01*
X42249276Y-54181989D01*
X42259220Y-54251147D01*
X42230195Y-54314703D01*
X42224163Y-54321181D01*
X39841888Y-56703453D01*
X39841887Y-56703454D01*
X39765222Y-56818192D01*
X39712421Y-56945667D01*
X39712418Y-56945677D01*
X39685500Y-57081004D01*
X39685500Y-65069500D01*
X39665815Y-65136539D01*
X39613011Y-65182294D01*
X39561500Y-65193500D01*
X39331730Y-65193500D01*
X39301300Y-65196353D01*
X39301298Y-65196354D01*
X39202455Y-65230941D01*
X39132676Y-65234503D01*
X39072049Y-65199775D01*
X39039821Y-65137781D01*
X39037500Y-65113900D01*
X39037500Y-63798004D01*
X39010581Y-63662677D01*
X39010580Y-63662676D01*
X39010580Y-63662672D01*
X38983935Y-63598345D01*
X38957778Y-63535195D01*
X38957776Y-63535191D01*
X38957775Y-63535189D01*
X38902290Y-63452150D01*
X38902288Y-63452147D01*
X38881116Y-63420459D01*
X36836819Y-61376162D01*
X36803334Y-61314839D01*
X36800500Y-61288481D01*
X36800500Y-60075730D01*
X36797646Y-60045300D01*
X36797646Y-60045298D01*
X36752793Y-59917119D01*
X36752792Y-59917117D01*
X36715548Y-59866653D01*
X36672150Y-59807850D01*
X36562882Y-59727207D01*
X36562880Y-59727206D01*
X36434700Y-59682353D01*
X36404270Y-59679500D01*
X36404266Y-59679500D01*
X35795734Y-59679500D01*
X35795730Y-59679500D01*
X35765300Y-59682353D01*
X35765298Y-59682353D01*
X35637119Y-59727206D01*
X35637117Y-59727207D01*
X35527850Y-59807850D01*
X35447207Y-59917117D01*
X35447206Y-59917119D01*
X35402353Y-60045298D01*
X35402353Y-60045300D01*
X35399500Y-60075730D01*
X35399500Y-63184269D01*
X35402353Y-63214699D01*
X35402353Y-63214701D01*
X35437919Y-63316339D01*
X35447207Y-63342882D01*
X35527850Y-63452150D01*
X35637118Y-63532793D01*
X35643983Y-63535195D01*
X35765299Y-63577646D01*
X35795730Y-63580500D01*
X35795734Y-63580500D01*
X36404270Y-63580500D01*
X36434699Y-63577646D01*
X36434701Y-63577646D01*
X36498790Y-63555219D01*
X36562882Y-63532793D01*
X36672150Y-63452150D01*
X36696713Y-63418867D01*
X36752357Y-63376618D01*
X36822013Y-63371158D01*
X36883563Y-63404223D01*
X36884163Y-63404820D01*
X37600181Y-64120838D01*
X37633666Y-64182161D01*
X37636500Y-64208519D01*
X37636500Y-65079608D01*
X37616815Y-65146647D01*
X37564011Y-65192402D01*
X37494853Y-65202346D01*
X37471547Y-65196650D01*
X37470699Y-65196353D01*
X37440270Y-65193500D01*
X37440266Y-65193500D01*
X35331734Y-65193500D01*
X35331730Y-65193500D01*
X35301300Y-65196353D01*
X35301298Y-65196353D01*
X35173119Y-65241206D01*
X35173117Y-65241207D01*
X35063850Y-65321850D01*
X34983207Y-65431117D01*
X34983206Y-65431119D01*
X34938353Y-65559298D01*
X34938353Y-65559300D01*
X34935500Y-65589730D01*
X34935500Y-66998269D01*
X34938353Y-67028699D01*
X34938353Y-67028701D01*
X34983206Y-67156880D01*
X34983207Y-67156882D01*
X35063850Y-67266150D01*
X35173118Y-67346793D01*
X35186173Y-67351361D01*
X35301299Y-67391646D01*
X35331730Y-67394500D01*
X35331734Y-67394500D01*
X35561500Y-67394500D01*
X35628539Y-67414185D01*
X35674294Y-67466989D01*
X35685500Y-67518500D01*
X35685500Y-74524481D01*
X35665815Y-74591520D01*
X35649181Y-74612162D01*
X32862162Y-77399181D01*
X32800839Y-77432666D01*
X32774481Y-77435500D01*
X32662530Y-77435500D01*
X32459587Y-77475868D01*
X32459579Y-77475870D01*
X32268403Y-77555058D01*
X32096342Y-77670024D01*
X31950024Y-77816342D01*
X31835058Y-77988403D01*
X31755870Y-78179579D01*
X31755868Y-78179587D01*
X31715500Y-78382530D01*
X31715500Y-78589469D01*
X31755868Y-78792412D01*
X31755870Y-78792420D01*
X31835058Y-78983596D01*
X31950024Y-79155657D01*
X32096342Y-79301975D01*
X32096345Y-79301977D01*
X32268402Y-79416941D01*
X32459580Y-79496130D01*
X32662530Y-79536499D01*
X32662534Y-79536500D01*
X32662535Y-79536500D01*
X32774481Y-79536500D01*
X32841520Y-79556185D01*
X32862162Y-79572819D01*
X33050990Y-79761647D01*
X33084475Y-79822970D01*
X33079491Y-79892662D01*
X33050991Y-79937009D01*
X33016000Y-79972000D01*
X33016000Y-81572000D01*
X33419134Y-81572000D01*
X33419149Y-81571999D01*
X33455989Y-81569100D01*
X33455992Y-81569099D01*
X33544404Y-81543413D01*
X33614274Y-81543612D01*
X33672944Y-81581554D01*
X33701788Y-81645192D01*
X33703000Y-81662489D01*
X33703000Y-81905260D01*
X33712926Y-81973391D01*
X33764303Y-82078485D01*
X33847014Y-82161196D01*
X33847015Y-82161196D01*
X33847017Y-82161198D01*
X33952107Y-82212573D01*
X33986173Y-82217536D01*
X34020239Y-82222500D01*
X34020240Y-82222500D01*
X34360500Y-82222500D01*
X34427539Y-82242185D01*
X34473294Y-82294989D01*
X34484500Y-82346500D01*
X34484500Y-83481536D01*
X34464815Y-83548575D01*
X34448181Y-83569217D01*
X33805716Y-84211682D01*
X33744393Y-84245167D01*
X33718035Y-84248001D01*
X32251730Y-84248001D01*
X32221300Y-84250854D01*
X32221298Y-84250854D01*
X32093119Y-84295707D01*
X32093117Y-84295708D01*
X31983850Y-84376351D01*
X31903207Y-84485618D01*
X31903206Y-84485620D01*
X31858353Y-84613799D01*
X31858353Y-84613801D01*
X31855500Y-84644231D01*
X31855500Y-86052770D01*
X31858353Y-86083200D01*
X31858353Y-86083202D01*
X31903206Y-86211381D01*
X31903207Y-86211383D01*
X31983850Y-86320651D01*
X32093118Y-86401294D01*
X32135845Y-86416245D01*
X32221299Y-86446147D01*
X32251730Y-86449001D01*
X32251734Y-86449001D01*
X34360270Y-86449001D01*
X34390699Y-86446147D01*
X34390701Y-86446147D01*
X34454790Y-86423720D01*
X34518882Y-86401294D01*
X34628150Y-86320651D01*
X34708793Y-86211383D01*
X34731219Y-86147291D01*
X34753646Y-86083202D01*
X34753646Y-86083200D01*
X34756500Y-86052770D01*
X34756500Y-84644231D01*
X34752942Y-84606289D01*
X34755342Y-84606063D01*
X34759432Y-84548089D01*
X34787973Y-84503630D01*
X35295489Y-83996115D01*
X35354799Y-83893388D01*
X35363403Y-83861276D01*
X35385500Y-83778810D01*
X35385500Y-82260355D01*
X35405185Y-82193316D01*
X35428299Y-82169045D01*
X35427717Y-82168463D01*
X35434981Y-82161198D01*
X35434983Y-82161198D01*
X35517698Y-82078483D01*
X35569073Y-81973393D01*
X35569073Y-81973391D01*
X35569074Y-81973390D01*
X35571916Y-81964193D01*
X35573693Y-81964742D01*
X35597908Y-81911971D01*
X35656754Y-81874302D01*
X35726624Y-81874428D01*
X35779156Y-81905661D01*
X36569181Y-82695686D01*
X36602666Y-82757009D01*
X36605500Y-82783367D01*
X36605500Y-84124001D01*
X36585815Y-84191040D01*
X36533011Y-84236795D01*
X36481500Y-84248001D01*
X36251730Y-84248001D01*
X36221300Y-84250854D01*
X36221298Y-84250854D01*
X36093119Y-84295707D01*
X36093117Y-84295708D01*
X35983850Y-84376351D01*
X35903207Y-84485618D01*
X35903206Y-84485620D01*
X35858353Y-84613799D01*
X35858353Y-84613801D01*
X35855500Y-84644231D01*
X35855500Y-86052770D01*
X35858353Y-86083200D01*
X35858353Y-86083202D01*
X35903206Y-86211381D01*
X35903207Y-86211383D01*
X35983850Y-86320651D01*
X36093118Y-86401294D01*
X36135845Y-86416245D01*
X36221299Y-86446147D01*
X36251730Y-86449001D01*
X36251734Y-86449001D01*
X37364481Y-86449001D01*
X37431520Y-86468686D01*
X37452162Y-86485320D01*
X38384660Y-87417819D01*
X38418145Y-87479142D01*
X38413161Y-87548834D01*
X38371289Y-87604767D01*
X38305825Y-87629184D01*
X38296979Y-87629500D01*
X30350500Y-87629500D01*
X30283461Y-87609815D01*
X30237706Y-87557011D01*
X30226500Y-87505500D01*
X30226500Y-81708943D01*
X30641500Y-81708943D01*
X30641500Y-81867057D01*
X30667528Y-81964193D01*
X30682423Y-82019783D01*
X30682426Y-82019790D01*
X30761475Y-82156709D01*
X30761479Y-82156714D01*
X30761480Y-82156716D01*
X30873284Y-82268520D01*
X30873286Y-82268521D01*
X30873290Y-82268524D01*
X31010209Y-82347573D01*
X31010216Y-82347577D01*
X31162943Y-82388500D01*
X31162945Y-82388500D01*
X31321055Y-82388500D01*
X31321057Y-82388500D01*
X31473784Y-82347577D01*
X31610716Y-82268520D01*
X31668774Y-82210462D01*
X31676719Y-82206123D01*
X31682145Y-82198876D01*
X31706904Y-82189641D01*
X31730097Y-82176977D01*
X31739126Y-82177622D01*
X31747609Y-82174459D01*
X31773429Y-82180075D01*
X31799789Y-82181961D01*
X31808842Y-82187779D01*
X31815882Y-82189311D01*
X31844136Y-82210462D01*
X31846363Y-82212689D01*
X31879848Y-82274012D01*
X31874864Y-82343704D01*
X31870083Y-82354830D01*
X31837926Y-82420608D01*
X31828000Y-82488739D01*
X31828000Y-82855259D01*
X31827999Y-82855259D01*
X31837926Y-82923391D01*
X31889303Y-83028485D01*
X31972014Y-83111196D01*
X31972015Y-83111196D01*
X31972017Y-83111198D01*
X32077107Y-83162573D01*
X32111173Y-83167536D01*
X32145239Y-83172500D01*
X32145240Y-83172500D01*
X33386761Y-83172500D01*
X33409471Y-83169191D01*
X33454893Y-83162573D01*
X33559983Y-83111198D01*
X33642698Y-83028483D01*
X33694073Y-82923393D01*
X33704000Y-82855260D01*
X33704000Y-82488740D01*
X33694073Y-82420607D01*
X33642698Y-82315517D01*
X33642696Y-82315515D01*
X33642696Y-82315514D01*
X33559985Y-82232803D01*
X33454891Y-82181426D01*
X33386761Y-82171500D01*
X33386760Y-82171500D01*
X32777188Y-82171500D01*
X32710149Y-82151815D01*
X32689507Y-82135181D01*
X32338008Y-81783681D01*
X32304523Y-81722358D01*
X32309507Y-81652666D01*
X32351379Y-81596733D01*
X32416843Y-81572316D01*
X32425689Y-81572000D01*
X32516000Y-81572000D01*
X32516000Y-81022000D01*
X31531205Y-81022000D01*
X31531204Y-81022001D01*
X31531399Y-81024488D01*
X31531400Y-81024494D01*
X31539117Y-81051056D01*
X31538916Y-81120925D01*
X31500973Y-81179594D01*
X31437334Y-81208436D01*
X31387947Y-81205423D01*
X31371401Y-81200989D01*
X31321057Y-81187500D01*
X31162943Y-81187500D01*
X31010216Y-81228423D01*
X31010209Y-81228426D01*
X30873290Y-81307475D01*
X30873282Y-81307481D01*
X30761481Y-81419282D01*
X30761475Y-81419290D01*
X30682426Y-81556209D01*
X30682423Y-81556216D01*
X30641500Y-81708943D01*
X30226500Y-81708943D01*
X30226500Y-80521998D01*
X31531204Y-80521998D01*
X31531205Y-80522000D01*
X32516000Y-80522000D01*
X32516000Y-79972000D01*
X32112850Y-79972000D01*
X32076010Y-79974899D01*
X32076004Y-79974900D01*
X31918306Y-80020716D01*
X31918303Y-80020717D01*
X31776947Y-80104314D01*
X31776938Y-80104321D01*
X31660821Y-80220438D01*
X31660814Y-80220447D01*
X31577218Y-80361801D01*
X31531399Y-80519513D01*
X31531204Y-80521998D01*
X30226500Y-80521998D01*
X30226500Y-54375731D01*
X30799500Y-54375731D01*
X30799500Y-57384258D01*
X30802354Y-57414698D01*
X30802354Y-57414699D01*
X30847206Y-57542881D01*
X30847207Y-57542882D01*
X30927850Y-57652150D01*
X31037118Y-57732793D01*
X31165302Y-57777646D01*
X31165301Y-57777646D01*
X31169271Y-57778018D01*
X31195735Y-57780500D01*
X32304264Y-57780499D01*
X32334698Y-57777646D01*
X32462882Y-57732793D01*
X32572150Y-57652150D01*
X32652793Y-57542882D01*
X32697646Y-57414698D01*
X32700500Y-57384265D01*
X32700499Y-54375736D01*
X32697646Y-54345302D01*
X32652793Y-54217118D01*
X32572150Y-54107850D01*
X32462882Y-54027207D01*
X32462881Y-54027206D01*
X32334695Y-53982353D01*
X32334698Y-53982353D01*
X32304268Y-53979500D01*
X31195741Y-53979500D01*
X31165301Y-53982354D01*
X31165300Y-53982354D01*
X31037118Y-54027206D01*
X30927850Y-54107850D01*
X30847206Y-54217118D01*
X30802353Y-54345302D01*
X30799500Y-54375731D01*
X30226500Y-54375731D01*
X30226500Y-53464500D01*
X30246185Y-53397461D01*
X30298989Y-53351706D01*
X30350500Y-53340500D01*
X37458297Y-53340500D01*
X37525336Y-53360185D01*
G37*
%TD.AperFunction*%
%TA.AperFunction,Conductor*%
G36*
X50234539Y-53360185D02*
G01*
X50280294Y-53412989D01*
X50291500Y-53464500D01*
X50291500Y-87505500D01*
X50271815Y-87572539D01*
X50219011Y-87618294D01*
X50167500Y-87629500D01*
X45896521Y-87629500D01*
X45829482Y-87609815D01*
X45783727Y-87557011D01*
X45773783Y-87487853D01*
X45802808Y-87424297D01*
X45808840Y-87417819D01*
X46741338Y-86485320D01*
X46802661Y-86451835D01*
X46829019Y-86449001D01*
X47941770Y-86449001D01*
X47972199Y-86446147D01*
X47972201Y-86446147D01*
X48036290Y-86423720D01*
X48100382Y-86401294D01*
X48209650Y-86320651D01*
X48290293Y-86211383D01*
X48312719Y-86147291D01*
X48335146Y-86083202D01*
X48335146Y-86083200D01*
X48338000Y-86052770D01*
X48338000Y-84644231D01*
X48335146Y-84613801D01*
X48335146Y-84613799D01*
X48290293Y-84485620D01*
X48290292Y-84485618D01*
X48209650Y-84376351D01*
X48100382Y-84295708D01*
X48100380Y-84295707D01*
X47972200Y-84250854D01*
X47941770Y-84248001D01*
X47941766Y-84248001D01*
X47712000Y-84248001D01*
X47644961Y-84228316D01*
X47599206Y-84175512D01*
X47588000Y-84124001D01*
X47588000Y-83171505D01*
X47561081Y-83036178D01*
X47561080Y-83036177D01*
X47561080Y-83036173D01*
X47557895Y-83028483D01*
X47508278Y-82908696D01*
X47508274Y-82908689D01*
X47472574Y-82855260D01*
X47472574Y-82855259D01*
X47431615Y-82793959D01*
X47431609Y-82793952D01*
X46358737Y-81721081D01*
X46325252Y-81659758D01*
X46330236Y-81590066D01*
X46372108Y-81534133D01*
X46437572Y-81509716D01*
X46446418Y-81509400D01*
X49173149Y-81509400D01*
X49173150Y-81509399D01*
X49187967Y-81506452D01*
X49231628Y-81497768D01*
X49231628Y-81497767D01*
X49231630Y-81497767D01*
X49297951Y-81453452D01*
X49342266Y-81387131D01*
X49342266Y-81387129D01*
X49342267Y-81387129D01*
X49353898Y-81328652D01*
X49353899Y-81328650D01*
X49353899Y-79079349D01*
X49353898Y-79079347D01*
X49342267Y-79020870D01*
X49342266Y-79020869D01*
X49297951Y-78954547D01*
X49231629Y-78910232D01*
X49231628Y-78910231D01*
X49173151Y-78898600D01*
X49173147Y-78898600D01*
X46034851Y-78898600D01*
X46034846Y-78898600D01*
X45976369Y-78910231D01*
X45976368Y-78910232D01*
X45910046Y-78954547D01*
X45865731Y-79020869D01*
X45865730Y-79020870D01*
X45854099Y-79079347D01*
X45854099Y-80958389D01*
X45834414Y-81025428D01*
X45781610Y-81071183D01*
X45712452Y-81081127D01*
X45666491Y-81063515D01*
X45666181Y-81064096D01*
X45661562Y-81061627D01*
X45661212Y-81061493D01*
X45660814Y-81061227D01*
X45660809Y-81061224D01*
X45533332Y-81008422D01*
X45533322Y-81008419D01*
X45397996Y-80981501D01*
X45397994Y-80981501D01*
X45260006Y-80981501D01*
X45260004Y-80981501D01*
X45124677Y-81008419D01*
X45124667Y-81008422D01*
X44997192Y-81061223D01*
X44882454Y-81137888D01*
X44784885Y-81235457D01*
X44747387Y-81291579D01*
X44693775Y-81336384D01*
X44624450Y-81345091D01*
X44561423Y-81314937D01*
X44556604Y-81310369D01*
X44447717Y-81201482D01*
X44447709Y-81201476D01*
X44310790Y-81122427D01*
X44310786Y-81122425D01*
X44310784Y-81122424D01*
X44158057Y-81081501D01*
X43999943Y-81081501D01*
X43847216Y-81122424D01*
X43847209Y-81122427D01*
X43710290Y-81201476D01*
X43710282Y-81201482D01*
X43676584Y-81235181D01*
X43615261Y-81268666D01*
X43588903Y-81271500D01*
X42709552Y-81271500D01*
X42655092Y-81258901D01*
X42598891Y-81231426D01*
X42530761Y-81221500D01*
X42530760Y-81221500D01*
X41377516Y-81221500D01*
X41310477Y-81201815D01*
X41264722Y-81149011D01*
X41254778Y-81079853D01*
X41258439Y-81062905D01*
X41269600Y-81024486D01*
X41269795Y-81022001D01*
X41269795Y-81022000D01*
X40285000Y-81022000D01*
X40285000Y-81572000D01*
X40688134Y-81572000D01*
X40688149Y-81571999D01*
X40724989Y-81569100D01*
X40724992Y-81569099D01*
X40813404Y-81543413D01*
X40883274Y-81543612D01*
X40941944Y-81581554D01*
X40970788Y-81645192D01*
X40972000Y-81662489D01*
X40972000Y-81905260D01*
X40981926Y-81973391D01*
X41033303Y-82078485D01*
X41116014Y-82161196D01*
X41116015Y-82161196D01*
X41116017Y-82161198D01*
X41221107Y-82212573D01*
X41255173Y-82217536D01*
X41289239Y-82222500D01*
X41289240Y-82222500D01*
X41335500Y-82222500D01*
X41402539Y-82242185D01*
X41448294Y-82294989D01*
X41459500Y-82346500D01*
X41459500Y-84430314D01*
X41468924Y-84465485D01*
X41467260Y-84535335D01*
X41466191Y-84538528D01*
X41439855Y-84613796D01*
X41439853Y-84613806D01*
X41437000Y-84644231D01*
X41437000Y-86052770D01*
X41439853Y-86083200D01*
X41439853Y-86083201D01*
X41440150Y-86084048D01*
X41440183Y-86084713D01*
X41441464Y-86090574D01*
X41440493Y-86090785D01*
X41443711Y-86153827D01*
X41408981Y-86214454D01*
X41346987Y-86246680D01*
X41323108Y-86249001D01*
X39248519Y-86249001D01*
X39181480Y-86229316D01*
X39160838Y-86212682D01*
X38792819Y-85844663D01*
X38759334Y-85783340D01*
X38756500Y-85756982D01*
X38756500Y-84644231D01*
X38753646Y-84613801D01*
X38753646Y-84613799D01*
X38708793Y-84485620D01*
X38708792Y-84485618D01*
X38628150Y-84376351D01*
X38518882Y-84295708D01*
X38518880Y-84295707D01*
X38390700Y-84250854D01*
X38360270Y-84248001D01*
X38360266Y-84248001D01*
X38130500Y-84248001D01*
X38063461Y-84228316D01*
X38017706Y-84175512D01*
X38006500Y-84124001D01*
X38006500Y-82372853D01*
X37990920Y-82294532D01*
X37985536Y-82267465D01*
X37979580Y-82237520D01*
X37926775Y-82110037D01*
X37850114Y-81995305D01*
X37850112Y-81995302D01*
X35891698Y-80036888D01*
X35780310Y-79962462D01*
X35735504Y-79908849D01*
X35726797Y-79839525D01*
X35756951Y-79776497D01*
X35810885Y-79741427D01*
X35824217Y-79737095D01*
X36013554Y-79640622D01*
X36067716Y-79601270D01*
X36067717Y-79601270D01*
X35435409Y-78968962D01*
X35498993Y-78951925D01*
X35613007Y-78886099D01*
X35706099Y-78793007D01*
X35771925Y-78678993D01*
X35788962Y-78615408D01*
X36421270Y-79247717D01*
X36421270Y-79247716D01*
X36460622Y-79193554D01*
X36557095Y-79004217D01*
X36614343Y-78828026D01*
X36653780Y-78770351D01*
X36718139Y-78743152D01*
X36786985Y-78755066D01*
X36838461Y-78802310D01*
X36846833Y-78818887D01*
X36884669Y-78910231D01*
X36915058Y-78983596D01*
X37030024Y-79155657D01*
X37176342Y-79301975D01*
X37176345Y-79301977D01*
X37348402Y-79416941D01*
X37539580Y-79496130D01*
X37742530Y-79536499D01*
X37742534Y-79536500D01*
X37950292Y-79536500D01*
X38017331Y-79556185D01*
X38063086Y-79608989D01*
X38073030Y-79678147D01*
X38044005Y-79741703D01*
X38012292Y-79767886D01*
X38005210Y-79771975D01*
X37985284Y-79783479D01*
X37873481Y-79895282D01*
X37873475Y-79895290D01*
X37794426Y-80032209D01*
X37794423Y-80032216D01*
X37753500Y-80184943D01*
X37753500Y-80343057D01*
X37758523Y-80361801D01*
X37794423Y-80495783D01*
X37794426Y-80495790D01*
X37873475Y-80632709D01*
X37873479Y-80632714D01*
X37873480Y-80632716D01*
X37985284Y-80744520D01*
X37985286Y-80744521D01*
X37985290Y-80744524D01*
X38122209Y-80823573D01*
X38122216Y-80823577D01*
X38274943Y-80864500D01*
X38274945Y-80864500D01*
X38433055Y-80864500D01*
X38433057Y-80864500D01*
X38585784Y-80823577D01*
X38611500Y-80808730D01*
X38679400Y-80792257D01*
X38745427Y-80815110D01*
X38788618Y-80870031D01*
X38797500Y-80916117D01*
X38797500Y-80987649D01*
X38800399Y-81024489D01*
X38800400Y-81024495D01*
X38846216Y-81182193D01*
X38846217Y-81182196D01*
X38901575Y-81275802D01*
X38918758Y-81343526D01*
X38896598Y-81409789D01*
X38893225Y-81414402D01*
X38889477Y-81419286D01*
X38810426Y-81556209D01*
X38810423Y-81556216D01*
X38769500Y-81708943D01*
X38769500Y-81867057D01*
X38795528Y-81964193D01*
X38810423Y-82019783D01*
X38810426Y-82019790D01*
X38889475Y-82156709D01*
X38889479Y-82156714D01*
X38889480Y-82156716D01*
X39001284Y-82268520D01*
X39046339Y-82294532D01*
X39094555Y-82345099D01*
X39107779Y-82413706D01*
X39107045Y-82419797D01*
X39106927Y-82420607D01*
X39097000Y-82488740D01*
X39097000Y-82488744D01*
X39097000Y-82855259D01*
X39096999Y-82855259D01*
X39106926Y-82923391D01*
X39158303Y-83028485D01*
X39241014Y-83111196D01*
X39241015Y-83111196D01*
X39241017Y-83111198D01*
X39346107Y-83162573D01*
X39380173Y-83167536D01*
X39414239Y-83172500D01*
X39414240Y-83172500D01*
X40655761Y-83172500D01*
X40678471Y-83169191D01*
X40723893Y-83162573D01*
X40828983Y-83111198D01*
X40911698Y-83028483D01*
X40963073Y-82923393D01*
X40973000Y-82855260D01*
X40973000Y-82488740D01*
X40963073Y-82420607D01*
X40911698Y-82315517D01*
X40911696Y-82315515D01*
X40911696Y-82315514D01*
X40828985Y-82232803D01*
X40723891Y-82181426D01*
X40655761Y-82171500D01*
X40655760Y-82171500D01*
X40050524Y-82171500D01*
X39983485Y-82151815D01*
X39937730Y-82099011D01*
X39927786Y-82029853D01*
X39930745Y-82015423D01*
X39970500Y-81867057D01*
X39970500Y-81708943D01*
X39929577Y-81556216D01*
X39919487Y-81538740D01*
X39850524Y-81419290D01*
X39850518Y-81419282D01*
X39821319Y-81390083D01*
X39787834Y-81328760D01*
X39785000Y-81302402D01*
X39785000Y-80522000D01*
X40285000Y-80522000D01*
X41269795Y-80522000D01*
X41269795Y-80521998D01*
X41269600Y-80519513D01*
X41223781Y-80361801D01*
X41140185Y-80220447D01*
X41140178Y-80220438D01*
X41024061Y-80104321D01*
X41024052Y-80104314D01*
X40882696Y-80020717D01*
X40882693Y-80020716D01*
X40724995Y-79974900D01*
X40724989Y-79974899D01*
X40688149Y-79972000D01*
X40285000Y-79972000D01*
X40285000Y-80522000D01*
X39785000Y-80522000D01*
X39785000Y-79972000D01*
X39405688Y-79972000D01*
X39338649Y-79952315D01*
X39292894Y-79899511D01*
X39282950Y-79830353D01*
X39311975Y-79766797D01*
X39318007Y-79760319D01*
X40652170Y-78426157D01*
X42312508Y-76765819D01*
X42373831Y-76732334D01*
X42400189Y-76729500D01*
X43530815Y-76729500D01*
X43597854Y-76749185D01*
X43643609Y-76801989D01*
X43644109Y-76803098D01*
X43652600Y-76822184D01*
X43652600Y-76830148D01*
X43664233Y-76888631D01*
X43708548Y-76954952D01*
X43712984Y-76957916D01*
X43722185Y-76978598D01*
X43725469Y-77003147D01*
X43732871Y-77026786D01*
X43730021Y-77037173D01*
X43731450Y-77047851D01*
X43720939Y-77070280D01*
X43714387Y-77094167D01*
X43711993Y-77097891D01*
X43664232Y-77169369D01*
X43664231Y-77169370D01*
X43652600Y-77227847D01*
X43652600Y-78080152D01*
X43664231Y-78138629D01*
X43664232Y-78138630D01*
X43708547Y-78204952D01*
X43774869Y-78249267D01*
X43774870Y-78249268D01*
X43833347Y-78260899D01*
X43833350Y-78260900D01*
X43833352Y-78260900D01*
X44554130Y-78260900D01*
X44586222Y-78265124D01*
X44624943Y-78275500D01*
X44624945Y-78275500D01*
X44783055Y-78275500D01*
X44783057Y-78275500D01*
X44821777Y-78265124D01*
X44853870Y-78260900D01*
X45574650Y-78260900D01*
X45574651Y-78260899D01*
X45589468Y-78257952D01*
X45633129Y-78249268D01*
X45633129Y-78249267D01*
X45633131Y-78249267D01*
X45699452Y-78204952D01*
X45743767Y-78138631D01*
X45743767Y-78138629D01*
X45743768Y-78138629D01*
X45755399Y-78080152D01*
X45755400Y-78080150D01*
X45755400Y-77227849D01*
X45755399Y-77227847D01*
X45743768Y-77169371D01*
X45721470Y-77136000D01*
X45699452Y-77103048D01*
X45699450Y-77103047D01*
X45696006Y-77097892D01*
X45675128Y-77031215D01*
X45693612Y-76963834D01*
X45696006Y-76960108D01*
X45699450Y-76954952D01*
X45699452Y-76954952D01*
X45743767Y-76888631D01*
X45755400Y-76830148D01*
X45755400Y-76422289D01*
X45775085Y-76355250D01*
X45791719Y-76334608D01*
X46646828Y-75479499D01*
X47504465Y-74621862D01*
X47540912Y-74558733D01*
X47547318Y-74547638D01*
X47569500Y-74464853D01*
X47569500Y-73337555D01*
X47569501Y-73337542D01*
X47569501Y-73241848D01*
X47569501Y-73241847D01*
X47547318Y-73159062D01*
X47535522Y-73138631D01*
X47504465Y-73084838D01*
X47443862Y-73024235D01*
X47443859Y-73024233D01*
X46090418Y-71670791D01*
X46056933Y-71609468D01*
X46054099Y-71583110D01*
X46054099Y-71533400D01*
X46073784Y-71466361D01*
X46126588Y-71420606D01*
X46178099Y-71409400D01*
X49173149Y-71409400D01*
X49173150Y-71409399D01*
X49187967Y-71406452D01*
X49231628Y-71397768D01*
X49231628Y-71397767D01*
X49231630Y-71397767D01*
X49297951Y-71353452D01*
X49342266Y-71287131D01*
X49342266Y-71287129D01*
X49342267Y-71287129D01*
X49353898Y-71228652D01*
X49353899Y-71228650D01*
X49353899Y-68979349D01*
X49353898Y-68979347D01*
X49342267Y-68920870D01*
X49342266Y-68920869D01*
X49297951Y-68854547D01*
X49231629Y-68810232D01*
X49231628Y-68810231D01*
X49173151Y-68798600D01*
X49173147Y-68798600D01*
X46178099Y-68798600D01*
X46111060Y-68778915D01*
X46065305Y-68726111D01*
X46054099Y-68674600D01*
X46054099Y-66804400D01*
X46073784Y-66737361D01*
X46126588Y-66691606D01*
X46178099Y-66680400D01*
X49173149Y-66680400D01*
X49173150Y-66680399D01*
X49187967Y-66677452D01*
X49231628Y-66668768D01*
X49231628Y-66668767D01*
X49231630Y-66668767D01*
X49297951Y-66624452D01*
X49342266Y-66558131D01*
X49342266Y-66558129D01*
X49342267Y-66558129D01*
X49353898Y-66499652D01*
X49353899Y-66499650D01*
X49353899Y-64250349D01*
X49353898Y-64250347D01*
X49342267Y-64191870D01*
X49342266Y-64191869D01*
X49297951Y-64125547D01*
X49231629Y-64081232D01*
X49231628Y-64081231D01*
X49173151Y-64069600D01*
X49173147Y-64069600D01*
X46362788Y-64069600D01*
X46295749Y-64049915D01*
X46249994Y-63997111D01*
X46240050Y-63927953D01*
X46269075Y-63864397D01*
X46275107Y-63857919D01*
X46470359Y-63662667D01*
X46742465Y-63390561D01*
X46785318Y-63316338D01*
X46807500Y-63233552D01*
X46807500Y-63147846D01*
X46807500Y-62209247D01*
X46807500Y-62209245D01*
X46807499Y-62209244D01*
X46806154Y-62204224D01*
X46806151Y-62204214D01*
X46785319Y-62126464D01*
X46785318Y-62126462D01*
X46785318Y-62126461D01*
X46742465Y-62052238D01*
X46004762Y-61314535D01*
X45930539Y-61271682D01*
X45864577Y-61254007D01*
X45845828Y-61248984D01*
X45786168Y-61212619D01*
X45764414Y-61179128D01*
X45755400Y-61158631D01*
X45755400Y-61148852D01*
X45743767Y-61090369D01*
X45699452Y-61024048D01*
X45694863Y-61020981D01*
X45685600Y-60999919D01*
X45682453Y-60975609D01*
X45675128Y-60952215D01*
X45678047Y-60941572D01*
X45676631Y-60930628D01*
X45687126Y-60908476D01*
X45693612Y-60884834D01*
X45696006Y-60881108D01*
X45699450Y-60875952D01*
X45699452Y-60875952D01*
X45743767Y-60809631D01*
X45755400Y-60751148D01*
X45755400Y-60017956D01*
X45775085Y-59950917D01*
X45805089Y-59918690D01*
X45912087Y-59838590D01*
X45912090Y-59838587D01*
X45998250Y-59723493D01*
X45998254Y-59723486D01*
X46048496Y-59588779D01*
X46048498Y-59588772D01*
X46054899Y-59529244D01*
X46054900Y-59529227D01*
X46054900Y-59325000D01*
X43353100Y-59325000D01*
X43353100Y-59529244D01*
X43359501Y-59588772D01*
X43359503Y-59588779D01*
X43409745Y-59723486D01*
X43409747Y-59723489D01*
X43467913Y-59801188D01*
X43492331Y-59866653D01*
X43477480Y-59934926D01*
X43428075Y-59984332D01*
X43368647Y-59999500D01*
X42832788Y-59999500D01*
X42765749Y-59979815D01*
X42745107Y-59963181D01*
X41573819Y-58791892D01*
X41559115Y-58764964D01*
X41542523Y-58739146D01*
X41541631Y-58732945D01*
X41540334Y-58730569D01*
X41537500Y-58704211D01*
X41537500Y-58620755D01*
X43353100Y-58620755D01*
X43353100Y-58825000D01*
X46054900Y-58825000D01*
X46054900Y-58620772D01*
X46054899Y-58620755D01*
X46048498Y-58561227D01*
X46048496Y-58561220D01*
X45998254Y-58426513D01*
X45998250Y-58426506D01*
X45912090Y-58311412D01*
X45805088Y-58231309D01*
X45763218Y-58175375D01*
X45755400Y-58132043D01*
X45755400Y-57398849D01*
X45755399Y-57398847D01*
X45743768Y-57340370D01*
X45743767Y-57340369D01*
X45699452Y-57274047D01*
X45633130Y-57229732D01*
X45633129Y-57229731D01*
X45574652Y-57218100D01*
X45574648Y-57218100D01*
X43833352Y-57218100D01*
X43833347Y-57218100D01*
X43774870Y-57229731D01*
X43774869Y-57229732D01*
X43708547Y-57274047D01*
X43664232Y-57340369D01*
X43664231Y-57340370D01*
X43652600Y-57398847D01*
X43652600Y-58132043D01*
X43632915Y-58199082D01*
X43602912Y-58231309D01*
X43495909Y-58311412D01*
X43409749Y-58426506D01*
X43409745Y-58426513D01*
X43359503Y-58561220D01*
X43359501Y-58561227D01*
X43353100Y-58620755D01*
X41537500Y-58620755D01*
X41537500Y-57678329D01*
X41557185Y-57611290D01*
X41573819Y-57590648D01*
X42764819Y-56399648D01*
X44012465Y-55152002D01*
X44055317Y-55077779D01*
X44055318Y-55077778D01*
X44077500Y-54994993D01*
X44077500Y-54225007D01*
X44057495Y-54150347D01*
X45854099Y-54150347D01*
X45854099Y-56399652D01*
X45865730Y-56458129D01*
X45865731Y-56458130D01*
X45910046Y-56524452D01*
X45976368Y-56568767D01*
X45976369Y-56568768D01*
X46034846Y-56580399D01*
X46034849Y-56580400D01*
X46034851Y-56580400D01*
X49173149Y-56580400D01*
X49173150Y-56580399D01*
X49187967Y-56577452D01*
X49231628Y-56568768D01*
X49231628Y-56568767D01*
X49231630Y-56568767D01*
X49297951Y-56524452D01*
X49342266Y-56458131D01*
X49342266Y-56458129D01*
X49342267Y-56458129D01*
X49353898Y-56399652D01*
X49353899Y-56399650D01*
X49353899Y-54150349D01*
X49353898Y-54150347D01*
X49342267Y-54091870D01*
X49342266Y-54091869D01*
X49297951Y-54025547D01*
X49231629Y-53981232D01*
X49231628Y-53981231D01*
X49173151Y-53969600D01*
X49173147Y-53969600D01*
X46034851Y-53969600D01*
X46034846Y-53969600D01*
X45976369Y-53981231D01*
X45976368Y-53981232D01*
X45910046Y-54025547D01*
X45865731Y-54091869D01*
X45865730Y-54091870D01*
X45854099Y-54150347D01*
X44057495Y-54150347D01*
X44055318Y-54142222D01*
X44036426Y-54109500D01*
X44012469Y-54068004D01*
X44012463Y-54067996D01*
X43496648Y-53552181D01*
X43463163Y-53490858D01*
X43468147Y-53421166D01*
X43510019Y-53365233D01*
X43575483Y-53340816D01*
X43584329Y-53340500D01*
X50167500Y-53340500D01*
X50234539Y-53360185D01*
G37*
%TD.AperFunction*%
%TA.AperFunction,Conductor*%
G36*
X44687618Y-82025131D02*
G01*
X44743552Y-82067002D01*
X44747376Y-82072407D01*
X44748843Y-82074601D01*
X44784887Y-82128546D01*
X44784888Y-82128547D01*
X46150681Y-83494339D01*
X46184166Y-83555662D01*
X46187000Y-83582020D01*
X46187000Y-84124001D01*
X46167315Y-84191040D01*
X46114511Y-84236795D01*
X46063000Y-84248001D01*
X45833230Y-84248001D01*
X45802800Y-84250854D01*
X45802798Y-84250854D01*
X45674619Y-84295707D01*
X45674617Y-84295708D01*
X45565350Y-84376351D01*
X45484707Y-84485618D01*
X45484706Y-84485620D01*
X45439853Y-84613799D01*
X45439853Y-84613801D01*
X45437000Y-84644231D01*
X45437000Y-85756982D01*
X45417315Y-85824021D01*
X45400681Y-85844663D01*
X45032662Y-86212682D01*
X44971339Y-86246167D01*
X44944981Y-86249001D01*
X44451892Y-86249001D01*
X44384853Y-86229316D01*
X44339098Y-86176512D01*
X44329154Y-86107354D01*
X44334850Y-86084048D01*
X44335146Y-86083201D01*
X44335146Y-86083200D01*
X44338000Y-86052770D01*
X44338000Y-84644231D01*
X44335146Y-84613801D01*
X44335146Y-84613799D01*
X44290293Y-84485620D01*
X44290292Y-84485618D01*
X44209650Y-84376351D01*
X44100382Y-84295708D01*
X44100380Y-84295707D01*
X43972200Y-84250854D01*
X43941770Y-84248001D01*
X43941766Y-84248001D01*
X42484500Y-84248001D01*
X42417461Y-84228316D01*
X42371706Y-84175512D01*
X42360500Y-84124001D01*
X42360500Y-82346500D01*
X42380185Y-82279461D01*
X42432989Y-82233706D01*
X42457607Y-82225451D01*
X42470890Y-82222500D01*
X42530760Y-82222500D01*
X42598893Y-82212573D01*
X42668303Y-82178640D01*
X42682659Y-82175451D01*
X42693618Y-82176186D01*
X42709552Y-82172500D01*
X43694344Y-82172500D01*
X43756341Y-82189112D01*
X43847216Y-82241578D01*
X43999943Y-82282501D01*
X43999945Y-82282501D01*
X44158055Y-82282501D01*
X44158057Y-82282501D01*
X44310784Y-82241578D01*
X44447716Y-82162521D01*
X44556607Y-82053629D01*
X44617926Y-82020147D01*
X44687618Y-82025131D01*
G37*
%TD.AperFunction*%
%TA.AperFunction,Conductor*%
G36*
X45322433Y-66768739D02*
G01*
X45378366Y-66810611D01*
X45402783Y-66876075D01*
X45403099Y-66884921D01*
X45403099Y-70162849D01*
X45383414Y-70229888D01*
X45330610Y-70275643D01*
X45261452Y-70285587D01*
X45197896Y-70256562D01*
X45190540Y-70248757D01*
X45190267Y-70249031D01*
X45072717Y-70131481D01*
X45072709Y-70131475D01*
X44935790Y-70052426D01*
X44935786Y-70052424D01*
X44935784Y-70052423D01*
X44783057Y-70011500D01*
X44624943Y-70011500D01*
X44472216Y-70052423D01*
X44472209Y-70052426D01*
X44335290Y-70131475D01*
X44335282Y-70131481D01*
X44223481Y-70243282D01*
X44223475Y-70243290D01*
X44144426Y-70380209D01*
X44144423Y-70380216D01*
X44103500Y-70532943D01*
X44103500Y-70691057D01*
X44140907Y-70830660D01*
X44144423Y-70843783D01*
X44144426Y-70843790D01*
X44223475Y-70980709D01*
X44223481Y-70980717D01*
X44341031Y-71098267D01*
X44338785Y-71100512D01*
X44371179Y-71144855D01*
X44378500Y-71186830D01*
X44378500Y-71923100D01*
X44358815Y-71990139D01*
X44306011Y-72035894D01*
X44254500Y-72047100D01*
X43833347Y-72047100D01*
X43774870Y-72058731D01*
X43774869Y-72058732D01*
X43708547Y-72103047D01*
X43664232Y-72169369D01*
X43664231Y-72169370D01*
X43652600Y-72227847D01*
X43652600Y-72961043D01*
X43632915Y-73028082D01*
X43602912Y-73060309D01*
X43495909Y-73140412D01*
X43409749Y-73255506D01*
X43409745Y-73255513D01*
X43359503Y-73390220D01*
X43359501Y-73390227D01*
X43353100Y-73449755D01*
X43353100Y-73654000D01*
X46054900Y-73654000D01*
X46054900Y-73449772D01*
X46054899Y-73449755D01*
X46048498Y-73390227D01*
X46048496Y-73390220D01*
X45998254Y-73255513D01*
X45998250Y-73255506D01*
X45912090Y-73140412D01*
X45805088Y-73060309D01*
X45763218Y-73004375D01*
X45755400Y-72961043D01*
X45755400Y-72555788D01*
X45775085Y-72488749D01*
X45827889Y-72442994D01*
X45897047Y-72433050D01*
X45960603Y-72462075D01*
X45967081Y-72468107D01*
X46882181Y-73383207D01*
X46915666Y-73444530D01*
X46918500Y-73470888D01*
X46918500Y-74235811D01*
X46898815Y-74302850D01*
X46882181Y-74323492D01*
X45967081Y-75238592D01*
X45905758Y-75272077D01*
X45836066Y-75267093D01*
X45780133Y-75225221D01*
X45755716Y-75159757D01*
X45755400Y-75150911D01*
X45755400Y-74846956D01*
X45775085Y-74779917D01*
X45805089Y-74747690D01*
X45912087Y-74667590D01*
X45912090Y-74667587D01*
X45998250Y-74552493D01*
X45998254Y-74552486D01*
X46048496Y-74417779D01*
X46048498Y-74417772D01*
X46054899Y-74358244D01*
X46054900Y-74358227D01*
X46054900Y-74154000D01*
X43353100Y-74154000D01*
X43353100Y-74177410D01*
X43333415Y-74244449D01*
X43316782Y-74265090D01*
X43266638Y-74315234D01*
X43266635Y-74315238D01*
X43223782Y-74389459D01*
X43201600Y-74472247D01*
X43201600Y-74557952D01*
X43223782Y-74640741D01*
X43224799Y-74642501D01*
X43225205Y-74644175D01*
X43226894Y-74648253D01*
X43226258Y-74648516D01*
X43241270Y-74710401D01*
X43218418Y-74776428D01*
X43163496Y-74819618D01*
X43117411Y-74828500D01*
X41812189Y-74828500D01*
X41745150Y-74808815D01*
X41724508Y-74792181D01*
X41530629Y-74598302D01*
X41497144Y-74536979D01*
X41495994Y-74509185D01*
X41494500Y-74509185D01*
X41494500Y-74342945D01*
X41494500Y-74342943D01*
X41453577Y-74190216D01*
X41432668Y-74154000D01*
X41374524Y-74053290D01*
X41374518Y-74053282D01*
X41262717Y-73941481D01*
X41262709Y-73941475D01*
X41125790Y-73862426D01*
X41125786Y-73862424D01*
X41125784Y-73862423D01*
X40973057Y-73821500D01*
X40814943Y-73821500D01*
X40662216Y-73862423D01*
X40662209Y-73862426D01*
X40525290Y-73941475D01*
X40525282Y-73941481D01*
X40413481Y-74053282D01*
X40413475Y-74053290D01*
X40334426Y-74190209D01*
X40334423Y-74190216D01*
X40293500Y-74342943D01*
X40293500Y-74501057D01*
X40333012Y-74648516D01*
X40334423Y-74653783D01*
X40334426Y-74653790D01*
X40413475Y-74790709D01*
X40413479Y-74790714D01*
X40413480Y-74790716D01*
X40525284Y-74902520D01*
X40525286Y-74902521D01*
X40525290Y-74902524D01*
X40662209Y-74981573D01*
X40662216Y-74981577D01*
X40814943Y-75022500D01*
X40814945Y-75022500D01*
X40981185Y-75022500D01*
X40981185Y-75025683D01*
X41035398Y-75034102D01*
X41070302Y-75058629D01*
X41365534Y-75353861D01*
X41365535Y-75353862D01*
X41426138Y-75414465D01*
X41426140Y-75414466D01*
X41426144Y-75414469D01*
X41500355Y-75457314D01*
X41500362Y-75457318D01*
X41583147Y-75479500D01*
X43530815Y-75479500D01*
X43597854Y-75499185D01*
X43643609Y-75551989D01*
X43644109Y-75553098D01*
X43652600Y-75572184D01*
X43652600Y-75580148D01*
X43664233Y-75638631D01*
X43708548Y-75704952D01*
X43712984Y-75707916D01*
X43722185Y-75728598D01*
X43725469Y-75753147D01*
X43732871Y-75776786D01*
X43730021Y-75787173D01*
X43731450Y-75797851D01*
X43720939Y-75820280D01*
X43714387Y-75844167D01*
X43711993Y-75847891D01*
X43664232Y-75919369D01*
X43664232Y-75919370D01*
X43652432Y-75978692D01*
X43620047Y-76040603D01*
X43559331Y-76075177D01*
X43530815Y-76078500D01*
X42171147Y-76078500D01*
X42088362Y-76100682D01*
X42088355Y-76100685D01*
X42014144Y-76143530D01*
X42014136Y-76143536D01*
X38867490Y-79290181D01*
X38806167Y-79323666D01*
X38736475Y-79318682D01*
X38680542Y-79276810D01*
X38656125Y-79211346D01*
X38670977Y-79143073D01*
X38676701Y-79133617D01*
X38776941Y-78983598D01*
X38856130Y-78792420D01*
X38896500Y-78589465D01*
X38896500Y-78456130D01*
X38916185Y-78389091D01*
X38917372Y-78387277D01*
X38957775Y-78326811D01*
X39010580Y-78199328D01*
X39022654Y-78138629D01*
X39037500Y-78063996D01*
X39037500Y-71531742D01*
X39057185Y-71464703D01*
X39109989Y-71418948D01*
X39179147Y-71409004D01*
X39242703Y-71438029D01*
X39264600Y-71462848D01*
X39310633Y-71531742D01*
X39333887Y-71566545D01*
X39431454Y-71664112D01*
X39546192Y-71740777D01*
X39673667Y-71793578D01*
X39673672Y-71793580D01*
X39673676Y-71793580D01*
X39673677Y-71793581D01*
X39809003Y-71820500D01*
X39809006Y-71820500D01*
X39946996Y-71820500D01*
X40038040Y-71802389D01*
X40082328Y-71793580D01*
X40146069Y-71767177D01*
X40209807Y-71740777D01*
X40209808Y-71740776D01*
X40209811Y-71740775D01*
X40324543Y-71664114D01*
X42662214Y-69326443D01*
X45191418Y-66797240D01*
X45252741Y-66763755D01*
X45322433Y-66768739D01*
G37*
%TD.AperFunction*%
%TA.AperFunction,Conductor*%
G36*
X37601943Y-67422508D02*
G01*
X37634176Y-67484498D01*
X37636500Y-67508391D01*
X37636500Y-77354827D01*
X37616815Y-77421866D01*
X37564011Y-77467621D01*
X37545281Y-77473670D01*
X37545412Y-77474101D01*
X37539579Y-77475870D01*
X37348403Y-77555058D01*
X37176342Y-77670024D01*
X37030024Y-77816342D01*
X36915057Y-77988403D01*
X36846835Y-78153108D01*
X36802994Y-78207511D01*
X36736700Y-78229576D01*
X36669000Y-78212297D01*
X36621390Y-78161159D01*
X36614343Y-78143973D01*
X36557095Y-77967782D01*
X36460624Y-77778449D01*
X36421270Y-77724282D01*
X36421269Y-77724282D01*
X35788962Y-78356590D01*
X35771925Y-78293007D01*
X35706099Y-78178993D01*
X35613007Y-78085901D01*
X35498993Y-78020075D01*
X35435407Y-78003036D01*
X36067716Y-77370728D01*
X36013550Y-77331375D01*
X35824217Y-77234904D01*
X35622129Y-77169242D01*
X35412246Y-77136000D01*
X35406018Y-77136000D01*
X35338979Y-77116315D01*
X35293224Y-77063511D01*
X35283280Y-76994353D01*
X35312305Y-76930797D01*
X35318323Y-76924333D01*
X36930114Y-75312543D01*
X37006775Y-75197811D01*
X37022538Y-75159757D01*
X37059578Y-75070332D01*
X37059580Y-75070328D01*
X37086500Y-74934994D01*
X37086500Y-74797006D01*
X37086500Y-71305007D01*
X37086500Y-67518500D01*
X37106185Y-67451461D01*
X37158989Y-67405706D01*
X37210500Y-67394500D01*
X37440270Y-67394500D01*
X37453791Y-67393231D01*
X37470699Y-67391646D01*
X37471536Y-67391352D01*
X37472198Y-67391319D01*
X37478073Y-67390036D01*
X37478285Y-67391007D01*
X37541312Y-67387785D01*
X37601943Y-67422508D01*
G37*
%TD.AperFunction*%
%TA.AperFunction,Conductor*%
G36*
X41291703Y-59430875D02*
G01*
X41298181Y-59436907D01*
X42381794Y-60520520D01*
X42381804Y-60520531D01*
X42386134Y-60524861D01*
X42386135Y-60524862D01*
X42446738Y-60585465D01*
X42483850Y-60606891D01*
X42483852Y-60606893D01*
X42520958Y-60628317D01*
X42520960Y-60628317D01*
X42520961Y-60628318D01*
X42603747Y-60650501D01*
X42603749Y-60650501D01*
X42697049Y-60650501D01*
X42697065Y-60650500D01*
X43530815Y-60650500D01*
X43597854Y-60670185D01*
X43643609Y-60722989D01*
X43644109Y-60724098D01*
X43652600Y-60743184D01*
X43652600Y-60751148D01*
X43664233Y-60809631D01*
X43708548Y-60875952D01*
X43712984Y-60878916D01*
X43722185Y-60899598D01*
X43725469Y-60924147D01*
X43732871Y-60947786D01*
X43730021Y-60958173D01*
X43731450Y-60968851D01*
X43720939Y-60991280D01*
X43714387Y-61015167D01*
X43711993Y-61018891D01*
X43664232Y-61090369D01*
X43664231Y-61090370D01*
X43652600Y-61148847D01*
X43652600Y-62001152D01*
X43664231Y-62059629D01*
X43664232Y-62059630D01*
X43711993Y-62131109D01*
X43732871Y-62197786D01*
X43714387Y-62265167D01*
X43711993Y-62268891D01*
X43664232Y-62340369D01*
X43664231Y-62340370D01*
X43652600Y-62398847D01*
X43652600Y-63251152D01*
X43664231Y-63309629D01*
X43664232Y-63309630D01*
X43708547Y-63375952D01*
X43774869Y-63420267D01*
X43774870Y-63420268D01*
X43833347Y-63431899D01*
X43833350Y-63431900D01*
X43833352Y-63431900D01*
X43879500Y-63431900D01*
X43946539Y-63451585D01*
X43992294Y-63504389D01*
X44003500Y-63555900D01*
X44003500Y-65952480D01*
X43983815Y-66019519D01*
X43967181Y-66040161D01*
X39333888Y-70673453D01*
X39333882Y-70673461D01*
X39264602Y-70777147D01*
X39210990Y-70821953D01*
X39141665Y-70830660D01*
X39078638Y-70800506D01*
X39041918Y-70741063D01*
X39037500Y-70708257D01*
X39037500Y-67474099D01*
X39057185Y-67407060D01*
X39109989Y-67361305D01*
X39179147Y-67351361D01*
X39202448Y-67357056D01*
X39301301Y-67391646D01*
X39301300Y-67391646D01*
X39331730Y-67394500D01*
X39331734Y-67394500D01*
X41440270Y-67394500D01*
X41470699Y-67391646D01*
X41470701Y-67391646D01*
X41534790Y-67369219D01*
X41598882Y-67346793D01*
X41708150Y-67266150D01*
X41788793Y-67156882D01*
X41811219Y-67092790D01*
X41833646Y-67028701D01*
X41833646Y-67028699D01*
X41836500Y-66998269D01*
X41836500Y-65589730D01*
X41833646Y-65559300D01*
X41833646Y-65559298D01*
X41788793Y-65431119D01*
X41788792Y-65431117D01*
X41708150Y-65321850D01*
X41598882Y-65241207D01*
X41598880Y-65241206D01*
X41470700Y-65196353D01*
X41440270Y-65193500D01*
X41440266Y-65193500D01*
X41210500Y-65193500D01*
X41143461Y-65173815D01*
X41097706Y-65121011D01*
X41086500Y-65069500D01*
X41086500Y-59524588D01*
X41106185Y-59457549D01*
X41158989Y-59411794D01*
X41228147Y-59401850D01*
X41291703Y-59430875D01*
G37*
%TD.AperFunction*%
%TD*%
M02*
