M48
; DRILL file {KiCad 9.0.1} date 2025-06-09T01:02:29-0400
; FORMAT={-:-/ absolute / inch / decimal}
; #@! TF.CreationDate,2025-06-09T01:02:29-04:00
; #@! TF.GenerationSoftware,Kicad,Pcbnew,9.0.1
; #@! TF.FileFunction,Plated,1,2,PTH
FMAT,2
INCH
; #@! TA.AperFunction,Plated,PTH,ViaDrill
T1C0.0157
; #@! TA.AperFunction,Plated,PTH,ComponentDrill
T2C0.0394
%
G90
G05
T1
X1.208Y-3.428
X1.23Y-3.22
X1.24Y-3.01
X1.2658Y-2.7325
X1.34Y-2.17
X1.3754Y-3.2158
X1.4325Y-2.81
X1.44Y-2.29
X1.44Y-3.02
X1.4539Y-3.3602
X1.51Y-3.16
X1.55Y-3.22
X1.57Y-2.8
X1.57Y-2.86
X1.59Y-2.69
X1.61Y-2.93
X1.68Y-2.44
X1.69Y-2.15
X1.7354Y-3.2158
X1.75Y-3.3
X1.76Y-2.2766
X1.76Y-2.78
X1.76Y-3.008
X1.76Y-3.0581
X1.7846Y-3.2158
X1.822Y-2.378
X1.822Y-2.892
X1.824Y-2.27
X1.924Y-2.922
X1.95Y-3.42
T2
X1.29Y-3.09
X1.39Y-3.09
X1.49Y-3.09
M30
