%TF.GenerationSoftware,KiCad,Pcbnew,9.0.1*%
%TF.CreationDate,2025-06-09T01:02:34-04:00*%
%TF.ProjectId,Pneumatactors_1Xiao_PiezoPumps_2Valves,506e6575-6d61-4746-9163-746f72735f31,rev?*%
%TF.SameCoordinates,Original*%
%TF.FileFunction,Copper,L1,Top*%
%TF.FilePolarity,Positive*%
%FSLAX46Y46*%
G04 Gerber Fmt 4.6, Leading zero omitted, Abs format (unit mm)*
G04 Created by KiCad (PCBNEW 9.0.1) date 2025-06-09 01:02:34*
%MOMM*%
%LPD*%
G01*
G04 APERTURE LIST*
G04 Aperture macros list*
%AMRoundRect*
0 Rectangle with rounded corners*
0 $1 Rounding radius*
0 $2 $3 $4 $5 $6 $7 $8 $9 X,Y pos of 4 corners*
0 Add a 4 corners polygon primitive as box body*
4,1,4,$2,$3,$4,$5,$6,$7,$8,$9,$2,$3,0*
0 Add four circle primitives for the rounded corners*
1,1,$1+$1,$2,$3*
1,1,$1+$1,$4,$5*
1,1,$1+$1,$6,$7*
1,1,$1+$1,$8,$9*
0 Add four rect primitives between the rounded corners*
20,1,$1+$1,$2,$3,$4,$5,0*
20,1,$1+$1,$4,$5,$6,$7,0*
20,1,$1+$1,$6,$7,$8,$9,0*
20,1,$1+$1,$8,$9,$2,$3,0*%
G04 Aperture macros list end*
%TA.AperFunction,SMDPad,CuDef*%
%ADD10RoundRect,0.500000X-0.875000X-0.500000X0.875000X-0.500000X0.875000X0.500000X-0.875000X0.500000X0*%
%TD*%
%TA.AperFunction,SMDPad,CuDef*%
%ADD11RoundRect,0.275000X0.975000X0.275000X-0.975000X0.275000X-0.975000X-0.275000X0.975000X-0.275000X0*%
%TD*%
%TA.AperFunction,SMDPad,CuDef*%
%ADD12C,1.700000*%
%TD*%
%TA.AperFunction,SMDPad,CuDef*%
%ADD13R,0.812800X1.701800*%
%TD*%
%TA.AperFunction,SMDPad,CuDef*%
%ADD14R,2.209800X3.098800*%
%TD*%
%TA.AperFunction,SMDPad,CuDef*%
%ADD15RoundRect,0.250000X-0.400000X-0.625000X0.400000X-0.625000X0.400000X0.625000X-0.400000X0.625000X0*%
%TD*%
%TA.AperFunction,ComponentPad*%
%ADD16C,1.700000*%
%TD*%
%TA.AperFunction,ViaPad*%
%ADD17C,0.800000*%
%TD*%
%TA.AperFunction,Conductor*%
%ADD18C,0.500000*%
%TD*%
%TA.AperFunction,Conductor*%
%ADD19C,1.000000*%
%TD*%
%TA.AperFunction,Conductor*%
%ADD20C,0.250000*%
%TD*%
G04 APERTURE END LIST*
D10*
%TO.P,U1,1,PA02_A0_D0*%
%TO.N,unconnected-(U1-PA02_A0_D0-Pad1)*%
X32151500Y-56705500D03*
%TO.P,U1,2,PA4_A1_D1*%
%TO.N,unconnected-(U1-PA4_A1_D1-Pad2)*%
X32151500Y-59245500D03*
%TO.P,U1,3,PA10_A2_D2*%
%TO.N,V1*%
X32151500Y-61785500D03*
%TO.P,U1,4,PA11_A3_D3*%
%TO.N,V2*%
X32151500Y-64325500D03*
%TO.P,U1,5,PA8_A4_D4_SDA*%
%TO.N,SDA*%
X32151500Y-66865500D03*
%TO.P,U1,6,PA9_A5_D5_SCL*%
%TO.N,SCL*%
X32151500Y-69405500D03*
%TO.P,U1,7,PB08_A6_D6_TX*%
%TO.N,unconnected-(U1-PB08_A6_D6_TX-Pad7)*%
X32151500Y-71945500D03*
%TO.P,U1,8,PB09_A7_D7_RX*%
%TO.N,unconnected-(U1-PB09_A7_D7_RX-Pad8)*%
X48316500Y-71945500D03*
%TO.P,U1,9,PA7_A8_D8_SCK*%
%TO.N,P1_A*%
X48316500Y-69405500D03*
%TO.P,U1,10,PA5_A9_D9_MISO*%
%TO.N,P2_A*%
X48316500Y-66865500D03*
%TO.P,U1,11,PA6_A10_D10_MOSI*%
%TO.N,unconnected-(U1-PA6_A10_D10_MOSI-Pad11)*%
X48316500Y-64325500D03*
%TO.P,U1,12,3V3*%
%TO.N,3V3*%
X48316500Y-61785500D03*
%TO.P,U1,13,GND*%
%TO.N,GND*%
X48316500Y-59245500D03*
%TO.P,U1,14,5V*%
%TO.N,Net-(D1-K)*%
X48316500Y-56705500D03*
D11*
%TO.P,U1,15,5V*%
%TO.N,unconnected-(U1-5V-Pad15)*%
X35761500Y-63943500D03*
%TO.P,U1,16,GND*%
%TO.N,unconnected-(U1-GND-Pad16)*%
X35761500Y-62038500D03*
D12*
%TO.P,U1,17,PA31_SWDIO*%
%TO.N,unconnected-(U1-PA31_SWDIO-Pad17)*%
X38936500Y-55693500D03*
%TO.P,U1,18,PA30_SWCLK*%
%TO.N,unconnected-(U1-PA30_SWCLK-Pad18)*%
X41476500Y-55693500D03*
%TO.P,U1,19,RESET*%
%TO.N,unconnected-(U1-RESET-Pad19)*%
X38936500Y-58233500D03*
%TO.P,U1,20,GND*%
%TO.N,unconnected-(U1-GND-Pad20)*%
X41476500Y-58233500D03*
%TO.P,U1,21*%
%TO.N,N/C*%
X38936500Y-60773500D03*
%TO.P,U1,22*%
X41476500Y-60773500D03*
%TO.P,U1,23*%
X38936500Y-63313500D03*
%TO.P,U1,24*%
X41476500Y-63313500D03*
%TD*%
D13*
%TO.P,J5,1,Pin_1*%
%TO.N,Net-(D2-A)*%
X34935000Y-81682001D03*
%TO.P,J5,2,Pin_2*%
%TO.N,5V*%
X36185000Y-81682001D03*
D14*
%TO.P,J5,3*%
%TO.N,N/C*%
X38735000Y-84582000D03*
%TO.P,J5,4*%
X32385000Y-84582000D03*
%TD*%
D15*
%TO.P,R5,1*%
%TO.N,SDA*%
X44932000Y-76200000D03*
%TO.P,R5,2*%
%TO.N,3V3*%
X48032000Y-76200000D03*
%TD*%
%TO.P,R6,1*%
%TO.N,SCL*%
X39344000Y-76200000D03*
%TO.P,R6,2*%
%TO.N,3V3*%
X42444000Y-76200000D03*
%TD*%
D13*
%TO.P,J6,1,Pin_1*%
%TO.N,Net-(D3-A)*%
X44079000Y-81682001D03*
%TO.P,J6,2,Pin_2*%
%TO.N,5V*%
X45329000Y-81682001D03*
D14*
%TO.P,J6,3*%
%TO.N,N/C*%
X47879000Y-84582000D03*
%TO.P,J6,4*%
X41529000Y-84582000D03*
%TD*%
D16*
%TO.P,U2,1,VIN*%
%TO.N,BATTERY*%
X37846000Y-78486000D03*
%TO.P,U2,2,GND*%
%TO.N,GND*%
X35306000Y-78486000D03*
%TO.P,U2,3,VOUT*%
%TO.N,5V*%
X32766000Y-78486000D03*
%TD*%
D17*
%TO.N,GND*%
X46329600Y-57658000D03*
X46278800Y-60401200D03*
X46278800Y-73456800D03*
%TO.N,5V*%
X36386000Y-71374000D03*
X39878000Y-71120000D03*
X45329000Y-81682001D03*
X36929100Y-85348501D03*
X44704000Y-77675000D03*
%TO.N,Net-(D3-A)*%
X44079000Y-81682001D03*
%TO.N,P1_A*%
X44704000Y-70612000D03*
%TO.N,GND*%
X36576000Y-58166000D03*
X49530000Y-86868000D03*
X40386000Y-68326000D03*
X30683200Y-87071200D03*
X39878000Y-72644000D03*
X34036000Y-55118000D03*
X42672000Y-61976000D03*
X31496000Y-76454000D03*
X36576000Y-76708000D03*
X48869600Y-74218800D03*
X44450000Y-83820000D03*
%TO.N,P2_A*%
X44704000Y-57825000D03*
%TO.N,V1*%
X31242000Y-81788000D03*
%TO.N,V2*%
X39370000Y-81788000D03*
%TO.N,SDA*%
X44704000Y-76404000D03*
X38354000Y-80264000D03*
%TO.N,SCL*%
X32151500Y-69405500D03*
X40894000Y-74422000D03*
%TO.N,Net-(D1-K)*%
X42926000Y-54610000D03*
%TO.N,Net-(D2-A)*%
X34935000Y-81682001D03*
%TD*%
D18*
%TO.N,5V*%
X45329000Y-78300000D02*
X44704000Y-77675000D01*
D19*
X36185000Y-81682001D02*
X36185000Y-84604401D01*
X39878000Y-71120000D02*
X36640000Y-71120000D01*
X36640000Y-71120000D02*
X36386000Y-71374000D01*
X36185000Y-84604401D02*
X36929100Y-85348501D01*
D18*
X45329000Y-81682001D02*
X45329000Y-78300000D01*
D20*
%TO.N,P1_A*%
X44704000Y-70612000D02*
X45910500Y-69405500D01*
X45910500Y-69405500D02*
X48316500Y-69405500D01*
%TO.N,P2_A*%
X41722884Y-53784000D02*
X40300500Y-55206384D01*
X40300500Y-55206384D02*
X40300500Y-56180616D01*
X43748500Y-56869500D02*
X44704000Y-57825000D01*
X40300500Y-56180616D02*
X40989384Y-56869500D01*
X48326912Y-66865500D02*
X50017500Y-65174912D01*
X47945412Y-53784000D02*
X41722884Y-53784000D01*
X40989384Y-56869500D02*
X43748500Y-56869500D01*
X48316500Y-66865500D02*
X48326912Y-66865500D01*
X50017500Y-65174912D02*
X50017500Y-55856088D01*
X50017500Y-55856088D02*
X47945412Y-53784000D01*
%TO.N,V1*%
X32151500Y-61785500D02*
X32141088Y-61785500D01*
X30450500Y-63476088D02*
X30450500Y-80996500D01*
X30450500Y-80996500D02*
X31242000Y-81788000D01*
X32141088Y-61785500D02*
X30450500Y-63476088D01*
%TO.N,V2*%
X32151500Y-64325500D02*
X33526500Y-64325500D01*
X33782000Y-64581000D02*
X33782000Y-65945588D01*
X34741000Y-69344380D02*
X35032000Y-69635380D01*
X33782000Y-65945588D02*
X33852500Y-66016088D01*
X33852500Y-66553690D02*
X34741000Y-67442190D01*
X33852500Y-66016088D02*
X33852500Y-66553690D01*
X34741000Y-67442190D02*
X34741000Y-69344380D01*
X33526500Y-64325500D02*
X33782000Y-64581000D01*
X39370000Y-78346884D02*
X39370000Y-81788000D01*
X35032000Y-69635380D02*
X35032000Y-74008884D01*
X35032000Y-74008884D02*
X39370000Y-78346884D01*
%TO.N,SDA*%
X34581000Y-69822190D02*
X34581000Y-74195694D01*
X34290000Y-67629000D02*
X34290000Y-69531190D01*
X36482000Y-77998884D02*
X36482000Y-78785116D01*
X35793116Y-77310000D02*
X36482000Y-77998884D01*
X32151500Y-66865500D02*
X33526500Y-66865500D01*
X37960884Y-80264000D02*
X38354000Y-80264000D01*
X35793116Y-75407810D02*
X35793116Y-77310000D01*
X34290000Y-69531190D02*
X34581000Y-69822190D01*
X33526500Y-66865500D02*
X34290000Y-67629000D01*
X36482000Y-78785116D02*
X37960884Y-80264000D01*
X34581000Y-74195694D02*
X35793116Y-75407810D01*
%TO.N,SCL*%
X34818884Y-79662000D02*
X36217280Y-79662000D01*
X40096000Y-76952000D02*
X39344000Y-76200000D01*
X36217280Y-79662000D02*
X39069280Y-82514000D01*
X34130000Y-70009000D02*
X34130000Y-78973116D01*
X34130000Y-78973116D02*
X34818884Y-79662000D01*
X40096000Y-82088720D02*
X40096000Y-76952000D01*
X33526500Y-69405500D02*
X34130000Y-70009000D01*
X39670720Y-82514000D02*
X40096000Y-82088720D01*
X39069280Y-82514000D02*
X39670720Y-82514000D01*
X32151500Y-69405500D02*
X33526500Y-69405500D01*
X39344000Y-75972000D02*
X40894000Y-74422000D01*
X39344000Y-76200000D02*
X39344000Y-75972000D01*
D19*
%TO.N,3V3*%
X48316500Y-61785500D02*
X46941500Y-61785500D01*
X44020000Y-74624000D02*
X46456000Y-74624000D01*
X46941500Y-61785500D02*
X42444000Y-66283000D01*
X46456000Y-74624000D02*
X48032000Y-76200000D01*
X42444000Y-66283000D02*
X42444000Y-76200000D01*
X42444000Y-76200000D02*
X44020000Y-74624000D01*
%TO.N,Net-(D1-K)*%
X42926000Y-54610000D02*
X46221000Y-54610000D01*
X46221000Y-54610000D02*
X48316500Y-56705500D01*
%TD*%
%TA.AperFunction,Conductor*%
%TO.N,GND*%
G36*
X41473734Y-53360185D02*
G01*
X41519489Y-53412989D01*
X41529433Y-53482147D01*
X41500408Y-53545703D01*
X41494376Y-53552181D01*
X40040037Y-55006519D01*
X40040031Y-55006528D01*
X40001078Y-55073995D01*
X39950511Y-55122210D01*
X39881904Y-55135432D01*
X39817039Y-55109464D01*
X39790590Y-55080884D01*
X39752480Y-55023849D01*
X39752474Y-55023841D01*
X39606157Y-54877524D01*
X39490555Y-54800282D01*
X39434098Y-54762559D01*
X39242920Y-54683370D01*
X39242912Y-54683368D01*
X39039969Y-54643000D01*
X39039965Y-54643000D01*
X38833035Y-54643000D01*
X38833030Y-54643000D01*
X38630087Y-54683368D01*
X38630079Y-54683370D01*
X38438903Y-54762558D01*
X38266842Y-54877524D01*
X38120524Y-55023842D01*
X38005558Y-55195903D01*
X37926370Y-55387079D01*
X37926368Y-55387087D01*
X37886000Y-55590030D01*
X37886000Y-55796969D01*
X37909656Y-55915893D01*
X37926370Y-55999920D01*
X38005559Y-56191098D01*
X38046654Y-56252601D01*
X38120524Y-56363157D01*
X38266842Y-56509475D01*
X38266845Y-56509477D01*
X38438902Y-56624441D01*
X38630080Y-56703630D01*
X38833030Y-56743999D01*
X38833034Y-56744000D01*
X38833035Y-56744000D01*
X39039966Y-56744000D01*
X39039967Y-56743999D01*
X39242920Y-56703630D01*
X39434098Y-56624441D01*
X39606155Y-56509477D01*
X39752477Y-56363155D01*
X39790590Y-56306113D01*
X39844201Y-56261310D01*
X39913526Y-56252601D01*
X39976554Y-56282756D01*
X40001077Y-56313002D01*
X40040035Y-56380478D01*
X40789522Y-57129965D01*
X40856994Y-57168920D01*
X40905210Y-57219487D01*
X40918433Y-57288094D01*
X40892465Y-57352959D01*
X40863886Y-57379409D01*
X40806841Y-57417525D01*
X40660524Y-57563842D01*
X40545558Y-57735903D01*
X40466370Y-57927079D01*
X40466368Y-57927087D01*
X40426000Y-58130030D01*
X40426000Y-58336969D01*
X40466368Y-58539912D01*
X40466370Y-58539920D01*
X40545558Y-58731096D01*
X40660524Y-58903157D01*
X40806842Y-59049475D01*
X40806845Y-59049477D01*
X40978902Y-59164441D01*
X41170080Y-59243630D01*
X41373030Y-59283999D01*
X41373034Y-59284000D01*
X41373035Y-59284000D01*
X41579966Y-59284000D01*
X41579967Y-59283999D01*
X41782920Y-59243630D01*
X41974098Y-59164441D01*
X42146155Y-59049477D01*
X42292477Y-58903155D01*
X42407441Y-58731098D01*
X42425500Y-58687499D01*
X46441500Y-58687499D01*
X46441500Y-59803500D01*
X46452108Y-59922825D01*
X46452109Y-59922828D01*
X46508057Y-60118361D01*
X46602221Y-60298629D01*
X46730744Y-60456250D01*
X46742561Y-60465885D01*
X46742562Y-60465885D01*
X47962948Y-59245500D01*
X46742561Y-58025113D01*
X46730745Y-58034748D01*
X46602221Y-58192370D01*
X46508057Y-58372638D01*
X46452109Y-58568171D01*
X46452108Y-58568174D01*
X46441500Y-58687499D01*
X42425500Y-58687499D01*
X42486630Y-58539920D01*
X42527000Y-58336965D01*
X42527000Y-58130035D01*
X42486630Y-57927080D01*
X42407441Y-57735902D01*
X42292477Y-57563845D01*
X42292475Y-57563842D01*
X42146160Y-57417527D01*
X42142904Y-57414855D01*
X42103568Y-57357110D01*
X42101697Y-57287265D01*
X42137883Y-57227496D01*
X42200638Y-57196779D01*
X42221567Y-57195000D01*
X43562311Y-57195000D01*
X43629350Y-57214685D01*
X43649992Y-57231319D01*
X44067370Y-57648697D01*
X44100855Y-57710020D01*
X44102017Y-57737816D01*
X44103500Y-57737816D01*
X44103500Y-57745943D01*
X44103500Y-57904057D01*
X44141266Y-58045000D01*
X44144423Y-58056783D01*
X44144426Y-58056790D01*
X44223475Y-58193709D01*
X44223479Y-58193714D01*
X44223480Y-58193716D01*
X44335284Y-58305520D01*
X44335286Y-58305521D01*
X44335290Y-58305524D01*
X44451537Y-58372638D01*
X44472216Y-58384577D01*
X44624943Y-58425500D01*
X44624945Y-58425500D01*
X44783055Y-58425500D01*
X44783057Y-58425500D01*
X44935784Y-58384577D01*
X45072716Y-58305520D01*
X45184520Y-58193716D01*
X45263577Y-58056784D01*
X45304500Y-57904057D01*
X45304500Y-57745943D01*
X45263577Y-57593216D01*
X45206934Y-57495106D01*
X45184524Y-57456290D01*
X45184518Y-57456282D01*
X45072717Y-57344481D01*
X45072709Y-57344475D01*
X44935790Y-57265426D01*
X44935786Y-57265424D01*
X44935784Y-57265423D01*
X44783057Y-57224500D01*
X44624943Y-57224500D01*
X44616816Y-57224500D01*
X44616816Y-57221332D01*
X44562504Y-57212851D01*
X44527697Y-57188370D01*
X43948364Y-56609037D01*
X43948362Y-56609035D01*
X43911250Y-56587608D01*
X43874140Y-56566182D01*
X43832746Y-56555091D01*
X43791353Y-56544000D01*
X43791352Y-56544000D01*
X42403628Y-56544000D01*
X42336589Y-56524315D01*
X42290834Y-56471511D01*
X42280890Y-56402353D01*
X42300526Y-56351110D01*
X42407440Y-56191100D01*
X42407440Y-56191099D01*
X42407441Y-56191098D01*
X42486630Y-55999920D01*
X42527000Y-55796965D01*
X42527000Y-55590035D01*
X42488348Y-55395717D01*
X42494575Y-55326126D01*
X42537438Y-55270948D01*
X42603328Y-55247704D01*
X42657417Y-55256964D01*
X42721672Y-55283580D01*
X42721676Y-55283580D01*
X42721677Y-55283581D01*
X42857004Y-55310500D01*
X42857007Y-55310500D01*
X45879481Y-55310500D01*
X45946520Y-55330185D01*
X45967162Y-55346819D01*
X46704681Y-56084338D01*
X46738166Y-56145661D01*
X46741000Y-56172019D01*
X46741000Y-57262113D01*
X46747413Y-57332692D01*
X46747413Y-57332694D01*
X46747414Y-57332696D01*
X46753728Y-57352959D01*
X46798022Y-57495106D01*
X46886030Y-57640688D01*
X47006311Y-57760969D01*
X47006313Y-57760970D01*
X47006315Y-57760972D01*
X47151894Y-57848978D01*
X47299411Y-57894945D01*
X47350201Y-57925649D01*
X48405595Y-58981043D01*
X48439080Y-59042366D01*
X48434096Y-59112058D01*
X48405595Y-59156405D01*
X48316500Y-59245500D01*
X48405594Y-59334594D01*
X48439079Y-59395917D01*
X48434095Y-59465609D01*
X48405594Y-59509956D01*
X47350200Y-60565350D01*
X47299409Y-60596054D01*
X47151897Y-60642020D01*
X47006311Y-60730030D01*
X46886030Y-60850311D01*
X46798021Y-60995896D01*
X46782804Y-61044728D01*
X46782118Y-61045757D01*
X46782074Y-61046994D01*
X46762802Y-61074750D01*
X46744066Y-61102876D01*
X46742701Y-61103703D01*
X46742227Y-61104387D01*
X46711874Y-61122397D01*
X46684368Y-61133791D01*
X46684366Y-61133792D01*
X46637274Y-61153298D01*
X46609686Y-61164726D01*
X46599534Y-61171510D01*
X46599423Y-61171584D01*
X46494957Y-61241386D01*
X46494953Y-61241389D01*
X41899888Y-65836453D01*
X41899887Y-65836454D01*
X41823222Y-65951192D01*
X41770421Y-66078667D01*
X41770418Y-66078677D01*
X41743500Y-66214004D01*
X41743500Y-75182711D01*
X41723815Y-75249750D01*
X41719271Y-75256344D01*
X41641207Y-75362118D01*
X41641206Y-75362119D01*
X41596353Y-75490298D01*
X41596353Y-75490300D01*
X41593500Y-75520730D01*
X41593500Y-76879269D01*
X41596353Y-76909699D01*
X41596353Y-76909701D01*
X41641206Y-77037880D01*
X41641207Y-77037882D01*
X41721850Y-77147150D01*
X41831118Y-77227793D01*
X41873845Y-77242744D01*
X41959299Y-77272646D01*
X41989730Y-77275500D01*
X41989734Y-77275500D01*
X42898270Y-77275500D01*
X42928699Y-77272646D01*
X42928701Y-77272646D01*
X42992790Y-77250219D01*
X43056882Y-77227793D01*
X43166150Y-77147150D01*
X43246793Y-77037882D01*
X43269219Y-76973790D01*
X43291646Y-76909701D01*
X43291646Y-76909699D01*
X43294500Y-76879269D01*
X43294500Y-76391519D01*
X43314185Y-76324480D01*
X43330819Y-76303838D01*
X43869819Y-75764838D01*
X43931142Y-75731353D01*
X44000834Y-75736337D01*
X44056767Y-75778209D01*
X44081184Y-75843673D01*
X44081500Y-75852519D01*
X44081500Y-76879269D01*
X44084353Y-76909699D01*
X44084353Y-76909701D01*
X44129206Y-77037880D01*
X44129207Y-77037882D01*
X44209849Y-77147149D01*
X44215368Y-77154626D01*
X44214315Y-77155403D01*
X44243244Y-77208382D01*
X44238260Y-77278074D01*
X44226781Y-77298805D01*
X44227543Y-77299245D01*
X44144426Y-77443209D01*
X44144423Y-77443216D01*
X44103500Y-77595943D01*
X44103500Y-77754057D01*
X44141733Y-77896742D01*
X44144423Y-77906783D01*
X44144426Y-77906790D01*
X44223475Y-78043709D01*
X44223479Y-78043714D01*
X44223480Y-78043716D01*
X44335284Y-78155520D01*
X44335286Y-78155521D01*
X44335290Y-78155524D01*
X44449126Y-78221246D01*
X44472216Y-78234577D01*
X44624943Y-78275500D01*
X44624945Y-78275500D01*
X44632099Y-78276442D01*
X44653004Y-78285689D01*
X44675343Y-78290549D01*
X44691741Y-78302825D01*
X44695996Y-78304707D01*
X44703597Y-78311700D01*
X44842181Y-78450284D01*
X44875666Y-78511607D01*
X44878500Y-78537965D01*
X44878500Y-80553148D01*
X44858815Y-80620187D01*
X44823392Y-80656249D01*
X44772892Y-80689993D01*
X44706215Y-80710872D01*
X44638835Y-80692388D01*
X44635109Y-80689994D01*
X44563630Y-80642233D01*
X44563629Y-80642232D01*
X44505152Y-80630601D01*
X44505148Y-80630601D01*
X43652852Y-80630601D01*
X43652847Y-80630601D01*
X43594370Y-80642232D01*
X43594369Y-80642233D01*
X43528047Y-80686548D01*
X43483732Y-80752870D01*
X43483731Y-80752871D01*
X43472100Y-80811348D01*
X43472100Y-82552653D01*
X43483731Y-82611130D01*
X43483732Y-82611131D01*
X43528047Y-82677453D01*
X43594369Y-82721768D01*
X43594370Y-82721769D01*
X43652847Y-82733400D01*
X43652850Y-82733401D01*
X43652852Y-82733401D01*
X44505150Y-82733401D01*
X44505151Y-82733400D01*
X44524818Y-82729488D01*
X44563628Y-82721769D01*
X44563628Y-82721768D01*
X44563631Y-82721768D01*
X44629952Y-82677453D01*
X44629952Y-82677451D01*
X44635108Y-82674007D01*
X44701785Y-82653129D01*
X44769166Y-82671613D01*
X44772892Y-82674007D01*
X44778047Y-82677451D01*
X44778048Y-82677453D01*
X44844369Y-82721768D01*
X44844371Y-82721768D01*
X44844372Y-82721769D01*
X44844370Y-82721769D01*
X44902847Y-82733400D01*
X44902850Y-82733401D01*
X44902852Y-82733401D01*
X45755150Y-82733401D01*
X45755151Y-82733400D01*
X45769968Y-82730453D01*
X45813629Y-82721769D01*
X45813629Y-82721768D01*
X45813631Y-82721768D01*
X45879952Y-82677453D01*
X45924267Y-82611132D01*
X45924267Y-82611130D01*
X45924268Y-82611130D01*
X45935899Y-82552653D01*
X45935900Y-82552651D01*
X45935900Y-80811350D01*
X45935899Y-80811348D01*
X45924268Y-80752871D01*
X45924267Y-80752870D01*
X45879952Y-80686549D01*
X45834607Y-80656249D01*
X45789803Y-80602636D01*
X45779500Y-80553148D01*
X45779500Y-78240693D01*
X45779500Y-78240691D01*
X45748799Y-78126114D01*
X45701226Y-78043716D01*
X45689489Y-78023386D01*
X45689488Y-78023385D01*
X45689487Y-78023383D01*
X45340700Y-77674597D01*
X45332572Y-77660395D01*
X45322012Y-77650648D01*
X45314255Y-77628389D01*
X45308366Y-77618099D01*
X45304500Y-77603219D01*
X45304500Y-77595943D01*
X45263577Y-77443216D01*
X45262395Y-77441170D01*
X45259671Y-77430683D01*
X45260508Y-77404010D01*
X45257658Y-77377472D01*
X45261588Y-77369621D01*
X45261864Y-77360847D01*
X45276991Y-77338857D01*
X45288939Y-77314996D01*
X45296488Y-77310517D01*
X45301465Y-77303284D01*
X45326077Y-77292965D01*
X45349031Y-77279349D01*
X45362626Y-77277642D01*
X45365901Y-77276269D01*
X45369090Y-77276830D01*
X45379686Y-77275500D01*
X45386270Y-77275500D01*
X45416699Y-77272646D01*
X45416701Y-77272646D01*
X45480790Y-77250219D01*
X45544882Y-77227793D01*
X45654150Y-77147150D01*
X45734793Y-77037882D01*
X45757219Y-76973790D01*
X45779646Y-76909701D01*
X45779646Y-76909699D01*
X45782500Y-76879269D01*
X45782500Y-75520730D01*
X45779646Y-75490300D01*
X45779646Y-75490299D01*
X45779350Y-75489453D01*
X45779316Y-75488787D01*
X45778036Y-75482927D01*
X45779006Y-75482715D01*
X45777848Y-75460021D01*
X45773654Y-75430853D01*
X45776087Y-75425524D01*
X45775789Y-75419674D01*
X45790436Y-75394104D01*
X45802679Y-75367297D01*
X45807607Y-75364129D01*
X45810519Y-75359047D01*
X45836665Y-75345455D01*
X45861457Y-75329523D01*
X45869554Y-75328358D01*
X45872513Y-75326821D01*
X45896392Y-75324500D01*
X46114481Y-75324500D01*
X46181520Y-75344185D01*
X46202162Y-75360819D01*
X47145181Y-76303838D01*
X47178666Y-76365161D01*
X47181500Y-76391519D01*
X47181500Y-76879269D01*
X47184353Y-76909699D01*
X47184353Y-76909701D01*
X47229206Y-77037880D01*
X47229207Y-77037882D01*
X47309850Y-77147150D01*
X47419118Y-77227793D01*
X47461845Y-77242744D01*
X47547299Y-77272646D01*
X47577730Y-77275500D01*
X47577734Y-77275500D01*
X48486270Y-77275500D01*
X48516699Y-77272646D01*
X48516701Y-77272646D01*
X48580790Y-77250219D01*
X48644882Y-77227793D01*
X48754150Y-77147150D01*
X48834793Y-77037882D01*
X48857219Y-76973790D01*
X48879646Y-76909701D01*
X48879646Y-76909699D01*
X48882500Y-76879269D01*
X48882500Y-75520730D01*
X48879646Y-75490300D01*
X48879646Y-75490298D01*
X48836605Y-75367297D01*
X48834793Y-75362118D01*
X48754150Y-75252850D01*
X48644882Y-75172207D01*
X48644880Y-75172206D01*
X48516700Y-75127353D01*
X48486270Y-75124500D01*
X48486266Y-75124500D01*
X47998519Y-75124500D01*
X47931480Y-75104815D01*
X47910838Y-75088181D01*
X46902546Y-74079888D01*
X46902545Y-74079887D01*
X46787807Y-74003222D01*
X46660332Y-73950421D01*
X46660322Y-73950418D01*
X46524996Y-73923500D01*
X46524994Y-73923500D01*
X46524993Y-73923500D01*
X44088994Y-73923500D01*
X43951006Y-73923500D01*
X43951004Y-73923500D01*
X43815677Y-73950418D01*
X43815667Y-73950421D01*
X43688192Y-74003222D01*
X43573454Y-74079887D01*
X43573453Y-74079888D01*
X43356181Y-74297161D01*
X43294858Y-74330646D01*
X43225166Y-74325662D01*
X43169233Y-74283790D01*
X43144816Y-74218326D01*
X43144500Y-74209480D01*
X43144500Y-66624517D01*
X43164185Y-66557478D01*
X43180814Y-66536841D01*
X46856831Y-62860823D01*
X46918152Y-62827340D01*
X46987844Y-62832324D01*
X47008654Y-62842386D01*
X47151894Y-62928978D01*
X47151897Y-62928979D01*
X47151896Y-62928979D01*
X47178005Y-62937115D01*
X47236153Y-62975852D01*
X47264127Y-63039878D01*
X47253045Y-63108863D01*
X47206427Y-63160906D01*
X47178005Y-63173885D01*
X47151897Y-63182020D01*
X47006311Y-63270030D01*
X46886030Y-63390311D01*
X46798022Y-63535893D01*
X46747413Y-63698307D01*
X46741000Y-63768886D01*
X46741000Y-64882113D01*
X46747413Y-64952692D01*
X46798022Y-65115106D01*
X46886030Y-65260688D01*
X47006311Y-65380969D01*
X47006313Y-65380970D01*
X47006315Y-65380972D01*
X47151894Y-65468978D01*
X47151897Y-65468979D01*
X47151896Y-65468979D01*
X47178005Y-65477115D01*
X47236153Y-65515852D01*
X47264127Y-65579878D01*
X47253045Y-65648863D01*
X47206427Y-65700906D01*
X47178005Y-65713885D01*
X47151897Y-65722020D01*
X47006311Y-65810030D01*
X46886030Y-65930311D01*
X46798022Y-66075893D01*
X46747413Y-66238307D01*
X46741000Y-66308886D01*
X46741000Y-67422113D01*
X46747413Y-67492692D01*
X46747413Y-67492694D01*
X46747414Y-67492696D01*
X46798022Y-67655106D01*
X46863746Y-67763827D01*
X46886030Y-67800688D01*
X47006311Y-67920969D01*
X47006313Y-67920970D01*
X47006315Y-67920972D01*
X47151894Y-68008978D01*
X47151897Y-68008979D01*
X47151896Y-68008979D01*
X47178005Y-68017115D01*
X47236153Y-68055852D01*
X47264127Y-68119878D01*
X47253045Y-68188863D01*
X47206427Y-68240906D01*
X47178005Y-68253885D01*
X47151897Y-68262020D01*
X47006311Y-68350030D01*
X46886030Y-68470311D01*
X46798022Y-68615893D01*
X46747413Y-68778307D01*
X46741000Y-68848886D01*
X46741000Y-68956000D01*
X46721315Y-69023039D01*
X46668511Y-69068794D01*
X46617000Y-69080000D01*
X45960965Y-69080000D01*
X45960949Y-69079999D01*
X45953353Y-69079999D01*
X45867647Y-69079999D01*
X45834533Y-69088872D01*
X45784859Y-69102182D01*
X45784858Y-69102183D01*
X45710641Y-69145032D01*
X45710636Y-69145036D01*
X45650033Y-69205640D01*
X44880301Y-69975370D01*
X44818978Y-70008855D01*
X44791184Y-70010014D01*
X44791184Y-70011500D01*
X44624943Y-70011500D01*
X44472216Y-70052423D01*
X44472209Y-70052426D01*
X44335290Y-70131475D01*
X44335282Y-70131481D01*
X44223481Y-70243282D01*
X44223475Y-70243290D01*
X44144426Y-70380209D01*
X44144423Y-70380216D01*
X44103500Y-70532943D01*
X44103500Y-70691057D01*
X44133233Y-70802020D01*
X44144423Y-70843783D01*
X44144426Y-70843790D01*
X44223475Y-70980709D01*
X44223479Y-70980714D01*
X44223480Y-70980716D01*
X44335284Y-71092520D01*
X44335286Y-71092521D01*
X44335290Y-71092524D01*
X44445050Y-71155893D01*
X44472216Y-71171577D01*
X44624943Y-71212500D01*
X44624945Y-71212500D01*
X44783055Y-71212500D01*
X44783057Y-71212500D01*
X44935784Y-71171577D01*
X45072716Y-71092520D01*
X45184520Y-70980716D01*
X45263577Y-70843784D01*
X45304500Y-70691057D01*
X45304500Y-70532943D01*
X45304500Y-70524815D01*
X45307680Y-70524815D01*
X45316112Y-70470579D01*
X45340626Y-70435699D01*
X46009007Y-69767319D01*
X46070330Y-69733834D01*
X46096688Y-69731000D01*
X46617000Y-69731000D01*
X46684039Y-69750685D01*
X46729794Y-69803489D01*
X46741000Y-69855000D01*
X46741000Y-69962116D01*
X46742923Y-69983278D01*
X46747413Y-70032692D01*
X46747413Y-70032694D01*
X46747414Y-70032696D01*
X46798022Y-70195106D01*
X46858668Y-70295427D01*
X46886030Y-70340688D01*
X47006311Y-70460969D01*
X47006313Y-70460970D01*
X47006315Y-70460972D01*
X47151894Y-70548978D01*
X47151897Y-70548979D01*
X47151896Y-70548979D01*
X47178005Y-70557115D01*
X47236153Y-70595852D01*
X47264127Y-70659878D01*
X47253045Y-70728863D01*
X47206427Y-70780906D01*
X47178005Y-70793885D01*
X47151897Y-70802020D01*
X47006311Y-70890030D01*
X46886030Y-71010311D01*
X46798022Y-71155893D01*
X46747413Y-71318307D01*
X46741000Y-71388886D01*
X46741000Y-72502113D01*
X46747413Y-72572692D01*
X46747413Y-72572694D01*
X46747414Y-72572696D01*
X46798022Y-72735106D01*
X46858668Y-72835427D01*
X46886030Y-72880688D01*
X47006311Y-73000969D01*
X47006313Y-73000970D01*
X47006315Y-73000972D01*
X47151894Y-73088978D01*
X47314304Y-73139586D01*
X47384884Y-73146000D01*
X47384887Y-73146000D01*
X49248113Y-73146000D01*
X49248116Y-73146000D01*
X49318696Y-73139586D01*
X49481106Y-73088978D01*
X49626685Y-73000972D01*
X49746972Y-72880685D01*
X49834978Y-72735106D01*
X49885586Y-72572696D01*
X49892000Y-72502116D01*
X49892000Y-71388884D01*
X49885586Y-71318304D01*
X49834978Y-71155894D01*
X49746972Y-71010315D01*
X49746970Y-71010313D01*
X49746969Y-71010311D01*
X49626688Y-70890030D01*
X49550188Y-70843784D01*
X49481106Y-70802022D01*
X49454993Y-70793885D01*
X49396846Y-70755148D01*
X49368872Y-70691123D01*
X49379953Y-70622138D01*
X49426572Y-70570095D01*
X49454992Y-70557115D01*
X49481106Y-70548978D01*
X49626685Y-70460972D01*
X49746972Y-70340685D01*
X49834978Y-70195106D01*
X49885586Y-70032696D01*
X49892000Y-69962116D01*
X49892000Y-68848884D01*
X49885586Y-68778304D01*
X49834978Y-68615894D01*
X49746972Y-68470315D01*
X49746970Y-68470313D01*
X49746969Y-68470311D01*
X49626688Y-68350030D01*
X49626685Y-68350028D01*
X49481106Y-68262022D01*
X49454993Y-68253885D01*
X49396846Y-68215148D01*
X49368872Y-68151123D01*
X49379953Y-68082138D01*
X49426572Y-68030095D01*
X49454992Y-68017115D01*
X49481106Y-68008978D01*
X49626685Y-67920972D01*
X49746972Y-67800685D01*
X49834978Y-67655106D01*
X49885586Y-67492696D01*
X49892000Y-67422116D01*
X49892000Y-66308884D01*
X49885586Y-66238304D01*
X49834978Y-66075894D01*
X49787980Y-65998151D01*
X49770145Y-65930597D01*
X49791663Y-65864123D01*
X49806412Y-65846326D01*
X50079819Y-65572920D01*
X50141142Y-65539435D01*
X50210834Y-65544419D01*
X50266767Y-65586291D01*
X50291184Y-65651755D01*
X50291500Y-65660601D01*
X50291500Y-87505500D01*
X50271815Y-87572539D01*
X50219011Y-87618294D01*
X50167500Y-87629500D01*
X30350500Y-87629500D01*
X30283461Y-87609815D01*
X30237706Y-87557011D01*
X30226500Y-87505500D01*
X30226500Y-83012847D01*
X31079600Y-83012847D01*
X31079600Y-86151152D01*
X31091231Y-86209629D01*
X31091232Y-86209630D01*
X31135547Y-86275952D01*
X31201869Y-86320267D01*
X31201870Y-86320268D01*
X31260347Y-86331899D01*
X31260350Y-86331900D01*
X31260352Y-86331900D01*
X33509650Y-86331900D01*
X33509651Y-86331899D01*
X33524468Y-86328952D01*
X33568129Y-86320268D01*
X33568129Y-86320267D01*
X33568131Y-86320267D01*
X33634452Y-86275952D01*
X33678767Y-86209631D01*
X33678767Y-86209629D01*
X33678768Y-86209629D01*
X33690399Y-86151152D01*
X33690400Y-86151150D01*
X33690400Y-83012849D01*
X33690399Y-83012847D01*
X33678768Y-82954370D01*
X33678767Y-82954369D01*
X33634452Y-82888047D01*
X33568130Y-82843732D01*
X33568129Y-82843731D01*
X33509652Y-82832100D01*
X33509648Y-82832100D01*
X31260352Y-82832100D01*
X31260347Y-82832100D01*
X31201870Y-82843731D01*
X31201869Y-82843732D01*
X31135547Y-82888047D01*
X31091232Y-82954369D01*
X31091231Y-82954370D01*
X31079600Y-83012847D01*
X30226500Y-83012847D01*
X30226500Y-81532189D01*
X30246185Y-81465150D01*
X30298989Y-81419395D01*
X30368147Y-81409451D01*
X30431703Y-81438476D01*
X30438181Y-81444508D01*
X30605370Y-81611697D01*
X30638855Y-81673020D01*
X30640017Y-81700816D01*
X30641500Y-81700816D01*
X30641500Y-81867056D01*
X30682423Y-82019783D01*
X30682426Y-82019790D01*
X30761475Y-82156709D01*
X30761479Y-82156714D01*
X30761480Y-82156716D01*
X30873284Y-82268520D01*
X30873286Y-82268521D01*
X30873290Y-82268524D01*
X31010209Y-82347573D01*
X31010216Y-82347577D01*
X31162943Y-82388500D01*
X31162945Y-82388500D01*
X31321055Y-82388500D01*
X31321057Y-82388500D01*
X31473784Y-82347577D01*
X31610716Y-82268520D01*
X31722520Y-82156716D01*
X31801577Y-82019784D01*
X31842500Y-81867057D01*
X31842500Y-81708943D01*
X31801577Y-81556216D01*
X31787705Y-81532189D01*
X31722524Y-81419290D01*
X31722518Y-81419282D01*
X31610717Y-81307481D01*
X31610709Y-81307475D01*
X31473790Y-81228426D01*
X31473786Y-81228424D01*
X31473784Y-81228423D01*
X31321057Y-81187500D01*
X31162943Y-81187500D01*
X31154816Y-81187500D01*
X31154816Y-81184332D01*
X31100504Y-81175851D01*
X31065697Y-81151370D01*
X30812319Y-80897992D01*
X30778834Y-80836669D01*
X30776000Y-80810311D01*
X30776000Y-73181345D01*
X30795685Y-73114306D01*
X30848489Y-73068551D01*
X30917647Y-73058607D01*
X30964149Y-73075228D01*
X30986894Y-73088978D01*
X31149304Y-73139586D01*
X31219884Y-73146000D01*
X31219887Y-73146000D01*
X33083113Y-73146000D01*
X33083116Y-73146000D01*
X33153696Y-73139586D01*
X33316106Y-73088978D01*
X33461685Y-73000972D01*
X33581972Y-72880685D01*
X33581973Y-72880682D01*
X33582885Y-72879520D01*
X33583772Y-72878885D01*
X33587276Y-72875382D01*
X33587858Y-72875964D01*
X33639722Y-72838884D01*
X33709506Y-72835427D01*
X33770081Y-72870248D01*
X33802215Y-72932290D01*
X33804500Y-72955987D01*
X33804500Y-77740932D01*
X33784815Y-77807971D01*
X33732011Y-77853726D01*
X33662853Y-77863670D01*
X33599297Y-77834645D01*
X33584650Y-77819601D01*
X33581975Y-77816342D01*
X33435657Y-77670024D01*
X33324786Y-77595943D01*
X33263598Y-77555059D01*
X33154483Y-77509862D01*
X33072420Y-77475870D01*
X33072412Y-77475868D01*
X32869469Y-77435500D01*
X32869465Y-77435500D01*
X32662535Y-77435500D01*
X32662530Y-77435500D01*
X32459587Y-77475868D01*
X32459579Y-77475870D01*
X32268403Y-77555058D01*
X32096342Y-77670024D01*
X31950024Y-77816342D01*
X31835058Y-77988403D01*
X31755870Y-78179579D01*
X31755868Y-78179587D01*
X31715500Y-78382530D01*
X31715500Y-78589469D01*
X31755868Y-78792412D01*
X31755870Y-78792420D01*
X31821939Y-78951925D01*
X31835059Y-78983598D01*
X31876154Y-79045101D01*
X31950024Y-79155657D01*
X32096342Y-79301975D01*
X32096345Y-79301977D01*
X32268402Y-79416941D01*
X32459580Y-79496130D01*
X32662530Y-79536499D01*
X32662534Y-79536500D01*
X32662535Y-79536500D01*
X32869466Y-79536500D01*
X32869467Y-79536499D01*
X33072420Y-79496130D01*
X33263598Y-79416941D01*
X33435655Y-79301977D01*
X33581977Y-79155655D01*
X33620090Y-79098613D01*
X33673701Y-79053810D01*
X33743026Y-79045101D01*
X33806054Y-79075256D01*
X33830577Y-79105502D01*
X33869535Y-79172978D01*
X34619022Y-79922465D01*
X34693245Y-79965318D01*
X34776031Y-79987500D01*
X34861737Y-79987500D01*
X36031091Y-79987500D01*
X36098130Y-80007185D01*
X36118772Y-80023819D01*
X36513873Y-80418920D01*
X36547358Y-80480243D01*
X36542374Y-80549935D01*
X36500502Y-80605868D01*
X36435038Y-80630285D01*
X36426192Y-80630601D01*
X35758847Y-80630601D01*
X35700370Y-80642232D01*
X35700369Y-80642233D01*
X35628891Y-80689994D01*
X35562214Y-80710872D01*
X35494833Y-80692388D01*
X35491109Y-80689994D01*
X35419630Y-80642233D01*
X35419629Y-80642232D01*
X35361152Y-80630601D01*
X35361148Y-80630601D01*
X34508852Y-80630601D01*
X34508847Y-80630601D01*
X34450370Y-80642232D01*
X34450369Y-80642233D01*
X34384047Y-80686548D01*
X34339732Y-80752870D01*
X34339731Y-80752871D01*
X34328100Y-80811348D01*
X34328100Y-82552653D01*
X34339731Y-82611130D01*
X34339732Y-82611131D01*
X34384047Y-82677453D01*
X34450369Y-82721768D01*
X34450370Y-82721769D01*
X34508847Y-82733400D01*
X34508850Y-82733401D01*
X35360500Y-82733401D01*
X35427539Y-82753086D01*
X35473294Y-82805890D01*
X35484500Y-82857401D01*
X35484500Y-84535407D01*
X35484500Y-84673395D01*
X35484500Y-84673397D01*
X35484499Y-84673397D01*
X35511418Y-84808723D01*
X35511421Y-84808733D01*
X35564222Y-84936208D01*
X35640887Y-85050946D01*
X35640888Y-85050947D01*
X36482553Y-85892611D01*
X36482556Y-85892614D01*
X36597282Y-85969271D01*
X36597286Y-85969273D01*
X36597289Y-85969275D01*
X36724771Y-86022081D01*
X36860106Y-86049000D01*
X36860108Y-86049000D01*
X36998095Y-86049000D01*
X36998096Y-86048999D01*
X37133428Y-86022081D01*
X37258147Y-85970420D01*
X37327616Y-85962951D01*
X37390096Y-85994226D01*
X37425748Y-86054315D01*
X37429600Y-86084981D01*
X37429600Y-86151152D01*
X37441231Y-86209629D01*
X37441232Y-86209630D01*
X37485547Y-86275952D01*
X37551869Y-86320267D01*
X37551870Y-86320268D01*
X37610347Y-86331899D01*
X37610350Y-86331900D01*
X37610352Y-86331900D01*
X39859650Y-86331900D01*
X39859651Y-86331899D01*
X39874468Y-86328952D01*
X39918129Y-86320268D01*
X39918129Y-86320267D01*
X39918131Y-86320267D01*
X39984452Y-86275952D01*
X40028767Y-86209631D01*
X40028766Y-86209631D01*
X40028898Y-86209435D01*
X40082510Y-86164630D01*
X40151835Y-86155923D01*
X40214863Y-86186078D01*
X40235102Y-86209435D01*
X40279547Y-86275952D01*
X40345869Y-86320267D01*
X40345870Y-86320268D01*
X40404347Y-86331899D01*
X40404350Y-86331900D01*
X40404352Y-86331900D01*
X42653650Y-86331900D01*
X42653651Y-86331899D01*
X42668468Y-86328952D01*
X42712129Y-86320268D01*
X42712129Y-86320267D01*
X42712131Y-86320267D01*
X42778452Y-86275952D01*
X42822767Y-86209631D01*
X42822767Y-86209629D01*
X42822768Y-86209629D01*
X42834399Y-86151152D01*
X42834400Y-86151150D01*
X42834400Y-83012849D01*
X42834399Y-83012847D01*
X46573600Y-83012847D01*
X46573600Y-86151152D01*
X46585231Y-86209629D01*
X46585232Y-86209630D01*
X46629547Y-86275952D01*
X46695869Y-86320267D01*
X46695870Y-86320268D01*
X46754347Y-86331899D01*
X46754350Y-86331900D01*
X46754352Y-86331900D01*
X49003650Y-86331900D01*
X49003651Y-86331899D01*
X49018468Y-86328952D01*
X49062129Y-86320268D01*
X49062129Y-86320267D01*
X49062131Y-86320267D01*
X49128452Y-86275952D01*
X49172767Y-86209631D01*
X49172767Y-86209629D01*
X49172768Y-86209629D01*
X49184399Y-86151152D01*
X49184400Y-86151150D01*
X49184400Y-83012849D01*
X49184399Y-83012847D01*
X49172768Y-82954370D01*
X49172767Y-82954369D01*
X49128452Y-82888047D01*
X49062130Y-82843732D01*
X49062129Y-82843731D01*
X49003652Y-82832100D01*
X49003648Y-82832100D01*
X46754352Y-82832100D01*
X46754347Y-82832100D01*
X46695870Y-82843731D01*
X46695869Y-82843732D01*
X46629547Y-82888047D01*
X46585232Y-82954369D01*
X46585231Y-82954370D01*
X46573600Y-83012847D01*
X42834399Y-83012847D01*
X42822768Y-82954370D01*
X42822767Y-82954369D01*
X42778452Y-82888047D01*
X42712130Y-82843732D01*
X42712129Y-82843731D01*
X42653652Y-82832100D01*
X42653648Y-82832100D01*
X40404352Y-82832100D01*
X40404347Y-82832100D01*
X40345870Y-82843731D01*
X40345869Y-82843732D01*
X40279548Y-82888047D01*
X40235102Y-82954565D01*
X40214624Y-82971678D01*
X40196709Y-82991450D01*
X40188228Y-82993737D01*
X40181489Y-82999369D01*
X40155017Y-83002693D01*
X40129250Y-83009643D01*
X40120877Y-83006981D01*
X40112164Y-83008076D01*
X40088094Y-82996560D01*
X40062664Y-82988476D01*
X40054899Y-82980677D01*
X40049137Y-82977921D01*
X40036509Y-82964777D01*
X40029045Y-82955766D01*
X40028767Y-82954369D01*
X39984452Y-82888048D01*
X39958683Y-82870829D01*
X39947134Y-82856888D01*
X39940193Y-82840752D01*
X39928929Y-82827274D01*
X39926674Y-82809323D01*
X39919526Y-82792705D01*
X39922410Y-82775377D01*
X39920222Y-82757949D01*
X39928029Y-82741629D01*
X39931001Y-82723784D01*
X39942795Y-82710766D01*
X39950377Y-82694921D01*
X39954932Y-82690114D01*
X40285655Y-82359389D01*
X40285660Y-82359386D01*
X40295860Y-82349185D01*
X40295862Y-82349185D01*
X40356465Y-82288582D01*
X40385380Y-82238500D01*
X40399318Y-82214359D01*
X40421501Y-82131573D01*
X40421501Y-82045867D01*
X40421501Y-82038272D01*
X40421500Y-82038254D01*
X40421500Y-77015367D01*
X40421500Y-76994856D01*
X40421501Y-76994853D01*
X40421501Y-76909147D01*
X40399318Y-76826362D01*
X40396092Y-76820775D01*
X40384985Y-76801536D01*
X40356469Y-76752144D01*
X40356466Y-76752140D01*
X40356465Y-76752138D01*
X40295862Y-76691535D01*
X40295861Y-76691534D01*
X40291536Y-76687209D01*
X40291525Y-76687199D01*
X40230818Y-76626491D01*
X40197334Y-76565167D01*
X40194500Y-76538810D01*
X40194500Y-75633188D01*
X40214185Y-75566149D01*
X40230815Y-75545511D01*
X40717698Y-75058627D01*
X40779019Y-75025144D01*
X40806815Y-75023991D01*
X40806815Y-75022500D01*
X40973055Y-75022500D01*
X40973057Y-75022500D01*
X41125784Y-74981577D01*
X41262716Y-74902520D01*
X41374520Y-74790716D01*
X41453577Y-74653784D01*
X41494500Y-74501057D01*
X41494500Y-74342943D01*
X41453577Y-74190216D01*
X41389880Y-74079888D01*
X41374524Y-74053290D01*
X41374518Y-74053282D01*
X41262717Y-73941481D01*
X41262709Y-73941475D01*
X41125790Y-73862426D01*
X41125786Y-73862424D01*
X41125784Y-73862423D01*
X40973057Y-73821500D01*
X40814943Y-73821500D01*
X40662216Y-73862423D01*
X40662209Y-73862426D01*
X40525290Y-73941475D01*
X40525282Y-73941481D01*
X40413481Y-74053282D01*
X40413475Y-74053290D01*
X40334426Y-74190209D01*
X40334423Y-74190216D01*
X40293500Y-74342943D01*
X40293500Y-74509184D01*
X40290329Y-74509184D01*
X40281860Y-74563474D01*
X40257370Y-74598301D01*
X39767492Y-75088181D01*
X39706169Y-75121666D01*
X39679811Y-75124500D01*
X38889730Y-75124500D01*
X38859300Y-75127353D01*
X38859298Y-75127353D01*
X38731119Y-75172206D01*
X38731117Y-75172207D01*
X38621850Y-75252850D01*
X38541207Y-75362117D01*
X38541206Y-75362119D01*
X38496353Y-75490298D01*
X38496353Y-75490300D01*
X38493500Y-75520730D01*
X38493500Y-76710695D01*
X38473815Y-76777734D01*
X38421011Y-76823489D01*
X38351853Y-76833433D01*
X38288297Y-76804408D01*
X38281819Y-76798376D01*
X35393819Y-73910376D01*
X35360334Y-73849053D01*
X35357500Y-73822695D01*
X35357500Y-71442996D01*
X35685499Y-71442996D01*
X35712418Y-71578322D01*
X35712421Y-71578332D01*
X35765222Y-71705807D01*
X35841887Y-71820545D01*
X35939454Y-71918112D01*
X36054192Y-71994777D01*
X36181667Y-72047578D01*
X36181672Y-72047580D01*
X36181676Y-72047580D01*
X36181677Y-72047581D01*
X36317003Y-72074500D01*
X36317006Y-72074500D01*
X36454996Y-72074500D01*
X36546040Y-72056389D01*
X36590328Y-72047580D01*
X36654069Y-72021177D01*
X36717807Y-71994777D01*
X36717808Y-71994776D01*
X36717811Y-71994775D01*
X36832543Y-71918114D01*
X36893839Y-71856817D01*
X36955160Y-71823334D01*
X36981519Y-71820500D01*
X39946995Y-71820500D01*
X40038041Y-71802389D01*
X40082328Y-71793580D01*
X40209811Y-71740775D01*
X40324542Y-71664114D01*
X40422114Y-71566542D01*
X40498775Y-71451811D01*
X40551580Y-71324328D01*
X40573824Y-71212500D01*
X40578500Y-71188995D01*
X40578500Y-71051004D01*
X40551581Y-70915677D01*
X40551580Y-70915676D01*
X40551580Y-70915672D01*
X40501135Y-70793886D01*
X40498778Y-70788195D01*
X40498771Y-70788182D01*
X40422114Y-70673458D01*
X40422111Y-70673454D01*
X40324545Y-70575888D01*
X40324541Y-70575885D01*
X40209817Y-70499228D01*
X40209804Y-70499221D01*
X40082332Y-70446421D01*
X40082322Y-70446418D01*
X39946995Y-70419500D01*
X39946993Y-70419500D01*
X36571007Y-70419500D01*
X36571005Y-70419500D01*
X36508621Y-70431909D01*
X36477429Y-70438114D01*
X36443976Y-70444768D01*
X36435670Y-70446420D01*
X36308190Y-70499224D01*
X36193454Y-70575887D01*
X35841887Y-70927454D01*
X35765222Y-71042192D01*
X35712421Y-71169667D01*
X35712418Y-71169677D01*
X35685500Y-71305003D01*
X35685500Y-71305006D01*
X35685500Y-71442994D01*
X35685500Y-71442996D01*
X35685499Y-71442996D01*
X35357500Y-71442996D01*
X35357500Y-69592529D01*
X35357500Y-69592527D01*
X35341051Y-69531138D01*
X35335318Y-69509741D01*
X35292465Y-69435518D01*
X35102819Y-69245872D01*
X35069334Y-69184549D01*
X35066500Y-69158191D01*
X35066500Y-67495045D01*
X35066501Y-67495032D01*
X35066501Y-67399338D01*
X35066501Y-67399337D01*
X35044318Y-67316551D01*
X35022891Y-67279440D01*
X35001465Y-67242328D01*
X34940862Y-67181725D01*
X34940859Y-67181723D01*
X34214319Y-66455182D01*
X34180834Y-66393859D01*
X34178000Y-66367501D01*
X34178000Y-65973237D01*
X34178000Y-65973235D01*
X34155818Y-65890450D01*
X34155818Y-65890449D01*
X34124113Y-65835534D01*
X34107500Y-65773534D01*
X34107500Y-64633855D01*
X34107501Y-64633842D01*
X34107501Y-64538149D01*
X34107501Y-64538148D01*
X34085318Y-64455362D01*
X34081487Y-64448726D01*
X34042465Y-64381138D01*
X33981862Y-64320535D01*
X33981860Y-64320533D01*
X33763319Y-64101992D01*
X33729834Y-64040669D01*
X33727000Y-64014311D01*
X33727000Y-63768886D01*
X33727000Y-63768884D01*
X33720586Y-63698304D01*
X33697120Y-63622998D01*
X34311000Y-63622998D01*
X34311000Y-64263981D01*
X34311001Y-64263990D01*
X34317087Y-64320614D01*
X34364872Y-64448726D01*
X34446813Y-64558187D01*
X34556274Y-64640128D01*
X34684386Y-64687912D01*
X34741015Y-64694000D01*
X36781984Y-64693999D01*
X36838614Y-64687912D01*
X36966726Y-64640128D01*
X37076187Y-64558187D01*
X37158128Y-64448726D01*
X37205912Y-64320614D01*
X37208187Y-64299444D01*
X37211999Y-64264001D01*
X37211999Y-64263990D01*
X37212000Y-64263985D01*
X37211999Y-63623016D01*
X37205912Y-63566386D01*
X37158128Y-63438274D01*
X37076187Y-63328813D01*
X37005939Y-63276226D01*
X36966730Y-63246874D01*
X36966727Y-63246873D01*
X36966726Y-63246872D01*
X36867950Y-63210030D01*
X37886000Y-63210030D01*
X37886000Y-63416969D01*
X37926368Y-63619912D01*
X37926370Y-63619920D01*
X38005558Y-63811096D01*
X38120524Y-63983157D01*
X38266842Y-64129475D01*
X38266845Y-64129477D01*
X38438902Y-64244441D01*
X38630080Y-64323630D01*
X38833030Y-64363999D01*
X38833034Y-64364000D01*
X38833035Y-64364000D01*
X39039966Y-64364000D01*
X39039967Y-64363999D01*
X39242920Y-64323630D01*
X39434098Y-64244441D01*
X39606155Y-64129477D01*
X39752477Y-63983155D01*
X39867441Y-63811098D01*
X39946630Y-63619920D01*
X39987000Y-63416965D01*
X39987000Y-63210035D01*
X39986999Y-63210030D01*
X40426000Y-63210030D01*
X40426000Y-63416969D01*
X40466368Y-63619912D01*
X40466370Y-63619920D01*
X40545558Y-63811096D01*
X40660524Y-63983157D01*
X40806842Y-64129475D01*
X40806845Y-64129477D01*
X40978902Y-64244441D01*
X41170080Y-64323630D01*
X41373030Y-64363999D01*
X41373034Y-64364000D01*
X41373035Y-64364000D01*
X41579966Y-64364000D01*
X41579967Y-64363999D01*
X41782920Y-64323630D01*
X41974098Y-64244441D01*
X42146155Y-64129477D01*
X42292477Y-63983155D01*
X42407441Y-63811098D01*
X42486630Y-63619920D01*
X42527000Y-63416965D01*
X42527000Y-63210035D01*
X42486630Y-63007080D01*
X42407441Y-62815902D01*
X42292477Y-62643845D01*
X42292475Y-62643842D01*
X42146157Y-62497524D01*
X42060126Y-62440041D01*
X41974098Y-62382559D01*
X41917224Y-62359001D01*
X41782920Y-62303370D01*
X41782912Y-62303368D01*
X41579969Y-62263000D01*
X41579965Y-62263000D01*
X41373035Y-62263000D01*
X41373030Y-62263000D01*
X41170087Y-62303368D01*
X41170079Y-62303370D01*
X40978903Y-62382558D01*
X40806842Y-62497524D01*
X40660524Y-62643842D01*
X40545558Y-62815903D01*
X40466370Y-63007079D01*
X40466368Y-63007087D01*
X40426000Y-63210030D01*
X39986999Y-63210030D01*
X39946630Y-63007080D01*
X39867441Y-62815902D01*
X39752477Y-62643845D01*
X39752475Y-62643842D01*
X39606157Y-62497524D01*
X39520126Y-62440041D01*
X39434098Y-62382559D01*
X39377224Y-62359001D01*
X39242920Y-62303370D01*
X39242912Y-62303368D01*
X39039969Y-62263000D01*
X39039965Y-62263000D01*
X38833035Y-62263000D01*
X38833030Y-62263000D01*
X38630087Y-62303368D01*
X38630079Y-62303370D01*
X38438903Y-62382558D01*
X38266842Y-62497524D01*
X38120524Y-62643842D01*
X38005558Y-62815903D01*
X37926370Y-63007079D01*
X37926368Y-63007087D01*
X37886000Y-63210030D01*
X36867950Y-63210030D01*
X36838614Y-63199088D01*
X36838612Y-63199087D01*
X36838610Y-63199087D01*
X36781993Y-63193000D01*
X34741018Y-63193000D01*
X34741009Y-63193001D01*
X34684385Y-63199087D01*
X34556273Y-63246872D01*
X34446813Y-63328813D01*
X34364873Y-63438271D01*
X34364872Y-63438274D01*
X34328462Y-63535893D01*
X34317087Y-63566389D01*
X34311000Y-63622998D01*
X33697120Y-63622998D01*
X33669978Y-63535894D01*
X33581972Y-63390315D01*
X33581970Y-63390313D01*
X33581969Y-63390311D01*
X33461688Y-63270030D01*
X33461685Y-63270028D01*
X33316106Y-63182022D01*
X33289993Y-63173885D01*
X33231846Y-63135148D01*
X33203872Y-63071123D01*
X33214953Y-63002138D01*
X33261572Y-62950095D01*
X33289992Y-62937115D01*
X33316106Y-62928978D01*
X33461685Y-62840972D01*
X33581972Y-62720685D01*
X33669978Y-62575106D01*
X33720586Y-62412696D01*
X33727000Y-62342116D01*
X33727000Y-61717998D01*
X34311000Y-61717998D01*
X34311000Y-62358981D01*
X34311001Y-62358990D01*
X34317087Y-62415614D01*
X34347639Y-62497523D01*
X34364872Y-62543726D01*
X34446813Y-62653187D01*
X34534677Y-62718961D01*
X34553376Y-62732959D01*
X34556274Y-62735128D01*
X34684386Y-62782912D01*
X34741015Y-62789000D01*
X36781984Y-62788999D01*
X36838614Y-62782912D01*
X36966726Y-62735128D01*
X37076187Y-62653187D01*
X37158128Y-62543726D01*
X37205912Y-62415614D01*
X37209466Y-62382558D01*
X37211999Y-62359001D01*
X37211999Y-62358990D01*
X37212000Y-62358985D01*
X37211999Y-61718016D01*
X37205912Y-61661386D01*
X37158128Y-61533274D01*
X37076187Y-61423813D01*
X37010411Y-61374574D01*
X36966728Y-61341873D01*
X36966726Y-61341872D01*
X36838614Y-61294088D01*
X36838612Y-61294087D01*
X36838610Y-61294087D01*
X36781993Y-61288000D01*
X34741018Y-61288000D01*
X34741009Y-61288001D01*
X34684385Y-61294087D01*
X34556273Y-61341872D01*
X34446813Y-61423813D01*
X34364873Y-61533271D01*
X34317087Y-61661389D01*
X34311000Y-61717998D01*
X33727000Y-61717998D01*
X33727000Y-61228884D01*
X33720586Y-61158304D01*
X33669978Y-60995894D01*
X33581972Y-60850315D01*
X33581970Y-60850313D01*
X33581969Y-60850311D01*
X33461688Y-60730030D01*
X33461685Y-60730028D01*
X33362437Y-60670030D01*
X37886000Y-60670030D01*
X37886000Y-60876969D01*
X37926368Y-61079912D01*
X37926370Y-61079920D01*
X38005559Y-61271098D01*
X38052848Y-61341872D01*
X38120524Y-61443157D01*
X38266842Y-61589475D01*
X38266845Y-61589477D01*
X38438902Y-61704441D01*
X38630080Y-61783630D01*
X38833030Y-61823999D01*
X38833034Y-61824000D01*
X38833035Y-61824000D01*
X39039966Y-61824000D01*
X39039967Y-61823999D01*
X39242920Y-61783630D01*
X39434098Y-61704441D01*
X39606155Y-61589477D01*
X39752477Y-61443155D01*
X39867441Y-61271098D01*
X39946630Y-61079920D01*
X39987000Y-60876965D01*
X39987000Y-60670035D01*
X39986999Y-60670030D01*
X40426000Y-60670030D01*
X40426000Y-60876969D01*
X40466368Y-61079912D01*
X40466370Y-61079920D01*
X40545559Y-61271098D01*
X40592848Y-61341872D01*
X40660524Y-61443157D01*
X40806842Y-61589475D01*
X40806845Y-61589477D01*
X40978902Y-61704441D01*
X41170080Y-61783630D01*
X41373030Y-61823999D01*
X41373034Y-61824000D01*
X41373035Y-61824000D01*
X41579966Y-61824000D01*
X41579967Y-61823999D01*
X41782920Y-61783630D01*
X41974098Y-61704441D01*
X42146155Y-61589477D01*
X42292477Y-61443155D01*
X42407441Y-61271098D01*
X42486630Y-61079920D01*
X42527000Y-60876965D01*
X42527000Y-60670035D01*
X42486630Y-60467080D01*
X42407441Y-60275902D01*
X42292477Y-60103845D01*
X42292475Y-60103842D01*
X42146157Y-59957524D01*
X42060126Y-59900041D01*
X41974098Y-59842559D01*
X41876453Y-59802113D01*
X41782920Y-59763370D01*
X41782912Y-59763368D01*
X41579969Y-59723000D01*
X41579965Y-59723000D01*
X41373035Y-59723000D01*
X41373030Y-59723000D01*
X41170087Y-59763368D01*
X41170079Y-59763370D01*
X40978903Y-59842558D01*
X40806842Y-59957524D01*
X40660524Y-60103842D01*
X40545558Y-60275903D01*
X40466370Y-60467079D01*
X40466368Y-60467087D01*
X40426000Y-60670030D01*
X39986999Y-60670030D01*
X39946630Y-60467080D01*
X39867441Y-60275902D01*
X39752477Y-60103845D01*
X39752475Y-60103842D01*
X39606157Y-59957524D01*
X39520126Y-59900041D01*
X39434098Y-59842559D01*
X39336453Y-59802113D01*
X39242920Y-59763370D01*
X39242912Y-59763368D01*
X39039969Y-59723000D01*
X39039965Y-59723000D01*
X38833035Y-59723000D01*
X38833030Y-59723000D01*
X38630087Y-59763368D01*
X38630079Y-59763370D01*
X38438903Y-59842558D01*
X38266842Y-59957524D01*
X38120524Y-60103842D01*
X38005558Y-60275903D01*
X37926370Y-60467079D01*
X37926368Y-60467087D01*
X37886000Y-60670030D01*
X33362437Y-60670030D01*
X33316106Y-60642022D01*
X33289993Y-60633885D01*
X33231846Y-60595148D01*
X33203872Y-60531123D01*
X33214953Y-60462138D01*
X33261572Y-60410095D01*
X33289992Y-60397115D01*
X33316106Y-60388978D01*
X33461685Y-60300972D01*
X33581972Y-60180685D01*
X33669978Y-60035106D01*
X33720586Y-59872696D01*
X33727000Y-59802116D01*
X33727000Y-58688884D01*
X33720586Y-58618304D01*
X33669978Y-58455894D01*
X33581972Y-58310315D01*
X33581970Y-58310313D01*
X33581969Y-58310311D01*
X33461688Y-58190030D01*
X33461685Y-58190028D01*
X33362437Y-58130030D01*
X37886000Y-58130030D01*
X37886000Y-58336969D01*
X37926368Y-58539912D01*
X37926370Y-58539920D01*
X38005558Y-58731096D01*
X38120524Y-58903157D01*
X38266842Y-59049475D01*
X38266845Y-59049477D01*
X38438902Y-59164441D01*
X38630080Y-59243630D01*
X38833030Y-59283999D01*
X38833034Y-59284000D01*
X38833035Y-59284000D01*
X39039966Y-59284000D01*
X39039967Y-59283999D01*
X39242920Y-59243630D01*
X39434098Y-59164441D01*
X39606155Y-59049477D01*
X39752477Y-58903155D01*
X39867441Y-58731098D01*
X39946630Y-58539920D01*
X39987000Y-58336965D01*
X39987000Y-58130035D01*
X39946630Y-57927080D01*
X39867441Y-57735902D01*
X39752477Y-57563845D01*
X39752475Y-57563842D01*
X39606157Y-57417524D01*
X39496830Y-57344475D01*
X39434098Y-57302559D01*
X39397175Y-57287265D01*
X39242920Y-57223370D01*
X39242912Y-57223368D01*
X39039969Y-57183000D01*
X39039965Y-57183000D01*
X38833035Y-57183000D01*
X38833030Y-57183000D01*
X38630087Y-57223368D01*
X38630079Y-57223370D01*
X38438903Y-57302558D01*
X38266842Y-57417524D01*
X38120524Y-57563842D01*
X38005558Y-57735903D01*
X37926370Y-57927079D01*
X37926368Y-57927087D01*
X37886000Y-58130030D01*
X33362437Y-58130030D01*
X33316106Y-58102022D01*
X33289993Y-58093885D01*
X33231846Y-58055148D01*
X33203872Y-57991123D01*
X33214953Y-57922138D01*
X33261572Y-57870095D01*
X33289992Y-57857115D01*
X33316106Y-57848978D01*
X33461685Y-57760972D01*
X33581972Y-57640685D01*
X33669978Y-57495106D01*
X33720586Y-57332696D01*
X33727000Y-57262116D01*
X33727000Y-56148884D01*
X33720586Y-56078304D01*
X33669978Y-55915894D01*
X33581972Y-55770315D01*
X33581970Y-55770313D01*
X33581969Y-55770311D01*
X33461688Y-55650030D01*
X33316106Y-55562022D01*
X33212398Y-55529706D01*
X33153696Y-55511414D01*
X33153694Y-55511413D01*
X33153692Y-55511413D01*
X33104278Y-55506923D01*
X33083116Y-55505000D01*
X31219884Y-55505000D01*
X31200645Y-55506748D01*
X31149307Y-55511413D01*
X30986893Y-55562022D01*
X30841311Y-55650030D01*
X30721030Y-55770311D01*
X30633022Y-55915893D01*
X30582413Y-56078307D01*
X30576000Y-56148886D01*
X30576000Y-57262113D01*
X30582413Y-57332692D01*
X30582413Y-57332694D01*
X30582414Y-57332696D01*
X30588728Y-57352959D01*
X30633022Y-57495106D01*
X30721030Y-57640688D01*
X30841311Y-57760969D01*
X30841313Y-57760970D01*
X30841315Y-57760972D01*
X30986894Y-57848978D01*
X30986897Y-57848979D01*
X30986896Y-57848979D01*
X31013005Y-57857115D01*
X31071153Y-57895852D01*
X31099127Y-57959878D01*
X31088045Y-58028863D01*
X31041427Y-58080906D01*
X31013005Y-58093885D01*
X30986897Y-58102020D01*
X30841311Y-58190030D01*
X30721030Y-58310311D01*
X30633022Y-58455893D01*
X30582413Y-58618307D01*
X30576000Y-58688886D01*
X30576000Y-59802113D01*
X30582413Y-59872692D01*
X30582413Y-59872694D01*
X30582414Y-59872696D01*
X30608847Y-59957523D01*
X30633022Y-60035106D01*
X30721030Y-60180688D01*
X30841311Y-60300969D01*
X30841313Y-60300970D01*
X30841315Y-60300972D01*
X30986894Y-60388978D01*
X30986897Y-60388979D01*
X30986896Y-60388979D01*
X31013005Y-60397115D01*
X31071153Y-60435852D01*
X31099127Y-60499878D01*
X31088045Y-60568863D01*
X31041427Y-60620906D01*
X31013005Y-60633885D01*
X30986897Y-60642020D01*
X30841311Y-60730030D01*
X30721030Y-60850311D01*
X30633022Y-60995893D01*
X30582413Y-61158307D01*
X30576000Y-61228886D01*
X30576000Y-62342113D01*
X30582413Y-62412692D01*
X30582413Y-62412694D01*
X30582414Y-62412696D01*
X30623244Y-62543728D01*
X30633023Y-62575108D01*
X30680018Y-62652848D01*
X30697854Y-62720402D01*
X30676336Y-62786876D01*
X30661582Y-62804678D01*
X30438181Y-63028080D01*
X30376858Y-63061565D01*
X30307167Y-63056581D01*
X30251233Y-63014710D01*
X30226816Y-62949245D01*
X30226500Y-62940399D01*
X30226500Y-53464500D01*
X30246185Y-53397461D01*
X30298989Y-53351706D01*
X30350500Y-53340500D01*
X41406695Y-53340500D01*
X41473734Y-53360185D01*
G37*
%TD.AperFunction*%
%TA.AperFunction,Conductor*%
G36*
X36323819Y-75761476D02*
G01*
X36330297Y-75767508D01*
X37791816Y-77229027D01*
X37825301Y-77290350D01*
X37820317Y-77360042D01*
X37778445Y-77415975D01*
X37728327Y-77438325D01*
X37539585Y-77475868D01*
X37539579Y-77475870D01*
X37348403Y-77555058D01*
X37176342Y-77670024D01*
X37030025Y-77816341D01*
X36991909Y-77873386D01*
X36938296Y-77918190D01*
X36868971Y-77926897D01*
X36805944Y-77896742D01*
X36781420Y-77866494D01*
X36779790Y-77863670D01*
X36742465Y-77799022D01*
X36154935Y-77211492D01*
X36121450Y-77150169D01*
X36118616Y-77123811D01*
X36118616Y-75855189D01*
X36138301Y-75788150D01*
X36191105Y-75742395D01*
X36260263Y-75732451D01*
X36323819Y-75761476D01*
G37*
%TD.AperFunction*%
%TD*%
M02*
