%TF.GenerationSoftware,KiCad,Pcbnew,9.0.1*%
%TF.CreationDate,2025-06-09T01:02:34-04:00*%
%TF.ProjectId,Pneumatactors_1Xiao_PiezoPumps_2Valves,506e6575-6d61-4746-9163-746f72735f31,rev?*%
%TF.SameCoordinates,Original*%
%TF.FileFunction,Legend,Top*%
%TF.FilePolarity,Positive*%
%FSLAX46Y46*%
G04 Gerber Fmt 4.6, Leading zero omitted, Abs format (unit mm)*
G04 Created by KiCad (PCBNEW 9.0.1) date 2025-06-09 01:02:34*
%MOMM*%
%LPD*%
G01*
G04 APERTURE LIST*
%ADD10C,0.125000*%
%ADD11C,0.150000*%
%ADD12C,0.106680*%
%ADD13C,0.100000*%
%ADD14C,0.127000*%
%ADD15C,0.504000*%
%ADD16C,0.152400*%
%ADD17C,0.508000*%
%ADD18C,0.120000*%
G04 APERTURE END LIST*
D10*
X33210523Y-80298333D02*
X33591476Y-80298333D01*
X46545523Y-80298333D02*
X46926476Y-80298333D01*
X46735999Y-80488809D02*
X46735999Y-80107857D01*
X42735523Y-80298333D02*
X43116476Y-80298333D01*
X37147523Y-80298333D02*
X37528476Y-80298333D01*
X37337999Y-80488809D02*
X37337999Y-80107857D01*
D11*
X40964017Y-78213220D02*
X40897350Y-78179886D01*
X40897350Y-78179886D02*
X40764017Y-78179886D01*
X40764017Y-78179886D02*
X40697350Y-78213220D01*
X40697350Y-78213220D02*
X40630684Y-78279886D01*
X40630684Y-78279886D02*
X40597350Y-78346553D01*
X40597350Y-78346553D02*
X40597350Y-78479886D01*
X40597350Y-78479886D02*
X40630684Y-78546553D01*
X40630684Y-78546553D02*
X40697350Y-78613220D01*
X40697350Y-78613220D02*
X40764017Y-78646553D01*
X40764017Y-78646553D02*
X40897350Y-78646553D01*
X40897350Y-78646553D02*
X40964017Y-78613220D01*
X40830684Y-77946553D02*
X40664017Y-77979886D01*
X40664017Y-77979886D02*
X40497350Y-78079886D01*
X40497350Y-78079886D02*
X40397350Y-78246553D01*
X40397350Y-78246553D02*
X40364017Y-78413220D01*
X40364017Y-78413220D02*
X40397350Y-78579886D01*
X40397350Y-78579886D02*
X40497350Y-78746553D01*
X40497350Y-78746553D02*
X40664017Y-78846553D01*
X40664017Y-78846553D02*
X40830684Y-78879886D01*
X40830684Y-78879886D02*
X40997350Y-78846553D01*
X40997350Y-78846553D02*
X41164017Y-78746553D01*
X41164017Y-78746553D02*
X41264017Y-78579886D01*
X41264017Y-78579886D02*
X41297350Y-78413220D01*
X41297350Y-78413220D02*
X41264017Y-78246553D01*
X41264017Y-78246553D02*
X41164017Y-78079886D01*
X41164017Y-78079886D02*
X40997350Y-77979886D01*
X40997350Y-77979886D02*
X40830684Y-77946553D01*
X42097350Y-78546553D02*
X42430683Y-78546553D01*
X42030683Y-78746553D02*
X42264017Y-78046553D01*
X42264017Y-78046553D02*
X42497350Y-78746553D01*
X42730683Y-78679886D02*
X42764017Y-78713220D01*
X42764017Y-78713220D02*
X42730683Y-78746553D01*
X42730683Y-78746553D02*
X42697350Y-78713220D01*
X42697350Y-78713220D02*
X42730683Y-78679886D01*
X42730683Y-78679886D02*
X42730683Y-78746553D01*
X43597349Y-78746553D02*
X43597349Y-78046553D01*
X43597349Y-78046553D02*
X43864016Y-78046553D01*
X43864016Y-78046553D02*
X43930683Y-78079886D01*
X43930683Y-78079886D02*
X43964016Y-78113220D01*
X43964016Y-78113220D02*
X43997349Y-78179886D01*
X43997349Y-78179886D02*
X43997349Y-78279886D01*
X43997349Y-78279886D02*
X43964016Y-78346553D01*
X43964016Y-78346553D02*
X43930683Y-78379886D01*
X43930683Y-78379886D02*
X43864016Y-78413220D01*
X43864016Y-78413220D02*
X43597349Y-78413220D01*
X44297349Y-78746553D02*
X44297349Y-78279886D01*
X44297349Y-78046553D02*
X44264016Y-78079886D01*
X44264016Y-78079886D02*
X44297349Y-78113220D01*
X44297349Y-78113220D02*
X44330683Y-78079886D01*
X44330683Y-78079886D02*
X44297349Y-78046553D01*
X44297349Y-78046553D02*
X44297349Y-78113220D01*
X44630682Y-78746553D02*
X44630682Y-78279886D01*
X44630682Y-78346553D02*
X44664016Y-78313220D01*
X44664016Y-78313220D02*
X44730682Y-78279886D01*
X44730682Y-78279886D02*
X44830682Y-78279886D01*
X44830682Y-78279886D02*
X44897349Y-78313220D01*
X44897349Y-78313220D02*
X44930682Y-78379886D01*
X44930682Y-78379886D02*
X44930682Y-78746553D01*
X44930682Y-78379886D02*
X44964016Y-78313220D01*
X44964016Y-78313220D02*
X45030682Y-78279886D01*
X45030682Y-78279886D02*
X45130682Y-78279886D01*
X45130682Y-78279886D02*
X45197349Y-78313220D01*
X45197349Y-78313220D02*
X45230682Y-78379886D01*
X45230682Y-78379886D02*
X45230682Y-78746553D01*
X45564015Y-78279886D02*
X45564015Y-78979886D01*
X45564015Y-78313220D02*
X45630682Y-78279886D01*
X45630682Y-78279886D02*
X45764015Y-78279886D01*
X45764015Y-78279886D02*
X45830682Y-78313220D01*
X45830682Y-78313220D02*
X45864015Y-78346553D01*
X45864015Y-78346553D02*
X45897349Y-78413220D01*
X45897349Y-78413220D02*
X45897349Y-78613220D01*
X45897349Y-78613220D02*
X45864015Y-78679886D01*
X45864015Y-78679886D02*
X45830682Y-78713220D01*
X45830682Y-78713220D02*
X45764015Y-78746553D01*
X45764015Y-78746553D02*
X45630682Y-78746553D01*
X45630682Y-78746553D02*
X45564015Y-78713220D01*
X46497348Y-78746553D02*
X46497348Y-78379886D01*
X46497348Y-78379886D02*
X46464015Y-78313220D01*
X46464015Y-78313220D02*
X46397348Y-78279886D01*
X46397348Y-78279886D02*
X46264015Y-78279886D01*
X46264015Y-78279886D02*
X46197348Y-78313220D01*
X46497348Y-78713220D02*
X46430682Y-78746553D01*
X46430682Y-78746553D02*
X46264015Y-78746553D01*
X46264015Y-78746553D02*
X46197348Y-78713220D01*
X46197348Y-78713220D02*
X46164015Y-78646553D01*
X46164015Y-78646553D02*
X46164015Y-78579886D01*
X46164015Y-78579886D02*
X46197348Y-78513220D01*
X46197348Y-78513220D02*
X46264015Y-78479886D01*
X46264015Y-78479886D02*
X46430682Y-78479886D01*
X46430682Y-78479886D02*
X46497348Y-78446553D01*
X46930681Y-78746553D02*
X46864015Y-78713220D01*
X46864015Y-78713220D02*
X46830681Y-78646553D01*
X46830681Y-78646553D02*
X46830681Y-78046553D01*
X47197348Y-78746553D02*
X47197348Y-78046553D01*
X47264015Y-78479886D02*
X47464015Y-78746553D01*
X47464015Y-78279886D02*
X47197348Y-78546553D01*
X48064015Y-78746553D02*
X48064015Y-78379886D01*
X48064015Y-78379886D02*
X48030682Y-78313220D01*
X48030682Y-78313220D02*
X47964015Y-78279886D01*
X47964015Y-78279886D02*
X47830682Y-78279886D01*
X47830682Y-78279886D02*
X47764015Y-78313220D01*
X48064015Y-78713220D02*
X47997349Y-78746553D01*
X47997349Y-78746553D02*
X47830682Y-78746553D01*
X47830682Y-78746553D02*
X47764015Y-78713220D01*
X47764015Y-78713220D02*
X47730682Y-78646553D01*
X47730682Y-78646553D02*
X47730682Y-78579886D01*
X47730682Y-78579886D02*
X47764015Y-78513220D01*
X47764015Y-78513220D02*
X47830682Y-78479886D01*
X47830682Y-78479886D02*
X47997349Y-78479886D01*
X47997349Y-78479886D02*
X48064015Y-78446553D01*
X48397348Y-78746553D02*
X48397348Y-78279886D01*
X48397348Y-78413220D02*
X48430682Y-78346553D01*
X48430682Y-78346553D02*
X48464015Y-78313220D01*
X48464015Y-78313220D02*
X48530682Y-78279886D01*
X48530682Y-78279886D02*
X48597348Y-78279886D01*
X41997349Y-79873514D02*
X41997349Y-79173514D01*
X41997349Y-79506847D02*
X42397349Y-79506847D01*
X42397349Y-79873514D02*
X42397349Y-79173514D01*
X42697349Y-79673514D02*
X43030682Y-79673514D01*
X42630682Y-79873514D02*
X42864016Y-79173514D01*
X42864016Y-79173514D02*
X43097349Y-79873514D01*
X43330682Y-79873514D02*
X43330682Y-79173514D01*
X43330682Y-79173514D02*
X43564016Y-79673514D01*
X43564016Y-79673514D02*
X43797349Y-79173514D01*
X43797349Y-79173514D02*
X43797349Y-79873514D01*
X44530682Y-79873514D02*
X44297349Y-79540181D01*
X44130682Y-79873514D02*
X44130682Y-79173514D01*
X44130682Y-79173514D02*
X44397349Y-79173514D01*
X44397349Y-79173514D02*
X44464016Y-79206847D01*
X44464016Y-79206847D02*
X44497349Y-79240181D01*
X44497349Y-79240181D02*
X44530682Y-79306847D01*
X44530682Y-79306847D02*
X44530682Y-79406847D01*
X44530682Y-79406847D02*
X44497349Y-79473514D01*
X44497349Y-79473514D02*
X44464016Y-79506847D01*
X44464016Y-79506847D02*
X44397349Y-79540181D01*
X44397349Y-79540181D02*
X44130682Y-79540181D01*
X45697349Y-79873514D02*
X45364015Y-79873514D01*
X45364015Y-79873514D02*
X45364015Y-79173514D01*
X46230682Y-79873514D02*
X46230682Y-79506847D01*
X46230682Y-79506847D02*
X46197349Y-79440181D01*
X46197349Y-79440181D02*
X46130682Y-79406847D01*
X46130682Y-79406847D02*
X45997349Y-79406847D01*
X45997349Y-79406847D02*
X45930682Y-79440181D01*
X46230682Y-79840181D02*
X46164016Y-79873514D01*
X46164016Y-79873514D02*
X45997349Y-79873514D01*
X45997349Y-79873514D02*
X45930682Y-79840181D01*
X45930682Y-79840181D02*
X45897349Y-79773514D01*
X45897349Y-79773514D02*
X45897349Y-79706847D01*
X45897349Y-79706847D02*
X45930682Y-79640181D01*
X45930682Y-79640181D02*
X45997349Y-79606847D01*
X45997349Y-79606847D02*
X46164016Y-79606847D01*
X46164016Y-79606847D02*
X46230682Y-79573514D01*
X46564015Y-79873514D02*
X46564015Y-79173514D01*
X46564015Y-79440181D02*
X46630682Y-79406847D01*
X46630682Y-79406847D02*
X46764015Y-79406847D01*
X46764015Y-79406847D02*
X46830682Y-79440181D01*
X46830682Y-79440181D02*
X46864015Y-79473514D01*
X46864015Y-79473514D02*
X46897349Y-79540181D01*
X46897349Y-79540181D02*
X46897349Y-79740181D01*
X46897349Y-79740181D02*
X46864015Y-79806847D01*
X46864015Y-79806847D02*
X46830682Y-79840181D01*
X46830682Y-79840181D02*
X46764015Y-79873514D01*
X46764015Y-79873514D02*
X46630682Y-79873514D01*
X46630682Y-79873514D02*
X46564015Y-79840181D01*
X47230682Y-79840181D02*
X47230682Y-79873514D01*
X47230682Y-79873514D02*
X47197348Y-79940181D01*
X47197348Y-79940181D02*
X47164015Y-79973514D01*
X48264014Y-79173514D02*
X48264014Y-79673514D01*
X48264014Y-79673514D02*
X48230681Y-79773514D01*
X48230681Y-79773514D02*
X48164014Y-79840181D01*
X48164014Y-79840181D02*
X48064014Y-79873514D01*
X48064014Y-79873514D02*
X47997348Y-79873514D01*
X48597347Y-79873514D02*
X48597347Y-79173514D01*
X48597347Y-79506847D02*
X48997347Y-79506847D01*
X48997347Y-79873514D02*
X48997347Y-79173514D01*
X49330680Y-79173514D02*
X49330680Y-79740181D01*
X49330680Y-79740181D02*
X49364014Y-79806847D01*
X49364014Y-79806847D02*
X49397347Y-79840181D01*
X49397347Y-79840181D02*
X49464014Y-79873514D01*
X49464014Y-79873514D02*
X49597347Y-79873514D01*
X49597347Y-79873514D02*
X49664014Y-79840181D01*
X49664014Y-79840181D02*
X49697347Y-79806847D01*
X49697347Y-79806847D02*
X49730680Y-79740181D01*
X49730680Y-79740181D02*
X49730680Y-79173514D01*
D12*
X31469314Y-51894891D02*
X31469314Y-52528198D01*
X31469314Y-52528198D02*
X31506568Y-52602704D01*
X31506568Y-52602704D02*
X31543821Y-52639958D01*
X31543821Y-52639958D02*
X31618328Y-52677211D01*
X31618328Y-52677211D02*
X31767341Y-52677211D01*
X31767341Y-52677211D02*
X31841848Y-52639958D01*
X31841848Y-52639958D02*
X31879101Y-52602704D01*
X31879101Y-52602704D02*
X31916354Y-52528198D01*
X31916354Y-52528198D02*
X31916354Y-51894891D01*
X32698674Y-52677211D02*
X32251634Y-52677211D01*
X32475154Y-52677211D02*
X32475154Y-51894891D01*
X32475154Y-51894891D02*
X32400647Y-52006651D01*
X32400647Y-52006651D02*
X32326141Y-52081158D01*
X32326141Y-52081158D02*
X32251634Y-52118411D01*
D11*
X38020666Y-81136820D02*
X38020666Y-81851105D01*
X38020666Y-81851105D02*
X37973047Y-81993962D01*
X37973047Y-81993962D02*
X37877809Y-82089201D01*
X37877809Y-82089201D02*
X37734952Y-82136820D01*
X37734952Y-82136820D02*
X37639714Y-82136820D01*
X38973047Y-81136820D02*
X38496857Y-81136820D01*
X38496857Y-81136820D02*
X38449238Y-81613010D01*
X38449238Y-81613010D02*
X38496857Y-81565391D01*
X38496857Y-81565391D02*
X38592095Y-81517772D01*
X38592095Y-81517772D02*
X38830190Y-81517772D01*
X38830190Y-81517772D02*
X38925428Y-81565391D01*
X38925428Y-81565391D02*
X38973047Y-81613010D01*
X38973047Y-81613010D02*
X39020666Y-81708248D01*
X39020666Y-81708248D02*
X39020666Y-81946343D01*
X39020666Y-81946343D02*
X38973047Y-82041581D01*
X38973047Y-82041581D02*
X38925428Y-82089201D01*
X38925428Y-82089201D02*
X38830190Y-82136820D01*
X38830190Y-82136820D02*
X38592095Y-82136820D01*
X38592095Y-82136820D02*
X38496857Y-82089201D01*
X38496857Y-82089201D02*
X38449238Y-82041581D01*
X49984819Y-76366666D02*
X49508628Y-76699999D01*
X49984819Y-76938094D02*
X48984819Y-76938094D01*
X48984819Y-76938094D02*
X48984819Y-76557142D01*
X48984819Y-76557142D02*
X49032438Y-76461904D01*
X49032438Y-76461904D02*
X49080057Y-76414285D01*
X49080057Y-76414285D02*
X49175295Y-76366666D01*
X49175295Y-76366666D02*
X49318152Y-76366666D01*
X49318152Y-76366666D02*
X49413390Y-76414285D01*
X49413390Y-76414285D02*
X49461009Y-76461904D01*
X49461009Y-76461904D02*
X49508628Y-76557142D01*
X49508628Y-76557142D02*
X49508628Y-76938094D01*
X48984819Y-75461904D02*
X48984819Y-75938094D01*
X48984819Y-75938094D02*
X49461009Y-75985713D01*
X49461009Y-75985713D02*
X49413390Y-75938094D01*
X49413390Y-75938094D02*
X49365771Y-75842856D01*
X49365771Y-75842856D02*
X49365771Y-75604761D01*
X49365771Y-75604761D02*
X49413390Y-75509523D01*
X49413390Y-75509523D02*
X49461009Y-75461904D01*
X49461009Y-75461904D02*
X49556247Y-75414285D01*
X49556247Y-75414285D02*
X49794342Y-75414285D01*
X49794342Y-75414285D02*
X49889580Y-75461904D01*
X49889580Y-75461904D02*
X49937200Y-75509523D01*
X49937200Y-75509523D02*
X49984819Y-75604761D01*
X49984819Y-75604761D02*
X49984819Y-75842856D01*
X49984819Y-75842856D02*
X49937200Y-75938094D01*
X49937200Y-75938094D02*
X49889580Y-75985713D01*
X38554819Y-76366666D02*
X38078628Y-76699999D01*
X38554819Y-76938094D02*
X37554819Y-76938094D01*
X37554819Y-76938094D02*
X37554819Y-76557142D01*
X37554819Y-76557142D02*
X37602438Y-76461904D01*
X37602438Y-76461904D02*
X37650057Y-76414285D01*
X37650057Y-76414285D02*
X37745295Y-76366666D01*
X37745295Y-76366666D02*
X37888152Y-76366666D01*
X37888152Y-76366666D02*
X37983390Y-76414285D01*
X37983390Y-76414285D02*
X38031009Y-76461904D01*
X38031009Y-76461904D02*
X38078628Y-76557142D01*
X38078628Y-76557142D02*
X38078628Y-76938094D01*
X37554819Y-75509523D02*
X37554819Y-75699999D01*
X37554819Y-75699999D02*
X37602438Y-75795237D01*
X37602438Y-75795237D02*
X37650057Y-75842856D01*
X37650057Y-75842856D02*
X37792914Y-75938094D01*
X37792914Y-75938094D02*
X37983390Y-75985713D01*
X37983390Y-75985713D02*
X38364342Y-75985713D01*
X38364342Y-75985713D02*
X38459580Y-75938094D01*
X38459580Y-75938094D02*
X38507200Y-75890475D01*
X38507200Y-75890475D02*
X38554819Y-75795237D01*
X38554819Y-75795237D02*
X38554819Y-75604761D01*
X38554819Y-75604761D02*
X38507200Y-75509523D01*
X38507200Y-75509523D02*
X38459580Y-75461904D01*
X38459580Y-75461904D02*
X38364342Y-75414285D01*
X38364342Y-75414285D02*
X38126247Y-75414285D01*
X38126247Y-75414285D02*
X38031009Y-75461904D01*
X38031009Y-75461904D02*
X37983390Y-75509523D01*
X37983390Y-75509523D02*
X37935771Y-75604761D01*
X37935771Y-75604761D02*
X37935771Y-75795237D01*
X37935771Y-75795237D02*
X37983390Y-75890475D01*
X37983390Y-75890475D02*
X38031009Y-75938094D01*
X38031009Y-75938094D02*
X38126247Y-75985713D01*
X47926666Y-81120320D02*
X47926666Y-81834605D01*
X47926666Y-81834605D02*
X47879047Y-81977462D01*
X47879047Y-81977462D02*
X47783809Y-82072701D01*
X47783809Y-82072701D02*
X47640952Y-82120320D01*
X47640952Y-82120320D02*
X47545714Y-82120320D01*
X48831428Y-81120320D02*
X48640952Y-81120320D01*
X48640952Y-81120320D02*
X48545714Y-81167939D01*
X48545714Y-81167939D02*
X48498095Y-81215558D01*
X48498095Y-81215558D02*
X48402857Y-81358415D01*
X48402857Y-81358415D02*
X48355238Y-81548891D01*
X48355238Y-81548891D02*
X48355238Y-81929843D01*
X48355238Y-81929843D02*
X48402857Y-82025081D01*
X48402857Y-82025081D02*
X48450476Y-82072701D01*
X48450476Y-82072701D02*
X48545714Y-82120320D01*
X48545714Y-82120320D02*
X48736190Y-82120320D01*
X48736190Y-82120320D02*
X48831428Y-82072701D01*
X48831428Y-82072701D02*
X48879047Y-82025081D01*
X48879047Y-82025081D02*
X48926666Y-81929843D01*
X48926666Y-81929843D02*
X48926666Y-81691748D01*
X48926666Y-81691748D02*
X48879047Y-81596510D01*
X48879047Y-81596510D02*
X48831428Y-81548891D01*
X48831428Y-81548891D02*
X48736190Y-81501272D01*
X48736190Y-81501272D02*
X48545714Y-81501272D01*
X48545714Y-81501272D02*
X48450476Y-81548891D01*
X48450476Y-81548891D02*
X48402857Y-81596510D01*
X48402857Y-81596510D02*
X48355238Y-81691748D01*
D13*
%TO.C,U1*%
X31316500Y-72838500D02*
X31316500Y-55693500D01*
X33221500Y-74743500D02*
X47191500Y-74743500D01*
D14*
X35711500Y-53788500D02*
X35715228Y-52778228D01*
X36215228Y-52278500D02*
X44210500Y-52278500D01*
X44710500Y-52778500D02*
X44710500Y-53788500D01*
D13*
X47191500Y-53788500D02*
X33221500Y-53788500D01*
X49096500Y-72838500D02*
X49096500Y-55693500D01*
X31316500Y-55689500D02*
G75*
G02*
X33221500Y-53784500I1905001J-1D01*
G01*
X33221500Y-74743500D02*
G75*
G02*
X31316500Y-72838500I1J1905001D01*
G01*
D14*
X35715228Y-52778228D02*
G75*
G02*
X36215228Y-52278501I500018J-291D01*
G01*
X44210500Y-52278500D02*
G75*
G02*
X44710494Y-52778500I-6J-500000D01*
G01*
D13*
X47191500Y-53788500D02*
G75*
G02*
X49096494Y-55693500I-6J-1905000D01*
G01*
X49096500Y-72838500D02*
G75*
G02*
X47191500Y-74743506I-1905006J0D01*
G01*
D15*
X31358500Y-54204500D02*
G75*
G02*
X30854500Y-54204500I-252000J0D01*
G01*
X30854500Y-54204500D02*
G75*
G02*
X31358500Y-54204500I252000J0D01*
G01*
X32575500Y-54927500D02*
G75*
G02*
X32071500Y-54927500I-252000J0D01*
G01*
X32071500Y-54927500D02*
G75*
G02*
X32575500Y-54927500I252000J0D01*
G01*
D16*
%TO.C,J5*%
X31813500Y-82364001D02*
X31813500Y-82699860D01*
X31813500Y-86464140D02*
X31813500Y-86809001D01*
X31813500Y-86809001D02*
X39306500Y-86809001D01*
X34195860Y-82364001D02*
X31813500Y-82364001D01*
X39306500Y-82364001D02*
X36924140Y-82364001D01*
X39306500Y-82699860D02*
X39306500Y-82364001D01*
X39306500Y-86809001D02*
X39306500Y-86464140D01*
D17*
X31559500Y-81682001D02*
G75*
G02*
X30797500Y-81682001I-381000J0D01*
G01*
X30797500Y-81682001D02*
G75*
G02*
X31559500Y-81682001I381000J0D01*
G01*
D18*
%TO.C,R5*%
X45754936Y-75290000D02*
X47209064Y-75290000D01*
X45754936Y-77110000D02*
X47209064Y-77110000D01*
%TO.C,R6*%
X40166936Y-75290000D02*
X41621064Y-75290000D01*
X40166936Y-77110000D02*
X41621064Y-77110000D01*
D16*
%TO.C,J6*%
X40957500Y-82364001D02*
X40957500Y-82699860D01*
X40957500Y-86464140D02*
X40957500Y-86809001D01*
X40957500Y-86809001D02*
X48450500Y-86809001D01*
X43339860Y-82364001D02*
X40957500Y-82364001D01*
X48450500Y-82364001D02*
X46068140Y-82364001D01*
X48450500Y-82699860D02*
X48450500Y-82364001D01*
X48450500Y-86809001D02*
X48450500Y-86464140D01*
D17*
X40703500Y-81682001D02*
G75*
G02*
X39941500Y-81682001I-381000J0D01*
G01*
X39941500Y-81682001D02*
G75*
G02*
X40703500Y-81682001I381000J0D01*
G01*
%TO.C,J1*%
X45085000Y-68892900D02*
G75*
G02*
X44323000Y-68892900I-381000J0D01*
G01*
X44323000Y-68892900D02*
G75*
G02*
X45085000Y-68892900I381000J0D01*
G01*
%TO.C,J2*%
X45085000Y-54063900D02*
G75*
G02*
X44323000Y-54063900I-381000J0D01*
G01*
X44323000Y-54063900D02*
G75*
G02*
X45085000Y-54063900I381000J0D01*
G01*
%TD*%
M02*
