%TF.GenerationSoftware,KiCad,Pcbnew,7.0.9*%
%TF.CreationDate,2024-09-19T11:25:21-04:00*%
%TF.ProjectId,Module_PCB,4d6f6475-6c65-45f5-9043-422e6b696361,rev?*%
%TF.SameCoordinates,Original*%
%TF.FileFunction,Legend,Top*%
%TF.FilePolarity,Positive*%
%FSLAX46Y46*%
G04 Gerber Fmt 4.6, Leading zero omitted, Abs format (unit mm)*
G04 Created by KiCad (PCBNEW 7.0.9) date 2024-09-19 11:25:21*
%MOMM*%
%LPD*%
G01*
G04 APERTURE LIST*
%ADD10C,0.150000*%
%ADD11C,0.120000*%
%ADD12C,0.200000*%
%ADD13C,0.254000*%
%ADD14C,0.152400*%
%ADD15C,0.127000*%
%ADD16C,0.025400*%
%ADD17C,0.250000*%
G04 APERTURE END LIST*
D10*
X9261905Y-43554819D02*
X9261905Y-42554819D01*
X9261905Y-42554819D02*
X9500000Y-42554819D01*
X9500000Y-42554819D02*
X9642857Y-42602438D01*
X9642857Y-42602438D02*
X9738095Y-42697676D01*
X9738095Y-42697676D02*
X9785714Y-42792914D01*
X9785714Y-42792914D02*
X9833333Y-42983390D01*
X9833333Y-42983390D02*
X9833333Y-43126247D01*
X9833333Y-43126247D02*
X9785714Y-43316723D01*
X9785714Y-43316723D02*
X9738095Y-43411961D01*
X9738095Y-43411961D02*
X9642857Y-43507200D01*
X9642857Y-43507200D02*
X9500000Y-43554819D01*
X9500000Y-43554819D02*
X9261905Y-43554819D01*
X10785714Y-43554819D02*
X10214286Y-43554819D01*
X10500000Y-43554819D02*
X10500000Y-42554819D01*
X10500000Y-42554819D02*
X10404762Y-42697676D01*
X10404762Y-42697676D02*
X10309524Y-42792914D01*
X10309524Y-42792914D02*
X10214286Y-42840533D01*
X18416666Y-39454819D02*
X18416666Y-40169104D01*
X18416666Y-40169104D02*
X18369047Y-40311961D01*
X18369047Y-40311961D02*
X18273809Y-40407200D01*
X18273809Y-40407200D02*
X18130952Y-40454819D01*
X18130952Y-40454819D02*
X18035714Y-40454819D01*
X19416666Y-40454819D02*
X18845238Y-40454819D01*
X19130952Y-40454819D02*
X19130952Y-39454819D01*
X19130952Y-39454819D02*
X19035714Y-39597676D01*
X19035714Y-39597676D02*
X18940476Y-39692914D01*
X18940476Y-39692914D02*
X18845238Y-39740533D01*
X1204761Y-43350057D02*
X1109523Y-43302438D01*
X1109523Y-43302438D02*
X1014285Y-43207200D01*
X1014285Y-43207200D02*
X871428Y-43064342D01*
X871428Y-43064342D02*
X776190Y-43016723D01*
X776190Y-43016723D02*
X680952Y-43016723D01*
X728571Y-43254819D02*
X633333Y-43207200D01*
X633333Y-43207200D02*
X538095Y-43111961D01*
X538095Y-43111961D02*
X490476Y-42921485D01*
X490476Y-42921485D02*
X490476Y-42588152D01*
X490476Y-42588152D02*
X538095Y-42397676D01*
X538095Y-42397676D02*
X633333Y-42302438D01*
X633333Y-42302438D02*
X728571Y-42254819D01*
X728571Y-42254819D02*
X919047Y-42254819D01*
X919047Y-42254819D02*
X1014285Y-42302438D01*
X1014285Y-42302438D02*
X1109523Y-42397676D01*
X1109523Y-42397676D02*
X1157142Y-42588152D01*
X1157142Y-42588152D02*
X1157142Y-42921485D01*
X1157142Y-42921485D02*
X1109523Y-43111961D01*
X1109523Y-43111961D02*
X1014285Y-43207200D01*
X1014285Y-43207200D02*
X919047Y-43254819D01*
X919047Y-43254819D02*
X728571Y-43254819D01*
X2109523Y-43254819D02*
X1538095Y-43254819D01*
X1823809Y-43254819D02*
X1823809Y-42254819D01*
X1823809Y-42254819D02*
X1728571Y-42397676D01*
X1728571Y-42397676D02*
X1633333Y-42492914D01*
X1633333Y-42492914D02*
X1538095Y-42540533D01*
X5849819Y-52833333D02*
X6564104Y-52833333D01*
X6564104Y-52833333D02*
X6706961Y-52880952D01*
X6706961Y-52880952D02*
X6802200Y-52976190D01*
X6802200Y-52976190D02*
X6849819Y-53119047D01*
X6849819Y-53119047D02*
X6849819Y-53214285D01*
X5849819Y-52452380D02*
X5849819Y-51833333D01*
X5849819Y-51833333D02*
X6230771Y-52166666D01*
X6230771Y-52166666D02*
X6230771Y-52023809D01*
X6230771Y-52023809D02*
X6278390Y-51928571D01*
X6278390Y-51928571D02*
X6326009Y-51880952D01*
X6326009Y-51880952D02*
X6421247Y-51833333D01*
X6421247Y-51833333D02*
X6659342Y-51833333D01*
X6659342Y-51833333D02*
X6754580Y-51880952D01*
X6754580Y-51880952D02*
X6802200Y-51928571D01*
X6802200Y-51928571D02*
X6849819Y-52023809D01*
X6849819Y-52023809D02*
X6849819Y-52309523D01*
X6849819Y-52309523D02*
X6802200Y-52404761D01*
X6802200Y-52404761D02*
X6754580Y-52452380D01*
X17988095Y-48204819D02*
X17988095Y-49014342D01*
X17988095Y-49014342D02*
X18035714Y-49109580D01*
X18035714Y-49109580D02*
X18083333Y-49157200D01*
X18083333Y-49157200D02*
X18178571Y-49204819D01*
X18178571Y-49204819D02*
X18369047Y-49204819D01*
X18369047Y-49204819D02*
X18464285Y-49157200D01*
X18464285Y-49157200D02*
X18511904Y-49109580D01*
X18511904Y-49109580D02*
X18559523Y-49014342D01*
X18559523Y-49014342D02*
X18559523Y-48204819D01*
X18988095Y-48300057D02*
X19035714Y-48252438D01*
X19035714Y-48252438D02*
X19130952Y-48204819D01*
X19130952Y-48204819D02*
X19369047Y-48204819D01*
X19369047Y-48204819D02*
X19464285Y-48252438D01*
X19464285Y-48252438D02*
X19511904Y-48300057D01*
X19511904Y-48300057D02*
X19559523Y-48395295D01*
X19559523Y-48395295D02*
X19559523Y-48490533D01*
X19559523Y-48490533D02*
X19511904Y-48633390D01*
X19511904Y-48633390D02*
X18940476Y-49204819D01*
X18940476Y-49204819D02*
X19559523Y-49204819D01*
X13200000Y-42954819D02*
X13200000Y-43192914D01*
X12961905Y-43097676D02*
X13200000Y-43192914D01*
X13200000Y-43192914D02*
X13438095Y-43097676D01*
X13057143Y-43383390D02*
X13200000Y-43192914D01*
X13200000Y-43192914D02*
X13342857Y-43383390D01*
X9261905Y-47854819D02*
X9261905Y-46854819D01*
X9261905Y-46854819D02*
X9500000Y-46854819D01*
X9500000Y-46854819D02*
X9642857Y-46902438D01*
X9642857Y-46902438D02*
X9738095Y-46997676D01*
X9738095Y-46997676D02*
X9785714Y-47092914D01*
X9785714Y-47092914D02*
X9833333Y-47283390D01*
X9833333Y-47283390D02*
X9833333Y-47426247D01*
X9833333Y-47426247D02*
X9785714Y-47616723D01*
X9785714Y-47616723D02*
X9738095Y-47711961D01*
X9738095Y-47711961D02*
X9642857Y-47807200D01*
X9642857Y-47807200D02*
X9500000Y-47854819D01*
X9500000Y-47854819D02*
X9261905Y-47854819D01*
X10214286Y-46950057D02*
X10261905Y-46902438D01*
X10261905Y-46902438D02*
X10357143Y-46854819D01*
X10357143Y-46854819D02*
X10595238Y-46854819D01*
X10595238Y-46854819D02*
X10690476Y-46902438D01*
X10690476Y-46902438D02*
X10738095Y-46950057D01*
X10738095Y-46950057D02*
X10785714Y-47045295D01*
X10785714Y-47045295D02*
X10785714Y-47140533D01*
X10785714Y-47140533D02*
X10738095Y-47283390D01*
X10738095Y-47283390D02*
X10166667Y-47854819D01*
X10166667Y-47854819D02*
X10785714Y-47854819D01*
X9238095Y-13994819D02*
X9238095Y-14804342D01*
X9238095Y-14804342D02*
X9285714Y-14899580D01*
X9285714Y-14899580D02*
X9333333Y-14947200D01*
X9333333Y-14947200D02*
X9428571Y-14994819D01*
X9428571Y-14994819D02*
X9619047Y-14994819D01*
X9619047Y-14994819D02*
X9714285Y-14947200D01*
X9714285Y-14947200D02*
X9761904Y-14899580D01*
X9761904Y-14899580D02*
X9809523Y-14804342D01*
X9809523Y-14804342D02*
X9809523Y-13994819D01*
X10809523Y-14994819D02*
X10238095Y-14994819D01*
X10523809Y-14994819D02*
X10523809Y-13994819D01*
X10523809Y-13994819D02*
X10428571Y-14137676D01*
X10428571Y-14137676D02*
X10333333Y-14232914D01*
X10333333Y-14232914D02*
X10238095Y-14280533D01*
X5619047Y-10907200D02*
X5761904Y-10954819D01*
X5761904Y-10954819D02*
X5999999Y-10954819D01*
X5999999Y-10954819D02*
X6095237Y-10907200D01*
X6095237Y-10907200D02*
X6142856Y-10859580D01*
X6142856Y-10859580D02*
X6190475Y-10764342D01*
X6190475Y-10764342D02*
X6190475Y-10669104D01*
X6190475Y-10669104D02*
X6142856Y-10573866D01*
X6142856Y-10573866D02*
X6095237Y-10526247D01*
X6095237Y-10526247D02*
X5999999Y-10478628D01*
X5999999Y-10478628D02*
X5809523Y-10431009D01*
X5809523Y-10431009D02*
X5714285Y-10383390D01*
X5714285Y-10383390D02*
X5666666Y-10335771D01*
X5666666Y-10335771D02*
X5619047Y-10240533D01*
X5619047Y-10240533D02*
X5619047Y-10145295D01*
X5619047Y-10145295D02*
X5666666Y-10050057D01*
X5666666Y-10050057D02*
X5714285Y-10002438D01*
X5714285Y-10002438D02*
X5809523Y-9954819D01*
X5809523Y-9954819D02*
X6047618Y-9954819D01*
X6047618Y-9954819D02*
X6190475Y-10002438D01*
X6999999Y-10907200D02*
X6904761Y-10954819D01*
X6904761Y-10954819D02*
X6714285Y-10954819D01*
X6714285Y-10954819D02*
X6619047Y-10907200D01*
X6619047Y-10907200D02*
X6571428Y-10811961D01*
X6571428Y-10811961D02*
X6571428Y-10431009D01*
X6571428Y-10431009D02*
X6619047Y-10335771D01*
X6619047Y-10335771D02*
X6714285Y-10288152D01*
X6714285Y-10288152D02*
X6904761Y-10288152D01*
X6904761Y-10288152D02*
X6999999Y-10335771D01*
X6999999Y-10335771D02*
X7047618Y-10431009D01*
X7047618Y-10431009D02*
X7047618Y-10526247D01*
X7047618Y-10526247D02*
X6571428Y-10621485D01*
X7857142Y-10907200D02*
X7761904Y-10954819D01*
X7761904Y-10954819D02*
X7571428Y-10954819D01*
X7571428Y-10954819D02*
X7476190Y-10907200D01*
X7476190Y-10907200D02*
X7428571Y-10811961D01*
X7428571Y-10811961D02*
X7428571Y-10431009D01*
X7428571Y-10431009D02*
X7476190Y-10335771D01*
X7476190Y-10335771D02*
X7571428Y-10288152D01*
X7571428Y-10288152D02*
X7761904Y-10288152D01*
X7761904Y-10288152D02*
X7857142Y-10335771D01*
X7857142Y-10335771D02*
X7904761Y-10431009D01*
X7904761Y-10431009D02*
X7904761Y-10526247D01*
X7904761Y-10526247D02*
X7428571Y-10621485D01*
X8714285Y-10907200D02*
X8619047Y-10954819D01*
X8619047Y-10954819D02*
X8428571Y-10954819D01*
X8428571Y-10954819D02*
X8333333Y-10907200D01*
X8333333Y-10907200D02*
X8285714Y-10811961D01*
X8285714Y-10811961D02*
X8285714Y-10431009D01*
X8285714Y-10431009D02*
X8333333Y-10335771D01*
X8333333Y-10335771D02*
X8428571Y-10288152D01*
X8428571Y-10288152D02*
X8619047Y-10288152D01*
X8619047Y-10288152D02*
X8714285Y-10335771D01*
X8714285Y-10335771D02*
X8761904Y-10431009D01*
X8761904Y-10431009D02*
X8761904Y-10526247D01*
X8761904Y-10526247D02*
X8285714Y-10621485D01*
X9619047Y-10954819D02*
X9619047Y-9954819D01*
X9619047Y-10907200D02*
X9523809Y-10954819D01*
X9523809Y-10954819D02*
X9333333Y-10954819D01*
X9333333Y-10954819D02*
X9238095Y-10907200D01*
X9238095Y-10907200D02*
X9190476Y-10859580D01*
X9190476Y-10859580D02*
X9142857Y-10764342D01*
X9142857Y-10764342D02*
X9142857Y-10478628D01*
X9142857Y-10478628D02*
X9190476Y-10383390D01*
X9190476Y-10383390D02*
X9238095Y-10335771D01*
X9238095Y-10335771D02*
X9333333Y-10288152D01*
X9333333Y-10288152D02*
X9523809Y-10288152D01*
X9523809Y-10288152D02*
X9619047Y-10335771D01*
X10047619Y-10907200D02*
X10190476Y-10954819D01*
X10190476Y-10954819D02*
X10428571Y-10954819D01*
X10428571Y-10954819D02*
X10523809Y-10907200D01*
X10523809Y-10907200D02*
X10571428Y-10859580D01*
X10571428Y-10859580D02*
X10619047Y-10764342D01*
X10619047Y-10764342D02*
X10619047Y-10669104D01*
X10619047Y-10669104D02*
X10571428Y-10573866D01*
X10571428Y-10573866D02*
X10523809Y-10526247D01*
X10523809Y-10526247D02*
X10428571Y-10478628D01*
X10428571Y-10478628D02*
X10238095Y-10431009D01*
X10238095Y-10431009D02*
X10142857Y-10383390D01*
X10142857Y-10383390D02*
X10095238Y-10335771D01*
X10095238Y-10335771D02*
X10047619Y-10240533D01*
X10047619Y-10240533D02*
X10047619Y-10145295D01*
X10047619Y-10145295D02*
X10095238Y-10050057D01*
X10095238Y-10050057D02*
X10142857Y-10002438D01*
X10142857Y-10002438D02*
X10238095Y-9954819D01*
X10238095Y-9954819D02*
X10476190Y-9954819D01*
X10476190Y-9954819D02*
X10619047Y-10002438D01*
X10904762Y-10288152D02*
X11285714Y-10288152D01*
X11047619Y-9954819D02*
X11047619Y-10811961D01*
X11047619Y-10811961D02*
X11095238Y-10907200D01*
X11095238Y-10907200D02*
X11190476Y-10954819D01*
X11190476Y-10954819D02*
X11285714Y-10954819D01*
X12047619Y-10288152D02*
X12047619Y-10954819D01*
X11619048Y-10288152D02*
X11619048Y-10811961D01*
X11619048Y-10811961D02*
X11666667Y-10907200D01*
X11666667Y-10907200D02*
X11761905Y-10954819D01*
X11761905Y-10954819D02*
X11904762Y-10954819D01*
X11904762Y-10954819D02*
X12000000Y-10907200D01*
X12000000Y-10907200D02*
X12047619Y-10859580D01*
X12952381Y-10954819D02*
X12952381Y-9954819D01*
X12952381Y-10907200D02*
X12857143Y-10954819D01*
X12857143Y-10954819D02*
X12666667Y-10954819D01*
X12666667Y-10954819D02*
X12571429Y-10907200D01*
X12571429Y-10907200D02*
X12523810Y-10859580D01*
X12523810Y-10859580D02*
X12476191Y-10764342D01*
X12476191Y-10764342D02*
X12476191Y-10478628D01*
X12476191Y-10478628D02*
X12523810Y-10383390D01*
X12523810Y-10383390D02*
X12571429Y-10335771D01*
X12571429Y-10335771D02*
X12666667Y-10288152D01*
X12666667Y-10288152D02*
X12857143Y-10288152D01*
X12857143Y-10288152D02*
X12952381Y-10335771D01*
X13428572Y-10954819D02*
X13428572Y-10288152D01*
X13428572Y-9954819D02*
X13380953Y-10002438D01*
X13380953Y-10002438D02*
X13428572Y-10050057D01*
X13428572Y-10050057D02*
X13476191Y-10002438D01*
X13476191Y-10002438D02*
X13428572Y-9954819D01*
X13428572Y-9954819D02*
X13428572Y-10050057D01*
X14047619Y-10954819D02*
X13952381Y-10907200D01*
X13952381Y-10907200D02*
X13904762Y-10859580D01*
X13904762Y-10859580D02*
X13857143Y-10764342D01*
X13857143Y-10764342D02*
X13857143Y-10478628D01*
X13857143Y-10478628D02*
X13904762Y-10383390D01*
X13904762Y-10383390D02*
X13952381Y-10335771D01*
X13952381Y-10335771D02*
X14047619Y-10288152D01*
X14047619Y-10288152D02*
X14190476Y-10288152D01*
X14190476Y-10288152D02*
X14285714Y-10335771D01*
X14285714Y-10335771D02*
X14333333Y-10383390D01*
X14333333Y-10383390D02*
X14380952Y-10478628D01*
X14380952Y-10478628D02*
X14380952Y-10764342D01*
X14380952Y-10764342D02*
X14333333Y-10859580D01*
X14333333Y-10859580D02*
X14285714Y-10907200D01*
X14285714Y-10907200D02*
X14190476Y-10954819D01*
X14190476Y-10954819D02*
X14047619Y-10954819D01*
X8523810Y-11954819D02*
X9190476Y-12954819D01*
X9190476Y-11954819D02*
X8523810Y-12954819D01*
X9571429Y-12954819D02*
X9571429Y-12288152D01*
X9571429Y-11954819D02*
X9523810Y-12002438D01*
X9523810Y-12002438D02*
X9571429Y-12050057D01*
X9571429Y-12050057D02*
X9619048Y-12002438D01*
X9619048Y-12002438D02*
X9571429Y-11954819D01*
X9571429Y-11954819D02*
X9571429Y-12050057D01*
X10476190Y-12954819D02*
X10476190Y-12431009D01*
X10476190Y-12431009D02*
X10428571Y-12335771D01*
X10428571Y-12335771D02*
X10333333Y-12288152D01*
X10333333Y-12288152D02*
X10142857Y-12288152D01*
X10142857Y-12288152D02*
X10047619Y-12335771D01*
X10476190Y-12907200D02*
X10380952Y-12954819D01*
X10380952Y-12954819D02*
X10142857Y-12954819D01*
X10142857Y-12954819D02*
X10047619Y-12907200D01*
X10047619Y-12907200D02*
X10000000Y-12811961D01*
X10000000Y-12811961D02*
X10000000Y-12716723D01*
X10000000Y-12716723D02*
X10047619Y-12621485D01*
X10047619Y-12621485D02*
X10142857Y-12573866D01*
X10142857Y-12573866D02*
X10380952Y-12573866D01*
X10380952Y-12573866D02*
X10476190Y-12526247D01*
X11095238Y-12954819D02*
X11000000Y-12907200D01*
X11000000Y-12907200D02*
X10952381Y-12859580D01*
X10952381Y-12859580D02*
X10904762Y-12764342D01*
X10904762Y-12764342D02*
X10904762Y-12478628D01*
X10904762Y-12478628D02*
X10952381Y-12383390D01*
X10952381Y-12383390D02*
X11000000Y-12335771D01*
X11000000Y-12335771D02*
X11095238Y-12288152D01*
X11095238Y-12288152D02*
X11238095Y-12288152D01*
X11238095Y-12288152D02*
X11333333Y-12335771D01*
X11333333Y-12335771D02*
X11380952Y-12383390D01*
X11380952Y-12383390D02*
X11428571Y-12478628D01*
X11428571Y-12478628D02*
X11428571Y-12764342D01*
X11428571Y-12764342D02*
X11380952Y-12859580D01*
X11380952Y-12859580D02*
X11333333Y-12907200D01*
X11333333Y-12907200D02*
X11238095Y-12954819D01*
X11238095Y-12954819D02*
X11095238Y-12954819D01*
X916666Y-39454819D02*
X916666Y-40169104D01*
X916666Y-40169104D02*
X869047Y-40311961D01*
X869047Y-40311961D02*
X773809Y-40407200D01*
X773809Y-40407200D02*
X630952Y-40454819D01*
X630952Y-40454819D02*
X535714Y-40454819D01*
X1345238Y-39550057D02*
X1392857Y-39502438D01*
X1392857Y-39502438D02*
X1488095Y-39454819D01*
X1488095Y-39454819D02*
X1726190Y-39454819D01*
X1726190Y-39454819D02*
X1821428Y-39502438D01*
X1821428Y-39502438D02*
X1869047Y-39550057D01*
X1869047Y-39550057D02*
X1916666Y-39645295D01*
X1916666Y-39645295D02*
X1916666Y-39740533D01*
X1916666Y-39740533D02*
X1869047Y-39883390D01*
X1869047Y-39883390D02*
X1297619Y-40454819D01*
X1297619Y-40454819D02*
X1916666Y-40454819D01*
D11*
%TO.C,D1*%
X13740000Y-40750000D02*
X12720000Y-40750000D01*
X12720000Y-42220000D02*
X12720000Y-39280000D01*
X12720000Y-39280000D02*
X7280000Y-39280000D01*
X11940000Y-42220000D02*
X11940000Y-39280000D01*
X11820000Y-42220000D02*
X11820000Y-39280000D01*
X11700000Y-42220000D02*
X11700000Y-39280000D01*
X7280000Y-42220000D02*
X12720000Y-42220000D01*
X7280000Y-39280000D02*
X7280000Y-42220000D01*
X6260000Y-40750000D02*
X7280000Y-40750000D01*
D12*
%TO.C,J1*%
X19925000Y-23105000D02*
X19925000Y-38895000D01*
X11425000Y-23105000D02*
X19925000Y-23105000D01*
X11425000Y-23105000D02*
X11425000Y-32270000D01*
X11425000Y-32270000D02*
X11425000Y-38895000D01*
X10253000Y-32270000D02*
X11425000Y-32270000D01*
X11425000Y-38895000D02*
X19925000Y-38895000D01*
D13*
X8799609Y-23507000D02*
G75*
G03*
X8799609Y-23507000I-179609J0D01*
G01*
D11*
%TO.C,Q1*%
X1770000Y-47450000D02*
X5620000Y-47450000D01*
X3710000Y-43150001D02*
G75*
G03*
X1353601Y-44651193I0J-2599999D01*
G01*
X1387369Y-46872045D02*
G75*
G03*
X1770000Y-47450000I2322631J1122045D01*
G01*
X6066400Y-44651193D02*
G75*
G03*
X3710000Y-43150000I-2356400J-1098807D01*
G01*
X5619999Y-47449999D02*
G75*
G03*
X6012382Y-46862264I-1909999J1699999D01*
G01*
%TO.C,J3*%
X7395000Y-54580000D02*
X7395000Y-53250000D01*
X8725000Y-54580000D02*
X7395000Y-54580000D01*
X9995000Y-54580000D02*
X12595000Y-54580000D01*
X9995000Y-54580000D02*
X9995000Y-51920000D01*
X12595000Y-54580000D02*
X12595000Y-51920000D01*
X9995000Y-51920000D02*
X12595000Y-51920000D01*
D14*
%TO.C,U2*%
X12629100Y-47878900D02*
X16870900Y-47878900D01*
X16870900Y-42621100D02*
X12629100Y-42621100D01*
D11*
%TO.C,D2*%
X13740000Y-49750000D02*
X12720000Y-49750000D01*
X12720000Y-51220000D02*
X12720000Y-48280000D01*
X12720000Y-48280000D02*
X7280000Y-48280000D01*
X11940000Y-51220000D02*
X11940000Y-48280000D01*
X11820000Y-51220000D02*
X11820000Y-48280000D01*
X11700000Y-51220000D02*
X11700000Y-48280000D01*
X7280000Y-51220000D02*
X12720000Y-51220000D01*
X7280000Y-48280000D02*
X7280000Y-51220000D01*
X6260000Y-49750000D02*
X7280000Y-49750000D01*
D15*
%TO.C,U1*%
X1100000Y-3500000D02*
X1100000Y-20500000D01*
X3100000Y-22500000D02*
X16900000Y-22500000D01*
X5500000Y-75970D02*
X14500000Y-75970D01*
X5500000Y-7429270D02*
X5500000Y-75970D01*
X14500000Y-75970D02*
X14500000Y-7429270D01*
X14500000Y-7429270D02*
X5500000Y-7429270D01*
X16900000Y-1500910D02*
X3100000Y-1500910D01*
X18900000Y-20500000D02*
X18900000Y-3500000D01*
D11*
X3100000Y-1500001D02*
G75*
G03*
X1100001Y-3500000I44612J-2044611D01*
G01*
X1100001Y-20500000D02*
G75*
G03*
X3100000Y-22499999I2044856J44857D01*
G01*
X18899999Y-3500000D02*
G75*
G03*
X16900000Y-1500001I-2044609J-44610D01*
G01*
X16900000Y-22500000D02*
G75*
G03*
X18900000Y-20500000I0J2000000D01*
G01*
D13*
X-873000Y-3200000D02*
G75*
G03*
X-873000Y-3200000I-127000J0D01*
G01*
D16*
X1112285Y-3438295D02*
X1115333Y-3389527D01*
X1119397Y-3340506D01*
X1112285Y-3438295D01*
X18887713Y-20570850D02*
X18884665Y-20619618D01*
X18880601Y-20668639D01*
X18875268Y-20717407D01*
X18868664Y-20766175D01*
X18861044Y-20814690D01*
X18852153Y-20862950D01*
X18842248Y-20910955D01*
X18889492Y-20521574D01*
X18887713Y-20570850D01*
D12*
%TO.C,J2*%
X100000Y-38620000D02*
X100000Y-29510000D01*
X2600000Y-38620000D02*
X100000Y-38620000D01*
X2600000Y-38620000D02*
X2600000Y-23380000D01*
X-5080000Y-37570000D02*
X-5300000Y-37347140D01*
X100000Y-37570000D02*
X-5080000Y-37570000D01*
X-5300000Y-37347140D02*
X-5080000Y-37130000D01*
X100000Y-37130000D02*
X-5080000Y-37130000D01*
X-5080000Y-35030000D02*
X-5300000Y-34807140D01*
X100000Y-35030000D02*
X-5080000Y-35030000D01*
X-5300000Y-34807140D02*
X-5080000Y-34590000D01*
X100000Y-34590000D02*
X-5080000Y-34590000D01*
X-5080000Y-32490000D02*
X-5300000Y-32267140D01*
X100000Y-32490000D02*
X-5080000Y-32490000D01*
X-5300000Y-32267140D02*
X-5080000Y-32050000D01*
X100000Y-32050000D02*
X-5080000Y-32050000D01*
X-5080000Y-29950000D02*
X-5300000Y-29727140D01*
X100000Y-29950000D02*
X-5080000Y-29950000D01*
X-5300000Y-29727140D02*
X-5080000Y-29510000D01*
X100000Y-29510000D02*
X-5080000Y-29510000D01*
X100000Y-29510000D02*
X100000Y-27410000D01*
X-5080000Y-27410000D02*
X-5300000Y-27187140D01*
X100000Y-27410000D02*
X-5080000Y-27410000D01*
X100000Y-27410000D02*
X100000Y-26970000D01*
X-5300000Y-27187140D02*
X-5080000Y-26970000D01*
X100000Y-26970000D02*
X-5080000Y-26970000D01*
X100000Y-26970000D02*
X100000Y-24870000D01*
X-5080000Y-24870000D02*
X-5300000Y-24647140D01*
X100000Y-24870000D02*
X-5080000Y-24870000D01*
X100000Y-24870000D02*
X100000Y-24430000D01*
X-5300000Y-24647140D02*
X-5080000Y-24430000D01*
X100000Y-24430000D02*
X-5080000Y-24430000D01*
X100000Y-24430000D02*
X100000Y-23380000D01*
X2600000Y-23380000D02*
X100000Y-23380000D01*
D17*
X4970000Y-38420000D02*
G75*
G03*
X4970000Y-38420000I-120000J0D01*
G01*
%TD*%
M02*
