%TF.GenerationSoftware,KiCad,Pcbnew,7.0.9*%
%TF.CreationDate,2024-09-19T11:25:21-04:00*%
%TF.ProjectId,Module_PCB,4d6f6475-6c65-45f5-9043-422e6b696361,rev?*%
%TF.SameCoordinates,Original*%
%TF.FileFunction,Copper,L2,Bot*%
%TF.FilePolarity,Positive*%
%FSLAX46Y46*%
G04 Gerber Fmt 4.6, Leading zero omitted, Abs format (unit mm)*
G04 Created by KiCad (PCBNEW 7.0.9) date 2024-09-19 11:25:21*
%MOMM*%
%LPD*%
G01*
G04 APERTURE LIST*
%TA.AperFunction,ComponentPad*%
%ADD10R,2.200000X2.200000*%
%TD*%
%TA.AperFunction,ComponentPad*%
%ADD11O,2.200000X2.200000*%
%TD*%
%TA.AperFunction,ComponentPad*%
%ADD12R,1.500000X1.500000*%
%TD*%
%TA.AperFunction,ComponentPad*%
%ADD13C,1.500000*%
%TD*%
%TA.AperFunction,ComponentPad*%
%ADD14R,1.700000X1.700000*%
%TD*%
%TA.AperFunction,ComponentPad*%
%ADD15O,1.700000X1.700000*%
%TD*%
%TA.AperFunction,ComponentPad*%
%ADD16C,1.700000*%
%TD*%
%TA.AperFunction,ViaPad*%
%ADD17C,0.800000*%
%TD*%
%TA.AperFunction,Conductor*%
%ADD18C,0.500000*%
%TD*%
%TA.AperFunction,Conductor*%
%ADD19C,1.000000*%
%TD*%
%TA.AperFunction,Conductor*%
%ADD20C,0.250000*%
%TD*%
G04 APERTURE END LIST*
D10*
%TO.P,D1,1,K*%
%TO.N,Net-(D1-K)*%
X15080000Y-40750000D03*
D11*
%TO.P,D1,2,A*%
%TO.N,5V*%
X4920000Y-40750000D03*
%TD*%
D12*
%TO.P,Q1,1,E*%
%TO.N,Net-(D2-K)*%
X1170000Y-45750000D03*
D13*
%TO.P,Q1,2,C*%
%TO.N,5V*%
X3710000Y-45750000D03*
%TO.P,Q1,3,B*%
%TO.N,VALVE*%
X6250000Y-45750000D03*
%TD*%
D14*
%TO.P,J3,1,Pin_1*%
%TO.N,GND*%
X8725000Y-53250000D03*
D15*
%TO.P,J3,2,Pin_2*%
%TO.N,Net-(D2-K)*%
X11265000Y-53250000D03*
%TD*%
D10*
%TO.P,D2,1,K*%
%TO.N,Net-(D2-K)*%
X15080000Y-49750000D03*
D11*
%TO.P,D2,2,A*%
%TO.N,GND*%
X4920000Y-49750000D03*
%TD*%
D14*
%TO.P,U1,1,PA02_A0_D0*%
%TO.N,unconnected-(U1-PA02_A0_D0-Pad1)*%
X2375000Y-4380000D03*
D16*
%TO.P,U1,2,PA4_A1_D1*%
%TO.N,unconnected-(U1-PA4_A1_D1-Pad2)*%
X2375000Y-6920000D03*
%TO.P,U1,3,PA10_A2_D2*%
%TO.N,unconnected-(U1-PA10_A2_D2-Pad3)*%
X2375000Y-9460000D03*
%TO.P,U1,4,PA11_A3_D3*%
%TO.N,VALVE*%
X2375000Y-12000000D03*
%TO.P,U1,5,PA8_A4_D4_SDA*%
%TO.N,SDA*%
X2375000Y-14540000D03*
%TO.P,U1,6,PA9_A5_D5_SCL*%
%TO.N,SCL*%
X2375000Y-17080000D03*
%TO.P,U1,7,PB08_A6_D6_TX*%
%TO.N,unconnected-(U1-PB08_A6_D6_TX-Pad7)*%
X2375000Y-19620000D03*
%TO.P,U1,8,PB09_A7_D7_RX*%
%TO.N,unconnected-(U1-PB09_A7_D7_RX-Pad8)*%
X17625000Y-19620000D03*
%TO.P,U1,9,PA7_A8_D8_SCK*%
%TO.N,unconnected-(U1-PA7_A8_D8_SCK-Pad9)*%
X17625000Y-17080000D03*
%TO.P,U1,10,PA5_A9_D9_MISO*%
%TO.N,D9_BUFFERED*%
X17625000Y-14540000D03*
%TO.P,U1,11,PA6_A10_D10_MOSI*%
%TO.N,D10_BUFFERED*%
X17625000Y-12000000D03*
%TO.P,U1,12,3V3*%
%TO.N,unconnected-(U1-3V3-Pad12)*%
X17625000Y-9460000D03*
%TO.P,U1,13,GND*%
%TO.N,GND*%
X17625000Y-6920000D03*
%TO.P,U1,14,5V*%
%TO.N,Net-(D1-K)*%
X17625000Y-4380000D03*
%TD*%
D17*
%TO.N,5V*%
X14750000Y-45000000D03*
%TO.N,GND*%
X5000000Y-2500000D03*
X17500000Y-50000000D03*
X12500000Y-12500000D03*
X17500000Y-22500000D03*
X12500000Y-22500000D03*
X15000000Y-2500000D03*
X17500000Y-32500000D03*
X7500000Y-22500000D03*
X2500000Y-49750000D03*
X7000000Y-42500000D03*
X5000000Y-12500000D03*
X12500000Y-32500000D03*
%TD*%
D18*
%TO.N,5V*%
X14750000Y-45000000D02*
X10500000Y-40750000D01*
X10500000Y-40750000D02*
X4920000Y-40750000D01*
D19*
%TO.N,Net-(D2-K)*%
X12830000Y-47500000D02*
X15080000Y-49750000D01*
X2920000Y-47500000D02*
X12830000Y-47500000D01*
X11580000Y-53250000D02*
X15080000Y-49750000D01*
D18*
X15080000Y-49750000D02*
X14765000Y-49750000D01*
D19*
X1170000Y-45750000D02*
X2920000Y-47500000D01*
X11265000Y-53250000D02*
X11580000Y-53250000D01*
D20*
%TO.N,VALVE*%
X2500000Y-22500000D02*
X2500000Y-42000000D01*
X2500000Y-42000000D02*
X6250000Y-45750000D01*
X4500000Y-20500000D02*
X2500000Y-22500000D01*
X2375000Y-12000000D02*
X4500000Y-14125000D01*
X4500000Y-14125000D02*
X4500000Y-20500000D01*
%TD*%
%TA.AperFunction,Conductor*%
%TO.N,GND*%
G36*
X19942539Y-20185D02*
G01*
X19988294Y-72989D01*
X19999500Y-124500D01*
X19999500Y-54875500D01*
X19979815Y-54942539D01*
X19927011Y-54988294D01*
X19875500Y-54999500D01*
X124500Y-54999500D01*
X57461Y-54979815D01*
X11706Y-54927011D01*
X500Y-54875500D01*
X500Y-53000000D01*
X644341Y-53000000D01*
X664936Y-53235403D01*
X664938Y-53235413D01*
X726094Y-53463655D01*
X726096Y-53463659D01*
X726097Y-53463663D01*
X776031Y-53570746D01*
X825964Y-53677828D01*
X825965Y-53677830D01*
X961505Y-53871402D01*
X1128597Y-54038494D01*
X1322169Y-54174034D01*
X1322171Y-54174035D01*
X1536337Y-54273903D01*
X1764592Y-54335063D01*
X1941034Y-54350500D01*
X2058966Y-54350500D01*
X2235408Y-54335063D01*
X2463663Y-54273903D01*
X2677829Y-54174035D01*
X2871401Y-54038495D01*
X3038495Y-53871401D01*
X3174035Y-53677830D01*
X3273903Y-53463663D01*
X3335063Y-53235408D01*
X3355659Y-53000000D01*
X3335063Y-52764592D01*
X3273903Y-52536337D01*
X3174035Y-52322171D01*
X3174034Y-52322169D01*
X3038494Y-52128597D01*
X2871402Y-51961505D01*
X2677830Y-51825965D01*
X2677828Y-51825964D01*
X2570746Y-51776031D01*
X2463663Y-51726097D01*
X2463659Y-51726096D01*
X2463655Y-51726094D01*
X2235413Y-51664938D01*
X2235403Y-51664936D01*
X2058966Y-51649500D01*
X1941034Y-51649500D01*
X1764596Y-51664936D01*
X1764586Y-51664938D01*
X1536344Y-51726094D01*
X1536335Y-51726098D01*
X1322171Y-51825964D01*
X1322169Y-51825965D01*
X1128597Y-51961505D01*
X961506Y-52128597D01*
X961501Y-52128604D01*
X825967Y-52322165D01*
X825965Y-52322169D01*
X726098Y-52536335D01*
X726094Y-52536344D01*
X664938Y-52764586D01*
X664936Y-52764596D01*
X644341Y-52999999D01*
X644341Y-53000000D01*
X500Y-53000000D01*
X500Y-47056045D01*
X20185Y-46989006D01*
X72989Y-46943251D01*
X142147Y-46933307D01*
X168804Y-46942184D01*
X169359Y-46940697D01*
X234677Y-46965058D01*
X312517Y-46994091D01*
X372127Y-47000500D01*
X954216Y-47000499D01*
X1021255Y-47020183D01*
X1041897Y-47036818D01*
X2203566Y-48198487D01*
X2264938Y-48263050D01*
X2264941Y-48263053D01*
X2315281Y-48298092D01*
X2319043Y-48300928D01*
X2366587Y-48339694D01*
X2366590Y-48339695D01*
X2366593Y-48339698D01*
X2397045Y-48355604D01*
X2403758Y-48359672D01*
X2431951Y-48379295D01*
X2488329Y-48403489D01*
X2492578Y-48405507D01*
X2546951Y-48433909D01*
X2574489Y-48441788D01*
X2579974Y-48443358D01*
X2587368Y-48445990D01*
X2618942Y-48459540D01*
X2618945Y-48459540D01*
X2618946Y-48459541D01*
X2679022Y-48471887D01*
X2683600Y-48473010D01*
X2697501Y-48476987D01*
X2742582Y-48489887D01*
X2776839Y-48492495D01*
X2784614Y-48493586D01*
X2818255Y-48500500D01*
X2818259Y-48500500D01*
X2879599Y-48500500D01*
X2884305Y-48500678D01*
X2919063Y-48503325D01*
X2945476Y-48505337D01*
X2945476Y-48505336D01*
X2945477Y-48505337D01*
X2979560Y-48500996D01*
X2987390Y-48500500D01*
X3614057Y-48500500D01*
X3681096Y-48520185D01*
X3726851Y-48572989D01*
X3736795Y-48642147D01*
X3708347Y-48705032D01*
X3621571Y-48806632D01*
X3621568Y-48806637D01*
X3489980Y-49021368D01*
X3393603Y-49254043D01*
X3334811Y-49498932D01*
X3334728Y-49499999D01*
X3334729Y-49500000D01*
X4425148Y-49500000D01*
X4376441Y-49637047D01*
X4366123Y-49787886D01*
X4396884Y-49935915D01*
X4430090Y-50000000D01*
X3334728Y-50000000D01*
X3334811Y-50001067D01*
X3393603Y-50245956D01*
X3489980Y-50478631D01*
X3621568Y-50693362D01*
X3621571Y-50693367D01*
X3785130Y-50884869D01*
X3976632Y-51048428D01*
X3976637Y-51048431D01*
X4191368Y-51180019D01*
X4424043Y-51276396D01*
X4668932Y-51335188D01*
X4669999Y-51335271D01*
X4670000Y-51335271D01*
X4670000Y-50241683D01*
X4698819Y-50259209D01*
X4844404Y-50300000D01*
X4957622Y-50300000D01*
X5069783Y-50284584D01*
X5170000Y-50241053D01*
X5170000Y-51335271D01*
X5171067Y-51335188D01*
X5415956Y-51276396D01*
X5648631Y-51180019D01*
X5863362Y-51048431D01*
X5863367Y-51048428D01*
X6054869Y-50884869D01*
X6218428Y-50693367D01*
X6218431Y-50693362D01*
X6350019Y-50478631D01*
X6446396Y-50245956D01*
X6505188Y-50001067D01*
X6505272Y-50000000D01*
X5414852Y-50000000D01*
X5463559Y-49862953D01*
X5473877Y-49712114D01*
X5443116Y-49564085D01*
X5409910Y-49500000D01*
X6505271Y-49500000D01*
X6505271Y-49499999D01*
X6505188Y-49498932D01*
X6446396Y-49254043D01*
X6350019Y-49021368D01*
X6218431Y-48806637D01*
X6218428Y-48806632D01*
X6131653Y-48705032D01*
X6103082Y-48641271D01*
X6113519Y-48572185D01*
X6159650Y-48519709D01*
X6225943Y-48500500D01*
X12364217Y-48500500D01*
X12431256Y-48520185D01*
X12451898Y-48536819D01*
X13443181Y-49528102D01*
X13476666Y-49589425D01*
X13479500Y-49615783D01*
X13479500Y-49884216D01*
X13459815Y-49951255D01*
X13443181Y-49971897D01*
X11541050Y-51874028D01*
X11479727Y-51907513D01*
X11442562Y-51909875D01*
X11265002Y-51894341D01*
X11264999Y-51894341D01*
X11029596Y-51914936D01*
X11029586Y-51914938D01*
X10801344Y-51976094D01*
X10801335Y-51976098D01*
X10587171Y-52075964D01*
X10587169Y-52075965D01*
X10393600Y-52211503D01*
X10271284Y-52333819D01*
X10209961Y-52367303D01*
X10140269Y-52362319D01*
X10084336Y-52320447D01*
X10067421Y-52289470D01*
X10018354Y-52157913D01*
X10018350Y-52157906D01*
X9932190Y-52042812D01*
X9932187Y-52042809D01*
X9817093Y-51956649D01*
X9817086Y-51956645D01*
X9682379Y-51906403D01*
X9682372Y-51906401D01*
X9622844Y-51900000D01*
X8975000Y-51900000D01*
X8975000Y-52814498D01*
X8867315Y-52765320D01*
X8760763Y-52750000D01*
X8689237Y-52750000D01*
X8582685Y-52765320D01*
X8475000Y-52814498D01*
X8475000Y-51900000D01*
X7827155Y-51900000D01*
X7767627Y-51906401D01*
X7767620Y-51906403D01*
X7632913Y-51956645D01*
X7632906Y-51956649D01*
X7517812Y-52042809D01*
X7517809Y-52042812D01*
X7431649Y-52157906D01*
X7431645Y-52157913D01*
X7381403Y-52292620D01*
X7381401Y-52292627D01*
X7375000Y-52352155D01*
X7375000Y-53000000D01*
X8291314Y-53000000D01*
X8265507Y-53040156D01*
X8225000Y-53178111D01*
X8225000Y-53321889D01*
X8265507Y-53459844D01*
X8291314Y-53500000D01*
X7375000Y-53500000D01*
X7375000Y-54147844D01*
X7381401Y-54207372D01*
X7381403Y-54207379D01*
X7431645Y-54342086D01*
X7431649Y-54342093D01*
X7517809Y-54457187D01*
X7517812Y-54457190D01*
X7632906Y-54543350D01*
X7632913Y-54543354D01*
X7767620Y-54593596D01*
X7767627Y-54593598D01*
X7827155Y-54599999D01*
X7827172Y-54600000D01*
X8475000Y-54600000D01*
X8475000Y-53685501D01*
X8582685Y-53734680D01*
X8689237Y-53750000D01*
X8760763Y-53750000D01*
X8867315Y-53734680D01*
X8975000Y-53685501D01*
X8975000Y-54600000D01*
X9622828Y-54600000D01*
X9622844Y-54599999D01*
X9682372Y-54593598D01*
X9682379Y-54593596D01*
X9817086Y-54543354D01*
X9817093Y-54543350D01*
X9932187Y-54457190D01*
X9932190Y-54457187D01*
X10018350Y-54342093D01*
X10018354Y-54342086D01*
X10067422Y-54210529D01*
X10109293Y-54154595D01*
X10174757Y-54130178D01*
X10243030Y-54145030D01*
X10271285Y-54166181D01*
X10393599Y-54288495D01*
X10460102Y-54335061D01*
X10587165Y-54424032D01*
X10587167Y-54424033D01*
X10587170Y-54424035D01*
X10801337Y-54523903D01*
X11029592Y-54585063D01*
X11200319Y-54600000D01*
X11264999Y-54605659D01*
X11265000Y-54605659D01*
X11265001Y-54605659D01*
X11329681Y-54600000D01*
X11500408Y-54585063D01*
X11728663Y-54523903D01*
X11942830Y-54424035D01*
X12136401Y-54288495D01*
X12303495Y-54121401D01*
X12439035Y-53927830D01*
X12536345Y-53719148D01*
X12561042Y-53683877D01*
X13244919Y-53000000D01*
X16644341Y-53000000D01*
X16664936Y-53235403D01*
X16664938Y-53235413D01*
X16726094Y-53463655D01*
X16726096Y-53463659D01*
X16726097Y-53463663D01*
X16776031Y-53570746D01*
X16825964Y-53677828D01*
X16825965Y-53677830D01*
X16961505Y-53871402D01*
X17128597Y-54038494D01*
X17322169Y-54174034D01*
X17322171Y-54174035D01*
X17536337Y-54273903D01*
X17764592Y-54335063D01*
X17941034Y-54350500D01*
X18058966Y-54350500D01*
X18235408Y-54335063D01*
X18463663Y-54273903D01*
X18677829Y-54174035D01*
X18871401Y-54038495D01*
X19038495Y-53871401D01*
X19174035Y-53677830D01*
X19273903Y-53463663D01*
X19335063Y-53235408D01*
X19355659Y-53000000D01*
X19335063Y-52764592D01*
X19273903Y-52536337D01*
X19174035Y-52322171D01*
X19174034Y-52322169D01*
X19038494Y-52128597D01*
X18871402Y-51961505D01*
X18677830Y-51825965D01*
X18677828Y-51825964D01*
X18570746Y-51776031D01*
X18463663Y-51726097D01*
X18463659Y-51726096D01*
X18463655Y-51726094D01*
X18235413Y-51664938D01*
X18235403Y-51664936D01*
X18058966Y-51649500D01*
X17941034Y-51649500D01*
X17764596Y-51664936D01*
X17764586Y-51664938D01*
X17536344Y-51726094D01*
X17536335Y-51726098D01*
X17322171Y-51825964D01*
X17322169Y-51825965D01*
X17128597Y-51961505D01*
X16961506Y-52128597D01*
X16961501Y-52128604D01*
X16825967Y-52322165D01*
X16825965Y-52322169D01*
X16726098Y-52536335D01*
X16726094Y-52536344D01*
X16664938Y-52764586D01*
X16664936Y-52764596D01*
X16644341Y-52999999D01*
X16644341Y-53000000D01*
X13244919Y-53000000D01*
X14858102Y-51386818D01*
X14919425Y-51353333D01*
X14945783Y-51350499D01*
X16227871Y-51350499D01*
X16227872Y-51350499D01*
X16287483Y-51344091D01*
X16422331Y-51293796D01*
X16537546Y-51207546D01*
X16623796Y-51092331D01*
X16674091Y-50957483D01*
X16680500Y-50897873D01*
X16680499Y-48602128D01*
X16674091Y-48542517D01*
X16665584Y-48519709D01*
X16623797Y-48407671D01*
X16623793Y-48407664D01*
X16537547Y-48292455D01*
X16537544Y-48292452D01*
X16422335Y-48206206D01*
X16422328Y-48206202D01*
X16287482Y-48155908D01*
X16287483Y-48155908D01*
X16227883Y-48149501D01*
X16227881Y-48149500D01*
X16227873Y-48149500D01*
X16227865Y-48149500D01*
X14945782Y-48149500D01*
X14878743Y-48129815D01*
X14858101Y-48113181D01*
X13546452Y-46801532D01*
X13485061Y-46736949D01*
X13485060Y-46736948D01*
X13485059Y-46736947D01*
X13457204Y-46717559D01*
X13434709Y-46701902D01*
X13430946Y-46699064D01*
X13383413Y-46660305D01*
X13383406Y-46660300D01*
X13352959Y-46644397D01*
X13346251Y-46640334D01*
X13318049Y-46620705D01*
X13318046Y-46620703D01*
X13318045Y-46620703D01*
X13318041Y-46620701D01*
X13261680Y-46596514D01*
X13257424Y-46594493D01*
X13203057Y-46566094D01*
X13203050Y-46566091D01*
X13203049Y-46566091D01*
X13197008Y-46564362D01*
X13170030Y-46556642D01*
X13162630Y-46554008D01*
X13131057Y-46540459D01*
X13131058Y-46540459D01*
X13070966Y-46528109D01*
X13066391Y-46526986D01*
X13007420Y-46510113D01*
X13007425Y-46510113D01*
X12973158Y-46507503D01*
X12965380Y-46506412D01*
X12931742Y-46499500D01*
X12931741Y-46499500D01*
X12870402Y-46499500D01*
X12865695Y-46499321D01*
X12860121Y-46498896D01*
X12804524Y-46494662D01*
X12784589Y-46497201D01*
X12770440Y-46499003D01*
X12762611Y-46499500D01*
X7474918Y-46499500D01*
X7407879Y-46479815D01*
X7362124Y-46427011D01*
X7352180Y-46357853D01*
X7362536Y-46323095D01*
X7429575Y-46179330D01*
X7486207Y-45967977D01*
X7505277Y-45750000D01*
X7486207Y-45532023D01*
X7429575Y-45320670D01*
X7337102Y-45122362D01*
X7337100Y-45122359D01*
X7337099Y-45122357D01*
X7211599Y-44943124D01*
X7160991Y-44892516D01*
X7056877Y-44788402D01*
X6877639Y-44662898D01*
X6877640Y-44662898D01*
X6877638Y-44662897D01*
X6778484Y-44616661D01*
X6679330Y-44570425D01*
X6679326Y-44570424D01*
X6679322Y-44570422D01*
X6467977Y-44513793D01*
X6250002Y-44494723D01*
X6249998Y-44494723D01*
X6122151Y-44505908D01*
X6032023Y-44513793D01*
X6032021Y-44513793D01*
X6032017Y-44513794D01*
X5995774Y-44523505D01*
X5925924Y-44521841D01*
X5876001Y-44491411D01*
X3161819Y-41777228D01*
X3128334Y-41715905D01*
X3125500Y-41689547D01*
X3125500Y-41179034D01*
X3145185Y-41111995D01*
X3197989Y-41066240D01*
X3267147Y-41056296D01*
X3330703Y-41085321D01*
X3368477Y-41144099D01*
X3370074Y-41150087D01*
X3393126Y-41246110D01*
X3489533Y-41478859D01*
X3621160Y-41693653D01*
X3621161Y-41693656D01*
X3621164Y-41693659D01*
X3784776Y-41885224D01*
X3930652Y-42009814D01*
X3976343Y-42048838D01*
X3976346Y-42048839D01*
X4191140Y-42180466D01*
X4359948Y-42250388D01*
X4423889Y-42276873D01*
X4668852Y-42335683D01*
X4920000Y-42355449D01*
X5171148Y-42335683D01*
X5416111Y-42276873D01*
X5648859Y-42180466D01*
X5863659Y-42048836D01*
X6055224Y-41885224D01*
X6218836Y-41693659D01*
X6300920Y-41559710D01*
X6352731Y-41512835D01*
X6406647Y-41500500D01*
X10137770Y-41500500D01*
X10204809Y-41520185D01*
X10225451Y-41536819D01*
X13837228Y-45148595D01*
X13867478Y-45197958D01*
X13922818Y-45368277D01*
X13922821Y-45368284D01*
X14017467Y-45532216D01*
X14105762Y-45630277D01*
X14144129Y-45672888D01*
X14297265Y-45784148D01*
X14297270Y-45784151D01*
X14470192Y-45861142D01*
X14470197Y-45861144D01*
X14655354Y-45900500D01*
X14655355Y-45900500D01*
X14844644Y-45900500D01*
X14844646Y-45900500D01*
X15029803Y-45861144D01*
X15202730Y-45784151D01*
X15355871Y-45672888D01*
X15482533Y-45532216D01*
X15577179Y-45368284D01*
X15635674Y-45188256D01*
X15655460Y-45000000D01*
X15635674Y-44811744D01*
X15577179Y-44631716D01*
X15482533Y-44467784D01*
X15355871Y-44327112D01*
X15307797Y-44292184D01*
X15202734Y-44215851D01*
X15202729Y-44215848D01*
X15029807Y-44138857D01*
X15029802Y-44138855D01*
X14964669Y-44125011D01*
X14903187Y-44091818D01*
X14902769Y-44091402D01*
X12991833Y-42180466D01*
X12709237Y-41897870D01*
X13479500Y-41897870D01*
X13479501Y-41897876D01*
X13485908Y-41957483D01*
X13536202Y-42092328D01*
X13536206Y-42092335D01*
X13622452Y-42207544D01*
X13622455Y-42207547D01*
X13737664Y-42293793D01*
X13737671Y-42293797D01*
X13872517Y-42344091D01*
X13872516Y-42344091D01*
X13879444Y-42344835D01*
X13932127Y-42350500D01*
X16227872Y-42350499D01*
X16287483Y-42344091D01*
X16422331Y-42293796D01*
X16537546Y-42207546D01*
X16623796Y-42092331D01*
X16674091Y-41957483D01*
X16680500Y-41897873D01*
X16680499Y-39602128D01*
X16674091Y-39542517D01*
X16640017Y-39451161D01*
X16623797Y-39407671D01*
X16623793Y-39407664D01*
X16537547Y-39292455D01*
X16537544Y-39292452D01*
X16422335Y-39206206D01*
X16422328Y-39206202D01*
X16287482Y-39155908D01*
X16287483Y-39155908D01*
X16227883Y-39149501D01*
X16227881Y-39149500D01*
X16227873Y-39149500D01*
X16227864Y-39149500D01*
X13932129Y-39149500D01*
X13932123Y-39149501D01*
X13872516Y-39155908D01*
X13737671Y-39206202D01*
X13737664Y-39206206D01*
X13622455Y-39292452D01*
X13622452Y-39292455D01*
X13536206Y-39407664D01*
X13536202Y-39407671D01*
X13485908Y-39542517D01*
X13479501Y-39602116D01*
X13479501Y-39602123D01*
X13479500Y-39602135D01*
X13479500Y-41897870D01*
X12709237Y-41897870D01*
X11075729Y-40264361D01*
X11063949Y-40250730D01*
X11056482Y-40240701D01*
X11049612Y-40231472D01*
X11049610Y-40231470D01*
X11009587Y-40197886D01*
X11005612Y-40194244D01*
X11002690Y-40191322D01*
X10999780Y-40188411D01*
X10974040Y-40168059D01*
X10915209Y-40118694D01*
X10909180Y-40114729D01*
X10909212Y-40114680D01*
X10902853Y-40110628D01*
X10902822Y-40110679D01*
X10896680Y-40106891D01*
X10896678Y-40106890D01*
X10896677Y-40106889D01*
X10857474Y-40088608D01*
X10827058Y-40074424D01*
X10792894Y-40057267D01*
X10758433Y-40039960D01*
X10758431Y-40039959D01*
X10758430Y-40039959D01*
X10751645Y-40037489D01*
X10751665Y-40037433D01*
X10744549Y-40034959D01*
X10744531Y-40035015D01*
X10737671Y-40032742D01*
X10709841Y-40026996D01*
X10662434Y-40017207D01*
X10613472Y-40005603D01*
X10587719Y-39999499D01*
X10580547Y-39998661D01*
X10580553Y-39998601D01*
X10573055Y-39997835D01*
X10573050Y-39997895D01*
X10565860Y-39997265D01*
X10489083Y-39999500D01*
X6406647Y-39999500D01*
X6339608Y-39979815D01*
X6300919Y-39940289D01*
X6218837Y-39806343D01*
X6218836Y-39806341D01*
X6055224Y-39614776D01*
X5928571Y-39506604D01*
X5863656Y-39451161D01*
X5863653Y-39451160D01*
X5648859Y-39319533D01*
X5416110Y-39223126D01*
X5171151Y-39164317D01*
X4920000Y-39144551D01*
X4668848Y-39164317D01*
X4423889Y-39223126D01*
X4191140Y-39319533D01*
X3976346Y-39451160D01*
X3976343Y-39451161D01*
X3784776Y-39614776D01*
X3621161Y-39806343D01*
X3621160Y-39806346D01*
X3489533Y-40021140D01*
X3393126Y-40253889D01*
X3370074Y-40349912D01*
X3335283Y-40410504D01*
X3273257Y-40442668D01*
X3203688Y-40436192D01*
X3148664Y-40393133D01*
X3125655Y-40327160D01*
X3125500Y-40320965D01*
X3125500Y-22810452D01*
X3145185Y-22743413D01*
X3161819Y-22722771D01*
X3885391Y-21999199D01*
X4883788Y-21000801D01*
X4896042Y-20990986D01*
X4895859Y-20990764D01*
X4901866Y-20985792D01*
X4901877Y-20985786D01*
X4932775Y-20952882D01*
X4949227Y-20935364D01*
X4959671Y-20924918D01*
X4970120Y-20914471D01*
X4974379Y-20908978D01*
X4978152Y-20904561D01*
X5010062Y-20870582D01*
X5019713Y-20853024D01*
X5030396Y-20836761D01*
X5042673Y-20820936D01*
X5061185Y-20778153D01*
X5063738Y-20772941D01*
X5086197Y-20732092D01*
X5091180Y-20712680D01*
X5097481Y-20694280D01*
X5105437Y-20675896D01*
X5112729Y-20629852D01*
X5113906Y-20624171D01*
X5125500Y-20579019D01*
X5125500Y-20558983D01*
X5127027Y-20539582D01*
X5130160Y-20519804D01*
X5125775Y-20473415D01*
X5125500Y-20467577D01*
X5125500Y-19620000D01*
X16269341Y-19620000D01*
X16289936Y-19855403D01*
X16289938Y-19855413D01*
X16351094Y-20083655D01*
X16351096Y-20083659D01*
X16351097Y-20083663D01*
X16424422Y-20240909D01*
X16450965Y-20297830D01*
X16450967Y-20297834D01*
X16559281Y-20452521D01*
X16586505Y-20491401D01*
X16753599Y-20658495D01*
X16830996Y-20712689D01*
X16947165Y-20794032D01*
X16947167Y-20794033D01*
X16947170Y-20794035D01*
X17161337Y-20893903D01*
X17389592Y-20955063D01*
X17577918Y-20971539D01*
X17624999Y-20975659D01*
X17625000Y-20975659D01*
X17625001Y-20975659D01*
X17664234Y-20972226D01*
X17860408Y-20955063D01*
X18088663Y-20893903D01*
X18302830Y-20794035D01*
X18496401Y-20658495D01*
X18663495Y-20491401D01*
X18799035Y-20297830D01*
X18898903Y-20083663D01*
X18960063Y-19855408D01*
X18980659Y-19620000D01*
X18960063Y-19384592D01*
X18898903Y-19156337D01*
X18799035Y-18942171D01*
X18663495Y-18748599D01*
X18663494Y-18748597D01*
X18496402Y-18581506D01*
X18496396Y-18581501D01*
X18310842Y-18451575D01*
X18267217Y-18396998D01*
X18260023Y-18327500D01*
X18291546Y-18265145D01*
X18310842Y-18248425D01*
X18333026Y-18232891D01*
X18496401Y-18118495D01*
X18663495Y-17951401D01*
X18799035Y-17757830D01*
X18898903Y-17543663D01*
X18960063Y-17315408D01*
X18980659Y-17080000D01*
X18960063Y-16844592D01*
X18898903Y-16616337D01*
X18799035Y-16402171D01*
X18663495Y-16208599D01*
X18663494Y-16208597D01*
X18496402Y-16041506D01*
X18496396Y-16041501D01*
X18310842Y-15911575D01*
X18267217Y-15856998D01*
X18260023Y-15787500D01*
X18291546Y-15725145D01*
X18310842Y-15708425D01*
X18333026Y-15692891D01*
X18496401Y-15578495D01*
X18663495Y-15411401D01*
X18799035Y-15217830D01*
X18898903Y-15003663D01*
X18960063Y-14775408D01*
X18980659Y-14540000D01*
X18960063Y-14304592D01*
X18909312Y-14115185D01*
X18898905Y-14076344D01*
X18898904Y-14076343D01*
X18898903Y-14076337D01*
X18799035Y-13862171D01*
X18789790Y-13848967D01*
X18663494Y-13668597D01*
X18496402Y-13501506D01*
X18496396Y-13501501D01*
X18310842Y-13371575D01*
X18267217Y-13316998D01*
X18260023Y-13247500D01*
X18291546Y-13185145D01*
X18310842Y-13168425D01*
X18333026Y-13152891D01*
X18496401Y-13038495D01*
X18663495Y-12871401D01*
X18799035Y-12677830D01*
X18898903Y-12463663D01*
X18960063Y-12235408D01*
X18980659Y-12000000D01*
X18960063Y-11764592D01*
X18898903Y-11536337D01*
X18799035Y-11322171D01*
X18663495Y-11128599D01*
X18663494Y-11128597D01*
X18496402Y-10961506D01*
X18496396Y-10961501D01*
X18310842Y-10831575D01*
X18267217Y-10776998D01*
X18260023Y-10707500D01*
X18291546Y-10645145D01*
X18310842Y-10628425D01*
X18333026Y-10612891D01*
X18496401Y-10498495D01*
X18663495Y-10331401D01*
X18799035Y-10137830D01*
X18898903Y-9923663D01*
X18960063Y-9695408D01*
X18980659Y-9460000D01*
X18960063Y-9224592D01*
X18898903Y-8996337D01*
X18799035Y-8782171D01*
X18663495Y-8588599D01*
X18663494Y-8588597D01*
X18496402Y-8421506D01*
X18496401Y-8421505D01*
X18310405Y-8291269D01*
X18266781Y-8236692D01*
X18259588Y-8167193D01*
X18291110Y-8104839D01*
X18310405Y-8088119D01*
X18386373Y-8034925D01*
X17757533Y-7406086D01*
X17767315Y-7404680D01*
X17898100Y-7344952D01*
X18006761Y-7250798D01*
X18084493Y-7129844D01*
X18108076Y-7049524D01*
X18739925Y-7681373D01*
X18739926Y-7681373D01*
X18798598Y-7597582D01*
X18798600Y-7597578D01*
X18898429Y-7383492D01*
X18898433Y-7383483D01*
X18959567Y-7155326D01*
X18959569Y-7155315D01*
X18980157Y-6920001D01*
X18980157Y-6919998D01*
X18959569Y-6684684D01*
X18959567Y-6684673D01*
X18898433Y-6456516D01*
X18898429Y-6456507D01*
X18798600Y-6242423D01*
X18798599Y-6242421D01*
X18739925Y-6158626D01*
X18739925Y-6158625D01*
X18108076Y-6790475D01*
X18084493Y-6710156D01*
X18006761Y-6589202D01*
X17898100Y-6495048D01*
X17767315Y-6435320D01*
X17757533Y-6433913D01*
X18386373Y-5805073D01*
X18386373Y-5805072D01*
X18310405Y-5751880D01*
X18266780Y-5697304D01*
X18259586Y-5627805D01*
X18291108Y-5565451D01*
X18310399Y-5548734D01*
X18496401Y-5418495D01*
X18663495Y-5251401D01*
X18799035Y-5057830D01*
X18898903Y-4843663D01*
X18960063Y-4615408D01*
X18980659Y-4380000D01*
X18960063Y-4144592D01*
X18898903Y-3916337D01*
X18799035Y-3702171D01*
X18663495Y-3508599D01*
X18663494Y-3508597D01*
X18496402Y-3341506D01*
X18496395Y-3341501D01*
X18302834Y-3205967D01*
X18302830Y-3205965D01*
X18234354Y-3174034D01*
X18088663Y-3106097D01*
X18088659Y-3106096D01*
X18088655Y-3106094D01*
X17860413Y-3044938D01*
X17860403Y-3044936D01*
X17625001Y-3024341D01*
X17624999Y-3024341D01*
X17389596Y-3044936D01*
X17389586Y-3044938D01*
X17161344Y-3106094D01*
X17161335Y-3106098D01*
X16947171Y-3205964D01*
X16947169Y-3205965D01*
X16753597Y-3341505D01*
X16586505Y-3508597D01*
X16450965Y-3702169D01*
X16450964Y-3702171D01*
X16351098Y-3916335D01*
X16351094Y-3916344D01*
X16289938Y-4144586D01*
X16289936Y-4144596D01*
X16269341Y-4379999D01*
X16269341Y-4380000D01*
X16289936Y-4615403D01*
X16289938Y-4615413D01*
X16351094Y-4843655D01*
X16351096Y-4843659D01*
X16351097Y-4843663D01*
X16450965Y-5057830D01*
X16450967Y-5057834D01*
X16559281Y-5212521D01*
X16586505Y-5251401D01*
X16753599Y-5418495D01*
X16939594Y-5548730D01*
X16983218Y-5603307D01*
X16990411Y-5672806D01*
X16958889Y-5735160D01*
X16939593Y-5751880D01*
X16863626Y-5805072D01*
X16863625Y-5805072D01*
X17492466Y-6433913D01*
X17482685Y-6435320D01*
X17351900Y-6495048D01*
X17243239Y-6589202D01*
X17165507Y-6710156D01*
X17141923Y-6790476D01*
X16510072Y-6158625D01*
X16451401Y-6242419D01*
X16351570Y-6456507D01*
X16351566Y-6456516D01*
X16290432Y-6684673D01*
X16290430Y-6684684D01*
X16269843Y-6919998D01*
X16269843Y-6920001D01*
X16290430Y-7155315D01*
X16290432Y-7155326D01*
X16351566Y-7383483D01*
X16351570Y-7383492D01*
X16451400Y-7597579D01*
X16451402Y-7597583D01*
X16510072Y-7681373D01*
X16510073Y-7681373D01*
X17141923Y-7049523D01*
X17165507Y-7129844D01*
X17243239Y-7250798D01*
X17351900Y-7344952D01*
X17482685Y-7404680D01*
X17492466Y-7406086D01*
X16863625Y-8034925D01*
X16939594Y-8088119D01*
X16983219Y-8142696D01*
X16990413Y-8212194D01*
X16958890Y-8274549D01*
X16939595Y-8291269D01*
X16753594Y-8421508D01*
X16586505Y-8588597D01*
X16450965Y-8782169D01*
X16450964Y-8782171D01*
X16351098Y-8996335D01*
X16351094Y-8996344D01*
X16289938Y-9224586D01*
X16289936Y-9224596D01*
X16269341Y-9459999D01*
X16269341Y-9460000D01*
X16289936Y-9695403D01*
X16289938Y-9695413D01*
X16351094Y-9923655D01*
X16351096Y-9923659D01*
X16351097Y-9923663D01*
X16450965Y-10137830D01*
X16450967Y-10137834D01*
X16586501Y-10331395D01*
X16586506Y-10331402D01*
X16753597Y-10498493D01*
X16753603Y-10498498D01*
X16939158Y-10628425D01*
X16982783Y-10683002D01*
X16989977Y-10752500D01*
X16958454Y-10814855D01*
X16939158Y-10831575D01*
X16753597Y-10961505D01*
X16586505Y-11128597D01*
X16450965Y-11322169D01*
X16450964Y-11322171D01*
X16351098Y-11536335D01*
X16351094Y-11536344D01*
X16289938Y-11764586D01*
X16289936Y-11764596D01*
X16269341Y-11999999D01*
X16269341Y-12000000D01*
X16289936Y-12235403D01*
X16289938Y-12235413D01*
X16351094Y-12463655D01*
X16351096Y-12463659D01*
X16351097Y-12463663D01*
X16450965Y-12677830D01*
X16450967Y-12677834D01*
X16586501Y-12871395D01*
X16586506Y-12871402D01*
X16753597Y-13038493D01*
X16753603Y-13038498D01*
X16939158Y-13168425D01*
X16982783Y-13223002D01*
X16989977Y-13292500D01*
X16958454Y-13354855D01*
X16939158Y-13371575D01*
X16753597Y-13501505D01*
X16586505Y-13668597D01*
X16450965Y-13862169D01*
X16450964Y-13862171D01*
X16351098Y-14076335D01*
X16351094Y-14076344D01*
X16289938Y-14304586D01*
X16289936Y-14304596D01*
X16269341Y-14539999D01*
X16269341Y-14540000D01*
X16289936Y-14775403D01*
X16289938Y-14775413D01*
X16351094Y-15003655D01*
X16351096Y-15003659D01*
X16351097Y-15003663D01*
X16386319Y-15079196D01*
X16450965Y-15217830D01*
X16450967Y-15217834D01*
X16586501Y-15411395D01*
X16586506Y-15411402D01*
X16753597Y-15578493D01*
X16753603Y-15578498D01*
X16939158Y-15708425D01*
X16982783Y-15763002D01*
X16989977Y-15832500D01*
X16958454Y-15894855D01*
X16939158Y-15911575D01*
X16753597Y-16041505D01*
X16586505Y-16208597D01*
X16450965Y-16402169D01*
X16450964Y-16402171D01*
X16351098Y-16616335D01*
X16351094Y-16616344D01*
X16289938Y-16844586D01*
X16289936Y-16844596D01*
X16269341Y-17079999D01*
X16269341Y-17080000D01*
X16289936Y-17315403D01*
X16289938Y-17315413D01*
X16351094Y-17543655D01*
X16351096Y-17543659D01*
X16351097Y-17543663D01*
X16386319Y-17619196D01*
X16450965Y-17757830D01*
X16450967Y-17757834D01*
X16586501Y-17951395D01*
X16586506Y-17951402D01*
X16753597Y-18118493D01*
X16753603Y-18118498D01*
X16939158Y-18248425D01*
X16982783Y-18303002D01*
X16989977Y-18372500D01*
X16958454Y-18434855D01*
X16939158Y-18451575D01*
X16753597Y-18581505D01*
X16586505Y-18748597D01*
X16450965Y-18942169D01*
X16450964Y-18942171D01*
X16351098Y-19156335D01*
X16351094Y-19156344D01*
X16289938Y-19384586D01*
X16289936Y-19384596D01*
X16269341Y-19619999D01*
X16269341Y-19620000D01*
X5125500Y-19620000D01*
X5125500Y-14207742D01*
X5127224Y-14192122D01*
X5126939Y-14192096D01*
X5127671Y-14184340D01*
X5127673Y-14184333D01*
X5125500Y-14115185D01*
X5125500Y-14085650D01*
X5124631Y-14078772D01*
X5124172Y-14072943D01*
X5122709Y-14026372D01*
X5117122Y-14007144D01*
X5113174Y-13988084D01*
X5110663Y-13968204D01*
X5093512Y-13924887D01*
X5091619Y-13919358D01*
X5078618Y-13874609D01*
X5078616Y-13874606D01*
X5068423Y-13857371D01*
X5059861Y-13839894D01*
X5052487Y-13821270D01*
X5052486Y-13821268D01*
X5025079Y-13783545D01*
X5021888Y-13778686D01*
X4998172Y-13738583D01*
X4998165Y-13738574D01*
X4984006Y-13724415D01*
X4971368Y-13709619D01*
X4959594Y-13693413D01*
X4929596Y-13668597D01*
X4923688Y-13663709D01*
X4919376Y-13659786D01*
X3715237Y-12455647D01*
X3681752Y-12394324D01*
X3683143Y-12335872D01*
X3710063Y-12235408D01*
X3730659Y-12000000D01*
X3710063Y-11764592D01*
X3648903Y-11536337D01*
X3549035Y-11322171D01*
X3413495Y-11128599D01*
X3413494Y-11128597D01*
X3246402Y-10961506D01*
X3246396Y-10961501D01*
X3060842Y-10831575D01*
X3017217Y-10776998D01*
X3010023Y-10707500D01*
X3041546Y-10645145D01*
X3060842Y-10628425D01*
X3083026Y-10612891D01*
X3246401Y-10498495D01*
X3413495Y-10331401D01*
X3549035Y-10137830D01*
X3648903Y-9923663D01*
X3710063Y-9695408D01*
X3730659Y-9460000D01*
X3710063Y-9224592D01*
X3648903Y-8996337D01*
X3549035Y-8782171D01*
X3413495Y-8588599D01*
X3413494Y-8588597D01*
X3246402Y-8421506D01*
X3246396Y-8421501D01*
X3060842Y-8291575D01*
X3017217Y-8236998D01*
X3010023Y-8167500D01*
X3041546Y-8105145D01*
X3060842Y-8088425D01*
X3137248Y-8034925D01*
X3246401Y-7958495D01*
X3413495Y-7791401D01*
X3549035Y-7597830D01*
X3648903Y-7383663D01*
X3710063Y-7155408D01*
X3730659Y-6920000D01*
X3710063Y-6684592D01*
X3648903Y-6456337D01*
X3549035Y-6242171D01*
X3490536Y-6158626D01*
X3413496Y-6048600D01*
X3413495Y-6048599D01*
X3291567Y-5926671D01*
X3258084Y-5865351D01*
X3263068Y-5795659D01*
X3304939Y-5739725D01*
X3335915Y-5722810D01*
X3467331Y-5673796D01*
X3582546Y-5587546D01*
X3668796Y-5472331D01*
X3719091Y-5337483D01*
X3725500Y-5277873D01*
X3725499Y-3482128D01*
X3719091Y-3422517D01*
X3692230Y-3350500D01*
X3668797Y-3287671D01*
X3668793Y-3287664D01*
X3582547Y-3172455D01*
X3582544Y-3172452D01*
X3467335Y-3086206D01*
X3467328Y-3086202D01*
X3332482Y-3035908D01*
X3332483Y-3035908D01*
X3272883Y-3029501D01*
X3272881Y-3029500D01*
X3272873Y-3029500D01*
X3272864Y-3029500D01*
X1477129Y-3029500D01*
X1477123Y-3029501D01*
X1417516Y-3035908D01*
X1282671Y-3086202D01*
X1282664Y-3086206D01*
X1167455Y-3172452D01*
X1167452Y-3172455D01*
X1081206Y-3287664D01*
X1081202Y-3287671D01*
X1030908Y-3422517D01*
X1024501Y-3482116D01*
X1024501Y-3482123D01*
X1024500Y-3482135D01*
X1024500Y-5277870D01*
X1024501Y-5277876D01*
X1030908Y-5337483D01*
X1081202Y-5472328D01*
X1081206Y-5472335D01*
X1167452Y-5587544D01*
X1167455Y-5587547D01*
X1282664Y-5673793D01*
X1282671Y-5673797D01*
X1414081Y-5722810D01*
X1470015Y-5764681D01*
X1494432Y-5830145D01*
X1479580Y-5898418D01*
X1458430Y-5926673D01*
X1336503Y-6048600D01*
X1200965Y-6242169D01*
X1200964Y-6242171D01*
X1101098Y-6456335D01*
X1101094Y-6456344D01*
X1039938Y-6684586D01*
X1039936Y-6684596D01*
X1019341Y-6919999D01*
X1019341Y-6920000D01*
X1039936Y-7155403D01*
X1039938Y-7155413D01*
X1101094Y-7383655D01*
X1101096Y-7383659D01*
X1101097Y-7383663D01*
X1200847Y-7597578D01*
X1200965Y-7597830D01*
X1200967Y-7597834D01*
X1336501Y-7791395D01*
X1336506Y-7791402D01*
X1503597Y-7958493D01*
X1503603Y-7958498D01*
X1689158Y-8088425D01*
X1732783Y-8143002D01*
X1739977Y-8212500D01*
X1708454Y-8274855D01*
X1689158Y-8291575D01*
X1503597Y-8421505D01*
X1336505Y-8588597D01*
X1200965Y-8782169D01*
X1200964Y-8782171D01*
X1101098Y-8996335D01*
X1101094Y-8996344D01*
X1039938Y-9224586D01*
X1039936Y-9224596D01*
X1019341Y-9459999D01*
X1019341Y-9460000D01*
X1039936Y-9695403D01*
X1039938Y-9695413D01*
X1101094Y-9923655D01*
X1101096Y-9923659D01*
X1101097Y-9923663D01*
X1200965Y-10137830D01*
X1200967Y-10137834D01*
X1336501Y-10331395D01*
X1336506Y-10331402D01*
X1503597Y-10498493D01*
X1503603Y-10498498D01*
X1689158Y-10628425D01*
X1732783Y-10683002D01*
X1739977Y-10752500D01*
X1708454Y-10814855D01*
X1689158Y-10831575D01*
X1503597Y-10961505D01*
X1336505Y-11128597D01*
X1200965Y-11322169D01*
X1200964Y-11322171D01*
X1101098Y-11536335D01*
X1101094Y-11536344D01*
X1039938Y-11764586D01*
X1039936Y-11764596D01*
X1019341Y-11999999D01*
X1019341Y-12000000D01*
X1039936Y-12235403D01*
X1039938Y-12235413D01*
X1101094Y-12463655D01*
X1101096Y-12463659D01*
X1101097Y-12463663D01*
X1200965Y-12677830D01*
X1200967Y-12677834D01*
X1336501Y-12871395D01*
X1336506Y-12871402D01*
X1503597Y-13038493D01*
X1503603Y-13038498D01*
X1689158Y-13168425D01*
X1732783Y-13223002D01*
X1739977Y-13292500D01*
X1708454Y-13354855D01*
X1689158Y-13371575D01*
X1503597Y-13501505D01*
X1336505Y-13668597D01*
X1200965Y-13862169D01*
X1200964Y-13862171D01*
X1101098Y-14076335D01*
X1101094Y-14076344D01*
X1039938Y-14304586D01*
X1039936Y-14304596D01*
X1019341Y-14539999D01*
X1019341Y-14540000D01*
X1039936Y-14775403D01*
X1039938Y-14775413D01*
X1101094Y-15003655D01*
X1101096Y-15003659D01*
X1101097Y-15003663D01*
X1136319Y-15079196D01*
X1200965Y-15217830D01*
X1200967Y-15217834D01*
X1336501Y-15411395D01*
X1336506Y-15411402D01*
X1503597Y-15578493D01*
X1503603Y-15578498D01*
X1689158Y-15708425D01*
X1732783Y-15763002D01*
X1739977Y-15832500D01*
X1708454Y-15894855D01*
X1689158Y-15911575D01*
X1503597Y-16041505D01*
X1336505Y-16208597D01*
X1200965Y-16402169D01*
X1200964Y-16402171D01*
X1101098Y-16616335D01*
X1101094Y-16616344D01*
X1039938Y-16844586D01*
X1039936Y-16844596D01*
X1019341Y-17079999D01*
X1019341Y-17080000D01*
X1039936Y-17315403D01*
X1039938Y-17315413D01*
X1101094Y-17543655D01*
X1101096Y-17543659D01*
X1101097Y-17543663D01*
X1136319Y-17619196D01*
X1200965Y-17757830D01*
X1200967Y-17757834D01*
X1336501Y-17951395D01*
X1336506Y-17951402D01*
X1503597Y-18118493D01*
X1503603Y-18118498D01*
X1689158Y-18248425D01*
X1732783Y-18303002D01*
X1739977Y-18372500D01*
X1708454Y-18434855D01*
X1689158Y-18451575D01*
X1503597Y-18581505D01*
X1336505Y-18748597D01*
X1200965Y-18942169D01*
X1200964Y-18942171D01*
X1101098Y-19156335D01*
X1101094Y-19156344D01*
X1039938Y-19384586D01*
X1039936Y-19384596D01*
X1019341Y-19619999D01*
X1019341Y-19620000D01*
X1039936Y-19855403D01*
X1039938Y-19855413D01*
X1101094Y-20083655D01*
X1101096Y-20083659D01*
X1101097Y-20083663D01*
X1174422Y-20240909D01*
X1200965Y-20297830D01*
X1200967Y-20297834D01*
X1309281Y-20452521D01*
X1336505Y-20491401D01*
X1503599Y-20658495D01*
X1580996Y-20712689D01*
X1697165Y-20794032D01*
X1697167Y-20794033D01*
X1697170Y-20794035D01*
X1911337Y-20893903D01*
X2139592Y-20955063D01*
X2327918Y-20971539D01*
X2374999Y-20975659D01*
X2375000Y-20975659D01*
X2375001Y-20975659D01*
X2414234Y-20972226D01*
X2610408Y-20955063D01*
X2838663Y-20893903D01*
X2918662Y-20856598D01*
X2987737Y-20846107D01*
X3051521Y-20874626D01*
X3089761Y-20933103D01*
X3090316Y-21002970D01*
X3058746Y-21056662D01*
X2116208Y-21999199D01*
X2103951Y-22009020D01*
X2104134Y-22009241D01*
X2098123Y-22014213D01*
X2050772Y-22064636D01*
X2029889Y-22085519D01*
X2029877Y-22085532D01*
X2025621Y-22091017D01*
X2021837Y-22095447D01*
X1989937Y-22129418D01*
X1989936Y-22129420D01*
X1980284Y-22146976D01*
X1969610Y-22163226D01*
X1957329Y-22179061D01*
X1957324Y-22179068D01*
X1938815Y-22221838D01*
X1936245Y-22227084D01*
X1913803Y-22267906D01*
X1908822Y-22287307D01*
X1902521Y-22305710D01*
X1894562Y-22324102D01*
X1894561Y-22324105D01*
X1887271Y-22370127D01*
X1886087Y-22375846D01*
X1874501Y-22420972D01*
X1874500Y-22420982D01*
X1874500Y-22441016D01*
X1872973Y-22460415D01*
X1869840Y-22480194D01*
X1869840Y-22480195D01*
X1874225Y-22526583D01*
X1874500Y-22532421D01*
X1874500Y-41917255D01*
X1872775Y-41932872D01*
X1873061Y-41932899D01*
X1872326Y-41940665D01*
X1874500Y-42009814D01*
X1874500Y-42039343D01*
X1874501Y-42039360D01*
X1875368Y-42046231D01*
X1875826Y-42052050D01*
X1877290Y-42098624D01*
X1877291Y-42098627D01*
X1882880Y-42117867D01*
X1886824Y-42136911D01*
X1889336Y-42156791D01*
X1906490Y-42200119D01*
X1908382Y-42205647D01*
X1921381Y-42250388D01*
X1931580Y-42267634D01*
X1940138Y-42285103D01*
X1947514Y-42303732D01*
X1974898Y-42341423D01*
X1978106Y-42346307D01*
X2001827Y-42386416D01*
X2001833Y-42386424D01*
X2015990Y-42400580D01*
X2028628Y-42415376D01*
X2040405Y-42431586D01*
X2040406Y-42431587D01*
X2076309Y-42461288D01*
X2080620Y-42465210D01*
X3706812Y-44091402D01*
X3907594Y-44292184D01*
X3941079Y-44353507D01*
X3936095Y-44423199D01*
X3894223Y-44479132D01*
X3828759Y-44503549D01*
X3809106Y-44503393D01*
X3710002Y-44494723D01*
X3709998Y-44494723D01*
X3582151Y-44505908D01*
X3492023Y-44513793D01*
X3492020Y-44513793D01*
X3280677Y-44570422D01*
X3280668Y-44570426D01*
X3082361Y-44662898D01*
X3082357Y-44662900D01*
X2903121Y-44788402D01*
X2748402Y-44943121D01*
X2646074Y-45089262D01*
X2591497Y-45132887D01*
X2521999Y-45140081D01*
X2459644Y-45108558D01*
X2424230Y-45048328D01*
X2420499Y-45018139D01*
X2420499Y-44952129D01*
X2420498Y-44952123D01*
X2419530Y-44943121D01*
X2414091Y-44892517D01*
X2363796Y-44757669D01*
X2363795Y-44757668D01*
X2363793Y-44757664D01*
X2277547Y-44642455D01*
X2277544Y-44642452D01*
X2162335Y-44556206D01*
X2162328Y-44556202D01*
X2027482Y-44505908D01*
X2027483Y-44505908D01*
X1967883Y-44499501D01*
X1967881Y-44499500D01*
X1967873Y-44499500D01*
X1967864Y-44499500D01*
X372129Y-44499500D01*
X372123Y-44499501D01*
X312516Y-44505908D01*
X169359Y-44559303D01*
X168204Y-44556208D01*
X115638Y-44567637D01*
X50177Y-44543211D01*
X8313Y-44487272D01*
X500Y-44443954D01*
X500Y-2000000D01*
X8644341Y-2000000D01*
X8664936Y-2235403D01*
X8664938Y-2235413D01*
X8726094Y-2463655D01*
X8726096Y-2463659D01*
X8726097Y-2463663D01*
X8776031Y-2570746D01*
X8825964Y-2677828D01*
X8825965Y-2677830D01*
X8961505Y-2871402D01*
X9128597Y-3038494D01*
X9322169Y-3174034D01*
X9322171Y-3174035D01*
X9536337Y-3273903D01*
X9764592Y-3335063D01*
X9941034Y-3350500D01*
X10058966Y-3350500D01*
X10235408Y-3335063D01*
X10463663Y-3273903D01*
X10677829Y-3174035D01*
X10871401Y-3038495D01*
X11038495Y-2871401D01*
X11174035Y-2677830D01*
X11273903Y-2463663D01*
X11335063Y-2235408D01*
X11355659Y-2000000D01*
X11335063Y-1764592D01*
X11273903Y-1536337D01*
X11174035Y-1322171D01*
X11174034Y-1322169D01*
X11038494Y-1128597D01*
X10871402Y-961505D01*
X10677830Y-825965D01*
X10677828Y-825964D01*
X10570746Y-776031D01*
X10463663Y-726097D01*
X10463659Y-726096D01*
X10463655Y-726094D01*
X10235413Y-664938D01*
X10235403Y-664936D01*
X10058966Y-649500D01*
X9941034Y-649500D01*
X9764596Y-664936D01*
X9764586Y-664938D01*
X9536344Y-726094D01*
X9536335Y-726098D01*
X9322171Y-825964D01*
X9322169Y-825965D01*
X9128597Y-961505D01*
X8961506Y-1128597D01*
X8961501Y-1128604D01*
X8825967Y-1322165D01*
X8825965Y-1322169D01*
X8726098Y-1536335D01*
X8726094Y-1536344D01*
X8664938Y-1764586D01*
X8664936Y-1764596D01*
X8644341Y-1999999D01*
X8644341Y-2000000D01*
X500Y-2000000D01*
X500Y-124500D01*
X20185Y-57461D01*
X72989Y-11706D01*
X124500Y-500D01*
X19875500Y-500D01*
X19942539Y-20185D01*
G37*
%TD.AperFunction*%
%TD*%
M02*
