M48
; DRILL file {KiCad 9.0.1} date 2025-06-09T02:25:28-0400
; FORMAT={-:-/ absolute / inch / decimal}
; #@! TF.CreationDate,2025-06-09T02:25:28-04:00
; #@! TF.GenerationSoftware,Kicad,Pcbnew,9.0.1
; #@! TF.FileFunction,Plated,1,2,PTH
FMAT,2
INCH
; #@! TA.AperFunction,Plated,PTH,ViaDrill
T1C0.0157
; #@! TA.AperFunction,Plated,PTH,ComponentDrill
T2C0.0394
%
G90
G05
T1
X5.58Y-2.54
X5.64Y-2.86
X5.68Y-3.23
X5.7209Y-2.4682
X5.74Y-2.31
X5.77Y-2.4639
X5.9793Y-2.69
X6.0262Y-2.97
X6.0531Y-2.7235
X6.07Y-3.37
X6.0733Y-3.3084
X6.1Y-2.9048
X6.14Y-2.24
X6.15Y-2.78
X6.2131Y-2.7622
X6.2231Y-3.0261
X6.2231Y-3.1587
X6.224Y-2.43
X6.228Y-2.56
X6.268Y-2.384
X6.31Y-2.62
X6.3445Y-2.852
X6.39Y-2.38
X6.44Y-3.21
X6.45Y-2.82
X6.48Y-2.59
X6.59Y-2.41
X8.1238Y-2.3643
X8.1928Y-3.2206
X8.2138Y-2.8212
X8.219Y-2.7213
X8.275Y-2.45
X8.34Y-2.77
X8.34Y-3.26
X8.36Y-3.06
X8.3618Y-2.4533
X8.3618Y-2.4533
X8.4Y-2.63
X8.44Y-2.27
X8.52Y-2.86
X8.55Y-2.66
X8.56Y-2.37
X8.62Y-2.57
X8.66Y-2.81
X8.7Y-3.23
X8.72Y-2.67
X8.7958Y-2.3042
X8.834Y-2.582
X8.8388Y-3.0542
X8.8441Y-2.9543
X8.8493Y-2.8545
X8.85Y-2.41
X8.8545Y-2.7546
X8.8753Y-2.2647
X8.9373Y-3.06
X8.9399Y-3.0109
X8.95Y-2.49
X8.96Y-2.7
X8.9684Y-2.7654
X8.9989Y-2.2728
X9.02Y-2.4
X9.03Y-3.37
X9.05Y-2.7
X9.07Y-2.42
X9.207Y-2.2828
T2
X5.7304Y-2.5887
X5.83Y-2.58
M30
