%TF.GenerationSoftware,KiCad,Pcbnew,9.0.1*%
%TF.CreationDate,2025-06-09T02:25:26-04:00*%
%TF.ProjectId,Pneumatactors_1Xiao_3PiezoPumps_6Valves_Curved,506e6575-6d61-4746-9163-746f72735f31,rev?*%
%TF.SameCoordinates,Original*%
%TF.FileFunction,Copper,L1,Top*%
%TF.FilePolarity,Positive*%
%FSLAX46Y46*%
G04 Gerber Fmt 4.6, Leading zero omitted, Abs format (unit mm)*
G04 Created by KiCad (PCBNEW 9.0.1) date 2025-06-09 02:25:26*
%MOMM*%
%LPD*%
G01*
G04 APERTURE LIST*
G04 Aperture macros list*
%AMRoundRect*
0 Rectangle with rounded corners*
0 $1 Rounding radius*
0 $2 $3 $4 $5 $6 $7 $8 $9 X,Y pos of 4 corners*
0 Add a 4 corners polygon primitive as box body*
4,1,4,$2,$3,$4,$5,$6,$7,$8,$9,$2,$3,0*
0 Add four circle primitives for the rounded corners*
1,1,$1+$1,$2,$3*
1,1,$1+$1,$4,$5*
1,1,$1+$1,$6,$7*
1,1,$1+$1,$8,$9*
0 Add four rect primitives between the rounded corners*
20,1,$1+$1,$2,$3,$4,$5,0*
20,1,$1+$1,$4,$5,$6,$7,0*
20,1,$1+$1,$6,$7,$8,$9,0*
20,1,$1+$1,$8,$9,$2,$3,0*%
%AMRotRect*
0 Rectangle, with rotation*
0 The origin of the aperture is its center*
0 $1 length*
0 $2 width*
0 $3 Rotation angle, in degrees counterclockwise*
0 Add horizontal line*
21,1,$1,$2,0,0,$3*%
G04 Aperture macros list end*
%TA.AperFunction,SMDPad,CuDef*%
%ADD10RoundRect,0.150000X-0.594545X-0.119047X0.578844X-0.180542X0.594545X0.119047X-0.578844X0.180542X0*%
%TD*%
%TA.AperFunction,SMDPad,CuDef*%
%ADD11RoundRect,0.250000X-0.734682X0.939543X-0.560371X-1.052846X0.734682X-0.939543X0.560371X1.052846X0*%
%TD*%
%TA.AperFunction,SMDPad,CuDef*%
%ADD12R,1.295400X0.889000*%
%TD*%
%TA.AperFunction,SMDPad,CuDef*%
%ADD13R,3.098800X2.209800*%
%TD*%
%TA.AperFunction,SMDPad,CuDef*%
%ADD14RoundRect,0.250000X-0.432162X-0.603209X0.366742X-0.645078X0.432162X0.603209X-0.366742X0.645078X0*%
%TD*%
%TA.AperFunction,SMDPad,CuDef*%
%ADD15RoundRect,0.500000X0.899969X0.453521X-0.847633X0.545109X-0.899969X-0.453521X0.847633X-0.545109X0*%
%TD*%
%TA.AperFunction,SMDPad,CuDef*%
%ADD16RoundRect,0.275000X-0.988056X-0.223596X0.959271X-0.325651X0.988056X0.223596X-0.959271X0.325651X0*%
%TD*%
%TA.AperFunction,SMDPad,CuDef*%
%ADD17C,1.700000*%
%TD*%
%TA.AperFunction,SMDPad,CuDef*%
%ADD18RoundRect,0.250000X1.162006X0.268780X-0.717380X0.952820X-1.162006X-0.268780X0.717380X-0.952820X0*%
%TD*%
%TA.AperFunction,ComponentPad*%
%ADD19RotRect,1.700000X1.700000X95.000000*%
%TD*%
%TA.AperFunction,ComponentPad*%
%ADD20C,1.700000*%
%TD*%
%TA.AperFunction,SMDPad,CuDef*%
%ADD21RoundRect,0.150000X-0.587500X-0.150000X0.587500X-0.150000X0.587500X0.150000X-0.587500X0.150000X0*%
%TD*%
%TA.AperFunction,SMDPad,CuDef*%
%ADD22RoundRect,0.250000X1.032648X0.596773X-0.964611X0.701445X-1.032648X-0.596773X0.964611X-0.701445X0*%
%TD*%
%TA.AperFunction,SMDPad,CuDef*%
%ADD23RotRect,0.812800X1.701800X357.000000*%
%TD*%
%TA.AperFunction,SMDPad,CuDef*%
%ADD24RotRect,2.209800X3.098800X357.000000*%
%TD*%
%TA.AperFunction,SMDPad,CuDef*%
%ADD25RotRect,0.889000X1.295400X95.000000*%
%TD*%
%TA.AperFunction,SMDPad,CuDef*%
%ADD26RotRect,2.209800X3.098800X95.000000*%
%TD*%
%TA.AperFunction,SMDPad,CuDef*%
%ADD27RoundRect,0.150000X0.587500X0.150000X-0.587500X0.150000X-0.587500X-0.150000X0.587500X-0.150000X0*%
%TD*%
%TA.AperFunction,SMDPad,CuDef*%
%ADD28RotRect,0.889000X1.295400X357.000000*%
%TD*%
%TA.AperFunction,SMDPad,CuDef*%
%ADD29RoundRect,0.150000X0.119047X-0.594545X0.180542X0.578844X-0.119047X0.594545X-0.180542X-0.578844X0*%
%TD*%
%TA.AperFunction,SMDPad,CuDef*%
%ADD30RotRect,0.812800X1.701800X5.000000*%
%TD*%
%TA.AperFunction,SMDPad,CuDef*%
%ADD31RotRect,2.209800X3.098800X5.000000*%
%TD*%
%TA.AperFunction,SMDPad,CuDef*%
%ADD32RoundRect,0.250000X0.734682X-0.939543X0.560371X1.052846X-0.734682X0.939543X-0.560371X-1.052846X0*%
%TD*%
%TA.AperFunction,SMDPad,CuDef*%
%ADD33RoundRect,0.250000X-0.650000X1.000000X-0.650000X-1.000000X0.650000X-1.000000X0.650000X1.000000X0*%
%TD*%
%TA.AperFunction,SMDPad,CuDef*%
%ADD34RotRect,0.889000X1.295400X267.000000*%
%TD*%
%TA.AperFunction,SMDPad,CuDef*%
%ADD35RotRect,2.209800X3.098800X267.000000*%
%TD*%
%TA.AperFunction,ViaPad*%
%ADD36C,0.800000*%
%TD*%
%TA.AperFunction,Conductor*%
%ADD37C,1.000000*%
%TD*%
%TA.AperFunction,Conductor*%
%ADD38C,0.500000*%
%TD*%
%TA.AperFunction,Conductor*%
%ADD39C,0.250000*%
%TD*%
G04 APERTURE END LIST*
D10*
%TO.P,Q2,1,G*%
%TO.N,V2*%
X226876327Y-83408172D03*
%TO.P,Q2,2,S*%
%TO.N,GND*%
X226776889Y-85305568D03*
%TO.P,Q2,3,D*%
%TO.N,Net-(D3-A)*%
X228699038Y-84455000D03*
%TD*%
D11*
%TO.P,D6,1,K*%
%TO.N,5V*%
X148748187Y-69889610D03*
%TO.P,D6,2,A*%
%TO.N,Net-(D6-A)*%
X149096813Y-73874390D03*
%TD*%
D12*
%TO.P,J4,1,Pin_1*%
%TO.N,Net-(D4-A)*%
X161150700Y-72441000D03*
%TO.P,J4,2,Pin_2*%
%TO.N,5V*%
X161150700Y-71191000D03*
D13*
%TO.P,J4,3*%
%TO.N,N/C*%
X163900700Y-68641000D03*
%TO.P,J4,4*%
X163900700Y-74991000D03*
%TD*%
D14*
%TO.P,R1,1*%
%TO.N,SDA*%
X225476823Y-57565883D03*
%TO.P,R1,2*%
%TO.N,3V3*%
X228572575Y-57728125D03*
%TD*%
D15*
%TO.P,U2,1,PA02_A0_D0*%
%TO.N,V1*%
X224240799Y-82649525D03*
%TO.P,U2,2,PA4_A1_D1*%
%TO.N,V2*%
X224373732Y-80113006D03*
%TO.P,U2,3,PA10_A2_D2*%
%TO.N,V3*%
X224506666Y-77576487D03*
%TO.P,U2,4,PA11_A3_D3*%
%TO.N,V4*%
X224639599Y-75039968D03*
%TO.P,U2,5,PA8_A4_D4_SDA*%
%TO.N,SDA*%
X224772532Y-72503449D03*
%TO.P,U2,6,PA9_A5_D5_SCL*%
%TO.N,SCL*%
X224905466Y-69966930D03*
%TO.P,U2,7,PB08_A6_D6_TX*%
%TO.N,unconnected-(U2-PB08_A6_D6_TX-Pad7)*%
X225038399Y-67430411D03*
%TO.P,U2,8,PB09_A7_D7_RX*%
%TO.N,unconnected-(U2-PB09_A7_D7_RX-Pad8)*%
X208895553Y-66584400D03*
%TO.P,U2,9,PA7_A8_D8_SCK*%
%TO.N,V5*%
X208762619Y-69120919D03*
%TO.P,U2,10,PA5_A9_D9_MISO*%
%TO.N,V6*%
X208629686Y-71657438D03*
%TO.P,U2,11,PA6_A10_D10_MOSI*%
%TO.N,unconnected-(U2-PA6_A10_D10_MOSI-Pad11)*%
X208496753Y-74193957D03*
%TO.P,U2,12,3V3*%
%TO.N,3V3*%
X208363819Y-76730476D03*
%TO.P,U2,13,GND*%
%TO.N,GND*%
X208230886Y-79266995D03*
%TO.P,U2,14,5V*%
%TO.N,Net-(D1-K)*%
X208097953Y-81803514D03*
D16*
%TO.P,U2,15,5V*%
%TO.N,unconnected-(U2-5V-Pad15)*%
X221014554Y-75232511D03*
%TO.P,U2,16,GND*%
%TO.N,unconnected-(U2-GND-Pad16)*%
X220914854Y-77134901D03*
D17*
%TO.P,U2,17,PA31_SWDIO*%
%TO.N,unconnected-(U2-PA31_SWDIO-Pad17)*%
X217412134Y-83305038D03*
%TO.P,U2,18,PA30_SWCLK*%
%TO.N,unconnected-(U2-PA30_SWCLK-Pad18)*%
X214875615Y-83172105D03*
%TO.P,U2,19,RESET*%
%TO.N,unconnected-(U2-RESET-Pad19)*%
X217545067Y-80768519D03*
%TO.P,U2,20,GND*%
%TO.N,unconnected-(U2-GND-Pad20)*%
X215008548Y-80635586D03*
%TO.P,U2,21*%
%TO.N,N/C*%
X217678000Y-78232000D03*
%TO.P,U2,22*%
X215141481Y-78099067D03*
%TO.P,U2,23*%
X217810934Y-75695481D03*
%TO.P,U2,24*%
X215274415Y-75562548D03*
%TD*%
D18*
%TO.P,D1,1,K*%
%TO.N,Net-(D1-K)*%
X206349385Y-59739040D03*
%TO.P,D1,2,A*%
%TO.N,5V*%
X202590615Y-58370960D03*
%TD*%
D19*
%TO.P,J1,1,Pin_1*%
%TO.N,GND*%
X145551665Y-65753375D03*
D20*
%TO.P,J1,2,Pin_2*%
%TO.N,5V*%
X148082000Y-65532000D03*
%TD*%
D21*
%TO.P,Q3,1,G*%
%TO.N,V3*%
X151873500Y-68326000D03*
%TO.P,Q3,2,S*%
%TO.N,GND*%
X151873500Y-70226000D03*
%TO.P,Q3,3,D*%
%TO.N,Net-(D4-A)*%
X153748500Y-69276000D03*
%TD*%
D22*
%TO.P,D2,1,K*%
%TO.N,5V*%
X232265341Y-66746348D03*
%TO.P,D2,2,A*%
%TO.N,Net-(D2-A)*%
X228270823Y-66537004D03*
%TD*%
D23*
%TO.P,J8,1,1*%
%TO.N,unconnected-(J8-Pad1)*%
X217382709Y-62574937D03*
%TO.P,J8,2,2*%
%TO.N,GND*%
X216134422Y-62509517D03*
%TO.P,J8,3,3*%
%TO.N,SCL*%
X214886135Y-62444097D03*
%TO.P,J8,4,4*%
%TO.N,SDA*%
X213637848Y-62378678D03*
%TO.P,J8,5,5*%
%TO.N,5V*%
X212389561Y-62313258D03*
D24*
%TO.P,J8,6*%
%TO.N,N/C*%
X209994830Y-59283776D03*
%TO.P,J8,7*%
X220080989Y-59812369D03*
%TD*%
D22*
%TO.P,D3,1,K*%
%TO.N,5V*%
X231792082Y-70451676D03*
%TO.P,D3,2,A*%
%TO.N,Net-(D3-A)*%
X227797564Y-70242332D03*
%TD*%
D25*
%TO.P,J7,1,Pin_1*%
%TO.N,Net-(D7-A)*%
X147983733Y-81245433D03*
%TO.P,J7,2,Pin_2*%
%TO.N,5V*%
X148092678Y-82490676D03*
D26*
%TO.P,J7,3*%
%TO.N,N/C*%
X145575389Y-85270651D03*
%TO.P,J7,4*%
X145021949Y-78944815D03*
%TD*%
D23*
%TO.P,J9,1,1*%
%TO.N,unconnected-(J9-Pad1)*%
X162003684Y-63737360D03*
%TO.P,J9,2,2*%
%TO.N,GND*%
X160755397Y-63671939D03*
%TO.P,J9,3,3*%
%TO.N,SCL*%
X159507110Y-63606520D03*
%TO.P,J9,4,4*%
%TO.N,SDA*%
X158258823Y-63541099D03*
%TO.P,J9,5,5*%
%TO.N,5V*%
X157010536Y-63475680D03*
D24*
%TO.P,J9,6*%
%TO.N,N/C*%
X154615806Y-60446198D03*
%TO.P,J9,7*%
X164701963Y-60974792D03*
%TD*%
D27*
%TO.P,Q6,1,G*%
%TO.N,V6*%
X154940000Y-73782000D03*
%TO.P,Q6,2,S*%
%TO.N,GND*%
X154940000Y-71882000D03*
%TO.P,Q6,3,D*%
%TO.N,Net-(D7-A)*%
X153065000Y-72832000D03*
%TD*%
D14*
%TO.P,R2,1*%
%TO.N,SCL*%
X230763071Y-57819883D03*
%TO.P,R2,2*%
%TO.N,3V3*%
X233858823Y-57982125D03*
%TD*%
D27*
%TO.P,Q5,1,G*%
%TO.N,V5*%
X157812500Y-70160000D03*
%TO.P,Q5,2,S*%
%TO.N,GND*%
X157812500Y-68260000D03*
%TO.P,Q5,3,D*%
%TO.N,Net-(D6-A)*%
X155937500Y-69210000D03*
%TD*%
D28*
%TO.P,J2,1,Pin_1*%
%TO.N,Net-(D2-A)*%
X230568514Y-63736779D03*
%TO.P,J2,2,Pin_2*%
%TO.N,5V*%
X229320227Y-63671359D03*
D24*
%TO.P,J2,3*%
%TO.N,N/C*%
X226917646Y-60791671D03*
%TO.P,J2,4*%
X233258944Y-61124004D03*
%TD*%
D29*
%TO.P,Q1,1,G*%
%TO.N,V1*%
X222309427Y-63389566D03*
%TO.P,Q1,2,S*%
%TO.N,GND*%
X224206823Y-63489004D03*
%TO.P,Q1,3,D*%
%TO.N,Net-(D2-A)*%
X223356255Y-61566855D03*
%TD*%
D30*
%TO.P,J10,1,1*%
%TO.N,unconnected-(J10-Pad1)*%
X149047630Y-62365558D03*
%TO.P,J10,2,2*%
%TO.N,GND*%
X147802387Y-62474502D03*
%TO.P,J10,3,3*%
%TO.N,SCL*%
X146557144Y-62583448D03*
%TO.P,J10,4,4*%
%TO.N,SDA*%
X145311900Y-62692392D03*
%TO.P,J10,5,5*%
%TO.N,5V*%
X144066656Y-62801337D03*
D31*
%TO.P,J10,6*%
%TO.N,N/C*%
X141273609Y-60134620D03*
%TO.P,J10,7*%
X151335179Y-59254347D03*
%TD*%
D32*
%TO.P,D7,1,K*%
%TO.N,5V*%
X151304311Y-84034389D03*
%TO.P,D7,2,A*%
%TO.N,Net-(D7-A)*%
X150955689Y-80049611D03*
%TD*%
D33*
%TO.P,D5,1,K*%
%TO.N,5V*%
X158066500Y-80230000D03*
%TO.P,D5,2,A*%
%TO.N,Net-(D5-A)*%
X158066500Y-84230000D03*
%TD*%
D21*
%TO.P,Q4,1,G*%
%TO.N,V4*%
X153065000Y-75438000D03*
%TO.P,Q4,2,S*%
%TO.N,GND*%
X153065000Y-77338000D03*
%TO.P,Q4,3,D*%
%TO.N,Net-(D5-A)*%
X154940000Y-76388000D03*
%TD*%
D12*
%TO.P,J5,1,Pin_1*%
%TO.N,Net-(D5-A)*%
X161150700Y-81839000D03*
%TO.P,J5,2,Pin_2*%
%TO.N,5V*%
X161150700Y-80589000D03*
D13*
%TO.P,J5,3*%
%TO.N,N/C*%
X163900700Y-78039000D03*
%TO.P,J5,4*%
X163900700Y-84389000D03*
%TD*%
D33*
%TO.P,D4,1,K*%
%TO.N,5V*%
X158066500Y-72864000D03*
%TO.P,D4,2,A*%
%TO.N,Net-(D4-A)*%
X158066500Y-76864000D03*
%TD*%
D34*
%TO.P,J3,1,Pin_1*%
%TO.N,Net-(D3-A)*%
X227007048Y-77724695D03*
%TO.P,J3,2,Pin_2*%
%TO.N,5V*%
X227072468Y-76476408D03*
D35*
%TO.P,J3,3*%
%TO.N,N/C*%
X229952156Y-74073827D03*
%TO.P,J3,4*%
X229619823Y-80415125D03*
%TD*%
D25*
%TO.P,J6,1,Pin_1*%
%TO.N,Net-(D6-A)*%
X145796000Y-71847433D03*
%TO.P,J6,2,Pin_2*%
%TO.N,5V*%
X145904944Y-73092676D03*
D26*
%TO.P,J6,3*%
%TO.N,N/C*%
X143387656Y-75872651D03*
%TO.P,J6,4*%
X142834216Y-69546815D03*
%TD*%
D36*
%TO.N,5V*%
X227072468Y-76476408D03*
X154262111Y-84034389D03*
X212389561Y-62313258D03*
X158066500Y-80230000D03*
X212389561Y-62313258D03*
%TO.N,Net-(D3-A)*%
X227797564Y-70242332D03*
X227007048Y-77724695D03*
%TO.N,Net-(D4-A)*%
X158066500Y-76864000D03*
X161150700Y-72441000D03*
X153748500Y-69177000D03*
%TO.N,GND*%
X219964000Y-71374000D03*
X213360000Y-66802000D03*
X216408000Y-72644000D03*
X164592000Y-65786000D03*
X230378000Y-61468000D03*
X224790000Y-61214000D03*
X220980000Y-82042000D03*
X211836000Y-70358000D03*
X214376000Y-57658000D03*
X162306000Y-60452000D03*
X156210000Y-70612000D03*
X154178000Y-85598000D03*
X143256000Y-72644000D03*
X155956000Y-56896000D03*
X145796000Y-58674000D03*
X210185000Y-62230000D03*
X217170000Y-67564000D03*
X224383600Y-65582800D03*
X212344000Y-77724000D03*
X159207200Y-60553600D03*
X160274000Y-66548000D03*
X163830000Y-71628000D03*
X227584000Y-68580000D03*
X144272000Y-82042000D03*
X163576000Y-81534000D03*
X167386000Y-61214000D03*
X229362000Y-85598000D03*
X141732000Y-64516000D03*
X218948000Y-65278000D03*
X229870000Y-68580000D03*
X227330000Y-63246000D03*
X211836000Y-82804000D03*
X221488000Y-67818000D03*
X217424000Y-60198000D03*
%TO.N,SDA*%
X158089600Y-61722000D03*
X145311900Y-62692392D03*
X224772532Y-72503449D03*
X225433470Y-57522530D03*
%TO.N,SCL*%
X224905466Y-69966930D03*
X158191200Y-65024000D03*
X146557144Y-62583448D03*
X229108000Y-60960000D03*
%TO.N,3V3*%
X223413205Y-58526795D03*
X228572575Y-57728125D03*
X233858823Y-57982125D03*
%TO.N,Net-(D1-K)*%
X206344135Y-60052250D03*
X208097953Y-81803514D03*
%TO.N,V3*%
X224506666Y-77576487D03*
X151873500Y-68326000D03*
%TO.N,V4*%
X224639599Y-75039968D03*
X153065000Y-75438000D03*
%TO.N,V5*%
X208762619Y-69120919D03*
X157812500Y-70160000D03*
%TO.N,V6*%
X208629686Y-71657438D03*
X154940000Y-73782000D03*
%TD*%
D37*
%TO.N,5V*%
X148748187Y-71144385D02*
X146799896Y-73092676D01*
X161150700Y-79407200D02*
X160020000Y-78276500D01*
X157029652Y-65532000D02*
X159810500Y-68312848D01*
X202590615Y-58370960D02*
X203983902Y-56977673D01*
X148082000Y-65532000D02*
X157029652Y-65532000D01*
X211354017Y-56977673D02*
X212389561Y-58013217D01*
X161150700Y-69653048D02*
X159810500Y-68312848D01*
X160020000Y-78276500D02*
X158066500Y-80230000D01*
X232265341Y-66746348D02*
X232265341Y-69978417D01*
X149636391Y-84034389D02*
X148092678Y-82490676D01*
X154044245Y-65532000D02*
X148082000Y-65532000D01*
X148082000Y-65532000D02*
X148082000Y-69223423D01*
X229320227Y-64581195D02*
X231485380Y-66746348D01*
X156778122Y-62798122D02*
X154044245Y-65532000D01*
X202590615Y-58370960D02*
X201369655Y-57150000D01*
D38*
X144066656Y-63655487D02*
X144792696Y-64381527D01*
D37*
X156778122Y-62798122D02*
X156778122Y-63243266D01*
X161150700Y-71191000D02*
X161150700Y-69653048D01*
X228172341Y-72188352D02*
X227072468Y-73288225D01*
X232265341Y-69978417D02*
X231792082Y-70451676D01*
X160655000Y-57150000D02*
X156778122Y-61026878D01*
X212389561Y-58013217D02*
X212389561Y-62313258D01*
X156778122Y-61026878D02*
X156778122Y-62798122D01*
X148082000Y-69223423D02*
X148748187Y-69889610D01*
X156778122Y-63243266D02*
X157010536Y-63475680D01*
D38*
X146511159Y-64381527D02*
X146899632Y-64770000D01*
D37*
X151304311Y-84034389D02*
X154262111Y-84034389D01*
D38*
X146899632Y-64770000D02*
X147320000Y-64770000D01*
D37*
X160020000Y-74817500D02*
X160020000Y-78276500D01*
X230055406Y-72188352D02*
X228172341Y-72188352D01*
X161150700Y-80589000D02*
X161150700Y-79407200D01*
X229320227Y-63671359D02*
X229320227Y-64581195D01*
X201369655Y-57150000D02*
X160655000Y-57150000D01*
X158066500Y-72864000D02*
X160020000Y-74817500D01*
X159810500Y-71120000D02*
X158066500Y-72864000D01*
X148748187Y-69889610D02*
X148748187Y-71144385D01*
X231485380Y-66746348D02*
X232265341Y-66746348D01*
X231792082Y-70451676D02*
X230055406Y-72188352D01*
X203983902Y-56977673D02*
X211354017Y-56977673D01*
X159810500Y-68312848D02*
X159810500Y-71120000D01*
X227072468Y-73288225D02*
X227072468Y-76476408D01*
D38*
X147320000Y-64770000D02*
X148082000Y-65532000D01*
D37*
X146799896Y-73092676D02*
X145904944Y-73092676D01*
D38*
X144792696Y-64381527D02*
X146511159Y-64381527D01*
X144066656Y-62801337D02*
X144066656Y-63655487D01*
D37*
X151304311Y-84034389D02*
X149636391Y-84034389D01*
D38*
%TO.N,Net-(D3-A)*%
X227007048Y-81592048D02*
X228699038Y-83284038D01*
X227007048Y-77724695D02*
X227007048Y-81592048D01*
X228699038Y-83284038D02*
X228699038Y-84455000D01*
D37*
%TO.N,Net-(D5-A)*%
X158066500Y-84230000D02*
X158759700Y-84230000D01*
X154940000Y-76388000D02*
X154940000Y-81103500D01*
X154940000Y-81103500D02*
X158066500Y-84230000D01*
X158759700Y-84230000D02*
X161150700Y-81839000D01*
D39*
%TO.N,V1*%
X224240799Y-82649525D02*
X222604651Y-81013377D01*
X222604651Y-81013377D02*
X222604651Y-63684790D01*
X222604651Y-63684790D02*
X222309427Y-63389566D01*
D38*
%TO.N,V2*%
X224373732Y-80113006D02*
X224408978Y-80113006D01*
X224408978Y-80113006D02*
X226876327Y-82580355D01*
X226876327Y-82580355D02*
X226876327Y-83408172D01*
D39*
%TO.N,SDA*%
X162740488Y-59239000D02*
X162740488Y-59210023D01*
X218440000Y-56515000D02*
X213637848Y-61317152D01*
X158538337Y-62409517D02*
X159202673Y-62409517D01*
X225433470Y-57522530D02*
X224425940Y-56515000D01*
X163357822Y-58592689D02*
X166092630Y-58592689D01*
X207689426Y-63510261D02*
X213358333Y-63510261D01*
X158258823Y-63541099D02*
X158258823Y-62689031D01*
X159202673Y-62409517D02*
X162373190Y-59239000D01*
X224425940Y-56515000D02*
X218440000Y-56515000D01*
X213637848Y-63230746D02*
X213637848Y-62378678D01*
X162373190Y-59239000D02*
X162740488Y-59239000D01*
X213358333Y-63510261D02*
X213637848Y-63230746D01*
X158258823Y-62689031D02*
X158538337Y-62409517D01*
X162740488Y-59210023D02*
X163357822Y-58592689D01*
X166663438Y-59944000D02*
X204123165Y-59944000D01*
X213637848Y-61317152D02*
X213637848Y-62378678D01*
X166663438Y-59163497D02*
X166663438Y-59944000D01*
X158258823Y-61891223D02*
X158089600Y-61722000D01*
X166092630Y-58592689D02*
X166663438Y-59163497D01*
X225476823Y-57565883D02*
X225433470Y-57522530D01*
X158258823Y-63541099D02*
X158258823Y-61891223D01*
X204123165Y-59944000D02*
X207689426Y-63510261D01*
%TO.N,SCL*%
X159507110Y-63606520D02*
X159507110Y-64458588D01*
X204501355Y-60960000D02*
X203866355Y-60960000D01*
X214886135Y-63296165D02*
X214221039Y-63961261D01*
X166476628Y-60395000D02*
X166212438Y-60130810D01*
X163544632Y-59043689D02*
X163191488Y-59396833D01*
X162850000Y-61178000D02*
X161072000Y-61178000D01*
X166212438Y-59350307D02*
X165905820Y-59043689D01*
X224155000Y-57785000D02*
X224155000Y-58100450D01*
X230763071Y-57819883D02*
X230763071Y-59304929D01*
X158941698Y-65024000D02*
X158191200Y-65024000D01*
X224155000Y-58100450D02*
X224842457Y-58787907D01*
X230763071Y-59304929D02*
X229108000Y-60960000D01*
X159507110Y-62742890D02*
X161072000Y-61178000D01*
X166212438Y-60130810D02*
X166212438Y-59350307D01*
X207502616Y-63961261D02*
X204501355Y-60960000D01*
X227938209Y-58950149D02*
X229632805Y-58950149D01*
X214886135Y-62444097D02*
X214886135Y-63296165D01*
X165905820Y-59043689D02*
X163544632Y-59043689D01*
X203866355Y-60960000D02*
X203301355Y-60395000D01*
X227775967Y-58787907D02*
X227938209Y-58950149D01*
X218626810Y-56966000D02*
X214886135Y-60706675D01*
X218626810Y-56966000D02*
X223336000Y-56966000D01*
X224842457Y-58787907D02*
X227775967Y-58787907D01*
X163191488Y-59396833D02*
X163191488Y-60836512D01*
X214221039Y-63961261D02*
X207502616Y-63961261D01*
X159507110Y-64458588D02*
X158941698Y-65024000D01*
X163191488Y-60836512D02*
X162850000Y-61178000D01*
X223336000Y-56966000D02*
X224155000Y-57785000D01*
X214886135Y-60706675D02*
X214886135Y-62444097D01*
X203301355Y-60395000D02*
X166476628Y-60395000D01*
X229632805Y-58950149D02*
X230763071Y-57819883D01*
X159507110Y-63606520D02*
X159507110Y-62742890D01*
D38*
%TO.N,Net-(D6-A)*%
X145145826Y-71847433D02*
X144769968Y-72223291D01*
X155120500Y-70027000D02*
X153747000Y-70027000D01*
X144769968Y-73701265D02*
X145773849Y-74705146D01*
X153747000Y-70027000D02*
X149899610Y-73874390D01*
X149899610Y-73874390D02*
X149096813Y-73874390D01*
X145796000Y-71847433D02*
X145145826Y-71847433D01*
X155937500Y-69210000D02*
X155120500Y-70027000D01*
X148266057Y-74705146D02*
X149096813Y-73874390D01*
X144769968Y-72223291D02*
X144769968Y-73701265D01*
X145773849Y-74705146D02*
X148266057Y-74705146D01*
D37*
%TO.N,Net-(D7-A)*%
X149759867Y-81245433D02*
X150955689Y-80049611D01*
X150955689Y-74941311D02*
X153065000Y-72832000D01*
X147983733Y-81245433D02*
X149759867Y-81245433D01*
X150955689Y-80049611D02*
X150955689Y-74941311D01*
%TO.N,3V3*%
X208363819Y-76730476D02*
X209740706Y-76730476D01*
X222324147Y-61453898D02*
X222324147Y-59615853D01*
X222324147Y-59615853D02*
X223413205Y-58526795D01*
X221277319Y-62500726D02*
X222324147Y-61453898D01*
X209740706Y-76730476D02*
X221277319Y-65193863D01*
X221277319Y-65193863D02*
X221277319Y-62500726D01*
D38*
%TO.N,Net-(D2-A)*%
X229901730Y-62421406D02*
X228553121Y-62421406D01*
X228270823Y-65939816D02*
X228270823Y-66537004D01*
X228553121Y-62421406D02*
X228270823Y-62703704D01*
X230568514Y-63736779D02*
X230568514Y-63088190D01*
X230568514Y-63088190D02*
X229901730Y-62421406D01*
X228270823Y-62703704D02*
X228270823Y-66537004D01*
X223897862Y-61566855D02*
X228270823Y-65939816D01*
X223356255Y-61566855D02*
X223897862Y-61566855D01*
%TD*%
%TA.AperFunction,Conductor*%
%TO.N,GND*%
G36*
X206503050Y-55880516D02*
G01*
X218124074Y-56073311D01*
X218190777Y-56094105D01*
X218235649Y-56147661D01*
X218244444Y-56216975D01*
X218214369Y-56280040D01*
X218209697Y-56284975D01*
X213377385Y-61117287D01*
X213377381Y-61117293D01*
X213334529Y-61191514D01*
X213333836Y-61194102D01*
X213332654Y-61196040D01*
X213331419Y-61199023D01*
X213330953Y-61198830D01*
X213297472Y-61253763D01*
X213234625Y-61284293D01*
X213165250Y-61275999D01*
X213111371Y-61231514D01*
X213090096Y-61164962D01*
X213090061Y-61162010D01*
X213090061Y-57944221D01*
X213090060Y-57944219D01*
X213063143Y-57808898D01*
X213063138Y-57808880D01*
X213062021Y-57806184D01*
X213062018Y-57806178D01*
X213038795Y-57750113D01*
X213025786Y-57718706D01*
X213010336Y-57681406D01*
X213010335Y-57681404D01*
X213010334Y-57681402D01*
X212933676Y-57566676D01*
X212887148Y-57520148D01*
X212836103Y-57469103D01*
X212583314Y-57216314D01*
X211800563Y-56433561D01*
X211800562Y-56433560D01*
X211685824Y-56356895D01*
X211558349Y-56304094D01*
X211558339Y-56304091D01*
X211423013Y-56277173D01*
X211423011Y-56277173D01*
X211423010Y-56277173D01*
X203914909Y-56277173D01*
X203914905Y-56277173D01*
X203806492Y-56298738D01*
X203806491Y-56298738D01*
X203793033Y-56301415D01*
X203779575Y-56304092D01*
X203753170Y-56315029D01*
X203726768Y-56325965D01*
X203726766Y-56325966D01*
X203726765Y-56325965D01*
X203652093Y-56356896D01*
X203582461Y-56403424D01*
X203582460Y-56403425D01*
X203537356Y-56433561D01*
X202778787Y-57192130D01*
X202717464Y-57225615D01*
X202648696Y-57220971D01*
X202332701Y-57105959D01*
X202287430Y-57077118D01*
X201816201Y-56605888D01*
X201816200Y-56605887D01*
X201701462Y-56529222D01*
X201573987Y-56476421D01*
X201573977Y-56476418D01*
X201438651Y-56449500D01*
X201438649Y-56449500D01*
X201438648Y-56449500D01*
X160586007Y-56449500D01*
X160586003Y-56449500D01*
X160477590Y-56471065D01*
X160477589Y-56471065D01*
X160464131Y-56473742D01*
X160450673Y-56476419D01*
X160433580Y-56483499D01*
X160397866Y-56498292D01*
X160397864Y-56498293D01*
X160397863Y-56498292D01*
X160323191Y-56529223D01*
X160226726Y-56593680D01*
X160208460Y-56605884D01*
X160208454Y-56605889D01*
X156234010Y-60580331D01*
X156234009Y-60580332D01*
X156157346Y-60695068D01*
X156150277Y-60712134D01*
X156106434Y-60766536D01*
X156040140Y-60788599D01*
X155972441Y-60771318D01*
X155924832Y-60720180D01*
X155911887Y-60658190D01*
X155998922Y-58997471D01*
X156001540Y-58947521D01*
X156001237Y-58945432D01*
X155992984Y-58888508D01*
X155992294Y-58887348D01*
X155952202Y-58819962D01*
X155952201Y-58819961D01*
X155952200Y-58819959D01*
X155930198Y-58803529D01*
X155888290Y-58772234D01*
X155869024Y-58767341D01*
X155830495Y-58757556D01*
X155627042Y-58746893D01*
X153584283Y-58639836D01*
X153525267Y-58648393D01*
X153456721Y-58689174D01*
X153408996Y-58753085D01*
X153402962Y-58776844D01*
X153394318Y-58810881D01*
X153391191Y-58870556D01*
X153230071Y-61944874D01*
X153238628Y-62003889D01*
X153279409Y-62072433D01*
X153279410Y-62072434D01*
X153279412Y-62072437D01*
X153279415Y-62072439D01*
X153343321Y-62120161D01*
X153343322Y-62120161D01*
X153343323Y-62120162D01*
X153401117Y-62134840D01*
X155439937Y-62241690D01*
X155647328Y-62252559D01*
X155647328Y-62252558D01*
X155647330Y-62252559D01*
X155706342Y-62244003D01*
X155724959Y-62232927D01*
X155774890Y-62203221D01*
X155775414Y-62202520D01*
X155822616Y-62139309D01*
X155833438Y-62096696D01*
X155869018Y-62036568D01*
X155931460Y-62005219D01*
X156000938Y-62012605D01*
X156055394Y-62056381D01*
X156077538Y-62122649D01*
X156077622Y-62127222D01*
X156077622Y-62456603D01*
X156057937Y-62523642D01*
X156041303Y-62544284D01*
X153790407Y-64795181D01*
X153729084Y-64828666D01*
X153702726Y-64831500D01*
X148918494Y-64831500D01*
X148851455Y-64811815D01*
X148830817Y-64795185D01*
X148751655Y-64716023D01*
X148579598Y-64601059D01*
X148575969Y-64599556D01*
X148388420Y-64521870D01*
X148388412Y-64521868D01*
X148185469Y-64481500D01*
X148185465Y-64481500D01*
X147978535Y-64481500D01*
X147978530Y-64481500D01*
X147785029Y-64519990D01*
X147715437Y-64513763D01*
X147673157Y-64486054D01*
X147596616Y-64409513D01*
X147596614Y-64409511D01*
X147543406Y-64378791D01*
X147493888Y-64350201D01*
X147472968Y-64344596D01*
X147469673Y-64343713D01*
X147469670Y-64343712D01*
X147408292Y-64327266D01*
X147379309Y-64319500D01*
X147379308Y-64319500D01*
X147137598Y-64319500D01*
X147070559Y-64299815D01*
X147049917Y-64283181D01*
X146787775Y-64021040D01*
X146787773Y-64021038D01*
X146736409Y-63991383D01*
X146685047Y-63961728D01*
X146672939Y-63958484D01*
X146660832Y-63955240D01*
X146660829Y-63955239D01*
X146622637Y-63945005D01*
X146570468Y-63931027D01*
X146570467Y-63931027D01*
X145913086Y-63931027D01*
X145846047Y-63911342D01*
X145800292Y-63858538D01*
X145790348Y-63789380D01*
X145819373Y-63725824D01*
X145844152Y-63703954D01*
X145860037Y-63693329D01*
X145885308Y-63685964D01*
X145947515Y-63636037D01*
X145948564Y-63634124D01*
X145961031Y-63625787D01*
X145989430Y-63616881D01*
X146016952Y-63605545D01*
X146022408Y-63606540D01*
X146027700Y-63604881D01*
X146056406Y-63612743D01*
X146085687Y-63618085D01*
X146089608Y-63620146D01*
X146095047Y-63623130D01*
X146095048Y-63623131D01*
X146164979Y-63661497D01*
X146224253Y-63667988D01*
X146954656Y-63604086D01*
X147023155Y-63617853D01*
X147057874Y-63644933D01*
X147146999Y-63744548D01*
X147269164Y-63820348D01*
X147407745Y-63858661D01*
X147467638Y-63859849D01*
X147671076Y-63842049D01*
X147553338Y-62496291D01*
X147435599Y-61150531D01*
X147435598Y-61150530D01*
X147232153Y-61168330D01*
X147173386Y-61179898D01*
X147043562Y-61241695D01*
X146936411Y-61337561D01*
X146936411Y-61337562D01*
X146865940Y-61451137D01*
X146813868Y-61497723D01*
X146771382Y-61509288D01*
X146040983Y-61573189D01*
X146040982Y-61573190D01*
X145983736Y-61589876D01*
X145983735Y-61589876D01*
X145983734Y-61589877D01*
X145983733Y-61589877D01*
X145916693Y-61643684D01*
X145852089Y-61670294D01*
X145783354Y-61657753D01*
X145779435Y-61655693D01*
X145772926Y-61652122D01*
X145704065Y-61614343D01*
X145704063Y-61614342D01*
X145704062Y-61614342D01*
X145644797Y-61607852D01*
X145644784Y-61607852D01*
X144795739Y-61682133D01*
X144795738Y-61682134D01*
X144738492Y-61698820D01*
X144738491Y-61698820D01*
X144738490Y-61698821D01*
X144738489Y-61698821D01*
X144671447Y-61752629D01*
X144606843Y-61779239D01*
X144538109Y-61766697D01*
X144534191Y-61764637D01*
X144458822Y-61723288D01*
X144458817Y-61723287D01*
X144399553Y-61716797D01*
X144399540Y-61716797D01*
X143550495Y-61791078D01*
X143550494Y-61791079D01*
X143493248Y-61807765D01*
X143493247Y-61807765D01*
X143493246Y-61807766D01*
X143493245Y-61807766D01*
X143431040Y-61857692D01*
X143392675Y-61927622D01*
X143386183Y-61986894D01*
X143386183Y-61986903D01*
X143537946Y-63721565D01*
X143537947Y-63721567D01*
X143554633Y-63778813D01*
X143554634Y-63778814D01*
X143554634Y-63778815D01*
X143587969Y-63820348D01*
X143604560Y-63841020D01*
X143645902Y-63863701D01*
X143693645Y-63910413D01*
X143706168Y-63932103D01*
X143993829Y-64219763D01*
X144249442Y-64475377D01*
X144282927Y-64536699D01*
X144277943Y-64606390D01*
X144249025Y-64648754D01*
X144249556Y-64649200D01*
X144245081Y-64654532D01*
X144244445Y-64655465D01*
X144243858Y-64655989D01*
X144243856Y-64655992D01*
X144168052Y-64778163D01*
X144129739Y-64916746D01*
X144128551Y-64976637D01*
X144185012Y-65621986D01*
X145096198Y-65542267D01*
X145085740Y-65560382D01*
X145051665Y-65687549D01*
X145051665Y-65819201D01*
X145085740Y-65946368D01*
X145139997Y-66040344D01*
X144228589Y-66120082D01*
X144285051Y-66765439D01*
X144296619Y-66824204D01*
X144296622Y-66824214D01*
X144358415Y-66954031D01*
X144358416Y-66954032D01*
X144454282Y-67061183D01*
X144576453Y-67136987D01*
X144715036Y-67175300D01*
X144774926Y-67176488D01*
X145420276Y-67120026D01*
X145340558Y-66208841D01*
X145358672Y-66219300D01*
X145485839Y-66253375D01*
X145617491Y-66253375D01*
X145744658Y-66219300D01*
X145838635Y-66165041D01*
X145918372Y-67076449D01*
X146563729Y-67019988D01*
X146622494Y-67008420D01*
X146622504Y-67008417D01*
X146752321Y-66946624D01*
X146752322Y-66946623D01*
X146859473Y-66850757D01*
X146935277Y-66728586D01*
X146973590Y-66590003D01*
X146974778Y-66530112D01*
X146940000Y-66132600D01*
X146953767Y-66064100D01*
X147002382Y-66013917D01*
X147070410Y-65997984D01*
X147136254Y-66021359D01*
X147166630Y-66052902D01*
X147266023Y-66201655D01*
X147345182Y-66280814D01*
X147378666Y-66342135D01*
X147381500Y-66368494D01*
X147381500Y-69154429D01*
X147381500Y-69292417D01*
X147381500Y-69292419D01*
X147381499Y-69292419D01*
X147408418Y-69427745D01*
X147408421Y-69427755D01*
X147461222Y-69555230D01*
X147534660Y-69665139D01*
X147537886Y-69669966D01*
X147600635Y-69732715D01*
X147634119Y-69794036D01*
X147636481Y-69809588D01*
X147743760Y-71035787D01*
X147750612Y-71073269D01*
X147747797Y-71073783D01*
X147748728Y-71130331D01*
X147716873Y-71185040D01*
X146868218Y-72033695D01*
X146806895Y-72067180D01*
X146737203Y-72062196D01*
X146681270Y-72020324D01*
X146657009Y-71956823D01*
X146600510Y-71311026D01*
X146583825Y-71253780D01*
X146533898Y-71191573D01*
X146533897Y-71191572D01*
X146463967Y-71153207D01*
X146404693Y-71146715D01*
X146404691Y-71146715D01*
X146404690Y-71146715D01*
X145074877Y-71263058D01*
X145074876Y-71263059D01*
X145017630Y-71279745D01*
X145017629Y-71279745D01*
X145017628Y-71279746D01*
X145017627Y-71279746D01*
X144955422Y-71329672D01*
X144955421Y-71329673D01*
X144917057Y-71399602D01*
X144917056Y-71399606D01*
X144916768Y-71402237D01*
X144914540Y-71407584D01*
X144913383Y-71411255D01*
X144913054Y-71411151D01*
X144889901Y-71466735D01*
X144870934Y-71485220D01*
X144409481Y-71946674D01*
X144409477Y-71946680D01*
X144350169Y-72049403D01*
X144350168Y-72049408D01*
X144319468Y-72163982D01*
X144319468Y-73760573D01*
X144339975Y-73837107D01*
X144350167Y-73875150D01*
X144374547Y-73917376D01*
X144409479Y-73977879D01*
X144409481Y-73977881D01*
X144676611Y-74245011D01*
X144710096Y-74306334D01*
X144705112Y-74376026D01*
X144663240Y-74431959D01*
X144599737Y-74456220D01*
X141710710Y-74708978D01*
X141710697Y-74708981D01*
X141653462Y-74725663D01*
X141653457Y-74725665D01*
X141591252Y-74775591D01*
X141552887Y-74845521D01*
X141546395Y-74904793D01*
X141546395Y-74904802D01*
X141742433Y-77145528D01*
X141742436Y-77145541D01*
X141759117Y-77202775D01*
X141759120Y-77202781D01*
X141809045Y-77264985D01*
X141809047Y-77264986D01*
X141878978Y-77303352D01*
X141938252Y-77309844D01*
X145064606Y-77036323D01*
X145121853Y-77019637D01*
X145184059Y-76969711D01*
X145222425Y-76899780D01*
X145228917Y-76840506D01*
X145062714Y-74940808D01*
X145076481Y-74872311D01*
X145125096Y-74822128D01*
X145193124Y-74806195D01*
X145258968Y-74829570D01*
X145273923Y-74842323D01*
X145497235Y-75065635D01*
X145599962Y-75124945D01*
X145624170Y-75131430D01*
X145624173Y-75131432D01*
X145624174Y-75131432D01*
X145654296Y-75139503D01*
X145714540Y-75155646D01*
X148081222Y-75155646D01*
X148148261Y-75175331D01*
X148174195Y-75197597D01*
X148243595Y-75276237D01*
X148243598Y-75276239D01*
X148359472Y-75347048D01*
X148359473Y-75347048D01*
X148359476Y-75347050D01*
X148491080Y-75380561D01*
X148521646Y-75380751D01*
X148521646Y-75380750D01*
X148521650Y-75380751D01*
X149277049Y-75314662D01*
X149924818Y-75257990D01*
X149924821Y-75257989D01*
X149924826Y-75257989D01*
X149949990Y-75253389D01*
X149954887Y-75252494D01*
X150078673Y-75196640D01*
X150078675Y-75196638D01*
X150080189Y-75195955D01*
X150149392Y-75186325D01*
X150212816Y-75215638D01*
X150250323Y-75274587D01*
X150255189Y-75308982D01*
X150255189Y-78541230D01*
X150235504Y-78608269D01*
X150182700Y-78654024D01*
X150142004Y-78664757D01*
X150127706Y-78666008D01*
X150127684Y-78666011D01*
X150097615Y-78671507D01*
X150097612Y-78671507D01*
X149973826Y-78727362D01*
X149973825Y-78727362D01*
X149872008Y-78817217D01*
X149872000Y-78817226D01*
X149801195Y-78933096D01*
X149801192Y-78933102D01*
X149767682Y-79064705D01*
X149767491Y-79095277D01*
X149855120Y-80096880D01*
X149841353Y-80165380D01*
X149819273Y-80195368D01*
X149506027Y-80508615D01*
X149444706Y-80542099D01*
X149418348Y-80544933D01*
X148594416Y-80544933D01*
X148592426Y-80544715D01*
X148589934Y-80544933D01*
X147914738Y-80544933D01*
X147779410Y-80571851D01*
X147779409Y-80571852D01*
X147779408Y-80571852D01*
X147779405Y-80571853D01*
X147709878Y-80600652D01*
X147662389Y-80620322D01*
X147625745Y-80629288D01*
X147262609Y-80661059D01*
X147205363Y-80677745D01*
X147205362Y-80677745D01*
X147205361Y-80677746D01*
X147205360Y-80677746D01*
X147143155Y-80727672D01*
X147143154Y-80727673D01*
X147104790Y-80797602D01*
X147104789Y-80797606D01*
X147098299Y-80856870D01*
X147098299Y-80856883D01*
X147179222Y-81781837D01*
X147195908Y-81839086D01*
X147195909Y-81839087D01*
X147221035Y-81870394D01*
X147247645Y-81934998D01*
X147235103Y-82003733D01*
X147233044Y-82007648D01*
X147213736Y-82042843D01*
X147213734Y-82042849D01*
X147207244Y-82102113D01*
X147207244Y-82102126D01*
X147288167Y-83027080D01*
X147288168Y-83027083D01*
X147304853Y-83084329D01*
X147354780Y-83146536D01*
X147424711Y-83184902D01*
X147483985Y-83191394D01*
X147719494Y-83170789D01*
X147787992Y-83184555D01*
X147817981Y-83206636D01*
X149189844Y-84578500D01*
X149189845Y-84578501D01*
X149304583Y-84655166D01*
X149429465Y-84706893D01*
X149432063Y-84707969D01*
X149432067Y-84707969D01*
X149432068Y-84707970D01*
X149567394Y-84734889D01*
X149567397Y-84734889D01*
X149567398Y-84734889D01*
X150147268Y-84734889D01*
X150214307Y-84754574D01*
X150260062Y-84807378D01*
X150270796Y-84848082D01*
X150299884Y-85180566D01*
X150305378Y-85210621D01*
X150305380Y-85210629D01*
X150361039Y-85333980D01*
X150361234Y-85334413D01*
X150430139Y-85412492D01*
X150451093Y-85436236D01*
X150451096Y-85436238D01*
X150566970Y-85507047D01*
X150566971Y-85507047D01*
X150566974Y-85507049D01*
X150698578Y-85540560D01*
X150729144Y-85540750D01*
X150729144Y-85540749D01*
X150729148Y-85540750D01*
X151484547Y-85474661D01*
X152132316Y-85417989D01*
X152132319Y-85417988D01*
X152132324Y-85417988D01*
X152157180Y-85413444D01*
X152162385Y-85412493D01*
X152286171Y-85356639D01*
X152286173Y-85356637D01*
X152286174Y-85356637D01*
X152368176Y-85284269D01*
X152387995Y-85266779D01*
X152399165Y-85248501D01*
X152440683Y-85180558D01*
X152458807Y-85150899D01*
X152492318Y-85019294D01*
X152492509Y-84988728D01*
X152482095Y-84869696D01*
X152495861Y-84801197D01*
X152544477Y-84751014D01*
X152605623Y-84734889D01*
X154331106Y-84734889D01*
X154422152Y-84716778D01*
X154466439Y-84707969D01*
X154593922Y-84655164D01*
X154708653Y-84578503D01*
X154806225Y-84480931D01*
X154882886Y-84366200D01*
X154935691Y-84238717D01*
X154946926Y-84182234D01*
X154962611Y-84103384D01*
X154962611Y-83965393D01*
X154935692Y-83830066D01*
X154935691Y-83830065D01*
X154935691Y-83830061D01*
X154927402Y-83810049D01*
X154882889Y-83702584D01*
X154882882Y-83702571D01*
X154806225Y-83587847D01*
X154806222Y-83587843D01*
X154708656Y-83490277D01*
X154708652Y-83490274D01*
X154593928Y-83413617D01*
X154593915Y-83413610D01*
X154466443Y-83360810D01*
X154466433Y-83360807D01*
X154331106Y-83333889D01*
X154331104Y-83333889D01*
X152461354Y-83333889D01*
X152394315Y-83314204D01*
X152348560Y-83261400D01*
X152337826Y-83220696D01*
X152318397Y-82998625D01*
X152308738Y-82888220D01*
X152308737Y-82888217D01*
X152308737Y-82888211D01*
X152303243Y-82858156D01*
X152303241Y-82858148D01*
X152276426Y-82798720D01*
X152247388Y-82734365D01*
X152157529Y-82632542D01*
X152157528Y-82632541D01*
X152157525Y-82632539D01*
X152041651Y-82561730D01*
X152041648Y-82561729D01*
X151910047Y-82528218D01*
X151879473Y-82528027D01*
X150476297Y-82650789D01*
X150446242Y-82656283D01*
X150446234Y-82656285D01*
X150322448Y-82712140D01*
X150322447Y-82712140D01*
X150220630Y-82801995D01*
X150220622Y-82802004D01*
X150149817Y-82917874D01*
X150149814Y-82917880D01*
X150116304Y-83049483D01*
X150116113Y-83080054D01*
X150126527Y-83199081D01*
X150123681Y-83213240D01*
X150125737Y-83227536D01*
X150116935Y-83246808D01*
X150112761Y-83267581D01*
X150102711Y-83277953D01*
X150096712Y-83291092D01*
X150078885Y-83302548D01*
X150064145Y-83317764D01*
X150048990Y-83321760D01*
X150037934Y-83328866D01*
X150002999Y-83333889D01*
X149977910Y-83333889D01*
X149910871Y-83314204D01*
X149890229Y-83297570D01*
X148962682Y-82370023D01*
X148929197Y-82308700D01*
X148926836Y-82293156D01*
X148910123Y-82102120D01*
X148908253Y-82080740D01*
X148922020Y-82012240D01*
X148970636Y-81962057D01*
X149031781Y-81945933D01*
X149828863Y-81945933D01*
X149919907Y-81927822D01*
X149964195Y-81919013D01*
X150027936Y-81892610D01*
X150091674Y-81866210D01*
X150091675Y-81866209D01*
X150091678Y-81866208D01*
X150206410Y-81789547D01*
X150413775Y-81582180D01*
X150475094Y-81548698D01*
X150490637Y-81546337D01*
X151783694Y-81433211D01*
X151783697Y-81433210D01*
X151783702Y-81433210D01*
X151808558Y-81428666D01*
X151813763Y-81427715D01*
X151937549Y-81371861D01*
X151937551Y-81371859D01*
X151937552Y-81371859D01*
X152000541Y-81316270D01*
X152039373Y-81282001D01*
X152049080Y-81266117D01*
X152065934Y-81238534D01*
X152110185Y-81166121D01*
X152143696Y-81034516D01*
X152143887Y-81003950D01*
X151960116Y-78903442D01*
X151960115Y-78903439D01*
X151960115Y-78903433D01*
X151954621Y-78873378D01*
X151954619Y-78873370D01*
X151925072Y-78807887D01*
X151898766Y-78749587D01*
X151808907Y-78647764D01*
X151808906Y-78647763D01*
X151715530Y-78590702D01*
X151668591Y-78538948D01*
X151656189Y-78484894D01*
X151656189Y-77829416D01*
X151675874Y-77762377D01*
X151728678Y-77716622D01*
X151797836Y-77706678D01*
X151861392Y-77735703D01*
X151886921Y-77766295D01*
X151959815Y-77889553D01*
X151959821Y-77889561D01*
X152075938Y-78005678D01*
X152075947Y-78005685D01*
X152217303Y-78089282D01*
X152217306Y-78089283D01*
X152375004Y-78135099D01*
X152375010Y-78135100D01*
X152411850Y-78137999D01*
X152411866Y-78138000D01*
X152815000Y-78138000D01*
X152815000Y-76538000D01*
X152411850Y-76538000D01*
X152375010Y-76540899D01*
X152375004Y-76540900D01*
X152217306Y-76586716D01*
X152217303Y-76586717D01*
X152075947Y-76670314D01*
X152075938Y-76670321D01*
X151959821Y-76786438D01*
X151959814Y-76786447D01*
X151886921Y-76909704D01*
X151835852Y-76957388D01*
X151767110Y-76969891D01*
X151702521Y-76943246D01*
X151662591Y-76885910D01*
X151656189Y-76846583D01*
X151656189Y-75282830D01*
X151664437Y-75254739D01*
X152127000Y-75254739D01*
X152127000Y-75621260D01*
X152136926Y-75689391D01*
X152188303Y-75794485D01*
X152271014Y-75877196D01*
X152271015Y-75877196D01*
X152271017Y-75877198D01*
X152376107Y-75928573D01*
X152383362Y-75929630D01*
X152444239Y-75938500D01*
X152444240Y-75938500D01*
X152697666Y-75938500D01*
X152759665Y-75955112D01*
X152833216Y-75997577D01*
X152985943Y-76038500D01*
X152985945Y-76038500D01*
X153144055Y-76038500D01*
X153144057Y-76038500D01*
X153296784Y-75997577D01*
X153370334Y-75955112D01*
X153432334Y-75938500D01*
X153685761Y-75938500D01*
X153708471Y-75935191D01*
X153753893Y-75928573D01*
X153858983Y-75877198D01*
X153941698Y-75794483D01*
X153993073Y-75689393D01*
X154003000Y-75621260D01*
X154003000Y-75254740D01*
X153993073Y-75186607D01*
X153941698Y-75081517D01*
X153941696Y-75081515D01*
X153941696Y-75081514D01*
X153858985Y-74998803D01*
X153753891Y-74947426D01*
X153685761Y-74937500D01*
X153685760Y-74937500D01*
X153432334Y-74937500D01*
X153370334Y-74920887D01*
X153296786Y-74878424D01*
X153296785Y-74878423D01*
X153296784Y-74878423D01*
X153144057Y-74837500D01*
X152985943Y-74837500D01*
X152833216Y-74878423D01*
X152833213Y-74878424D01*
X152759666Y-74920887D01*
X152697666Y-74937500D01*
X152444239Y-74937500D01*
X152376108Y-74947426D01*
X152271014Y-74998803D01*
X152188303Y-75081514D01*
X152136926Y-75186608D01*
X152127000Y-75254739D01*
X151664437Y-75254739D01*
X151664833Y-75253389D01*
X151671357Y-75223403D01*
X151675111Y-75218387D01*
X151675874Y-75215791D01*
X151692508Y-75195149D01*
X153288918Y-73598739D01*
X154002000Y-73598739D01*
X154002000Y-73965260D01*
X154011926Y-74033391D01*
X154063303Y-74138485D01*
X154146014Y-74221196D01*
X154146015Y-74221196D01*
X154146017Y-74221198D01*
X154251107Y-74272573D01*
X154285173Y-74277536D01*
X154319239Y-74282500D01*
X154319240Y-74282500D01*
X154572666Y-74282500D01*
X154634665Y-74299112D01*
X154708216Y-74341577D01*
X154860943Y-74382500D01*
X154860945Y-74382500D01*
X155019055Y-74382500D01*
X155019057Y-74382500D01*
X155171784Y-74341577D01*
X155245334Y-74299112D01*
X155307334Y-74282500D01*
X155560761Y-74282500D01*
X155583471Y-74279191D01*
X155628893Y-74272573D01*
X155733983Y-74221198D01*
X155816698Y-74138483D01*
X155868073Y-74033393D01*
X155878000Y-73965260D01*
X155878000Y-73598740D01*
X155868073Y-73530607D01*
X155816698Y-73425517D01*
X155816696Y-73425515D01*
X155816696Y-73425514D01*
X155733985Y-73342803D01*
X155628891Y-73291426D01*
X155560761Y-73281500D01*
X155560760Y-73281500D01*
X155307334Y-73281500D01*
X155245334Y-73264887D01*
X155171786Y-73222424D01*
X155171785Y-73222423D01*
X155171784Y-73222423D01*
X155019057Y-73181500D01*
X154860943Y-73181500D01*
X154708216Y-73222423D01*
X154708213Y-73222424D01*
X154634666Y-73264887D01*
X154572666Y-73281500D01*
X154319239Y-73281500D01*
X154251108Y-73291426D01*
X154146014Y-73342803D01*
X154063303Y-73425514D01*
X154011926Y-73530608D01*
X154002000Y-73598739D01*
X153288918Y-73598739D01*
X153518838Y-73368819D01*
X153580161Y-73335334D01*
X153606519Y-73332500D01*
X153685761Y-73332500D01*
X153710468Y-73328900D01*
X153753893Y-73322573D01*
X153858983Y-73271198D01*
X153941698Y-73188483D01*
X153993073Y-73083393D01*
X154003000Y-73015260D01*
X154003000Y-72772489D01*
X154022685Y-72705450D01*
X154075489Y-72659695D01*
X154144647Y-72649751D01*
X154161596Y-72653413D01*
X154250007Y-72679099D01*
X154250010Y-72679100D01*
X154286850Y-72681999D01*
X154286866Y-72682000D01*
X154690000Y-72682000D01*
X155190000Y-72682000D01*
X155593134Y-72682000D01*
X155593149Y-72681999D01*
X155629989Y-72679100D01*
X155629995Y-72679099D01*
X155787693Y-72633283D01*
X155787696Y-72633282D01*
X155929052Y-72549685D01*
X155929061Y-72549678D01*
X156045178Y-72433561D01*
X156045185Y-72433552D01*
X156128781Y-72292198D01*
X156174600Y-72134486D01*
X156174795Y-72132001D01*
X156174795Y-72132000D01*
X155190000Y-72132000D01*
X155190000Y-72682000D01*
X154690000Y-72682000D01*
X154690000Y-72132000D01*
X153705205Y-72132000D01*
X153705204Y-72132001D01*
X153705399Y-72134488D01*
X153712938Y-72160436D01*
X153712738Y-72230305D01*
X153674795Y-72288975D01*
X153611156Y-72317818D01*
X153542027Y-72307676D01*
X153515200Y-72290886D01*
X153511549Y-72287890D01*
X153510026Y-72286872D01*
X153396811Y-72211225D01*
X153396808Y-72211223D01*
X153396807Y-72211223D01*
X153269331Y-72158421D01*
X153269329Y-72158420D01*
X153269328Y-72158420D01*
X153269323Y-72158419D01*
X153269319Y-72158418D01*
X153133998Y-72131501D01*
X153133994Y-72131501D01*
X152996006Y-72131501D01*
X152996001Y-72131501D01*
X152860678Y-72158418D01*
X152860668Y-72158421D01*
X152733190Y-72211224D01*
X152618454Y-72287887D01*
X152618453Y-72287888D01*
X152611161Y-72295181D01*
X152587486Y-72308108D01*
X152565744Y-72324075D01*
X152554688Y-72326017D01*
X152549838Y-72328666D01*
X152531189Y-72331260D01*
X152527336Y-72331500D01*
X152444240Y-72331500D01*
X152382183Y-72340541D01*
X152377073Y-72340860D01*
X152347795Y-72334208D01*
X152318064Y-72329991D01*
X152314076Y-72326548D01*
X152308940Y-72325382D01*
X152287906Y-72303957D01*
X152265174Y-72284335D01*
X152263680Y-72279282D01*
X152259990Y-72275524D01*
X152253876Y-72246125D01*
X152245364Y-72217332D01*
X152246838Y-72212275D01*
X152245766Y-72207118D01*
X152256517Y-72179083D01*
X152264923Y-72150256D01*
X152269986Y-72143960D01*
X152270784Y-72141881D01*
X152272922Y-72140310D01*
X152281680Y-72129421D01*
X152779104Y-71631998D01*
X153705204Y-71631998D01*
X153705205Y-71632000D01*
X154690000Y-71632000D01*
X155190000Y-71632000D01*
X156174795Y-71632000D01*
X156174795Y-71631998D01*
X156174600Y-71629513D01*
X156128781Y-71471801D01*
X156045185Y-71330447D01*
X156045178Y-71330438D01*
X155929061Y-71214321D01*
X155929052Y-71214314D01*
X155787696Y-71130717D01*
X155787693Y-71130716D01*
X155629995Y-71084900D01*
X155629989Y-71084899D01*
X155593149Y-71082000D01*
X155190000Y-71082000D01*
X155190000Y-71632000D01*
X154690000Y-71632000D01*
X154690000Y-71082000D01*
X154286850Y-71082000D01*
X154250010Y-71084899D01*
X154250004Y-71084900D01*
X154092306Y-71130716D01*
X154092303Y-71130717D01*
X153950947Y-71214314D01*
X153950938Y-71214321D01*
X153834821Y-71330438D01*
X153834814Y-71330447D01*
X153751218Y-71471801D01*
X153705399Y-71629513D01*
X153705204Y-71631998D01*
X152779104Y-71631998D01*
X153897284Y-70513819D01*
X153958607Y-70480334D01*
X153984965Y-70477500D01*
X155179808Y-70477500D01*
X155179809Y-70477500D01*
X155251080Y-70458401D01*
X155270166Y-70453288D01*
X155270167Y-70453287D01*
X155270173Y-70453286D01*
X155294387Y-70446799D01*
X155397114Y-70387489D01*
X155807864Y-69976739D01*
X156874500Y-69976739D01*
X156874500Y-70343260D01*
X156884426Y-70411391D01*
X156935803Y-70516485D01*
X157018514Y-70599196D01*
X157018515Y-70599196D01*
X157018517Y-70599198D01*
X157123607Y-70650573D01*
X157157673Y-70655536D01*
X157191739Y-70660500D01*
X157191740Y-70660500D01*
X157445166Y-70660500D01*
X157507165Y-70677112D01*
X157580716Y-70719577D01*
X157733443Y-70760500D01*
X157733445Y-70760500D01*
X157891555Y-70760500D01*
X157891557Y-70760500D01*
X158044284Y-70719577D01*
X158117834Y-70677112D01*
X158179834Y-70660500D01*
X158433261Y-70660500D01*
X158455971Y-70657191D01*
X158501393Y-70650573D01*
X158606483Y-70599198D01*
X158689198Y-70516483D01*
X158740573Y-70411393D01*
X158750500Y-70343260D01*
X158750500Y-69976740D01*
X158740573Y-69908607D01*
X158689198Y-69803517D01*
X158689196Y-69803515D01*
X158689196Y-69803514D01*
X158606485Y-69720803D01*
X158501391Y-69669426D01*
X158433261Y-69659500D01*
X158433260Y-69659500D01*
X158179834Y-69659500D01*
X158117834Y-69642887D01*
X158044286Y-69600424D01*
X158044285Y-69600423D01*
X158044284Y-69600423D01*
X157891557Y-69559500D01*
X157733443Y-69559500D01*
X157580716Y-69600423D01*
X157580713Y-69600424D01*
X157507166Y-69642887D01*
X157445166Y-69659500D01*
X157191739Y-69659500D01*
X157123608Y-69669426D01*
X157018514Y-69720803D01*
X156935803Y-69803514D01*
X156884426Y-69908608D01*
X156874500Y-69976739D01*
X155807864Y-69976739D01*
X156037784Y-69746819D01*
X156099107Y-69713334D01*
X156125465Y-69710500D01*
X156558261Y-69710500D01*
X156580971Y-69707191D01*
X156626393Y-69700573D01*
X156731483Y-69649198D01*
X156814198Y-69566483D01*
X156865573Y-69461393D01*
X156875500Y-69393260D01*
X156875500Y-69150489D01*
X156895185Y-69083450D01*
X156947989Y-69037695D01*
X157017147Y-69027751D01*
X157034096Y-69031413D01*
X157122507Y-69057099D01*
X157122510Y-69057100D01*
X157159350Y-69059999D01*
X157159366Y-69060000D01*
X157562500Y-69060000D01*
X157562500Y-68510000D01*
X156577705Y-68510000D01*
X156577704Y-68510001D01*
X156577899Y-68512486D01*
X156589061Y-68550905D01*
X156588861Y-68620775D01*
X156550918Y-68679445D01*
X156487280Y-68708288D01*
X156469984Y-68709500D01*
X155316739Y-68709500D01*
X155248608Y-68719426D01*
X155143514Y-68770803D01*
X155060803Y-68853514D01*
X155009426Y-68958608D01*
X154999500Y-69026739D01*
X154999500Y-69026740D01*
X154999500Y-69393260D01*
X155004525Y-69427751D01*
X155005490Y-69434372D01*
X155004849Y-69438887D01*
X155006451Y-69443156D01*
X154999986Y-69473157D01*
X154995675Y-69503549D01*
X154992426Y-69508246D01*
X154991735Y-69511458D01*
X154970640Y-69539755D01*
X154970389Y-69540007D01*
X154909133Y-69573614D01*
X154882534Y-69576500D01*
X154810500Y-69576500D01*
X154743461Y-69556815D01*
X154697706Y-69504011D01*
X154686500Y-69452500D01*
X154686500Y-69092739D01*
X154676884Y-69026740D01*
X154676573Y-69024607D01*
X154625198Y-68919517D01*
X154625196Y-68919515D01*
X154625196Y-68919514D01*
X154542485Y-68836803D01*
X154437391Y-68785426D01*
X154369261Y-68775500D01*
X154369260Y-68775500D01*
X154247598Y-68775500D01*
X154180559Y-68755815D01*
X154159917Y-68739181D01*
X154117217Y-68696481D01*
X154117209Y-68696475D01*
X153980290Y-68617426D01*
X153980286Y-68617424D01*
X153980284Y-68617423D01*
X153827557Y-68576500D01*
X153669443Y-68576500D01*
X153516716Y-68617423D01*
X153516709Y-68617426D01*
X153379790Y-68696475D01*
X153379782Y-68696481D01*
X153337083Y-68739181D01*
X153275760Y-68772666D01*
X153249402Y-68775500D01*
X153127739Y-68775500D01*
X153059608Y-68785426D01*
X152954514Y-68836803D01*
X152871803Y-68919514D01*
X152820426Y-69024608D01*
X152810500Y-69092739D01*
X152810500Y-69335510D01*
X152790815Y-69402549D01*
X152738011Y-69448304D01*
X152668853Y-69458248D01*
X152651905Y-69454586D01*
X152563495Y-69428900D01*
X152563489Y-69428899D01*
X152526649Y-69426000D01*
X152123500Y-69426000D01*
X152123500Y-70962034D01*
X152103815Y-71029073D01*
X152087181Y-71049715D01*
X150314005Y-72822890D01*
X150252682Y-72856375D01*
X150182990Y-72851391D01*
X150127057Y-72809519D01*
X150102796Y-72746014D01*
X150101240Y-72728221D01*
X150095744Y-72698152D01*
X150087147Y-72679100D01*
X150066474Y-72633282D01*
X150039890Y-72574366D01*
X149950031Y-72472543D01*
X149950030Y-72472542D01*
X149950027Y-72472540D01*
X149834153Y-72401731D01*
X149834150Y-72401730D01*
X149702549Y-72368219D01*
X149671975Y-72368028D01*
X148743682Y-72449243D01*
X148675182Y-72435476D01*
X148624999Y-72386861D01*
X148609066Y-72318832D01*
X148632441Y-72252989D01*
X148645194Y-72238034D01*
X148849534Y-72033695D01*
X149292301Y-71590928D01*
X149368962Y-71476196D01*
X149419616Y-71353905D01*
X149463455Y-71299503D01*
X149523368Y-71277831D01*
X149576192Y-71273210D01*
X149576195Y-71273209D01*
X149576200Y-71273209D01*
X149601056Y-71268665D01*
X149606261Y-71267714D01*
X149730047Y-71211860D01*
X149730049Y-71211858D01*
X149730050Y-71211858D01*
X149821993Y-71130717D01*
X149831871Y-71122000D01*
X149834910Y-71117028D01*
X149884559Y-71035779D01*
X149902683Y-71006120D01*
X149936194Y-70874515D01*
X149936385Y-70843949D01*
X149914972Y-70599196D01*
X149904194Y-70476001D01*
X150638704Y-70476001D01*
X150638899Y-70478486D01*
X150684718Y-70636198D01*
X150768314Y-70777552D01*
X150768321Y-70777561D01*
X150884438Y-70893678D01*
X150884447Y-70893685D01*
X151025803Y-70977282D01*
X151025806Y-70977283D01*
X151183504Y-71023099D01*
X151183510Y-71023100D01*
X151220350Y-71025999D01*
X151220366Y-71026000D01*
X151623500Y-71026000D01*
X151623500Y-70476000D01*
X150638705Y-70476000D01*
X150638704Y-70476001D01*
X149904194Y-70476001D01*
X149901260Y-70442463D01*
X149873895Y-70129685D01*
X149860449Y-69975998D01*
X150638704Y-69975998D01*
X150638705Y-69976000D01*
X151623500Y-69976000D01*
X151623500Y-69426000D01*
X151220350Y-69426000D01*
X151183510Y-69428899D01*
X151183504Y-69428900D01*
X151025806Y-69474716D01*
X151025803Y-69474717D01*
X150884447Y-69558314D01*
X150884438Y-69558321D01*
X150768321Y-69674438D01*
X150768314Y-69674447D01*
X150684718Y-69815801D01*
X150638899Y-69973513D01*
X150638704Y-69975998D01*
X149860449Y-69975998D01*
X149752614Y-68743441D01*
X149752613Y-68743438D01*
X149752613Y-68743432D01*
X149747119Y-68713377D01*
X149747117Y-68713369D01*
X149703824Y-68617423D01*
X149691264Y-68589586D01*
X149601405Y-68487763D01*
X149601404Y-68487762D01*
X149601401Y-68487760D01*
X149485527Y-68416951D01*
X149485524Y-68416950D01*
X149353923Y-68383439D01*
X149323349Y-68383248D01*
X148917307Y-68418772D01*
X148903148Y-68415926D01*
X148888853Y-68417982D01*
X148869578Y-68409179D01*
X148848807Y-68405005D01*
X148838434Y-68394956D01*
X148825297Y-68388957D01*
X148813841Y-68371132D01*
X148798624Y-68356390D01*
X148794627Y-68341233D01*
X148787523Y-68330179D01*
X148782500Y-68295244D01*
X148782500Y-68142739D01*
X150935500Y-68142739D01*
X150935500Y-68509260D01*
X150945426Y-68577391D01*
X150996803Y-68682485D01*
X151079514Y-68765196D01*
X151079515Y-68765196D01*
X151079517Y-68765198D01*
X151184607Y-68816573D01*
X151218673Y-68821536D01*
X151252739Y-68826500D01*
X151252740Y-68826500D01*
X151506166Y-68826500D01*
X151568165Y-68843112D01*
X151641716Y-68885577D01*
X151794443Y-68926500D01*
X151794445Y-68926500D01*
X151952555Y-68926500D01*
X151952557Y-68926500D01*
X152105284Y-68885577D01*
X152178834Y-68843112D01*
X152240834Y-68826500D01*
X152494261Y-68826500D01*
X152516971Y-68823191D01*
X152562393Y-68816573D01*
X152667483Y-68765198D01*
X152750198Y-68682483D01*
X152801573Y-68577393D01*
X152811500Y-68509260D01*
X152811500Y-68142740D01*
X152810936Y-68138872D01*
X152801573Y-68074608D01*
X152801573Y-68074607D01*
X152750198Y-67969517D01*
X152750196Y-67969515D01*
X152750196Y-67969514D01*
X152667485Y-67886803D01*
X152562391Y-67835426D01*
X152494261Y-67825500D01*
X152494260Y-67825500D01*
X152240834Y-67825500D01*
X152178834Y-67808887D01*
X152105286Y-67766424D01*
X152105285Y-67766423D01*
X152105284Y-67766423D01*
X151952557Y-67725500D01*
X151794443Y-67725500D01*
X151641716Y-67766423D01*
X151641713Y-67766424D01*
X151568166Y-67808887D01*
X151506166Y-67825500D01*
X151252739Y-67825500D01*
X151184608Y-67835426D01*
X151079514Y-67886803D01*
X150996803Y-67969514D01*
X150945426Y-68074608D01*
X150935500Y-68142739D01*
X148782500Y-68142739D01*
X148782500Y-66368494D01*
X148802185Y-66301455D01*
X148818819Y-66280813D01*
X148830813Y-66268819D01*
X148892136Y-66235334D01*
X148918494Y-66232500D01*
X153975251Y-66232500D01*
X154113239Y-66232500D01*
X156688133Y-66232500D01*
X156755172Y-66252185D01*
X156775814Y-66268819D01*
X157755314Y-67248319D01*
X157788799Y-67309642D01*
X157783815Y-67379334D01*
X157741943Y-67435267D01*
X157676479Y-67459684D01*
X157667633Y-67460000D01*
X157159350Y-67460000D01*
X157122510Y-67462899D01*
X157122504Y-67462900D01*
X156964806Y-67508716D01*
X156964803Y-67508717D01*
X156823447Y-67592314D01*
X156823438Y-67592321D01*
X156707321Y-67708438D01*
X156707314Y-67708447D01*
X156623718Y-67849801D01*
X156577899Y-68007513D01*
X156577704Y-68009998D01*
X156577705Y-68010000D01*
X157688500Y-68010000D01*
X157755539Y-68029685D01*
X157801294Y-68082489D01*
X157812500Y-68134000D01*
X157812500Y-68260000D01*
X157938500Y-68260000D01*
X158005539Y-68279685D01*
X158051294Y-68332489D01*
X158062500Y-68384000D01*
X158062500Y-69060000D01*
X158465634Y-69060000D01*
X158465649Y-69059999D01*
X158502489Y-69057100D01*
X158502495Y-69057099D01*
X158660193Y-69011283D01*
X158660196Y-69011282D01*
X158801552Y-68927685D01*
X158801561Y-68927678D01*
X158898319Y-68830921D01*
X158959642Y-68797436D01*
X159029334Y-68802420D01*
X159085267Y-68844292D01*
X159109684Y-68909756D01*
X159110000Y-68918602D01*
X159110000Y-70778481D01*
X159090315Y-70845520D01*
X159073681Y-70866162D01*
X158562663Y-71377181D01*
X158501340Y-71410666D01*
X158474982Y-71413500D01*
X157362230Y-71413500D01*
X157331800Y-71416353D01*
X157331798Y-71416353D01*
X157203619Y-71461206D01*
X157203617Y-71461207D01*
X157094350Y-71541850D01*
X157013707Y-71651117D01*
X157013706Y-71651119D01*
X156968853Y-71779298D01*
X156968853Y-71779300D01*
X156966000Y-71809730D01*
X156966000Y-73918269D01*
X156968853Y-73948699D01*
X156968853Y-73948701D01*
X157005879Y-74054511D01*
X157013707Y-74076882D01*
X157094350Y-74186150D01*
X157203618Y-74266793D01*
X157246345Y-74281744D01*
X157331799Y-74311646D01*
X157362230Y-74314500D01*
X157362234Y-74314500D01*
X158474981Y-74314500D01*
X158542020Y-74334185D01*
X158562662Y-74350819D01*
X159283181Y-75071338D01*
X159316666Y-75132661D01*
X159319500Y-75159019D01*
X159319500Y-75545557D01*
X159299815Y-75612596D01*
X159247011Y-75658351D01*
X159177853Y-75668295D01*
X159114297Y-75639270D01*
X159095730Y-75619191D01*
X159069894Y-75584185D01*
X159038650Y-75541850D01*
X158929382Y-75461207D01*
X158929380Y-75461206D01*
X158801200Y-75416353D01*
X158770770Y-75413500D01*
X158770766Y-75413500D01*
X157362234Y-75413500D01*
X157362230Y-75413500D01*
X157331800Y-75416353D01*
X157331798Y-75416353D01*
X157203619Y-75461206D01*
X157203617Y-75461207D01*
X157094350Y-75541850D01*
X157013707Y-75651117D01*
X157013706Y-75651119D01*
X156968853Y-75779298D01*
X156968853Y-75779300D01*
X156966000Y-75809730D01*
X156966000Y-77918269D01*
X156968853Y-77948699D01*
X156968853Y-77948701D01*
X157009940Y-78066117D01*
X157013707Y-78076882D01*
X157094350Y-78186150D01*
X157203618Y-78266793D01*
X157237552Y-78278667D01*
X157331799Y-78311646D01*
X157362230Y-78314500D01*
X158691981Y-78314500D01*
X158759020Y-78334185D01*
X158804775Y-78386989D01*
X158814719Y-78456147D01*
X158785694Y-78519703D01*
X158779662Y-78526181D01*
X158562662Y-78743181D01*
X158501339Y-78776666D01*
X158474981Y-78779500D01*
X157362230Y-78779500D01*
X157331800Y-78782353D01*
X157331798Y-78782353D01*
X157203619Y-78827206D01*
X157203617Y-78827207D01*
X157094350Y-78907850D01*
X157013707Y-79017117D01*
X157013706Y-79017119D01*
X156968853Y-79145298D01*
X156968853Y-79145300D01*
X156966000Y-79175730D01*
X156966000Y-81284269D01*
X156968853Y-81314699D01*
X156968853Y-81314701D01*
X157013706Y-81442880D01*
X157013707Y-81442882D01*
X157094350Y-81552150D01*
X157203618Y-81632793D01*
X157216513Y-81637305D01*
X157331799Y-81677646D01*
X157362230Y-81680500D01*
X157362234Y-81680500D01*
X158770770Y-81680500D01*
X158801199Y-81677646D01*
X158801201Y-81677646D01*
X158865290Y-81655219D01*
X158929382Y-81632793D01*
X159038650Y-81552150D01*
X159119293Y-81442882D01*
X159152370Y-81348353D01*
X159164146Y-81314701D01*
X159164146Y-81314699D01*
X159167000Y-81284269D01*
X159167000Y-80171519D01*
X159186685Y-80104480D01*
X159203319Y-80083838D01*
X159932319Y-79354838D01*
X159993642Y-79321353D01*
X160063334Y-79326337D01*
X160107681Y-79354838D01*
X160413881Y-79661038D01*
X160428584Y-79687965D01*
X160445177Y-79713784D01*
X160446068Y-79719984D01*
X160447366Y-79722361D01*
X160450200Y-79748719D01*
X160450200Y-79872361D01*
X160430515Y-79939400D01*
X160395092Y-79975463D01*
X160358446Y-79999948D01*
X160314132Y-80066269D01*
X160314131Y-80066270D01*
X160302500Y-80124747D01*
X160302500Y-81053252D01*
X160314131Y-81111729D01*
X160314133Y-81111733D01*
X160336435Y-81145110D01*
X160357313Y-81211787D01*
X160338828Y-81279167D01*
X160336435Y-81282890D01*
X160314133Y-81316266D01*
X160314131Y-81316270D01*
X160302500Y-81374747D01*
X160302500Y-81645180D01*
X160282815Y-81712219D01*
X160266181Y-81732861D01*
X159144336Y-82854705D01*
X159083013Y-82888190D01*
X159013321Y-82883206D01*
X158983022Y-82866795D01*
X158929382Y-82827207D01*
X158929380Y-82827206D01*
X158801200Y-82782353D01*
X158770770Y-82779500D01*
X158770766Y-82779500D01*
X157658019Y-82779500D01*
X157590980Y-82759815D01*
X157570338Y-82743181D01*
X155676819Y-80849662D01*
X155643334Y-80788339D01*
X155640500Y-80761981D01*
X155640500Y-76950303D01*
X155660185Y-76883264D01*
X155710040Y-76838902D01*
X155733983Y-76827198D01*
X155816698Y-76744483D01*
X155868073Y-76639393D01*
X155878000Y-76571260D01*
X155878000Y-76204740D01*
X155868073Y-76136607D01*
X155816698Y-76031517D01*
X155816696Y-76031515D01*
X155816696Y-76031514D01*
X155733985Y-75948803D01*
X155628891Y-75897426D01*
X155560761Y-75887500D01*
X155560760Y-75887500D01*
X155481519Y-75887500D01*
X155414480Y-75867815D01*
X155393838Y-75851181D01*
X155386545Y-75843888D01*
X155386541Y-75843885D01*
X155271817Y-75767228D01*
X155271804Y-75767221D01*
X155144332Y-75714421D01*
X155144322Y-75714418D01*
X155008995Y-75687500D01*
X155008993Y-75687500D01*
X154871007Y-75687500D01*
X154871005Y-75687500D01*
X154735677Y-75714418D01*
X154735667Y-75714421D01*
X154608195Y-75767221D01*
X154608182Y-75767228D01*
X154493458Y-75843885D01*
X154493454Y-75843888D01*
X154486162Y-75851181D01*
X154424839Y-75884666D01*
X154398481Y-75887500D01*
X154319239Y-75887500D01*
X154251108Y-75897426D01*
X154146014Y-75948803D01*
X154063303Y-76031514D01*
X154011926Y-76136608D01*
X154002000Y-76204739D01*
X154002000Y-76447510D01*
X153982315Y-76514549D01*
X153929511Y-76560304D01*
X153860353Y-76570248D01*
X153843405Y-76566586D01*
X153754995Y-76540900D01*
X153754989Y-76540899D01*
X153718149Y-76538000D01*
X153315000Y-76538000D01*
X153315000Y-78138000D01*
X153718134Y-78138000D01*
X153718149Y-78137999D01*
X153754989Y-78135100D01*
X153754995Y-78135099D01*
X153912693Y-78089283D01*
X153912696Y-78089282D01*
X154052379Y-78006674D01*
X154120102Y-77989491D01*
X154186365Y-78011651D01*
X154230129Y-78066117D01*
X154239500Y-78113406D01*
X154239500Y-81034506D01*
X154239500Y-81172494D01*
X154239500Y-81172496D01*
X154239499Y-81172496D01*
X154266418Y-81307822D01*
X154266421Y-81307832D01*
X154319222Y-81435307D01*
X154395887Y-81550045D01*
X154395888Y-81550046D01*
X156929681Y-84083838D01*
X156963166Y-84145161D01*
X156966000Y-84171519D01*
X156966000Y-85284269D01*
X156968853Y-85314699D01*
X156968853Y-85314701D01*
X157008006Y-85426590D01*
X157013707Y-85442882D01*
X157094350Y-85552150D01*
X157203618Y-85632793D01*
X157219791Y-85638452D01*
X157331799Y-85677646D01*
X157362230Y-85680500D01*
X157362234Y-85680500D01*
X158770770Y-85680500D01*
X158801199Y-85677646D01*
X158801201Y-85677646D01*
X158865290Y-85655219D01*
X158929382Y-85632793D01*
X159038650Y-85552150D01*
X159119293Y-85442882D01*
X159142028Y-85377908D01*
X159164146Y-85314701D01*
X159164146Y-85314699D01*
X159167000Y-85284269D01*
X159167000Y-84864719D01*
X159186685Y-84797680D01*
X159203319Y-84777038D01*
X160716010Y-83264347D01*
X162150800Y-83264347D01*
X162150800Y-85513652D01*
X162162431Y-85572129D01*
X162162432Y-85572130D01*
X162206747Y-85638452D01*
X162273069Y-85682767D01*
X162273070Y-85682768D01*
X162331547Y-85694399D01*
X162331550Y-85694400D01*
X162331552Y-85694400D01*
X165469850Y-85694400D01*
X165469851Y-85694399D01*
X165484668Y-85691452D01*
X165528329Y-85682768D01*
X165528329Y-85682767D01*
X165528331Y-85682767D01*
X165594652Y-85638452D01*
X165638967Y-85572131D01*
X165638967Y-85572129D01*
X165638968Y-85572129D01*
X165650599Y-85513652D01*
X165650600Y-85513650D01*
X165650600Y-83264349D01*
X165650599Y-83264347D01*
X165638968Y-83205870D01*
X165638967Y-83205869D01*
X165594652Y-83139547D01*
X165528330Y-83095232D01*
X165528329Y-83095231D01*
X165469852Y-83083600D01*
X165469848Y-83083600D01*
X162331552Y-83083600D01*
X162331547Y-83083600D01*
X162273070Y-83095231D01*
X162273069Y-83095232D01*
X162206747Y-83139547D01*
X162162432Y-83205869D01*
X162162431Y-83205870D01*
X162150800Y-83264347D01*
X160716010Y-83264347D01*
X161460038Y-82520319D01*
X161521361Y-82486834D01*
X161547719Y-82484000D01*
X161818150Y-82484000D01*
X161818151Y-82483999D01*
X161832968Y-82481052D01*
X161876629Y-82472368D01*
X161876629Y-82472367D01*
X161876631Y-82472367D01*
X161942952Y-82428052D01*
X161987267Y-82361731D01*
X161987267Y-82361729D01*
X161987268Y-82361729D01*
X161995952Y-82318068D01*
X161998900Y-82303248D01*
X161998900Y-81374752D01*
X161998900Y-81374749D01*
X161998899Y-81374747D01*
X161987268Y-81316270D01*
X161987267Y-81316268D01*
X161964965Y-81282892D01*
X161944086Y-81216215D01*
X161962570Y-81148835D01*
X161964965Y-81145108D01*
X161987267Y-81111731D01*
X161987268Y-81111729D01*
X161998899Y-81053252D01*
X161998900Y-81053250D01*
X161998900Y-80124749D01*
X161998899Y-80124747D01*
X161987268Y-80066270D01*
X161987267Y-80066269D01*
X161942953Y-79999948D01*
X161906308Y-79975463D01*
X161861504Y-79921850D01*
X161851200Y-79872361D01*
X161851200Y-79338204D01*
X161824281Y-79202877D01*
X161824280Y-79202876D01*
X161824280Y-79202872D01*
X161802200Y-79149567D01*
X161793080Y-79127550D01*
X161771478Y-79075396D01*
X161771477Y-79075395D01*
X161771475Y-79075389D01*
X161694814Y-78960657D01*
X161694812Y-78960654D01*
X160756819Y-78022661D01*
X160723334Y-77961338D01*
X160720500Y-77934980D01*
X160720500Y-76914347D01*
X162150800Y-76914347D01*
X162150800Y-79163652D01*
X162162431Y-79222129D01*
X162162432Y-79222130D01*
X162206747Y-79288452D01*
X162273069Y-79332767D01*
X162273070Y-79332768D01*
X162331547Y-79344399D01*
X162331550Y-79344400D01*
X162331552Y-79344400D01*
X165469850Y-79344400D01*
X165469851Y-79344399D01*
X165484668Y-79341452D01*
X165528329Y-79332768D01*
X165528329Y-79332767D01*
X165528331Y-79332767D01*
X165594652Y-79288452D01*
X165638967Y-79222131D01*
X165638967Y-79222129D01*
X165638968Y-79222129D01*
X165650599Y-79163652D01*
X165650600Y-79163650D01*
X165650600Y-76914349D01*
X165650599Y-76914347D01*
X165638968Y-76855870D01*
X165638967Y-76855869D01*
X165594652Y-76789547D01*
X165528330Y-76745232D01*
X165528329Y-76745231D01*
X165469852Y-76733600D01*
X165469848Y-76733600D01*
X162331552Y-76733600D01*
X162331547Y-76733600D01*
X162273070Y-76745231D01*
X162273069Y-76745232D01*
X162206747Y-76789547D01*
X162162432Y-76855869D01*
X162162431Y-76855870D01*
X162150800Y-76914347D01*
X160720500Y-76914347D01*
X160720500Y-74748504D01*
X160720499Y-74748502D01*
X160693581Y-74613177D01*
X160693580Y-74613174D01*
X160693580Y-74613172D01*
X160688088Y-74599914D01*
X160640775Y-74485689D01*
X160564114Y-74370957D01*
X160564112Y-74370954D01*
X160059505Y-73866347D01*
X162150800Y-73866347D01*
X162150800Y-76115652D01*
X162162431Y-76174129D01*
X162162432Y-76174130D01*
X162206747Y-76240452D01*
X162273069Y-76284767D01*
X162273070Y-76284768D01*
X162331547Y-76296399D01*
X162331550Y-76296400D01*
X162331552Y-76296400D01*
X165469850Y-76296400D01*
X165469851Y-76296399D01*
X165484668Y-76293452D01*
X165528329Y-76284768D01*
X165528329Y-76284767D01*
X165528331Y-76284767D01*
X165594652Y-76240452D01*
X165638967Y-76174131D01*
X165638967Y-76174129D01*
X165638968Y-76174129D01*
X165650599Y-76115652D01*
X165650600Y-76115650D01*
X165650600Y-73866349D01*
X165650599Y-73866347D01*
X165638968Y-73807870D01*
X165638967Y-73807869D01*
X165594652Y-73741547D01*
X165528330Y-73697232D01*
X165528329Y-73697231D01*
X165469852Y-73685600D01*
X165469848Y-73685600D01*
X162331552Y-73685600D01*
X162331547Y-73685600D01*
X162273070Y-73697231D01*
X162273069Y-73697232D01*
X162206747Y-73741547D01*
X162162432Y-73807869D01*
X162162431Y-73807870D01*
X162150800Y-73866347D01*
X160059505Y-73866347D01*
X159203319Y-73010161D01*
X159188615Y-72983233D01*
X159172023Y-72957415D01*
X159171131Y-72951214D01*
X159169834Y-72948838D01*
X159167000Y-72922480D01*
X159167000Y-72805518D01*
X159186685Y-72738479D01*
X159203319Y-72717837D01*
X159645632Y-72275524D01*
X160102371Y-71818784D01*
X160163692Y-71785301D01*
X160233383Y-71790285D01*
X160289317Y-71832157D01*
X160313734Y-71897621D01*
X160311668Y-71930656D01*
X160302500Y-71976750D01*
X160302500Y-72905252D01*
X160314131Y-72963729D01*
X160314132Y-72963730D01*
X160358447Y-73030052D01*
X160424769Y-73074367D01*
X160424770Y-73074368D01*
X160483247Y-73085999D01*
X160483250Y-73086000D01*
X160483252Y-73086000D01*
X161818150Y-73086000D01*
X161818151Y-73085999D01*
X161832968Y-73083052D01*
X161876629Y-73074368D01*
X161876629Y-73074367D01*
X161876631Y-73074367D01*
X161942952Y-73030052D01*
X161987267Y-72963731D01*
X161987267Y-72963729D01*
X161987268Y-72963729D01*
X161995952Y-72920068D01*
X161998900Y-72905248D01*
X161998900Y-71976752D01*
X161998900Y-71976750D01*
X161998900Y-71976749D01*
X161998899Y-71976747D01*
X161987268Y-71918270D01*
X161987267Y-71918268D01*
X161964965Y-71884892D01*
X161944086Y-71818215D01*
X161962570Y-71750835D01*
X161964965Y-71747108D01*
X161987267Y-71713731D01*
X161987268Y-71713729D01*
X161998899Y-71655252D01*
X161998900Y-71655250D01*
X161998900Y-70726749D01*
X161998899Y-70726747D01*
X161987268Y-70668270D01*
X161987267Y-70668269D01*
X161942953Y-70601948D01*
X161906308Y-70577463D01*
X161861504Y-70523850D01*
X161851200Y-70474361D01*
X161851200Y-69584053D01*
X161849697Y-69576499D01*
X161849696Y-69576494D01*
X161827280Y-69463803D01*
X161824280Y-69448720D01*
X161815596Y-69427755D01*
X161771477Y-69321240D01*
X161694812Y-69206502D01*
X161694811Y-69206501D01*
X160257043Y-67768734D01*
X160004656Y-67516347D01*
X162150800Y-67516347D01*
X162150800Y-69765652D01*
X162162431Y-69824129D01*
X162162432Y-69824130D01*
X162206747Y-69890452D01*
X162273069Y-69934767D01*
X162273070Y-69934768D01*
X162331547Y-69946399D01*
X162331550Y-69946400D01*
X162331552Y-69946400D01*
X165469850Y-69946400D01*
X165469851Y-69946399D01*
X165484668Y-69943452D01*
X165528329Y-69934768D01*
X165528329Y-69934767D01*
X165528331Y-69934767D01*
X165594652Y-69890452D01*
X165638967Y-69824131D01*
X165638967Y-69824129D01*
X165638968Y-69824129D01*
X165650599Y-69765652D01*
X165650600Y-69765650D01*
X165650600Y-67516349D01*
X165650599Y-67516347D01*
X165638968Y-67457870D01*
X165638967Y-67457869D01*
X165594652Y-67391547D01*
X165528330Y-67347232D01*
X165528329Y-67347231D01*
X165469852Y-67335600D01*
X165469848Y-67335600D01*
X162331552Y-67335600D01*
X162331547Y-67335600D01*
X162273070Y-67347231D01*
X162273069Y-67347232D01*
X162206747Y-67391547D01*
X162162432Y-67457869D01*
X162162431Y-67457870D01*
X162150800Y-67516347D01*
X160004656Y-67516347D01*
X158297949Y-65809640D01*
X158264464Y-65748317D01*
X158269448Y-65678625D01*
X158311320Y-65622692D01*
X158353533Y-65602186D01*
X158422984Y-65583577D01*
X158559916Y-65504520D01*
X158671720Y-65392716D01*
X158671720Y-65392715D01*
X158677467Y-65386969D01*
X158679712Y-65389214D01*
X158724055Y-65356821D01*
X158766030Y-65349500D01*
X158984549Y-65349500D01*
X158984551Y-65349500D01*
X159067337Y-65327318D01*
X159141560Y-65284465D01*
X159391953Y-65034071D01*
X160934353Y-65034071D01*
X161138299Y-65044760D01*
X161138307Y-65044759D01*
X161198097Y-65041483D01*
X161198102Y-65041482D01*
X161335258Y-64998358D01*
X161454713Y-64918335D01*
X161540302Y-64815675D01*
X161598350Y-64776789D01*
X161642031Y-64771249D01*
X162174519Y-64799155D01*
X162374219Y-64809622D01*
X162374220Y-64809622D01*
X162374220Y-64809621D01*
X162374222Y-64809622D01*
X162433234Y-64801066D01*
X162501783Y-64760282D01*
X162549508Y-64696372D01*
X162564186Y-64638577D01*
X162654158Y-62921808D01*
X162655318Y-62899669D01*
X162648949Y-62855740D01*
X162646762Y-62840656D01*
X162646761Y-62840654D01*
X162646761Y-62840653D01*
X162605980Y-62772107D01*
X162542069Y-62724382D01*
X162522803Y-62719489D01*
X162484274Y-62709704D01*
X162337824Y-62702028D01*
X161752086Y-62671331D01*
X161686169Y-62648165D01*
X161655556Y-62616515D01*
X161581165Y-62505468D01*
X161470732Y-62413398D01*
X161338834Y-62356173D01*
X161279707Y-62346664D01*
X161279695Y-62346662D01*
X161075754Y-62335974D01*
X161005054Y-63685023D01*
X160934353Y-65034071D01*
X159391953Y-65034071D01*
X159685716Y-64740307D01*
X159747037Y-64706824D01*
X159816728Y-64711808D01*
X159872662Y-64753679D01*
X159876415Y-64758976D01*
X159929628Y-64838409D01*
X160040061Y-64930479D01*
X160171959Y-64987704D01*
X160231086Y-64997213D01*
X160231099Y-64997215D01*
X160435038Y-65007902D01*
X160505740Y-63658855D01*
X160576439Y-62309806D01*
X160571826Y-62304682D01*
X160541596Y-62241690D01*
X160550221Y-62172355D01*
X160576290Y-62134035D01*
X161170507Y-61539819D01*
X161231830Y-61506334D01*
X161258188Y-61503500D01*
X162892851Y-61503500D01*
X162892853Y-61503500D01*
X162975639Y-61481318D01*
X163049862Y-61438465D01*
X163159787Y-61328538D01*
X163221107Y-61295055D01*
X163290799Y-61300039D01*
X163346732Y-61341910D01*
X163371150Y-61407374D01*
X163371296Y-61422711D01*
X163316228Y-62473468D01*
X163324785Y-62532483D01*
X163365566Y-62601027D01*
X163365567Y-62601028D01*
X163365569Y-62601031D01*
X163365572Y-62601033D01*
X163429478Y-62648755D01*
X163429479Y-62648755D01*
X163429480Y-62648756D01*
X163487274Y-62663434D01*
X165498312Y-62768828D01*
X165733485Y-62781153D01*
X165733485Y-62781152D01*
X165733487Y-62781153D01*
X165792499Y-62772597D01*
X165793323Y-62772107D01*
X165861047Y-62731815D01*
X165864426Y-62727291D01*
X165908773Y-62667903D01*
X165923451Y-62610109D01*
X166023806Y-60695206D01*
X166046972Y-60629290D01*
X166102098Y-60586361D01*
X166171682Y-60580051D01*
X166233632Y-60612362D01*
X166235317Y-60614016D01*
X166276766Y-60655465D01*
X166350989Y-60698318D01*
X166433775Y-60720500D01*
X170512621Y-60720500D01*
X170579660Y-60740185D01*
X170625415Y-60792989D01*
X170635359Y-60862147D01*
X170606334Y-60925703D01*
X170547556Y-60963477D01*
X170523428Y-60968028D01*
X170234190Y-60993333D01*
X170234186Y-60993333D01*
X169851910Y-61060739D01*
X169851893Y-61060743D01*
X169476947Y-61161209D01*
X169411324Y-61185093D01*
X169407128Y-61186620D01*
X169401663Y-61188175D01*
X169383169Y-61195339D01*
X169381915Y-61195796D01*
X169381908Y-61195799D01*
X169112151Y-61293984D01*
X169035443Y-61329753D01*
X169031683Y-61331505D01*
X169018612Y-61336570D01*
X168985999Y-61352809D01*
X168984507Y-61353505D01*
X168760354Y-61458030D01*
X168760345Y-61458034D01*
X168760341Y-61458037D01*
X168743570Y-61467720D01*
X168673774Y-61508015D01*
X168673773Y-61508014D01*
X168670440Y-61509938D01*
X168650888Y-61519674D01*
X168613756Y-61542665D01*
X168612059Y-61543645D01*
X168612057Y-61543645D01*
X168424175Y-61652122D01*
X168424164Y-61652129D01*
X168424159Y-61652132D01*
X168424155Y-61652135D01*
X168424141Y-61652144D01*
X168329198Y-61718623D01*
X168329197Y-61718624D01*
X168326317Y-61720640D01*
X168301627Y-61735928D01*
X168265241Y-61763405D01*
X168263392Y-61764700D01*
X168263390Y-61764700D01*
X168106174Y-61874786D01*
X168004486Y-61960111D01*
X168002021Y-61962178D01*
X167973809Y-61983484D01*
X167941155Y-62013252D01*
X167939159Y-62014927D01*
X167808800Y-62124312D01*
X167808799Y-62124313D01*
X167702229Y-62230882D01*
X167700183Y-62232927D01*
X167670232Y-62260232D01*
X167642927Y-62290183D01*
X167640882Y-62292229D01*
X167534313Y-62398799D01*
X167534312Y-62398800D01*
X167424927Y-62529159D01*
X167423251Y-62531155D01*
X167393484Y-62563809D01*
X167372182Y-62592017D01*
X167370114Y-62594482D01*
X167370111Y-62594486D01*
X167284786Y-62696174D01*
X167174699Y-62853391D01*
X167174700Y-62853392D01*
X167173405Y-62855241D01*
X167145928Y-62891627D01*
X167130641Y-62916315D01*
X167128626Y-62919194D01*
X167128623Y-62919198D01*
X167062144Y-63014141D01*
X167062122Y-63014175D01*
X166953644Y-63202058D01*
X166953645Y-63202059D01*
X166952665Y-63203756D01*
X166929674Y-63240888D01*
X166919935Y-63260445D01*
X166918026Y-63263753D01*
X166918015Y-63263774D01*
X166891788Y-63309203D01*
X166868037Y-63350341D01*
X166868036Y-63350344D01*
X166868030Y-63350354D01*
X166763505Y-63574507D01*
X166762808Y-63576000D01*
X166746570Y-63608612D01*
X166741510Y-63621672D01*
X166739753Y-63625441D01*
X166739753Y-63625443D01*
X166703984Y-63702151D01*
X166605799Y-63971908D01*
X166605346Y-63973150D01*
X166598175Y-63991663D01*
X166596619Y-63997128D01*
X166595093Y-64001324D01*
X166571209Y-64066947D01*
X166470743Y-64441893D01*
X166470739Y-64441910D01*
X166403333Y-64824186D01*
X166403333Y-64824190D01*
X166369500Y-65210901D01*
X166369500Y-84577933D01*
X166369234Y-84586043D01*
X166355036Y-84802653D01*
X166354040Y-84812191D01*
X166347143Y-84860159D01*
X166346022Y-84866702D01*
X166308724Y-85054210D01*
X166306085Y-85064952D01*
X166294616Y-85104014D01*
X166293057Y-85108939D01*
X166228816Y-85298187D01*
X166224192Y-85309839D01*
X166214690Y-85330646D01*
X166213107Y-85333980D01*
X166117939Y-85526960D01*
X166109829Y-85541007D01*
X165980456Y-85734628D01*
X165970582Y-85747496D01*
X165817043Y-85922574D01*
X165805574Y-85934043D01*
X165630496Y-86087582D01*
X165617628Y-86097456D01*
X165424007Y-86226829D01*
X165409960Y-86234939D01*
X165216980Y-86330107D01*
X165213646Y-86331690D01*
X165192839Y-86341192D01*
X165181187Y-86345816D01*
X164991939Y-86410057D01*
X164987014Y-86411616D01*
X164947952Y-86423085D01*
X164937211Y-86425724D01*
X164749699Y-86463023D01*
X164743153Y-86464144D01*
X164695181Y-86471041D01*
X164685645Y-86472037D01*
X164469052Y-86486234D01*
X164467286Y-86486338D01*
X164416934Y-86488917D01*
X164416899Y-86488918D01*
X164416873Y-86488912D01*
X164416787Y-86488924D01*
X144279174Y-87502137D01*
X144264833Y-87502029D01*
X144051341Y-87488036D01*
X144041805Y-87487039D01*
X143993845Y-87480144D01*
X143987299Y-87479023D01*
X143799787Y-87441724D01*
X143789046Y-87439085D01*
X143749984Y-87427616D01*
X143745059Y-87426057D01*
X143555811Y-87361816D01*
X143544159Y-87357192D01*
X143523333Y-87347681D01*
X143520018Y-87346107D01*
X143327039Y-87250939D01*
X143312992Y-87242829D01*
X143119371Y-87113456D01*
X143106503Y-87103582D01*
X142931425Y-86950043D01*
X142919956Y-86938574D01*
X142847927Y-86856440D01*
X142766414Y-86763493D01*
X142756543Y-86750628D01*
X142723617Y-86701351D01*
X142627170Y-86557007D01*
X142619060Y-86542960D01*
X142591710Y-86487500D01*
X142523881Y-86349959D01*
X142522332Y-86346695D01*
X142512799Y-86325823D01*
X142508182Y-86314187D01*
X142493879Y-86272051D01*
X142443933Y-86124916D01*
X142442394Y-86120052D01*
X142430911Y-86080945D01*
X142428274Y-86070210D01*
X142416587Y-86011454D01*
X142390971Y-85882676D01*
X142389858Y-85876177D01*
X142382956Y-85828173D01*
X142381963Y-85818678D01*
X142368960Y-85620285D01*
X142368893Y-85619162D01*
X142367688Y-85597301D01*
X142367866Y-85596539D01*
X142367500Y-85590476D01*
X142367500Y-85572404D01*
X142364201Y-85566363D01*
X142362274Y-85554976D01*
X142210091Y-84302793D01*
X143734128Y-84302793D01*
X143734128Y-84302802D01*
X143930166Y-86543528D01*
X143930169Y-86543541D01*
X143946850Y-86600775D01*
X143946853Y-86600781D01*
X143996778Y-86662985D01*
X143996780Y-86662986D01*
X144066711Y-86701352D01*
X144125985Y-86707844D01*
X147252339Y-86434323D01*
X147309586Y-86417637D01*
X147371792Y-86367711D01*
X147410158Y-86297780D01*
X147416650Y-86238506D01*
X147220611Y-83997769D01*
X147211175Y-83965396D01*
X147203927Y-83940526D01*
X147203924Y-83940520D01*
X147153999Y-83878316D01*
X147084067Y-83839950D01*
X147024793Y-83833458D01*
X147024791Y-83833458D01*
X147024790Y-83833458D01*
X143898443Y-84106978D01*
X143898430Y-84106981D01*
X143841195Y-84123663D01*
X143841190Y-84123665D01*
X143778985Y-84173591D01*
X143740620Y-84243521D01*
X143734128Y-84302793D01*
X142210091Y-84302793D01*
X141441283Y-77976957D01*
X143180688Y-77976957D01*
X143180688Y-77976966D01*
X143376726Y-80217692D01*
X143376729Y-80217705D01*
X143393410Y-80274939D01*
X143393413Y-80274945D01*
X143443338Y-80337149D01*
X143443340Y-80337150D01*
X143513271Y-80375516D01*
X143572545Y-80382008D01*
X146698899Y-80108487D01*
X146756146Y-80091801D01*
X146818352Y-80041875D01*
X146856718Y-79971944D01*
X146863210Y-79912670D01*
X146667171Y-77671933D01*
X146661977Y-77654116D01*
X146650487Y-77614690D01*
X146650484Y-77614684D01*
X146600559Y-77552480D01*
X146530627Y-77514114D01*
X146471353Y-77507622D01*
X146471351Y-77507622D01*
X146471350Y-77507622D01*
X143345003Y-77781142D01*
X143344990Y-77781145D01*
X143287755Y-77797827D01*
X143287750Y-77797829D01*
X143225545Y-77847755D01*
X143187180Y-77917685D01*
X143180688Y-77976957D01*
X141441283Y-77976957D01*
X140804952Y-72741148D01*
X140299265Y-68578957D01*
X140992955Y-68578957D01*
X140992955Y-68578966D01*
X141188993Y-70819692D01*
X141188996Y-70819705D01*
X141205677Y-70876939D01*
X141205680Y-70876945D01*
X141255605Y-70939149D01*
X141255607Y-70939150D01*
X141325538Y-70977516D01*
X141384812Y-70984008D01*
X144511166Y-70710487D01*
X144568413Y-70693801D01*
X144630619Y-70643875D01*
X144668985Y-70573944D01*
X144675477Y-70514670D01*
X144479438Y-68273933D01*
X144473314Y-68252924D01*
X144462754Y-68216690D01*
X144462751Y-68216684D01*
X144412826Y-68154480D01*
X144342894Y-68116114D01*
X144283620Y-68109622D01*
X144283618Y-68109622D01*
X144283617Y-68109622D01*
X141157270Y-68383142D01*
X141157257Y-68383145D01*
X141100022Y-68399827D01*
X141100017Y-68399829D01*
X141037812Y-68449755D01*
X140999447Y-68519685D01*
X140992955Y-68578957D01*
X140299265Y-68578957D01*
X139097221Y-58685213D01*
X139836416Y-58685213D01*
X139836416Y-58685222D01*
X140109936Y-61811565D01*
X140109939Y-61811578D01*
X140126621Y-61868813D01*
X140126623Y-61868818D01*
X140173819Y-61927622D01*
X140176549Y-61931023D01*
X140246480Y-61969389D01*
X140305754Y-61975881D01*
X142546491Y-61779842D01*
X142583661Y-61769008D01*
X142603733Y-61763158D01*
X142603735Y-61763156D01*
X142603738Y-61763156D01*
X142645015Y-61730027D01*
X142665943Y-61713230D01*
X142665944Y-61713229D01*
X142704310Y-61643298D01*
X142710802Y-61584024D01*
X142669064Y-61106952D01*
X147933696Y-61106952D01*
X148051436Y-62452713D01*
X148169173Y-63798472D01*
X148169174Y-63798472D01*
X148372612Y-63780674D01*
X148372627Y-63780672D01*
X148431387Y-63769105D01*
X148561211Y-63707308D01*
X148668361Y-63611443D01*
X148738832Y-63497868D01*
X148790904Y-63451281D01*
X148833383Y-63439718D01*
X149563792Y-63375816D01*
X149621038Y-63359130D01*
X149683245Y-63309203D01*
X149721611Y-63239272D01*
X149728103Y-63179998D01*
X149576339Y-61445328D01*
X149559653Y-61388082D01*
X149553480Y-61380391D01*
X149518310Y-61336570D01*
X149509726Y-61325875D01*
X149509725Y-61325874D01*
X149509724Y-61325873D01*
X149439795Y-61287509D01*
X149439791Y-61287508D01*
X149380527Y-61281018D01*
X149380514Y-61281018D01*
X148650118Y-61344918D01*
X148581618Y-61331151D01*
X148546899Y-61304070D01*
X148457777Y-61204458D01*
X148457774Y-61204455D01*
X148335609Y-61128655D01*
X148197028Y-61090342D01*
X148137134Y-61089154D01*
X147933696Y-61106952D01*
X142669064Y-61106952D01*
X142437281Y-58457670D01*
X142420595Y-58400423D01*
X142420594Y-58400422D01*
X142420594Y-58400421D01*
X142370668Y-58338216D01*
X142300738Y-58299851D01*
X142241464Y-58293359D01*
X142241462Y-58293359D01*
X142241461Y-58293359D01*
X140000731Y-58489397D01*
X140000718Y-58489400D01*
X139943484Y-58506081D01*
X139943478Y-58506084D01*
X139881274Y-58556009D01*
X139842908Y-58625941D01*
X139836416Y-58685213D01*
X139097221Y-58685213D01*
X139066721Y-58434172D01*
X139066082Y-58411117D01*
X139079964Y-58199315D01*
X139080955Y-58189831D01*
X139087860Y-58141810D01*
X139088969Y-58135336D01*
X139126277Y-57947772D01*
X139128908Y-57937064D01*
X139140402Y-57897920D01*
X139141919Y-57893125D01*
X139171854Y-57804940D01*
X149897986Y-57804940D01*
X149897986Y-57804949D01*
X150171506Y-60931292D01*
X150171509Y-60931305D01*
X150188191Y-60988540D01*
X150188193Y-60988545D01*
X150230132Y-61040799D01*
X150238119Y-61050750D01*
X150308050Y-61089116D01*
X150367324Y-61095608D01*
X152608061Y-60899569D01*
X152639653Y-60890360D01*
X152665303Y-60882885D01*
X152665305Y-60882883D01*
X152665308Y-60882883D01*
X152727514Y-60832956D01*
X152765880Y-60763025D01*
X152772372Y-60703751D01*
X152498851Y-57577397D01*
X152482165Y-57520150D01*
X152482164Y-57520149D01*
X152482164Y-57520148D01*
X152432238Y-57457943D01*
X152362308Y-57419578D01*
X152303034Y-57413086D01*
X152303032Y-57413086D01*
X152303031Y-57413086D01*
X150062301Y-57609124D01*
X150062288Y-57609127D01*
X150005054Y-57625808D01*
X150005048Y-57625811D01*
X149942844Y-57675736D01*
X149904478Y-57745668D01*
X149897986Y-57804940D01*
X139171854Y-57804940D01*
X139206195Y-57703775D01*
X139210793Y-57692190D01*
X139220356Y-57671251D01*
X139221855Y-57668093D01*
X139317068Y-57475022D01*
X139325159Y-57461009D01*
X139454551Y-57267359D01*
X139464408Y-57254513D01*
X139617961Y-57079419D01*
X139629419Y-57067961D01*
X139804513Y-56914408D01*
X139817359Y-56904551D01*
X140011009Y-56775159D01*
X140025022Y-56767068D01*
X140218093Y-56671855D01*
X140221251Y-56670356D01*
X140242190Y-56660793D01*
X140253793Y-56656189D01*
X140443111Y-56591924D01*
X140447920Y-56590402D01*
X140487064Y-56578908D01*
X140497772Y-56576277D01*
X140685336Y-56538969D01*
X140691810Y-56537860D01*
X140739831Y-56530955D01*
X140749318Y-56529963D01*
X140952633Y-56516637D01*
X140965953Y-56515765D01*
X140974062Y-56515500D01*
X141009751Y-56515500D01*
X141020061Y-56514260D01*
X166622483Y-55880538D01*
X166625551Y-55880500D01*
X206500994Y-55880500D01*
X206503050Y-55880516D01*
G37*
%TD.AperFunction*%
%TA.AperFunction,Conductor*%
G36*
X234060299Y-56337695D02*
G01*
X234060340Y-56337708D01*
X234060423Y-56337697D01*
X234061333Y-56337712D01*
X234109089Y-56338557D01*
X234115005Y-56338803D01*
X234130438Y-56339814D01*
X234333130Y-56353095D01*
X234342615Y-56354087D01*
X234387031Y-56360472D01*
X234393513Y-56361581D01*
X234584463Y-56399560D01*
X234595162Y-56402189D01*
X234630430Y-56412545D01*
X234635241Y-56414066D01*
X234828237Y-56479577D01*
X234839863Y-56484192D01*
X234856195Y-56491650D01*
X234859504Y-56493221D01*
X235055937Y-56590089D01*
X235069978Y-56598197D01*
X235263601Y-56727571D01*
X235276470Y-56737445D01*
X235451547Y-56890983D01*
X235463016Y-56902452D01*
X235616554Y-57077529D01*
X235626428Y-57090398D01*
X235755802Y-57284021D01*
X235763913Y-57298068D01*
X235860773Y-57494485D01*
X235862355Y-57497817D01*
X235869802Y-57514124D01*
X235874427Y-57525778D01*
X235939915Y-57718706D01*
X235941473Y-57723631D01*
X235951802Y-57758811D01*
X235954442Y-57769554D01*
X235992411Y-57960455D01*
X235993531Y-57966999D01*
X235999908Y-58011356D01*
X236000905Y-58020893D01*
X236014428Y-58227267D01*
X236012519Y-58258493D01*
X230942700Y-84974805D01*
X230935462Y-84988944D01*
X230935462Y-85001355D01*
X230935357Y-85006461D01*
X230934521Y-85026746D01*
X230934218Y-85027639D01*
X230934361Y-85029748D01*
X230920905Y-85235104D01*
X230919908Y-85244641D01*
X230913531Y-85289000D01*
X230912411Y-85295544D01*
X230874444Y-85486435D01*
X230871804Y-85497179D01*
X230861469Y-85532379D01*
X230859911Y-85537303D01*
X230794426Y-85730221D01*
X230789802Y-85741872D01*
X230782354Y-85758182D01*
X230780771Y-85761517D01*
X230683913Y-85957931D01*
X230675802Y-85971978D01*
X230546428Y-86165601D01*
X230536554Y-86178470D01*
X230383016Y-86353547D01*
X230371547Y-86365016D01*
X230196470Y-86518554D01*
X230183601Y-86528428D01*
X229989978Y-86657802D01*
X229975931Y-86665913D01*
X229779499Y-86762780D01*
X229776167Y-86764362D01*
X229759882Y-86771799D01*
X229748228Y-86776424D01*
X229555289Y-86841916D01*
X229550366Y-86843473D01*
X229515198Y-86853799D01*
X229504453Y-86856440D01*
X229313550Y-86894410D01*
X229307006Y-86895530D01*
X229262648Y-86901907D01*
X229253111Y-86902904D01*
X229039553Y-86916898D01*
X229022439Y-86916836D01*
X218046484Y-86117555D01*
X226984677Y-86117555D01*
X227387264Y-86138653D01*
X227424218Y-86137686D01*
X227584106Y-86100184D01*
X227584112Y-86100182D01*
X227729646Y-86024098D01*
X227851690Y-85914209D01*
X227942573Y-85777419D01*
X227996582Y-85622325D01*
X227996908Y-85619848D01*
X227013461Y-85568309D01*
X226984677Y-86117555D01*
X218046484Y-86117555D01*
X210435585Y-85563321D01*
X209436973Y-85490601D01*
X225530700Y-85490601D01*
X225530766Y-85493098D01*
X225568268Y-85652988D01*
X225568271Y-85652994D01*
X225644354Y-85798527D01*
X225754242Y-85920570D01*
X225754243Y-85920571D01*
X225891033Y-86011454D01*
X226046129Y-86065464D01*
X226082778Y-86070289D01*
X226485362Y-86091387D01*
X226514146Y-85542140D01*
X225530701Y-85490601D01*
X225530700Y-85490601D01*
X209436973Y-85490601D01*
X208149613Y-85396854D01*
X208149613Y-85396853D01*
X208147627Y-85396709D01*
X208103538Y-85393499D01*
X208103538Y-85393462D01*
X208103038Y-85393462D01*
X208102880Y-85393451D01*
X208102830Y-85393448D01*
X208102829Y-85393448D01*
X208098762Y-85393181D01*
X208098658Y-85393174D01*
X207880893Y-85378905D01*
X207871355Y-85377908D01*
X207827000Y-85371531D01*
X207820457Y-85370411D01*
X207629563Y-85332444D01*
X207618819Y-85329804D01*
X207583619Y-85319469D01*
X207578695Y-85317911D01*
X207385777Y-85252426D01*
X207374126Y-85247802D01*
X207357816Y-85240354D01*
X207354481Y-85238771D01*
X207158068Y-85141913D01*
X207144026Y-85133806D01*
X207141245Y-85131948D01*
X207141244Y-85131947D01*
X207141239Y-85131944D01*
X206950397Y-85004428D01*
X206937529Y-84994554D01*
X206933801Y-84991285D01*
X225556867Y-84991285D01*
X225556868Y-84991286D01*
X226540315Y-85042825D01*
X226569099Y-84493579D01*
X226166514Y-84472482D01*
X226129559Y-84473449D01*
X225969671Y-84510951D01*
X225969665Y-84510953D01*
X225824131Y-84587037D01*
X225702087Y-84696926D01*
X225611204Y-84833715D01*
X225557193Y-84988813D01*
X225557193Y-84988814D01*
X225556867Y-84991285D01*
X206933801Y-84991285D01*
X206762452Y-84841016D01*
X206750983Y-84829547D01*
X206597445Y-84654470D01*
X206587571Y-84641601D01*
X206458197Y-84447978D01*
X206450089Y-84433937D01*
X206353212Y-84237485D01*
X206351638Y-84234168D01*
X206344201Y-84217884D01*
X206339578Y-84206240D01*
X206274066Y-84013238D01*
X206272540Y-84008416D01*
X206262195Y-83973184D01*
X206259561Y-83962467D01*
X206221582Y-83771517D01*
X206220475Y-83765047D01*
X206214087Y-83720623D01*
X206213095Y-83711131D01*
X206198849Y-83493732D01*
X206198593Y-83484197D01*
X206200051Y-83357981D01*
X206203393Y-83068635D01*
X213825115Y-83068635D01*
X213825115Y-83275574D01*
X213865483Y-83478517D01*
X213865485Y-83478525D01*
X213930291Y-83634981D01*
X213944674Y-83669703D01*
X213985287Y-83730485D01*
X214059639Y-83841762D01*
X214205957Y-83988080D01*
X214205960Y-83988082D01*
X214378017Y-84103046D01*
X214569195Y-84182235D01*
X214747938Y-84217789D01*
X214772145Y-84222604D01*
X214772149Y-84222605D01*
X214772150Y-84222605D01*
X214979081Y-84222605D01*
X214979082Y-84222604D01*
X215182035Y-84182235D01*
X215373213Y-84103046D01*
X215545270Y-83988082D01*
X215691592Y-83841760D01*
X215806556Y-83669703D01*
X215885745Y-83478525D01*
X215926115Y-83275570D01*
X215926115Y-83201568D01*
X216361634Y-83201568D01*
X216361634Y-83408507D01*
X216402002Y-83611450D01*
X216402004Y-83611458D01*
X216468553Y-83772122D01*
X216481193Y-83802636D01*
X216531760Y-83878316D01*
X216596158Y-83974695D01*
X216742476Y-84121013D01*
X216742479Y-84121015D01*
X216914536Y-84235979D01*
X217105714Y-84315168D01*
X217308664Y-84355537D01*
X217308668Y-84355538D01*
X217308669Y-84355538D01*
X217515600Y-84355538D01*
X217515601Y-84355537D01*
X217718554Y-84315168D01*
X217909732Y-84235979D01*
X218081789Y-84121015D01*
X218228111Y-83974693D01*
X218343075Y-83802636D01*
X218422264Y-83611458D01*
X218462634Y-83408503D01*
X218462634Y-83201573D01*
X218422264Y-82998618D01*
X218343075Y-82807440D01*
X218228111Y-82635383D01*
X218228109Y-82635380D01*
X218081791Y-82489062D01*
X217990482Y-82428052D01*
X217909732Y-82374097D01*
X217879873Y-82361729D01*
X217718554Y-82294908D01*
X217718546Y-82294906D01*
X217515603Y-82254538D01*
X217515599Y-82254538D01*
X217308669Y-82254538D01*
X217308664Y-82254538D01*
X217105721Y-82294906D01*
X217105713Y-82294908D01*
X216914537Y-82374096D01*
X216742476Y-82489062D01*
X216596158Y-82635380D01*
X216481192Y-82807441D01*
X216402004Y-82998617D01*
X216402002Y-82998625D01*
X216361634Y-83201568D01*
X215926115Y-83201568D01*
X215926115Y-83068640D01*
X215885745Y-82865685D01*
X215806556Y-82674507D01*
X215691592Y-82502450D01*
X215691590Y-82502447D01*
X215545272Y-82356129D01*
X215426714Y-82276912D01*
X215373213Y-82241164D01*
X215182035Y-82161975D01*
X215182027Y-82161973D01*
X214979084Y-82121605D01*
X214979080Y-82121605D01*
X214772150Y-82121605D01*
X214772145Y-82121605D01*
X214569202Y-82161973D01*
X214569194Y-82161975D01*
X214378018Y-82241163D01*
X214205957Y-82356129D01*
X214059639Y-82502447D01*
X213944673Y-82674508D01*
X213865485Y-82865684D01*
X213865483Y-82865692D01*
X213825115Y-83068635D01*
X206203393Y-83068635D01*
X206212537Y-82276924D01*
X206495480Y-82276924D01*
X206498191Y-82347724D01*
X206498191Y-82347728D01*
X206498192Y-82347731D01*
X206510553Y-82396198D01*
X206540231Y-82512567D01*
X206540233Y-82512573D01*
X206617143Y-82656283D01*
X206620498Y-82662552D01*
X206620501Y-82662555D01*
X206714504Y-82766958D01*
X206734324Y-82788970D01*
X206790686Y-82827207D01*
X206875097Y-82884474D01*
X207034631Y-82943511D01*
X207034632Y-82943511D01*
X207034637Y-82943513D01*
X207104784Y-82953612D01*
X208965463Y-83051126D01*
X208965470Y-83051125D01*
X208965473Y-83051126D01*
X209024478Y-83048866D01*
X209036282Y-83048414D01*
X209201118Y-83006376D01*
X209351103Y-82926109D01*
X209477521Y-82812282D01*
X209573025Y-82671509D01*
X209632064Y-82511970D01*
X209642163Y-82441822D01*
X209700425Y-81330116D01*
X209700195Y-81324111D01*
X209697714Y-81259303D01*
X209697714Y-81259297D01*
X209655675Y-81094461D01*
X209655673Y-81094457D01*
X209655672Y-81094454D01*
X209575410Y-80944480D01*
X209575408Y-80944476D01*
X209461582Y-80818058D01*
X209345131Y-80739055D01*
X209320807Y-80722553D01*
X209175896Y-80668927D01*
X209126782Y-80635607D01*
X208212382Y-79620062D01*
X207196833Y-80534466D01*
X207144504Y-80562470D01*
X206994788Y-80600652D01*
X206994782Y-80600654D01*
X206844807Y-80680916D01*
X206844799Y-80680922D01*
X206718385Y-80794745D01*
X206718384Y-80794747D01*
X206622880Y-80935519D01*
X206563843Y-81095052D01*
X206563841Y-81095058D01*
X206553742Y-81165208D01*
X206495481Y-82276911D01*
X206495480Y-82276924D01*
X206212537Y-82276924D01*
X206235433Y-80294604D01*
X206255891Y-80227797D01*
X206309220Y-80182655D01*
X206378488Y-80173511D01*
X206441705Y-80203268D01*
X206459203Y-80224564D01*
X206460127Y-80223889D01*
X206583940Y-80393096D01*
X206583944Y-80393101D01*
X206595233Y-80403335D01*
X207836719Y-79285497D01*
X208583952Y-79285497D01*
X209738796Y-80568082D01*
X209751098Y-80559081D01*
X209751102Y-80559078D01*
X209775544Y-80532116D01*
X213958048Y-80532116D01*
X213958048Y-80739055D01*
X213998416Y-80941998D01*
X213998418Y-80942006D01*
X214068721Y-81111733D01*
X214077607Y-81133184D01*
X214131097Y-81213238D01*
X214192572Y-81305243D01*
X214338890Y-81451561D01*
X214338893Y-81451563D01*
X214510950Y-81566527D01*
X214702128Y-81645716D01*
X214862652Y-81677646D01*
X214905078Y-81686085D01*
X214905082Y-81686086D01*
X214905083Y-81686086D01*
X215112014Y-81686086D01*
X215112015Y-81686085D01*
X215314968Y-81645716D01*
X215506146Y-81566527D01*
X215678203Y-81451563D01*
X215824525Y-81305241D01*
X215939489Y-81133184D01*
X216018678Y-80942006D01*
X216059048Y-80739051D01*
X216059048Y-80665049D01*
X216494567Y-80665049D01*
X216494567Y-80871988D01*
X216534935Y-81074931D01*
X216534937Y-81074939D01*
X216611303Y-81259303D01*
X216614126Y-81266117D01*
X216669074Y-81348353D01*
X216729091Y-81438176D01*
X216875409Y-81584494D01*
X216875412Y-81584496D01*
X217047469Y-81699460D01*
X217238647Y-81778649D01*
X217441597Y-81819018D01*
X217441601Y-81819019D01*
X217441602Y-81819019D01*
X217648533Y-81819019D01*
X217648534Y-81819018D01*
X217851487Y-81778649D01*
X218042665Y-81699460D01*
X218214722Y-81584496D01*
X218361044Y-81438174D01*
X218476008Y-81266117D01*
X218555197Y-81074939D01*
X218595567Y-80871984D01*
X218595567Y-80665054D01*
X218555197Y-80462099D01*
X218476008Y-80270921D01*
X218361044Y-80098864D01*
X218361042Y-80098861D01*
X218214724Y-79952543D01*
X218094722Y-79872361D01*
X218042665Y-79837578D01*
X217999284Y-79819609D01*
X217851487Y-79758389D01*
X217851479Y-79758387D01*
X217648536Y-79718019D01*
X217648532Y-79718019D01*
X217441602Y-79718019D01*
X217441597Y-79718019D01*
X217238654Y-79758387D01*
X217238646Y-79758389D01*
X217047470Y-79837577D01*
X216875409Y-79952543D01*
X216729091Y-80098861D01*
X216614125Y-80270922D01*
X216534937Y-80462098D01*
X216534935Y-80462106D01*
X216494567Y-80665049D01*
X216059048Y-80665049D01*
X216059048Y-80532121D01*
X216018678Y-80329166D01*
X215939489Y-80137988D01*
X215824525Y-79965931D01*
X215824523Y-79965928D01*
X215678205Y-79819610D01*
X215532660Y-79722361D01*
X215506146Y-79704645D01*
X215488551Y-79697357D01*
X215314968Y-79625456D01*
X215314960Y-79625454D01*
X215112017Y-79585086D01*
X215112013Y-79585086D01*
X214905083Y-79585086D01*
X214905078Y-79585086D01*
X214702135Y-79625454D01*
X214702127Y-79625456D01*
X214510951Y-79704644D01*
X214338890Y-79819610D01*
X214192572Y-79965928D01*
X214077606Y-80137989D01*
X213998418Y-80329165D01*
X213998416Y-80329173D01*
X213958048Y-80532116D01*
X209775544Y-80532116D01*
X209856563Y-80442746D01*
X209887694Y-80408405D01*
X209887701Y-80408395D01*
X209991166Y-80233310D01*
X209991166Y-80233309D01*
X210057272Y-80040972D01*
X210074112Y-79922364D01*
X210074113Y-79922355D01*
X210132520Y-78807887D01*
X210132520Y-78807882D01*
X210128171Y-78688172D01*
X210082530Y-78489971D01*
X209997930Y-78305025D01*
X209997929Y-78305023D01*
X209877831Y-78140893D01*
X209877827Y-78140888D01*
X209866537Y-78130653D01*
X208583952Y-79285497D01*
X207836719Y-79285497D01*
X207877818Y-79248491D01*
X206722974Y-77965907D01*
X206722973Y-77965907D01*
X206710669Y-77974910D01*
X206574077Y-78125584D01*
X206574070Y-78125594D01*
X206490339Y-78267286D01*
X206439286Y-78314987D01*
X206370549Y-78327514D01*
X206305951Y-78300890D01*
X206266001Y-78243568D01*
X206259594Y-78202769D01*
X206260427Y-78130653D01*
X206407404Y-65405500D01*
X206407410Y-65405500D01*
X206407410Y-65405000D01*
X206407412Y-65404799D01*
X206407411Y-65404798D01*
X206407418Y-65404200D01*
X206407629Y-65382942D01*
X206407400Y-65381706D01*
X206407400Y-65210905D01*
X206407399Y-65210904D01*
X206373567Y-64824194D01*
X206367928Y-64792216D01*
X206346303Y-64669570D01*
X206306159Y-64441902D01*
X206205688Y-64066941D01*
X206180281Y-63997137D01*
X206178725Y-63991665D01*
X206171531Y-63973096D01*
X206171099Y-63971908D01*
X206156611Y-63932103D01*
X206072920Y-63702162D01*
X206035399Y-63621698D01*
X206030331Y-63608615D01*
X206014087Y-63575993D01*
X206013398Y-63574515D01*
X206013397Y-63574514D01*
X205908874Y-63350361D01*
X205908861Y-63350337D01*
X205858883Y-63263772D01*
X205858883Y-63263771D01*
X205856963Y-63260445D01*
X205847226Y-63240891D01*
X205824221Y-63203737D01*
X205823260Y-63202072D01*
X205823259Y-63202071D01*
X205714770Y-63014162D01*
X205648255Y-62919168D01*
X205644429Y-62913362D01*
X205638096Y-62903134D01*
X205619541Y-62835775D01*
X205640350Y-62769076D01*
X205693915Y-62724214D01*
X205763230Y-62715434D01*
X205826290Y-62745522D01*
X205831205Y-62750177D01*
X207302754Y-64221726D01*
X207376977Y-64264579D01*
X207459763Y-64286761D01*
X207459765Y-64286761D01*
X214263890Y-64286761D01*
X214263892Y-64286761D01*
X214346678Y-64264579D01*
X214420901Y-64221726D01*
X214770976Y-63871649D01*
X216313378Y-63871649D01*
X216517324Y-63882338D01*
X216517332Y-63882337D01*
X216577122Y-63879061D01*
X216577127Y-63879060D01*
X216714283Y-63835936D01*
X216833738Y-63755913D01*
X216919328Y-63653252D01*
X216977376Y-63614366D01*
X217021057Y-63608826D01*
X217540265Y-63636037D01*
X217753244Y-63647199D01*
X217753245Y-63647199D01*
X217753245Y-63647198D01*
X217753247Y-63647199D01*
X217812259Y-63638643D01*
X217880808Y-63597859D01*
X217928533Y-63533949D01*
X217943211Y-63476154D01*
X218032678Y-61769008D01*
X218034343Y-61737246D01*
X218033735Y-61733053D01*
X218025787Y-61678233D01*
X218025786Y-61678231D01*
X218025786Y-61678230D01*
X217985005Y-61609684D01*
X217921094Y-61561959D01*
X217901828Y-61557066D01*
X217863299Y-61547281D01*
X217700575Y-61538752D01*
X217131110Y-61508908D01*
X217065193Y-61485742D01*
X217034580Y-61454091D01*
X216960191Y-61343047D01*
X216849757Y-61250976D01*
X216717859Y-61193751D01*
X216658732Y-61184242D01*
X216658720Y-61184240D01*
X216454779Y-61173552D01*
X216384079Y-62522601D01*
X216313378Y-63871649D01*
X214770976Y-63871649D01*
X215064740Y-63577884D01*
X215126061Y-63544401D01*
X215195752Y-63549385D01*
X215251686Y-63591256D01*
X215255439Y-63596553D01*
X215308653Y-63675987D01*
X215419086Y-63768057D01*
X215550984Y-63825282D01*
X215610111Y-63834791D01*
X215610124Y-63834793D01*
X215814063Y-63845480D01*
X215884765Y-62496433D01*
X215955464Y-61147383D01*
X215955465Y-61147383D01*
X215751521Y-61136695D01*
X215751511Y-61136696D01*
X215691721Y-61139972D01*
X215691716Y-61139973D01*
X215554560Y-61183097D01*
X215435104Y-61263121D01*
X215430876Y-61268193D01*
X215372827Y-61307079D01*
X215302970Y-61308408D01*
X215243484Y-61271759D01*
X215213255Y-61208767D01*
X215211635Y-61188788D01*
X215211635Y-60892864D01*
X215231320Y-60825825D01*
X215247954Y-60805183D01*
X218725318Y-57327819D01*
X218786641Y-57294334D01*
X218812999Y-57291500D01*
X223149811Y-57291500D01*
X223216850Y-57311185D01*
X223237492Y-57327819D01*
X223524287Y-57614614D01*
X223557772Y-57675937D01*
X223552788Y-57745629D01*
X223510916Y-57801562D01*
X223445452Y-57825979D01*
X223436606Y-57826295D01*
X223344209Y-57826295D01*
X223208882Y-57853213D01*
X223208872Y-57853216D01*
X223081397Y-57906017D01*
X222966659Y-57982682D01*
X221780034Y-59169307D01*
X221703370Y-59284043D01*
X221650382Y-59411970D01*
X221606541Y-59466373D01*
X221540247Y-59488438D01*
X221472547Y-59471159D01*
X221424937Y-59420021D01*
X221411991Y-59358029D01*
X221466723Y-58313691D01*
X221458167Y-58254679D01*
X221417383Y-58186130D01*
X221405226Y-58177052D01*
X221353473Y-58138405D01*
X221334207Y-58133512D01*
X221295678Y-58123727D01*
X221092225Y-58113064D01*
X219049466Y-58006007D01*
X218990450Y-58014564D01*
X218921904Y-58055345D01*
X218874179Y-58119256D01*
X218867032Y-58147399D01*
X218859501Y-58177052D01*
X218855433Y-58254677D01*
X218695254Y-61311045D01*
X218703811Y-61370060D01*
X218744592Y-61438604D01*
X218744593Y-61438605D01*
X218744595Y-61438608D01*
X218756752Y-61447686D01*
X218808504Y-61486332D01*
X218808505Y-61486332D01*
X218808506Y-61486333D01*
X218866300Y-61501011D01*
X220692835Y-61596735D01*
X220887735Y-61606950D01*
X220953652Y-61630116D01*
X220996581Y-61685242D01*
X221002891Y-61754826D01*
X220970580Y-61816776D01*
X220968926Y-61818461D01*
X220733207Y-62054179D01*
X220733206Y-62054180D01*
X220656541Y-62168918D01*
X220603740Y-62296393D01*
X220603737Y-62296405D01*
X220577745Y-62427078D01*
X220577742Y-62427093D01*
X220576819Y-62431725D01*
X220576819Y-64852343D01*
X220557134Y-64919382D01*
X220540500Y-64940024D01*
X209804724Y-75675799D01*
X209743401Y-75709284D01*
X209673709Y-75704300D01*
X209647427Y-75690732D01*
X209586673Y-75649515D01*
X209561022Y-75640023D01*
X209504981Y-75598295D01*
X209480397Y-75532894D01*
X209495074Y-75464583D01*
X209544353Y-75415051D01*
X209573406Y-75403580D01*
X209599918Y-75396819D01*
X209749903Y-75316552D01*
X209876321Y-75202725D01*
X209971825Y-75061952D01*
X210030864Y-74902413D01*
X210040963Y-74832265D01*
X210099225Y-73720559D01*
X210098938Y-73713069D01*
X210096514Y-73649746D01*
X210096514Y-73649740D01*
X210054475Y-73484904D01*
X210054473Y-73484900D01*
X210054472Y-73484897D01*
X209974210Y-73334923D01*
X209974208Y-73334919D01*
X209860382Y-73208501D01*
X209744311Y-73129756D01*
X209719607Y-73112996D01*
X209693956Y-73103504D01*
X209637915Y-73061776D01*
X209613331Y-72996375D01*
X209628008Y-72928064D01*
X209677287Y-72878532D01*
X209706346Y-72867059D01*
X209732851Y-72860300D01*
X209882836Y-72780033D01*
X210009254Y-72666206D01*
X210104758Y-72525433D01*
X210163797Y-72365894D01*
X210173896Y-72295746D01*
X210232158Y-71184040D01*
X210231871Y-71176549D01*
X210229447Y-71113227D01*
X210229447Y-71113221D01*
X210187408Y-70948385D01*
X210187406Y-70948381D01*
X210187405Y-70948378D01*
X210107143Y-70798404D01*
X210107141Y-70798400D01*
X209993315Y-70671982D01*
X209852541Y-70576478D01*
X209852542Y-70576478D01*
X209852540Y-70576477D01*
X209826889Y-70566985D01*
X209770848Y-70525257D01*
X209746264Y-70459856D01*
X209760941Y-70391545D01*
X209810220Y-70342013D01*
X209839279Y-70330540D01*
X209865784Y-70323781D01*
X210015769Y-70243514D01*
X210142187Y-70129687D01*
X210237691Y-69988914D01*
X210296730Y-69829375D01*
X210306829Y-69759227D01*
X210365091Y-68647521D01*
X210364804Y-68640031D01*
X210362526Y-68580509D01*
X210362380Y-68576702D01*
X210320341Y-68411866D01*
X210320339Y-68411862D01*
X210320338Y-68411859D01*
X210240076Y-68261885D01*
X210240074Y-68261881D01*
X210126248Y-68135463D01*
X209985474Y-68039959D01*
X209985475Y-68039959D01*
X209985473Y-68039958D01*
X209959822Y-68030466D01*
X209903781Y-67988738D01*
X209879197Y-67923337D01*
X209893874Y-67855026D01*
X209943153Y-67805494D01*
X209972206Y-67794023D01*
X209998718Y-67787262D01*
X210148703Y-67706995D01*
X210275121Y-67593168D01*
X210370625Y-67452395D01*
X210429664Y-67292856D01*
X210439763Y-67222708D01*
X210498025Y-66111002D01*
X210495314Y-66040183D01*
X210453275Y-65875347D01*
X210453273Y-65875343D01*
X210453272Y-65875340D01*
X210373010Y-65725366D01*
X210373008Y-65725362D01*
X210259182Y-65598944D01*
X210202341Y-65560382D01*
X210118408Y-65503439D01*
X209958874Y-65444402D01*
X209958869Y-65444401D01*
X209888722Y-65434302D01*
X209888717Y-65434301D01*
X209888721Y-65434301D01*
X208079772Y-65339499D01*
X208028043Y-65336788D01*
X208028042Y-65336788D01*
X208028032Y-65336787D01*
X207957225Y-65339499D01*
X207792388Y-65381538D01*
X207792382Y-65381540D01*
X207642407Y-65461802D01*
X207642399Y-65461808D01*
X207515985Y-65575631D01*
X207515984Y-65575633D01*
X207420480Y-65716405D01*
X207361443Y-65875938D01*
X207361441Y-65875944D01*
X207351342Y-65946094D01*
X207293081Y-67057797D01*
X207293080Y-67057810D01*
X207295791Y-67128610D01*
X207295793Y-67128620D01*
X207337831Y-67293453D01*
X207337833Y-67293459D01*
X207415523Y-67438627D01*
X207418098Y-67443438D01*
X207531924Y-67569856D01*
X207624174Y-67632440D01*
X207672696Y-67665359D01*
X207672697Y-67665359D01*
X207672698Y-67665360D01*
X207698348Y-67674852D01*
X207754388Y-67716578D01*
X207778974Y-67781979D01*
X207764298Y-67850290D01*
X207715020Y-67899823D01*
X207685960Y-67911297D01*
X207659454Y-67918057D01*
X207659453Y-67918057D01*
X207659451Y-67918058D01*
X207659448Y-67918059D01*
X207509473Y-67998321D01*
X207509465Y-67998327D01*
X207383051Y-68112150D01*
X207383050Y-68112152D01*
X207287546Y-68252924D01*
X207228509Y-68412457D01*
X207228507Y-68412463D01*
X207218408Y-68482613D01*
X207160147Y-69594316D01*
X207160146Y-69594329D01*
X207162857Y-69665129D01*
X207162857Y-69665133D01*
X207162858Y-69665136D01*
X207175150Y-69713334D01*
X207204897Y-69829972D01*
X207204899Y-69829978D01*
X207283442Y-69976740D01*
X207285164Y-69979957D01*
X207398990Y-70106375D01*
X207491240Y-70168959D01*
X207539762Y-70201878D01*
X207539763Y-70201878D01*
X207539764Y-70201879D01*
X207565414Y-70211371D01*
X207621454Y-70253097D01*
X207646040Y-70318498D01*
X207631364Y-70386809D01*
X207582086Y-70436342D01*
X207553025Y-70447816D01*
X207526524Y-70454575D01*
X207526515Y-70454578D01*
X207376540Y-70534840D01*
X207376532Y-70534846D01*
X207250118Y-70648669D01*
X207250117Y-70648671D01*
X207154613Y-70789443D01*
X207095576Y-70948976D01*
X207095574Y-70948982D01*
X207085475Y-71019132D01*
X207027214Y-72130835D01*
X207027213Y-72130848D01*
X207029924Y-72201648D01*
X207029924Y-72201652D01*
X207029925Y-72201655D01*
X207053921Y-72295743D01*
X207071964Y-72366491D01*
X207071966Y-72366497D01*
X207152228Y-72516471D01*
X207152231Y-72516476D01*
X207266057Y-72642894D01*
X207323700Y-72682000D01*
X207406829Y-72738397D01*
X207406830Y-72738397D01*
X207406831Y-72738398D01*
X207432481Y-72747890D01*
X207488521Y-72789616D01*
X207513107Y-72855017D01*
X207498431Y-72923328D01*
X207449153Y-72972861D01*
X207420092Y-72984335D01*
X207393591Y-72991094D01*
X207393582Y-72991097D01*
X207243607Y-73071359D01*
X207243599Y-73071365D01*
X207117185Y-73185188D01*
X207117184Y-73185190D01*
X207021680Y-73325962D01*
X206962643Y-73485495D01*
X206962641Y-73485501D01*
X206952542Y-73555651D01*
X206894281Y-74667354D01*
X206894280Y-74667367D01*
X206896991Y-74738167D01*
X206896991Y-74738171D01*
X206896992Y-74738174D01*
X206907741Y-74780321D01*
X206939031Y-74903010D01*
X206939033Y-74903016D01*
X206990296Y-74998803D01*
X207019298Y-75052995D01*
X207133124Y-75179413D01*
X207197966Y-75223403D01*
X207273896Y-75274916D01*
X207273897Y-75274916D01*
X207273898Y-75274917D01*
X207299548Y-75284409D01*
X207355588Y-75326135D01*
X207380174Y-75391536D01*
X207365498Y-75459847D01*
X207316220Y-75509380D01*
X207287160Y-75520854D01*
X207260654Y-75527614D01*
X207260653Y-75527614D01*
X207260651Y-75527615D01*
X207260648Y-75527616D01*
X207110673Y-75607878D01*
X207110665Y-75607884D01*
X206984251Y-75721707D01*
X206984250Y-75721709D01*
X206888746Y-75862481D01*
X206829709Y-76022014D01*
X206829707Y-76022020D01*
X206819608Y-76092170D01*
X206761347Y-77203873D01*
X206761346Y-77203886D01*
X206764057Y-77274686D01*
X206764057Y-77274690D01*
X206764058Y-77274693D01*
X206800102Y-77416023D01*
X206806097Y-77439529D01*
X206806099Y-77439535D01*
X206886361Y-77589509D01*
X206886364Y-77589514D01*
X207000190Y-77715932D01*
X207140964Y-77811436D01*
X207285876Y-77865062D01*
X207334988Y-77898381D01*
X208249388Y-78913926D01*
X209264935Y-77999524D01*
X209272273Y-77995597D01*
X214090981Y-77995597D01*
X214090981Y-78202536D01*
X214131349Y-78405479D01*
X214131351Y-78405487D01*
X214196157Y-78561943D01*
X214210540Y-78596665D01*
X214268022Y-78682693D01*
X214325505Y-78768724D01*
X214471823Y-78915042D01*
X214471826Y-78915044D01*
X214643883Y-79030008D01*
X214835061Y-79109197D01*
X215016554Y-79145298D01*
X215038011Y-79149566D01*
X215038015Y-79149567D01*
X215038016Y-79149567D01*
X215244947Y-79149567D01*
X215244948Y-79149566D01*
X215447901Y-79109197D01*
X215639079Y-79030008D01*
X215811136Y-78915044D01*
X215957458Y-78768722D01*
X216072422Y-78596665D01*
X216151611Y-78405487D01*
X216191981Y-78202532D01*
X216191981Y-78128530D01*
X216627500Y-78128530D01*
X216627500Y-78335469D01*
X216667868Y-78538412D01*
X216667870Y-78538420D01*
X216734419Y-78699084D01*
X216747059Y-78729598D01*
X216799366Y-78807882D01*
X216862024Y-78901657D01*
X217008342Y-79047975D01*
X217008345Y-79047977D01*
X217180402Y-79162941D01*
X217371580Y-79242130D01*
X217574530Y-79282499D01*
X217574534Y-79282500D01*
X217574535Y-79282500D01*
X217781466Y-79282500D01*
X217781467Y-79282499D01*
X217984420Y-79242130D01*
X218175598Y-79162941D01*
X218347655Y-79047977D01*
X218493977Y-78901655D01*
X218608941Y-78729598D01*
X218688130Y-78538420D01*
X218728500Y-78335465D01*
X218728500Y-78128535D01*
X218688130Y-77925580D01*
X218608941Y-77734402D01*
X218493977Y-77562345D01*
X218493975Y-77562342D01*
X218347657Y-77416024D01*
X218250716Y-77351251D01*
X218175598Y-77301059D01*
X218132217Y-77283090D01*
X217984420Y-77221870D01*
X217984412Y-77221868D01*
X217781469Y-77181500D01*
X217781465Y-77181500D01*
X217574535Y-77181500D01*
X217574530Y-77181500D01*
X217371587Y-77221868D01*
X217371579Y-77221870D01*
X217180403Y-77301058D01*
X217008342Y-77416024D01*
X216862024Y-77562342D01*
X216747058Y-77734403D01*
X216667870Y-77925579D01*
X216667868Y-77925587D01*
X216627500Y-78128530D01*
X216191981Y-78128530D01*
X216191981Y-77995602D01*
X216151611Y-77792647D01*
X216072422Y-77601469D01*
X215957458Y-77429412D01*
X215957456Y-77429409D01*
X215811138Y-77283091D01*
X215692580Y-77203874D01*
X215639079Y-77168126D01*
X215584554Y-77145541D01*
X215447901Y-77088937D01*
X215447893Y-77088935D01*
X215244950Y-77048567D01*
X215244946Y-77048567D01*
X215038016Y-77048567D01*
X215038011Y-77048567D01*
X214835068Y-77088935D01*
X214835060Y-77088937D01*
X214643884Y-77168125D01*
X214471823Y-77283091D01*
X214325505Y-77429409D01*
X214210539Y-77601470D01*
X214131351Y-77792646D01*
X214131349Y-77792654D01*
X214090981Y-77995597D01*
X209272273Y-77995597D01*
X209317262Y-77971521D01*
X209466984Y-77933338D01*
X209616969Y-77853071D01*
X209743387Y-77739244D01*
X209838891Y-77598471D01*
X209885848Y-77471582D01*
X209927575Y-77415542D01*
X209954688Y-77400057D01*
X210072517Y-77351251D01*
X210187249Y-77274590D01*
X211132964Y-76328875D01*
X212002762Y-75459078D01*
X214223915Y-75459078D01*
X214223915Y-75666017D01*
X214264283Y-75868960D01*
X214264285Y-75868968D01*
X214337867Y-76046611D01*
X214343474Y-76060146D01*
X214364870Y-76092168D01*
X214458439Y-76232205D01*
X214604757Y-76378523D01*
X214604760Y-76378525D01*
X214776817Y-76493489D01*
X214967995Y-76572678D01*
X215170945Y-76613047D01*
X215170949Y-76613048D01*
X215170950Y-76613048D01*
X215377881Y-76613048D01*
X215377882Y-76613047D01*
X215580835Y-76572678D01*
X215772013Y-76493489D01*
X215944070Y-76378525D01*
X216090392Y-76232203D01*
X216205356Y-76060146D01*
X216284545Y-75868968D01*
X216324915Y-75666013D01*
X216324915Y-75592011D01*
X216760434Y-75592011D01*
X216760434Y-75798950D01*
X216800802Y-76001893D01*
X216800804Y-76001901D01*
X216872143Y-76174129D01*
X216879993Y-76193079D01*
X216937475Y-76279107D01*
X216994958Y-76365138D01*
X217141276Y-76511456D01*
X217141279Y-76511458D01*
X217313336Y-76626422D01*
X217504514Y-76705611D01*
X217703709Y-76745233D01*
X217707464Y-76745980D01*
X217707468Y-76745981D01*
X217707469Y-76745981D01*
X217914400Y-76745981D01*
X217914401Y-76745980D01*
X218117354Y-76705611D01*
X218308532Y-76626422D01*
X218480589Y-76511458D01*
X218626911Y-76365136D01*
X218741875Y-76193079D01*
X218821064Y-76001901D01*
X218861434Y-75798946D01*
X218861434Y-75592016D01*
X218821064Y-75389061D01*
X218741875Y-75197883D01*
X218626911Y-75025826D01*
X218626909Y-75025823D01*
X218480591Y-74879505D01*
X218394560Y-74822022D01*
X218308532Y-74764540D01*
X218285201Y-74754876D01*
X218117354Y-74685351D01*
X218117346Y-74685349D01*
X217914403Y-74644981D01*
X217914399Y-74644981D01*
X217707469Y-74644981D01*
X217707464Y-74644981D01*
X217504521Y-74685349D01*
X217504513Y-74685351D01*
X217313337Y-74764539D01*
X217141276Y-74879505D01*
X216994958Y-75025823D01*
X216879992Y-75197884D01*
X216800804Y-75389060D01*
X216800802Y-75389068D01*
X216760434Y-75592011D01*
X216324915Y-75592011D01*
X216324915Y-75459083D01*
X216284545Y-75256128D01*
X216205356Y-75064950D01*
X216090392Y-74892893D01*
X216090390Y-74892890D01*
X215944072Y-74746572D01*
X215825514Y-74667355D01*
X215772013Y-74631607D01*
X215744940Y-74620393D01*
X215580835Y-74552418D01*
X215580827Y-74552416D01*
X215377884Y-74512048D01*
X215377880Y-74512048D01*
X215170950Y-74512048D01*
X215170945Y-74512048D01*
X214968002Y-74552416D01*
X214967994Y-74552418D01*
X214776818Y-74631606D01*
X214604757Y-74746572D01*
X214458439Y-74892890D01*
X214343473Y-75064951D01*
X214264285Y-75256127D01*
X214264283Y-75256135D01*
X214223915Y-75459078D01*
X212002762Y-75459078D01*
X212096530Y-75365310D01*
X221821430Y-65640409D01*
X221821431Y-65640408D01*
X221821433Y-65640406D01*
X221898094Y-65525674D01*
X221910958Y-65494619D01*
X221926943Y-65456027D01*
X221950899Y-65398191D01*
X221973521Y-65284464D01*
X221977819Y-65262859D01*
X221977819Y-64442142D01*
X221981283Y-64430343D01*
X221980173Y-64418096D01*
X221990943Y-64397446D01*
X221997504Y-64375103D01*
X222006796Y-64367051D01*
X222012484Y-64356146D01*
X222032710Y-64344596D01*
X222050308Y-64329348D01*
X222063966Y-64326749D01*
X222073159Y-64321500D01*
X222108304Y-64318312D01*
X222161643Y-64321107D01*
X222227558Y-64344273D01*
X222270487Y-64399399D01*
X222279151Y-64444937D01*
X222279151Y-74424079D01*
X222259466Y-74491118D01*
X222206662Y-74536873D01*
X222137504Y-74546817D01*
X222135463Y-74546506D01*
X222072919Y-74536448D01*
X220034751Y-74429632D01*
X220034738Y-74429633D01*
X219977882Y-74432746D01*
X219977877Y-74432746D01*
X219977876Y-74432747D01*
X219977874Y-74432747D01*
X219977872Y-74432748D01*
X219847437Y-74473761D01*
X219733839Y-74549859D01*
X219733839Y-74549860D01*
X219646283Y-74654881D01*
X219591859Y-74780314D01*
X219591857Y-74780321D01*
X219582815Y-74836552D01*
X219549269Y-75476638D01*
X219549270Y-75476650D01*
X219552384Y-75533506D01*
X219552386Y-75533518D01*
X219593398Y-75663951D01*
X219632090Y-75721708D01*
X219662584Y-75767228D01*
X219669498Y-75777548D01*
X219669501Y-75777552D01*
X219671598Y-75779300D01*
X219774521Y-75865108D01*
X219899957Y-75919531D01*
X219956189Y-75928574D01*
X221552837Y-76012249D01*
X221994356Y-76035389D01*
X221994358Y-76035388D01*
X221994361Y-76035389D01*
X222051232Y-76032275D01*
X222117958Y-76011293D01*
X222145515Y-76010768D01*
X222172798Y-76006846D01*
X222179951Y-76010112D01*
X222187813Y-76009963D01*
X222211279Y-76024419D01*
X222236354Y-76035871D01*
X222240605Y-76042486D01*
X222247300Y-76046611D01*
X222259224Y-76071458D01*
X222274128Y-76094649D01*
X222275742Y-76105877D01*
X222277530Y-76109602D01*
X222279151Y-76129584D01*
X222279151Y-76367250D01*
X222259466Y-76434289D01*
X222206662Y-76480044D01*
X222137504Y-76489988D01*
X222105797Y-76481005D01*
X222075252Y-76467752D01*
X222029451Y-76447881D01*
X221973219Y-76438838D01*
X221928378Y-76436488D01*
X219935051Y-76332022D01*
X219935038Y-76332023D01*
X219878182Y-76335136D01*
X219878177Y-76335136D01*
X219878176Y-76335137D01*
X219878174Y-76335137D01*
X219878172Y-76335138D01*
X219747737Y-76376151D01*
X219634139Y-76452249D01*
X219634139Y-76452250D01*
X219546583Y-76557271D01*
X219492159Y-76682704D01*
X219492157Y-76682711D01*
X219483115Y-76738942D01*
X219449569Y-77379028D01*
X219449570Y-77379040D01*
X219452684Y-77435896D01*
X219452686Y-77435908D01*
X219493698Y-77566341D01*
X219526084Y-77614684D01*
X219569799Y-77679940D01*
X219674821Y-77767498D01*
X219800257Y-77821921D01*
X219856489Y-77830964D01*
X221453137Y-77914639D01*
X221894656Y-77937779D01*
X221894658Y-77937778D01*
X221894661Y-77937779D01*
X221951532Y-77934665D01*
X222081970Y-77893651D01*
X222086138Y-77890859D01*
X222152790Y-77869901D01*
X222220192Y-77888306D01*
X222266944Y-77940229D01*
X222279151Y-77993879D01*
X222279151Y-80970524D01*
X222279151Y-81056230D01*
X222289395Y-81094461D01*
X222301333Y-81139017D01*
X222320662Y-81172494D01*
X222344186Y-81213239D01*
X222344188Y-81213241D01*
X222752566Y-81621619D01*
X222786051Y-81682942D01*
X222781067Y-81752634D01*
X222767505Y-81778907D01*
X222765728Y-81781526D01*
X222706688Y-81941068D01*
X222706687Y-81941069D01*
X222696588Y-82011219D01*
X222638327Y-83122922D01*
X222638326Y-83122935D01*
X222641037Y-83193735D01*
X222641037Y-83193739D01*
X222641038Y-83193742D01*
X222661907Y-83275570D01*
X222683077Y-83358578D01*
X222683079Y-83358584D01*
X222762463Y-83506917D01*
X222763344Y-83508563D01*
X222877170Y-83634981D01*
X222928348Y-83669701D01*
X223017943Y-83730485D01*
X223177477Y-83789522D01*
X223177478Y-83789522D01*
X223177483Y-83789524D01*
X223247630Y-83799623D01*
X225108309Y-83897137D01*
X225108316Y-83897136D01*
X225108319Y-83897137D01*
X225167324Y-83894877D01*
X225179128Y-83894425D01*
X225343964Y-83852387D01*
X225493949Y-83772120D01*
X225620367Y-83658293D01*
X225708106Y-83528964D01*
X225762032Y-83484538D01*
X225831417Y-83476319D01*
X225894230Y-83506917D01*
X225930530Y-83566618D01*
X225934191Y-83587143D01*
X225936367Y-83610644D01*
X225936369Y-83610652D01*
X225982172Y-83718281D01*
X225982173Y-83718282D01*
X225982174Y-83718284D01*
X226030648Y-83772120D01*
X226060445Y-83805213D01*
X226060447Y-83805215D01*
X226142203Y-83850631D01*
X226162703Y-83862019D01*
X226230224Y-83875498D01*
X227470042Y-83940474D01*
X227538601Y-83934127D01*
X227646236Y-83888322D01*
X227733167Y-83810049D01*
X227789971Y-83707792D01*
X227803450Y-83640272D01*
X227819486Y-83334289D01*
X227842652Y-83268374D01*
X227897778Y-83225445D01*
X227967363Y-83219135D01*
X228029312Y-83251446D01*
X228030997Y-83253100D01*
X228212219Y-83434322D01*
X228245704Y-83495645D01*
X228248538Y-83522003D01*
X228248538Y-83799534D01*
X228228853Y-83866573D01*
X228176049Y-83912328D01*
X228118054Y-83923364D01*
X228105325Y-83922697D01*
X228036763Y-83929045D01*
X228036761Y-83929045D01*
X227929131Y-83974848D01*
X227842198Y-84053122D01*
X227804960Y-84120157D01*
X227785394Y-84155380D01*
X227781759Y-84173591D01*
X227771914Y-84222903D01*
X227759208Y-84465338D01*
X227736041Y-84531256D01*
X227680915Y-84574184D01*
X227611331Y-84580494D01*
X227594599Y-84575951D01*
X227507648Y-84545671D01*
X227470999Y-84540846D01*
X227471000Y-84540846D01*
X227068414Y-84519748D01*
X227039630Y-85068994D01*
X228023075Y-85120533D01*
X228023011Y-85118038D01*
X228023010Y-85118036D01*
X228013876Y-85079091D01*
X228017732Y-85009328D01*
X228058692Y-84952724D01*
X228123753Y-84927250D01*
X228141075Y-84926945D01*
X229292753Y-84987302D01*
X229361312Y-84980955D01*
X229468947Y-84935150D01*
X229555878Y-84856877D01*
X229612682Y-84754620D01*
X229626161Y-84687100D01*
X229645344Y-84321082D01*
X229638996Y-84252523D01*
X229638995Y-84252520D01*
X229638995Y-84252519D01*
X229593192Y-84144890D01*
X229593191Y-84144889D01*
X229593191Y-84144888D01*
X229514919Y-84057958D01*
X229514917Y-84057956D01*
X229412668Y-84001156D01*
X229412662Y-84001153D01*
X229395665Y-83997760D01*
X229345141Y-83987674D01*
X229267047Y-83983580D01*
X229201130Y-83960414D01*
X229158202Y-83905288D01*
X229149538Y-83859751D01*
X229149538Y-83224731D01*
X229149538Y-83224729D01*
X229118837Y-83110152D01*
X229118837Y-83110151D01*
X229059527Y-83007424D01*
X227900773Y-81848670D01*
X227867288Y-81787347D01*
X227872272Y-81717655D01*
X227914144Y-81661722D01*
X227979608Y-81637305D01*
X227994927Y-81637159D01*
X230830842Y-81785783D01*
X231118499Y-81800859D01*
X231118499Y-81800858D01*
X231118501Y-81800859D01*
X231177513Y-81792303D01*
X231246062Y-81751519D01*
X231293787Y-81687608D01*
X231308465Y-81629814D01*
X231426184Y-79383601D01*
X231417628Y-79324589D01*
X231417627Y-79324587D01*
X231417627Y-79324586D01*
X231376846Y-79256040D01*
X231312935Y-79208315D01*
X231291498Y-79202871D01*
X231255140Y-79193637D01*
X230913455Y-79175730D01*
X228121146Y-79029390D01*
X228062131Y-79037947D01*
X227993587Y-79078728D01*
X227993581Y-79078734D01*
X227945859Y-79142640D01*
X227931181Y-79200437D01*
X227813461Y-81446647D01*
X227813741Y-81452734D01*
X227812193Y-81452804D01*
X227803402Y-81514463D01*
X227757709Y-81567320D01*
X227690692Y-81587083D01*
X227623630Y-81567476D01*
X227602867Y-81550764D01*
X227493867Y-81441764D01*
X227460382Y-81380441D01*
X227457548Y-81354083D01*
X227457548Y-78524858D01*
X227477233Y-78457819D01*
X227530037Y-78412064D01*
X227588035Y-78401028D01*
X227639825Y-78403743D01*
X227698836Y-78395186D01*
X227767386Y-78354403D01*
X227815111Y-78290492D01*
X227829789Y-78232698D01*
X227878382Y-77305475D01*
X227869826Y-77246463D01*
X227849300Y-77211963D01*
X227831941Y-77144286D01*
X227853926Y-77077966D01*
X227856512Y-77074370D01*
X227880530Y-77042206D01*
X227880529Y-77042206D01*
X227880531Y-77042205D01*
X227895209Y-76984411D01*
X227943802Y-76057188D01*
X227935246Y-75998176D01*
X227935245Y-75998174D01*
X227935245Y-75998173D01*
X227909626Y-75955113D01*
X227894463Y-75929627D01*
X227880942Y-75919530D01*
X227822774Y-75876092D01*
X227780837Y-75820208D01*
X227772968Y-75776738D01*
X227772968Y-73629742D01*
X227792653Y-73562703D01*
X227809283Y-73542065D01*
X228022450Y-73328898D01*
X228083770Y-73295415D01*
X228153461Y-73300399D01*
X228209395Y-73342270D01*
X228233812Y-73407735D01*
X228233958Y-73423071D01*
X228145794Y-75105349D01*
X228154351Y-75164365D01*
X228195132Y-75232911D01*
X228259043Y-75280636D01*
X228259044Y-75280636D01*
X228259045Y-75280637D01*
X228316839Y-75295315D01*
X231107527Y-75441569D01*
X231450832Y-75459561D01*
X231450832Y-75459560D01*
X231450834Y-75459561D01*
X231509846Y-75451005D01*
X231578395Y-75410221D01*
X231626120Y-75346310D01*
X231640798Y-75288516D01*
X231756994Y-73071359D01*
X231758517Y-73042304D01*
X231753967Y-73010923D01*
X231749961Y-72983291D01*
X231749960Y-72983289D01*
X231749960Y-72983288D01*
X231709179Y-72914742D01*
X231645268Y-72867017D01*
X231618807Y-72860297D01*
X231587473Y-72852339D01*
X231412237Y-72843155D01*
X230720229Y-72806888D01*
X230654312Y-72783722D01*
X230611383Y-72728596D01*
X230605073Y-72659011D01*
X230637384Y-72597062D01*
X230639038Y-72595377D01*
X230868522Y-72365893D01*
X231647236Y-71587177D01*
X231708557Y-71553694D01*
X231741402Y-71551030D01*
X232787307Y-71605844D01*
X232817848Y-71604586D01*
X232948203Y-71566504D01*
X233061542Y-71491690D01*
X233147793Y-71386792D01*
X233199293Y-71261132D01*
X233203736Y-71230890D01*
X233277453Y-69824288D01*
X233276195Y-69793748D01*
X233238112Y-69663393D01*
X233163298Y-69550054D01*
X233122562Y-69516559D01*
X233058399Y-69463801D01*
X233058394Y-69463799D01*
X233042814Y-69457413D01*
X232988248Y-69413774D01*
X232965937Y-69347562D01*
X232965841Y-69342677D01*
X232965841Y-68015738D01*
X232985526Y-67948699D01*
X233038330Y-67902944D01*
X233096327Y-67891908D01*
X233260566Y-67900516D01*
X233291107Y-67899258D01*
X233421462Y-67861176D01*
X233534801Y-67786362D01*
X233621052Y-67681464D01*
X233672552Y-67555804D01*
X233676995Y-67525562D01*
X233750712Y-66118960D01*
X233749454Y-66088420D01*
X233711371Y-65958065D01*
X233636557Y-65844726D01*
X233593886Y-65809640D01*
X233531663Y-65758477D01*
X233531661Y-65758475D01*
X233450864Y-65725362D01*
X233406000Y-65706975D01*
X233390879Y-65704753D01*
X233375759Y-65702532D01*
X233375765Y-65702532D01*
X231372264Y-65597533D01*
X231306347Y-65574367D01*
X231291073Y-65561384D01*
X230530274Y-64800585D01*
X230496789Y-64739262D01*
X230501773Y-64669570D01*
X230543645Y-64613637D01*
X230609109Y-64589220D01*
X230624445Y-64589074D01*
X230987732Y-64608113D01*
X230987732Y-64608112D01*
X230987734Y-64608113D01*
X231046746Y-64599557D01*
X231115295Y-64558774D01*
X231163021Y-64494863D01*
X231177699Y-64437069D01*
X231245233Y-63148442D01*
X231247562Y-63104003D01*
X231247561Y-63103995D01*
X231239005Y-63044992D01*
X231239004Y-63044989D01*
X231220668Y-63014170D01*
X231198222Y-62976441D01*
X231166266Y-62952578D01*
X231134312Y-62928716D01*
X231096834Y-62919198D01*
X231076517Y-62914038D01*
X231076515Y-62914037D01*
X231076514Y-62914037D01*
X231052634Y-62912786D01*
X230986717Y-62889618D01*
X230965311Y-62870040D01*
X230957620Y-62861141D01*
X230929003Y-62811576D01*
X230740107Y-62622680D01*
X231873209Y-62622680D01*
X231881766Y-62681695D01*
X231922547Y-62750239D01*
X231922548Y-62750240D01*
X231922550Y-62750243D01*
X231922553Y-62750245D01*
X231986459Y-62797967D01*
X231986460Y-62797967D01*
X231986461Y-62797968D01*
X232044255Y-62812646D01*
X234077313Y-62919194D01*
X234290466Y-62930365D01*
X234290466Y-62930364D01*
X234290468Y-62930365D01*
X234349480Y-62921809D01*
X234353869Y-62919198D01*
X234418028Y-62881027D01*
X234426233Y-62870040D01*
X234465754Y-62817115D01*
X234480432Y-62759321D01*
X234644678Y-59625326D01*
X234636122Y-59566314D01*
X234622711Y-59543773D01*
X234595340Y-59497768D01*
X234595339Y-59497767D01*
X234595338Y-59497765D01*
X234559709Y-59471159D01*
X234531428Y-59450040D01*
X234512162Y-59445147D01*
X234473633Y-59435362D01*
X234270180Y-59424699D01*
X232227421Y-59317642D01*
X232168405Y-59326199D01*
X232099859Y-59366980D01*
X232052134Y-59430891D01*
X232043123Y-59466373D01*
X232038476Y-59484673D01*
X232037456Y-59488688D01*
X231873209Y-62622680D01*
X230740107Y-62622680D01*
X230178344Y-62060917D01*
X230126980Y-62031262D01*
X230075618Y-62001607D01*
X230063510Y-61998363D01*
X230051403Y-61995119D01*
X230051400Y-61995118D01*
X230007981Y-61983484D01*
X229961039Y-61970906D01*
X228493812Y-61970906D01*
X228403446Y-61995119D01*
X228403445Y-61995118D01*
X228379236Y-62001606D01*
X228379231Y-62001608D01*
X228352410Y-62017093D01*
X228284510Y-62033563D01*
X228218484Y-62010710D01*
X228175294Y-61955787D01*
X228166583Y-61903214D01*
X228171014Y-61818678D01*
X228226736Y-60755439D01*
X228298131Y-59393159D01*
X228321297Y-59327242D01*
X228376423Y-59284313D01*
X228421961Y-59275649D01*
X229675656Y-59275649D01*
X229675658Y-59275649D01*
X229758444Y-59253467D01*
X229832667Y-59210614D01*
X230139333Y-58903946D01*
X230169731Y-58887348D01*
X230200172Y-58870568D01*
X230200482Y-58870556D01*
X230200656Y-58870462D01*
X230235366Y-58867910D01*
X230240230Y-58868238D01*
X230253140Y-58870135D01*
X230321031Y-58873692D01*
X230321923Y-58873753D01*
X230353840Y-58885512D01*
X230385977Y-58896806D01*
X230386574Y-58897572D01*
X230387484Y-58897908D01*
X230407994Y-58925079D01*
X230428906Y-58951932D01*
X230429122Y-58953067D01*
X230429579Y-58953673D01*
X230429803Y-58956651D01*
X230437571Y-58997471D01*
X230437571Y-59118739D01*
X230417886Y-59185778D01*
X230401252Y-59206420D01*
X229284301Y-60323370D01*
X229222978Y-60356855D01*
X229195184Y-60358014D01*
X229195184Y-60359500D01*
X229028943Y-60359500D01*
X228876216Y-60400423D01*
X228876209Y-60400426D01*
X228739290Y-60479475D01*
X228739282Y-60479481D01*
X228627481Y-60591282D01*
X228627475Y-60591290D01*
X228548426Y-60728209D01*
X228548423Y-60728216D01*
X228507500Y-60880943D01*
X228507500Y-61039057D01*
X228548351Y-61191513D01*
X228548423Y-61191783D01*
X228548426Y-61191790D01*
X228627475Y-61328709D01*
X228627479Y-61328714D01*
X228627480Y-61328716D01*
X228739284Y-61440520D01*
X228739286Y-61440521D01*
X228739290Y-61440524D01*
X228861760Y-61511231D01*
X228876216Y-61519577D01*
X229028943Y-61560500D01*
X229028945Y-61560500D01*
X229187055Y-61560500D01*
X229187057Y-61560500D01*
X229339784Y-61519577D01*
X229476716Y-61440520D01*
X229588520Y-61328716D01*
X229667577Y-61191784D01*
X229708500Y-61039057D01*
X229708500Y-60880943D01*
X229708500Y-60872815D01*
X229711680Y-60872815D01*
X229720112Y-60818579D01*
X229744626Y-60783699D01*
X231023536Y-59504791D01*
X231066389Y-59430568D01*
X231088571Y-59347782D01*
X231088571Y-59262076D01*
X231088571Y-59038539D01*
X231108256Y-58971500D01*
X231161060Y-58925745D01*
X231183808Y-58918818D01*
X231183727Y-58918541D01*
X231190966Y-58916426D01*
X231190968Y-58916426D01*
X231321323Y-58878343D01*
X231434661Y-58803529D01*
X231520912Y-58698632D01*
X231554802Y-58615943D01*
X232973938Y-58615943D01*
X232973938Y-58615944D01*
X232975195Y-58646487D01*
X232992282Y-58704972D01*
X233006338Y-58753087D01*
X233013279Y-58776843D01*
X233013280Y-58776846D01*
X233088092Y-58890182D01*
X233088094Y-58890184D01*
X233192986Y-58976431D01*
X233192988Y-58976433D01*
X233192989Y-58976433D01*
X233192990Y-58976434D01*
X233318650Y-59027934D01*
X233348885Y-59032376D01*
X233348892Y-59032377D01*
X234256179Y-59079926D01*
X234286720Y-59078668D01*
X234417075Y-59040585D01*
X234530413Y-58965771D01*
X234616664Y-58860874D01*
X234668165Y-58735214D01*
X234672607Y-58704972D01*
X234743707Y-57348302D01*
X234742450Y-57317761D01*
X234704367Y-57187406D01*
X234629553Y-57074067D01*
X234629551Y-57074065D01*
X234524659Y-56987818D01*
X234524657Y-56987816D01*
X234410754Y-56941135D01*
X234398996Y-56936316D01*
X234379189Y-56933406D01*
X234368755Y-56931873D01*
X234368761Y-56931873D01*
X233461473Y-56884324D01*
X233461469Y-56884324D01*
X233461467Y-56884324D01*
X233430926Y-56885582D01*
X233430923Y-56885583D01*
X233300571Y-56923664D01*
X233187234Y-56998477D01*
X233100981Y-57103377D01*
X233063828Y-57194030D01*
X233049481Y-57229036D01*
X233045039Y-57259278D01*
X233040373Y-57348305D01*
X232973938Y-58615943D01*
X231554802Y-58615943D01*
X231572413Y-58572972D01*
X231576855Y-58542730D01*
X231641053Y-57317761D01*
X231647955Y-57186064D01*
X231647955Y-57186063D01*
X231646698Y-57155520D01*
X231646698Y-57155519D01*
X231608615Y-57025164D01*
X231533801Y-56911825D01*
X231522402Y-56902452D01*
X231428907Y-56825576D01*
X231428905Y-56825574D01*
X231366074Y-56799824D01*
X231303244Y-56774074D01*
X231283437Y-56771164D01*
X231273003Y-56769631D01*
X231273009Y-56769631D01*
X230365721Y-56722082D01*
X230365717Y-56722082D01*
X230365715Y-56722082D01*
X230335174Y-56723340D01*
X230335171Y-56723341D01*
X230204819Y-56761422D01*
X230091482Y-56836235D01*
X230005229Y-56941135D01*
X229953729Y-57066793D01*
X229953729Y-57066794D01*
X229949287Y-57097036D01*
X229927428Y-57514124D01*
X229892251Y-58185332D01*
X229869085Y-58251249D01*
X229856102Y-58266523D01*
X229598997Y-58523629D01*
X229537674Y-58557114D01*
X229467983Y-58552130D01*
X229412049Y-58510259D01*
X229387632Y-58444794D01*
X229387486Y-58429458D01*
X229387541Y-58428423D01*
X229444147Y-57348305D01*
X229457459Y-57094306D01*
X229457459Y-57094305D01*
X229456202Y-57063762D01*
X229452819Y-57052181D01*
X229418119Y-56933406D01*
X229343305Y-56820067D01*
X229288701Y-56775169D01*
X229238411Y-56733818D01*
X229238409Y-56733816D01*
X229173811Y-56707342D01*
X229112748Y-56682316D01*
X229097627Y-56680094D01*
X229082507Y-56677873D01*
X229082513Y-56677873D01*
X228175225Y-56630324D01*
X228175221Y-56630324D01*
X228175219Y-56630324D01*
X228144678Y-56631582D01*
X228144675Y-56631583D01*
X228014323Y-56669664D01*
X227900986Y-56744477D01*
X227814733Y-56849377D01*
X227777127Y-56941135D01*
X227763233Y-56975036D01*
X227758791Y-57005278D01*
X227749316Y-57186064D01*
X227688584Y-58344897D01*
X227665418Y-58410814D01*
X227610292Y-58453743D01*
X227564754Y-58462407D01*
X226408641Y-58462407D01*
X226341602Y-58442722D01*
X226295847Y-58389918D01*
X226285903Y-58320760D01*
X226285957Y-58320387D01*
X226286165Y-58318972D01*
X226290607Y-58288730D01*
X226358785Y-56987816D01*
X226361707Y-56932064D01*
X226361707Y-56932063D01*
X226360450Y-56901520D01*
X226360450Y-56901519D01*
X226322367Y-56771164D01*
X226247553Y-56657825D01*
X226214107Y-56630324D01*
X226142659Y-56571576D01*
X226142657Y-56571574D01*
X226045590Y-56531793D01*
X226016996Y-56520074D01*
X226001875Y-56517852D01*
X225986755Y-56515631D01*
X225986761Y-56515631D01*
X225079473Y-56468082D01*
X225079469Y-56468082D01*
X225079467Y-56468082D01*
X225048926Y-56469340D01*
X225048924Y-56469340D01*
X225048921Y-56469341D01*
X224958215Y-56495840D01*
X224888346Y-56495744D01*
X224835763Y-56464496D01*
X224767954Y-56396687D01*
X224734469Y-56335364D01*
X224739453Y-56265672D01*
X224781325Y-56209739D01*
X224846789Y-56185322D01*
X224857687Y-56185023D01*
X234060299Y-56337695D01*
G37*
%TD.AperFunction*%
%TA.AperFunction,Conductor*%
G36*
X222730829Y-62119970D02*
G01*
X222749880Y-62121333D01*
X222763132Y-62131254D01*
X222778761Y-62136713D01*
X222790524Y-62151760D01*
X222805813Y-62163205D01*
X222811964Y-62179183D01*
X222821795Y-62191758D01*
X222830018Y-62226081D01*
X222830300Y-62229129D01*
X222830300Y-62229131D01*
X222876103Y-62336761D01*
X222876104Y-62336762D01*
X222876105Y-62336764D01*
X222954378Y-62423695D01*
X223056635Y-62480499D01*
X223124155Y-62493978D01*
X223366593Y-62506684D01*
X223432510Y-62529850D01*
X223475439Y-62584977D01*
X223481749Y-62654561D01*
X223477206Y-62671293D01*
X223446926Y-62758244D01*
X223442101Y-62794893D01*
X223421003Y-63197477D01*
X224219907Y-63239347D01*
X224219906Y-63239347D01*
X224925167Y-63276307D01*
X224991085Y-63299473D01*
X225006359Y-63312456D01*
X227008697Y-65314794D01*
X227042182Y-65376117D01*
X227037198Y-65445809D01*
X227003995Y-65494619D01*
X227001365Y-65496986D01*
X226915112Y-65601887D01*
X226863612Y-65727548D01*
X226859169Y-65757785D01*
X226812991Y-66638903D01*
X226789825Y-66704820D01*
X226734699Y-66747749D01*
X226665114Y-66754059D01*
X226603165Y-66721748D01*
X226579833Y-66690922D01*
X226515856Y-66571377D01*
X226515854Y-66571373D01*
X226402028Y-66444955D01*
X226365003Y-66419837D01*
X226261254Y-66349450D01*
X226101720Y-66290413D01*
X226101715Y-66290412D01*
X226031568Y-66280313D01*
X226031563Y-66280312D01*
X226031567Y-66280312D01*
X224222618Y-66185510D01*
X224170889Y-66182799D01*
X224170888Y-66182799D01*
X224170878Y-66182798D01*
X224100071Y-66185510D01*
X223935234Y-66227549D01*
X223935228Y-66227551D01*
X223785253Y-66307813D01*
X223785245Y-66307819D01*
X223658831Y-66421642D01*
X223658830Y-66421644D01*
X223563326Y-66562416D01*
X223504289Y-66721949D01*
X223504287Y-66721955D01*
X223494188Y-66792105D01*
X223435927Y-67903808D01*
X223435926Y-67903821D01*
X223438637Y-67974621D01*
X223438637Y-67974625D01*
X223438638Y-67974628D01*
X223474722Y-68116114D01*
X223480677Y-68139464D01*
X223480679Y-68139470D01*
X223560941Y-68289444D01*
X223560944Y-68289449D01*
X223560947Y-68289452D01*
X223671167Y-68411866D01*
X223674770Y-68415867D01*
X223767020Y-68478451D01*
X223815542Y-68511370D01*
X223815543Y-68511370D01*
X223815544Y-68511371D01*
X223841194Y-68520863D01*
X223897234Y-68562589D01*
X223921820Y-68627990D01*
X223907144Y-68696301D01*
X223857866Y-68745834D01*
X223828805Y-68757308D01*
X223802304Y-68764067D01*
X223802295Y-68764070D01*
X223652320Y-68844332D01*
X223652312Y-68844338D01*
X223525898Y-68958161D01*
X223525897Y-68958163D01*
X223430393Y-69098935D01*
X223371356Y-69258468D01*
X223371354Y-69258474D01*
X223361255Y-69328624D01*
X223302994Y-70440327D01*
X223302993Y-70440340D01*
X223305704Y-70511140D01*
X223305704Y-70511144D01*
X223305705Y-70511147D01*
X223341264Y-70650573D01*
X223347744Y-70675983D01*
X223347746Y-70675989D01*
X223424652Y-70819692D01*
X223428011Y-70825968D01*
X223487032Y-70891518D01*
X223538234Y-70948385D01*
X223541837Y-70952386D01*
X223634087Y-71014970D01*
X223682609Y-71047889D01*
X223682610Y-71047889D01*
X223682611Y-71047890D01*
X223708261Y-71057382D01*
X223764301Y-71099108D01*
X223788887Y-71164509D01*
X223774211Y-71232820D01*
X223724933Y-71282353D01*
X223695873Y-71293827D01*
X223669367Y-71300587D01*
X223669366Y-71300587D01*
X223669364Y-71300588D01*
X223669361Y-71300589D01*
X223519386Y-71380851D01*
X223519378Y-71380857D01*
X223392964Y-71494680D01*
X223392963Y-71494682D01*
X223297459Y-71635454D01*
X223238422Y-71794987D01*
X223238420Y-71794993D01*
X223228321Y-71865143D01*
X223177981Y-72825705D01*
X223154815Y-72891622D01*
X223099689Y-72934551D01*
X223030105Y-72940861D01*
X222968155Y-72908550D01*
X222933509Y-72847875D01*
X222930151Y-72819215D01*
X222930151Y-64735190D01*
X224391856Y-64735190D01*
X224394353Y-64735125D01*
X224394354Y-64735125D01*
X224554244Y-64697623D01*
X224554249Y-64697621D01*
X224699782Y-64621538D01*
X224821825Y-64511650D01*
X224821826Y-64511649D01*
X224912709Y-64374859D01*
X224966719Y-64219763D01*
X224971544Y-64183114D01*
X224992642Y-63780529D01*
X224443395Y-63751745D01*
X224391856Y-64735190D01*
X222930151Y-64735190D01*
X222930151Y-64099378D01*
X223373737Y-64099378D01*
X223374704Y-64136333D01*
X223412206Y-64296221D01*
X223412208Y-64296227D01*
X223488292Y-64441761D01*
X223598181Y-64563805D01*
X223734970Y-64654688D01*
X223890064Y-64708697D01*
X223892541Y-64709023D01*
X223944080Y-63725576D01*
X223394835Y-63696792D01*
X223373737Y-64099378D01*
X222930151Y-64099378D01*
X222930151Y-63641937D01*
X222930150Y-63641934D01*
X222925734Y-63625453D01*
X222918776Y-63599483D01*
X222907969Y-63559151D01*
X222868743Y-63491211D01*
X222865116Y-63484928D01*
X222843433Y-63463245D01*
X222839672Y-63458689D01*
X222828155Y-63431787D01*
X222814132Y-63406106D01*
X222813424Y-63397378D01*
X222812174Y-63394458D01*
X222812857Y-63390393D01*
X222811468Y-63373258D01*
X222812209Y-63359130D01*
X222841729Y-62795851D01*
X222835382Y-62727292D01*
X222827897Y-62709704D01*
X222789578Y-62619659D01*
X222789577Y-62619658D01*
X222789577Y-62619657D01*
X222711304Y-62532726D01*
X222609047Y-62475922D01*
X222572715Y-62468669D01*
X222510828Y-62436242D01*
X222476296Y-62375502D01*
X222480084Y-62305735D01*
X222509309Y-62259390D01*
X222618867Y-62149832D01*
X222633393Y-62141900D01*
X222644853Y-62129951D01*
X222663426Y-62125501D01*
X222680188Y-62116349D01*
X222696700Y-62117529D01*
X222712800Y-62113673D01*
X222730829Y-62119970D01*
G37*
%TD.AperFunction*%
%TA.AperFunction,Conductor*%
G36*
X229946553Y-66198209D02*
G01*
X229948238Y-66199863D01*
X230757968Y-67009593D01*
X230791453Y-67070916D01*
X230794117Y-67103763D01*
X230780975Y-67354556D01*
X230779970Y-67373736D01*
X230781228Y-67404276D01*
X230816462Y-67524877D01*
X230819311Y-67534630D01*
X230819312Y-67534633D01*
X230894124Y-67647969D01*
X230894126Y-67647971D01*
X230999018Y-67734218D01*
X230999020Y-67734220D01*
X230999021Y-67734220D01*
X230999022Y-67734221D01*
X231124682Y-67785721D01*
X231154924Y-67790164D01*
X231447332Y-67805487D01*
X231513248Y-67828653D01*
X231556177Y-67883779D01*
X231564841Y-67929317D01*
X231564841Y-69207087D01*
X231545156Y-69274126D01*
X231492352Y-69319881D01*
X231434351Y-69330917D01*
X230796863Y-69297508D01*
X230796859Y-69297508D01*
X230796857Y-69297508D01*
X230766316Y-69298766D01*
X230635959Y-69336848D01*
X230522620Y-69411663D01*
X230436371Y-69516559D01*
X230384871Y-69642220D01*
X230380428Y-69672457D01*
X230316539Y-70891518D01*
X230293373Y-70957435D01*
X230280390Y-70972709D01*
X229801568Y-71451533D01*
X229740245Y-71485018D01*
X229713887Y-71487852D01*
X229160541Y-71487852D01*
X229093502Y-71468167D01*
X229047747Y-71415363D01*
X229037803Y-71346205D01*
X229064761Y-71285098D01*
X229069162Y-71279746D01*
X229153275Y-71177448D01*
X229204775Y-71051788D01*
X229209218Y-71021546D01*
X229282935Y-69614944D01*
X229281677Y-69584404D01*
X229243594Y-69454049D01*
X229168780Y-69340710D01*
X229168778Y-69340708D01*
X229063886Y-69254461D01*
X229063884Y-69254459D01*
X229001053Y-69228709D01*
X228938223Y-69202959D01*
X228923102Y-69200737D01*
X228907982Y-69198516D01*
X228907988Y-69198516D01*
X226802345Y-69088164D01*
X226802341Y-69088164D01*
X226802339Y-69088164D01*
X226771798Y-69089422D01*
X226641439Y-69127505D01*
X226571642Y-69173578D01*
X226504848Y-69194082D01*
X226437573Y-69175219D01*
X226394003Y-69128600D01*
X226382921Y-69107892D01*
X226269095Y-68981474D01*
X226128321Y-68885970D01*
X226128322Y-68885970D01*
X226128320Y-68885969D01*
X226102669Y-68876477D01*
X226046628Y-68834749D01*
X226022044Y-68769348D01*
X226036721Y-68701037D01*
X226086000Y-68651505D01*
X226115059Y-68640032D01*
X226141564Y-68633273D01*
X226291549Y-68553006D01*
X226417967Y-68439179D01*
X226513471Y-68298406D01*
X226572510Y-68138867D01*
X226582609Y-68068719D01*
X226616796Y-67416375D01*
X226639962Y-67350460D01*
X226695088Y-67307531D01*
X226764672Y-67301221D01*
X226826622Y-67333532D01*
X226844113Y-67354556D01*
X226899606Y-67438625D01*
X226899608Y-67438627D01*
X227004500Y-67524874D01*
X227004502Y-67524876D01*
X227004503Y-67524876D01*
X227004504Y-67524877D01*
X227130164Y-67576377D01*
X227160399Y-67580819D01*
X227160406Y-67580820D01*
X229266048Y-67691172D01*
X229296589Y-67689914D01*
X229426944Y-67651832D01*
X229540283Y-67577018D01*
X229626534Y-67472120D01*
X229678034Y-67346460D01*
X229682477Y-67316218D01*
X229736727Y-66281053D01*
X229759893Y-66215137D01*
X229815019Y-66172208D01*
X229884603Y-66165898D01*
X229946553Y-66198209D01*
G37*
%TD.AperFunction*%
%TA.AperFunction,Conductor*%
G36*
X227702813Y-62585120D02*
G01*
X227768730Y-62608286D01*
X227811659Y-62663412D01*
X227820323Y-62708950D01*
X227820323Y-64552850D01*
X227800638Y-64619889D01*
X227747834Y-64665644D01*
X227678676Y-64675588D01*
X227615120Y-64646563D01*
X227608642Y-64640531D01*
X226636098Y-63667987D01*
X225662761Y-62694651D01*
X225629277Y-62633329D01*
X225634261Y-62563637D01*
X225676133Y-62507704D01*
X225741597Y-62483287D01*
X225756921Y-62483141D01*
X227702813Y-62585120D01*
G37*
%TD.AperFunction*%
%TA.AperFunction,Conductor*%
G36*
X208708155Y-57697858D02*
G01*
X208753910Y-57750662D01*
X208764946Y-57808663D01*
X208609095Y-60782452D01*
X208617652Y-60841467D01*
X208658433Y-60910011D01*
X208658434Y-60910012D01*
X208658436Y-60910015D01*
X208658439Y-60910017D01*
X208722345Y-60957739D01*
X208722346Y-60957739D01*
X208722347Y-60957740D01*
X208780141Y-60972418D01*
X210784634Y-61077469D01*
X211026352Y-61090137D01*
X211026352Y-61090136D01*
X211026354Y-61090137D01*
X211085366Y-61081581D01*
X211120393Y-61060742D01*
X211153914Y-61040799D01*
X211155217Y-61039055D01*
X211201640Y-60976887D01*
X211216318Y-60919093D01*
X211355541Y-58262554D01*
X211361834Y-58244646D01*
X211363189Y-58225711D01*
X211373179Y-58212365D01*
X211378707Y-58196638D01*
X211393685Y-58184973D01*
X211405061Y-58169778D01*
X211420678Y-58163952D01*
X211433833Y-58153709D01*
X211452740Y-58151994D01*
X211470525Y-58145361D01*
X211486814Y-58148904D01*
X211503417Y-58147399D01*
X211520248Y-58156177D01*
X211538798Y-58160213D01*
X211563637Y-58178808D01*
X211565367Y-58179710D01*
X211567052Y-58181364D01*
X211652742Y-58267054D01*
X211686227Y-58328377D01*
X211689061Y-58354735D01*
X211689061Y-62382251D01*
X211689061Y-62382253D01*
X211689060Y-62382253D01*
X211715979Y-62517580D01*
X211715982Y-62517590D01*
X211754189Y-62609830D01*
X211763458Y-62663772D01*
X211742313Y-63067251D01*
X211719147Y-63133168D01*
X211664021Y-63176097D01*
X211618483Y-63184761D01*
X207875614Y-63184761D01*
X207808575Y-63165076D01*
X207787933Y-63148442D01*
X205487517Y-60848025D01*
X205454032Y-60786702D01*
X205459016Y-60717010D01*
X205500888Y-60661077D01*
X205566352Y-60636660D01*
X205617604Y-60643821D01*
X206963678Y-61133752D01*
X206993252Y-61141479D01*
X206993249Y-61141479D01*
X207095096Y-61142748D01*
X207129045Y-61143172D01*
X207129045Y-61143171D01*
X207129046Y-61143172D01*
X207219994Y-61116355D01*
X207259305Y-61104764D01*
X207372456Y-61029667D01*
X207458445Y-60924555D01*
X207471536Y-60896934D01*
X207953282Y-59573347D01*
X207961009Y-59543773D01*
X207962702Y-59407980D01*
X207962701Y-59407979D01*
X207962702Y-59407978D01*
X207938588Y-59326199D01*
X207924294Y-59277720D01*
X207849198Y-59164568D01*
X207849195Y-59164565D01*
X207849194Y-59164564D01*
X207744086Y-59078579D01*
X207744081Y-59078576D01*
X207725631Y-59069832D01*
X207716464Y-59065488D01*
X205735092Y-58344328D01*
X205735091Y-58344327D01*
X205735089Y-58344327D01*
X205735082Y-58344325D01*
X205705515Y-58336600D01*
X205705520Y-58336600D01*
X205569723Y-58334907D01*
X205439465Y-58373315D01*
X205326315Y-58448411D01*
X205326315Y-58448412D01*
X205326314Y-58448412D01*
X205326314Y-58448413D01*
X205318741Y-58457670D01*
X205240325Y-58553523D01*
X205240323Y-58553527D01*
X205227237Y-58581137D01*
X205227233Y-58581147D01*
X204758353Y-59869387D01*
X204716927Y-59925651D01*
X204651658Y-59950587D01*
X204583269Y-59936277D01*
X204554150Y-59914658D01*
X204323029Y-59683537D01*
X204323027Y-59683535D01*
X204285915Y-59662108D01*
X204248805Y-59640682D01*
X204191493Y-59625326D01*
X204166018Y-59618500D01*
X204166017Y-59618500D01*
X203857228Y-59618500D01*
X203790189Y-59598815D01*
X203744434Y-59546011D01*
X203734490Y-59476853D01*
X203740706Y-59452090D01*
X203845355Y-59164568D01*
X204194512Y-58205267D01*
X204202239Y-58175693D01*
X204203932Y-58039900D01*
X204203931Y-58039899D01*
X204203932Y-58039898D01*
X204170666Y-57927079D01*
X204165524Y-57909640D01*
X204165519Y-57909633D01*
X204163123Y-57904493D01*
X204159725Y-57882125D01*
X204151821Y-57860931D01*
X204154580Y-57848248D01*
X204152631Y-57835416D01*
X204161864Y-57814763D01*
X204166674Y-57792658D01*
X204179273Y-57775828D01*
X204181150Y-57771631D01*
X204187826Y-57764404D01*
X204237742Y-57714490D01*
X204299065Y-57681006D01*
X204325421Y-57678173D01*
X208641116Y-57678173D01*
X208708155Y-57697858D01*
G37*
%TD.AperFunction*%
%TA.AperFunction,Conductor*%
G36*
X224263472Y-58674696D02*
G01*
X224287881Y-58693658D01*
X224642595Y-59048372D01*
X224716818Y-59091225D01*
X224799604Y-59113407D01*
X225567740Y-59113407D01*
X225634779Y-59133092D01*
X225680534Y-59185896D01*
X225691570Y-59243897D01*
X225532870Y-62272058D01*
X225509704Y-62337975D01*
X225454578Y-62380904D01*
X225384994Y-62387214D01*
X225323044Y-62354903D01*
X225321359Y-62353249D01*
X224174478Y-61206368D01*
X224174476Y-61206366D01*
X224096268Y-61161212D01*
X224071746Y-61147054D01*
X224044782Y-61139830D01*
X224044780Y-61139830D01*
X223979095Y-61122229D01*
X223919436Y-61085865D01*
X223915358Y-61077469D01*
X223888907Y-61023018D01*
X223887360Y-60995969D01*
X223888557Y-60973140D01*
X223882210Y-60904581D01*
X223874296Y-60885985D01*
X223836406Y-60796948D01*
X223836405Y-60796947D01*
X223836405Y-60796946D01*
X223758132Y-60710015D01*
X223655875Y-60653211D01*
X223608843Y-60643822D01*
X223588352Y-60639731D01*
X223222335Y-60620548D01*
X223160079Y-60626313D01*
X223091510Y-60612893D01*
X223041082Y-60564532D01*
X223024647Y-60502841D01*
X223024647Y-59957372D01*
X223044332Y-59890333D01*
X223060966Y-59869691D01*
X223957317Y-58973340D01*
X223957319Y-58973338D01*
X224033980Y-58858606D01*
X224085641Y-58733883D01*
X224129479Y-58679484D01*
X224195773Y-58657418D01*
X224263472Y-58674696D01*
G37*
%TD.AperFunction*%
%TA.AperFunction,Conductor*%
G36*
X201095175Y-57870185D02*
G01*
X201115817Y-57886819D01*
X201138713Y-57909715D01*
X201172198Y-57971038D01*
X201167554Y-58039806D01*
X200986717Y-58536655D01*
X200986715Y-58536662D01*
X200978990Y-58566227D01*
X200977297Y-58702021D01*
X201012072Y-58819956D01*
X201015706Y-58832280D01*
X201090802Y-58945432D01*
X201090804Y-58945433D01*
X201090805Y-58945435D01*
X201131269Y-58978537D01*
X201195914Y-59031421D01*
X201223536Y-59044512D01*
X202056764Y-59347782D01*
X202139727Y-59377978D01*
X202195991Y-59419404D01*
X202220927Y-59484673D01*
X202206617Y-59553062D01*
X202157605Y-59602857D01*
X202097317Y-59618500D01*
X167112938Y-59618500D01*
X167045899Y-59598815D01*
X167000144Y-59546011D01*
X166988938Y-59494500D01*
X166988938Y-59120646D01*
X166988938Y-59120644D01*
X166966756Y-59037859D01*
X166963039Y-59031421D01*
X166923907Y-58963641D01*
X166923901Y-58963633D01*
X166292494Y-58332226D01*
X166292492Y-58332224D01*
X166236421Y-58299851D01*
X166218270Y-58289371D01*
X166176876Y-58278280D01*
X166135483Y-58267189D01*
X163400675Y-58267189D01*
X163314969Y-58267189D01*
X163232181Y-58289371D01*
X163157960Y-58332224D01*
X163157957Y-58332226D01*
X162613003Y-58877181D01*
X162551680Y-58910666D01*
X162525322Y-58913500D01*
X162330337Y-58913500D01*
X162247549Y-58935682D01*
X162173328Y-58978535D01*
X162173325Y-58978537D01*
X159104165Y-62047698D01*
X159077237Y-62062401D01*
X159051419Y-62078994D01*
X159045218Y-62079885D01*
X159042842Y-62081183D01*
X159016484Y-62084017D01*
X158775881Y-62084017D01*
X158708842Y-62064332D01*
X158663087Y-62011528D01*
X158653143Y-61942370D01*
X158656106Y-61927924D01*
X158662727Y-61903214D01*
X158690100Y-61801057D01*
X158690100Y-61642943D01*
X158649177Y-61490216D01*
X158644039Y-61481317D01*
X158570124Y-61353290D01*
X158570118Y-61353282D01*
X158458317Y-61241481D01*
X158458309Y-61241475D01*
X158321390Y-61162426D01*
X158321386Y-61162424D01*
X158321384Y-61162423D01*
X158168657Y-61121500D01*
X158010543Y-61121500D01*
X158010538Y-61121500D01*
X157998031Y-61124852D01*
X157928181Y-61123188D01*
X157870320Y-61084025D01*
X157842817Y-61019796D01*
X157854405Y-60950894D01*
X157878256Y-60917399D01*
X160908837Y-57886819D01*
X160970160Y-57853334D01*
X160996518Y-57850500D01*
X201028136Y-57850500D01*
X201095175Y-57870185D01*
G37*
%TD.AperFunction*%
%TA.AperFunction,Conductor*%
G36*
X162809027Y-59584185D02*
G01*
X162854782Y-59636989D01*
X162865988Y-59688500D01*
X162865988Y-60650323D01*
X162857343Y-60679763D01*
X162850820Y-60709750D01*
X162847065Y-60714765D01*
X162846303Y-60717362D01*
X162829669Y-60738004D01*
X162751492Y-60816181D01*
X162690169Y-60849666D01*
X162663811Y-60852500D01*
X161519379Y-60852500D01*
X161452340Y-60832815D01*
X161406585Y-60780011D01*
X161396641Y-60710853D01*
X161425666Y-60647297D01*
X161431698Y-60640819D01*
X162471698Y-59600819D01*
X162533021Y-59567334D01*
X162559379Y-59564500D01*
X162741988Y-59564500D01*
X162809027Y-59584185D01*
G37*
%TD.AperFunction*%
%TD*%
M02*
