%TF.GenerationSoftware,KiCad,Pcbnew,9.0.1*%
%TF.CreationDate,2025-06-09T02:25:26-04:00*%
%TF.ProjectId,Pneumatactors_1Xiao_3PiezoPumps_6Valves_Curved,506e6575-6d61-4746-9163-746f72735f31,rev?*%
%TF.SameCoordinates,Original*%
%TF.FileFunction,Paste,Top*%
%TF.FilePolarity,Positive*%
%FSLAX46Y46*%
G04 Gerber Fmt 4.6, Leading zero omitted, Abs format (unit mm)*
G04 Created by KiCad (PCBNEW 9.0.1) date 2025-06-09 02:25:26*
%MOMM*%
%LPD*%
G01*
G04 APERTURE LIST*
G04 Aperture macros list*
%AMRoundRect*
0 Rectangle with rounded corners*
0 $1 Rounding radius*
0 $2 $3 $4 $5 $6 $7 $8 $9 X,Y pos of 4 corners*
0 Add a 4 corners polygon primitive as box body*
4,1,4,$2,$3,$4,$5,$6,$7,$8,$9,$2,$3,0*
0 Add four circle primitives for the rounded corners*
1,1,$1+$1,$2,$3*
1,1,$1+$1,$4,$5*
1,1,$1+$1,$6,$7*
1,1,$1+$1,$8,$9*
0 Add four rect primitives between the rounded corners*
20,1,$1+$1,$2,$3,$4,$5,0*
20,1,$1+$1,$4,$5,$6,$7,0*
20,1,$1+$1,$6,$7,$8,$9,0*
20,1,$1+$1,$8,$9,$2,$3,0*%
%AMRotRect*
0 Rectangle, with rotation*
0 The origin of the aperture is its center*
0 $1 length*
0 $2 width*
0 $3 Rotation angle, in degrees counterclockwise*
0 Add horizontal line*
21,1,$1,$2,0,0,$3*%
G04 Aperture macros list end*
%ADD10RoundRect,0.150000X-0.594545X-0.119047X0.578844X-0.180542X0.594545X0.119047X-0.578844X0.180542X0*%
%ADD11RoundRect,0.250000X-0.734682X0.939543X-0.560371X-1.052846X0.734682X-0.939543X0.560371X1.052846X0*%
%ADD12R,1.295400X0.889000*%
%ADD13R,3.098800X2.209800*%
%ADD14RoundRect,0.250000X-0.432162X-0.603209X0.366742X-0.645078X0.432162X0.603209X-0.366742X0.645078X0*%
%ADD15RoundRect,0.500000X0.899969X0.453521X-0.847633X0.545109X-0.899969X-0.453521X0.847633X-0.545109X0*%
%ADD16RoundRect,0.275000X-0.988056X-0.223596X0.959271X-0.325651X0.988056X0.223596X-0.959271X0.325651X0*%
%ADD17C,1.700000*%
%ADD18RoundRect,0.250000X1.162006X0.268780X-0.717380X0.952820X-1.162006X-0.268780X0.717380X-0.952820X0*%
%ADD19RoundRect,0.150000X-0.587500X-0.150000X0.587500X-0.150000X0.587500X0.150000X-0.587500X0.150000X0*%
%ADD20RoundRect,0.250000X1.032648X0.596773X-0.964611X0.701445X-1.032648X-0.596773X0.964611X-0.701445X0*%
%ADD21RotRect,0.812800X1.701800X357.000000*%
%ADD22RotRect,2.209800X3.098800X357.000000*%
%ADD23RotRect,0.889000X1.295400X95.000000*%
%ADD24RotRect,2.209800X3.098800X95.000000*%
%ADD25RoundRect,0.150000X0.587500X0.150000X-0.587500X0.150000X-0.587500X-0.150000X0.587500X-0.150000X0*%
%ADD26RotRect,0.889000X1.295400X357.000000*%
%ADD27RoundRect,0.150000X0.119047X-0.594545X0.180542X0.578844X-0.119047X0.594545X-0.180542X-0.578844X0*%
%ADD28RotRect,0.812800X1.701800X5.000000*%
%ADD29RotRect,2.209800X3.098800X5.000000*%
%ADD30RoundRect,0.250000X0.734682X-0.939543X0.560371X1.052846X-0.734682X0.939543X-0.560371X-1.052846X0*%
%ADD31RoundRect,0.250000X-0.650000X1.000000X-0.650000X-1.000000X0.650000X-1.000000X0.650000X1.000000X0*%
%ADD32RotRect,0.889000X1.295400X267.000000*%
%ADD33RotRect,2.209800X3.098800X267.000000*%
G04 APERTURE END LIST*
D10*
%TO.C,Q2*%
X226876327Y-83408172D03*
X226776889Y-85305568D03*
X228699038Y-84455000D03*
%TD*%
D11*
%TO.C,D6*%
X148748187Y-69889610D03*
X149096813Y-73874390D03*
%TD*%
D12*
%TO.C,J4*%
X161150700Y-72441000D03*
X161150700Y-71191000D03*
D13*
X163900700Y-68641000D03*
X163900700Y-74991000D03*
%TD*%
D14*
%TO.C,R1*%
X225476823Y-57565883D03*
X228572575Y-57728125D03*
%TD*%
D15*
%TO.C,U2*%
X224240799Y-82649525D03*
X224373732Y-80113006D03*
X224506666Y-77576487D03*
X224639599Y-75039968D03*
X224772532Y-72503449D03*
X224905466Y-69966930D03*
X225038399Y-67430411D03*
X208895553Y-66584400D03*
X208762619Y-69120919D03*
X208629686Y-71657438D03*
X208496753Y-74193957D03*
X208363819Y-76730476D03*
X208230886Y-79266995D03*
X208097953Y-81803514D03*
D16*
X221014554Y-75232511D03*
X220914854Y-77134901D03*
D17*
X217412134Y-83305038D03*
X214875615Y-83172105D03*
X217545067Y-80768519D03*
X215008548Y-80635586D03*
X217678000Y-78232000D03*
X215141481Y-78099067D03*
X217810934Y-75695481D03*
X215274415Y-75562548D03*
%TD*%
D18*
%TO.C,D1*%
X206349385Y-59739040D03*
X202590615Y-58370960D03*
%TD*%
D19*
%TO.C,Q3*%
X151873500Y-68326000D03*
X151873500Y-70226000D03*
X153748500Y-69276000D03*
%TD*%
D20*
%TO.C,D2*%
X232265341Y-66746348D03*
X228270823Y-66537004D03*
%TD*%
D21*
%TO.C,J8*%
X217382709Y-62574937D03*
X216134422Y-62509517D03*
X214886135Y-62444097D03*
X213637848Y-62378678D03*
X212389561Y-62313258D03*
D22*
X209994830Y-59283776D03*
X220080989Y-59812369D03*
%TD*%
D20*
%TO.C,D3*%
X231792082Y-70451676D03*
X227797564Y-70242332D03*
%TD*%
D23*
%TO.C,J7*%
X147983733Y-81245433D03*
X148092678Y-82490676D03*
D24*
X145575389Y-85270651D03*
X145021949Y-78944815D03*
%TD*%
D21*
%TO.C,J9*%
X162003684Y-63737360D03*
X160755397Y-63671939D03*
X159507110Y-63606520D03*
X158258823Y-63541099D03*
X157010536Y-63475680D03*
D22*
X154615806Y-60446198D03*
X164701963Y-60974792D03*
%TD*%
D25*
%TO.C,Q6*%
X154940000Y-73782000D03*
X154940000Y-71882000D03*
X153065000Y-72832000D03*
%TD*%
D14*
%TO.C,R2*%
X230763071Y-57819883D03*
X233858823Y-57982125D03*
%TD*%
D25*
%TO.C,Q5*%
X157812500Y-70160000D03*
X157812500Y-68260000D03*
X155937500Y-69210000D03*
%TD*%
D26*
%TO.C,J2*%
X230568514Y-63736779D03*
X229320227Y-63671359D03*
D22*
X226917646Y-60791671D03*
X233258944Y-61124004D03*
%TD*%
D27*
%TO.C,Q1*%
X222309427Y-63389566D03*
X224206823Y-63489004D03*
X223356255Y-61566855D03*
%TD*%
D28*
%TO.C,J10*%
X149047630Y-62365558D03*
X147802387Y-62474502D03*
X146557144Y-62583448D03*
X145311900Y-62692392D03*
X144066656Y-62801337D03*
D29*
X141273609Y-60134620D03*
X151335179Y-59254347D03*
%TD*%
D30*
%TO.C,D7*%
X151304311Y-84034389D03*
X150955689Y-80049611D03*
%TD*%
D31*
%TO.C,D5*%
X158066500Y-80230000D03*
X158066500Y-84230000D03*
%TD*%
D19*
%TO.C,Q4*%
X153065000Y-75438000D03*
X153065000Y-77338000D03*
X154940000Y-76388000D03*
%TD*%
D12*
%TO.C,J5*%
X161150700Y-81839000D03*
X161150700Y-80589000D03*
D13*
X163900700Y-78039000D03*
X163900700Y-84389000D03*
%TD*%
D31*
%TO.C,D4*%
X158066500Y-72864000D03*
X158066500Y-76864000D03*
%TD*%
D32*
%TO.C,J3*%
X227007048Y-77724695D03*
X227072468Y-76476408D03*
D33*
X229952156Y-74073827D03*
X229619823Y-80415125D03*
%TD*%
D23*
%TO.C,J6*%
X145796000Y-71847433D03*
X145904944Y-73092676D03*
D24*
X143387656Y-75872651D03*
X142834216Y-69546815D03*
%TD*%
M02*
