%TF.GenerationSoftware,KiCad,Pcbnew,9.0.1*%
%TF.CreationDate,2025-06-09T02:25:26-04:00*%
%TF.ProjectId,Pneumatactors_1Xiao_3PiezoPumps_6Valves_Curved,506e6575-6d61-4746-9163-746f72735f31,rev?*%
%TF.SameCoordinates,Original*%
%TF.FileFunction,Copper,L2,Bot*%
%TF.FilePolarity,Positive*%
%FSLAX46Y46*%
G04 Gerber Fmt 4.6, Leading zero omitted, Abs format (unit mm)*
G04 Created by KiCad (PCBNEW 9.0.1) date 2025-06-09 02:25:26*
%MOMM*%
%LPD*%
G01*
G04 APERTURE LIST*
G04 Aperture macros list*
%AMRotRect*
0 Rectangle, with rotation*
0 The origin of the aperture is its center*
0 $1 length*
0 $2 width*
0 $3 Rotation angle, in degrees counterclockwise*
0 Add horizontal line*
21,1,$1,$2,0,0,$3*%
G04 Aperture macros list end*
%TA.AperFunction,ComponentPad*%
%ADD10RotRect,1.700000X1.700000X95.000000*%
%TD*%
%TA.AperFunction,ComponentPad*%
%ADD11C,1.700000*%
%TD*%
%TA.AperFunction,ViaPad*%
%ADD12C,0.800000*%
%TD*%
%TA.AperFunction,Conductor*%
%ADD13C,1.000000*%
%TD*%
%TA.AperFunction,Conductor*%
%ADD14C,0.500000*%
%TD*%
%TA.AperFunction,Conductor*%
%ADD15C,0.250000*%
%TD*%
G04 APERTURE END LIST*
D10*
%TO.P,J1,1,Pin_1*%
%TO.N,GND*%
X145551665Y-65753375D03*
D11*
%TO.P,J1,2,Pin_2*%
%TO.N,5V*%
X148082000Y-65532000D03*
%TD*%
D12*
%TO.N,5V*%
X227072468Y-76476408D03*
X154262111Y-84034389D03*
X212389561Y-62313258D03*
X158066500Y-80230000D03*
X212389561Y-62313258D03*
%TO.N,Net-(D3-A)*%
X227797564Y-70242332D03*
X227007048Y-77724695D03*
%TO.N,Net-(D4-A)*%
X158066500Y-76864000D03*
X161150700Y-72441000D03*
X153748500Y-69177000D03*
%TO.N,GND*%
X219964000Y-71374000D03*
X213360000Y-66802000D03*
X216408000Y-72644000D03*
X164592000Y-65786000D03*
X230378000Y-61468000D03*
X224790000Y-61214000D03*
X220980000Y-82042000D03*
X211836000Y-70358000D03*
X214376000Y-57658000D03*
X162306000Y-60452000D03*
X156210000Y-70612000D03*
X154178000Y-85598000D03*
X143256000Y-72644000D03*
X155956000Y-56896000D03*
X145796000Y-58674000D03*
X210185000Y-62230000D03*
X217170000Y-67564000D03*
X224383600Y-65582800D03*
X212344000Y-77724000D03*
X159207200Y-60553600D03*
X160274000Y-66548000D03*
X163830000Y-71628000D03*
X227584000Y-68580000D03*
X144272000Y-82042000D03*
X163576000Y-81534000D03*
X167386000Y-61214000D03*
X229362000Y-85598000D03*
X141732000Y-64516000D03*
X218948000Y-65278000D03*
X229870000Y-68580000D03*
X227330000Y-63246000D03*
X211836000Y-82804000D03*
X221488000Y-67818000D03*
X217424000Y-60198000D03*
%TO.N,SDA*%
X158089600Y-61722000D03*
X145311900Y-62692392D03*
X224772532Y-72503449D03*
X225433470Y-57522530D03*
%TO.N,SCL*%
X224905466Y-69966930D03*
X158191200Y-65024000D03*
X146557144Y-62583448D03*
X229108000Y-60960000D03*
%TO.N,3V3*%
X223413205Y-58526795D03*
X228572575Y-57728125D03*
X233858823Y-57982125D03*
%TO.N,Net-(D1-K)*%
X206344135Y-60052250D03*
X208097953Y-81803514D03*
%TO.N,V3*%
X224506666Y-77576487D03*
X151873500Y-68326000D03*
%TO.N,V4*%
X224639599Y-75039968D03*
X153065000Y-75438000D03*
%TO.N,V5*%
X208762619Y-69120919D03*
X157812500Y-70160000D03*
%TO.N,V6*%
X208629686Y-71657438D03*
X154940000Y-73782000D03*
%TD*%
D13*
%TO.N,5V*%
X216916129Y-71543000D02*
X224050616Y-78677487D01*
X216543950Y-71543000D02*
X216916129Y-71543000D01*
X212389561Y-62313258D02*
X212259000Y-62443819D01*
X225906048Y-77268645D02*
X226698285Y-76476408D01*
X226698285Y-76476408D02*
X227072468Y-76476408D01*
X154262111Y-84034389D02*
X158066500Y-80230000D01*
X224050616Y-78677487D02*
X225054161Y-78677487D01*
X212259000Y-62443819D02*
X212259000Y-67258050D01*
X212259000Y-67258050D02*
X216543950Y-71543000D01*
X225906048Y-77825600D02*
X225906048Y-77268645D01*
X225054161Y-78677487D02*
X225906048Y-77825600D01*
D14*
%TO.N,Net-(D3-A)*%
X228955600Y-76352400D02*
X227583305Y-77724695D01*
X227583305Y-77724695D02*
X227007048Y-77724695D01*
X227797564Y-70242332D02*
X228955600Y-71400368D01*
X228955600Y-71400368D02*
X228955600Y-76352400D01*
D13*
%TO.N,Net-(D4-A)*%
X161150700Y-72441000D02*
X161150700Y-73779800D01*
X158708700Y-74883000D02*
X154483950Y-74883000D01*
X161150700Y-73779800D02*
X158066500Y-76864000D01*
X153748500Y-74147550D02*
X153748500Y-69177000D01*
X161150700Y-72441000D02*
X158708700Y-74883000D01*
X154483950Y-74883000D02*
X153748500Y-74147550D01*
D15*
%TO.N,SDA*%
X225433470Y-57522530D02*
X223249330Y-57522530D01*
X222587205Y-58184655D02*
X222587205Y-70318122D01*
X223249330Y-57522530D02*
X222587205Y-58184655D01*
X146282292Y-61722000D02*
X145311900Y-62692392D01*
X222587205Y-70318122D02*
X224772532Y-72503449D01*
X158089600Y-61722000D02*
X146282292Y-61722000D01*
%TO.N,SCL*%
X146967592Y-62173000D02*
X146557144Y-62583448D01*
X229108000Y-60960000D02*
X229108000Y-65764396D01*
X229108000Y-65764396D02*
X224905466Y-69966930D01*
X158191200Y-65024000D02*
X155340200Y-62173000D01*
X155340200Y-62173000D02*
X146967592Y-62173000D01*
D13*
%TO.N,3V3*%
X224576410Y-59690000D02*
X226610700Y-59690000D01*
X232150948Y-59690000D02*
X233858823Y-57982125D01*
X226610700Y-59690000D02*
X228572575Y-57728125D01*
X230534450Y-59690000D02*
X232150948Y-59690000D01*
X228572575Y-57728125D02*
X230534450Y-59690000D01*
X223413205Y-58526795D02*
X224576410Y-59690000D01*
D14*
%TO.N,Net-(D1-K)*%
X205994000Y-60402385D02*
X205994000Y-61551378D01*
X207010000Y-80715561D02*
X208097953Y-81803514D01*
X206248000Y-61805378D02*
X206248000Y-62738000D01*
X206248000Y-62738000D02*
X207010000Y-63500000D01*
X207010000Y-63500000D02*
X207010000Y-80715561D01*
X206344135Y-60052250D02*
X205994000Y-60402385D01*
X205994000Y-61551378D02*
X206248000Y-61805378D01*
D15*
%TO.N,V3*%
X160555213Y-64866977D02*
X160555213Y-59255376D01*
X160555213Y-59255376D02*
X161390589Y-58420000D01*
X215900000Y-63426610D02*
X215900000Y-68969821D01*
X152651030Y-67761000D02*
X157661190Y-67761000D01*
X151873500Y-68326000D02*
X152148500Y-68051000D01*
X161390589Y-58420000D02*
X210893390Y-58420000D01*
X210893390Y-58420000D02*
X215900000Y-63426610D01*
X215900000Y-68969821D02*
X224506666Y-77576487D01*
X152148500Y-68051000D02*
X152361030Y-68051000D01*
X152361030Y-68051000D02*
X152651030Y-67761000D01*
X157661190Y-67761000D02*
X160555213Y-64866977D01*
%TO.N,V4*%
X224639599Y-74017599D02*
X217896000Y-67274000D01*
X216351000Y-65729000D02*
X216351000Y-63239800D01*
X161203779Y-57969000D02*
X160104213Y-59068566D01*
X217896000Y-67263280D02*
X217470720Y-66838000D01*
X224639599Y-75039968D02*
X224639599Y-74017599D01*
X160104213Y-64680167D02*
X157474380Y-67310000D01*
X211080200Y-57969000D02*
X161203779Y-57969000D01*
X151862780Y-67310000D02*
X150628213Y-68544567D01*
X217896000Y-67274000D02*
X217896000Y-67263280D01*
X150628213Y-73001213D02*
X153065000Y-75438000D01*
X157474380Y-67310000D02*
X151862780Y-67310000D01*
X150628213Y-68544567D02*
X150628213Y-73001213D01*
X217460000Y-66838000D02*
X216351000Y-65729000D01*
X217470720Y-66838000D02*
X217460000Y-66838000D01*
X160104213Y-59068566D02*
X160104213Y-64680167D01*
X216351000Y-63239800D02*
X211080200Y-57969000D01*
%TO.N,V5*%
X161006213Y-59442186D02*
X161006213Y-66966287D01*
X206826000Y-58871000D02*
X161577399Y-58871000D01*
X161006213Y-66966287D02*
X157812500Y-70160000D01*
X161577399Y-58871000D02*
X161006213Y-59442186D01*
X208762619Y-60807619D02*
X206826000Y-58871000D01*
X208762619Y-69120919D02*
X208762619Y-60807619D01*
%TO.N,V6*%
X208036619Y-68820199D02*
X208280000Y-68576818D01*
X206639190Y-59322000D02*
X161764209Y-59322000D01*
X208280000Y-69665020D02*
X208036619Y-69421639D01*
X208280000Y-60962810D02*
X206639190Y-59322000D01*
X161457213Y-67542007D02*
X155217220Y-73782000D01*
X208280000Y-71307752D02*
X208280000Y-69665020D01*
X161457213Y-59628996D02*
X161457213Y-67542007D01*
X161764209Y-59322000D02*
X161457213Y-59628996D01*
X155217220Y-73782000D02*
X154940000Y-73782000D01*
X208629686Y-71657438D02*
X208280000Y-71307752D01*
X208280000Y-68576818D02*
X208280000Y-60962810D01*
X208036619Y-69421639D02*
X208036619Y-68820199D01*
%TD*%
%TA.AperFunction,Conductor*%
%TO.N,GND*%
G36*
X206503050Y-55880516D02*
G01*
X234060299Y-56337695D01*
X234060340Y-56337708D01*
X234060423Y-56337697D01*
X234061333Y-56337712D01*
X234109089Y-56338557D01*
X234115005Y-56338803D01*
X234130438Y-56339814D01*
X234333130Y-56353095D01*
X234342615Y-56354087D01*
X234387031Y-56360472D01*
X234393513Y-56361581D01*
X234584463Y-56399560D01*
X234595162Y-56402189D01*
X234630430Y-56412545D01*
X234635241Y-56414066D01*
X234828237Y-56479577D01*
X234839863Y-56484192D01*
X234856195Y-56491650D01*
X234859504Y-56493221D01*
X235055937Y-56590089D01*
X235069978Y-56598197D01*
X235263601Y-56727571D01*
X235276470Y-56737445D01*
X235451547Y-56890983D01*
X235463016Y-56902452D01*
X235616554Y-57077529D01*
X235626428Y-57090398D01*
X235755802Y-57284021D01*
X235763913Y-57298068D01*
X235860773Y-57494485D01*
X235862355Y-57497817D01*
X235869802Y-57514124D01*
X235874427Y-57525778D01*
X235939915Y-57718706D01*
X235941473Y-57723631D01*
X235951802Y-57758811D01*
X235954442Y-57769554D01*
X235992411Y-57960455D01*
X235993531Y-57966999D01*
X235999908Y-58011356D01*
X236000905Y-58020893D01*
X236014428Y-58227267D01*
X236012519Y-58258493D01*
X230942700Y-84974805D01*
X230935462Y-84988944D01*
X230935462Y-85001355D01*
X230935357Y-85006461D01*
X230934521Y-85026746D01*
X230934218Y-85027639D01*
X230934361Y-85029748D01*
X230920905Y-85235104D01*
X230919908Y-85244641D01*
X230913531Y-85289000D01*
X230912411Y-85295544D01*
X230874444Y-85486435D01*
X230871804Y-85497179D01*
X230861469Y-85532379D01*
X230859911Y-85537303D01*
X230794426Y-85730221D01*
X230789802Y-85741872D01*
X230782354Y-85758182D01*
X230780771Y-85761517D01*
X230683913Y-85957931D01*
X230675802Y-85971978D01*
X230546428Y-86165601D01*
X230536554Y-86178470D01*
X230383016Y-86353547D01*
X230371547Y-86365016D01*
X230196470Y-86518554D01*
X230183601Y-86528428D01*
X229989978Y-86657802D01*
X229975931Y-86665913D01*
X229779499Y-86762780D01*
X229776167Y-86764362D01*
X229759882Y-86771799D01*
X229748228Y-86776424D01*
X229555289Y-86841916D01*
X229550366Y-86843473D01*
X229515198Y-86853799D01*
X229504453Y-86856440D01*
X229313550Y-86894410D01*
X229307006Y-86895530D01*
X229262648Y-86901907D01*
X229253111Y-86902904D01*
X229039553Y-86916898D01*
X229022439Y-86916836D01*
X208149613Y-85396854D01*
X208140555Y-85393462D01*
X208107107Y-85393462D01*
X208098999Y-85393197D01*
X207880893Y-85378905D01*
X207871355Y-85377908D01*
X207827000Y-85371531D01*
X207820457Y-85370411D01*
X207629563Y-85332444D01*
X207618819Y-85329804D01*
X207583619Y-85319469D01*
X207578695Y-85317911D01*
X207385777Y-85252426D01*
X207374126Y-85247802D01*
X207357816Y-85240354D01*
X207354481Y-85238771D01*
X207158068Y-85141913D01*
X207144021Y-85133802D01*
X206950398Y-85004428D01*
X206937529Y-84994554D01*
X206762452Y-84841016D01*
X206750983Y-84829547D01*
X206597445Y-84654470D01*
X206587571Y-84641601D01*
X206458197Y-84447978D01*
X206450089Y-84433937D01*
X206353212Y-84237485D01*
X206351638Y-84234168D01*
X206344201Y-84217884D01*
X206339578Y-84206240D01*
X206274066Y-84013238D01*
X206272540Y-84008416D01*
X206262195Y-83973184D01*
X206259561Y-83962467D01*
X206221582Y-83771517D01*
X206220475Y-83765047D01*
X206214087Y-83720623D01*
X206213095Y-83711131D01*
X206198849Y-83493732D01*
X206198593Y-83484197D01*
X206213747Y-82172231D01*
X206311508Y-73708107D01*
X206331966Y-73641300D01*
X206385295Y-73596158D01*
X206454563Y-73587014D01*
X206517780Y-73616771D01*
X206554873Y-73675982D01*
X206559500Y-73709540D01*
X206559500Y-80774871D01*
X206574405Y-80830500D01*
X206574406Y-80830500D01*
X206590201Y-80889449D01*
X206619856Y-80940811D01*
X206649511Y-80992175D01*
X206649513Y-80992177D01*
X207461252Y-81803916D01*
X207494737Y-81865239D01*
X207496509Y-81875407D01*
X207497451Y-81882564D01*
X207538376Y-82035297D01*
X207538379Y-82035304D01*
X207617428Y-82172223D01*
X207617432Y-82172228D01*
X207617433Y-82172230D01*
X207729237Y-82284034D01*
X207729239Y-82284035D01*
X207729243Y-82284038D01*
X207866162Y-82363087D01*
X207866169Y-82363091D01*
X208018896Y-82404014D01*
X208018898Y-82404014D01*
X208177008Y-82404014D01*
X208177010Y-82404014D01*
X208329737Y-82363091D01*
X208466669Y-82284034D01*
X208578473Y-82172230D01*
X208657530Y-82035298D01*
X208698453Y-81882571D01*
X208698453Y-81724457D01*
X208657530Y-81571730D01*
X208657526Y-81571723D01*
X208578477Y-81434804D01*
X208578471Y-81434796D01*
X208466670Y-81322995D01*
X208466662Y-81322989D01*
X208329743Y-81243940D01*
X208329739Y-81243938D01*
X208329737Y-81243937D01*
X208177010Y-81203014D01*
X208177003Y-81203012D01*
X208169846Y-81202070D01*
X208105950Y-81173801D01*
X208098355Y-81166813D01*
X207496819Y-80565277D01*
X207463334Y-80503954D01*
X207460500Y-80477596D01*
X207460500Y-63440693D01*
X207460500Y-63440691D01*
X207429799Y-63326114D01*
X207429799Y-63326113D01*
X207429799Y-63326112D01*
X207370492Y-63223389D01*
X207370488Y-63223384D01*
X206734819Y-62587715D01*
X206701334Y-62526392D01*
X206698500Y-62500034D01*
X206698500Y-61746071D01*
X206698500Y-61746069D01*
X206676159Y-61662691D01*
X206670867Y-61642942D01*
X206670866Y-61642939D01*
X206667799Y-61631491D01*
X206608489Y-61528764D01*
X206480819Y-61401094D01*
X206447334Y-61339771D01*
X206444500Y-61313413D01*
X206444500Y-60742188D01*
X206464185Y-60675149D01*
X206516989Y-60629394D01*
X206536403Y-60622414D01*
X206575919Y-60611827D01*
X206712851Y-60532770D01*
X206824655Y-60420966D01*
X206842244Y-60390500D01*
X206907776Y-60276996D01*
X206909872Y-60278206D01*
X206945995Y-60233373D01*
X207012288Y-60211302D01*
X207079989Y-60228575D01*
X207104406Y-60247542D01*
X207918181Y-61061317D01*
X207951666Y-61122640D01*
X207954500Y-61148998D01*
X207954500Y-68390629D01*
X207934815Y-68457668D01*
X207918181Y-68478310D01*
X207776156Y-68620334D01*
X207776154Y-68620337D01*
X207733301Y-68694560D01*
X207719939Y-68744429D01*
X207719939Y-68744430D01*
X207719938Y-68744429D01*
X207711119Y-68777344D01*
X207711119Y-68777346D01*
X207711119Y-69378786D01*
X207711119Y-69464492D01*
X207716992Y-69486410D01*
X207733301Y-69547279D01*
X207738830Y-69556855D01*
X207776154Y-69621501D01*
X207918182Y-69763528D01*
X207951666Y-69824849D01*
X207954500Y-69851208D01*
X207954500Y-71350604D01*
X207976683Y-71433394D01*
X208013934Y-71497914D01*
X208030407Y-71565814D01*
X208029487Y-71576096D01*
X208029186Y-71578380D01*
X208029186Y-71578381D01*
X208029186Y-71736495D01*
X208051622Y-71820225D01*
X208070109Y-71889221D01*
X208070112Y-71889228D01*
X208149161Y-72026147D01*
X208149165Y-72026152D01*
X208149166Y-72026154D01*
X208260970Y-72137958D01*
X208260972Y-72137959D01*
X208260976Y-72137962D01*
X208397895Y-72217011D01*
X208397902Y-72217015D01*
X208550629Y-72257938D01*
X208550631Y-72257938D01*
X208708741Y-72257938D01*
X208708743Y-72257938D01*
X208861470Y-72217015D01*
X208998402Y-72137958D01*
X209110206Y-72026154D01*
X209189263Y-71889222D01*
X209230186Y-71736495D01*
X209230186Y-71578381D01*
X209189263Y-71425654D01*
X209145934Y-71350605D01*
X209110210Y-71288728D01*
X209110204Y-71288720D01*
X208998403Y-71176919D01*
X208998395Y-71176913D01*
X208861476Y-71097864D01*
X208861472Y-71097862D01*
X208861470Y-71097861D01*
X208708743Y-71056938D01*
X208708742Y-71056938D01*
X208700893Y-71054835D01*
X208701559Y-71052346D01*
X208649390Y-71029249D01*
X208610936Y-70970913D01*
X208605500Y-70934600D01*
X208605500Y-69845419D01*
X208625185Y-69778380D01*
X208677989Y-69732625D01*
X208729500Y-69721419D01*
X208841674Y-69721419D01*
X208841676Y-69721419D01*
X208994403Y-69680496D01*
X209131335Y-69601439D01*
X209243139Y-69489635D01*
X209322196Y-69352703D01*
X209363119Y-69199976D01*
X209363119Y-69041862D01*
X209322196Y-68889135D01*
X209320141Y-68885576D01*
X209243143Y-68752209D01*
X209243137Y-68752201D01*
X209125588Y-68634652D01*
X209127826Y-68632413D01*
X209095417Y-68587999D01*
X209088119Y-68546088D01*
X209088119Y-60764766D01*
X209088118Y-60764763D01*
X209078326Y-60728216D01*
X209065937Y-60681980D01*
X209023084Y-60607757D01*
X207372508Y-58957181D01*
X207339023Y-58895858D01*
X207344007Y-58826166D01*
X207385879Y-58770233D01*
X207451343Y-58745816D01*
X207460189Y-58745500D01*
X210707201Y-58745500D01*
X210774240Y-58765185D01*
X210794882Y-58781819D01*
X215538181Y-63525117D01*
X215571666Y-63586440D01*
X215574500Y-63612798D01*
X215574500Y-69012673D01*
X215596682Y-69095461D01*
X215603924Y-69108004D01*
X215639535Y-69169683D01*
X215639536Y-69169684D01*
X215639537Y-69169685D01*
X217104557Y-70634705D01*
X217138042Y-70696028D01*
X217133058Y-70765720D01*
X217091186Y-70821653D01*
X217025722Y-70846070D01*
X217013211Y-70846332D01*
X217002846Y-70846025D01*
X216985123Y-70842500D01*
X216985122Y-70842500D01*
X216883629Y-70842500D01*
X216881803Y-70842446D01*
X216850251Y-70832159D01*
X216818429Y-70822815D01*
X216816280Y-70821083D01*
X216815374Y-70820788D01*
X216814337Y-70819518D01*
X216797787Y-70806181D01*
X212995819Y-67004212D01*
X212962334Y-66942889D01*
X212959500Y-66916531D01*
X212959500Y-62758764D01*
X212979185Y-62691725D01*
X212980329Y-62689976D01*
X213010336Y-62645069D01*
X213063141Y-62517587D01*
X213090060Y-62382252D01*
X213090060Y-62244264D01*
X213063141Y-62108930D01*
X213010336Y-61981447D01*
X212933675Y-61866715D01*
X212933673Y-61866712D01*
X212836106Y-61769145D01*
X212770434Y-61725265D01*
X212721372Y-61692483D01*
X212721369Y-61692481D01*
X212721368Y-61692481D01*
X212593892Y-61639679D01*
X212593890Y-61639678D01*
X212593889Y-61639678D01*
X212593884Y-61639677D01*
X212593880Y-61639676D01*
X212458559Y-61612759D01*
X212458555Y-61612759D01*
X212320567Y-61612759D01*
X212320562Y-61612759D01*
X212185239Y-61639676D01*
X212185229Y-61639679D01*
X212057751Y-61692482D01*
X211943015Y-61769145D01*
X211714887Y-61997273D01*
X211638222Y-62112011D01*
X211585421Y-62239486D01*
X211585418Y-62239498D01*
X211568673Y-62323682D01*
X211558891Y-62372862D01*
X211558500Y-62374826D01*
X211558500Y-67189056D01*
X211558500Y-67327044D01*
X211558500Y-67327046D01*
X211558499Y-67327046D01*
X211585418Y-67462372D01*
X211585421Y-67462382D01*
X211638222Y-67589857D01*
X211714885Y-67704592D01*
X211714888Y-67704596D01*
X215999836Y-71989542D01*
X216097408Y-72087114D01*
X216097409Y-72087115D01*
X216212132Y-72163771D01*
X216212136Y-72163773D01*
X216212139Y-72163775D01*
X216286816Y-72194707D01*
X216339621Y-72216580D01*
X216366541Y-72221934D01*
X216463580Y-72241237D01*
X216474956Y-72243500D01*
X216474957Y-72243500D01*
X216574610Y-72243500D01*
X216641649Y-72263185D01*
X216662291Y-72279819D01*
X223604069Y-79221598D01*
X223604070Y-79221599D01*
X223718806Y-79298263D01*
X223817406Y-79339104D01*
X223846287Y-79351067D01*
X223846288Y-79351067D01*
X223846293Y-79351069D01*
X223873161Y-79356412D01*
X223873167Y-79356413D01*
X223873207Y-79356421D01*
X223963553Y-79374392D01*
X223981622Y-79377987D01*
X223981623Y-79377987D01*
X225123157Y-79377987D01*
X225231618Y-79356412D01*
X225258489Y-79351067D01*
X225322230Y-79324664D01*
X225385968Y-79298264D01*
X225385969Y-79298263D01*
X225385972Y-79298262D01*
X225500704Y-79221601D01*
X226450162Y-78272143D01*
X226470291Y-78242016D01*
X226523901Y-78197211D01*
X226593226Y-78188502D01*
X226635393Y-78203519D01*
X226754257Y-78272144D01*
X226775264Y-78284272D01*
X226927991Y-78325195D01*
X226927993Y-78325195D01*
X227086103Y-78325195D01*
X227086105Y-78325195D01*
X227238832Y-78284272D01*
X227375764Y-78205215D01*
X227375769Y-78205209D01*
X227381491Y-78200820D01*
X227446660Y-78175625D01*
X227456979Y-78175195D01*
X227642613Y-78175195D01*
X227642614Y-78175195D01*
X227732978Y-78150981D01*
X227757192Y-78144494D01*
X227859919Y-78085184D01*
X229316089Y-76629014D01*
X229375399Y-76526287D01*
X229383706Y-76495284D01*
X229406100Y-76411709D01*
X229406100Y-71341059D01*
X229375399Y-71226482D01*
X229375399Y-71226481D01*
X229316089Y-71123754D01*
X228434264Y-70241929D01*
X228400779Y-70180606D01*
X228399006Y-70170431D01*
X228398064Y-70163277D01*
X228398064Y-70163275D01*
X228357141Y-70010548D01*
X228309603Y-69928209D01*
X228278088Y-69873622D01*
X228278082Y-69873614D01*
X228166281Y-69761813D01*
X228166273Y-69761807D01*
X228029354Y-69682758D01*
X228029350Y-69682756D01*
X228029348Y-69682755D01*
X227876621Y-69641832D01*
X227718507Y-69641832D01*
X227565780Y-69682755D01*
X227565773Y-69682758D01*
X227428854Y-69761807D01*
X227428846Y-69761813D01*
X227317045Y-69873614D01*
X227317039Y-69873622D01*
X227237990Y-70010541D01*
X227237987Y-70010548D01*
X227197064Y-70163275D01*
X227197064Y-70321389D01*
X227230842Y-70447448D01*
X227237987Y-70474115D01*
X227237990Y-70474122D01*
X227317039Y-70611041D01*
X227317043Y-70611046D01*
X227317044Y-70611048D01*
X227428848Y-70722852D01*
X227428850Y-70722853D01*
X227428854Y-70722856D01*
X227503098Y-70765720D01*
X227565780Y-70801909D01*
X227718507Y-70842832D01*
X227718509Y-70842832D01*
X227725663Y-70843774D01*
X227789560Y-70872039D01*
X227797161Y-70879032D01*
X228468781Y-71550652D01*
X228502266Y-71611975D01*
X228505100Y-71638333D01*
X228505100Y-76114435D01*
X228485415Y-76181474D01*
X228468781Y-76202116D01*
X227974480Y-76696416D01*
X227913157Y-76729901D01*
X227843465Y-76724917D01*
X227787532Y-76683045D01*
X227763115Y-76617581D01*
X227765182Y-76584542D01*
X227772968Y-76545402D01*
X227772968Y-76407412D01*
X227746049Y-76272085D01*
X227746048Y-76272084D01*
X227746048Y-76272080D01*
X227708518Y-76181474D01*
X227693246Y-76144603D01*
X227693239Y-76144590D01*
X227616582Y-76029866D01*
X227616579Y-76029862D01*
X227519012Y-75932295D01*
X227519009Y-75932293D01*
X227404285Y-75855636D01*
X227404272Y-75855629D01*
X227276800Y-75802829D01*
X227276790Y-75802826D01*
X227141463Y-75775908D01*
X227141461Y-75775908D01*
X226629292Y-75775908D01*
X226629288Y-75775908D01*
X226520875Y-75797473D01*
X226520874Y-75797473D01*
X226507416Y-75800150D01*
X226493958Y-75802827D01*
X226456615Y-75818295D01*
X226366475Y-75855632D01*
X226366471Y-75855634D01*
X226251747Y-75932290D01*
X226251744Y-75932292D01*
X226251742Y-75932295D01*
X225361936Y-76822098D01*
X225361935Y-76822099D01*
X225312420Y-76896206D01*
X225312419Y-76896207D01*
X225285271Y-76936836D01*
X225232469Y-77064312D01*
X225232466Y-77064322D01*
X225212667Y-77163860D01*
X225180282Y-77225771D01*
X225119566Y-77260345D01*
X225049797Y-77256605D01*
X224993125Y-77215738D01*
X224991888Y-77213899D01*
X224987184Y-77207769D01*
X224875383Y-77095968D01*
X224875375Y-77095962D01*
X224738456Y-77016913D01*
X224738452Y-77016911D01*
X224738450Y-77016910D01*
X224585723Y-76975987D01*
X224427609Y-76975987D01*
X224419482Y-76975987D01*
X224419482Y-76972821D01*
X224365159Y-76964333D01*
X224330362Y-76939857D01*
X216261819Y-68871313D01*
X216228334Y-68809990D01*
X216225500Y-68783632D01*
X216225500Y-66363188D01*
X216245185Y-66296149D01*
X216297989Y-66250394D01*
X216367147Y-66240450D01*
X216430703Y-66269475D01*
X216437181Y-66275507D01*
X217199533Y-67037859D01*
X217199535Y-67037862D01*
X217260138Y-67098465D01*
X217282482Y-67111365D01*
X217292049Y-67119925D01*
X217293107Y-67121630D01*
X217297046Y-67124653D01*
X217609346Y-67436952D01*
X217629052Y-67462633D01*
X217635536Y-67473864D01*
X224277780Y-74116107D01*
X224311265Y-74177430D01*
X224314099Y-74203788D01*
X224314099Y-74465137D01*
X224294414Y-74532176D01*
X224275581Y-74552652D01*
X224276630Y-74553701D01*
X224159080Y-74671250D01*
X224159074Y-74671258D01*
X224080025Y-74808177D01*
X224080022Y-74808184D01*
X224039099Y-74960911D01*
X224039099Y-75119025D01*
X224078719Y-75266887D01*
X224080022Y-75271751D01*
X224080025Y-75271758D01*
X224159074Y-75408677D01*
X224159078Y-75408682D01*
X224159079Y-75408684D01*
X224270883Y-75520488D01*
X224270885Y-75520489D01*
X224270889Y-75520492D01*
X224380024Y-75583500D01*
X224407815Y-75599545D01*
X224560542Y-75640468D01*
X224560544Y-75640468D01*
X224718654Y-75640468D01*
X224718656Y-75640468D01*
X224871383Y-75599545D01*
X225008315Y-75520488D01*
X225120119Y-75408684D01*
X225199176Y-75271752D01*
X225240099Y-75119025D01*
X225240099Y-74960911D01*
X225199176Y-74808184D01*
X225179733Y-74774508D01*
X225120123Y-74671258D01*
X225120117Y-74671250D01*
X225002568Y-74553701D01*
X225004806Y-74551462D01*
X224972397Y-74507048D01*
X224965099Y-74465137D01*
X224965099Y-73974748D01*
X224965099Y-73974746D01*
X224942917Y-73891961D01*
X224942917Y-73891960D01*
X224900064Y-73817737D01*
X224271239Y-73188912D01*
X224237754Y-73127589D01*
X224242738Y-73057897D01*
X224284610Y-73001964D01*
X224350074Y-72977547D01*
X224418347Y-72992399D01*
X224420920Y-72993844D01*
X224439794Y-73004741D01*
X224540748Y-73063026D01*
X224693475Y-73103949D01*
X224693477Y-73103949D01*
X224851587Y-73103949D01*
X224851589Y-73103949D01*
X225004316Y-73063026D01*
X225141248Y-72983969D01*
X225253052Y-72872165D01*
X225332109Y-72735233D01*
X225373032Y-72582506D01*
X225373032Y-72424392D01*
X225332109Y-72271665D01*
X225315848Y-72243500D01*
X225253056Y-72134739D01*
X225253050Y-72134731D01*
X225141249Y-72022930D01*
X225141241Y-72022924D01*
X225004322Y-71943875D01*
X225004318Y-71943873D01*
X225004316Y-71943872D01*
X224851589Y-71902949D01*
X224693475Y-71902949D01*
X224685348Y-71902949D01*
X224685348Y-71899781D01*
X224631036Y-71891300D01*
X224596229Y-71866819D01*
X222949024Y-70219614D01*
X222915539Y-70158291D01*
X222912705Y-70131933D01*
X222912705Y-69887873D01*
X224304966Y-69887873D01*
X224304966Y-70045987D01*
X224341758Y-70183295D01*
X224345889Y-70198713D01*
X224345892Y-70198720D01*
X224424941Y-70335639D01*
X224424945Y-70335644D01*
X224424946Y-70335646D01*
X224536750Y-70447450D01*
X224536752Y-70447451D01*
X224536756Y-70447454D01*
X224658923Y-70517986D01*
X224673682Y-70526507D01*
X224826409Y-70567430D01*
X224826411Y-70567430D01*
X224984521Y-70567430D01*
X224984523Y-70567430D01*
X225137250Y-70526507D01*
X225274182Y-70447450D01*
X225385986Y-70335646D01*
X225465043Y-70198714D01*
X225505966Y-70045987D01*
X225505966Y-69887873D01*
X225505966Y-69879745D01*
X225509146Y-69879745D01*
X225517578Y-69825509D01*
X225542092Y-69790629D01*
X229297652Y-66035068D01*
X229297657Y-66035065D01*
X229307860Y-66024861D01*
X229307862Y-66024861D01*
X229368465Y-65964258D01*
X229411318Y-65890034D01*
X229420802Y-65854639D01*
X229433501Y-65807248D01*
X229433501Y-65721543D01*
X229433500Y-65721539D01*
X229433500Y-61534830D01*
X229453185Y-61467791D01*
X229472022Y-61447320D01*
X229470969Y-61446267D01*
X229528057Y-61389179D01*
X229588520Y-61328716D01*
X229667577Y-61191784D01*
X229708500Y-61039057D01*
X229708500Y-60880943D01*
X229667577Y-60728216D01*
X229636939Y-60675149D01*
X229588524Y-60591290D01*
X229588518Y-60591282D01*
X229476717Y-60479481D01*
X229476709Y-60479475D01*
X229339790Y-60400426D01*
X229339786Y-60400424D01*
X229339784Y-60400423D01*
X229187057Y-60359500D01*
X229028943Y-60359500D01*
X228876216Y-60400423D01*
X228876209Y-60400426D01*
X228739290Y-60479475D01*
X228739282Y-60479481D01*
X228627481Y-60591282D01*
X228627475Y-60591290D01*
X228548426Y-60728209D01*
X228548423Y-60728216D01*
X228507500Y-60880943D01*
X228507500Y-61039057D01*
X228547040Y-61186620D01*
X228548423Y-61191783D01*
X228548426Y-61191790D01*
X228627475Y-61328709D01*
X228627481Y-61328717D01*
X228745031Y-61446267D01*
X228742785Y-61448512D01*
X228775179Y-61492855D01*
X228782500Y-61534830D01*
X228782500Y-65578206D01*
X228762815Y-65645245D01*
X228746181Y-65665887D01*
X225081767Y-69330300D01*
X225020444Y-69363785D01*
X224992650Y-69364944D01*
X224992650Y-69366430D01*
X224826409Y-69366430D01*
X224673682Y-69407353D01*
X224673675Y-69407356D01*
X224536756Y-69486405D01*
X224536748Y-69486411D01*
X224424947Y-69598212D01*
X224424941Y-69598220D01*
X224345892Y-69735139D01*
X224345889Y-69735146D01*
X224304966Y-69887873D01*
X222912705Y-69887873D01*
X222912705Y-59316314D01*
X222932390Y-59249275D01*
X222985194Y-59203520D01*
X223054352Y-59193576D01*
X223117908Y-59222601D01*
X223124386Y-59228633D01*
X224129867Y-60234114D01*
X224175822Y-60264819D01*
X224244599Y-60310775D01*
X224322581Y-60343076D01*
X224328167Y-60345390D01*
X224328173Y-60345393D01*
X224362231Y-60359500D01*
X224372081Y-60363580D01*
X224372090Y-60363581D01*
X224372091Y-60363582D01*
X224398955Y-60368925D01*
X224398961Y-60368926D01*
X224399001Y-60368934D01*
X224489347Y-60386905D01*
X224507416Y-60390500D01*
X224507417Y-60390500D01*
X226679696Y-60390500D01*
X226788157Y-60368925D01*
X226815028Y-60363580D01*
X226878769Y-60337177D01*
X226942507Y-60310777D01*
X226942508Y-60310776D01*
X226942511Y-60310775D01*
X227057243Y-60234114D01*
X228484894Y-58806463D01*
X228546217Y-58772978D01*
X228615909Y-58777962D01*
X228660256Y-58806463D01*
X230087903Y-60234111D01*
X230087904Y-60234112D01*
X230202640Y-60310776D01*
X230280615Y-60343074D01*
X230330121Y-60363580D01*
X230330122Y-60363580D01*
X230330127Y-60363582D01*
X230356995Y-60368925D01*
X230357001Y-60368926D01*
X230357041Y-60368934D01*
X230447387Y-60386905D01*
X230465456Y-60390500D01*
X230465457Y-60390500D01*
X232219944Y-60390500D01*
X232328405Y-60368925D01*
X232355276Y-60363580D01*
X232419017Y-60337177D01*
X232482755Y-60310777D01*
X232482756Y-60310776D01*
X232482759Y-60310775D01*
X232597491Y-60234114D01*
X234402937Y-58428668D01*
X234479598Y-58313936D01*
X234532403Y-58186453D01*
X234545991Y-58118144D01*
X234559323Y-58051121D01*
X234559323Y-57913128D01*
X234532404Y-57777802D01*
X234532403Y-57777801D01*
X234532403Y-57777797D01*
X234503714Y-57708535D01*
X234479600Y-57650317D01*
X234402935Y-57535579D01*
X234305368Y-57438012D01*
X234190630Y-57361347D01*
X234063155Y-57308546D01*
X234063145Y-57308543D01*
X233927819Y-57281625D01*
X233927817Y-57281625D01*
X233789829Y-57281625D01*
X233789827Y-57281625D01*
X233654500Y-57308543D01*
X233654490Y-57308546D01*
X233527015Y-57361347D01*
X233412277Y-57438012D01*
X233412276Y-57438013D01*
X231897110Y-58953181D01*
X231835787Y-58986666D01*
X231809429Y-58989500D01*
X230875969Y-58989500D01*
X230808930Y-58969815D01*
X230788288Y-58953181D01*
X229019121Y-57184013D01*
X229019120Y-57184012D01*
X228904382Y-57107347D01*
X228776907Y-57054546D01*
X228776897Y-57054543D01*
X228641571Y-57027625D01*
X228641569Y-57027625D01*
X228503581Y-57027625D01*
X228503576Y-57027625D01*
X228390697Y-57050078D01*
X228368248Y-57054544D01*
X228368244Y-57054545D01*
X228240765Y-57107348D01*
X228126029Y-57184012D01*
X228126028Y-57184013D01*
X226356862Y-58953181D01*
X226295539Y-58986666D01*
X226269181Y-58989500D01*
X224917929Y-58989500D01*
X224850890Y-58969815D01*
X224830248Y-58953181D01*
X223936779Y-58059711D01*
X223903294Y-57998388D01*
X223908278Y-57928696D01*
X223950150Y-57872763D01*
X224015614Y-57848346D01*
X224024460Y-57848030D01*
X224858640Y-57848030D01*
X224925679Y-57867715D01*
X224946149Y-57886552D01*
X224947203Y-57885499D01*
X224952950Y-57891246D01*
X225064754Y-58003050D01*
X225064756Y-58003051D01*
X225064760Y-58003054D01*
X225201679Y-58082103D01*
X225201686Y-58082107D01*
X225354413Y-58123030D01*
X225354415Y-58123030D01*
X225512525Y-58123030D01*
X225512527Y-58123030D01*
X225665254Y-58082107D01*
X225802186Y-58003050D01*
X225913990Y-57891246D01*
X225993047Y-57754314D01*
X226033970Y-57601587D01*
X226033970Y-57443473D01*
X225993047Y-57290746D01*
X225976488Y-57262065D01*
X225913994Y-57153820D01*
X225913988Y-57153812D01*
X225802187Y-57042011D01*
X225802179Y-57042005D01*
X225665260Y-56962956D01*
X225665256Y-56962954D01*
X225665254Y-56962953D01*
X225512527Y-56922030D01*
X225354413Y-56922030D01*
X225201686Y-56962953D01*
X225201679Y-56962956D01*
X225064760Y-57042005D01*
X225064752Y-57042011D01*
X224947203Y-57159561D01*
X224944957Y-57157315D01*
X224900615Y-57189709D01*
X224858640Y-57197030D01*
X223206477Y-57197030D01*
X223123689Y-57219212D01*
X223049468Y-57262065D01*
X223049465Y-57262067D01*
X222326742Y-57984790D01*
X222326740Y-57984793D01*
X222283888Y-58059013D01*
X222283887Y-58059015D01*
X222283887Y-58059016D01*
X222274379Y-58094500D01*
X222274378Y-58094501D01*
X222261705Y-58141798D01*
X222261705Y-70360974D01*
X222283887Y-70443762D01*
X222301416Y-70474122D01*
X222326740Y-70517984D01*
X222326742Y-70517986D01*
X224135902Y-72327146D01*
X224169387Y-72388469D01*
X224170549Y-72416265D01*
X224172032Y-72416265D01*
X224172032Y-72582505D01*
X224212955Y-72735232D01*
X224212955Y-72735233D01*
X224282137Y-72855061D01*
X224298609Y-72922961D01*
X224275756Y-72988988D01*
X224220834Y-73032178D01*
X224151281Y-73038819D01*
X224089179Y-73006802D01*
X224087068Y-73004741D01*
X218182653Y-67100326D01*
X218177925Y-67095328D01*
X218169363Y-67085759D01*
X218162654Y-67074138D01*
X218156465Y-67063418D01*
X218095862Y-67002815D01*
X218095859Y-67002813D01*
X218089096Y-66996050D01*
X218089088Y-66996041D01*
X217670584Y-66577536D01*
X217659350Y-66571050D01*
X217633671Y-66551345D01*
X216712819Y-65630492D01*
X216679334Y-65569169D01*
X216676500Y-65542811D01*
X216676500Y-63196947D01*
X216676499Y-63196944D01*
X216670060Y-63172912D01*
X216668247Y-63166145D01*
X216654318Y-63114161D01*
X216611465Y-63039938D01*
X211280062Y-57708535D01*
X211215485Y-57671251D01*
X211205840Y-57665682D01*
X211148495Y-57650317D01*
X211123053Y-57643500D01*
X161246632Y-57643500D01*
X161160926Y-57643500D01*
X161078138Y-57665682D01*
X161003917Y-57708535D01*
X161003914Y-57708537D01*
X159843750Y-58868701D01*
X159843748Y-58868704D01*
X159828071Y-58895858D01*
X159800895Y-58942927D01*
X159788416Y-58989500D01*
X159786503Y-58996640D01*
X159778713Y-59025710D01*
X159778713Y-64493978D01*
X159759028Y-64561017D01*
X159742394Y-64581659D01*
X158961796Y-65362256D01*
X158900473Y-65395741D01*
X158830781Y-65390757D01*
X158774848Y-65348885D01*
X158750431Y-65283421D01*
X158754339Y-65242489D01*
X158791700Y-65103057D01*
X158791700Y-64944943D01*
X158750777Y-64792216D01*
X158706788Y-64716024D01*
X158671724Y-64655290D01*
X158671718Y-64655282D01*
X158559917Y-64543481D01*
X158559909Y-64543475D01*
X158422990Y-64464426D01*
X158422986Y-64464424D01*
X158422984Y-64464423D01*
X158270257Y-64423500D01*
X158112143Y-64423500D01*
X158104016Y-64423500D01*
X158104016Y-64420332D01*
X158049704Y-64411851D01*
X158014897Y-64387370D01*
X155886708Y-62259181D01*
X155853223Y-62197858D01*
X155858207Y-62128166D01*
X155900079Y-62072233D01*
X155965543Y-62047816D01*
X155974389Y-62047500D01*
X157514770Y-62047500D01*
X157581809Y-62067185D01*
X157602279Y-62086022D01*
X157603333Y-62084969D01*
X157609080Y-62090716D01*
X157720884Y-62202520D01*
X157720886Y-62202521D01*
X157720890Y-62202524D01*
X157824370Y-62262267D01*
X157857816Y-62281577D01*
X158010543Y-62322500D01*
X158010545Y-62322500D01*
X158168655Y-62322500D01*
X158168657Y-62322500D01*
X158321384Y-62281577D01*
X158458316Y-62202520D01*
X158570120Y-62090716D01*
X158649177Y-61953784D01*
X158690100Y-61801057D01*
X158690100Y-61642943D01*
X158649177Y-61490216D01*
X158630602Y-61458043D01*
X158570124Y-61353290D01*
X158570118Y-61353282D01*
X158458317Y-61241481D01*
X158458309Y-61241475D01*
X158321390Y-61162426D01*
X158321386Y-61162424D01*
X158321384Y-61162423D01*
X158168657Y-61121500D01*
X158010543Y-61121500D01*
X157857816Y-61162423D01*
X157857809Y-61162426D01*
X157720890Y-61241475D01*
X157720882Y-61241481D01*
X157603333Y-61359031D01*
X157601087Y-61356785D01*
X157556745Y-61389179D01*
X157514770Y-61396500D01*
X146332757Y-61396500D01*
X146332741Y-61396499D01*
X146325145Y-61396499D01*
X146239440Y-61396499D01*
X146198047Y-61407590D01*
X146156652Y-61418682D01*
X146156647Y-61418685D01*
X146082436Y-61461530D01*
X146082428Y-61461536D01*
X146021825Y-61522140D01*
X145488201Y-62055762D01*
X145426878Y-62089247D01*
X145399084Y-62090406D01*
X145399084Y-62091892D01*
X145232843Y-62091892D01*
X145080116Y-62132815D01*
X145080109Y-62132818D01*
X144943190Y-62211867D01*
X144943182Y-62211873D01*
X144831381Y-62323674D01*
X144831375Y-62323682D01*
X144752326Y-62460601D01*
X144752323Y-62460608D01*
X144711400Y-62613335D01*
X144711400Y-62771449D01*
X144745388Y-62898292D01*
X144752323Y-62924175D01*
X144752326Y-62924182D01*
X144831375Y-63061101D01*
X144831379Y-63061106D01*
X144831380Y-63061108D01*
X144943184Y-63172912D01*
X144943186Y-63172913D01*
X144943190Y-63172916D01*
X145060923Y-63240888D01*
X145080116Y-63251969D01*
X145232843Y-63292892D01*
X145232845Y-63292892D01*
X145390955Y-63292892D01*
X145390957Y-63292892D01*
X145543684Y-63251969D01*
X145680616Y-63172912D01*
X145792420Y-63061108D01*
X145858584Y-62946506D01*
X145909150Y-62898292D01*
X145977757Y-62885068D01*
X146042622Y-62911036D01*
X146073359Y-62946508D01*
X146076624Y-62952164D01*
X146188428Y-63063968D01*
X146188430Y-63063969D01*
X146188434Y-63063972D01*
X146325353Y-63143021D01*
X146325360Y-63143025D01*
X146478087Y-63183948D01*
X146478089Y-63183948D01*
X146636199Y-63183948D01*
X146636201Y-63183948D01*
X146788928Y-63143025D01*
X146925860Y-63063968D01*
X147037664Y-62952164D01*
X147116721Y-62815232D01*
X147157644Y-62662505D01*
X147157644Y-62622500D01*
X147177329Y-62555461D01*
X147230133Y-62509706D01*
X147281644Y-62498500D01*
X155154011Y-62498500D01*
X155221050Y-62518185D01*
X155241692Y-62534819D01*
X157554570Y-64847697D01*
X157588055Y-64909020D01*
X157589217Y-64936816D01*
X157590700Y-64936816D01*
X157590700Y-64944943D01*
X157590700Y-65103057D01*
X157631384Y-65254890D01*
X157631623Y-65255783D01*
X157631626Y-65255790D01*
X157710675Y-65392709D01*
X157710679Y-65392714D01*
X157710680Y-65392716D01*
X157822484Y-65504520D01*
X157822486Y-65504521D01*
X157822490Y-65504524D01*
X157934460Y-65569169D01*
X157959416Y-65583577D01*
X158112143Y-65624500D01*
X158112145Y-65624500D01*
X158270254Y-65624500D01*
X158270257Y-65624500D01*
X158409686Y-65587140D01*
X158479531Y-65588803D01*
X158537393Y-65627965D01*
X158564898Y-65692193D01*
X158553312Y-65761096D01*
X158529456Y-65794596D01*
X157375872Y-66948181D01*
X157314549Y-66981666D01*
X157288191Y-66984500D01*
X151819927Y-66984500D01*
X151737142Y-67006682D01*
X151737135Y-67006685D01*
X151662924Y-67049530D01*
X151662916Y-67049536D01*
X150367750Y-68344702D01*
X150367746Y-68344708D01*
X150324894Y-68418928D01*
X150324895Y-68418929D01*
X150302713Y-68501714D01*
X150302713Y-73044065D01*
X150324895Y-73126853D01*
X150342478Y-73157306D01*
X150367748Y-73201075D01*
X150367750Y-73201077D01*
X152428370Y-75261697D01*
X152461855Y-75323020D01*
X152463017Y-75350816D01*
X152464500Y-75350816D01*
X152464500Y-75358943D01*
X152464500Y-75517057D01*
X152486603Y-75599544D01*
X152505423Y-75669783D01*
X152505426Y-75669790D01*
X152584475Y-75806709D01*
X152584479Y-75806714D01*
X152584480Y-75806716D01*
X152696284Y-75918520D01*
X152696286Y-75918521D01*
X152696290Y-75918524D01*
X152833209Y-75997573D01*
X152833216Y-75997577D01*
X152985943Y-76038500D01*
X152985945Y-76038500D01*
X153144055Y-76038500D01*
X153144057Y-76038500D01*
X153296784Y-75997577D01*
X153433716Y-75918520D01*
X153545520Y-75806716D01*
X153624577Y-75669784D01*
X153665500Y-75517057D01*
X153665500Y-75358943D01*
X153665500Y-75354568D01*
X153671738Y-75333322D01*
X153673318Y-75311234D01*
X153681390Y-75300450D01*
X153685185Y-75287529D01*
X153701918Y-75273029D01*
X153715190Y-75255301D01*
X153727810Y-75250593D01*
X153737989Y-75241774D01*
X153759906Y-75238622D01*
X153780654Y-75230884D01*
X153793814Y-75233746D01*
X153807147Y-75231830D01*
X153827290Y-75241029D01*
X153848927Y-75245736D01*
X153866652Y-75259004D01*
X153870703Y-75260855D01*
X153877179Y-75266885D01*
X153939836Y-75329542D01*
X154018971Y-75408677D01*
X154037409Y-75427115D01*
X154152132Y-75503771D01*
X154152136Y-75503773D01*
X154152139Y-75503775D01*
X154226816Y-75534707D01*
X154279621Y-75556580D01*
X154306541Y-75561934D01*
X154403580Y-75581237D01*
X154414956Y-75583500D01*
X154414957Y-75583500D01*
X158056981Y-75583500D01*
X158124020Y-75603185D01*
X158169775Y-75655989D01*
X158179719Y-75725147D01*
X158150694Y-75788703D01*
X158144662Y-75795181D01*
X157522388Y-76417453D01*
X157522387Y-76417454D01*
X157445722Y-76532192D01*
X157392921Y-76659667D01*
X157392918Y-76659677D01*
X157366000Y-76795003D01*
X157366000Y-76795006D01*
X157366000Y-76932994D01*
X157366000Y-76932996D01*
X157365999Y-76932996D01*
X157392918Y-77068322D01*
X157392921Y-77068332D01*
X157445722Y-77195807D01*
X157522387Y-77310545D01*
X157619954Y-77408112D01*
X157734692Y-77484777D01*
X157857013Y-77535443D01*
X157862172Y-77537580D01*
X157862176Y-77537580D01*
X157862177Y-77537581D01*
X157997503Y-77564500D01*
X157997506Y-77564500D01*
X158135496Y-77564500D01*
X158246697Y-77542380D01*
X158270828Y-77537580D01*
X158367759Y-77497430D01*
X158398307Y-77484777D01*
X158398308Y-77484776D01*
X158398311Y-77484775D01*
X158513043Y-77408114D01*
X161694813Y-74226343D01*
X161700749Y-74217460D01*
X161771475Y-74111611D01*
X161824280Y-73984128D01*
X161842613Y-73891961D01*
X161851200Y-73848795D01*
X161851200Y-72372009D01*
X161851200Y-72372007D01*
X161842758Y-72329563D01*
X161824280Y-72236671D01*
X161782056Y-72134733D01*
X161771478Y-72109194D01*
X161771471Y-72109181D01*
X161694814Y-71994457D01*
X161694811Y-71994453D01*
X161597246Y-71896888D01*
X161597242Y-71896885D01*
X161482518Y-71820228D01*
X161482505Y-71820221D01*
X161355033Y-71767421D01*
X161355023Y-71767418D01*
X161219696Y-71740500D01*
X161219694Y-71740500D01*
X161081707Y-71740500D01*
X161081705Y-71740500D01*
X160946377Y-71767418D01*
X160946367Y-71767421D01*
X160818892Y-71820222D01*
X160704154Y-71896887D01*
X160704153Y-71896888D01*
X158454862Y-74146181D01*
X158393539Y-74179666D01*
X158367181Y-74182500D01*
X155615272Y-74182500D01*
X155590594Y-74175253D01*
X155565095Y-74171894D01*
X155557622Y-74165572D01*
X155548233Y-74162815D01*
X155531392Y-74143380D01*
X155511755Y-74126766D01*
X155508886Y-74117406D01*
X155502478Y-74110011D01*
X155498817Y-74084553D01*
X155491281Y-74059963D01*
X155493572Y-74048076D01*
X155492534Y-74040853D01*
X155495891Y-74024972D01*
X155498518Y-74015618D01*
X155499577Y-74013784D01*
X155510866Y-73971650D01*
X155511069Y-73970929D01*
X155516655Y-73962006D01*
X155542767Y-73916778D01*
X161646865Y-67812679D01*
X161646870Y-67812676D01*
X161657073Y-67802472D01*
X161657075Y-67802472D01*
X161717678Y-67741869D01*
X161739200Y-67704592D01*
X161760531Y-67667646D01*
X161782714Y-67584860D01*
X161782714Y-67499154D01*
X161782714Y-67491559D01*
X161782713Y-67491541D01*
X161782713Y-59815185D01*
X161791357Y-59785744D01*
X161797881Y-59755758D01*
X161801635Y-59750742D01*
X161802398Y-59748146D01*
X161819032Y-59727504D01*
X161862717Y-59683819D01*
X161924040Y-59650334D01*
X161950398Y-59647500D01*
X205670624Y-59647500D01*
X205737663Y-59667185D01*
X205783418Y-59719989D01*
X205793362Y-59789147D01*
X205785185Y-59818952D01*
X205784559Y-59820462D01*
X205743633Y-59973198D01*
X205742691Y-59980357D01*
X205714420Y-60044252D01*
X205707436Y-60051844D01*
X205633511Y-60125771D01*
X205633509Y-60125774D01*
X205574201Y-60228497D01*
X205574200Y-60228502D01*
X205543501Y-60343074D01*
X205543500Y-60343076D01*
X205543500Y-61610689D01*
X205557434Y-61662687D01*
X205557435Y-61662692D01*
X205574199Y-61725262D01*
X205586212Y-61746069D01*
X205633511Y-61827992D01*
X205633513Y-61827994D01*
X205761181Y-61955662D01*
X205794666Y-62016985D01*
X205797500Y-62043343D01*
X205797500Y-62739035D01*
X205777815Y-62806074D01*
X205725011Y-62851829D01*
X205655853Y-62861773D01*
X205592297Y-62832748D01*
X205571927Y-62810161D01*
X205492115Y-62696176D01*
X205404726Y-62592029D01*
X205383418Y-62563813D01*
X205353633Y-62531140D01*
X205242592Y-62398806D01*
X205133994Y-62290208D01*
X205106671Y-62260236D01*
X205076696Y-62232910D01*
X204968109Y-62124323D01*
X204968101Y-62124315D01*
X204968092Y-62124307D01*
X204968085Y-62124301D01*
X204837705Y-62014899D01*
X204835748Y-62013257D01*
X204803094Y-61983488D01*
X204774874Y-61962177D01*
X204772432Y-61960128D01*
X204670738Y-61874795D01*
X204519852Y-61769144D01*
X204513484Y-61764684D01*
X204511665Y-61763410D01*
X204475278Y-61735932D01*
X204450594Y-61720648D01*
X204447713Y-61718631D01*
X204352763Y-61652146D01*
X204352752Y-61652139D01*
X204352746Y-61652135D01*
X204186155Y-61555953D01*
X204164839Y-61543646D01*
X204164838Y-61543646D01*
X204164836Y-61543645D01*
X204163178Y-61542687D01*
X204126018Y-61519679D01*
X204106449Y-61509935D01*
X204103131Y-61508019D01*
X204103129Y-61508017D01*
X204016571Y-61458043D01*
X204016556Y-61458035D01*
X203804240Y-61359031D01*
X203790937Y-61352827D01*
X203758294Y-61336573D01*
X203745216Y-61331506D01*
X203741458Y-61329754D01*
X203741457Y-61329753D01*
X203664755Y-61293987D01*
X203395018Y-61195809D01*
X203395018Y-61195808D01*
X203393733Y-61195340D01*
X203375245Y-61188178D01*
X203369776Y-61186621D01*
X203365583Y-61185096D01*
X203365582Y-61185095D01*
X203365581Y-61185095D01*
X203299970Y-61161215D01*
X203299960Y-61161212D01*
X202925008Y-61060743D01*
X202925001Y-61060742D01*
X202924995Y-61060741D01*
X202802021Y-61039057D01*
X202542718Y-60993334D01*
X202156007Y-60959501D01*
X202156004Y-60959500D01*
X201961910Y-60959500D01*
X201961410Y-60959500D01*
X170815500Y-60959500D01*
X170815000Y-60959500D01*
X170620905Y-60959500D01*
X170620901Y-60959500D01*
X170234190Y-60993333D01*
X170234186Y-60993333D01*
X169851910Y-61060739D01*
X169851893Y-61060743D01*
X169476947Y-61161209D01*
X169411324Y-61185093D01*
X169407128Y-61186620D01*
X169401663Y-61188175D01*
X169383169Y-61195339D01*
X169381915Y-61195796D01*
X169381908Y-61195799D01*
X169112151Y-61293984D01*
X169035443Y-61329753D01*
X169031683Y-61331505D01*
X169018612Y-61336570D01*
X168986005Y-61352806D01*
X168984513Y-61353502D01*
X168984507Y-61353505D01*
X168760354Y-61458030D01*
X168760345Y-61458034D01*
X168760341Y-61458037D01*
X168754281Y-61461536D01*
X168673774Y-61508015D01*
X168673773Y-61508014D01*
X168670440Y-61509938D01*
X168650888Y-61519674D01*
X168613756Y-61542665D01*
X168612059Y-61543645D01*
X168612057Y-61543645D01*
X168424175Y-61652122D01*
X168424164Y-61652129D01*
X168424159Y-61652132D01*
X168424155Y-61652135D01*
X168424141Y-61652144D01*
X168329198Y-61718623D01*
X168329197Y-61718624D01*
X168326317Y-61720640D01*
X168301627Y-61735928D01*
X168265241Y-61763405D01*
X168263392Y-61764700D01*
X168263390Y-61764700D01*
X168106174Y-61874786D01*
X168004486Y-61960111D01*
X168002021Y-61962178D01*
X167973809Y-61983484D01*
X167941155Y-62013252D01*
X167939159Y-62014927D01*
X167808800Y-62124312D01*
X167808799Y-62124313D01*
X167702229Y-62230882D01*
X167700183Y-62232927D01*
X167670232Y-62260232D01*
X167642927Y-62290183D01*
X167640882Y-62292229D01*
X167534313Y-62398799D01*
X167534312Y-62398800D01*
X167424927Y-62529159D01*
X167423251Y-62531155D01*
X167393484Y-62563809D01*
X167372182Y-62592017D01*
X167370114Y-62594482D01*
X167370111Y-62594486D01*
X167284786Y-62696174D01*
X167174699Y-62853391D01*
X167174700Y-62853392D01*
X167173405Y-62855241D01*
X167145928Y-62891627D01*
X167130640Y-62916317D01*
X167128624Y-62919197D01*
X167128623Y-62919198D01*
X167062144Y-63014141D01*
X167062122Y-63014175D01*
X166953644Y-63202058D01*
X166953645Y-63202059D01*
X166952665Y-63203756D01*
X166929674Y-63240888D01*
X166919935Y-63260445D01*
X166918026Y-63263753D01*
X166918015Y-63263774D01*
X166882026Y-63326112D01*
X166868037Y-63350341D01*
X166868036Y-63350344D01*
X166868030Y-63350354D01*
X166763505Y-63574507D01*
X166762808Y-63576000D01*
X166746570Y-63608612D01*
X166741510Y-63621672D01*
X166739753Y-63625441D01*
X166739753Y-63625443D01*
X166703984Y-63702151D01*
X166605799Y-63971908D01*
X166605346Y-63973150D01*
X166598175Y-63991663D01*
X166596619Y-63997128D01*
X166595093Y-64001324D01*
X166571209Y-64066947D01*
X166470743Y-64441893D01*
X166470739Y-64441910D01*
X166403333Y-64824186D01*
X166403333Y-64824190D01*
X166369500Y-65210901D01*
X166369500Y-84577933D01*
X166369234Y-84586043D01*
X166355036Y-84802653D01*
X166354040Y-84812191D01*
X166347143Y-84860159D01*
X166346022Y-84866702D01*
X166308724Y-85054210D01*
X166306085Y-85064952D01*
X166294616Y-85104014D01*
X166293057Y-85108939D01*
X166228816Y-85298187D01*
X166224192Y-85309839D01*
X166214690Y-85330646D01*
X166213107Y-85333980D01*
X166117939Y-85526960D01*
X166109829Y-85541007D01*
X165980456Y-85734628D01*
X165970582Y-85747496D01*
X165817043Y-85922574D01*
X165805574Y-85934043D01*
X165630496Y-86087582D01*
X165617628Y-86097456D01*
X165424007Y-86226829D01*
X165409960Y-86234939D01*
X165216980Y-86330107D01*
X165213646Y-86331690D01*
X165192839Y-86341192D01*
X165181187Y-86345816D01*
X164991939Y-86410057D01*
X164987014Y-86411616D01*
X164947952Y-86423085D01*
X164937211Y-86425724D01*
X164749699Y-86463023D01*
X164743153Y-86464144D01*
X164695181Y-86471041D01*
X164685645Y-86472037D01*
X164469052Y-86486234D01*
X164467286Y-86486338D01*
X164416934Y-86488917D01*
X164416899Y-86488918D01*
X164416873Y-86488912D01*
X164416787Y-86488924D01*
X144279174Y-87502137D01*
X144264833Y-87502029D01*
X144051341Y-87488036D01*
X144041805Y-87487039D01*
X143993845Y-87480144D01*
X143987299Y-87479023D01*
X143799787Y-87441724D01*
X143789046Y-87439085D01*
X143749984Y-87427616D01*
X143745059Y-87426057D01*
X143555811Y-87361816D01*
X143544159Y-87357192D01*
X143523333Y-87347681D01*
X143520018Y-87346107D01*
X143327039Y-87250939D01*
X143312992Y-87242829D01*
X143119371Y-87113456D01*
X143106503Y-87103582D01*
X142931425Y-86950043D01*
X142919956Y-86938574D01*
X142847927Y-86856440D01*
X142766414Y-86763493D01*
X142756543Y-86750628D01*
X142699938Y-86665913D01*
X142627170Y-86557007D01*
X142619060Y-86542960D01*
X142591710Y-86487500D01*
X142523881Y-86349959D01*
X142522332Y-86346695D01*
X142512799Y-86325823D01*
X142508182Y-86314187D01*
X142478528Y-86226829D01*
X142443933Y-86124916D01*
X142442394Y-86120052D01*
X142430911Y-86080945D01*
X142428274Y-86070210D01*
X142417830Y-86017705D01*
X142390971Y-85882676D01*
X142389858Y-85876177D01*
X142382956Y-85828173D01*
X142381963Y-85818678D01*
X142368960Y-85620285D01*
X142368893Y-85619162D01*
X142367688Y-85597301D01*
X142367866Y-85596539D01*
X142367500Y-85590476D01*
X142367500Y-85572404D01*
X142364201Y-85566363D01*
X142362274Y-85554976D01*
X142185856Y-84103385D01*
X153561610Y-84103385D01*
X153588529Y-84238711D01*
X153588532Y-84238721D01*
X153641333Y-84366196D01*
X153717998Y-84480934D01*
X153815565Y-84578501D01*
X153930303Y-84655166D01*
X154055185Y-84706893D01*
X154057783Y-84707969D01*
X154057787Y-84707969D01*
X154057788Y-84707970D01*
X154193114Y-84734889D01*
X154193117Y-84734889D01*
X154331107Y-84734889D01*
X154422151Y-84716778D01*
X154466439Y-84707969D01*
X154530180Y-84681566D01*
X154593918Y-84655166D01*
X154593919Y-84655165D01*
X154593922Y-84655164D01*
X154708654Y-84578503D01*
X158610614Y-80676543D01*
X158687275Y-80561811D01*
X158740080Y-80434328D01*
X158767000Y-80298993D01*
X158767000Y-80161006D01*
X158767000Y-80161003D01*
X158740081Y-80025676D01*
X158740080Y-80025675D01*
X158740080Y-80025671D01*
X158740078Y-80025666D01*
X158687278Y-79898194D01*
X158687271Y-79898181D01*
X158610614Y-79783457D01*
X158610611Y-79783453D01*
X158513046Y-79685888D01*
X158513042Y-79685885D01*
X158398318Y-79609228D01*
X158398305Y-79609221D01*
X158270833Y-79556421D01*
X158270823Y-79556418D01*
X158135496Y-79529500D01*
X158135494Y-79529500D01*
X157997507Y-79529500D01*
X157997505Y-79529500D01*
X157862177Y-79556418D01*
X157862167Y-79556421D01*
X157734692Y-79609222D01*
X157619954Y-79685887D01*
X153717998Y-83587843D01*
X153641333Y-83702581D01*
X153588532Y-83830056D01*
X153588529Y-83830066D01*
X153561611Y-83965392D01*
X153561611Y-83965395D01*
X153561611Y-84103383D01*
X153561611Y-84103385D01*
X153561610Y-84103385D01*
X142185856Y-84103385D01*
X140804233Y-72735232D01*
X139861600Y-64976637D01*
X144128551Y-64976637D01*
X144185012Y-65621986D01*
X145096198Y-65542267D01*
X145085740Y-65560382D01*
X145051665Y-65687549D01*
X145051665Y-65819201D01*
X145085740Y-65946368D01*
X145139997Y-66040344D01*
X144228589Y-66120082D01*
X144285051Y-66765439D01*
X144296619Y-66824204D01*
X144296622Y-66824214D01*
X144358415Y-66954031D01*
X144358416Y-66954032D01*
X144454282Y-67061183D01*
X144576453Y-67136987D01*
X144715036Y-67175300D01*
X144774926Y-67176488D01*
X145420276Y-67120026D01*
X145340558Y-66208841D01*
X145358672Y-66219300D01*
X145485839Y-66253375D01*
X145617491Y-66253375D01*
X145744658Y-66219300D01*
X145838635Y-66165041D01*
X145918372Y-67076449D01*
X146563729Y-67019988D01*
X146622494Y-67008420D01*
X146622504Y-67008417D01*
X146752321Y-66946624D01*
X146752322Y-66946623D01*
X146859473Y-66850757D01*
X146935277Y-66728586D01*
X146973590Y-66590003D01*
X146974778Y-66530112D01*
X146940000Y-66132600D01*
X146953767Y-66064100D01*
X147002382Y-66013917D01*
X147070410Y-65997984D01*
X147136254Y-66021359D01*
X147166630Y-66052902D01*
X147204475Y-66109542D01*
X147266024Y-66201657D01*
X147412342Y-66347975D01*
X147412345Y-66347977D01*
X147584402Y-66462941D01*
X147775580Y-66542130D01*
X147920972Y-66571050D01*
X147978530Y-66582499D01*
X147978534Y-66582500D01*
X147978535Y-66582500D01*
X148185466Y-66582500D01*
X148185467Y-66582499D01*
X148388420Y-66542130D01*
X148579598Y-66462941D01*
X148751655Y-66347977D01*
X148897977Y-66201655D01*
X149012941Y-66029598D01*
X149092130Y-65838420D01*
X149132500Y-65635465D01*
X149132500Y-65428535D01*
X149092130Y-65225580D01*
X149012941Y-65034402D01*
X148897977Y-64862345D01*
X148897975Y-64862342D01*
X148751657Y-64716024D01*
X148660749Y-64655282D01*
X148579598Y-64601059D01*
X148468542Y-64555058D01*
X148388420Y-64521870D01*
X148388412Y-64521868D01*
X148185469Y-64481500D01*
X148185465Y-64481500D01*
X147978535Y-64481500D01*
X147978530Y-64481500D01*
X147775587Y-64521868D01*
X147775579Y-64521870D01*
X147584403Y-64601058D01*
X147412342Y-64716024D01*
X147266024Y-64862342D01*
X147151057Y-65034404D01*
X147091403Y-65178422D01*
X147047562Y-65232825D01*
X146981267Y-65254890D01*
X146913568Y-65237610D01*
X146865958Y-65186473D01*
X146853314Y-65141776D01*
X146818278Y-64741310D01*
X146806710Y-64682545D01*
X146806707Y-64682535D01*
X146744914Y-64552718D01*
X146744913Y-64552717D01*
X146649047Y-64445566D01*
X146526876Y-64369762D01*
X146388293Y-64331449D01*
X146328402Y-64330261D01*
X145683052Y-64386722D01*
X145762771Y-65297907D01*
X145744658Y-65287450D01*
X145617491Y-65253375D01*
X145485839Y-65253375D01*
X145358672Y-65287450D01*
X145264693Y-65341708D01*
X145184956Y-64430299D01*
X144539600Y-64486761D01*
X144480835Y-64498329D01*
X144480825Y-64498332D01*
X144351008Y-64560125D01*
X144351007Y-64560126D01*
X144243856Y-64655992D01*
X144168052Y-64778163D01*
X144129739Y-64916746D01*
X144128551Y-64976637D01*
X139861600Y-64976637D01*
X139066721Y-58434172D01*
X139066082Y-58411117D01*
X139079964Y-58199315D01*
X139080955Y-58189831D01*
X139087862Y-58141798D01*
X139088969Y-58135336D01*
X139126277Y-57947772D01*
X139128908Y-57937064D01*
X139140402Y-57897920D01*
X139141924Y-57893111D01*
X139206189Y-57703793D01*
X139210793Y-57692190D01*
X139220356Y-57671251D01*
X139221855Y-57668093D01*
X139317068Y-57475022D01*
X139325159Y-57461009D01*
X139454551Y-57267359D01*
X139464408Y-57254513D01*
X139617961Y-57079419D01*
X139629419Y-57067961D01*
X139804513Y-56914408D01*
X139817359Y-56904551D01*
X140011009Y-56775159D01*
X140025022Y-56767068D01*
X140218093Y-56671855D01*
X140221251Y-56670356D01*
X140242190Y-56660793D01*
X140253793Y-56656189D01*
X140443111Y-56591924D01*
X140447920Y-56590402D01*
X140487064Y-56578908D01*
X140497772Y-56576277D01*
X140685336Y-56538969D01*
X140691810Y-56537860D01*
X140739831Y-56530955D01*
X140749318Y-56529963D01*
X140952633Y-56516637D01*
X140965953Y-56515765D01*
X140974062Y-56515500D01*
X141009751Y-56515500D01*
X141020061Y-56514260D01*
X166622483Y-55880538D01*
X166625551Y-55880500D01*
X206500994Y-55880500D01*
X206503050Y-55880516D01*
G37*
%TD.AperFunction*%
%TA.AperFunction,Conductor*%
G36*
X160600047Y-65384983D02*
G01*
X160655980Y-65426855D01*
X160680397Y-65492319D01*
X160680713Y-65501165D01*
X160680713Y-66780097D01*
X160661028Y-66847136D01*
X160644394Y-66867778D01*
X157988801Y-69523370D01*
X157927478Y-69556855D01*
X157899684Y-69558014D01*
X157899684Y-69559500D01*
X157733443Y-69559500D01*
X157580716Y-69600423D01*
X157580709Y-69600426D01*
X157443790Y-69679475D01*
X157443782Y-69679481D01*
X157331981Y-69791282D01*
X157331975Y-69791290D01*
X157252926Y-69928209D01*
X157252923Y-69928216D01*
X157212000Y-70080943D01*
X157212000Y-70239057D01*
X157234061Y-70321388D01*
X157252923Y-70391783D01*
X157252926Y-70391790D01*
X157331975Y-70528709D01*
X157331979Y-70528714D01*
X157331980Y-70528716D01*
X157443784Y-70640520D01*
X157443786Y-70640521D01*
X157443790Y-70640524D01*
X157587754Y-70723641D01*
X157586697Y-70725470D01*
X157632379Y-70762280D01*
X157654447Y-70828573D01*
X157637170Y-70896273D01*
X157618207Y-70920685D01*
X155330790Y-73208101D01*
X155269467Y-73241586D01*
X155199775Y-73236602D01*
X155181108Y-73227806D01*
X155171788Y-73222425D01*
X155171786Y-73222424D01*
X155171784Y-73222423D01*
X155019057Y-73181500D01*
X154860943Y-73181500D01*
X154708216Y-73222423D01*
X154708215Y-73222423D01*
X154634999Y-73264694D01*
X154567098Y-73281165D01*
X154501072Y-73258313D01*
X154457882Y-73203391D01*
X154449000Y-73157306D01*
X154449000Y-69108004D01*
X154422081Y-68972677D01*
X154422080Y-68972676D01*
X154422080Y-68972672D01*
X154387475Y-68889128D01*
X154369278Y-68845195D01*
X154369271Y-68845182D01*
X154292614Y-68730458D01*
X154292611Y-68730454D01*
X154195045Y-68632888D01*
X154195041Y-68632885D01*
X154080317Y-68556228D01*
X154080304Y-68556221D01*
X153952832Y-68503421D01*
X153952822Y-68503418D01*
X153817495Y-68476500D01*
X153817493Y-68476500D01*
X153679507Y-68476500D01*
X153679505Y-68476500D01*
X153544177Y-68503418D01*
X153544167Y-68503421D01*
X153416695Y-68556221D01*
X153416682Y-68556228D01*
X153301958Y-68632885D01*
X153301954Y-68632888D01*
X153204388Y-68730454D01*
X153204385Y-68730458D01*
X153127728Y-68845182D01*
X153127721Y-68845195D01*
X153074921Y-68972667D01*
X153074918Y-68972677D01*
X153048000Y-69108004D01*
X153048000Y-69108007D01*
X153048000Y-74078556D01*
X153048000Y-74216544D01*
X153048000Y-74216546D01*
X153047999Y-74216546D01*
X153074918Y-74351872D01*
X153074921Y-74351882D01*
X153127722Y-74479357D01*
X153204387Y-74594095D01*
X153236111Y-74625819D01*
X153246690Y-74645194D01*
X153261168Y-74661865D01*
X153263109Y-74675262D01*
X153269596Y-74687142D01*
X153268021Y-74709162D01*
X153271187Y-74731012D01*
X153265577Y-74743330D01*
X153264612Y-74756834D01*
X153251380Y-74774508D01*
X153242232Y-74794600D01*
X153230851Y-74801931D01*
X153222740Y-74812767D01*
X153202057Y-74820481D01*
X153183496Y-74832439D01*
X153161477Y-74835616D01*
X153157276Y-74837184D01*
X153148566Y-74837500D01*
X153144075Y-74837504D01*
X153144057Y-74837500D01*
X152985943Y-74837500D01*
X152985273Y-74837679D01*
X152976514Y-74837689D01*
X152950393Y-74830050D01*
X152923504Y-74825851D01*
X152914587Y-74819579D01*
X152909453Y-74818078D01*
X152904745Y-74812657D01*
X152888697Y-74801370D01*
X150990032Y-72902705D01*
X150956547Y-72841382D01*
X150953713Y-72815024D01*
X150953713Y-68730756D01*
X150973398Y-68663717D01*
X150990026Y-68643080D01*
X151112817Y-68520289D01*
X151174136Y-68486807D01*
X151243828Y-68491791D01*
X151299762Y-68533662D01*
X151309582Y-68550905D01*
X151309859Y-68550746D01*
X151392975Y-68694709D01*
X151392979Y-68694714D01*
X151392980Y-68694716D01*
X151504784Y-68806520D01*
X151504786Y-68806521D01*
X151504790Y-68806524D01*
X151617010Y-68871313D01*
X151641716Y-68885577D01*
X151794443Y-68926500D01*
X151794445Y-68926500D01*
X151952555Y-68926500D01*
X151952557Y-68926500D01*
X152105284Y-68885577D01*
X152242216Y-68806520D01*
X152354020Y-68694716D01*
X152433077Y-68557784D01*
X152474000Y-68405057D01*
X152474000Y-68405054D01*
X152474471Y-68403297D01*
X152510836Y-68343636D01*
X152532243Y-68328005D01*
X152560892Y-68311465D01*
X152749538Y-68122819D01*
X152810861Y-68089334D01*
X152837219Y-68086500D01*
X157704041Y-68086500D01*
X157704043Y-68086500D01*
X157786829Y-68064318D01*
X157861052Y-68021465D01*
X160469032Y-65413483D01*
X160530355Y-65379999D01*
X160600047Y-65384983D01*
G37*
%TD.AperFunction*%
%TD*%
M02*
