%TF.GenerationSoftware,KiCad,Pcbnew,9.0.1*%
%TF.CreationDate,2025-04-11T12:26:53-04:00*%
%TF.ProjectId,Pneumatactors_1Xiao_CompactControl_Battery,506e6575-6d61-4746-9163-746f72735f31,rev?*%
%TF.SameCoordinates,Original*%
%TF.FileFunction,Copper,L1,Top*%
%TF.FilePolarity,Positive*%
%FSLAX46Y46*%
G04 Gerber Fmt 4.6, Leading zero omitted, Abs format (unit mm)*
G04 Created by KiCad (PCBNEW 9.0.1) date 2025-04-11 12:26:53*
%MOMM*%
%LPD*%
G01*
G04 APERTURE LIST*
G04 Aperture macros list*
%AMRoundRect*
0 Rectangle with rounded corners*
0 $1 Rounding radius*
0 $2 $3 $4 $5 $6 $7 $8 $9 X,Y pos of 4 corners*
0 Add a 4 corners polygon primitive as box body*
4,1,4,$2,$3,$4,$5,$6,$7,$8,$9,$2,$3,0*
0 Add four circle primitives for the rounded corners*
1,1,$1+$1,$2,$3*
1,1,$1+$1,$4,$5*
1,1,$1+$1,$6,$7*
1,1,$1+$1,$8,$9*
0 Add four rect primitives between the rounded corners*
20,1,$1+$1,$2,$3,$4,$5,0*
20,1,$1+$1,$4,$5,$6,$7,0*
20,1,$1+$1,$6,$7,$8,$9,0*
20,1,$1+$1,$8,$9,$2,$3,0*%
G04 Aperture macros list end*
%TA.AperFunction,SMDPad,CuDef*%
%ADD10RoundRect,0.150000X-0.587500X-0.150000X0.587500X-0.150000X0.587500X0.150000X-0.587500X0.150000X0*%
%TD*%
%TA.AperFunction,ComponentPad*%
%ADD11C,1.600200*%
%TD*%
%TA.AperFunction,SMDPad,CuDef*%
%ADD12RoundRect,0.250000X-0.300000X-0.300000X0.300000X-0.300000X0.300000X0.300000X-0.300000X0.300000X0*%
%TD*%
%TA.AperFunction,SMDPad,CuDef*%
%ADD13RoundRect,0.250000X-0.625000X0.400000X-0.625000X-0.400000X0.625000X-0.400000X0.625000X0.400000X0*%
%TD*%
%TA.AperFunction,SMDPad,CuDef*%
%ADD14RoundRect,0.250000X-0.400000X-0.625000X0.400000X-0.625000X0.400000X0.625000X-0.400000X0.625000X0*%
%TD*%
%TA.AperFunction,SMDPad,CuDef*%
%ADD15RoundRect,0.250000X-0.300000X0.300000X-0.300000X-0.300000X0.300000X-0.300000X0.300000X0.300000X0*%
%TD*%
%TA.AperFunction,SMDPad,CuDef*%
%ADD16RoundRect,0.500000X-0.875000X-0.500000X0.875000X-0.500000X0.875000X0.500000X-0.875000X0.500000X0*%
%TD*%
%TA.AperFunction,SMDPad,CuDef*%
%ADD17RoundRect,0.275000X0.975000X0.275000X-0.975000X0.275000X-0.975000X-0.275000X0.975000X-0.275000X0*%
%TD*%
%TA.AperFunction,SMDPad,CuDef*%
%ADD18C,1.700000*%
%TD*%
%TA.AperFunction,ComponentPad*%
%ADD19C,1.700000*%
%TD*%
%TA.AperFunction,ViaPad*%
%ADD20C,0.800000*%
%TD*%
%TA.AperFunction,Conductor*%
%ADD21C,0.400000*%
%TD*%
G04 APERTURE END LIST*
D10*
%TO.P,Q3,1,G*%
%TO.N,PUMP_PWM*%
X39702500Y-38928000D03*
%TO.P,Q3,2,S*%
%TO.N,Net-(Q3-S)*%
X39702500Y-40828000D03*
%TO.P,Q3,3,D*%
%TO.N,Net-(D4-A)*%
X41577500Y-39878000D03*
%TD*%
D11*
%TO.P,U1,1,1*%
%TO.N,3.7V*%
X47262000Y-31299150D03*
%TO.P,U1,2,2*%
%TO.N,V_BATT*%
X49802000Y-31299150D03*
%TO.P,U1,3,3*%
%TO.N,unconnected-(U1-Pad3)*%
X52342000Y-31299150D03*
%TO.P,U1,4*%
%TO.N,N/C*%
X52342000Y-26250900D03*
%TO.P,U1,5*%
X47262000Y-26250900D03*
%TD*%
D12*
%TO.P,D4,1,K*%
%TO.N,3.7V*%
X39240000Y-36830000D03*
%TO.P,D4,2,A*%
%TO.N,Net-(D4-A)*%
X42040000Y-36830000D03*
%TD*%
D13*
%TO.P,R6,1*%
%TO.N,GND*%
X36830000Y-37312000D03*
%TO.P,R6,2*%
%TO.N,Net-(Q3-S)*%
X36830000Y-40412000D03*
%TD*%
D14*
%TO.P,R3,1*%
%TO.N,Net-(U2-PA7_A8_D8_SCK)*%
X40106000Y-30734000D03*
%TO.P,R3,2*%
%TO.N,PUMP_PWM*%
X43206000Y-30734000D03*
%TD*%
D15*
%TO.P,D1,1,K*%
%TO.N,Net-(D1-K)*%
X36594000Y-28068000D03*
%TO.P,D1,2,A*%
%TO.N,5V*%
X36594000Y-30868000D03*
%TD*%
D16*
%TO.P,U2,1,PA02_A0_D0*%
%TO.N,unconnected-(U2-PA02_A0_D0-Pad1)*%
X17363000Y-23876000D03*
%TO.P,U2,2,PA4_A1_D1*%
%TO.N,unconnected-(U2-PA4_A1_D1-Pad2)*%
X17363000Y-26416000D03*
%TO.P,U2,3,PA10_A2_D2*%
%TO.N,unconnected-(U2-PA10_A2_D2-Pad3)*%
X17363000Y-28956000D03*
%TO.P,U2,4,PA11_A3_D3*%
%TO.N,unconnected-(U2-PA11_A3_D3-Pad4)*%
X17363000Y-31496000D03*
%TO.P,U2,5,PA8_A4_D4_SDA*%
%TO.N,unconnected-(U2-PA8_A4_D4_SDA-Pad5)*%
X17363000Y-34036000D03*
%TO.P,U2,6,PA9_A5_D5_SCL*%
%TO.N,unconnected-(U2-PA9_A5_D5_SCL-Pad6)*%
X17363000Y-36576000D03*
%TO.P,U2,7,PB08_A6_D6_TX*%
%TO.N,unconnected-(U2-PB08_A6_D6_TX-Pad7)*%
X17363000Y-39116000D03*
%TO.P,U2,8,PB09_A7_D7_RX*%
%TO.N,unconnected-(U2-PB09_A7_D7_RX-Pad8)*%
X33528000Y-39116000D03*
%TO.P,U2,9,PA7_A8_D8_SCK*%
%TO.N,Net-(U2-PA7_A8_D8_SCK)*%
X33528000Y-36576000D03*
%TO.P,U2,10,PA5_A9_D9_MISO*%
%TO.N,Net-(U2-PA5_A9_D9_MISO)*%
X33528000Y-34036000D03*
%TO.P,U2,11,PA6_A10_D10_MOSI*%
%TO.N,Net-(U2-PA6_A10_D10_MOSI)*%
X33528000Y-31496000D03*
%TO.P,U2,12,3V3*%
%TO.N,unconnected-(U2-3V3-Pad12)*%
X33528000Y-28956000D03*
%TO.P,U2,13,GND*%
%TO.N,GND*%
X33528000Y-26416000D03*
%TO.P,U2,14,5V*%
%TO.N,Net-(D1-K)*%
X33528000Y-23876000D03*
D17*
%TO.P,U2,15,5V*%
%TO.N,unconnected-(U2-5V-Pad15)*%
X20973000Y-31114000D03*
%TO.P,U2,16,GND*%
%TO.N,unconnected-(U2-GND-Pad16)*%
X20973000Y-29209000D03*
D18*
%TO.P,U2,17,PA31_SWDIO*%
%TO.N,unconnected-(U2-PA31_SWDIO-Pad17)*%
X24148000Y-22864000D03*
%TO.P,U2,18,PA30_SWCLK*%
%TO.N,unconnected-(U2-PA30_SWCLK-Pad18)*%
X26688000Y-22864000D03*
%TO.P,U2,19,RESET*%
%TO.N,unconnected-(U2-RESET-Pad19)*%
X24148000Y-25404000D03*
%TO.P,U2,20,GND*%
%TO.N,unconnected-(U2-GND-Pad20)*%
X26688000Y-25404000D03*
%TO.P,U2,21*%
%TO.N,N/C*%
X24148000Y-27944000D03*
%TO.P,U2,22*%
X26688000Y-27944000D03*
%TO.P,U2,23*%
X24148000Y-30484000D03*
%TO.P,U2,24*%
X26688000Y-30484000D03*
%TD*%
D19*
%TO.P,U3,1,VIN*%
%TO.N,3.7V*%
X36848000Y-22265500D03*
%TO.P,U3,2,GND*%
%TO.N,GND*%
X39388000Y-22265500D03*
%TO.P,U3,3,VOUT*%
%TO.N,5V*%
X41928000Y-22265500D03*
%TD*%
D20*
%TO.N,5V*%
X36576000Y-29464000D03*
%TO.N,3.7V*%
X37592000Y-36068000D03*
X37084000Y-25908000D03*
X37592000Y-31750000D03*
%TO.N,GND*%
X26670000Y-35814000D03*
X35814000Y-33528000D03*
X54102000Y-38354000D03*
X40894000Y-25146000D03*
X21082000Y-39624000D03*
X31242000Y-39878000D03*
X28956000Y-40386000D03*
X18542000Y-21844000D03*
X49784000Y-26162000D03*
X29210000Y-22098000D03*
X54102000Y-30734000D03*
X44704000Y-40894000D03*
X19558000Y-40640000D03*
X36068000Y-36068000D03*
X52832000Y-29210000D03*
X19558000Y-37338000D03*
X29972000Y-30480000D03*
X23876000Y-35814000D03*
X43180000Y-26416000D03*
X45974000Y-33528000D03*
X43180000Y-33020000D03*
X28194000Y-37846000D03*
X29464000Y-27432000D03*
X39370000Y-27686000D03*
X49276000Y-41402000D03*
X22352000Y-21844000D03*
X32766000Y-21590000D03*
X23114000Y-33782000D03*
X36830000Y-37312000D03*
X45466000Y-30480000D03*
X46482000Y-29464000D03*
X30226000Y-24384000D03*
X25400000Y-24384000D03*
%TO.N,VALVE_1_PFM*%
X21590000Y-26416000D03*
X19558000Y-27432000D03*
%TO.N,Net-(D4-A)*%
X41910000Y-35052000D03*
%TO.N,Net-(U2-PA6_A10_D10_MOSI)*%
X26416000Y-33020000D03*
%TO.N,Net-(U2-PA5_A9_D9_MISO)*%
X24130000Y-32766000D03*
%TD*%
D21*
%TO.N,5V*%
X36576000Y-30850000D02*
X36594000Y-30868000D01*
X36576000Y-29464000D02*
X36576000Y-30850000D01*
%TO.N,3.7V*%
X37084000Y-27030420D02*
X37592000Y-27538420D01*
X37592000Y-27538420D02*
X37592000Y-31750000D01*
X39240000Y-36830000D02*
X38354000Y-36830000D01*
X38354000Y-36830000D02*
X37592000Y-36068000D01*
X37084000Y-25908000D02*
X37084000Y-27030420D01*
%TO.N,VALVE_1_PFM*%
X21590000Y-26416000D02*
X20574000Y-26416000D01*
X20574000Y-26416000D02*
X19558000Y-27432000D01*
%TO.N,PUMP_PWM*%
X43206000Y-30734000D02*
X43206000Y-30962000D01*
X43206000Y-30962000D02*
X40191000Y-33977000D01*
X40191000Y-38439500D02*
X39702500Y-38928000D01*
X40191000Y-33977000D02*
X40191000Y-38439500D01*
%TO.N,Net-(D1-K)*%
X36483000Y-26439786D02*
X36483000Y-27957000D01*
X36483000Y-27957000D02*
X36594000Y-28068000D01*
X33528000Y-23876000D02*
X33919214Y-23876000D01*
X33919214Y-23876000D02*
X36483000Y-26439786D01*
%TO.N,Net-(D4-A)*%
X42040000Y-39415500D02*
X41577500Y-39878000D01*
X41910000Y-35052000D02*
X41910000Y-36700000D01*
X41910000Y-36700000D02*
X42040000Y-36830000D01*
X42040000Y-36830000D02*
X42040000Y-39415500D01*
%TO.N,Net-(Q3-S)*%
X39702500Y-40828000D02*
X37246000Y-40828000D01*
X37246000Y-40828000D02*
X36830000Y-40412000D01*
%TO.N,Net-(U2-PA6_A10_D10_MOSI)*%
X33528000Y-31496000D02*
X32389000Y-32635000D01*
X26831000Y-33435000D02*
X26416000Y-33020000D01*
X31081000Y-33435000D02*
X26831000Y-33435000D01*
X32389000Y-32635000D02*
X31881000Y-32635000D01*
X31881000Y-32635000D02*
X31081000Y-33435000D01*
%TO.N,Net-(U2-PA5_A9_D9_MISO)*%
X25400000Y-34036000D02*
X24130000Y-32766000D01*
X33528000Y-34036000D02*
X25400000Y-34036000D01*
%TO.N,Net-(U2-PA7_A8_D8_SCK)*%
X39740786Y-30734000D02*
X33898786Y-36576000D01*
X33898786Y-36576000D02*
X33528000Y-36576000D01*
X40106000Y-30734000D02*
X39740786Y-30734000D01*
%TD*%
%TA.AperFunction,Conductor*%
%TO.N,GND*%
G36*
X38880469Y-20847407D02*
G01*
X38916433Y-20896907D01*
X38916433Y-20958093D01*
X38880469Y-21007593D01*
X38867223Y-21015710D01*
X38680446Y-21110876D01*
X38680442Y-21110878D01*
X38626282Y-21150228D01*
X39258591Y-21782537D01*
X39195007Y-21799575D01*
X39080993Y-21865401D01*
X38987901Y-21958493D01*
X38922075Y-22072507D01*
X38905037Y-22136091D01*
X38272728Y-21503782D01*
X38233378Y-21557942D01*
X38233376Y-21557946D01*
X38136904Y-21747284D01*
X38107272Y-21838484D01*
X38071308Y-21887984D01*
X38013117Y-21906891D01*
X37954926Y-21887984D01*
X37918962Y-21838484D01*
X37918962Y-21838483D01*
X37917824Y-21834983D01*
X37914211Y-21823861D01*
X37831996Y-21662506D01*
X37725553Y-21515999D01*
X37597501Y-21387947D01*
X37450994Y-21281504D01*
X37450993Y-21281503D01*
X37450991Y-21281502D01*
X37289637Y-21199288D01*
X37117406Y-21143328D01*
X36938549Y-21115000D01*
X36938546Y-21115000D01*
X36757454Y-21115000D01*
X36757451Y-21115000D01*
X36578593Y-21143328D01*
X36406362Y-21199288D01*
X36245008Y-21281502D01*
X36171752Y-21334725D01*
X36098499Y-21387947D01*
X35970447Y-21515999D01*
X35939975Y-21557940D01*
X35864002Y-21662508D01*
X35781788Y-21823862D01*
X35725828Y-21996093D01*
X35697500Y-22174950D01*
X35697500Y-22356049D01*
X35725828Y-22534906D01*
X35781788Y-22707137D01*
X35827279Y-22796419D01*
X35864004Y-22868494D01*
X35970447Y-23015001D01*
X36098499Y-23143053D01*
X36245006Y-23249496D01*
X36406361Y-23331711D01*
X36578591Y-23387671D01*
X36650136Y-23399002D01*
X36757451Y-23416000D01*
X36757454Y-23416000D01*
X36938549Y-23416000D01*
X37027977Y-23401835D01*
X37117409Y-23387671D01*
X37289639Y-23331711D01*
X37289642Y-23331709D01*
X37289646Y-23331708D01*
X37393608Y-23278735D01*
X37440527Y-23254829D01*
X37440530Y-23254828D01*
X37444166Y-23252974D01*
X37450994Y-23249496D01*
X37597501Y-23143053D01*
X37725553Y-23015001D01*
X37831996Y-22868494D01*
X37914211Y-22707139D01*
X37918962Y-22692518D01*
X37954924Y-22643017D01*
X38013115Y-22624108D01*
X38071306Y-22643014D01*
X38107271Y-22692513D01*
X38107272Y-22692515D01*
X38136904Y-22783715D01*
X38233376Y-22973053D01*
X38233380Y-22973059D01*
X38272728Y-23027216D01*
X38272729Y-23027216D01*
X38905037Y-22394907D01*
X38922075Y-22458493D01*
X38987901Y-22572507D01*
X39080993Y-22665599D01*
X39195007Y-22731425D01*
X39258589Y-22748462D01*
X38626282Y-23380769D01*
X38626282Y-23380770D01*
X38680440Y-23420119D01*
X38680446Y-23420123D01*
X38869784Y-23516595D01*
X39071878Y-23582259D01*
X39281750Y-23615500D01*
X39494250Y-23615500D01*
X39704121Y-23582259D01*
X39906215Y-23516595D01*
X40095556Y-23420120D01*
X40149716Y-23380770D01*
X39517408Y-22748462D01*
X39580993Y-22731425D01*
X39695007Y-22665599D01*
X39788099Y-22572507D01*
X39853925Y-22458493D01*
X39870962Y-22394908D01*
X40503270Y-23027216D01*
X40542620Y-22973056D01*
X40639096Y-22783713D01*
X40668727Y-22692516D01*
X40704690Y-22643016D01*
X40762881Y-22624108D01*
X40821072Y-22643015D01*
X40857036Y-22692513D01*
X40861788Y-22707137D01*
X40907279Y-22796419D01*
X40944004Y-22868494D01*
X41050447Y-23015001D01*
X41178499Y-23143053D01*
X41325006Y-23249496D01*
X41486361Y-23331711D01*
X41658591Y-23387671D01*
X41730136Y-23399002D01*
X41837451Y-23416000D01*
X41837454Y-23416000D01*
X42018549Y-23416000D01*
X42107977Y-23401835D01*
X42197409Y-23387671D01*
X42369639Y-23331711D01*
X42530994Y-23249496D01*
X42677501Y-23143053D01*
X42805553Y-23015001D01*
X42911996Y-22868494D01*
X42994211Y-22707139D01*
X43050171Y-22534909D01*
X43078500Y-22356046D01*
X43078500Y-22174954D01*
X43078500Y-22174950D01*
X43050171Y-21996093D01*
X43050171Y-21996091D01*
X42994211Y-21823861D01*
X42911996Y-21662506D01*
X42805553Y-21515999D01*
X42677501Y-21387947D01*
X42530994Y-21281504D01*
X42530993Y-21281503D01*
X42530991Y-21281502D01*
X42369637Y-21199288D01*
X42197406Y-21143328D01*
X42018549Y-21115000D01*
X42018546Y-21115000D01*
X41837454Y-21115000D01*
X41837451Y-21115000D01*
X41658593Y-21143328D01*
X41486362Y-21199288D01*
X41325008Y-21281502D01*
X41251752Y-21334725D01*
X41178499Y-21387947D01*
X41050447Y-21515999D01*
X41019975Y-21557940D01*
X40944002Y-21662508D01*
X40861787Y-21823864D01*
X40861786Y-21823866D01*
X40857035Y-21838488D01*
X40821069Y-21887986D01*
X40762878Y-21906891D01*
X40704688Y-21887981D01*
X40668727Y-21838483D01*
X40639096Y-21747286D01*
X40542623Y-21557946D01*
X40542619Y-21557940D01*
X40503270Y-21503782D01*
X40503269Y-21503782D01*
X39870962Y-22136089D01*
X39853925Y-22072507D01*
X39788099Y-21958493D01*
X39695007Y-21865401D01*
X39580993Y-21799575D01*
X39517407Y-21782537D01*
X40149716Y-21150229D01*
X40149716Y-21150228D01*
X40095559Y-21110880D01*
X40095553Y-21110876D01*
X39908777Y-21015710D01*
X39865512Y-20972445D01*
X39855941Y-20912013D01*
X39883718Y-20857497D01*
X39938235Y-20829719D01*
X39953722Y-20828500D01*
X55273000Y-20828500D01*
X55331191Y-20847407D01*
X55367155Y-20896907D01*
X55372000Y-20927500D01*
X55372000Y-41810500D01*
X55353093Y-41868691D01*
X55303593Y-41904655D01*
X55273000Y-41909500D01*
X15865500Y-41909500D01*
X15807309Y-41890593D01*
X15771345Y-41841093D01*
X15766500Y-41810500D01*
X15766500Y-40265585D01*
X15785407Y-40207394D01*
X15834907Y-40171430D01*
X15896093Y-40171430D01*
X15935501Y-40195579D01*
X15985738Y-40245816D01*
X16138478Y-40341789D01*
X16162384Y-40350154D01*
X16308738Y-40401366D01*
X16308742Y-40401367D01*
X16308745Y-40401368D01*
X16308746Y-40401368D01*
X16308750Y-40401369D01*
X16443029Y-40416499D01*
X16443045Y-40416499D01*
X16443046Y-40416500D01*
X16443047Y-40416500D01*
X18282953Y-40416500D01*
X18282954Y-40416500D01*
X18282955Y-40416499D01*
X18282970Y-40416499D01*
X18417249Y-40401369D01*
X18417251Y-40401368D01*
X18417255Y-40401368D01*
X18587522Y-40341789D01*
X18740262Y-40245816D01*
X18867816Y-40118262D01*
X18963789Y-39965522D01*
X19023368Y-39795255D01*
X19023369Y-39795249D01*
X19038499Y-39660970D01*
X19038500Y-39660953D01*
X19038500Y-38571046D01*
X19038499Y-38571029D01*
X19023369Y-38436750D01*
X19023366Y-38436738D01*
X18999014Y-38367145D01*
X18963789Y-38266478D01*
X18960461Y-38261182D01*
X18867818Y-38113741D01*
X18867817Y-38113740D01*
X18867816Y-38113738D01*
X18740262Y-37986184D01*
X18740259Y-37986182D01*
X18740258Y-37986181D01*
X18650569Y-37929826D01*
X18611357Y-37882857D01*
X18607241Y-37821810D01*
X18639793Y-37770003D01*
X18650569Y-37762174D01*
X18681079Y-37743003D01*
X18740262Y-37705816D01*
X18867816Y-37578262D01*
X18963789Y-37425522D01*
X19023368Y-37255255D01*
X19023369Y-37255249D01*
X19038499Y-37120970D01*
X19038500Y-37120953D01*
X19038500Y-36031046D01*
X19038499Y-36031029D01*
X19023369Y-35896750D01*
X19023366Y-35896738D01*
X18967188Y-35736193D01*
X18963789Y-35726478D01*
X18897800Y-35621458D01*
X18867818Y-35573741D01*
X18867817Y-35573740D01*
X18867816Y-35573738D01*
X18740262Y-35446184D01*
X18740259Y-35446182D01*
X18740258Y-35446181D01*
X18650569Y-35389826D01*
X18611357Y-35342857D01*
X18607241Y-35281810D01*
X18639793Y-35230003D01*
X18650569Y-35222174D01*
X18664672Y-35213312D01*
X18740262Y-35165816D01*
X18867816Y-35038262D01*
X18963789Y-34885522D01*
X19023368Y-34715255D01*
X19023369Y-34715249D01*
X19038499Y-34580970D01*
X19038500Y-34580953D01*
X19038500Y-33491046D01*
X19038499Y-33491029D01*
X19023369Y-33356750D01*
X19023366Y-33356738D01*
X18999014Y-33287145D01*
X18963789Y-33186478D01*
X18867816Y-33033738D01*
X18740262Y-32906184D01*
X18740259Y-32906182D01*
X18740258Y-32906181D01*
X18650569Y-32849826D01*
X18647048Y-32845609D01*
X18641895Y-32843704D01*
X18627719Y-32822456D01*
X18611357Y-32802857D01*
X18610987Y-32797376D01*
X18607938Y-32792806D01*
X18608958Y-32767285D01*
X18607241Y-32741810D01*
X18610163Y-32737158D01*
X18610383Y-32731670D01*
X18624665Y-32714078D01*
X18635394Y-32697004D01*
X23429500Y-32697004D01*
X23429500Y-32834995D01*
X23443526Y-32905504D01*
X23452097Y-32948597D01*
X23456420Y-32970327D01*
X23456420Y-32970329D01*
X23509222Y-33097806D01*
X23509228Y-33097817D01*
X23585885Y-33212541D01*
X23683458Y-33310114D01*
X23798182Y-33386771D01*
X23798193Y-33386777D01*
X23844378Y-33405907D01*
X23925672Y-33439580D01*
X24061007Y-33466500D01*
X24081678Y-33466500D01*
X24139869Y-33485407D01*
X24151682Y-33495496D01*
X24811505Y-34155318D01*
X24999498Y-34343311D01*
X24999500Y-34343314D01*
X25092686Y-34436500D01*
X25092688Y-34436501D01*
X25092690Y-34436503D01*
X25206810Y-34502390D01*
X25206808Y-34502390D01*
X25206812Y-34502391D01*
X25206814Y-34502392D01*
X25334107Y-34536500D01*
X25334108Y-34536500D01*
X31759019Y-34536500D01*
X31817210Y-34555407D01*
X31853174Y-34604907D01*
X31857396Y-34624415D01*
X31867630Y-34715249D01*
X31867633Y-34715261D01*
X31927211Y-34885522D01*
X31927211Y-34885523D01*
X32023181Y-35038258D01*
X32023184Y-35038262D01*
X32150738Y-35165816D01*
X32150740Y-35165817D01*
X32150743Y-35165820D01*
X32240431Y-35222175D01*
X32279643Y-35269143D01*
X32283758Y-35330190D01*
X32251205Y-35381997D01*
X32240431Y-35389825D01*
X32150743Y-35446179D01*
X32023181Y-35573741D01*
X31927211Y-35726476D01*
X31927211Y-35726477D01*
X31867633Y-35896738D01*
X31867630Y-35896750D01*
X31852500Y-36031029D01*
X31852500Y-37120970D01*
X31867630Y-37255249D01*
X31867633Y-37255261D01*
X31927211Y-37425522D01*
X31927211Y-37425523D01*
X32023181Y-37578258D01*
X32023184Y-37578262D01*
X32150738Y-37705816D01*
X32150740Y-37705817D01*
X32150743Y-37705820D01*
X32240431Y-37762175D01*
X32279643Y-37809143D01*
X32283758Y-37870190D01*
X32251205Y-37921997D01*
X32240431Y-37929825D01*
X32150743Y-37986179D01*
X32023181Y-38113741D01*
X31927211Y-38266476D01*
X31927211Y-38266477D01*
X31867633Y-38436738D01*
X31867630Y-38436750D01*
X31852500Y-38571029D01*
X31852500Y-39660970D01*
X31867630Y-39795249D01*
X31867633Y-39795261D01*
X31927211Y-39965522D01*
X31927211Y-39965523D01*
X32023181Y-40118258D01*
X32023184Y-40118262D01*
X32150738Y-40245816D01*
X32303478Y-40341789D01*
X32327384Y-40350154D01*
X32473738Y-40401366D01*
X32473742Y-40401367D01*
X32473745Y-40401368D01*
X32473746Y-40401368D01*
X32473750Y-40401369D01*
X32608029Y-40416499D01*
X32608045Y-40416499D01*
X32608046Y-40416500D01*
X32608047Y-40416500D01*
X34447953Y-40416500D01*
X34447954Y-40416500D01*
X34447955Y-40416499D01*
X34447970Y-40416499D01*
X34582249Y-40401369D01*
X34582251Y-40401368D01*
X34582255Y-40401368D01*
X34752522Y-40341789D01*
X34905262Y-40245816D01*
X35032816Y-40118262D01*
X35126671Y-39968893D01*
X35654500Y-39968893D01*
X35654500Y-40855106D01*
X35665123Y-40943565D01*
X35720637Y-41084339D01*
X35720638Y-41084341D01*
X35720639Y-41084342D01*
X35812078Y-41204922D01*
X35932658Y-41296361D01*
X35932659Y-41296361D01*
X35932660Y-41296362D01*
X35942251Y-41300144D01*
X36073436Y-41351877D01*
X36161898Y-41362500D01*
X36161900Y-41362500D01*
X37498100Y-41362500D01*
X37498102Y-41362500D01*
X37586564Y-41351877D01*
X37628342Y-41335402D01*
X37664660Y-41328500D01*
X38798686Y-41328500D01*
X38856877Y-41347407D01*
X38857474Y-41347845D01*
X38902116Y-41380792D01*
X38902117Y-41380792D01*
X38902118Y-41380793D01*
X39030301Y-41425646D01*
X39060725Y-41428499D01*
X39060727Y-41428500D01*
X39060734Y-41428500D01*
X40344273Y-41428500D01*
X40344273Y-41428499D01*
X40374699Y-41425646D01*
X40502882Y-41380793D01*
X40612150Y-41300150D01*
X40692793Y-41190882D01*
X40737646Y-41062699D01*
X40740499Y-41032273D01*
X40740500Y-41032273D01*
X40740500Y-40623727D01*
X40740499Y-40623725D01*
X40737646Y-40593305D01*
X40737646Y-40593301D01*
X40735237Y-40586419D01*
X40733864Y-40525250D01*
X40768707Y-40474955D01*
X40826459Y-40454746D01*
X40861376Y-40460276D01*
X40905301Y-40475646D01*
X40935725Y-40478499D01*
X40935727Y-40478500D01*
X40935734Y-40478500D01*
X42219273Y-40478500D01*
X42219273Y-40478499D01*
X42249699Y-40475646D01*
X42377882Y-40430793D01*
X42487150Y-40350150D01*
X42567793Y-40240882D01*
X42612646Y-40112699D01*
X42615499Y-40082273D01*
X42615500Y-40082273D01*
X42615500Y-39673727D01*
X42615499Y-39673725D01*
X42612646Y-39643305D01*
X42612646Y-39643301D01*
X42567793Y-39515118D01*
X42567792Y-39515116D01*
X42559845Y-39504348D01*
X42540503Y-39446301D01*
X42540500Y-39445560D01*
X42540500Y-37710071D01*
X42559407Y-37651880D01*
X42603185Y-37617972D01*
X42603894Y-37617692D01*
X42612342Y-37614361D01*
X42612343Y-37614360D01*
X42612344Y-37614360D01*
X42659959Y-37578251D01*
X42732922Y-37522922D01*
X42824361Y-37402342D01*
X42879877Y-37261564D01*
X42890500Y-37173102D01*
X42890500Y-36486898D01*
X42879877Y-36398436D01*
X42824361Y-36257658D01*
X42732922Y-36137078D01*
X42612342Y-36045639D01*
X42612341Y-36045638D01*
X42612339Y-36045637D01*
X42473181Y-35990760D01*
X42425984Y-35951823D01*
X42410500Y-35898663D01*
X42410500Y-35583164D01*
X42429407Y-35524973D01*
X42439496Y-35513160D01*
X42444710Y-35507946D01*
X42454114Y-35498542D01*
X42530775Y-35383811D01*
X42583580Y-35256328D01*
X42610500Y-35120993D01*
X42610500Y-34983007D01*
X42583580Y-34847672D01*
X42530775Y-34720189D01*
X42530774Y-34720187D01*
X42530771Y-34720182D01*
X42454114Y-34605458D01*
X42356541Y-34507885D01*
X42241817Y-34431228D01*
X42241806Y-34431222D01*
X42114328Y-34378420D01*
X41978995Y-34351500D01*
X41978993Y-34351500D01*
X41841007Y-34351500D01*
X41841004Y-34351500D01*
X41705672Y-34378420D01*
X41705670Y-34378420D01*
X41578193Y-34431222D01*
X41578182Y-34431228D01*
X41463458Y-34507885D01*
X41365885Y-34605458D01*
X41289228Y-34720182D01*
X41289222Y-34720193D01*
X41236420Y-34847670D01*
X41236420Y-34847672D01*
X41209500Y-34983004D01*
X41209500Y-34983007D01*
X41209500Y-35120993D01*
X41229626Y-35222175D01*
X41236420Y-35256327D01*
X41236420Y-35256329D01*
X41289222Y-35383806D01*
X41289228Y-35383817D01*
X41365885Y-35498541D01*
X41380504Y-35513160D01*
X41408281Y-35567677D01*
X41409500Y-35583164D01*
X41409500Y-36040569D01*
X41390593Y-36098760D01*
X41370320Y-36119453D01*
X41347078Y-36137078D01*
X41255640Y-36257656D01*
X41255637Y-36257660D01*
X41200123Y-36398434D01*
X41189500Y-36486893D01*
X41189500Y-37173106D01*
X41200123Y-37261565D01*
X41255637Y-37402339D01*
X41255638Y-37402340D01*
X41255639Y-37402342D01*
X41347078Y-37522922D01*
X41347081Y-37522924D01*
X41347082Y-37522925D01*
X41467656Y-37614360D01*
X41467657Y-37614360D01*
X41467658Y-37614361D01*
X41467661Y-37614362D01*
X41476815Y-37617972D01*
X41524014Y-37656907D01*
X41539500Y-37710071D01*
X41539500Y-39167178D01*
X41537031Y-39174775D01*
X41538281Y-39182665D01*
X41527756Y-39203320D01*
X41520593Y-39225369D01*
X41510504Y-39237182D01*
X41499182Y-39248504D01*
X41444665Y-39276281D01*
X41429178Y-39277500D01*
X40935725Y-39277500D01*
X40905305Y-39280353D01*
X40905301Y-39280354D01*
X40861379Y-39295723D01*
X40800209Y-39297095D01*
X40749915Y-39262251D01*
X40729707Y-39204499D01*
X40735238Y-39169579D01*
X40737646Y-39162699D01*
X40740499Y-39132273D01*
X40740500Y-39132273D01*
X40740500Y-38723727D01*
X40740499Y-38723725D01*
X40737646Y-38693305D01*
X40737646Y-38693301D01*
X40693082Y-38565946D01*
X40691062Y-38511879D01*
X40690653Y-38511826D01*
X40690970Y-38509416D01*
X40690903Y-38507619D01*
X40691500Y-38505392D01*
X40691500Y-34225322D01*
X40710407Y-34167131D01*
X40720496Y-34155318D01*
X42937318Y-31938496D01*
X42991835Y-31910719D01*
X43007322Y-31909500D01*
X43649100Y-31909500D01*
X43649102Y-31909500D01*
X43737564Y-31898877D01*
X43878342Y-31843361D01*
X43998922Y-31751922D01*
X44090361Y-31631342D01*
X44145877Y-31490564D01*
X44156500Y-31402102D01*
X44156500Y-31212528D01*
X46161400Y-31212528D01*
X46161400Y-31385771D01*
X46188500Y-31556871D01*
X46242031Y-31721627D01*
X46242033Y-31721630D01*
X46242034Y-31721634D01*
X46250071Y-31737407D01*
X46313790Y-31862463D01*
X46320683Y-31875990D01*
X46422510Y-32016143D01*
X46545007Y-32138640D01*
X46685160Y-32240467D01*
X46839516Y-32319116D01*
X46839521Y-32319117D01*
X46839522Y-32319118D01*
X46840698Y-32319500D01*
X47004276Y-32372649D01*
X47072718Y-32383489D01*
X47175378Y-32399750D01*
X47175381Y-32399750D01*
X47348622Y-32399750D01*
X47434171Y-32386199D01*
X47519724Y-32372649D01*
X47684484Y-32319116D01*
X47838840Y-32240467D01*
X47978993Y-32138640D01*
X48101490Y-32016143D01*
X48203317Y-31875990D01*
X48281966Y-31721634D01*
X48335499Y-31556874D01*
X48354232Y-31438600D01*
X48362600Y-31385771D01*
X48362600Y-31212528D01*
X48701400Y-31212528D01*
X48701400Y-31385771D01*
X48728500Y-31556871D01*
X48782031Y-31721627D01*
X48782033Y-31721630D01*
X48782034Y-31721634D01*
X48790071Y-31737407D01*
X48853790Y-31862463D01*
X48860683Y-31875990D01*
X48962510Y-32016143D01*
X49085007Y-32138640D01*
X49225160Y-32240467D01*
X49379516Y-32319116D01*
X49379521Y-32319117D01*
X49379522Y-32319118D01*
X49380698Y-32319500D01*
X49544276Y-32372649D01*
X49612718Y-32383489D01*
X49715378Y-32399750D01*
X49715381Y-32399750D01*
X49888622Y-32399750D01*
X49974171Y-32386199D01*
X50059724Y-32372649D01*
X50224484Y-32319116D01*
X50378840Y-32240467D01*
X50518993Y-32138640D01*
X50641490Y-32016143D01*
X50743317Y-31875990D01*
X50821966Y-31721634D01*
X50875499Y-31556874D01*
X50894232Y-31438600D01*
X50902600Y-31385771D01*
X50902600Y-31212528D01*
X51241400Y-31212528D01*
X51241400Y-31385771D01*
X51268500Y-31556871D01*
X51322031Y-31721627D01*
X51322033Y-31721630D01*
X51322034Y-31721634D01*
X51330071Y-31737407D01*
X51393790Y-31862463D01*
X51400683Y-31875990D01*
X51502510Y-32016143D01*
X51625007Y-32138640D01*
X51765160Y-32240467D01*
X51919516Y-32319116D01*
X51919521Y-32319117D01*
X51919522Y-32319118D01*
X51920698Y-32319500D01*
X52084276Y-32372649D01*
X52152718Y-32383489D01*
X52255378Y-32399750D01*
X52255381Y-32399750D01*
X52428622Y-32399750D01*
X52514171Y-32386199D01*
X52599724Y-32372649D01*
X52764484Y-32319116D01*
X52918840Y-32240467D01*
X53058993Y-32138640D01*
X53181490Y-32016143D01*
X53283317Y-31875990D01*
X53361966Y-31721634D01*
X53415499Y-31556874D01*
X53434232Y-31438600D01*
X53442600Y-31385771D01*
X53442600Y-31212528D01*
X53415499Y-31041428D01*
X53415499Y-31041426D01*
X53361966Y-30876666D01*
X53283317Y-30722310D01*
X53181490Y-30582157D01*
X53058993Y-30459660D01*
X52918840Y-30357833D01*
X52918839Y-30357832D01*
X52918837Y-30357831D01*
X52848742Y-30322116D01*
X52764484Y-30279184D01*
X52764480Y-30279183D01*
X52764477Y-30279181D01*
X52599721Y-30225650D01*
X52428622Y-30198550D01*
X52428619Y-30198550D01*
X52255381Y-30198550D01*
X52255378Y-30198550D01*
X52084278Y-30225650D01*
X51919522Y-30279181D01*
X51765162Y-30357831D01*
X51625008Y-30459659D01*
X51502509Y-30582158D01*
X51400681Y-30722312D01*
X51322031Y-30876672D01*
X51268500Y-31041428D01*
X51241400Y-31212528D01*
X50902600Y-31212528D01*
X50875499Y-31041428D01*
X50875499Y-31041426D01*
X50821966Y-30876666D01*
X50743317Y-30722310D01*
X50641490Y-30582157D01*
X50518993Y-30459660D01*
X50378840Y-30357833D01*
X50378839Y-30357832D01*
X50378837Y-30357831D01*
X50308742Y-30322116D01*
X50224484Y-30279184D01*
X50224480Y-30279183D01*
X50224477Y-30279181D01*
X50059721Y-30225650D01*
X49888622Y-30198550D01*
X49888619Y-30198550D01*
X49715381Y-30198550D01*
X49715378Y-30198550D01*
X49544278Y-30225650D01*
X49379522Y-30279181D01*
X49225162Y-30357831D01*
X49085008Y-30459659D01*
X48962509Y-30582158D01*
X48860681Y-30722312D01*
X48782031Y-30876672D01*
X48728500Y-31041428D01*
X48701400Y-31212528D01*
X48362600Y-31212528D01*
X48335499Y-31041428D01*
X48335499Y-31041426D01*
X48281966Y-30876666D01*
X48203317Y-30722310D01*
X48101490Y-30582157D01*
X47978993Y-30459660D01*
X47838840Y-30357833D01*
X47838839Y-30357832D01*
X47838837Y-30357831D01*
X47768742Y-30322116D01*
X47684484Y-30279184D01*
X47684480Y-30279183D01*
X47684477Y-30279181D01*
X47519721Y-30225650D01*
X47348622Y-30198550D01*
X47348619Y-30198550D01*
X47175381Y-30198550D01*
X47175378Y-30198550D01*
X47004278Y-30225650D01*
X46839522Y-30279181D01*
X46685162Y-30357831D01*
X46545008Y-30459659D01*
X46422509Y-30582158D01*
X46320681Y-30722312D01*
X46242031Y-30876672D01*
X46188500Y-31041428D01*
X46161400Y-31212528D01*
X44156500Y-31212528D01*
X44156500Y-30065898D01*
X44145877Y-29977436D01*
X44113151Y-29894448D01*
X44090362Y-29836660D01*
X44090361Y-29836659D01*
X44090361Y-29836658D01*
X43998922Y-29716078D01*
X43878342Y-29624639D01*
X43878341Y-29624638D01*
X43878339Y-29624637D01*
X43737565Y-29569123D01*
X43649106Y-29558500D01*
X43649102Y-29558500D01*
X42762898Y-29558500D01*
X42762893Y-29558500D01*
X42674434Y-29569123D01*
X42533660Y-29624637D01*
X42533656Y-29624640D01*
X42413081Y-29716075D01*
X42413075Y-29716081D01*
X42321640Y-29836656D01*
X42321637Y-29836660D01*
X42266123Y-29977434D01*
X42255500Y-30065893D01*
X42255500Y-31163678D01*
X42236593Y-31221869D01*
X42226504Y-31233682D01*
X39883686Y-33576500D01*
X39883685Y-33576499D01*
X39790500Y-33669685D01*
X39790496Y-33669690D01*
X39724609Y-33783809D01*
X39690500Y-33911109D01*
X39690500Y-35880825D01*
X39671593Y-35939016D01*
X39622093Y-35974980D01*
X39585595Y-35979649D01*
X39583102Y-35979500D01*
X38896898Y-35979500D01*
X38896893Y-35979500D01*
X38808434Y-35990123D01*
X38667660Y-36045637D01*
X38667656Y-36045640D01*
X38547081Y-36137075D01*
X38547070Y-36137086D01*
X38538829Y-36147953D01*
X38520600Y-36160632D01*
X38504895Y-36176338D01*
X38495995Y-36177747D01*
X38488600Y-36182892D01*
X38466395Y-36182435D01*
X38444463Y-36185909D01*
X38436436Y-36181819D01*
X38427428Y-36181634D01*
X38389946Y-36158132D01*
X38321496Y-36089682D01*
X38293719Y-36035165D01*
X38292500Y-36019678D01*
X38292500Y-35999008D01*
X38292499Y-35999004D01*
X38292218Y-35997590D01*
X38265580Y-35863672D01*
X38212775Y-35736189D01*
X38212774Y-35736187D01*
X38212771Y-35736182D01*
X38136114Y-35621458D01*
X38038541Y-35523885D01*
X37923817Y-35447228D01*
X37923806Y-35447222D01*
X37796328Y-35394420D01*
X37660995Y-35367500D01*
X37660993Y-35367500D01*
X37523007Y-35367500D01*
X37523004Y-35367500D01*
X37387672Y-35394420D01*
X37387670Y-35394420D01*
X37260193Y-35447222D01*
X37260182Y-35447228D01*
X37145458Y-35523885D01*
X37047885Y-35621458D01*
X36971228Y-35736182D01*
X36971222Y-35736193D01*
X36918420Y-35863670D01*
X36918420Y-35863672D01*
X36891500Y-35999004D01*
X36891500Y-36136995D01*
X36918420Y-36272327D01*
X36918420Y-36272329D01*
X36971222Y-36399806D01*
X36971228Y-36399817D01*
X37047885Y-36514541D01*
X37051004Y-36517660D01*
X37078781Y-36572177D01*
X37080000Y-36587664D01*
X37080000Y-38461998D01*
X37080001Y-38461999D01*
X37504986Y-38461999D01*
X37607687Y-38451507D01*
X37607699Y-38451504D01*
X37774124Y-38396356D01*
X37923340Y-38304319D01*
X38047319Y-38180340D01*
X38139356Y-38031124D01*
X38194506Y-37864693D01*
X38204999Y-37761987D01*
X38204999Y-37429500D01*
X38209844Y-37414588D01*
X38209844Y-37398907D01*
X38219060Y-37386221D01*
X38223906Y-37371309D01*
X38236591Y-37362092D01*
X38245808Y-37349407D01*
X38260720Y-37344561D01*
X38273406Y-37335345D01*
X38303999Y-37330500D01*
X38359929Y-37330500D01*
X38418120Y-37349407D01*
X38452025Y-37393179D01*
X38455639Y-37402342D01*
X38547078Y-37522922D01*
X38667658Y-37614361D01*
X38667659Y-37614361D01*
X38667660Y-37614362D01*
X38710942Y-37631430D01*
X38808436Y-37669877D01*
X38896898Y-37680500D01*
X38896900Y-37680500D01*
X39583091Y-37680500D01*
X39583102Y-37680500D01*
X39583112Y-37680498D01*
X39585577Y-37680351D01*
X39644795Y-37695743D01*
X39683656Y-37743003D01*
X39690500Y-37779174D01*
X39690500Y-38191179D01*
X39688031Y-38198776D01*
X39689281Y-38206665D01*
X39678757Y-38227320D01*
X39671593Y-38249370D01*
X39661509Y-38261177D01*
X39624182Y-38298504D01*
X39569668Y-38326281D01*
X39554180Y-38327500D01*
X39060725Y-38327500D01*
X39030305Y-38330353D01*
X39030296Y-38330355D01*
X38902116Y-38375207D01*
X38792855Y-38455845D01*
X38792845Y-38455855D01*
X38712207Y-38565116D01*
X38667355Y-38693296D01*
X38667353Y-38693305D01*
X38664500Y-38723725D01*
X38664500Y-39132274D01*
X38667353Y-39162694D01*
X38667355Y-39162703D01*
X38712207Y-39290883D01*
X38792845Y-39400144D01*
X38792847Y-39400146D01*
X38792850Y-39400150D01*
X38792853Y-39400152D01*
X38792855Y-39400154D01*
X38902116Y-39480792D01*
X38902117Y-39480792D01*
X38902118Y-39480793D01*
X39030301Y-39525646D01*
X39060725Y-39528499D01*
X39060727Y-39528500D01*
X39060734Y-39528500D01*
X40344273Y-39528500D01*
X40344273Y-39528499D01*
X40374699Y-39525646D01*
X40418621Y-39510276D01*
X40479787Y-39508903D01*
X40530083Y-39543746D01*
X40550292Y-39601498D01*
X40544763Y-39636414D01*
X40542355Y-39643296D01*
X40542353Y-39643305D01*
X40539500Y-39673725D01*
X40539500Y-40082274D01*
X40542353Y-40112694D01*
X40542355Y-40112704D01*
X40544762Y-40119583D01*
X40546134Y-40180753D01*
X40511288Y-40231046D01*
X40453536Y-40251253D01*
X40418619Y-40245722D01*
X40374703Y-40230355D01*
X40374694Y-40230353D01*
X40344274Y-40227500D01*
X40344266Y-40227500D01*
X39060734Y-40227500D01*
X39060725Y-40227500D01*
X39030305Y-40230353D01*
X39030296Y-40230355D01*
X38902116Y-40275207D01*
X38857474Y-40308155D01*
X38799426Y-40327497D01*
X38798686Y-40327500D01*
X38104500Y-40327500D01*
X38046309Y-40308593D01*
X38010345Y-40259093D01*
X38005500Y-40228500D01*
X38005500Y-39968899D01*
X38005499Y-39968893D01*
X37994877Y-39880436D01*
X37939361Y-39739658D01*
X37847922Y-39619078D01*
X37727342Y-39527639D01*
X37727341Y-39527638D01*
X37727339Y-39527637D01*
X37586565Y-39472123D01*
X37498106Y-39461500D01*
X37498102Y-39461500D01*
X36161898Y-39461500D01*
X36161893Y-39461500D01*
X36073434Y-39472123D01*
X35932660Y-39527637D01*
X35932656Y-39527640D01*
X35812081Y-39619075D01*
X35812075Y-39619081D01*
X35720640Y-39739656D01*
X35720637Y-39739660D01*
X35665123Y-39880434D01*
X35654500Y-39968893D01*
X35126671Y-39968893D01*
X35128789Y-39965522D01*
X35188368Y-39795255D01*
X35188369Y-39795249D01*
X35203499Y-39660970D01*
X35203500Y-39660953D01*
X35203500Y-38571046D01*
X35203499Y-38571029D01*
X35188369Y-38436750D01*
X35188366Y-38436738D01*
X35164014Y-38367145D01*
X35128789Y-38266478D01*
X35125461Y-38261182D01*
X35032818Y-38113741D01*
X35032817Y-38113740D01*
X35032816Y-38113738D01*
X34905262Y-37986184D01*
X34905259Y-37986182D01*
X34905258Y-37986181D01*
X34815569Y-37929826D01*
X34776357Y-37882857D01*
X34772241Y-37821810D01*
X34804793Y-37770003D01*
X34815569Y-37762174D01*
X34846079Y-37743003D01*
X34905262Y-37705816D01*
X35032816Y-37578262D01*
X35043034Y-37562001D01*
X35455001Y-37562001D01*
X35455001Y-37761986D01*
X35465492Y-37864687D01*
X35465495Y-37864699D01*
X35520643Y-38031124D01*
X35612680Y-38180340D01*
X35736659Y-38304319D01*
X35885875Y-38396356D01*
X36052306Y-38451506D01*
X36155012Y-38461999D01*
X36579998Y-38461999D01*
X36580000Y-38461998D01*
X36580000Y-37562001D01*
X36579999Y-37562000D01*
X35455002Y-37562000D01*
X35455001Y-37562001D01*
X35043034Y-37562001D01*
X35124501Y-37432347D01*
X35128787Y-37425526D01*
X35128788Y-37425523D01*
X35128789Y-37425522D01*
X35188368Y-37255255D01*
X35188369Y-37255249D01*
X35203499Y-37120970D01*
X35203500Y-37120953D01*
X35203500Y-36862012D01*
X35455000Y-36862012D01*
X35455000Y-37061999D01*
X35455001Y-37062000D01*
X36579999Y-37062000D01*
X36580000Y-37061999D01*
X36580000Y-36162001D01*
X36579999Y-36162000D01*
X36155013Y-36162000D01*
X36052312Y-36172492D01*
X36052300Y-36172495D01*
X35885875Y-36227643D01*
X35736659Y-36319680D01*
X35612680Y-36443659D01*
X35520643Y-36592875D01*
X35465493Y-36759306D01*
X35455000Y-36862012D01*
X35203500Y-36862012D01*
X35203500Y-36031054D01*
X35203344Y-36028281D01*
X35203500Y-36028272D01*
X35203500Y-36028268D01*
X35203575Y-36028268D01*
X35204306Y-36028226D01*
X35215829Y-35971831D01*
X35231946Y-35950652D01*
X39320137Y-31862461D01*
X39374652Y-31834686D01*
X39426558Y-31842906D01*
X39427359Y-31840877D01*
X39433658Y-31843361D01*
X39574436Y-31898877D01*
X39662898Y-31909500D01*
X39662900Y-31909500D01*
X40549100Y-31909500D01*
X40549102Y-31909500D01*
X40637564Y-31898877D01*
X40778342Y-31843361D01*
X40898922Y-31751922D01*
X40990361Y-31631342D01*
X41045877Y-31490564D01*
X41056500Y-31402102D01*
X41056500Y-30065898D01*
X41045877Y-29977436D01*
X41013151Y-29894448D01*
X40990362Y-29836660D01*
X40990361Y-29836659D01*
X40990361Y-29836658D01*
X40898922Y-29716078D01*
X40778342Y-29624639D01*
X40778341Y-29624638D01*
X40778339Y-29624637D01*
X40637565Y-29569123D01*
X40549106Y-29558500D01*
X40549102Y-29558500D01*
X39662898Y-29558500D01*
X39662893Y-29558500D01*
X39574434Y-29569123D01*
X39433660Y-29624637D01*
X39433656Y-29624640D01*
X39313081Y-29716075D01*
X39313075Y-29716081D01*
X39221640Y-29836656D01*
X39221637Y-29836660D01*
X39166123Y-29977434D01*
X39155500Y-30065893D01*
X39155500Y-30570463D01*
X39136593Y-30628654D01*
X39126504Y-30640467D01*
X38352551Y-31414419D01*
X38331852Y-31424965D01*
X38313046Y-31438600D01*
X38305107Y-31438592D01*
X38298034Y-31442196D01*
X38275089Y-31438562D01*
X38251860Y-31438539D01*
X38245760Y-31433917D01*
X38237602Y-31432625D01*
X38202396Y-31402526D01*
X38201289Y-31401000D01*
X38136114Y-31303458D01*
X38115952Y-31283296D01*
X38111349Y-31276947D01*
X38104221Y-31254936D01*
X38093719Y-31234323D01*
X38092500Y-31218836D01*
X38092500Y-27472527D01*
X38088205Y-27456501D01*
X38088204Y-27456498D01*
X38080723Y-27428578D01*
X38058392Y-27345234D01*
X38022830Y-27283639D01*
X37992500Y-27231106D01*
X37953611Y-27192217D01*
X37899314Y-27137919D01*
X37899314Y-27137920D01*
X37613496Y-26852102D01*
X37585719Y-26797585D01*
X37584500Y-26782098D01*
X37584500Y-26439164D01*
X37603407Y-26380973D01*
X37613496Y-26369160D01*
X37628114Y-26354542D01*
X37704775Y-26239811D01*
X37736062Y-26164278D01*
X46161400Y-26164278D01*
X46161400Y-26337521D01*
X46188500Y-26508621D01*
X46242031Y-26673377D01*
X46242033Y-26673380D01*
X46242034Y-26673384D01*
X46256872Y-26702504D01*
X46318321Y-26823106D01*
X46320683Y-26827740D01*
X46422510Y-26967893D01*
X46545007Y-27090390D01*
X46685160Y-27192217D01*
X46839516Y-27270866D01*
X47004276Y-27324399D01*
X47072718Y-27335239D01*
X47175378Y-27351500D01*
X47175381Y-27351500D01*
X47348622Y-27351500D01*
X47434171Y-27337949D01*
X47519724Y-27324399D01*
X47684484Y-27270866D01*
X47838840Y-27192217D01*
X47978993Y-27090390D01*
X48101490Y-26967893D01*
X48203317Y-26827740D01*
X48281966Y-26673384D01*
X48335499Y-26508624D01*
X48354605Y-26387996D01*
X48362600Y-26337521D01*
X48362600Y-26164278D01*
X51241400Y-26164278D01*
X51241400Y-26337521D01*
X51268500Y-26508621D01*
X51322031Y-26673377D01*
X51322033Y-26673380D01*
X51322034Y-26673384D01*
X51336872Y-26702504D01*
X51398321Y-26823106D01*
X51400683Y-26827740D01*
X51502510Y-26967893D01*
X51625007Y-27090390D01*
X51765160Y-27192217D01*
X51919516Y-27270866D01*
X52084276Y-27324399D01*
X52152718Y-27335239D01*
X52255378Y-27351500D01*
X52255381Y-27351500D01*
X52428622Y-27351500D01*
X52514171Y-27337949D01*
X52599724Y-27324399D01*
X52764484Y-27270866D01*
X52918840Y-27192217D01*
X53058993Y-27090390D01*
X53181490Y-26967893D01*
X53283317Y-26827740D01*
X53361966Y-26673384D01*
X53415499Y-26508624D01*
X53434605Y-26387996D01*
X53442600Y-26337521D01*
X53442600Y-26164278D01*
X53419034Y-26015496D01*
X53415499Y-25993176D01*
X53365828Y-25840304D01*
X53361968Y-25828422D01*
X53361967Y-25828421D01*
X53361966Y-25828416D01*
X53283317Y-25674060D01*
X53181490Y-25533907D01*
X53058993Y-25411410D01*
X52918840Y-25309583D01*
X52918839Y-25309582D01*
X52918837Y-25309581D01*
X52834119Y-25266415D01*
X52764484Y-25230934D01*
X52764480Y-25230933D01*
X52764477Y-25230931D01*
X52599721Y-25177400D01*
X52428622Y-25150300D01*
X52428619Y-25150300D01*
X52255381Y-25150300D01*
X52255378Y-25150300D01*
X52084278Y-25177400D01*
X51919522Y-25230931D01*
X51765162Y-25309581D01*
X51625008Y-25411409D01*
X51502509Y-25533908D01*
X51400681Y-25674062D01*
X51322031Y-25828422D01*
X51268500Y-25993178D01*
X51241400Y-26164278D01*
X48362600Y-26164278D01*
X48339034Y-26015496D01*
X48335499Y-25993176D01*
X48285828Y-25840304D01*
X48281968Y-25828422D01*
X48281967Y-25828421D01*
X48281966Y-25828416D01*
X48203317Y-25674060D01*
X48101490Y-25533907D01*
X47978993Y-25411410D01*
X47838840Y-25309583D01*
X47838839Y-25309582D01*
X47838837Y-25309581D01*
X47754119Y-25266415D01*
X47684484Y-25230934D01*
X47684480Y-25230933D01*
X47684477Y-25230931D01*
X47519721Y-25177400D01*
X47348622Y-25150300D01*
X47348619Y-25150300D01*
X47175381Y-25150300D01*
X47175378Y-25150300D01*
X47004278Y-25177400D01*
X46839522Y-25230931D01*
X46685162Y-25309581D01*
X46545008Y-25411409D01*
X46422509Y-25533908D01*
X46320681Y-25674062D01*
X46242031Y-25828422D01*
X46188500Y-25993178D01*
X46161400Y-26164278D01*
X37736062Y-26164278D01*
X37757580Y-26112328D01*
X37784500Y-25976993D01*
X37784500Y-25839007D01*
X37757580Y-25703672D01*
X37704775Y-25576189D01*
X37704774Y-25576187D01*
X37704771Y-25576182D01*
X37628114Y-25461458D01*
X37530541Y-25363885D01*
X37415817Y-25287228D01*
X37415806Y-25287222D01*
X37288328Y-25234420D01*
X37152995Y-25207500D01*
X37152993Y-25207500D01*
X37015007Y-25207500D01*
X37015004Y-25207500D01*
X36879672Y-25234420D01*
X36879670Y-25234420D01*
X36752193Y-25287222D01*
X36752182Y-25287228D01*
X36637458Y-25363885D01*
X36539889Y-25461454D01*
X36539886Y-25461458D01*
X36475767Y-25557418D01*
X36427717Y-25595297D01*
X36366579Y-25597699D01*
X36323448Y-25572420D01*
X35232496Y-24481468D01*
X35204719Y-24426951D01*
X35203500Y-24411464D01*
X35203500Y-23331046D01*
X35203499Y-23331029D01*
X35188369Y-23196750D01*
X35188366Y-23196738D01*
X35129047Y-23027216D01*
X35128789Y-23026478D01*
X35032816Y-22873738D01*
X34905262Y-22746184D01*
X34905259Y-22746182D01*
X34905258Y-22746181D01*
X34752523Y-22650211D01*
X34582261Y-22590633D01*
X34582249Y-22590630D01*
X34447970Y-22575500D01*
X34447954Y-22575500D01*
X32608046Y-22575500D01*
X32608029Y-22575500D01*
X32473750Y-22590630D01*
X32473738Y-22590633D01*
X32303477Y-22650211D01*
X32303476Y-22650211D01*
X32150741Y-22746181D01*
X32023181Y-22873741D01*
X31927211Y-23026476D01*
X31927211Y-23026477D01*
X31867633Y-23196738D01*
X31867630Y-23196750D01*
X31852500Y-23331029D01*
X31852500Y-24420970D01*
X31867630Y-24555249D01*
X31867633Y-24555261D01*
X31927211Y-24725522D01*
X31927211Y-24725523D01*
X32023181Y-24878258D01*
X32023184Y-24878262D01*
X32150738Y-25005816D01*
X32150740Y-25005817D01*
X32150741Y-25005818D01*
X32244083Y-25064469D01*
X32303478Y-25101789D01*
X32360695Y-25121810D01*
X32473738Y-25161366D01*
X32473742Y-25161367D01*
X32473745Y-25161368D01*
X32473746Y-25161368D01*
X32473750Y-25161369D01*
X32610807Y-25176812D01*
X32610663Y-25178085D01*
X32663373Y-25198537D01*
X32670797Y-25205245D01*
X33704776Y-26239224D01*
X35101938Y-27636385D01*
X35113746Y-27626758D01*
X35113755Y-27626749D01*
X35242278Y-27469129D01*
X35336442Y-27288861D01*
X35392390Y-27093332D01*
X35403000Y-26974000D01*
X35403000Y-26306608D01*
X35421907Y-26248417D01*
X35471407Y-26212453D01*
X35532593Y-26212453D01*
X35572004Y-26236604D01*
X35953504Y-26618104D01*
X35981281Y-26672621D01*
X35982500Y-26688108D01*
X35982500Y-27264161D01*
X35963593Y-27322352D01*
X35943320Y-27343044D01*
X35901083Y-27375073D01*
X35901075Y-27375081D01*
X35809640Y-27495656D01*
X35809637Y-27495660D01*
X35754123Y-27636434D01*
X35743500Y-27724893D01*
X35743500Y-28411106D01*
X35754123Y-28499565D01*
X35809637Y-28640339D01*
X35809638Y-28640341D01*
X35809639Y-28640342D01*
X35901078Y-28760922D01*
X35901081Y-28760924D01*
X36027053Y-28856452D01*
X36025976Y-28857871D01*
X36061543Y-28896483D01*
X36068627Y-28957257D01*
X36041570Y-29007772D01*
X36031895Y-29017447D01*
X36031885Y-29017458D01*
X35955228Y-29132182D01*
X35955222Y-29132193D01*
X35902420Y-29259670D01*
X35902420Y-29259672D01*
X35875500Y-29395004D01*
X35875500Y-29532995D01*
X35902420Y-29668327D01*
X35902420Y-29668329D01*
X35955222Y-29795806D01*
X35955228Y-29795817D01*
X36031885Y-29910541D01*
X36046504Y-29925160D01*
X36050130Y-29932277D01*
X36056593Y-29936973D01*
X36063756Y-29959021D01*
X36074281Y-29979677D01*
X36075500Y-29995164D01*
X36075500Y-29995453D01*
X36056593Y-30053644D01*
X36025028Y-30081743D01*
X36021662Y-30083635D01*
X35901081Y-30175075D01*
X35901075Y-30175081D01*
X35809640Y-30295656D01*
X35809637Y-30295660D01*
X35754123Y-30436434D01*
X35743500Y-30524893D01*
X35743500Y-31211106D01*
X35754123Y-31299565D01*
X35809637Y-31440339D01*
X35809638Y-31440341D01*
X35809639Y-31440342D01*
X35901078Y-31560922D01*
X36021658Y-31652361D01*
X36021659Y-31652361D01*
X36021660Y-31652362D01*
X36089795Y-31679231D01*
X36162436Y-31707877D01*
X36250898Y-31718500D01*
X36792500Y-31718500D01*
X36850691Y-31737407D01*
X36886655Y-31786907D01*
X36890971Y-31814162D01*
X36891024Y-31814157D01*
X36891111Y-31815048D01*
X36891500Y-31817500D01*
X36891500Y-31818995D01*
X36896347Y-31843361D01*
X36917496Y-31949685D01*
X36918420Y-31954327D01*
X36918420Y-31954329D01*
X36971222Y-32081806D01*
X36971228Y-32081817D01*
X37029221Y-32168608D01*
X37047886Y-32196542D01*
X37145458Y-32294114D01*
X37222397Y-32345523D01*
X37241417Y-32358232D01*
X37279296Y-32406282D01*
X37281698Y-32467420D01*
X37256419Y-32510551D01*
X35372504Y-34394467D01*
X35317987Y-34422244D01*
X35257555Y-34412673D01*
X35214290Y-34369408D01*
X35203500Y-34324463D01*
X35203500Y-33491046D01*
X35203499Y-33491029D01*
X35188369Y-33356750D01*
X35188366Y-33356738D01*
X35164014Y-33287145D01*
X35128789Y-33186478D01*
X35032816Y-33033738D01*
X34905262Y-32906184D01*
X34905259Y-32906182D01*
X34905258Y-32906181D01*
X34815569Y-32849826D01*
X34776357Y-32802857D01*
X34772241Y-32741810D01*
X34804793Y-32690003D01*
X34815569Y-32682174D01*
X34829672Y-32673312D01*
X34905262Y-32625816D01*
X35032816Y-32498262D01*
X35128789Y-32345522D01*
X35188368Y-32175255D01*
X35189117Y-32168608D01*
X35203499Y-32040970D01*
X35203500Y-32040953D01*
X35203500Y-30951046D01*
X35203499Y-30951029D01*
X35188369Y-30816750D01*
X35188366Y-30816738D01*
X35155324Y-30722310D01*
X35128789Y-30646478D01*
X35117589Y-30628654D01*
X35032818Y-30493741D01*
X35032817Y-30493740D01*
X35032816Y-30493738D01*
X34905262Y-30366184D01*
X34905259Y-30366182D01*
X34905258Y-30366181D01*
X34815569Y-30309826D01*
X34776357Y-30262857D01*
X34772241Y-30201810D01*
X34804793Y-30150003D01*
X34815569Y-30142174D01*
X34829672Y-30133312D01*
X34905262Y-30085816D01*
X35032816Y-29958262D01*
X35128789Y-29805522D01*
X35188368Y-29635255D01*
X35188483Y-29634236D01*
X35203499Y-29500970D01*
X35203500Y-29500953D01*
X35203500Y-28411046D01*
X35203499Y-28411029D01*
X35188369Y-28276750D01*
X35188366Y-28276738D01*
X35137894Y-28132499D01*
X35128789Y-28106478D01*
X35095046Y-28052777D01*
X35032818Y-27953741D01*
X35032817Y-27953740D01*
X35032816Y-27953738D01*
X34905262Y-27826184D01*
X34905259Y-27826182D01*
X34905258Y-27826181D01*
X34752523Y-27730211D01*
X34582261Y-27670633D01*
X34582249Y-27670630D01*
X34445193Y-27655188D01*
X34445333Y-27653937D01*
X34392559Y-27633407D01*
X34385202Y-27626754D01*
X33527999Y-26769552D01*
X32670796Y-27626754D01*
X32616280Y-27654531D01*
X32610799Y-27655119D01*
X32610807Y-27655188D01*
X32473750Y-27670630D01*
X32473738Y-27670633D01*
X32303477Y-27730211D01*
X32303476Y-27730211D01*
X32150741Y-27826181D01*
X32023181Y-27953741D01*
X31927211Y-28106476D01*
X31927211Y-28106477D01*
X31867633Y-28276738D01*
X31867630Y-28276750D01*
X31852500Y-28411029D01*
X31852500Y-29500970D01*
X31867630Y-29635249D01*
X31867633Y-29635261D01*
X31927211Y-29805522D01*
X31927211Y-29805523D01*
X32020604Y-29954156D01*
X32023184Y-29958262D01*
X32150738Y-30085816D01*
X32150740Y-30085817D01*
X32150743Y-30085820D01*
X32240431Y-30142175D01*
X32279643Y-30189143D01*
X32283758Y-30250190D01*
X32251205Y-30301997D01*
X32240431Y-30309825D01*
X32150743Y-30366179D01*
X32023181Y-30493741D01*
X31927211Y-30646476D01*
X31927211Y-30646477D01*
X31867633Y-30816738D01*
X31867630Y-30816750D01*
X31852500Y-30951029D01*
X31852500Y-32040960D01*
X31852609Y-32042906D01*
X31852500Y-32043318D01*
X31852500Y-32043732D01*
X31852391Y-32043732D01*
X31836986Y-32102063D01*
X31789576Y-32140740D01*
X31779388Y-32144071D01*
X31775081Y-32145225D01*
X31687814Y-32168608D01*
X31687812Y-32168608D01*
X31687808Y-32168610D01*
X31573690Y-32234496D01*
X30902682Y-32905504D01*
X30848165Y-32933281D01*
X30832678Y-32934500D01*
X27194464Y-32934500D01*
X27136273Y-32915593D01*
X27100309Y-32866093D01*
X27097366Y-32854815D01*
X27095156Y-32843704D01*
X27089580Y-32815672D01*
X27065976Y-32758686D01*
X27036777Y-32688193D01*
X27036771Y-32688182D01*
X26960114Y-32573458D01*
X26862541Y-32475885D01*
X26747817Y-32399228D01*
X26747806Y-32399222D01*
X26620328Y-32346420D01*
X26484995Y-32319500D01*
X26484993Y-32319500D01*
X26347007Y-32319500D01*
X26347004Y-32319500D01*
X26211672Y-32346420D01*
X26211670Y-32346420D01*
X26084193Y-32399222D01*
X26084182Y-32399228D01*
X25969458Y-32475885D01*
X25871885Y-32573458D01*
X25795228Y-32688182D01*
X25795222Y-32688193D01*
X25742420Y-32815670D01*
X25742420Y-32815672D01*
X25715500Y-32951004D01*
X25715500Y-32951007D01*
X25715500Y-33088993D01*
X25740075Y-33212541D01*
X25742420Y-33224327D01*
X25742420Y-33224329D01*
X25795222Y-33351806D01*
X25795224Y-33351809D01*
X25795225Y-33351811D01*
X25797942Y-33355878D01*
X25815061Y-33381497D01*
X25818801Y-33394758D01*
X25826901Y-33405907D01*
X25826901Y-33423476D01*
X25831670Y-33440385D01*
X25826901Y-33453312D01*
X25826901Y-33467093D01*
X25816572Y-33481308D01*
X25810493Y-33497789D01*
X25799037Y-33505443D01*
X25790937Y-33516593D01*
X25774227Y-33522022D01*
X25759620Y-33531783D01*
X25732746Y-33535500D01*
X25648321Y-33535500D01*
X25590130Y-33516593D01*
X25578317Y-33506504D01*
X24859496Y-32787682D01*
X24831719Y-32733165D01*
X24830500Y-32717678D01*
X24830500Y-32697008D01*
X24830499Y-32697004D01*
X24803580Y-32561672D01*
X24777313Y-32498258D01*
X24750777Y-32434193D01*
X24750771Y-32434182D01*
X24674114Y-32319458D01*
X24576541Y-32221885D01*
X24461817Y-32145228D01*
X24461806Y-32145222D01*
X24334328Y-32092420D01*
X24198995Y-32065500D01*
X24198993Y-32065500D01*
X24061007Y-32065500D01*
X24061004Y-32065500D01*
X23925672Y-32092420D01*
X23925670Y-32092420D01*
X23798193Y-32145222D01*
X23798182Y-32145228D01*
X23683458Y-32221885D01*
X23585885Y-32319458D01*
X23509228Y-32434182D01*
X23509222Y-32434193D01*
X23456420Y-32561670D01*
X23456420Y-32561672D01*
X23429500Y-32697004D01*
X18635394Y-32697004D01*
X18639793Y-32690003D01*
X18648296Y-32683646D01*
X18649425Y-32682892D01*
X18740262Y-32625816D01*
X18867816Y-32498262D01*
X18963789Y-32345522D01*
X19023368Y-32175255D01*
X19024117Y-32168608D01*
X19038499Y-32040970D01*
X19038500Y-32040953D01*
X19038500Y-30951046D01*
X19038499Y-30951029D01*
X19023369Y-30816753D01*
X19023368Y-30816752D01*
X19023368Y-30816745D01*
X19017956Y-30801279D01*
X19422500Y-30801279D01*
X19422500Y-31426720D01*
X19437312Y-31539232D01*
X19437314Y-31539238D01*
X19484171Y-31652362D01*
X19495302Y-31679233D01*
X19587549Y-31799451D01*
X19707767Y-31891698D01*
X19847764Y-31949687D01*
X19960280Y-31964500D01*
X19960281Y-31964500D01*
X21985719Y-31964500D01*
X21985720Y-31964500D01*
X22098236Y-31949687D01*
X22238233Y-31891698D01*
X22358451Y-31799451D01*
X22450698Y-31679233D01*
X22508687Y-31539236D01*
X22523500Y-31426720D01*
X22523500Y-30801280D01*
X22508687Y-30688764D01*
X22450698Y-30548767D01*
X22374781Y-30449831D01*
X22374781Y-30449829D01*
X22358456Y-30428555D01*
X22358454Y-30428553D01*
X22358451Y-30428549D01*
X22312709Y-30393450D01*
X22997500Y-30393450D01*
X22997500Y-30574549D01*
X23025828Y-30753406D01*
X23081788Y-30925637D01*
X23140786Y-31041428D01*
X23164004Y-31086994D01*
X23270447Y-31233501D01*
X23398499Y-31361553D01*
X23545006Y-31467996D01*
X23706361Y-31550211D01*
X23878591Y-31606171D01*
X23950136Y-31617502D01*
X24057451Y-31634500D01*
X24057454Y-31634500D01*
X24238549Y-31634500D01*
X24327977Y-31620335D01*
X24417409Y-31606171D01*
X24589639Y-31550211D01*
X24750994Y-31467996D01*
X24897501Y-31361553D01*
X25025553Y-31233501D01*
X25131996Y-31086994D01*
X25214211Y-30925639D01*
X25270171Y-30753409D01*
X25287107Y-30646477D01*
X25298500Y-30574549D01*
X25298500Y-30393450D01*
X25537500Y-30393450D01*
X25537500Y-30574549D01*
X25565828Y-30753406D01*
X25621788Y-30925637D01*
X25680786Y-31041428D01*
X25704004Y-31086994D01*
X25810447Y-31233501D01*
X25938499Y-31361553D01*
X26085006Y-31467996D01*
X26246361Y-31550211D01*
X26418591Y-31606171D01*
X26490136Y-31617502D01*
X26597451Y-31634500D01*
X26597454Y-31634500D01*
X26778549Y-31634500D01*
X26867977Y-31620335D01*
X26957409Y-31606171D01*
X27129639Y-31550211D01*
X27290994Y-31467996D01*
X27437501Y-31361553D01*
X27565553Y-31233501D01*
X27671996Y-31086994D01*
X27754211Y-30925639D01*
X27810171Y-30753409D01*
X27827107Y-30646477D01*
X27838500Y-30574549D01*
X27838500Y-30393450D01*
X27817917Y-30263500D01*
X27810171Y-30214591D01*
X27754211Y-30042361D01*
X27671996Y-29881006D01*
X27565553Y-29734499D01*
X27437501Y-29606447D01*
X27290994Y-29500004D01*
X27290993Y-29500003D01*
X27290991Y-29500002D01*
X27129637Y-29417788D01*
X26957406Y-29361828D01*
X26778549Y-29333500D01*
X26778546Y-29333500D01*
X26597454Y-29333500D01*
X26597451Y-29333500D01*
X26418593Y-29361828D01*
X26246362Y-29417788D01*
X26085008Y-29500002D01*
X26011752Y-29553225D01*
X25938499Y-29606447D01*
X25810447Y-29734499D01*
X25765897Y-29795817D01*
X25704002Y-29881008D01*
X25621788Y-30042362D01*
X25565828Y-30214593D01*
X25537500Y-30393450D01*
X25298500Y-30393450D01*
X25277917Y-30263500D01*
X25270171Y-30214591D01*
X25214211Y-30042361D01*
X25131996Y-29881006D01*
X25025553Y-29734499D01*
X24897501Y-29606447D01*
X24750994Y-29500004D01*
X24750993Y-29500003D01*
X24750991Y-29500002D01*
X24589637Y-29417788D01*
X24417406Y-29361828D01*
X24238549Y-29333500D01*
X24238546Y-29333500D01*
X24057454Y-29333500D01*
X24057451Y-29333500D01*
X23878593Y-29361828D01*
X23706362Y-29417788D01*
X23545008Y-29500002D01*
X23471752Y-29553225D01*
X23398499Y-29606447D01*
X23270447Y-29734499D01*
X23225897Y-29795817D01*
X23164002Y-29881008D01*
X23081788Y-30042362D01*
X23025828Y-30214593D01*
X22997500Y-30393450D01*
X22312709Y-30393450D01*
X22238233Y-30336302D01*
X22098236Y-30278313D01*
X22098234Y-30278312D01*
X22098232Y-30278312D01*
X21985720Y-30263500D01*
X19960280Y-30263500D01*
X19960279Y-30263500D01*
X19847767Y-30278312D01*
X19847761Y-30278314D01*
X19707768Y-30336301D01*
X19587551Y-30428547D01*
X19587547Y-30428551D01*
X19495301Y-30548768D01*
X19437314Y-30688761D01*
X19437312Y-30688767D01*
X19422500Y-30801279D01*
X19017956Y-30801279D01*
X18990324Y-30722310D01*
X18963789Y-30646478D01*
X18952589Y-30628654D01*
X18867818Y-30493741D01*
X18867817Y-30493740D01*
X18867816Y-30493738D01*
X18740262Y-30366184D01*
X18740259Y-30366182D01*
X18740258Y-30366181D01*
X18650569Y-30309826D01*
X18611357Y-30262857D01*
X18607241Y-30201810D01*
X18639793Y-30150003D01*
X18650569Y-30142174D01*
X18664672Y-30133312D01*
X18740262Y-30085816D01*
X18867816Y-29958262D01*
X18963789Y-29805522D01*
X19023368Y-29635255D01*
X19023483Y-29634236D01*
X19038499Y-29500970D01*
X19038500Y-29500953D01*
X19038500Y-28896279D01*
X19422500Y-28896279D01*
X19422500Y-29521720D01*
X19436049Y-29624640D01*
X19437313Y-29634236D01*
X19451435Y-29668329D01*
X19478843Y-29734499D01*
X19495302Y-29774233D01*
X19587549Y-29894451D01*
X19707767Y-29986698D01*
X19847764Y-30044687D01*
X19960280Y-30059500D01*
X19960281Y-30059500D01*
X21985719Y-30059500D01*
X21985720Y-30059500D01*
X22098236Y-30044687D01*
X22238233Y-29986698D01*
X22358451Y-29894451D01*
X22450698Y-29774233D01*
X22508687Y-29634236D01*
X22523500Y-29521720D01*
X22523500Y-28896280D01*
X22508687Y-28783764D01*
X22450698Y-28643767D01*
X22358451Y-28523549D01*
X22238233Y-28431302D01*
X22098236Y-28373313D01*
X22098234Y-28373312D01*
X22098232Y-28373312D01*
X21985720Y-28358500D01*
X19960280Y-28358500D01*
X19960279Y-28358500D01*
X19847767Y-28373312D01*
X19847761Y-28373314D01*
X19707768Y-28431301D01*
X19587551Y-28523547D01*
X19587547Y-28523551D01*
X19495301Y-28643768D01*
X19437314Y-28783761D01*
X19437312Y-28783767D01*
X19422500Y-28896279D01*
X19038500Y-28896279D01*
X19038500Y-28411046D01*
X19038499Y-28411029D01*
X19023369Y-28276750D01*
X19023366Y-28276738D01*
X18972894Y-28132499D01*
X18963789Y-28106478D01*
X18963224Y-28105579D01*
X18961173Y-28102313D01*
X18946224Y-28042981D01*
X18969005Y-27986195D01*
X19020813Y-27953644D01*
X19081860Y-27957762D01*
X19107801Y-27973112D01*
X19111450Y-27976106D01*
X19111458Y-27976114D01*
X19168629Y-28014314D01*
X19226182Y-28052771D01*
X19226193Y-28052777D01*
X19273283Y-28072282D01*
X19353672Y-28105580D01*
X19489007Y-28132500D01*
X19489008Y-28132500D01*
X19626992Y-28132500D01*
X19626993Y-28132500D01*
X19762328Y-28105580D01*
X19889811Y-28052775D01*
X20004542Y-27976114D01*
X20102114Y-27878542D01*
X20118880Y-27853450D01*
X22997500Y-27853450D01*
X22997500Y-28034549D01*
X23025828Y-28213406D01*
X23081788Y-28385637D01*
X23139837Y-28499565D01*
X23164004Y-28546994D01*
X23270447Y-28693501D01*
X23398499Y-28821553D01*
X23545006Y-28927996D01*
X23706361Y-29010211D01*
X23878591Y-29066171D01*
X23950136Y-29077502D01*
X24057451Y-29094500D01*
X24057454Y-29094500D01*
X24238549Y-29094500D01*
X24327977Y-29080335D01*
X24417409Y-29066171D01*
X24589639Y-29010211D01*
X24750994Y-28927996D01*
X24897501Y-28821553D01*
X25025553Y-28693501D01*
X25131996Y-28546994D01*
X25214211Y-28385639D01*
X25270171Y-28213409D01*
X25287107Y-28106477D01*
X25298500Y-28034549D01*
X25298500Y-27853450D01*
X25537500Y-27853450D01*
X25537500Y-28034549D01*
X25565828Y-28213406D01*
X25621788Y-28385637D01*
X25679837Y-28499565D01*
X25704004Y-28546994D01*
X25810447Y-28693501D01*
X25938499Y-28821553D01*
X26085006Y-28927996D01*
X26246361Y-29010211D01*
X26418591Y-29066171D01*
X26490136Y-29077502D01*
X26597451Y-29094500D01*
X26597454Y-29094500D01*
X26778549Y-29094500D01*
X26867977Y-29080335D01*
X26957409Y-29066171D01*
X27129639Y-29010211D01*
X27290994Y-28927996D01*
X27437501Y-28821553D01*
X27565553Y-28693501D01*
X27671996Y-28546994D01*
X27754211Y-28385639D01*
X27810171Y-28213409D01*
X27827107Y-28106477D01*
X27838500Y-28034549D01*
X27838500Y-27853450D01*
X27816447Y-27714214D01*
X27810171Y-27674591D01*
X27754211Y-27502361D01*
X27671996Y-27341006D01*
X27565553Y-27194499D01*
X27437501Y-27066447D01*
X27290994Y-26960004D01*
X27290993Y-26960003D01*
X27290991Y-26960002D01*
X27129637Y-26877788D01*
X26957406Y-26821828D01*
X26778549Y-26793500D01*
X26778546Y-26793500D01*
X26597454Y-26793500D01*
X26597451Y-26793500D01*
X26418593Y-26821828D01*
X26246362Y-26877788D01*
X26085008Y-26960002D01*
X26065742Y-26974000D01*
X25938499Y-27066447D01*
X25810447Y-27194499D01*
X25783851Y-27231106D01*
X25704002Y-27341008D01*
X25621788Y-27502362D01*
X25565828Y-27674593D01*
X25537500Y-27853450D01*
X25298500Y-27853450D01*
X25276447Y-27714214D01*
X25270171Y-27674591D01*
X25214211Y-27502361D01*
X25131996Y-27341006D01*
X25025553Y-27194499D01*
X24897501Y-27066447D01*
X24750994Y-26960004D01*
X24750993Y-26960003D01*
X24750991Y-26960002D01*
X24589637Y-26877788D01*
X24417406Y-26821828D01*
X24238549Y-26793500D01*
X24238546Y-26793500D01*
X24057454Y-26793500D01*
X24057451Y-26793500D01*
X23878593Y-26821828D01*
X23706362Y-26877788D01*
X23545008Y-26960002D01*
X23525742Y-26974000D01*
X23398499Y-27066447D01*
X23270447Y-27194499D01*
X23243851Y-27231106D01*
X23164002Y-27341008D01*
X23081788Y-27502362D01*
X23025828Y-27674593D01*
X22997500Y-27853450D01*
X20118880Y-27853450D01*
X20178775Y-27763811D01*
X20231580Y-27636328D01*
X20258500Y-27500993D01*
X20258500Y-27480322D01*
X20277407Y-27422131D01*
X20287496Y-27410318D01*
X20752318Y-26945496D01*
X20806835Y-26917719D01*
X20822322Y-26916500D01*
X21058836Y-26916500D01*
X21117027Y-26935407D01*
X21128840Y-26945496D01*
X21143458Y-26960114D01*
X21258182Y-27036771D01*
X21258193Y-27036777D01*
X21305283Y-27056282D01*
X21385672Y-27089580D01*
X21521007Y-27116500D01*
X21521008Y-27116500D01*
X21658992Y-27116500D01*
X21658993Y-27116500D01*
X21794328Y-27089580D01*
X21921811Y-27036775D01*
X22036542Y-26960114D01*
X22134114Y-26862542D01*
X22210775Y-26747811D01*
X22263580Y-26620328D01*
X22290500Y-26484993D01*
X22290500Y-26347007D01*
X22263580Y-26211672D01*
X22239485Y-26153501D01*
X22210777Y-26084193D01*
X22210771Y-26084182D01*
X22134114Y-25969458D01*
X22036541Y-25871885D01*
X21921817Y-25795228D01*
X21921806Y-25795222D01*
X21794328Y-25742420D01*
X21658995Y-25715500D01*
X21658993Y-25715500D01*
X21521007Y-25715500D01*
X21521004Y-25715500D01*
X21385672Y-25742420D01*
X21385670Y-25742420D01*
X21258193Y-25795222D01*
X21258182Y-25795228D01*
X21143458Y-25871885D01*
X21143454Y-25871889D01*
X21128840Y-25886504D01*
X21074323Y-25914281D01*
X21058836Y-25915500D01*
X20639892Y-25915500D01*
X20508108Y-25915500D01*
X20430200Y-25936375D01*
X20380809Y-25949609D01*
X20266690Y-26015496D01*
X19579682Y-26702504D01*
X19525165Y-26730281D01*
X19509678Y-26731500D01*
X19489004Y-26731500D01*
X19353672Y-26758420D01*
X19353670Y-26758420D01*
X19226193Y-26811222D01*
X19226184Y-26811227D01*
X19192501Y-26833734D01*
X19133613Y-26850342D01*
X19076210Y-26829164D01*
X19042217Y-26778291D01*
X19038500Y-26751418D01*
X19038500Y-25871046D01*
X19038499Y-25871029D01*
X19023369Y-25736750D01*
X19023366Y-25736738D01*
X18999014Y-25667145D01*
X18963789Y-25566478D01*
X18949123Y-25543138D01*
X18867818Y-25413741D01*
X18867817Y-25413740D01*
X18867816Y-25413738D01*
X18767528Y-25313450D01*
X22997500Y-25313450D01*
X22997500Y-25494549D01*
X23025828Y-25673406D01*
X23081788Y-25845637D01*
X23148718Y-25976995D01*
X23164004Y-26006994D01*
X23270447Y-26153501D01*
X23398499Y-26281553D01*
X23545006Y-26387996D01*
X23706361Y-26470211D01*
X23878591Y-26526171D01*
X23950136Y-26537502D01*
X24057451Y-26554500D01*
X24057454Y-26554500D01*
X24238549Y-26554500D01*
X24327977Y-26540335D01*
X24417409Y-26526171D01*
X24589639Y-26470211D01*
X24750994Y-26387996D01*
X24897501Y-26281553D01*
X25025553Y-26153501D01*
X25131996Y-26006994D01*
X25214211Y-25845639D01*
X25270171Y-25673409D01*
X25287107Y-25566477D01*
X25298500Y-25494549D01*
X25298500Y-25313450D01*
X25537500Y-25313450D01*
X25537500Y-25494549D01*
X25565828Y-25673406D01*
X25621788Y-25845637D01*
X25688718Y-25976995D01*
X25704004Y-26006994D01*
X25810447Y-26153501D01*
X25938499Y-26281553D01*
X26085006Y-26387996D01*
X26246361Y-26470211D01*
X26418591Y-26526171D01*
X26490136Y-26537502D01*
X26597451Y-26554500D01*
X26597454Y-26554500D01*
X26778549Y-26554500D01*
X26867977Y-26540335D01*
X26957409Y-26526171D01*
X27129639Y-26470211D01*
X27290994Y-26387996D01*
X27437501Y-26281553D01*
X27565553Y-26153501D01*
X27671996Y-26006994D01*
X27747913Y-25857999D01*
X31653000Y-25857999D01*
X31653000Y-26974000D01*
X31663609Y-27093332D01*
X31719557Y-27288861D01*
X31813721Y-27469129D01*
X31942244Y-27626749D01*
X31942256Y-27626761D01*
X31954060Y-27636385D01*
X33174446Y-26415999D01*
X31954060Y-25195613D01*
X31942253Y-25205241D01*
X31942238Y-25205256D01*
X31813723Y-25362867D01*
X31813722Y-25362868D01*
X31719557Y-25543138D01*
X31663609Y-25738667D01*
X31653000Y-25857999D01*
X27747913Y-25857999D01*
X27754211Y-25845639D01*
X27810171Y-25673409D01*
X27827107Y-25566477D01*
X27838500Y-25494549D01*
X27838500Y-25313450D01*
X27818169Y-25185089D01*
X27810171Y-25134591D01*
X27754211Y-24962361D01*
X27671996Y-24801006D01*
X27565553Y-24654499D01*
X27437501Y-24526447D01*
X27290994Y-24420004D01*
X27290993Y-24420003D01*
X27290991Y-24420002D01*
X27129637Y-24337788D01*
X26957406Y-24281828D01*
X26778549Y-24253500D01*
X26778546Y-24253500D01*
X26597454Y-24253500D01*
X26597451Y-24253500D01*
X26418593Y-24281828D01*
X26246362Y-24337788D01*
X26085008Y-24420002D01*
X26011752Y-24473225D01*
X25938499Y-24526447D01*
X25810447Y-24654499D01*
X25758846Y-24725522D01*
X25704002Y-24801008D01*
X25621788Y-24962362D01*
X25565828Y-25134593D01*
X25537500Y-25313450D01*
X25298500Y-25313450D01*
X25278169Y-25185089D01*
X25270171Y-25134591D01*
X25214211Y-24962361D01*
X25131996Y-24801006D01*
X25025553Y-24654499D01*
X24897501Y-24526447D01*
X24750994Y-24420004D01*
X24750993Y-24420003D01*
X24750991Y-24420002D01*
X24589637Y-24337788D01*
X24417406Y-24281828D01*
X24238549Y-24253500D01*
X24238546Y-24253500D01*
X24057454Y-24253500D01*
X24057451Y-24253500D01*
X23878593Y-24281828D01*
X23706362Y-24337788D01*
X23545008Y-24420002D01*
X23471752Y-24473225D01*
X23398499Y-24526447D01*
X23270447Y-24654499D01*
X23218846Y-24725522D01*
X23164002Y-24801008D01*
X23081788Y-24962362D01*
X23025828Y-25134593D01*
X22997500Y-25313450D01*
X18767528Y-25313450D01*
X18740262Y-25286184D01*
X18740259Y-25286182D01*
X18740258Y-25286181D01*
X18650569Y-25229826D01*
X18611357Y-25182857D01*
X18607241Y-25121810D01*
X18639793Y-25070003D01*
X18650569Y-25062174D01*
X18664672Y-25053312D01*
X18740262Y-25005816D01*
X18867816Y-24878262D01*
X18963789Y-24725522D01*
X19023368Y-24555255D01*
X19031682Y-24481468D01*
X19038499Y-24420970D01*
X19038500Y-24420953D01*
X19038500Y-23331046D01*
X19038499Y-23331029D01*
X19023369Y-23196750D01*
X19023366Y-23196738D01*
X18964047Y-23027216D01*
X18963789Y-23026478D01*
X18867816Y-22873738D01*
X18767528Y-22773450D01*
X22997500Y-22773450D01*
X22997500Y-22954549D01*
X23025828Y-23133406D01*
X23081788Y-23305637D01*
X23123586Y-23387671D01*
X23164004Y-23466994D01*
X23270447Y-23613501D01*
X23398499Y-23741553D01*
X23545006Y-23847996D01*
X23706361Y-23930211D01*
X23878591Y-23986171D01*
X23950136Y-23997502D01*
X24057451Y-24014500D01*
X24057454Y-24014500D01*
X24238549Y-24014500D01*
X24327977Y-24000335D01*
X24417409Y-23986171D01*
X24589639Y-23930211D01*
X24750994Y-23847996D01*
X24897501Y-23741553D01*
X25025553Y-23613501D01*
X25131996Y-23466994D01*
X25214211Y-23305639D01*
X25270171Y-23133409D01*
X25287107Y-23026477D01*
X25298500Y-22954549D01*
X25298500Y-22773450D01*
X25537500Y-22773450D01*
X25537500Y-22954549D01*
X25565828Y-23133406D01*
X25621788Y-23305637D01*
X25663586Y-23387671D01*
X25704004Y-23466994D01*
X25810447Y-23613501D01*
X25938499Y-23741553D01*
X26085006Y-23847996D01*
X26246361Y-23930211D01*
X26418591Y-23986171D01*
X26490136Y-23997502D01*
X26597451Y-24014500D01*
X26597454Y-24014500D01*
X26778549Y-24014500D01*
X26867977Y-24000335D01*
X26957409Y-23986171D01*
X27129639Y-23930211D01*
X27290994Y-23847996D01*
X27437501Y-23741553D01*
X27565553Y-23613501D01*
X27671996Y-23466994D01*
X27754211Y-23305639D01*
X27810171Y-23133409D01*
X27827107Y-23026477D01*
X27838500Y-22954549D01*
X27838500Y-22773450D01*
X27810171Y-22594593D01*
X27810171Y-22594591D01*
X27754211Y-22422361D01*
X27671996Y-22261006D01*
X27565553Y-22114499D01*
X27437501Y-21986447D01*
X27290994Y-21880004D01*
X27290993Y-21880003D01*
X27290991Y-21880002D01*
X27129637Y-21797788D01*
X26957406Y-21741828D01*
X26778549Y-21713500D01*
X26778546Y-21713500D01*
X26597454Y-21713500D01*
X26597451Y-21713500D01*
X26418593Y-21741828D01*
X26246362Y-21797788D01*
X26085008Y-21880002D01*
X26011752Y-21933225D01*
X25938499Y-21986447D01*
X25810447Y-22114499D01*
X25766527Y-22174950D01*
X25704002Y-22261008D01*
X25621788Y-22422362D01*
X25565828Y-22594593D01*
X25537500Y-22773450D01*
X25298500Y-22773450D01*
X25270171Y-22594593D01*
X25270171Y-22594591D01*
X25214211Y-22422361D01*
X25131996Y-22261006D01*
X25025553Y-22114499D01*
X24897501Y-21986447D01*
X24750994Y-21880004D01*
X24750993Y-21880003D01*
X24750991Y-21880002D01*
X24589637Y-21797788D01*
X24417406Y-21741828D01*
X24238549Y-21713500D01*
X24238546Y-21713500D01*
X24057454Y-21713500D01*
X24057451Y-21713500D01*
X23878593Y-21741828D01*
X23706362Y-21797788D01*
X23545008Y-21880002D01*
X23471752Y-21933225D01*
X23398499Y-21986447D01*
X23270447Y-22114499D01*
X23226527Y-22174950D01*
X23164002Y-22261008D01*
X23081788Y-22422362D01*
X23025828Y-22594593D01*
X22997500Y-22773450D01*
X18767528Y-22773450D01*
X18740262Y-22746184D01*
X18740259Y-22746182D01*
X18740258Y-22746181D01*
X18587523Y-22650211D01*
X18417261Y-22590633D01*
X18417249Y-22590630D01*
X18282970Y-22575500D01*
X18282954Y-22575500D01*
X16443046Y-22575500D01*
X16443029Y-22575500D01*
X16308750Y-22590630D01*
X16308738Y-22590633D01*
X16138477Y-22650211D01*
X16138476Y-22650211D01*
X15985741Y-22746181D01*
X15985738Y-22746183D01*
X15985738Y-22746184D01*
X15935501Y-22796420D01*
X15880987Y-22824196D01*
X15820555Y-22814625D01*
X15777290Y-22771360D01*
X15766500Y-22726415D01*
X15766500Y-20927500D01*
X15785407Y-20869309D01*
X15834907Y-20833345D01*
X15865500Y-20828500D01*
X38822278Y-20828500D01*
X38880469Y-20847407D01*
G37*
%TD.AperFunction*%
%TD*%
M02*
