%TF.GenerationSoftware,KiCad,Pcbnew,9.0.1*%
%TF.CreationDate,2025-04-11T12:26:54-04:00*%
%TF.ProjectId,Pneumatactors_1Xiao_CompactControl_Battery,506e6575-6d61-4746-9163-746f72735f31,rev?*%
%TF.SameCoordinates,Original*%
%TF.FileFunction,Soldermask,Top*%
%TF.FilePolarity,Negative*%
%FSLAX46Y46*%
G04 Gerber Fmt 4.6, Leading zero omitted, Abs format (unit mm)*
G04 Created by KiCad (PCBNEW 9.0.1) date 2025-04-11 12:26:54*
%MOMM*%
%LPD*%
G01*
G04 APERTURE LIST*
G04 Aperture macros list*
%AMRoundRect*
0 Rectangle with rounded corners*
0 $1 Rounding radius*
0 $2 $3 $4 $5 $6 $7 $8 $9 X,Y pos of 4 corners*
0 Add a 4 corners polygon primitive as box body*
4,1,4,$2,$3,$4,$5,$6,$7,$8,$9,$2,$3,0*
0 Add four circle primitives for the rounded corners*
1,1,$1+$1,$2,$3*
1,1,$1+$1,$4,$5*
1,1,$1+$1,$6,$7*
1,1,$1+$1,$8,$9*
0 Add four rect primitives between the rounded corners*
20,1,$1+$1,$2,$3,$4,$5,0*
20,1,$1+$1,$4,$5,$6,$7,0*
20,1,$1+$1,$6,$7,$8,$9,0*
20,1,$1+$1,$8,$9,$2,$3,0*%
G04 Aperture macros list end*
%ADD10RoundRect,0.150000X-0.587500X-0.150000X0.587500X-0.150000X0.587500X0.150000X-0.587500X0.150000X0*%
%ADD11C,1.600200*%
%ADD12RoundRect,0.250000X-0.300000X-0.300000X0.300000X-0.300000X0.300000X0.300000X-0.300000X0.300000X0*%
%ADD13RoundRect,0.250000X-0.625000X0.400000X-0.625000X-0.400000X0.625000X-0.400000X0.625000X0.400000X0*%
%ADD14RoundRect,0.250000X-0.400000X-0.625000X0.400000X-0.625000X0.400000X0.625000X-0.400000X0.625000X0*%
%ADD15RoundRect,0.250000X-0.300000X0.300000X-0.300000X-0.300000X0.300000X-0.300000X0.300000X0.300000X0*%
%ADD16RoundRect,0.525400X-0.900400X-0.525400X0.900400X-0.525400X0.900400X0.525400X-0.900400X0.525400X0*%
%ADD17RoundRect,0.300400X1.000400X0.300400X-1.000400X0.300400X-1.000400X-0.300400X1.000400X-0.300400X0*%
%ADD18C,1.700000*%
G04 APERTURE END LIST*
D10*
%TO.C,Q3*%
X39702500Y-38928000D03*
X39702500Y-40828000D03*
X41577500Y-39878000D03*
%TD*%
D11*
%TO.C,U1*%
X47262000Y-31299150D03*
X49802000Y-31299150D03*
X52342000Y-31299150D03*
X52342000Y-26250900D03*
X47262000Y-26250900D03*
%TD*%
D12*
%TO.C,D4*%
X39240000Y-36830000D03*
X42040000Y-36830000D03*
%TD*%
D13*
%TO.C,R6*%
X36830000Y-37312000D03*
X36830000Y-40412000D03*
%TD*%
D14*
%TO.C,R3*%
X40106000Y-30734000D03*
X43206000Y-30734000D03*
%TD*%
D15*
%TO.C,D1*%
X36594000Y-28068000D03*
X36594000Y-30868000D03*
%TD*%
D16*
%TO.C,U2*%
X17363000Y-23876000D03*
X17363000Y-26416000D03*
X17363000Y-28956000D03*
X17363000Y-31496000D03*
X17363000Y-34036000D03*
X17363000Y-36576000D03*
X17363000Y-39116000D03*
X33528000Y-39116000D03*
X33528000Y-36576000D03*
X33528000Y-34036000D03*
X33528000Y-31496000D03*
X33528000Y-28956000D03*
X33528000Y-26416000D03*
X33528000Y-23876000D03*
D17*
X20973000Y-31114000D03*
X20973000Y-29209000D03*
D18*
X24148000Y-22864000D03*
X26688000Y-22864000D03*
X24148000Y-25404000D03*
X26688000Y-25404000D03*
X24148000Y-27944000D03*
X26688000Y-27944000D03*
X24148000Y-30484000D03*
X26688000Y-30484000D03*
%TD*%
%TO.C,U3*%
X36848000Y-22265500D03*
X39388000Y-22265500D03*
X41928000Y-22265500D03*
%TD*%
M02*
