M48
; DRILL file {KiCad 9.0.1} date 2025-04-11T12:26:48-0400
; FORMAT={-:-/ absolute / inch / decimal}
; #@! TF.CreationDate,2025-04-11T12:26:48-04:00
; #@! TF.GenerationSoftware,Kicad,Pcbnew,9.0.1
; #@! TF.FileFunction,Plated,1,2,PTH
FMAT,2
INCH
; #@! TA.AperFunction,Plated,PTH,ViaDrill
T1C0.0157
; #@! TA.AperFunction,Plated,PTH,ComponentDrill
T2C0.0394
; #@! TA.AperFunction,Plated,PTH,ComponentDrill
T3C0.0430
%
G90
G05
T1
X0.73Y-0.86
X0.77Y-1.08
X0.77Y-1.47
X0.77Y-1.6
X0.83Y-1.56
X0.85Y-1.04
X0.88Y-0.86
X0.91Y-1.33
X0.94Y-1.41
X0.95Y-1.29
X1.0Y-0.96
X1.04Y-1.3
X1.05Y-1.41
X1.11Y-1.49
X1.14Y-1.59
X1.15Y-0.87
X1.16Y-1.08
X1.18Y-1.2
X1.19Y-0.96
X1.23Y-1.57
X1.29Y-0.85
X1.41Y-1.32
X1.42Y-1.42
X1.44Y-1.16
X1.45Y-1.469
X1.46Y-1.02
X1.48Y-1.25
X1.48Y-1.42
X1.55Y-1.09
X1.61Y-0.99
X1.65Y-1.38
X1.7Y-1.04
X1.7Y-1.3
X1.76Y-1.61
X1.79Y-1.2
X1.81Y-1.32
X1.83Y-1.16
X1.94Y-1.63
X1.96Y-1.03
X2.08Y-1.15
X2.13Y-1.21
X2.13Y-1.51
T2
X1.4507Y-0.8766
X1.5507Y-0.8766
X1.6507Y-0.8766
T3
X1.8607Y-1.0335
X1.8607Y-1.2323
X1.9607Y-1.2323
X2.0607Y-1.0335
X2.0607Y-1.2323
M30
