%TF.GenerationSoftware,KiCad,Pcbnew,9.0.1*%
%TF.CreationDate,2025-06-09T02:27:10-04:00*%
%TF.ProjectId,Pneumatactors_1Xiao_3PiezoPumps_6Valves_TwoPiece,506e6575-6d61-4746-9163-746f72735f31,rev?*%
%TF.SameCoordinates,Original*%
%TF.FileFunction,Legend,Bot*%
%TF.FilePolarity,Positive*%
%FSLAX46Y46*%
G04 Gerber Fmt 4.6, Leading zero omitted, Abs format (unit mm)*
G04 Created by KiCad (PCBNEW 9.0.1) date 2025-06-09 02:27:10*
%MOMM*%
%LPD*%
G01*
G04 APERTURE LIST*
%ADD10C,0.150000*%
%ADD11C,0.508000*%
G04 APERTURE END LIST*
D10*
X230755696Y-57899170D02*
X230850935Y-57851551D01*
X230850935Y-57851551D02*
X231041411Y-57851551D01*
X231041411Y-57851551D02*
X231136649Y-57899170D01*
X231136649Y-57899170D02*
X231231887Y-57994408D01*
X231231887Y-57994408D02*
X231279506Y-58089646D01*
X231279506Y-58089646D02*
X231279506Y-58280122D01*
X231279506Y-58280122D02*
X231231887Y-58375360D01*
X231231887Y-58375360D02*
X231136649Y-58470598D01*
X231136649Y-58470598D02*
X231041411Y-58518217D01*
X231041411Y-58518217D02*
X230850935Y-58518217D01*
X230850935Y-58518217D02*
X230755696Y-58470598D01*
X230946173Y-57518217D02*
X231184268Y-57565836D01*
X231184268Y-57565836D02*
X231422363Y-57708694D01*
X231422363Y-57708694D02*
X231565220Y-57946789D01*
X231565220Y-57946789D02*
X231612839Y-58184884D01*
X231612839Y-58184884D02*
X231565220Y-58422979D01*
X231565220Y-58422979D02*
X231422363Y-58661075D01*
X231422363Y-58661075D02*
X231184268Y-58803932D01*
X231184268Y-58803932D02*
X230946173Y-58851551D01*
X230946173Y-58851551D02*
X230708077Y-58803932D01*
X230708077Y-58803932D02*
X230469982Y-58661075D01*
X230469982Y-58661075D02*
X230327125Y-58422979D01*
X230327125Y-58422979D02*
X230279506Y-58184884D01*
X230279506Y-58184884D02*
X230327125Y-57946789D01*
X230327125Y-57946789D02*
X230469982Y-57708694D01*
X230469982Y-57708694D02*
X230708077Y-57565836D01*
X230708077Y-57565836D02*
X230946173Y-57518217D01*
X229136648Y-58375360D02*
X228660458Y-58375360D01*
X229231886Y-58661075D02*
X228898553Y-57661075D01*
X228898553Y-57661075D02*
X228565220Y-58661075D01*
X228231886Y-57994408D02*
X228231886Y-58661075D01*
X228231886Y-58089646D02*
X228184267Y-58042027D01*
X228184267Y-58042027D02*
X228089029Y-57994408D01*
X228089029Y-57994408D02*
X227946172Y-57994408D01*
X227946172Y-57994408D02*
X227850934Y-58042027D01*
X227850934Y-58042027D02*
X227803315Y-58137265D01*
X227803315Y-58137265D02*
X227803315Y-58661075D01*
X227422362Y-57994408D02*
X227231886Y-58661075D01*
X227231886Y-58661075D02*
X227041410Y-58184884D01*
X227041410Y-58184884D02*
X226850934Y-58661075D01*
X226850934Y-58661075D02*
X226660458Y-57994408D01*
X225850934Y-58661075D02*
X225850934Y-58137265D01*
X225850934Y-58137265D02*
X225898553Y-58042027D01*
X225898553Y-58042027D02*
X225993791Y-57994408D01*
X225993791Y-57994408D02*
X226184267Y-57994408D01*
X226184267Y-57994408D02*
X226279505Y-58042027D01*
X225850934Y-58613456D02*
X225946172Y-58661075D01*
X225946172Y-58661075D02*
X226184267Y-58661075D01*
X226184267Y-58661075D02*
X226279505Y-58613456D01*
X226279505Y-58613456D02*
X226327124Y-58518217D01*
X226327124Y-58518217D02*
X226327124Y-58422979D01*
X226327124Y-58422979D02*
X226279505Y-58327741D01*
X226279505Y-58327741D02*
X226184267Y-58280122D01*
X226184267Y-58280122D02*
X225946172Y-58280122D01*
X225946172Y-58280122D02*
X225850934Y-58232503D01*
X225469981Y-57994408D02*
X225231886Y-58661075D01*
X224993791Y-57994408D02*
X225231886Y-58661075D01*
X225231886Y-58661075D02*
X225327124Y-58899170D01*
X225327124Y-58899170D02*
X225374743Y-58946789D01*
X225374743Y-58946789D02*
X225469981Y-58994408D01*
X223850933Y-58661075D02*
X223850933Y-57661075D01*
X223850933Y-57661075D02*
X223469981Y-57661075D01*
X223469981Y-57661075D02*
X223374743Y-57708694D01*
X223374743Y-57708694D02*
X223327124Y-57756313D01*
X223327124Y-57756313D02*
X223279505Y-57851551D01*
X223279505Y-57851551D02*
X223279505Y-57994408D01*
X223279505Y-57994408D02*
X223327124Y-58089646D01*
X223327124Y-58089646D02*
X223374743Y-58137265D01*
X223374743Y-58137265D02*
X223469981Y-58184884D01*
X223469981Y-58184884D02*
X223850933Y-58184884D01*
X222850933Y-58661075D02*
X222850933Y-57994408D01*
X222850933Y-57661075D02*
X222898552Y-57708694D01*
X222898552Y-57708694D02*
X222850933Y-57756313D01*
X222850933Y-57756313D02*
X222803314Y-57708694D01*
X222803314Y-57708694D02*
X222850933Y-57661075D01*
X222850933Y-57661075D02*
X222850933Y-57756313D01*
X222374743Y-58661075D02*
X222374743Y-57994408D01*
X222374743Y-58089646D02*
X222327124Y-58042027D01*
X222327124Y-58042027D02*
X222231886Y-57994408D01*
X222231886Y-57994408D02*
X222089029Y-57994408D01*
X222089029Y-57994408D02*
X221993791Y-58042027D01*
X221993791Y-58042027D02*
X221946172Y-58137265D01*
X221946172Y-58137265D02*
X221946172Y-58661075D01*
X221946172Y-58137265D02*
X221898553Y-58042027D01*
X221898553Y-58042027D02*
X221803315Y-57994408D01*
X221803315Y-57994408D02*
X221660458Y-57994408D01*
X221660458Y-57994408D02*
X221565219Y-58042027D01*
X221565219Y-58042027D02*
X221517600Y-58137265D01*
X221517600Y-58137265D02*
X221517600Y-58661075D01*
X221041410Y-57994408D02*
X221041410Y-58994408D01*
X221041410Y-58042027D02*
X220946172Y-57994408D01*
X220946172Y-57994408D02*
X220755696Y-57994408D01*
X220755696Y-57994408D02*
X220660458Y-58042027D01*
X220660458Y-58042027D02*
X220612839Y-58089646D01*
X220612839Y-58089646D02*
X220565220Y-58184884D01*
X220565220Y-58184884D02*
X220565220Y-58470598D01*
X220565220Y-58470598D02*
X220612839Y-58565836D01*
X220612839Y-58565836D02*
X220660458Y-58613456D01*
X220660458Y-58613456D02*
X220755696Y-58661075D01*
X220755696Y-58661075D02*
X220946172Y-58661075D01*
X220946172Y-58661075D02*
X221041410Y-58613456D01*
X219708077Y-58661075D02*
X219708077Y-58137265D01*
X219708077Y-58137265D02*
X219755696Y-58042027D01*
X219755696Y-58042027D02*
X219850934Y-57994408D01*
X219850934Y-57994408D02*
X220041410Y-57994408D01*
X220041410Y-57994408D02*
X220136648Y-58042027D01*
X219708077Y-58613456D02*
X219803315Y-58661075D01*
X219803315Y-58661075D02*
X220041410Y-58661075D01*
X220041410Y-58661075D02*
X220136648Y-58613456D01*
X220136648Y-58613456D02*
X220184267Y-58518217D01*
X220184267Y-58518217D02*
X220184267Y-58422979D01*
X220184267Y-58422979D02*
X220136648Y-58327741D01*
X220136648Y-58327741D02*
X220041410Y-58280122D01*
X220041410Y-58280122D02*
X219803315Y-58280122D01*
X219803315Y-58280122D02*
X219708077Y-58232503D01*
X219089029Y-58661075D02*
X219184267Y-58613456D01*
X219184267Y-58613456D02*
X219231886Y-58518217D01*
X219231886Y-58518217D02*
X219231886Y-57661075D01*
X218708076Y-58661075D02*
X218708076Y-57661075D01*
X218612838Y-58280122D02*
X218327124Y-58661075D01*
X218327124Y-57994408D02*
X218708076Y-58375360D01*
X217469981Y-58661075D02*
X217469981Y-58137265D01*
X217469981Y-58137265D02*
X217517600Y-58042027D01*
X217517600Y-58042027D02*
X217612838Y-57994408D01*
X217612838Y-57994408D02*
X217803314Y-57994408D01*
X217803314Y-57994408D02*
X217898552Y-58042027D01*
X217469981Y-58613456D02*
X217565219Y-58661075D01*
X217565219Y-58661075D02*
X217803314Y-58661075D01*
X217803314Y-58661075D02*
X217898552Y-58613456D01*
X217898552Y-58613456D02*
X217946171Y-58518217D01*
X217946171Y-58518217D02*
X217946171Y-58422979D01*
X217946171Y-58422979D02*
X217898552Y-58327741D01*
X217898552Y-58327741D02*
X217803314Y-58280122D01*
X217803314Y-58280122D02*
X217565219Y-58280122D01*
X217565219Y-58280122D02*
X217469981Y-58232503D01*
X216993790Y-58661075D02*
X216993790Y-57994408D01*
X216993790Y-58184884D02*
X216946171Y-58089646D01*
X216946171Y-58089646D02*
X216898552Y-58042027D01*
X216898552Y-58042027D02*
X216803314Y-57994408D01*
X216803314Y-57994408D02*
X216708076Y-57994408D01*
X229279505Y-60271019D02*
X229279505Y-59271019D01*
X229279505Y-59747209D02*
X228708077Y-59747209D01*
X228708077Y-60271019D02*
X228708077Y-59271019D01*
X228279505Y-59985304D02*
X227803315Y-59985304D01*
X228374743Y-60271019D02*
X228041410Y-59271019D01*
X228041410Y-59271019D02*
X227708077Y-60271019D01*
X227374743Y-60271019D02*
X227374743Y-59271019D01*
X227374743Y-59271019D02*
X227041410Y-59985304D01*
X227041410Y-59985304D02*
X226708077Y-59271019D01*
X226708077Y-59271019D02*
X226708077Y-60271019D01*
X225660458Y-60271019D02*
X225993791Y-59794828D01*
X226231886Y-60271019D02*
X226231886Y-59271019D01*
X226231886Y-59271019D02*
X225850934Y-59271019D01*
X225850934Y-59271019D02*
X225755696Y-59318638D01*
X225755696Y-59318638D02*
X225708077Y-59366257D01*
X225708077Y-59366257D02*
X225660458Y-59461495D01*
X225660458Y-59461495D02*
X225660458Y-59604352D01*
X225660458Y-59604352D02*
X225708077Y-59699590D01*
X225708077Y-59699590D02*
X225755696Y-59747209D01*
X225755696Y-59747209D02*
X225850934Y-59794828D01*
X225850934Y-59794828D02*
X226231886Y-59794828D01*
X223993791Y-60271019D02*
X224469981Y-60271019D01*
X224469981Y-60271019D02*
X224469981Y-59271019D01*
X223231886Y-60271019D02*
X223231886Y-59747209D01*
X223231886Y-59747209D02*
X223279505Y-59651971D01*
X223279505Y-59651971D02*
X223374743Y-59604352D01*
X223374743Y-59604352D02*
X223565219Y-59604352D01*
X223565219Y-59604352D02*
X223660457Y-59651971D01*
X223231886Y-60223400D02*
X223327124Y-60271019D01*
X223327124Y-60271019D02*
X223565219Y-60271019D01*
X223565219Y-60271019D02*
X223660457Y-60223400D01*
X223660457Y-60223400D02*
X223708076Y-60128161D01*
X223708076Y-60128161D02*
X223708076Y-60032923D01*
X223708076Y-60032923D02*
X223660457Y-59937685D01*
X223660457Y-59937685D02*
X223565219Y-59890066D01*
X223565219Y-59890066D02*
X223327124Y-59890066D01*
X223327124Y-59890066D02*
X223231886Y-59842447D01*
X222755695Y-60271019D02*
X222755695Y-59271019D01*
X222755695Y-59651971D02*
X222660457Y-59604352D01*
X222660457Y-59604352D02*
X222469981Y-59604352D01*
X222469981Y-59604352D02*
X222374743Y-59651971D01*
X222374743Y-59651971D02*
X222327124Y-59699590D01*
X222327124Y-59699590D02*
X222279505Y-59794828D01*
X222279505Y-59794828D02*
X222279505Y-60080542D01*
X222279505Y-60080542D02*
X222327124Y-60175780D01*
X222327124Y-60175780D02*
X222374743Y-60223400D01*
X222374743Y-60223400D02*
X222469981Y-60271019D01*
X222469981Y-60271019D02*
X222660457Y-60271019D01*
X222660457Y-60271019D02*
X222755695Y-60223400D01*
X221803314Y-60223400D02*
X221803314Y-60271019D01*
X221803314Y-60271019D02*
X221850933Y-60366257D01*
X221850933Y-60366257D02*
X221898552Y-60413876D01*
X220327124Y-59271019D02*
X220327124Y-59985304D01*
X220327124Y-59985304D02*
X220374743Y-60128161D01*
X220374743Y-60128161D02*
X220469981Y-60223400D01*
X220469981Y-60223400D02*
X220612838Y-60271019D01*
X220612838Y-60271019D02*
X220708076Y-60271019D01*
X219708076Y-60271019D02*
X219803314Y-60223400D01*
X219803314Y-60223400D02*
X219850933Y-60175780D01*
X219850933Y-60175780D02*
X219898552Y-60080542D01*
X219898552Y-60080542D02*
X219898552Y-59794828D01*
X219898552Y-59794828D02*
X219850933Y-59699590D01*
X219850933Y-59699590D02*
X219803314Y-59651971D01*
X219803314Y-59651971D02*
X219708076Y-59604352D01*
X219708076Y-59604352D02*
X219565219Y-59604352D01*
X219565219Y-59604352D02*
X219469981Y-59651971D01*
X219469981Y-59651971D02*
X219422362Y-59699590D01*
X219422362Y-59699590D02*
X219374743Y-59794828D01*
X219374743Y-59794828D02*
X219374743Y-60080542D01*
X219374743Y-60080542D02*
X219422362Y-60175780D01*
X219422362Y-60175780D02*
X219469981Y-60223400D01*
X219469981Y-60223400D02*
X219565219Y-60271019D01*
X219565219Y-60271019D02*
X219708076Y-60271019D01*
X218946171Y-60271019D02*
X218946171Y-59271019D01*
X218517600Y-60271019D02*
X218517600Y-59747209D01*
X218517600Y-59747209D02*
X218565219Y-59651971D01*
X218565219Y-59651971D02*
X218660457Y-59604352D01*
X218660457Y-59604352D02*
X218803314Y-59604352D01*
X218803314Y-59604352D02*
X218898552Y-59651971D01*
X218898552Y-59651971D02*
X218946171Y-59699590D01*
X218041409Y-59604352D02*
X218041409Y-60271019D01*
X218041409Y-59699590D02*
X217993790Y-59651971D01*
X217993790Y-59651971D02*
X217898552Y-59604352D01*
X217898552Y-59604352D02*
X217755695Y-59604352D01*
X217755695Y-59604352D02*
X217660457Y-59651971D01*
X217660457Y-59651971D02*
X217612838Y-59747209D01*
X217612838Y-59747209D02*
X217612838Y-60271019D01*
X217184266Y-60223400D02*
X217089028Y-60271019D01*
X217089028Y-60271019D02*
X216898552Y-60271019D01*
X216898552Y-60271019D02*
X216803314Y-60223400D01*
X216803314Y-60223400D02*
X216755695Y-60128161D01*
X216755695Y-60128161D02*
X216755695Y-60080542D01*
X216755695Y-60080542D02*
X216803314Y-59985304D01*
X216803314Y-59985304D02*
X216898552Y-59937685D01*
X216898552Y-59937685D02*
X217041409Y-59937685D01*
X217041409Y-59937685D02*
X217136647Y-59890066D01*
X217136647Y-59890066D02*
X217184266Y-59794828D01*
X217184266Y-59794828D02*
X217184266Y-59747209D01*
X217184266Y-59747209D02*
X217136647Y-59651971D01*
X217136647Y-59651971D02*
X217041409Y-59604352D01*
X217041409Y-59604352D02*
X216898552Y-59604352D01*
X216898552Y-59604352D02*
X216803314Y-59651971D01*
X215565218Y-60271019D02*
X215565218Y-59271019D01*
X215565218Y-59747209D02*
X214993790Y-59747209D01*
X214993790Y-60271019D02*
X214993790Y-59271019D01*
X214374742Y-60271019D02*
X214469980Y-60223400D01*
X214469980Y-60223400D02*
X214517599Y-60175780D01*
X214517599Y-60175780D02*
X214565218Y-60080542D01*
X214565218Y-60080542D02*
X214565218Y-59794828D01*
X214565218Y-59794828D02*
X214517599Y-59699590D01*
X214517599Y-59699590D02*
X214469980Y-59651971D01*
X214469980Y-59651971D02*
X214374742Y-59604352D01*
X214374742Y-59604352D02*
X214231885Y-59604352D01*
X214231885Y-59604352D02*
X214136647Y-59651971D01*
X214136647Y-59651971D02*
X214089028Y-59699590D01*
X214089028Y-59699590D02*
X214041409Y-59794828D01*
X214041409Y-59794828D02*
X214041409Y-60080542D01*
X214041409Y-60080542D02*
X214089028Y-60175780D01*
X214089028Y-60175780D02*
X214136647Y-60223400D01*
X214136647Y-60223400D02*
X214231885Y-60271019D01*
X214231885Y-60271019D02*
X214374742Y-60271019D01*
X213612837Y-59604352D02*
X213612837Y-60604352D01*
X213612837Y-59651971D02*
X213517599Y-59604352D01*
X213517599Y-59604352D02*
X213327123Y-59604352D01*
X213327123Y-59604352D02*
X213231885Y-59651971D01*
X213231885Y-59651971D02*
X213184266Y-59699590D01*
X213184266Y-59699590D02*
X213136647Y-59794828D01*
X213136647Y-59794828D02*
X213136647Y-60080542D01*
X213136647Y-60080542D02*
X213184266Y-60175780D01*
X213184266Y-60175780D02*
X213231885Y-60223400D01*
X213231885Y-60223400D02*
X213327123Y-60271019D01*
X213327123Y-60271019D02*
X213517599Y-60271019D01*
X213517599Y-60271019D02*
X213612837Y-60223400D01*
X212708075Y-60271019D02*
X212708075Y-59271019D01*
X212612837Y-59890066D02*
X212327123Y-60271019D01*
X212327123Y-59604352D02*
X212708075Y-59985304D01*
X211898551Y-60271019D02*
X211898551Y-59604352D01*
X211898551Y-59271019D02*
X211946170Y-59318638D01*
X211946170Y-59318638D02*
X211898551Y-59366257D01*
X211898551Y-59366257D02*
X211850932Y-59318638D01*
X211850932Y-59318638D02*
X211898551Y-59271019D01*
X211898551Y-59271019D02*
X211898551Y-59366257D01*
X211422361Y-59604352D02*
X211422361Y-60271019D01*
X211422361Y-59699590D02*
X211374742Y-59651971D01*
X211374742Y-59651971D02*
X211279504Y-59604352D01*
X211279504Y-59604352D02*
X211136647Y-59604352D01*
X211136647Y-59604352D02*
X211041409Y-59651971D01*
X211041409Y-59651971D02*
X210993790Y-59747209D01*
X210993790Y-59747209D02*
X210993790Y-60271019D01*
X210565218Y-60223400D02*
X210469980Y-60271019D01*
X210469980Y-60271019D02*
X210279504Y-60271019D01*
X210279504Y-60271019D02*
X210184266Y-60223400D01*
X210184266Y-60223400D02*
X210136647Y-60128161D01*
X210136647Y-60128161D02*
X210136647Y-60080542D01*
X210136647Y-60080542D02*
X210184266Y-59985304D01*
X210184266Y-59985304D02*
X210279504Y-59937685D01*
X210279504Y-59937685D02*
X210422361Y-59937685D01*
X210422361Y-59937685D02*
X210517599Y-59890066D01*
X210517599Y-59890066D02*
X210565218Y-59794828D01*
X210565218Y-59794828D02*
X210565218Y-59747209D01*
X210565218Y-59747209D02*
X210517599Y-59651971D01*
X210517599Y-59651971D02*
X210422361Y-59604352D01*
X210422361Y-59604352D02*
X210279504Y-59604352D01*
X210279504Y-59604352D02*
X210184266Y-59651971D01*
X208946170Y-59271019D02*
X208946170Y-60080542D01*
X208946170Y-60080542D02*
X208898551Y-60175780D01*
X208898551Y-60175780D02*
X208850932Y-60223400D01*
X208850932Y-60223400D02*
X208755694Y-60271019D01*
X208755694Y-60271019D02*
X208565218Y-60271019D01*
X208565218Y-60271019D02*
X208469980Y-60223400D01*
X208469980Y-60223400D02*
X208422361Y-60175780D01*
X208422361Y-60175780D02*
X208374742Y-60080542D01*
X208374742Y-60080542D02*
X208374742Y-59271019D01*
X207898551Y-59604352D02*
X207898551Y-60271019D01*
X207898551Y-59699590D02*
X207850932Y-59651971D01*
X207850932Y-59651971D02*
X207755694Y-59604352D01*
X207755694Y-59604352D02*
X207612837Y-59604352D01*
X207612837Y-59604352D02*
X207517599Y-59651971D01*
X207517599Y-59651971D02*
X207469980Y-59747209D01*
X207469980Y-59747209D02*
X207469980Y-60271019D01*
X206993789Y-60271019D02*
X206993789Y-59604352D01*
X206993789Y-59271019D02*
X207041408Y-59318638D01*
X207041408Y-59318638D02*
X206993789Y-59366257D01*
X206993789Y-59366257D02*
X206946170Y-59318638D01*
X206946170Y-59318638D02*
X206993789Y-59271019D01*
X206993789Y-59271019D02*
X206993789Y-59366257D01*
X206612837Y-59604352D02*
X206374742Y-60271019D01*
X206374742Y-60271019D02*
X206136647Y-59604352D01*
X205374742Y-60223400D02*
X205469980Y-60271019D01*
X205469980Y-60271019D02*
X205660456Y-60271019D01*
X205660456Y-60271019D02*
X205755694Y-60223400D01*
X205755694Y-60223400D02*
X205803313Y-60128161D01*
X205803313Y-60128161D02*
X205803313Y-59747209D01*
X205803313Y-59747209D02*
X205755694Y-59651971D01*
X205755694Y-59651971D02*
X205660456Y-59604352D01*
X205660456Y-59604352D02*
X205469980Y-59604352D01*
X205469980Y-59604352D02*
X205374742Y-59651971D01*
X205374742Y-59651971D02*
X205327123Y-59747209D01*
X205327123Y-59747209D02*
X205327123Y-59842447D01*
X205327123Y-59842447D02*
X205803313Y-59937685D01*
X204898551Y-60271019D02*
X204898551Y-59604352D01*
X204898551Y-59794828D02*
X204850932Y-59699590D01*
X204850932Y-59699590D02*
X204803313Y-59651971D01*
X204803313Y-59651971D02*
X204708075Y-59604352D01*
X204708075Y-59604352D02*
X204612837Y-59604352D01*
X204327122Y-60223400D02*
X204231884Y-60271019D01*
X204231884Y-60271019D02*
X204041408Y-60271019D01*
X204041408Y-60271019D02*
X203946170Y-60223400D01*
X203946170Y-60223400D02*
X203898551Y-60128161D01*
X203898551Y-60128161D02*
X203898551Y-60080542D01*
X203898551Y-60080542D02*
X203946170Y-59985304D01*
X203946170Y-59985304D02*
X204041408Y-59937685D01*
X204041408Y-59937685D02*
X204184265Y-59937685D01*
X204184265Y-59937685D02*
X204279503Y-59890066D01*
X204279503Y-59890066D02*
X204327122Y-59794828D01*
X204327122Y-59794828D02*
X204327122Y-59747209D01*
X204327122Y-59747209D02*
X204279503Y-59651971D01*
X204279503Y-59651971D02*
X204184265Y-59604352D01*
X204184265Y-59604352D02*
X204041408Y-59604352D01*
X204041408Y-59604352D02*
X203946170Y-59651971D01*
X203469979Y-60271019D02*
X203469979Y-59604352D01*
X203469979Y-59271019D02*
X203517598Y-59318638D01*
X203517598Y-59318638D02*
X203469979Y-59366257D01*
X203469979Y-59366257D02*
X203422360Y-59318638D01*
X203422360Y-59318638D02*
X203469979Y-59271019D01*
X203469979Y-59271019D02*
X203469979Y-59366257D01*
X203136646Y-59604352D02*
X202755694Y-59604352D01*
X202993789Y-59271019D02*
X202993789Y-60128161D01*
X202993789Y-60128161D02*
X202946170Y-60223400D01*
X202946170Y-60223400D02*
X202850932Y-60271019D01*
X202850932Y-60271019D02*
X202755694Y-60271019D01*
X202517598Y-59604352D02*
X202279503Y-60271019D01*
X202041408Y-59604352D02*
X202279503Y-60271019D01*
X202279503Y-60271019D02*
X202374741Y-60509114D01*
X202374741Y-60509114D02*
X202422360Y-60556733D01*
X202422360Y-60556733D02*
X202517598Y-60604352D01*
X177263296Y-58305570D02*
X177358535Y-58257951D01*
X177358535Y-58257951D02*
X177549011Y-58257951D01*
X177549011Y-58257951D02*
X177644249Y-58305570D01*
X177644249Y-58305570D02*
X177739487Y-58400808D01*
X177739487Y-58400808D02*
X177787106Y-58496046D01*
X177787106Y-58496046D02*
X177787106Y-58686522D01*
X177787106Y-58686522D02*
X177739487Y-58781760D01*
X177739487Y-58781760D02*
X177644249Y-58876998D01*
X177644249Y-58876998D02*
X177549011Y-58924617D01*
X177549011Y-58924617D02*
X177358535Y-58924617D01*
X177358535Y-58924617D02*
X177263296Y-58876998D01*
X177453773Y-57924617D02*
X177691868Y-57972236D01*
X177691868Y-57972236D02*
X177929963Y-58115094D01*
X177929963Y-58115094D02*
X178072820Y-58353189D01*
X178072820Y-58353189D02*
X178120439Y-58591284D01*
X178120439Y-58591284D02*
X178072820Y-58829379D01*
X178072820Y-58829379D02*
X177929963Y-59067475D01*
X177929963Y-59067475D02*
X177691868Y-59210332D01*
X177691868Y-59210332D02*
X177453773Y-59257951D01*
X177453773Y-59257951D02*
X177215677Y-59210332D01*
X177215677Y-59210332D02*
X176977582Y-59067475D01*
X176977582Y-59067475D02*
X176834725Y-58829379D01*
X176834725Y-58829379D02*
X176787106Y-58591284D01*
X176787106Y-58591284D02*
X176834725Y-58353189D01*
X176834725Y-58353189D02*
X176977582Y-58115094D01*
X176977582Y-58115094D02*
X177215677Y-57972236D01*
X177215677Y-57972236D02*
X177453773Y-57924617D01*
X175644248Y-58781760D02*
X175168058Y-58781760D01*
X175739486Y-59067475D02*
X175406153Y-58067475D01*
X175406153Y-58067475D02*
X175072820Y-59067475D01*
X174739486Y-58400808D02*
X174739486Y-59067475D01*
X174739486Y-58496046D02*
X174691867Y-58448427D01*
X174691867Y-58448427D02*
X174596629Y-58400808D01*
X174596629Y-58400808D02*
X174453772Y-58400808D01*
X174453772Y-58400808D02*
X174358534Y-58448427D01*
X174358534Y-58448427D02*
X174310915Y-58543665D01*
X174310915Y-58543665D02*
X174310915Y-59067475D01*
X173929962Y-58400808D02*
X173739486Y-59067475D01*
X173739486Y-59067475D02*
X173549010Y-58591284D01*
X173549010Y-58591284D02*
X173358534Y-59067475D01*
X173358534Y-59067475D02*
X173168058Y-58400808D01*
X172358534Y-59067475D02*
X172358534Y-58543665D01*
X172358534Y-58543665D02*
X172406153Y-58448427D01*
X172406153Y-58448427D02*
X172501391Y-58400808D01*
X172501391Y-58400808D02*
X172691867Y-58400808D01*
X172691867Y-58400808D02*
X172787105Y-58448427D01*
X172358534Y-59019856D02*
X172453772Y-59067475D01*
X172453772Y-59067475D02*
X172691867Y-59067475D01*
X172691867Y-59067475D02*
X172787105Y-59019856D01*
X172787105Y-59019856D02*
X172834724Y-58924617D01*
X172834724Y-58924617D02*
X172834724Y-58829379D01*
X172834724Y-58829379D02*
X172787105Y-58734141D01*
X172787105Y-58734141D02*
X172691867Y-58686522D01*
X172691867Y-58686522D02*
X172453772Y-58686522D01*
X172453772Y-58686522D02*
X172358534Y-58638903D01*
X171977581Y-58400808D02*
X171739486Y-59067475D01*
X171501391Y-58400808D02*
X171739486Y-59067475D01*
X171739486Y-59067475D02*
X171834724Y-59305570D01*
X171834724Y-59305570D02*
X171882343Y-59353189D01*
X171882343Y-59353189D02*
X171977581Y-59400808D01*
X170358533Y-59067475D02*
X170358533Y-58067475D01*
X170358533Y-58067475D02*
X169977581Y-58067475D01*
X169977581Y-58067475D02*
X169882343Y-58115094D01*
X169882343Y-58115094D02*
X169834724Y-58162713D01*
X169834724Y-58162713D02*
X169787105Y-58257951D01*
X169787105Y-58257951D02*
X169787105Y-58400808D01*
X169787105Y-58400808D02*
X169834724Y-58496046D01*
X169834724Y-58496046D02*
X169882343Y-58543665D01*
X169882343Y-58543665D02*
X169977581Y-58591284D01*
X169977581Y-58591284D02*
X170358533Y-58591284D01*
X169358533Y-59067475D02*
X169358533Y-58400808D01*
X169358533Y-58067475D02*
X169406152Y-58115094D01*
X169406152Y-58115094D02*
X169358533Y-58162713D01*
X169358533Y-58162713D02*
X169310914Y-58115094D01*
X169310914Y-58115094D02*
X169358533Y-58067475D01*
X169358533Y-58067475D02*
X169358533Y-58162713D01*
X168882343Y-59067475D02*
X168882343Y-58400808D01*
X168882343Y-58496046D02*
X168834724Y-58448427D01*
X168834724Y-58448427D02*
X168739486Y-58400808D01*
X168739486Y-58400808D02*
X168596629Y-58400808D01*
X168596629Y-58400808D02*
X168501391Y-58448427D01*
X168501391Y-58448427D02*
X168453772Y-58543665D01*
X168453772Y-58543665D02*
X168453772Y-59067475D01*
X168453772Y-58543665D02*
X168406153Y-58448427D01*
X168406153Y-58448427D02*
X168310915Y-58400808D01*
X168310915Y-58400808D02*
X168168058Y-58400808D01*
X168168058Y-58400808D02*
X168072819Y-58448427D01*
X168072819Y-58448427D02*
X168025200Y-58543665D01*
X168025200Y-58543665D02*
X168025200Y-59067475D01*
X167549010Y-58400808D02*
X167549010Y-59400808D01*
X167549010Y-58448427D02*
X167453772Y-58400808D01*
X167453772Y-58400808D02*
X167263296Y-58400808D01*
X167263296Y-58400808D02*
X167168058Y-58448427D01*
X167168058Y-58448427D02*
X167120439Y-58496046D01*
X167120439Y-58496046D02*
X167072820Y-58591284D01*
X167072820Y-58591284D02*
X167072820Y-58876998D01*
X167072820Y-58876998D02*
X167120439Y-58972236D01*
X167120439Y-58972236D02*
X167168058Y-59019856D01*
X167168058Y-59019856D02*
X167263296Y-59067475D01*
X167263296Y-59067475D02*
X167453772Y-59067475D01*
X167453772Y-59067475D02*
X167549010Y-59019856D01*
X166215677Y-59067475D02*
X166215677Y-58543665D01*
X166215677Y-58543665D02*
X166263296Y-58448427D01*
X166263296Y-58448427D02*
X166358534Y-58400808D01*
X166358534Y-58400808D02*
X166549010Y-58400808D01*
X166549010Y-58400808D02*
X166644248Y-58448427D01*
X166215677Y-59019856D02*
X166310915Y-59067475D01*
X166310915Y-59067475D02*
X166549010Y-59067475D01*
X166549010Y-59067475D02*
X166644248Y-59019856D01*
X166644248Y-59019856D02*
X166691867Y-58924617D01*
X166691867Y-58924617D02*
X166691867Y-58829379D01*
X166691867Y-58829379D02*
X166644248Y-58734141D01*
X166644248Y-58734141D02*
X166549010Y-58686522D01*
X166549010Y-58686522D02*
X166310915Y-58686522D01*
X166310915Y-58686522D02*
X166215677Y-58638903D01*
X165596629Y-59067475D02*
X165691867Y-59019856D01*
X165691867Y-59019856D02*
X165739486Y-58924617D01*
X165739486Y-58924617D02*
X165739486Y-58067475D01*
X165215676Y-59067475D02*
X165215676Y-58067475D01*
X165120438Y-58686522D02*
X164834724Y-59067475D01*
X164834724Y-58400808D02*
X165215676Y-58781760D01*
X163977581Y-59067475D02*
X163977581Y-58543665D01*
X163977581Y-58543665D02*
X164025200Y-58448427D01*
X164025200Y-58448427D02*
X164120438Y-58400808D01*
X164120438Y-58400808D02*
X164310914Y-58400808D01*
X164310914Y-58400808D02*
X164406152Y-58448427D01*
X163977581Y-59019856D02*
X164072819Y-59067475D01*
X164072819Y-59067475D02*
X164310914Y-59067475D01*
X164310914Y-59067475D02*
X164406152Y-59019856D01*
X164406152Y-59019856D02*
X164453771Y-58924617D01*
X164453771Y-58924617D02*
X164453771Y-58829379D01*
X164453771Y-58829379D02*
X164406152Y-58734141D01*
X164406152Y-58734141D02*
X164310914Y-58686522D01*
X164310914Y-58686522D02*
X164072819Y-58686522D01*
X164072819Y-58686522D02*
X163977581Y-58638903D01*
X163501390Y-59067475D02*
X163501390Y-58400808D01*
X163501390Y-58591284D02*
X163453771Y-58496046D01*
X163453771Y-58496046D02*
X163406152Y-58448427D01*
X163406152Y-58448427D02*
X163310914Y-58400808D01*
X163310914Y-58400808D02*
X163215676Y-58400808D01*
X175787105Y-60677419D02*
X175787105Y-59677419D01*
X175787105Y-60153609D02*
X175215677Y-60153609D01*
X175215677Y-60677419D02*
X175215677Y-59677419D01*
X174787105Y-60391704D02*
X174310915Y-60391704D01*
X174882343Y-60677419D02*
X174549010Y-59677419D01*
X174549010Y-59677419D02*
X174215677Y-60677419D01*
X173882343Y-60677419D02*
X173882343Y-59677419D01*
X173882343Y-59677419D02*
X173549010Y-60391704D01*
X173549010Y-60391704D02*
X173215677Y-59677419D01*
X173215677Y-59677419D02*
X173215677Y-60677419D01*
X172168058Y-60677419D02*
X172501391Y-60201228D01*
X172739486Y-60677419D02*
X172739486Y-59677419D01*
X172739486Y-59677419D02*
X172358534Y-59677419D01*
X172358534Y-59677419D02*
X172263296Y-59725038D01*
X172263296Y-59725038D02*
X172215677Y-59772657D01*
X172215677Y-59772657D02*
X172168058Y-59867895D01*
X172168058Y-59867895D02*
X172168058Y-60010752D01*
X172168058Y-60010752D02*
X172215677Y-60105990D01*
X172215677Y-60105990D02*
X172263296Y-60153609D01*
X172263296Y-60153609D02*
X172358534Y-60201228D01*
X172358534Y-60201228D02*
X172739486Y-60201228D01*
X170501391Y-60677419D02*
X170977581Y-60677419D01*
X170977581Y-60677419D02*
X170977581Y-59677419D01*
X169739486Y-60677419D02*
X169739486Y-60153609D01*
X169739486Y-60153609D02*
X169787105Y-60058371D01*
X169787105Y-60058371D02*
X169882343Y-60010752D01*
X169882343Y-60010752D02*
X170072819Y-60010752D01*
X170072819Y-60010752D02*
X170168057Y-60058371D01*
X169739486Y-60629800D02*
X169834724Y-60677419D01*
X169834724Y-60677419D02*
X170072819Y-60677419D01*
X170072819Y-60677419D02*
X170168057Y-60629800D01*
X170168057Y-60629800D02*
X170215676Y-60534561D01*
X170215676Y-60534561D02*
X170215676Y-60439323D01*
X170215676Y-60439323D02*
X170168057Y-60344085D01*
X170168057Y-60344085D02*
X170072819Y-60296466D01*
X170072819Y-60296466D02*
X169834724Y-60296466D01*
X169834724Y-60296466D02*
X169739486Y-60248847D01*
X169263295Y-60677419D02*
X169263295Y-59677419D01*
X169263295Y-60058371D02*
X169168057Y-60010752D01*
X169168057Y-60010752D02*
X168977581Y-60010752D01*
X168977581Y-60010752D02*
X168882343Y-60058371D01*
X168882343Y-60058371D02*
X168834724Y-60105990D01*
X168834724Y-60105990D02*
X168787105Y-60201228D01*
X168787105Y-60201228D02*
X168787105Y-60486942D01*
X168787105Y-60486942D02*
X168834724Y-60582180D01*
X168834724Y-60582180D02*
X168882343Y-60629800D01*
X168882343Y-60629800D02*
X168977581Y-60677419D01*
X168977581Y-60677419D02*
X169168057Y-60677419D01*
X169168057Y-60677419D02*
X169263295Y-60629800D01*
X168310914Y-60629800D02*
X168310914Y-60677419D01*
X168310914Y-60677419D02*
X168358533Y-60772657D01*
X168358533Y-60772657D02*
X168406152Y-60820276D01*
X166834724Y-59677419D02*
X166834724Y-60391704D01*
X166834724Y-60391704D02*
X166882343Y-60534561D01*
X166882343Y-60534561D02*
X166977581Y-60629800D01*
X166977581Y-60629800D02*
X167120438Y-60677419D01*
X167120438Y-60677419D02*
X167215676Y-60677419D01*
X166215676Y-60677419D02*
X166310914Y-60629800D01*
X166310914Y-60629800D02*
X166358533Y-60582180D01*
X166358533Y-60582180D02*
X166406152Y-60486942D01*
X166406152Y-60486942D02*
X166406152Y-60201228D01*
X166406152Y-60201228D02*
X166358533Y-60105990D01*
X166358533Y-60105990D02*
X166310914Y-60058371D01*
X166310914Y-60058371D02*
X166215676Y-60010752D01*
X166215676Y-60010752D02*
X166072819Y-60010752D01*
X166072819Y-60010752D02*
X165977581Y-60058371D01*
X165977581Y-60058371D02*
X165929962Y-60105990D01*
X165929962Y-60105990D02*
X165882343Y-60201228D01*
X165882343Y-60201228D02*
X165882343Y-60486942D01*
X165882343Y-60486942D02*
X165929962Y-60582180D01*
X165929962Y-60582180D02*
X165977581Y-60629800D01*
X165977581Y-60629800D02*
X166072819Y-60677419D01*
X166072819Y-60677419D02*
X166215676Y-60677419D01*
X165453771Y-60677419D02*
X165453771Y-59677419D01*
X165025200Y-60677419D02*
X165025200Y-60153609D01*
X165025200Y-60153609D02*
X165072819Y-60058371D01*
X165072819Y-60058371D02*
X165168057Y-60010752D01*
X165168057Y-60010752D02*
X165310914Y-60010752D01*
X165310914Y-60010752D02*
X165406152Y-60058371D01*
X165406152Y-60058371D02*
X165453771Y-60105990D01*
X164549009Y-60010752D02*
X164549009Y-60677419D01*
X164549009Y-60105990D02*
X164501390Y-60058371D01*
X164501390Y-60058371D02*
X164406152Y-60010752D01*
X164406152Y-60010752D02*
X164263295Y-60010752D01*
X164263295Y-60010752D02*
X164168057Y-60058371D01*
X164168057Y-60058371D02*
X164120438Y-60153609D01*
X164120438Y-60153609D02*
X164120438Y-60677419D01*
X163691866Y-60629800D02*
X163596628Y-60677419D01*
X163596628Y-60677419D02*
X163406152Y-60677419D01*
X163406152Y-60677419D02*
X163310914Y-60629800D01*
X163310914Y-60629800D02*
X163263295Y-60534561D01*
X163263295Y-60534561D02*
X163263295Y-60486942D01*
X163263295Y-60486942D02*
X163310914Y-60391704D01*
X163310914Y-60391704D02*
X163406152Y-60344085D01*
X163406152Y-60344085D02*
X163549009Y-60344085D01*
X163549009Y-60344085D02*
X163644247Y-60296466D01*
X163644247Y-60296466D02*
X163691866Y-60201228D01*
X163691866Y-60201228D02*
X163691866Y-60153609D01*
X163691866Y-60153609D02*
X163644247Y-60058371D01*
X163644247Y-60058371D02*
X163549009Y-60010752D01*
X163549009Y-60010752D02*
X163406152Y-60010752D01*
X163406152Y-60010752D02*
X163310914Y-60058371D01*
X162072818Y-60677419D02*
X162072818Y-59677419D01*
X162072818Y-60153609D02*
X161501390Y-60153609D01*
X161501390Y-60677419D02*
X161501390Y-59677419D01*
X160882342Y-60677419D02*
X160977580Y-60629800D01*
X160977580Y-60629800D02*
X161025199Y-60582180D01*
X161025199Y-60582180D02*
X161072818Y-60486942D01*
X161072818Y-60486942D02*
X161072818Y-60201228D01*
X161072818Y-60201228D02*
X161025199Y-60105990D01*
X161025199Y-60105990D02*
X160977580Y-60058371D01*
X160977580Y-60058371D02*
X160882342Y-60010752D01*
X160882342Y-60010752D02*
X160739485Y-60010752D01*
X160739485Y-60010752D02*
X160644247Y-60058371D01*
X160644247Y-60058371D02*
X160596628Y-60105990D01*
X160596628Y-60105990D02*
X160549009Y-60201228D01*
X160549009Y-60201228D02*
X160549009Y-60486942D01*
X160549009Y-60486942D02*
X160596628Y-60582180D01*
X160596628Y-60582180D02*
X160644247Y-60629800D01*
X160644247Y-60629800D02*
X160739485Y-60677419D01*
X160739485Y-60677419D02*
X160882342Y-60677419D01*
X160120437Y-60010752D02*
X160120437Y-61010752D01*
X160120437Y-60058371D02*
X160025199Y-60010752D01*
X160025199Y-60010752D02*
X159834723Y-60010752D01*
X159834723Y-60010752D02*
X159739485Y-60058371D01*
X159739485Y-60058371D02*
X159691866Y-60105990D01*
X159691866Y-60105990D02*
X159644247Y-60201228D01*
X159644247Y-60201228D02*
X159644247Y-60486942D01*
X159644247Y-60486942D02*
X159691866Y-60582180D01*
X159691866Y-60582180D02*
X159739485Y-60629800D01*
X159739485Y-60629800D02*
X159834723Y-60677419D01*
X159834723Y-60677419D02*
X160025199Y-60677419D01*
X160025199Y-60677419D02*
X160120437Y-60629800D01*
X159215675Y-60677419D02*
X159215675Y-59677419D01*
X159120437Y-60296466D02*
X158834723Y-60677419D01*
X158834723Y-60010752D02*
X159215675Y-60391704D01*
X158406151Y-60677419D02*
X158406151Y-60010752D01*
X158406151Y-59677419D02*
X158453770Y-59725038D01*
X158453770Y-59725038D02*
X158406151Y-59772657D01*
X158406151Y-59772657D02*
X158358532Y-59725038D01*
X158358532Y-59725038D02*
X158406151Y-59677419D01*
X158406151Y-59677419D02*
X158406151Y-59772657D01*
X157929961Y-60010752D02*
X157929961Y-60677419D01*
X157929961Y-60105990D02*
X157882342Y-60058371D01*
X157882342Y-60058371D02*
X157787104Y-60010752D01*
X157787104Y-60010752D02*
X157644247Y-60010752D01*
X157644247Y-60010752D02*
X157549009Y-60058371D01*
X157549009Y-60058371D02*
X157501390Y-60153609D01*
X157501390Y-60153609D02*
X157501390Y-60677419D01*
X157072818Y-60629800D02*
X156977580Y-60677419D01*
X156977580Y-60677419D02*
X156787104Y-60677419D01*
X156787104Y-60677419D02*
X156691866Y-60629800D01*
X156691866Y-60629800D02*
X156644247Y-60534561D01*
X156644247Y-60534561D02*
X156644247Y-60486942D01*
X156644247Y-60486942D02*
X156691866Y-60391704D01*
X156691866Y-60391704D02*
X156787104Y-60344085D01*
X156787104Y-60344085D02*
X156929961Y-60344085D01*
X156929961Y-60344085D02*
X157025199Y-60296466D01*
X157025199Y-60296466D02*
X157072818Y-60201228D01*
X157072818Y-60201228D02*
X157072818Y-60153609D01*
X157072818Y-60153609D02*
X157025199Y-60058371D01*
X157025199Y-60058371D02*
X156929961Y-60010752D01*
X156929961Y-60010752D02*
X156787104Y-60010752D01*
X156787104Y-60010752D02*
X156691866Y-60058371D01*
X155453770Y-59677419D02*
X155453770Y-60486942D01*
X155453770Y-60486942D02*
X155406151Y-60582180D01*
X155406151Y-60582180D02*
X155358532Y-60629800D01*
X155358532Y-60629800D02*
X155263294Y-60677419D01*
X155263294Y-60677419D02*
X155072818Y-60677419D01*
X155072818Y-60677419D02*
X154977580Y-60629800D01*
X154977580Y-60629800D02*
X154929961Y-60582180D01*
X154929961Y-60582180D02*
X154882342Y-60486942D01*
X154882342Y-60486942D02*
X154882342Y-59677419D01*
X154406151Y-60010752D02*
X154406151Y-60677419D01*
X154406151Y-60105990D02*
X154358532Y-60058371D01*
X154358532Y-60058371D02*
X154263294Y-60010752D01*
X154263294Y-60010752D02*
X154120437Y-60010752D01*
X154120437Y-60010752D02*
X154025199Y-60058371D01*
X154025199Y-60058371D02*
X153977580Y-60153609D01*
X153977580Y-60153609D02*
X153977580Y-60677419D01*
X153501389Y-60677419D02*
X153501389Y-60010752D01*
X153501389Y-59677419D02*
X153549008Y-59725038D01*
X153549008Y-59725038D02*
X153501389Y-59772657D01*
X153501389Y-59772657D02*
X153453770Y-59725038D01*
X153453770Y-59725038D02*
X153501389Y-59677419D01*
X153501389Y-59677419D02*
X153501389Y-59772657D01*
X153120437Y-60010752D02*
X152882342Y-60677419D01*
X152882342Y-60677419D02*
X152644247Y-60010752D01*
X151882342Y-60629800D02*
X151977580Y-60677419D01*
X151977580Y-60677419D02*
X152168056Y-60677419D01*
X152168056Y-60677419D02*
X152263294Y-60629800D01*
X152263294Y-60629800D02*
X152310913Y-60534561D01*
X152310913Y-60534561D02*
X152310913Y-60153609D01*
X152310913Y-60153609D02*
X152263294Y-60058371D01*
X152263294Y-60058371D02*
X152168056Y-60010752D01*
X152168056Y-60010752D02*
X151977580Y-60010752D01*
X151977580Y-60010752D02*
X151882342Y-60058371D01*
X151882342Y-60058371D02*
X151834723Y-60153609D01*
X151834723Y-60153609D02*
X151834723Y-60248847D01*
X151834723Y-60248847D02*
X152310913Y-60344085D01*
X151406151Y-60677419D02*
X151406151Y-60010752D01*
X151406151Y-60201228D02*
X151358532Y-60105990D01*
X151358532Y-60105990D02*
X151310913Y-60058371D01*
X151310913Y-60058371D02*
X151215675Y-60010752D01*
X151215675Y-60010752D02*
X151120437Y-60010752D01*
X150834722Y-60629800D02*
X150739484Y-60677419D01*
X150739484Y-60677419D02*
X150549008Y-60677419D01*
X150549008Y-60677419D02*
X150453770Y-60629800D01*
X150453770Y-60629800D02*
X150406151Y-60534561D01*
X150406151Y-60534561D02*
X150406151Y-60486942D01*
X150406151Y-60486942D02*
X150453770Y-60391704D01*
X150453770Y-60391704D02*
X150549008Y-60344085D01*
X150549008Y-60344085D02*
X150691865Y-60344085D01*
X150691865Y-60344085D02*
X150787103Y-60296466D01*
X150787103Y-60296466D02*
X150834722Y-60201228D01*
X150834722Y-60201228D02*
X150834722Y-60153609D01*
X150834722Y-60153609D02*
X150787103Y-60058371D01*
X150787103Y-60058371D02*
X150691865Y-60010752D01*
X150691865Y-60010752D02*
X150549008Y-60010752D01*
X150549008Y-60010752D02*
X150453770Y-60058371D01*
X149977579Y-60677419D02*
X149977579Y-60010752D01*
X149977579Y-59677419D02*
X150025198Y-59725038D01*
X150025198Y-59725038D02*
X149977579Y-59772657D01*
X149977579Y-59772657D02*
X149929960Y-59725038D01*
X149929960Y-59725038D02*
X149977579Y-59677419D01*
X149977579Y-59677419D02*
X149977579Y-59772657D01*
X149644246Y-60010752D02*
X149263294Y-60010752D01*
X149501389Y-59677419D02*
X149501389Y-60534561D01*
X149501389Y-60534561D02*
X149453770Y-60629800D01*
X149453770Y-60629800D02*
X149358532Y-60677419D01*
X149358532Y-60677419D02*
X149263294Y-60677419D01*
X149025198Y-60010752D02*
X148787103Y-60677419D01*
X148549008Y-60010752D02*
X148787103Y-60677419D01*
X148787103Y-60677419D02*
X148882341Y-60915514D01*
X148882341Y-60915514D02*
X148929960Y-60963133D01*
X148929960Y-60963133D02*
X149025198Y-61010752D01*
D11*
%TO.C,J4*%
X161531700Y-76400700D02*
G75*
G02*
X160769700Y-76400700I-381000J0D01*
G01*
X160769700Y-76400700D02*
G75*
G02*
X161531700Y-76400700I381000J0D01*
G01*
%TO.C,J12*%
X204038200Y-60923800D02*
G75*
G02*
X203276200Y-60923800I-381000J0D01*
G01*
X203276200Y-60923800D02*
G75*
G02*
X204038200Y-60923800I381000J0D01*
G01*
%TO.C,J8*%
X221519654Y-62771778D02*
G75*
G02*
X220757656Y-62771778I-380999J0D01*
G01*
X220757656Y-62771778D02*
G75*
G02*
X221519654Y-62771778I380999J0D01*
G01*
%TO.C,J7*%
X148019623Y-77300801D02*
G75*
G02*
X147257621Y-77300801I-381001J0D01*
G01*
X147257621Y-77300801D02*
G75*
G02*
X148019623Y-77300801I381001J0D01*
G01*
%TO.C,J9*%
X166140629Y-63934199D02*
G75*
G02*
X165378631Y-63934199I-380999J0D01*
G01*
X165378631Y-63934199D02*
G75*
G02*
X166140629Y-63934199I380999J0D01*
G01*
%TO.C,J2*%
X234903788Y-63944013D02*
G75*
G02*
X234141788Y-63944013I-381000J0D01*
G01*
X234141788Y-63944013D02*
G75*
G02*
X234903788Y-63944013I381000J0D01*
G01*
%TO.C,J10*%
X153175418Y-62037757D02*
G75*
G02*
X152413414Y-62037757I-381002J0D01*
G01*
X152413414Y-62037757D02*
G75*
G02*
X153175418Y-62037757I381002J0D01*
G01*
%TO.C,J5*%
X161531700Y-85798700D02*
G75*
G02*
X160769700Y-85798700I-381000J0D01*
G01*
X160769700Y-85798700D02*
G75*
G02*
X161531700Y-85798700I381000J0D01*
G01*
%TO.C,J3*%
X227180814Y-81678969D02*
G75*
G02*
X226418814Y-81678969I-381000J0D01*
G01*
X226418814Y-81678969D02*
G75*
G02*
X227180814Y-81678969I381000J0D01*
G01*
%TO.C,J6*%
X145831891Y-67902801D02*
G75*
G02*
X145069889Y-67902801I-381001J0D01*
G01*
X145069889Y-67902801D02*
G75*
G02*
X145831891Y-67902801I381001J0D01*
G01*
%TO.C,J11*%
X183972200Y-60923800D02*
G75*
G02*
X183210200Y-60923800I-381000J0D01*
G01*
X183210200Y-60923800D02*
G75*
G02*
X183972200Y-60923800I381000J0D01*
G01*
%TD*%
M02*
