%TF.GenerationSoftware,KiCad,Pcbnew,9.0.1*%
%TF.CreationDate,2025-06-09T02:27:09-04:00*%
%TF.ProjectId,Pneumatactors_1Xiao_3PiezoPumps_6Valves_TwoPiece,506e6575-6d61-4746-9163-746f72735f31,rev?*%
%TF.SameCoordinates,Original*%
%TF.FileFunction,Copper,L2,Bot*%
%TF.FilePolarity,Positive*%
%FSLAX46Y46*%
G04 Gerber Fmt 4.6, Leading zero omitted, Abs format (unit mm)*
G04 Created by KiCad (PCBNEW 9.0.1) date 2025-06-09 02:27:09*
%MOMM*%
%LPD*%
G01*
G04 APERTURE LIST*
G04 Aperture macros list*
%AMRotRect*
0 Rectangle, with rotation*
0 The origin of the aperture is its center*
0 $1 length*
0 $2 width*
0 $3 Rotation angle, in degrees counterclockwise*
0 Add horizontal line*
21,1,$1,$2,0,0,$3*%
G04 Aperture macros list end*
%TA.AperFunction,ComponentPad*%
%ADD10RotRect,1.700000X1.700000X95.000000*%
%TD*%
%TA.AperFunction,ComponentPad*%
%ADD11C,1.700000*%
%TD*%
%TA.AperFunction,ViaPad*%
%ADD12C,0.800000*%
%TD*%
%TA.AperFunction,Conductor*%
%ADD13C,1.000000*%
%TD*%
%TA.AperFunction,Conductor*%
%ADD14C,0.500000*%
%TD*%
%TA.AperFunction,Conductor*%
%ADD15C,0.250000*%
%TD*%
G04 APERTURE END LIST*
D10*
%TO.P,J1,1,Pin_1*%
%TO.N,GND*%
X145551665Y-65753375D03*
D11*
%TO.P,J1,2,Pin_2*%
%TO.N,5V*%
X148082000Y-65532000D03*
%TD*%
D12*
%TO.N,5V*%
X160655000Y-57150000D03*
X179578000Y-58420000D03*
X154262111Y-84034389D03*
X158066500Y-80230000D03*
%TO.N,Net-(D3-A)*%
X227797564Y-70242332D03*
X227007048Y-77724695D03*
%TO.N,Net-(D4-A)*%
X158066500Y-76864000D03*
X161150700Y-72441000D03*
X153748500Y-69177000D03*
%TO.N,GND*%
X181660800Y-61112400D03*
X164592000Y-65786000D03*
X180086000Y-56438800D03*
X173990000Y-58420000D03*
X156210000Y-70612000D03*
X154178000Y-85598000D03*
X143256000Y-72644000D03*
X155956000Y-56896000D03*
X145796000Y-58674000D03*
X158750000Y-60960000D03*
X160274000Y-66548000D03*
X163830000Y-71628000D03*
X144272000Y-82042000D03*
X163576000Y-81534000D03*
X167386000Y-61214000D03*
X141732000Y-64516000D03*
X151130000Y-62992000D03*
X177342800Y-58826400D03*
%TO.N,SCL*%
X159379213Y-63606520D03*
X146557144Y-62583448D03*
X153924000Y-63754000D03*
%TO.N,3V3*%
X223413205Y-58526795D03*
X228572575Y-57728125D03*
X233858823Y-57982125D03*
%TO.N,Net-(D1-K)*%
X205819688Y-61682389D03*
X208097953Y-81803514D03*
%TO.N,V3*%
X170271947Y-58836053D03*
X151873500Y-68326000D03*
%TO.N,V4*%
X173385000Y-60923800D03*
X153065000Y-75438000D03*
%TO.N,V5*%
X172212000Y-60960000D03*
X157812500Y-70160000D03*
%TO.N,V6*%
X154940000Y-73782000D03*
X170885000Y-60923800D03*
%TO.N,5V_1*%
X218948000Y-73914000D03*
X226846564Y-76476408D03*
X206168312Y-57697611D03*
X221234000Y-69088000D03*
X215138000Y-58420000D03*
X192278000Y-57912000D03*
%TO.N,GND_1*%
X215646000Y-56896000D03*
X190500000Y-56388000D03*
X215900000Y-73152000D03*
X221488000Y-66802000D03*
X224485200Y-65532000D03*
X230378000Y-83058000D03*
X230124000Y-77216000D03*
X229870000Y-68072000D03*
X206044800Y-64922400D03*
X227076000Y-63246000D03*
X218694000Y-65024000D03*
X224536000Y-60960000D03*
X210464400Y-62230000D03*
X212598000Y-68580000D03*
X232664000Y-63754000D03*
X210312000Y-83820000D03*
X233680000Y-65024000D03*
X212344000Y-65278000D03*
X220726000Y-80264000D03*
X197104000Y-56438800D03*
X213868000Y-58928000D03*
X229870000Y-69850000D03*
X221234000Y-85090000D03*
X193548000Y-59182000D03*
X187960000Y-60960000D03*
X211582000Y-80264000D03*
X221081600Y-72644000D03*
%TO.N,SDA_1*%
X224772532Y-72503449D03*
X225433470Y-57522530D03*
%TO.N,SCL_1*%
X224905466Y-69966930D03*
X229108000Y-60960000D03*
%TO.N,V6_1*%
X208629686Y-71657438D03*
X199701000Y-60923800D03*
%TO.N,V3_1*%
X195951000Y-60923800D03*
X224506666Y-77576487D03*
%TO.N,V5_1*%
X198652000Y-60923800D03*
X208762619Y-69120919D03*
%TO.N,V4_1*%
X224639599Y-75039968D03*
X197201000Y-60923800D03*
%TD*%
D13*
%TO.N,5V*%
X178301000Y-57143000D02*
X179578000Y-58420000D01*
X160655000Y-57150000D02*
X160662000Y-57143000D01*
X154262111Y-84034389D02*
X158066500Y-80230000D01*
X160662000Y-57143000D02*
X178301000Y-57143000D01*
D14*
%TO.N,Net-(D3-A)*%
X227797564Y-70242332D02*
X227797564Y-76934179D01*
X227797564Y-76934179D02*
X227007048Y-77724695D01*
D13*
%TO.N,Net-(D4-A)*%
X161150700Y-72441000D02*
X161150700Y-73779800D01*
X158708700Y-74883000D02*
X154483950Y-74883000D01*
X161150700Y-73779800D02*
X158066500Y-76864000D01*
X153748500Y-74147550D02*
X153748500Y-69177000D01*
X161150700Y-72441000D02*
X158708700Y-74883000D01*
X154483950Y-74883000D02*
X153748500Y-74147550D01*
D15*
%TO.N,SCL*%
X147727696Y-63754000D02*
X146557144Y-62583448D01*
X153924000Y-63754000D02*
X159231733Y-63754000D01*
X159231733Y-63754000D02*
X159379213Y-63606520D01*
X153924000Y-63754000D02*
X147727696Y-63754000D01*
D13*
%TO.N,3V3*%
X224576410Y-59690000D02*
X226610700Y-59690000D01*
X232150948Y-59690000D02*
X233858823Y-57982125D01*
X226610700Y-59690000D02*
X228572575Y-57728125D01*
X230534450Y-59690000D02*
X232150948Y-59690000D01*
X228572575Y-57728125D02*
X230534450Y-59690000D01*
X223413205Y-58526795D02*
X224576410Y-59690000D01*
D14*
%TO.N,Net-(D1-K)*%
X207010000Y-80715561D02*
X207010000Y-62872701D01*
X207010000Y-80715561D02*
X208097953Y-81803514D01*
X207010000Y-62872701D02*
X205819688Y-61682389D01*
D15*
%TO.N,V3*%
X152148500Y-68051000D02*
X152361030Y-68051000D01*
X160555213Y-64866977D02*
X160555213Y-59255376D01*
X152361030Y-68051000D02*
X152651030Y-67761000D01*
X151873500Y-68326000D02*
X152148500Y-68051000D01*
X160555213Y-59255376D02*
X161390589Y-58420000D01*
X152651030Y-67761000D02*
X157661190Y-67761000D01*
X157661190Y-67761000D02*
X160555213Y-64866977D01*
X169855894Y-58420000D02*
X170271947Y-58836053D01*
X161390589Y-58420000D02*
X169855894Y-58420000D01*
%TO.N,V4*%
X150628213Y-73001213D02*
X150628213Y-68544567D01*
X157474380Y-67310000D02*
X160104213Y-64680167D01*
X153065000Y-75438000D02*
X150628213Y-73001213D01*
X161203779Y-57969000D02*
X170430200Y-57969000D01*
X170430200Y-57969000D02*
X173385000Y-60923800D01*
X150628213Y-68544567D02*
X151862780Y-67310000D01*
X151862780Y-67310000D02*
X157474380Y-67310000D01*
X160104213Y-59068566D02*
X161203779Y-57969000D01*
X160104213Y-64680167D02*
X160104213Y-59068566D01*
%TO.N,V5*%
X161006213Y-59442186D02*
X161006213Y-66966287D01*
X171958000Y-60706000D02*
X171958000Y-60134610D01*
X169280174Y-58871000D02*
X161577399Y-58871000D01*
X161577399Y-58871000D02*
X161006213Y-59442186D01*
X172212000Y-60960000D02*
X171958000Y-60706000D01*
X170099174Y-59690000D02*
X169280174Y-58871000D01*
X161006213Y-66966287D02*
X157812500Y-70160000D01*
X171513390Y-59690000D02*
X170099174Y-59690000D01*
X171958000Y-60134610D02*
X171513390Y-59690000D01*
%TO.N,V6*%
X155217220Y-73782000D02*
X161457213Y-67542007D01*
X170695164Y-60923800D02*
X170885000Y-60923800D01*
X161457213Y-59628996D02*
X161764209Y-59322000D01*
X161764209Y-59322000D02*
X169093364Y-59322000D01*
X154940000Y-73782000D02*
X155217220Y-73782000D01*
X161457213Y-67542007D02*
X161457213Y-59628996D01*
X169093364Y-59322000D02*
X170695164Y-60923800D01*
D13*
%TO.N,5V_1*%
X226316156Y-76476408D02*
X226846564Y-76476408D01*
X218948000Y-73914000D02*
X223711487Y-78677487D01*
X219795000Y-67649000D02*
X221234000Y-69088000D01*
X225806000Y-77834203D02*
X225806000Y-76986564D01*
X192492389Y-57697611D02*
X206168312Y-57697611D01*
X225806000Y-76986564D02*
X226316156Y-76476408D01*
X219795000Y-63077000D02*
X219795000Y-67649000D01*
X223711487Y-78677487D02*
X224962716Y-78677487D01*
X224962716Y-78677487D02*
X225806000Y-77834203D01*
X215138000Y-58420000D02*
X219795000Y-63077000D01*
X192278000Y-57912000D02*
X192492389Y-57697611D01*
D15*
%TO.N,SDA_1*%
X225433470Y-57522530D02*
X223249330Y-57522530D01*
X222587205Y-58184655D02*
X222587205Y-70318122D01*
X223249330Y-57522530D02*
X222587205Y-58184655D01*
X222587205Y-70318122D02*
X224772532Y-72503449D01*
%TO.N,SCL_1*%
X229108000Y-60960000D02*
X229108000Y-65764396D01*
X229108000Y-65764396D02*
X224905466Y-69966930D01*
%TO.N,V6_1*%
X208240990Y-60923800D02*
X199701000Y-60923800D01*
X208036619Y-68820199D02*
X208280000Y-68576818D01*
X208280000Y-69665020D02*
X208036619Y-69421639D01*
X208280000Y-60962810D02*
X208240990Y-60923800D01*
X208280000Y-71307752D02*
X208280000Y-69665020D01*
X208629686Y-71657438D02*
X208280000Y-71307752D01*
X208280000Y-68576818D02*
X208280000Y-60962810D01*
X208036619Y-69421639D02*
X208036619Y-68820199D01*
%TO.N,V3_1*%
X197927000Y-61224520D02*
X197927000Y-59883000D01*
X196677000Y-61649800D02*
X197501720Y-61649800D01*
X198628000Y-59182000D02*
X210312000Y-59182000D01*
X197927000Y-59883000D02*
X198628000Y-59182000D01*
X210312000Y-59182000D02*
X215900000Y-64770000D01*
X197501720Y-61649800D02*
X197927000Y-61224520D01*
X215900000Y-68969821D02*
X224506666Y-77576487D01*
X195951000Y-60923800D02*
X196677000Y-61649800D01*
X215900000Y-64770000D02*
X215900000Y-68969821D01*
%TO.N,V5_1*%
X208762619Y-60807619D02*
X207645000Y-59690000D01*
X199136000Y-59690000D02*
X198652000Y-60174000D01*
X198652000Y-60174000D02*
X198652000Y-60923800D01*
X208762619Y-69120919D02*
X208762619Y-60807619D01*
X207645000Y-59690000D02*
X199136000Y-59690000D01*
%TO.N,V4_1*%
X217460000Y-66838000D02*
X216351000Y-65729000D01*
X197104000Y-60826800D02*
X197201000Y-60923800D01*
X217896000Y-67274000D02*
X217896000Y-67263280D01*
X210441810Y-58674000D02*
X198374000Y-58674000D01*
X197104000Y-59944000D02*
X197104000Y-60826800D01*
X217470720Y-66838000D02*
X217460000Y-66838000D01*
X224639599Y-75039968D02*
X224639599Y-74017599D01*
X224639599Y-74017599D02*
X217896000Y-67274000D01*
X216351000Y-64583190D02*
X210441810Y-58674000D01*
X198374000Y-58674000D02*
X197104000Y-59944000D01*
X216351000Y-65729000D02*
X216351000Y-64583190D01*
X217896000Y-67263280D02*
X217470720Y-66838000D01*
%TD*%
%TA.AperFunction,Conductor*%
%TO.N,GND_1*%
G36*
X188068282Y-55576554D02*
G01*
X224429132Y-56177913D01*
X234061333Y-56337712D01*
X234109090Y-56338557D01*
X234109277Y-56338615D01*
X234115006Y-56338803D01*
X234333130Y-56353095D01*
X234342623Y-56354087D01*
X234387047Y-56360475D01*
X234393517Y-56361582D01*
X234584467Y-56399561D01*
X234595184Y-56402195D01*
X234630416Y-56412540D01*
X234635238Y-56414066D01*
X234828240Y-56479578D01*
X234839884Y-56484201D01*
X234856168Y-56491638D01*
X234859485Y-56493212D01*
X235055937Y-56590089D01*
X235069978Y-56598197D01*
X235263601Y-56727571D01*
X235276470Y-56737445D01*
X235451547Y-56890983D01*
X235463016Y-56902452D01*
X235616554Y-57077529D01*
X235626428Y-57090398D01*
X235755802Y-57284021D01*
X235763913Y-57298068D01*
X235860771Y-57494481D01*
X235862354Y-57497816D01*
X235869802Y-57514126D01*
X235874426Y-57525777D01*
X235939911Y-57718695D01*
X235941469Y-57723619D01*
X235951804Y-57758819D01*
X235954444Y-57769563D01*
X235992411Y-57960454D01*
X235993531Y-57966998D01*
X235999908Y-58011356D01*
X236000905Y-58020893D01*
X236014428Y-58227267D01*
X236012519Y-58258493D01*
X230942700Y-84974805D01*
X230935462Y-84988944D01*
X230935462Y-85001355D01*
X230935357Y-85006461D01*
X230934521Y-85026746D01*
X230934218Y-85027639D01*
X230934361Y-85029748D01*
X230920904Y-85235111D01*
X230919907Y-85244648D01*
X230913530Y-85289006D01*
X230912410Y-85295550D01*
X230874440Y-85486453D01*
X230871799Y-85497198D01*
X230861473Y-85532366D01*
X230859916Y-85537289D01*
X230794424Y-85730228D01*
X230789799Y-85741882D01*
X230782362Y-85758167D01*
X230780780Y-85761499D01*
X230683913Y-85957931D01*
X230675802Y-85971978D01*
X230546428Y-86165601D01*
X230536554Y-86178470D01*
X230383016Y-86353547D01*
X230371547Y-86365016D01*
X230196470Y-86518554D01*
X230183601Y-86528428D01*
X229989978Y-86657802D01*
X229975931Y-86665913D01*
X229779517Y-86762771D01*
X229776182Y-86764354D01*
X229759872Y-86771802D01*
X229748221Y-86776426D01*
X229555303Y-86841911D01*
X229550379Y-86843469D01*
X229515179Y-86853804D01*
X229504435Y-86856444D01*
X229313544Y-86894411D01*
X229307000Y-86895531D01*
X229262642Y-86901908D01*
X229253105Y-86902905D01*
X229039553Y-86916898D01*
X229022439Y-86916836D01*
X208149613Y-85396854D01*
X208140555Y-85393462D01*
X208107107Y-85393462D01*
X208098999Y-85393197D01*
X207880887Y-85378904D01*
X207871350Y-85377907D01*
X207826992Y-85371530D01*
X207820448Y-85370410D01*
X207629545Y-85332440D01*
X207618800Y-85329799D01*
X207583632Y-85319473D01*
X207578709Y-85317916D01*
X207385770Y-85252424D01*
X207374116Y-85247799D01*
X207357831Y-85240362D01*
X207354499Y-85238780D01*
X207158068Y-85141913D01*
X207144021Y-85133802D01*
X206950398Y-85004428D01*
X206937529Y-84994554D01*
X206762452Y-84841016D01*
X206750983Y-84829547D01*
X206597445Y-84654470D01*
X206587571Y-84641601D01*
X206458197Y-84447978D01*
X206450089Y-84433937D01*
X206353211Y-84237484D01*
X206351662Y-84234220D01*
X206344193Y-84217865D01*
X206339572Y-84206221D01*
X206304461Y-84102784D01*
X206274074Y-84013263D01*
X206272542Y-84008420D01*
X206262189Y-83973158D01*
X206259559Y-83962458D01*
X206221584Y-83771526D01*
X206220472Y-83765031D01*
X206214085Y-83720604D01*
X206213095Y-83711133D01*
X206198803Y-83493005D01*
X206198538Y-83484898D01*
X206198538Y-83438118D01*
X206198442Y-83437238D01*
X206169237Y-67596326D01*
X206169505Y-67587985D01*
X206179462Y-67436952D01*
X206182531Y-67390393D01*
X206180444Y-67307481D01*
X206172352Y-66986052D01*
X206125504Y-66584309D01*
X206042373Y-66188479D01*
X206019632Y-66114423D01*
X206018337Y-66108707D01*
X206011891Y-66089212D01*
X205950730Y-65890034D01*
X205923649Y-65801840D01*
X205923646Y-65801832D01*
X205888551Y-65716174D01*
X205883981Y-65702350D01*
X205868705Y-65667734D01*
X205770305Y-65427562D01*
X205720364Y-65331581D01*
X205711189Y-65310789D01*
X205688944Y-65271193D01*
X205628493Y-65155012D01*
X205583619Y-65068767D01*
X205583616Y-65068762D01*
X205583615Y-65068760D01*
X205516344Y-64963966D01*
X205501560Y-64937649D01*
X205474462Y-64898722D01*
X205365120Y-64728390D01*
X205278045Y-64616566D01*
X205257037Y-64586387D01*
X205227264Y-64551352D01*
X205225639Y-64549265D01*
X205225639Y-64549264D01*
X205116624Y-64409265D01*
X205009230Y-64294567D01*
X205009230Y-64294566D01*
X205007185Y-64292382D01*
X204979882Y-64260254D01*
X204949616Y-64230898D01*
X204947589Y-64228733D01*
X204947568Y-64228712D01*
X204944933Y-64225898D01*
X204884832Y-64161709D01*
X204840184Y-64114024D01*
X204840181Y-64114021D01*
X204840178Y-64114018D01*
X204705639Y-63994257D01*
X204672663Y-63962271D01*
X204643935Y-63939329D01*
X204641454Y-63937121D01*
X204538078Y-63845099D01*
X204538056Y-63845082D01*
X204377153Y-63726172D01*
X204375273Y-63724783D01*
X204338225Y-63695197D01*
X204312926Y-63678708D01*
X204225938Y-63614422D01*
X204212790Y-63604705D01*
X204019396Y-63487325D01*
X204019394Y-63487324D01*
X204017711Y-63486302D01*
X203979665Y-63461506D01*
X203959541Y-63450995D01*
X203956129Y-63448924D01*
X203956128Y-63448923D01*
X203867030Y-63394846D01*
X203851907Y-63387455D01*
X203635037Y-63281463D01*
X203633829Y-63280872D01*
X203600302Y-63263361D01*
X203586838Y-63257904D01*
X203582957Y-63256007D01*
X203582944Y-63256002D01*
X203525528Y-63227942D01*
X203503641Y-63217245D01*
X203494343Y-63213706D01*
X203223932Y-63110786D01*
X203223932Y-63110785D01*
X203222639Y-63110292D01*
X203203651Y-63102597D01*
X203198027Y-63100926D01*
X203193681Y-63099272D01*
X203193679Y-63099271D01*
X203125642Y-63073376D01*
X203125622Y-63073369D01*
X202836461Y-62992484D01*
X202736117Y-62964415D01*
X202338320Y-62891273D01*
X202338310Y-62891272D01*
X201935526Y-62854550D01*
X201735558Y-62854563D01*
X201731044Y-62854481D01*
X188086265Y-62358289D01*
X188086103Y-62358283D01*
X188036435Y-62356412D01*
X188036221Y-62356340D01*
X188033012Y-62356235D01*
X187906144Y-62347922D01*
X187814887Y-62341943D01*
X187805350Y-62340946D01*
X187761006Y-62334571D01*
X187754462Y-62333451D01*
X187563541Y-62295478D01*
X187552795Y-62292837D01*
X187517648Y-62282517D01*
X187512727Y-62280960D01*
X187319762Y-62215461D01*
X187308104Y-62210834D01*
X187291829Y-62203401D01*
X187288501Y-62201821D01*
X187092059Y-62104951D01*
X187078012Y-62096841D01*
X186896107Y-61975300D01*
X186884388Y-61967470D01*
X186871522Y-61957598D01*
X186866413Y-61953118D01*
X186696438Y-61804055D01*
X186684969Y-61792586D01*
X186620256Y-61718797D01*
X186531424Y-61617506D01*
X186521552Y-61604641D01*
X186520677Y-61603332D01*
X186392175Y-61411016D01*
X186384067Y-61396974D01*
X186381095Y-61390947D01*
X186287162Y-61200473D01*
X186285599Y-61197178D01*
X186283138Y-61191790D01*
X186278176Y-61180924D01*
X186273555Y-61169283D01*
X186208045Y-60976299D01*
X186206492Y-60971388D01*
X186196163Y-60936210D01*
X186193534Y-60925516D01*
X186155556Y-60734587D01*
X186154436Y-60728048D01*
X186148054Y-60683665D01*
X186147062Y-60674166D01*
X186132803Y-60456622D01*
X186132538Y-60448609D01*
X186132500Y-60401019D01*
X186132500Y-60400194D01*
X186132507Y-60400170D01*
X186132500Y-60400104D01*
X186132531Y-57980996D01*
X191577499Y-57980996D01*
X191604418Y-58116322D01*
X191604421Y-58116332D01*
X191657222Y-58243807D01*
X191733887Y-58358545D01*
X191831454Y-58456112D01*
X191946192Y-58532777D01*
X192073667Y-58585578D01*
X192073672Y-58585580D01*
X192073676Y-58585580D01*
X192073677Y-58585581D01*
X192209003Y-58612500D01*
X192209006Y-58612500D01*
X192346996Y-58612500D01*
X192438040Y-58594389D01*
X192482328Y-58585580D01*
X192546069Y-58559177D01*
X192609807Y-58532777D01*
X192609808Y-58532776D01*
X192609811Y-58532775D01*
X192724543Y-58456114D01*
X192724546Y-58456111D01*
X192746228Y-58434430D01*
X192807551Y-58400945D01*
X192833909Y-58398111D01*
X197890200Y-58398111D01*
X197957239Y-58417796D01*
X198002994Y-58470600D01*
X198012938Y-58539758D01*
X197983913Y-58603314D01*
X197977881Y-58609792D01*
X196843537Y-59744135D01*
X196843533Y-59744141D01*
X196800681Y-59818362D01*
X196800680Y-59818362D01*
X196790089Y-59857895D01*
X196790089Y-59857896D01*
X196778500Y-59901146D01*
X196778500Y-60445702D01*
X196758815Y-60512741D01*
X196755931Y-60517031D01*
X196749765Y-60525798D01*
X196720480Y-60555084D01*
X196680616Y-60624129D01*
X196677431Y-60628660D01*
X196654256Y-60647107D01*
X196632821Y-60667546D01*
X196627224Y-60668624D01*
X196622766Y-60672174D01*
X196593299Y-60675163D01*
X196564214Y-60680770D01*
X196558922Y-60678651D01*
X196553253Y-60679227D01*
X196526846Y-60665810D01*
X196499349Y-60654802D01*
X196494762Y-60649508D01*
X196490962Y-60647578D01*
X196486535Y-60640014D01*
X196468613Y-60619331D01*
X196431522Y-60555087D01*
X196431518Y-60555082D01*
X196319717Y-60443281D01*
X196319709Y-60443275D01*
X196182790Y-60364226D01*
X196182786Y-60364224D01*
X196182784Y-60364223D01*
X196030057Y-60323300D01*
X195871943Y-60323300D01*
X195719216Y-60364223D01*
X195719209Y-60364226D01*
X195582290Y-60443275D01*
X195582282Y-60443281D01*
X195470481Y-60555082D01*
X195470475Y-60555090D01*
X195391426Y-60692009D01*
X195391423Y-60692016D01*
X195350500Y-60844743D01*
X195350500Y-61002857D01*
X195384900Y-61131237D01*
X195391423Y-61155583D01*
X195391426Y-61155590D01*
X195470475Y-61292509D01*
X195470479Y-61292514D01*
X195470480Y-61292516D01*
X195582284Y-61404320D01*
X195582286Y-61404321D01*
X195582290Y-61404324D01*
X195688200Y-61465470D01*
X195719216Y-61483377D01*
X195871943Y-61524300D01*
X195871945Y-61524300D01*
X196038185Y-61524300D01*
X196038185Y-61527483D01*
X196092398Y-61535902D01*
X196127302Y-61560429D01*
X196477138Y-61910265D01*
X196551361Y-61953118D01*
X196634147Y-61975300D01*
X196634149Y-61975300D01*
X197544571Y-61975300D01*
X197544573Y-61975300D01*
X197627359Y-61953118D01*
X197701582Y-61910265D01*
X198126859Y-61484986D01*
X198126862Y-61484985D01*
X198167980Y-61443866D01*
X198220170Y-61415370D01*
X198229297Y-61410386D01*
X198229298Y-61410386D01*
X198229300Y-61410385D01*
X198273191Y-61413525D01*
X198298988Y-61415370D01*
X198298989Y-61415370D01*
X198298992Y-61415371D01*
X198298995Y-61415373D01*
X198317655Y-61424164D01*
X198420216Y-61483377D01*
X198572943Y-61524300D01*
X198572945Y-61524300D01*
X198731055Y-61524300D01*
X198731057Y-61524300D01*
X198883784Y-61483377D01*
X199020716Y-61404320D01*
X199088819Y-61336217D01*
X199150142Y-61302732D01*
X199219834Y-61307716D01*
X199264181Y-61336217D01*
X199332284Y-61404320D01*
X199332286Y-61404321D01*
X199332290Y-61404324D01*
X199438200Y-61465470D01*
X199469216Y-61483377D01*
X199621943Y-61524300D01*
X199621945Y-61524300D01*
X199780055Y-61524300D01*
X199780057Y-61524300D01*
X199932784Y-61483377D01*
X200069716Y-61404320D01*
X200181520Y-61292516D01*
X200181520Y-61292515D01*
X200187267Y-61286769D01*
X200189512Y-61289014D01*
X200233855Y-61256621D01*
X200275830Y-61249300D01*
X205161560Y-61249300D01*
X205228599Y-61268985D01*
X205274354Y-61321789D01*
X205284298Y-61390947D01*
X205268948Y-61435299D01*
X205260111Y-61450604D01*
X205260111Y-61450605D01*
X205219188Y-61603332D01*
X205219188Y-61761446D01*
X205259064Y-61910263D01*
X205260111Y-61914172D01*
X205260114Y-61914179D01*
X205339163Y-62051098D01*
X205339167Y-62051103D01*
X205339168Y-62051105D01*
X205450972Y-62162909D01*
X205450974Y-62162910D01*
X205450978Y-62162913D01*
X205587897Y-62241962D01*
X205587904Y-62241966D01*
X205740631Y-62282889D01*
X205740633Y-62282889D01*
X205747787Y-62283831D01*
X205811684Y-62312096D01*
X205819285Y-62319089D01*
X206523181Y-63022985D01*
X206556666Y-63084308D01*
X206559500Y-63110666D01*
X206559500Y-80774869D01*
X206583712Y-80865233D01*
X206590200Y-80889446D01*
X206590200Y-80889447D01*
X206590201Y-80889448D01*
X206649511Y-80992175D01*
X206649513Y-80992177D01*
X207461252Y-81803916D01*
X207494737Y-81865239D01*
X207496509Y-81875407D01*
X207497451Y-81882564D01*
X207538376Y-82035297D01*
X207538379Y-82035304D01*
X207617428Y-82172223D01*
X207617432Y-82172228D01*
X207617433Y-82172230D01*
X207729237Y-82284034D01*
X207729239Y-82284035D01*
X207729243Y-82284038D01*
X207866162Y-82363087D01*
X207866169Y-82363091D01*
X208018896Y-82404014D01*
X208018898Y-82404014D01*
X208177008Y-82404014D01*
X208177010Y-82404014D01*
X208329737Y-82363091D01*
X208466669Y-82284034D01*
X208578473Y-82172230D01*
X208657530Y-82035298D01*
X208698453Y-81882571D01*
X208698453Y-81724457D01*
X208657530Y-81571730D01*
X208657526Y-81571723D01*
X208578477Y-81434804D01*
X208578471Y-81434796D01*
X208466670Y-81322995D01*
X208466662Y-81322989D01*
X208329743Y-81243940D01*
X208329739Y-81243938D01*
X208329737Y-81243937D01*
X208177010Y-81203014D01*
X208177003Y-81203012D01*
X208169846Y-81202070D01*
X208105950Y-81173801D01*
X208098355Y-81166813D01*
X207496819Y-80565277D01*
X207463334Y-80503954D01*
X207460500Y-80477596D01*
X207460500Y-62813394D01*
X207460500Y-62813392D01*
X207429799Y-62698815D01*
X207390332Y-62630457D01*
X207370489Y-62596087D01*
X206456388Y-61681986D01*
X206425291Y-61629912D01*
X206420188Y-61612889D01*
X206420188Y-61603332D01*
X206379265Y-61450605D01*
X206363193Y-61422767D01*
X206359038Y-61408907D01*
X206358918Y-61387854D01*
X206353957Y-61367399D01*
X206358725Y-61353621D01*
X206358643Y-61339039D01*
X206369923Y-61321265D01*
X206376809Y-61301372D01*
X206388271Y-61292357D01*
X206396085Y-61280048D01*
X206415182Y-61271195D01*
X206431731Y-61258182D01*
X206451458Y-61254379D01*
X206459475Y-61250664D01*
X206466038Y-61251569D01*
X206477816Y-61249300D01*
X207830500Y-61249300D01*
X207897539Y-61268985D01*
X207943294Y-61321789D01*
X207954500Y-61373300D01*
X207954500Y-68390629D01*
X207934815Y-68457668D01*
X207918181Y-68478310D01*
X207776156Y-68620334D01*
X207776152Y-68620340D01*
X207733300Y-68694560D01*
X207726217Y-68720998D01*
X207726217Y-68720999D01*
X207717857Y-68752201D01*
X207711119Y-68777346D01*
X207711119Y-69378786D01*
X207711119Y-69464492D01*
X207716992Y-69486410D01*
X207733301Y-69547279D01*
X207758042Y-69590132D01*
X207776154Y-69621501D01*
X207918182Y-69763528D01*
X207951666Y-69824849D01*
X207954500Y-69851208D01*
X207954500Y-71350604D01*
X207976683Y-71433394D01*
X208013934Y-71497914D01*
X208030407Y-71565814D01*
X208029487Y-71576096D01*
X208029186Y-71578382D01*
X208029186Y-71736494D01*
X208070109Y-71889221D01*
X208070112Y-71889228D01*
X208149161Y-72026147D01*
X208149165Y-72026152D01*
X208149166Y-72026154D01*
X208260970Y-72137958D01*
X208260972Y-72137959D01*
X208260976Y-72137962D01*
X208379736Y-72206527D01*
X208397902Y-72217015D01*
X208550629Y-72257938D01*
X208550631Y-72257938D01*
X208708741Y-72257938D01*
X208708743Y-72257938D01*
X208861470Y-72217015D01*
X208998402Y-72137958D01*
X209110206Y-72026154D01*
X209189263Y-71889222D01*
X209230186Y-71736495D01*
X209230186Y-71578381D01*
X209189263Y-71425654D01*
X209145934Y-71350605D01*
X209110210Y-71288728D01*
X209110204Y-71288720D01*
X208998403Y-71176919D01*
X208998395Y-71176913D01*
X208861476Y-71097864D01*
X208861472Y-71097862D01*
X208861470Y-71097861D01*
X208708743Y-71056938D01*
X208708742Y-71056938D01*
X208700893Y-71054835D01*
X208701559Y-71052346D01*
X208649390Y-71029249D01*
X208610936Y-70970913D01*
X208605500Y-70934600D01*
X208605500Y-69845419D01*
X208625185Y-69778380D01*
X208677989Y-69732625D01*
X208729500Y-69721419D01*
X208841674Y-69721419D01*
X208841676Y-69721419D01*
X208994403Y-69680496D01*
X209131335Y-69601439D01*
X209243139Y-69489635D01*
X209322196Y-69352703D01*
X209363119Y-69199976D01*
X209363119Y-69041862D01*
X209322196Y-68889135D01*
X209266408Y-68792506D01*
X209243143Y-68752209D01*
X209243137Y-68752201D01*
X209125588Y-68634652D01*
X209127826Y-68632413D01*
X209095417Y-68587999D01*
X209088119Y-68546088D01*
X209088119Y-60764768D01*
X209088119Y-60764766D01*
X209071712Y-60703534D01*
X209065937Y-60681980D01*
X209023084Y-60607757D01*
X208134508Y-59719181D01*
X208101023Y-59657858D01*
X208106007Y-59588166D01*
X208147879Y-59532233D01*
X208213343Y-59507816D01*
X208222189Y-59507500D01*
X210125811Y-59507500D01*
X210192850Y-59527185D01*
X210213492Y-59543819D01*
X215538181Y-64868508D01*
X215571666Y-64929831D01*
X215574500Y-64956189D01*
X215574500Y-69012673D01*
X215596682Y-69095461D01*
X215615608Y-69128241D01*
X215639535Y-69169683D01*
X219763077Y-73293225D01*
X223870036Y-77400183D01*
X223884798Y-77427218D01*
X223901402Y-77453168D01*
X223901799Y-77458353D01*
X223903521Y-77461506D01*
X223906355Y-77488113D01*
X223906337Y-77496789D01*
X223906166Y-77497430D01*
X223906166Y-77582395D01*
X223896223Y-77616005D01*
X223886481Y-77649185D01*
X223886383Y-77649269D01*
X223886347Y-77649394D01*
X223859890Y-77672225D01*
X223833677Y-77694940D01*
X223833549Y-77694958D01*
X223833451Y-77695043D01*
X223799073Y-77699915D01*
X223764519Y-77704884D01*
X223764400Y-77704829D01*
X223764273Y-77704848D01*
X223732783Y-77690390D01*
X223700963Y-77675859D01*
X223700799Y-77675706D01*
X223700776Y-77675696D01*
X223700758Y-77675668D01*
X223694485Y-77669827D01*
X219394545Y-73369887D01*
X219279807Y-73293222D01*
X219152332Y-73240421D01*
X219152322Y-73240418D01*
X219016996Y-73213500D01*
X219016994Y-73213500D01*
X218879006Y-73213500D01*
X218879004Y-73213500D01*
X218743677Y-73240418D01*
X218743667Y-73240421D01*
X218616192Y-73293222D01*
X218501454Y-73369887D01*
X218403887Y-73467454D01*
X218327222Y-73582192D01*
X218274421Y-73709667D01*
X218274418Y-73709677D01*
X218247500Y-73845003D01*
X218247500Y-73845006D01*
X218247500Y-73982994D01*
X218247500Y-73982996D01*
X218247499Y-73982996D01*
X218274418Y-74118322D01*
X218274421Y-74118332D01*
X218327222Y-74245807D01*
X218403887Y-74360545D01*
X223264941Y-79221599D01*
X223379679Y-79298264D01*
X223507154Y-79351065D01*
X223507159Y-79351067D01*
X223507163Y-79351067D01*
X223507164Y-79351068D01*
X223642490Y-79377987D01*
X223642493Y-79377987D01*
X225031712Y-79377987D01*
X225122756Y-79359876D01*
X225167044Y-79351067D01*
X225230785Y-79324664D01*
X225294523Y-79298264D01*
X225294524Y-79298263D01*
X225294527Y-79298262D01*
X225409259Y-79221601D01*
X226350114Y-78280746D01*
X226411867Y-78188324D01*
X226465479Y-78143519D01*
X226534804Y-78134812D01*
X226597832Y-78164966D01*
X226602651Y-78169534D01*
X226638332Y-78205215D01*
X226638334Y-78205216D01*
X226638338Y-78205219D01*
X226769157Y-78280746D01*
X226775264Y-78284272D01*
X226927991Y-78325195D01*
X226927993Y-78325195D01*
X227086103Y-78325195D01*
X227086105Y-78325195D01*
X227238832Y-78284272D01*
X227375764Y-78205215D01*
X227487568Y-78093411D01*
X227566625Y-77956479D01*
X227607548Y-77803752D01*
X227607548Y-77803739D01*
X227608489Y-77796596D01*
X227636755Y-77732698D01*
X227643736Y-77725109D01*
X228158053Y-77210793D01*
X228202561Y-77133703D01*
X228217363Y-77108065D01*
X228248064Y-76993488D01*
X228248064Y-70692262D01*
X228267749Y-70625223D01*
X228273692Y-70616770D01*
X228278076Y-70611055D01*
X228278084Y-70611048D01*
X228283156Y-70602264D01*
X228326894Y-70526506D01*
X228357141Y-70474116D01*
X228398064Y-70321389D01*
X228398064Y-70163275D01*
X228357141Y-70010548D01*
X228315751Y-69938857D01*
X228278088Y-69873622D01*
X228278082Y-69873614D01*
X228166281Y-69761813D01*
X228166273Y-69761807D01*
X228029354Y-69682758D01*
X228029350Y-69682756D01*
X228029348Y-69682755D01*
X227876621Y-69641832D01*
X227718507Y-69641832D01*
X227565780Y-69682755D01*
X227565773Y-69682758D01*
X227428854Y-69761807D01*
X227428846Y-69761813D01*
X227317045Y-69873614D01*
X227317039Y-69873622D01*
X227237990Y-70010541D01*
X227237987Y-70010548D01*
X227197064Y-70163275D01*
X227197064Y-70321389D01*
X227230842Y-70447448D01*
X227237987Y-70474115D01*
X227237990Y-70474122D01*
X227317037Y-70611038D01*
X227317041Y-70611044D01*
X227317044Y-70611048D01*
X227317046Y-70611050D01*
X227321436Y-70616770D01*
X227346633Y-70681938D01*
X227347064Y-70692262D01*
X227347064Y-75739926D01*
X227327379Y-75806965D01*
X227274575Y-75852720D01*
X227205417Y-75862664D01*
X227175612Y-75854488D01*
X227123734Y-75833000D01*
X227050892Y-75802828D01*
X227050887Y-75802827D01*
X227050886Y-75802826D01*
X226915559Y-75775908D01*
X226915557Y-75775908D01*
X226385150Y-75775908D01*
X226247163Y-75775908D01*
X226247161Y-75775908D01*
X226111833Y-75802826D01*
X226111823Y-75802829D01*
X225984348Y-75855630D01*
X225869610Y-75932295D01*
X225261887Y-76540018D01*
X225185222Y-76654756D01*
X225132421Y-76782231D01*
X225132418Y-76782243D01*
X225111610Y-76886850D01*
X225111609Y-76886857D01*
X225109750Y-76896207D01*
X225105500Y-76917571D01*
X225105500Y-77029374D01*
X225105386Y-77032034D01*
X225094938Y-77062689D01*
X225085815Y-77093762D01*
X225083735Y-77095563D01*
X225082848Y-77098169D01*
X225057478Y-77118315D01*
X225033011Y-77139517D01*
X225030288Y-77139908D01*
X225028133Y-77141620D01*
X224995912Y-77144851D01*
X224963853Y-77149461D01*
X224961349Y-77148317D01*
X224958612Y-77148592D01*
X224929762Y-77133892D01*
X224900297Y-77120436D01*
X224896604Y-77116997D01*
X224896358Y-77116872D01*
X224896225Y-77116644D01*
X224893819Y-77114404D01*
X224875383Y-77095968D01*
X224875375Y-77095962D01*
X224738456Y-77016913D01*
X224738452Y-77016911D01*
X224738450Y-77016910D01*
X224585723Y-76975987D01*
X224427609Y-76975987D01*
X224419482Y-76975987D01*
X224419482Y-76972821D01*
X224365159Y-76964333D01*
X224330362Y-76939857D01*
X216261819Y-68871313D01*
X216228334Y-68809990D01*
X216225500Y-68783632D01*
X216225500Y-66363188D01*
X216245185Y-66296149D01*
X216297989Y-66250394D01*
X216367147Y-66240450D01*
X216430703Y-66269475D01*
X216437181Y-66275507D01*
X217199533Y-67037859D01*
X217199535Y-67037862D01*
X217260138Y-67098465D01*
X217271260Y-67104886D01*
X217282389Y-67111311D01*
X217291960Y-67119878D01*
X217292993Y-67121543D01*
X217297045Y-67124652D01*
X217609346Y-67436952D01*
X217629052Y-67462633D01*
X217635536Y-67473864D01*
X224277780Y-74116107D01*
X224311265Y-74177430D01*
X224314099Y-74203788D01*
X224314099Y-74465137D01*
X224294414Y-74532176D01*
X224275581Y-74552652D01*
X224276630Y-74553701D01*
X224159080Y-74671250D01*
X224159074Y-74671258D01*
X224080025Y-74808177D01*
X224080022Y-74808184D01*
X224039099Y-74960911D01*
X224039099Y-75119025D01*
X224072195Y-75242539D01*
X224080022Y-75271751D01*
X224080025Y-75271758D01*
X224159074Y-75408677D01*
X224159078Y-75408682D01*
X224159079Y-75408684D01*
X224270883Y-75520488D01*
X224270885Y-75520489D01*
X224270889Y-75520492D01*
X224392086Y-75590464D01*
X224407815Y-75599545D01*
X224560542Y-75640468D01*
X224560544Y-75640468D01*
X224718654Y-75640468D01*
X224718656Y-75640468D01*
X224871383Y-75599545D01*
X225008315Y-75520488D01*
X225120119Y-75408684D01*
X225199176Y-75271752D01*
X225240099Y-75119025D01*
X225240099Y-74960911D01*
X225199176Y-74808184D01*
X225170190Y-74757978D01*
X225120123Y-74671258D01*
X225120117Y-74671250D01*
X225002568Y-74553701D01*
X225004806Y-74551462D01*
X224972397Y-74507048D01*
X224965099Y-74465137D01*
X224965099Y-73974748D01*
X224965099Y-73974746D01*
X224950019Y-73918466D01*
X224950019Y-73918464D01*
X224942918Y-73891962D01*
X224942917Y-73891960D01*
X224900064Y-73817737D01*
X224271239Y-73188912D01*
X224237754Y-73127589D01*
X224242738Y-73057897D01*
X224284610Y-73001964D01*
X224350074Y-72977547D01*
X224418347Y-72992399D01*
X224420920Y-72993844D01*
X224439794Y-73004741D01*
X224540748Y-73063026D01*
X224693475Y-73103949D01*
X224693477Y-73103949D01*
X224851587Y-73103949D01*
X224851589Y-73103949D01*
X225004316Y-73063026D01*
X225141248Y-72983969D01*
X225253052Y-72872165D01*
X225332109Y-72735233D01*
X225373032Y-72582506D01*
X225373032Y-72424392D01*
X225332109Y-72271665D01*
X225294502Y-72206527D01*
X225253056Y-72134739D01*
X225253050Y-72134731D01*
X225141249Y-72022930D01*
X225141241Y-72022924D01*
X225004322Y-71943875D01*
X225004318Y-71943873D01*
X225004316Y-71943872D01*
X224851589Y-71902949D01*
X224693475Y-71902949D01*
X224685348Y-71902949D01*
X224685348Y-71899781D01*
X224631036Y-71891300D01*
X224596229Y-71866819D01*
X222949024Y-70219614D01*
X222915539Y-70158291D01*
X222912705Y-70131933D01*
X222912705Y-69887873D01*
X224304966Y-69887873D01*
X224304966Y-70045987D01*
X224341758Y-70183295D01*
X224345889Y-70198713D01*
X224345892Y-70198720D01*
X224424941Y-70335639D01*
X224424945Y-70335644D01*
X224424946Y-70335646D01*
X224536750Y-70447450D01*
X224536752Y-70447451D01*
X224536756Y-70447454D01*
X224658923Y-70517986D01*
X224673682Y-70526507D01*
X224826409Y-70567430D01*
X224826411Y-70567430D01*
X224984521Y-70567430D01*
X224984523Y-70567430D01*
X225137250Y-70526507D01*
X225274182Y-70447450D01*
X225385986Y-70335646D01*
X225465043Y-70198714D01*
X225505966Y-70045987D01*
X225505966Y-69887873D01*
X225505966Y-69879745D01*
X225509146Y-69879745D01*
X225517578Y-69825509D01*
X225542092Y-69790629D01*
X229297652Y-66035068D01*
X229297657Y-66035065D01*
X229307860Y-66024861D01*
X229307862Y-66024861D01*
X229368465Y-65964258D01*
X229411318Y-65890034D01*
X229420802Y-65854639D01*
X229433501Y-65807248D01*
X229433501Y-65721543D01*
X229433500Y-65721539D01*
X229433500Y-61534830D01*
X229453185Y-61467791D01*
X229472022Y-61447320D01*
X229470969Y-61446267D01*
X229529382Y-61387854D01*
X229588520Y-61328716D01*
X229667577Y-61191784D01*
X229708500Y-61039057D01*
X229708500Y-60880943D01*
X229667577Y-60728216D01*
X229667480Y-60728048D01*
X229588524Y-60591290D01*
X229588518Y-60591282D01*
X229476717Y-60479481D01*
X229476709Y-60479475D01*
X229339790Y-60400426D01*
X229339786Y-60400424D01*
X229339784Y-60400423D01*
X229187057Y-60359500D01*
X229028943Y-60359500D01*
X228876216Y-60400423D01*
X228876209Y-60400426D01*
X228739290Y-60479475D01*
X228739282Y-60479481D01*
X228627481Y-60591282D01*
X228627475Y-60591290D01*
X228548426Y-60728209D01*
X228548423Y-60728216D01*
X228507500Y-60880943D01*
X228507500Y-61039057D01*
X228542392Y-61169274D01*
X228548423Y-61191783D01*
X228548426Y-61191790D01*
X228627475Y-61328709D01*
X228627481Y-61328717D01*
X228745031Y-61446267D01*
X228742785Y-61448512D01*
X228775179Y-61492855D01*
X228782500Y-61534830D01*
X228782500Y-65578206D01*
X228762815Y-65645245D01*
X228746181Y-65665887D01*
X225081767Y-69330300D01*
X225020444Y-69363785D01*
X224992650Y-69364944D01*
X224992650Y-69366430D01*
X224826409Y-69366430D01*
X224673682Y-69407353D01*
X224673675Y-69407356D01*
X224536756Y-69486405D01*
X224536748Y-69486411D01*
X224424947Y-69598212D01*
X224424941Y-69598220D01*
X224345892Y-69735139D01*
X224345889Y-69735146D01*
X224304966Y-69887873D01*
X222912705Y-69887873D01*
X222912705Y-59316314D01*
X222932390Y-59249275D01*
X222985194Y-59203520D01*
X223054352Y-59193576D01*
X223117908Y-59222601D01*
X223124386Y-59228633D01*
X224129861Y-60234109D01*
X224129864Y-60234112D01*
X224175111Y-60264345D01*
X224175110Y-60264345D01*
X224244588Y-60310768D01*
X224244592Y-60310770D01*
X224244599Y-60310775D01*
X224334742Y-60348113D01*
X224372081Y-60363580D01*
X224399001Y-60368934D01*
X224487705Y-60386578D01*
X224507416Y-60390500D01*
X224507417Y-60390500D01*
X226679696Y-60390500D01*
X226788157Y-60368925D01*
X226815028Y-60363580D01*
X226878769Y-60337177D01*
X226942507Y-60310777D01*
X226942508Y-60310776D01*
X226942511Y-60310775D01*
X227057243Y-60234114D01*
X228484894Y-58806463D01*
X228546217Y-58772978D01*
X228615909Y-58777962D01*
X228660256Y-58806463D01*
X230087903Y-60234111D01*
X230087904Y-60234112D01*
X230202640Y-60310776D01*
X230301240Y-60351617D01*
X230330121Y-60363580D01*
X230330122Y-60363580D01*
X230330127Y-60363582D01*
X230356995Y-60368925D01*
X230357001Y-60368926D01*
X230357041Y-60368934D01*
X230445947Y-60386619D01*
X230465456Y-60390500D01*
X230465457Y-60390500D01*
X232219944Y-60390500D01*
X232328405Y-60368925D01*
X232355276Y-60363580D01*
X232419017Y-60337177D01*
X232482755Y-60310777D01*
X232482756Y-60310776D01*
X232482759Y-60310775D01*
X232597491Y-60234114D01*
X234402937Y-58428668D01*
X234479598Y-58313936D01*
X234532403Y-58186453D01*
X234547046Y-58112837D01*
X234559323Y-58051121D01*
X234559323Y-57913128D01*
X234532404Y-57777802D01*
X234532403Y-57777801D01*
X234532403Y-57777797D01*
X234519407Y-57746421D01*
X234479600Y-57650317D01*
X234402935Y-57535579D01*
X234305368Y-57438012D01*
X234190630Y-57361347D01*
X234063155Y-57308546D01*
X234063145Y-57308543D01*
X233927819Y-57281625D01*
X233927817Y-57281625D01*
X233789829Y-57281625D01*
X233789827Y-57281625D01*
X233654500Y-57308543D01*
X233654490Y-57308546D01*
X233527015Y-57361347D01*
X233412277Y-57438012D01*
X233412276Y-57438013D01*
X231897110Y-58953181D01*
X231835787Y-58986666D01*
X231809429Y-58989500D01*
X230875969Y-58989500D01*
X230808930Y-58969815D01*
X230788288Y-58953181D01*
X229019121Y-57184013D01*
X229019120Y-57184012D01*
X228904382Y-57107347D01*
X228776907Y-57054546D01*
X228776897Y-57054543D01*
X228641571Y-57027625D01*
X228641569Y-57027625D01*
X228503581Y-57027625D01*
X228503576Y-57027625D01*
X228390697Y-57050078D01*
X228368248Y-57054544D01*
X228368244Y-57054545D01*
X228240765Y-57107348D01*
X228126029Y-57184012D01*
X228126028Y-57184013D01*
X226356862Y-58953181D01*
X226295539Y-58986666D01*
X226269181Y-58989500D01*
X224917929Y-58989500D01*
X224850890Y-58969815D01*
X224830248Y-58953181D01*
X223936779Y-58059711D01*
X223903294Y-57998388D01*
X223908278Y-57928696D01*
X223950150Y-57872763D01*
X224015614Y-57848346D01*
X224024460Y-57848030D01*
X224858640Y-57848030D01*
X224925679Y-57867715D01*
X224946149Y-57886552D01*
X224947203Y-57885499D01*
X224952950Y-57891246D01*
X225064754Y-58003050D01*
X225064756Y-58003051D01*
X225064760Y-58003054D01*
X225201679Y-58082103D01*
X225201686Y-58082107D01*
X225354413Y-58123030D01*
X225354415Y-58123030D01*
X225512525Y-58123030D01*
X225512527Y-58123030D01*
X225665254Y-58082107D01*
X225802186Y-58003050D01*
X225913990Y-57891246D01*
X225993047Y-57754314D01*
X226033970Y-57601587D01*
X226033970Y-57443473D01*
X225993047Y-57290746D01*
X225970140Y-57251069D01*
X225913994Y-57153820D01*
X225913988Y-57153812D01*
X225802187Y-57042011D01*
X225802179Y-57042005D01*
X225665260Y-56962956D01*
X225665256Y-56962954D01*
X225665254Y-56962953D01*
X225512527Y-56922030D01*
X225354413Y-56922030D01*
X225201686Y-56962953D01*
X225201679Y-56962956D01*
X225064760Y-57042005D01*
X225064752Y-57042011D01*
X224947203Y-57159561D01*
X224944957Y-57157315D01*
X224900615Y-57189709D01*
X224858640Y-57197030D01*
X223206477Y-57197030D01*
X223123689Y-57219212D01*
X223049468Y-57262065D01*
X223049465Y-57262067D01*
X222326742Y-57984790D01*
X222326740Y-57984793D01*
X222283887Y-58059016D01*
X222274957Y-58092344D01*
X222274957Y-58092345D01*
X222274956Y-58092344D01*
X222261705Y-58141800D01*
X222261705Y-70360974D01*
X222283887Y-70443762D01*
X222305313Y-70480872D01*
X222326740Y-70517984D01*
X222326742Y-70517986D01*
X224135902Y-72327146D01*
X224169387Y-72388469D01*
X224170549Y-72416265D01*
X224172032Y-72416265D01*
X224172032Y-72582505D01*
X224212955Y-72735232D01*
X224212955Y-72735233D01*
X224282137Y-72855061D01*
X224298609Y-72922961D01*
X224275756Y-72988988D01*
X224220834Y-73032178D01*
X224151281Y-73038819D01*
X224089179Y-73006802D01*
X224087068Y-73004741D01*
X221082507Y-70000180D01*
X221049022Y-69938857D01*
X221054006Y-69869165D01*
X221095878Y-69813232D01*
X221161342Y-69788815D01*
X221170188Y-69788499D01*
X221302995Y-69788499D01*
X221302996Y-69788498D01*
X221438328Y-69761580D01*
X221565811Y-69708774D01*
X221680543Y-69632113D01*
X221778113Y-69534543D01*
X221854774Y-69419811D01*
X221907580Y-69292328D01*
X221934499Y-69156994D01*
X221934499Y-69019006D01*
X221907580Y-68883671D01*
X221854774Y-68756189D01*
X221854772Y-68756186D01*
X221854770Y-68756182D01*
X221778113Y-68641456D01*
X220531819Y-67395162D01*
X220498334Y-67333839D01*
X220495500Y-67307481D01*
X220495500Y-63008006D01*
X220489155Y-62976112D01*
X220489155Y-62976109D01*
X220472280Y-62891273D01*
X220468580Y-62872672D01*
X220467592Y-62870286D01*
X220415777Y-62745192D01*
X220339112Y-62630454D01*
X215584545Y-57875887D01*
X215469807Y-57799222D01*
X215342332Y-57746421D01*
X215342322Y-57746418D01*
X215206996Y-57719500D01*
X215206994Y-57719500D01*
X215069006Y-57719500D01*
X215069004Y-57719500D01*
X214933677Y-57746418D01*
X214933667Y-57746421D01*
X214806192Y-57799222D01*
X214691454Y-57875887D01*
X214593887Y-57973454D01*
X214517222Y-58088192D01*
X214464421Y-58215667D01*
X214464418Y-58215677D01*
X214437500Y-58351003D01*
X214437500Y-58351006D01*
X214437500Y-58488994D01*
X214437500Y-58488996D01*
X214437499Y-58488996D01*
X214464418Y-58624322D01*
X214464421Y-58624332D01*
X214517222Y-58751807D01*
X214593887Y-58866545D01*
X214593888Y-58866546D01*
X219058181Y-63330838D01*
X219091666Y-63392161D01*
X219094500Y-63418519D01*
X219094500Y-67712811D01*
X219074815Y-67779850D01*
X219022011Y-67825605D01*
X218952853Y-67835549D01*
X218889297Y-67806524D01*
X218882819Y-67800492D01*
X218182653Y-67100326D01*
X218177925Y-67095328D01*
X218169363Y-67085759D01*
X218156465Y-67063418D01*
X218095862Y-67002815D01*
X218095859Y-67002813D01*
X218089096Y-66996050D01*
X218089088Y-66996041D01*
X217670584Y-66577536D01*
X217659350Y-66571050D01*
X217633671Y-66551345D01*
X216712819Y-65630492D01*
X216679334Y-65569169D01*
X216676500Y-65542811D01*
X216676500Y-64636045D01*
X216676501Y-64636032D01*
X216676501Y-64540338D01*
X216675445Y-64536397D01*
X216654318Y-64457552D01*
X216626439Y-64409264D01*
X216611465Y-64383328D01*
X216550862Y-64322725D01*
X216550859Y-64322723D01*
X210641672Y-58413535D01*
X210604560Y-58392108D01*
X210567450Y-58370682D01*
X210522145Y-58358543D01*
X210484663Y-58348500D01*
X210484662Y-58348500D01*
X206806899Y-58348500D01*
X206739860Y-58328815D01*
X206694105Y-58276011D01*
X206684161Y-58206853D01*
X206709438Y-58149483D01*
X206709042Y-58149218D01*
X206710549Y-58146961D01*
X206711046Y-58145835D01*
X206712426Y-58144153D01*
X206789083Y-58029428D01*
X206789083Y-58029427D01*
X206789087Y-58029422D01*
X206841892Y-57901939D01*
X206856611Y-57827944D01*
X206868812Y-57766606D01*
X206868812Y-57628615D01*
X206841893Y-57493288D01*
X206841892Y-57493287D01*
X206841892Y-57493283D01*
X206836820Y-57481038D01*
X206789090Y-57365806D01*
X206789083Y-57365793D01*
X206712426Y-57251069D01*
X206712423Y-57251065D01*
X206614857Y-57153499D01*
X206614853Y-57153496D01*
X206500129Y-57076839D01*
X206500116Y-57076832D01*
X206372644Y-57024032D01*
X206372634Y-57024029D01*
X206237307Y-56997111D01*
X206237305Y-56997111D01*
X192561383Y-56997111D01*
X192423395Y-56997111D01*
X192423393Y-56997111D01*
X192288066Y-57024029D01*
X192288056Y-57024032D01*
X192160581Y-57076833D01*
X192045843Y-57153498D01*
X191733887Y-57465454D01*
X191657222Y-57580192D01*
X191604421Y-57707667D01*
X191604418Y-57707677D01*
X191577500Y-57843003D01*
X191577500Y-57843006D01*
X191577500Y-57980994D01*
X191577500Y-57980996D01*
X191577499Y-57980996D01*
X186132531Y-57980996D01*
X186132537Y-57485070D01*
X186132800Y-57477025D01*
X186147096Y-57258861D01*
X186148087Y-57249381D01*
X186154476Y-57204940D01*
X186155580Y-57198494D01*
X186193563Y-57007521D01*
X186196192Y-56996826D01*
X186206549Y-56961555D01*
X186208056Y-56956788D01*
X186273583Y-56763745D01*
X186278194Y-56752129D01*
X186285655Y-56735794D01*
X186287219Y-56732500D01*
X186384087Y-56536069D01*
X186392192Y-56522027D01*
X186521576Y-56328389D01*
X186531438Y-56315537D01*
X186684988Y-56140446D01*
X186696446Y-56128988D01*
X186871537Y-55975438D01*
X186884398Y-55965571D01*
X187078027Y-55836193D01*
X187092061Y-55828090D01*
X187288561Y-55731188D01*
X187291655Y-55729718D01*
X187308157Y-55722182D01*
X187319759Y-55717579D01*
X187512764Y-55652065D01*
X187517551Y-55650550D01*
X187552851Y-55640186D01*
X187563530Y-55637561D01*
X187754486Y-55599581D01*
X187760956Y-55598474D01*
X187805400Y-55592085D01*
X187814861Y-55591096D01*
X188019870Y-55577662D01*
X188032995Y-55576803D01*
X188041102Y-55576538D01*
X188066263Y-55576538D01*
X188068282Y-55576554D01*
G37*
%TD.AperFunction*%
%TD*%
%TA.AperFunction,Conductor*%
%TO.N,GND*%
G36*
X160600047Y-65384983D02*
G01*
X160655980Y-65426855D01*
X160680397Y-65492319D01*
X160680713Y-65501165D01*
X160680713Y-66780097D01*
X160661028Y-66847136D01*
X160644394Y-66867778D01*
X157988801Y-69523370D01*
X157927478Y-69556855D01*
X157899684Y-69558014D01*
X157899684Y-69559500D01*
X157733443Y-69559500D01*
X157580716Y-69600423D01*
X157580709Y-69600426D01*
X157443790Y-69679475D01*
X157443782Y-69679481D01*
X157331981Y-69791282D01*
X157331975Y-69791290D01*
X157252926Y-69928209D01*
X157252923Y-69928216D01*
X157212000Y-70080943D01*
X157212000Y-70239056D01*
X157252923Y-70391783D01*
X157252926Y-70391790D01*
X157331975Y-70528709D01*
X157331979Y-70528714D01*
X157331980Y-70528716D01*
X157443784Y-70640520D01*
X157443786Y-70640521D01*
X157443790Y-70640524D01*
X157587754Y-70723641D01*
X157586697Y-70725470D01*
X157632379Y-70762280D01*
X157654447Y-70828573D01*
X157637170Y-70896273D01*
X157618207Y-70920685D01*
X155330790Y-73208101D01*
X155269467Y-73241586D01*
X155199775Y-73236602D01*
X155181108Y-73227806D01*
X155171788Y-73222425D01*
X155171786Y-73222424D01*
X155171784Y-73222423D01*
X155019057Y-73181500D01*
X154860943Y-73181500D01*
X154708216Y-73222423D01*
X154708215Y-73222423D01*
X154634999Y-73264694D01*
X154567098Y-73281165D01*
X154501072Y-73258313D01*
X154457882Y-73203391D01*
X154449000Y-73157306D01*
X154449000Y-69108004D01*
X154422081Y-68972677D01*
X154422080Y-68972676D01*
X154422080Y-68972672D01*
X154402955Y-68926499D01*
X154369278Y-68845195D01*
X154369271Y-68845182D01*
X154292614Y-68730458D01*
X154292611Y-68730454D01*
X154195045Y-68632888D01*
X154195041Y-68632885D01*
X154080317Y-68556228D01*
X154080304Y-68556221D01*
X153952832Y-68503421D01*
X153952822Y-68503418D01*
X153817495Y-68476500D01*
X153817493Y-68476500D01*
X153679507Y-68476500D01*
X153679505Y-68476500D01*
X153544177Y-68503418D01*
X153544167Y-68503421D01*
X153416695Y-68556221D01*
X153416682Y-68556228D01*
X153301958Y-68632885D01*
X153301954Y-68632888D01*
X153204388Y-68730454D01*
X153204385Y-68730458D01*
X153127728Y-68845182D01*
X153127721Y-68845195D01*
X153074921Y-68972667D01*
X153074918Y-68972677D01*
X153048000Y-69108004D01*
X153048000Y-74216546D01*
X153074918Y-74351872D01*
X153074921Y-74351882D01*
X153127722Y-74479357D01*
X153204387Y-74594095D01*
X153236111Y-74625819D01*
X153246690Y-74645194D01*
X153261168Y-74661865D01*
X153263109Y-74675262D01*
X153269596Y-74687142D01*
X153268021Y-74709162D01*
X153271187Y-74731012D01*
X153265577Y-74743330D01*
X153264612Y-74756834D01*
X153251380Y-74774508D01*
X153242232Y-74794600D01*
X153230851Y-74801931D01*
X153222740Y-74812767D01*
X153202057Y-74820481D01*
X153183496Y-74832439D01*
X153161477Y-74835616D01*
X153157276Y-74837184D01*
X153148566Y-74837500D01*
X153144075Y-74837504D01*
X153144057Y-74837500D01*
X152985943Y-74837500D01*
X152985273Y-74837679D01*
X152976514Y-74837689D01*
X152950393Y-74830050D01*
X152923504Y-74825851D01*
X152914587Y-74819579D01*
X152909453Y-74818078D01*
X152904745Y-74812657D01*
X152888697Y-74801370D01*
X150990032Y-72902705D01*
X150956547Y-72841382D01*
X150953713Y-72815024D01*
X150953713Y-68730756D01*
X150973398Y-68663717D01*
X150990026Y-68643080D01*
X151112817Y-68520289D01*
X151174136Y-68486807D01*
X151243828Y-68491791D01*
X151299762Y-68533662D01*
X151309582Y-68550905D01*
X151309859Y-68550746D01*
X151392975Y-68694709D01*
X151392979Y-68694714D01*
X151392980Y-68694716D01*
X151504784Y-68806520D01*
X151504786Y-68806521D01*
X151504790Y-68806524D01*
X151641709Y-68885573D01*
X151641716Y-68885577D01*
X151794443Y-68926500D01*
X151794445Y-68926500D01*
X151952555Y-68926500D01*
X151952557Y-68926500D01*
X152105284Y-68885577D01*
X152242216Y-68806520D01*
X152354020Y-68694716D01*
X152433077Y-68557784D01*
X152474000Y-68405057D01*
X152474000Y-68405054D01*
X152474471Y-68403297D01*
X152510836Y-68343636D01*
X152532243Y-68328005D01*
X152560892Y-68311465D01*
X152749538Y-68122819D01*
X152810861Y-68089334D01*
X152837219Y-68086500D01*
X157704041Y-68086500D01*
X157704043Y-68086500D01*
X157786829Y-68064318D01*
X157861052Y-68021465D01*
X160469032Y-65413483D01*
X160530355Y-65379999D01*
X160600047Y-65384983D01*
G37*
%TD.AperFunction*%
%TA.AperFunction,Conductor*%
G36*
X182757508Y-55753795D02*
G01*
X182973679Y-55767963D01*
X182983173Y-55768956D01*
X183031177Y-55775858D01*
X183037676Y-55776971D01*
X183225217Y-55814275D01*
X183235945Y-55816911D01*
X183275052Y-55828394D01*
X183279916Y-55829933D01*
X183469193Y-55894184D01*
X183480826Y-55898801D01*
X183501695Y-55908332D01*
X183504959Y-55909881D01*
X183669604Y-55991076D01*
X183697960Y-56005060D01*
X183712008Y-56013170D01*
X183905632Y-56142546D01*
X183918496Y-56152417D01*
X184093574Y-56305956D01*
X184105043Y-56317425D01*
X184233642Y-56464065D01*
X184258582Y-56492503D01*
X184268456Y-56505371D01*
X184397829Y-56698992D01*
X184405939Y-56713039D01*
X184501107Y-56906018D01*
X184502690Y-56909352D01*
X184512192Y-56930159D01*
X184516816Y-56941811D01*
X184581057Y-57131059D01*
X184582616Y-57135984D01*
X184594085Y-57175046D01*
X184596724Y-57185788D01*
X184634022Y-57373296D01*
X184635143Y-57379839D01*
X184642040Y-57427807D01*
X184643036Y-57437345D01*
X184657234Y-57653956D01*
X184657500Y-57662066D01*
X184657500Y-60447933D01*
X184657234Y-60456043D01*
X184643036Y-60672653D01*
X184642040Y-60682191D01*
X184635143Y-60730159D01*
X184634022Y-60736702D01*
X184596724Y-60924210D01*
X184594085Y-60934952D01*
X184582616Y-60974014D01*
X184581057Y-60978939D01*
X184516816Y-61168187D01*
X184512192Y-61179839D01*
X184502690Y-61200646D01*
X184501107Y-61203980D01*
X184405939Y-61396960D01*
X184397829Y-61411007D01*
X184268456Y-61604628D01*
X184258582Y-61617496D01*
X184105043Y-61792574D01*
X184093574Y-61804043D01*
X183918496Y-61957582D01*
X183905628Y-61967456D01*
X183712007Y-62096829D01*
X183697960Y-62104939D01*
X183504980Y-62200107D01*
X183501646Y-62201690D01*
X183480839Y-62211192D01*
X183469187Y-62215816D01*
X183279939Y-62280057D01*
X183275014Y-62281616D01*
X183235952Y-62293085D01*
X183225211Y-62295724D01*
X183037699Y-62333023D01*
X183031153Y-62334144D01*
X182983181Y-62341041D01*
X182973645Y-62342037D01*
X182757049Y-62356234D01*
X182749993Y-62356496D01*
X182701920Y-62356904D01*
X182701780Y-62356905D01*
X182701761Y-62356900D01*
X182701712Y-62356906D01*
X170783644Y-62451586D01*
X170782660Y-62451590D01*
X170588994Y-62451590D01*
X170588991Y-62451591D01*
X170202280Y-62485424D01*
X169819997Y-62552832D01*
X169819990Y-62552833D01*
X169628906Y-62604035D01*
X169445030Y-62653305D01*
X169445024Y-62653306D01*
X169445010Y-62653311D01*
X169379432Y-62677179D01*
X169379433Y-62677180D01*
X169375240Y-62678705D01*
X169369761Y-62680265D01*
X169351179Y-62687463D01*
X169349950Y-62687911D01*
X169080258Y-62786071D01*
X169080256Y-62786072D01*
X169003563Y-62821831D01*
X169003564Y-62821832D01*
X168999786Y-62823593D01*
X168986711Y-62828659D01*
X168954076Y-62844908D01*
X168952584Y-62845605D01*
X168952582Y-62845605D01*
X168728446Y-62950123D01*
X168728437Y-62950127D01*
X168728433Y-62950130D01*
X168707052Y-62962474D01*
X168641866Y-63000108D01*
X168641865Y-63000107D01*
X168638533Y-63002030D01*
X168618986Y-63011764D01*
X168581853Y-63034755D01*
X168580150Y-63035739D01*
X168580148Y-63035739D01*
X168392267Y-63144215D01*
X168392237Y-63144234D01*
X168297298Y-63210708D01*
X168297299Y-63210709D01*
X168294400Y-63212738D01*
X168269725Y-63228017D01*
X168233324Y-63255505D01*
X168231487Y-63256792D01*
X168231477Y-63256800D01*
X168074260Y-63366885D01*
X167972576Y-63452207D01*
X167970119Y-63454268D01*
X167941906Y-63475574D01*
X167909270Y-63505325D01*
X167907297Y-63506981D01*
X167907279Y-63506998D01*
X167776888Y-63616410D01*
X167776874Y-63616423D01*
X167670333Y-63722963D01*
X167668277Y-63725018D01*
X167638328Y-63752321D01*
X167611024Y-63782271D01*
X167608969Y-63784327D01*
X167502423Y-63890874D01*
X167502410Y-63890888D01*
X167393003Y-64021273D01*
X167393002Y-64021272D01*
X167391327Y-64023267D01*
X167361580Y-64055899D01*
X167340295Y-64084084D01*
X167338223Y-64086554D01*
X167338218Y-64086562D01*
X167252883Y-64188264D01*
X167252866Y-64188286D01*
X167142807Y-64345464D01*
X167142808Y-64345465D01*
X167141521Y-64347301D01*
X167114023Y-64383716D01*
X167098732Y-64408410D01*
X167096713Y-64411295D01*
X167096711Y-64411296D01*
X167030237Y-64506233D01*
X167030215Y-64506267D01*
X166921750Y-64694128D01*
X166921751Y-64694129D01*
X166920760Y-64695843D01*
X166897769Y-64732977D01*
X166888026Y-64752542D01*
X166886110Y-64755862D01*
X166886108Y-64755863D01*
X166836129Y-64842433D01*
X166836125Y-64842441D01*
X166731617Y-65066557D01*
X166730911Y-65068069D01*
X166714663Y-65100701D01*
X166709599Y-65113772D01*
X166707844Y-65117536D01*
X166707839Y-65117550D01*
X166672077Y-65194243D01*
X166573903Y-65463971D01*
X166573464Y-65465175D01*
X166566268Y-65483752D01*
X166564710Y-65489227D01*
X166563183Y-65493423D01*
X166539307Y-65559023D01*
X166539306Y-65559028D01*
X166438833Y-65933990D01*
X166438832Y-65933997D01*
X166371424Y-66316280D01*
X166337591Y-66702991D01*
X166337590Y-66702994D01*
X166337590Y-66947955D01*
X166337684Y-66948822D01*
X166369492Y-84577824D01*
X166369227Y-84586158D01*
X166355037Y-84802653D01*
X166354040Y-84812191D01*
X166347143Y-84860159D01*
X166346022Y-84866702D01*
X166308724Y-85054210D01*
X166306085Y-85064952D01*
X166294616Y-85104014D01*
X166293057Y-85108939D01*
X166228816Y-85298187D01*
X166224192Y-85309839D01*
X166214690Y-85330646D01*
X166213107Y-85333980D01*
X166117939Y-85526960D01*
X166109829Y-85541007D01*
X165980456Y-85734628D01*
X165970582Y-85747496D01*
X165817043Y-85922574D01*
X165805574Y-85934043D01*
X165630496Y-86087582D01*
X165617628Y-86097456D01*
X165424007Y-86226829D01*
X165409960Y-86234939D01*
X165216980Y-86330107D01*
X165213646Y-86331690D01*
X165192839Y-86341192D01*
X165181187Y-86345816D01*
X164991939Y-86410057D01*
X164987014Y-86411616D01*
X164947952Y-86423085D01*
X164937211Y-86425724D01*
X164749699Y-86463023D01*
X164743153Y-86464144D01*
X164695181Y-86471041D01*
X164685645Y-86472037D01*
X164469052Y-86486234D01*
X164467286Y-86486338D01*
X164416934Y-86488917D01*
X164416899Y-86488918D01*
X164416873Y-86488912D01*
X164416787Y-86488924D01*
X144279174Y-87502137D01*
X144264833Y-87502029D01*
X144051341Y-87488036D01*
X144041805Y-87487039D01*
X143993845Y-87480144D01*
X143987299Y-87479023D01*
X143799787Y-87441724D01*
X143789046Y-87439085D01*
X143749984Y-87427616D01*
X143745059Y-87426057D01*
X143555811Y-87361816D01*
X143544159Y-87357192D01*
X143523333Y-87347681D01*
X143520018Y-87346107D01*
X143327039Y-87250939D01*
X143312992Y-87242829D01*
X143119371Y-87113456D01*
X143106503Y-87103582D01*
X142931425Y-86950043D01*
X142919956Y-86938574D01*
X142766417Y-86763496D01*
X142756543Y-86750628D01*
X142627170Y-86557007D01*
X142619060Y-86542960D01*
X142591710Y-86487500D01*
X142523881Y-86349959D01*
X142522332Y-86346695D01*
X142512799Y-86325823D01*
X142508182Y-86314187D01*
X142478528Y-86226829D01*
X142443933Y-86124916D01*
X142442394Y-86120052D01*
X142430911Y-86080945D01*
X142428274Y-86070210D01*
X142408449Y-85970542D01*
X142390971Y-85882676D01*
X142389858Y-85876177D01*
X142382956Y-85828173D01*
X142381963Y-85818678D01*
X142368960Y-85620285D01*
X142368893Y-85619162D01*
X142367688Y-85597301D01*
X142367866Y-85596539D01*
X142367500Y-85590476D01*
X142367500Y-85572404D01*
X142364201Y-85566363D01*
X142362274Y-85554976D01*
X142185855Y-84103385D01*
X153561610Y-84103385D01*
X153588529Y-84238711D01*
X153588532Y-84238721D01*
X153641333Y-84366196D01*
X153717998Y-84480934D01*
X153815565Y-84578501D01*
X153930303Y-84655166D01*
X154055185Y-84706893D01*
X154057783Y-84707969D01*
X154057787Y-84707969D01*
X154057788Y-84707970D01*
X154193114Y-84734889D01*
X154193117Y-84734889D01*
X154331107Y-84734889D01*
X154422151Y-84716778D01*
X154466439Y-84707969D01*
X154530180Y-84681566D01*
X154593918Y-84655166D01*
X154593919Y-84655165D01*
X154593922Y-84655164D01*
X154708654Y-84578503D01*
X158610614Y-80676543D01*
X158687275Y-80561811D01*
X158740080Y-80434328D01*
X158767000Y-80298993D01*
X158767000Y-80161006D01*
X158767000Y-80161003D01*
X158740081Y-80025676D01*
X158740080Y-80025675D01*
X158740080Y-80025671D01*
X158740078Y-80025666D01*
X158687278Y-79898194D01*
X158687271Y-79898181D01*
X158610614Y-79783457D01*
X158610611Y-79783453D01*
X158513046Y-79685888D01*
X158513042Y-79685885D01*
X158398318Y-79609228D01*
X158398305Y-79609221D01*
X158270833Y-79556421D01*
X158270823Y-79556418D01*
X158135496Y-79529500D01*
X158135494Y-79529500D01*
X157997507Y-79529500D01*
X157997505Y-79529500D01*
X157862177Y-79556418D01*
X157862167Y-79556421D01*
X157734692Y-79609222D01*
X157619954Y-79685887D01*
X153717998Y-83587843D01*
X153641333Y-83702581D01*
X153588532Y-83830056D01*
X153588529Y-83830066D01*
X153561611Y-83965392D01*
X153561611Y-83965395D01*
X153561611Y-84103383D01*
X153561611Y-84103385D01*
X153561610Y-84103385D01*
X142185855Y-84103385D01*
X139861294Y-64976637D01*
X144128551Y-64976637D01*
X144185012Y-65621986D01*
X145096198Y-65542267D01*
X145085740Y-65560382D01*
X145051665Y-65687549D01*
X145051665Y-65819201D01*
X145085740Y-65946368D01*
X145139997Y-66040344D01*
X144228589Y-66120082D01*
X144285051Y-66765439D01*
X144296619Y-66824204D01*
X144296622Y-66824214D01*
X144358415Y-66954031D01*
X144358416Y-66954032D01*
X144454282Y-67061183D01*
X144576453Y-67136987D01*
X144715036Y-67175300D01*
X144774926Y-67176488D01*
X145420276Y-67120026D01*
X145340558Y-66208841D01*
X145358672Y-66219300D01*
X145485839Y-66253375D01*
X145617491Y-66253375D01*
X145744658Y-66219300D01*
X145838635Y-66165041D01*
X145918372Y-67076449D01*
X146563729Y-67019988D01*
X146622494Y-67008420D01*
X146622504Y-67008417D01*
X146752321Y-66946624D01*
X146752322Y-66946623D01*
X146859473Y-66850757D01*
X146935277Y-66728586D01*
X146973590Y-66590003D01*
X146974778Y-66530112D01*
X146940000Y-66132600D01*
X146953767Y-66064100D01*
X147002382Y-66013917D01*
X147070410Y-65997984D01*
X147136254Y-66021359D01*
X147166630Y-66052902D01*
X147194547Y-66094683D01*
X147266024Y-66201657D01*
X147412342Y-66347975D01*
X147412345Y-66347977D01*
X147584402Y-66462941D01*
X147775580Y-66542130D01*
X147978530Y-66582499D01*
X147978534Y-66582500D01*
X147978535Y-66582500D01*
X148185466Y-66582500D01*
X148185467Y-66582499D01*
X148388420Y-66542130D01*
X148579598Y-66462941D01*
X148751655Y-66347977D01*
X148897977Y-66201655D01*
X149012941Y-66029598D01*
X149092130Y-65838420D01*
X149132500Y-65635465D01*
X149132500Y-65428535D01*
X149092130Y-65225580D01*
X149012941Y-65034402D01*
X148897977Y-64862345D01*
X148897975Y-64862342D01*
X148751657Y-64716024D01*
X148661812Y-64655992D01*
X148579598Y-64601059D01*
X148388420Y-64521870D01*
X148388412Y-64521868D01*
X148185469Y-64481500D01*
X148185465Y-64481500D01*
X147978535Y-64481500D01*
X147978530Y-64481500D01*
X147775587Y-64521868D01*
X147775579Y-64521870D01*
X147584403Y-64601058D01*
X147412342Y-64716024D01*
X147266024Y-64862342D01*
X147151057Y-65034404D01*
X147091403Y-65178422D01*
X147047562Y-65232825D01*
X146981267Y-65254890D01*
X146913568Y-65237610D01*
X146865958Y-65186473D01*
X146853314Y-65141776D01*
X146818278Y-64741310D01*
X146806710Y-64682545D01*
X146806707Y-64682535D01*
X146744914Y-64552718D01*
X146744913Y-64552717D01*
X146649047Y-64445566D01*
X146526876Y-64369762D01*
X146388293Y-64331449D01*
X146328402Y-64330261D01*
X145683052Y-64386722D01*
X145762771Y-65297907D01*
X145744658Y-65287450D01*
X145617491Y-65253375D01*
X145485839Y-65253375D01*
X145358672Y-65287450D01*
X145264693Y-65341708D01*
X145184956Y-64430299D01*
X144539600Y-64486761D01*
X144480835Y-64498329D01*
X144480825Y-64498332D01*
X144351008Y-64560125D01*
X144351007Y-64560126D01*
X144243856Y-64655992D01*
X144168052Y-64778163D01*
X144129739Y-64916746D01*
X144128551Y-64976637D01*
X139861294Y-64976637D01*
X139560831Y-62504391D01*
X145956644Y-62504391D01*
X145956644Y-62662505D01*
X145989754Y-62786071D01*
X145997567Y-62815231D01*
X145997570Y-62815238D01*
X146076619Y-62952157D01*
X146076623Y-62952162D01*
X146076624Y-62952164D01*
X146188428Y-63063968D01*
X146188430Y-63063969D01*
X146188434Y-63063972D01*
X146295873Y-63126001D01*
X146325360Y-63143025D01*
X146478087Y-63183948D01*
X146478089Y-63183948D01*
X146644329Y-63183948D01*
X146644329Y-63187131D01*
X146698542Y-63195550D01*
X146733446Y-63220077D01*
X147467229Y-63953859D01*
X147467231Y-63953862D01*
X147527834Y-64014465D01*
X147601542Y-64057020D01*
X147602058Y-64057318D01*
X147684844Y-64079501D01*
X147684846Y-64079501D01*
X147778145Y-64079501D01*
X147778161Y-64079500D01*
X153349170Y-64079500D01*
X153416209Y-64099185D01*
X153436679Y-64118022D01*
X153437733Y-64116969D01*
X153443480Y-64122716D01*
X153555284Y-64234520D01*
X153555286Y-64234521D01*
X153555290Y-64234524D01*
X153692209Y-64313573D01*
X153692216Y-64313577D01*
X153844943Y-64354500D01*
X153844945Y-64354500D01*
X154003055Y-64354500D01*
X154003057Y-64354500D01*
X154155784Y-64313577D01*
X154292716Y-64234520D01*
X154404520Y-64122716D01*
X154404520Y-64122715D01*
X154410267Y-64116969D01*
X154412512Y-64119214D01*
X154456855Y-64086821D01*
X154498830Y-64079500D01*
X158964212Y-64079500D01*
X159026212Y-64096113D01*
X159147429Y-64166097D01*
X159300156Y-64207020D01*
X159300158Y-64207020D01*
X159458268Y-64207020D01*
X159458270Y-64207020D01*
X159610997Y-64166097D01*
X159610998Y-64166096D01*
X159618848Y-64163993D01*
X159619475Y-64166333D01*
X159639886Y-64164136D01*
X159672360Y-64159467D01*
X159674439Y-64160416D01*
X159676713Y-64160172D01*
X159706060Y-64174857D01*
X159735916Y-64188492D01*
X159737152Y-64190415D01*
X159739197Y-64191439D01*
X159755945Y-64219658D01*
X159773690Y-64247270D01*
X159774123Y-64250287D01*
X159774857Y-64251523D01*
X159778713Y-64282205D01*
X159778713Y-64493978D01*
X159759028Y-64561017D01*
X159742394Y-64581659D01*
X157375872Y-66948181D01*
X157314549Y-66981666D01*
X157288191Y-66984500D01*
X151819927Y-66984500D01*
X151737144Y-67006681D01*
X151737139Y-67006683D01*
X151732883Y-67009141D01*
X151732880Y-67009142D01*
X151662924Y-67049530D01*
X151662916Y-67049536D01*
X150367750Y-68344702D01*
X150367746Y-68344708D01*
X150324894Y-68418928D01*
X150324895Y-68418929D01*
X150302713Y-68501714D01*
X150302713Y-73044065D01*
X150324895Y-73126853D01*
X150342478Y-73157306D01*
X150367748Y-73201075D01*
X150367750Y-73201077D01*
X152428370Y-75261697D01*
X152461855Y-75323020D01*
X152463017Y-75350816D01*
X152464500Y-75350816D01*
X152464500Y-75358943D01*
X152464500Y-75517057D01*
X152482304Y-75583500D01*
X152505423Y-75669783D01*
X152505426Y-75669790D01*
X152584475Y-75806709D01*
X152584479Y-75806714D01*
X152584480Y-75806716D01*
X152696284Y-75918520D01*
X152696286Y-75918521D01*
X152696290Y-75918524D01*
X152833209Y-75997573D01*
X152833216Y-75997577D01*
X152985943Y-76038500D01*
X152985945Y-76038500D01*
X153144055Y-76038500D01*
X153144057Y-76038500D01*
X153296784Y-75997577D01*
X153433716Y-75918520D01*
X153545520Y-75806716D01*
X153624577Y-75669784D01*
X153665500Y-75517057D01*
X153665500Y-75358943D01*
X153665500Y-75354568D01*
X153671738Y-75333322D01*
X153673318Y-75311234D01*
X153681390Y-75300450D01*
X153685185Y-75287529D01*
X153701918Y-75273029D01*
X153715190Y-75255301D01*
X153727810Y-75250593D01*
X153737989Y-75241774D01*
X153759906Y-75238622D01*
X153780654Y-75230884D01*
X153793814Y-75233746D01*
X153807147Y-75231830D01*
X153827290Y-75241029D01*
X153848927Y-75245736D01*
X153866652Y-75259004D01*
X153870703Y-75260855D01*
X153877179Y-75266885D01*
X153939836Y-75329542D01*
X154037408Y-75427114D01*
X154037409Y-75427115D01*
X154152132Y-75503771D01*
X154152136Y-75503773D01*
X154152139Y-75503775D01*
X154226816Y-75534707D01*
X154279621Y-75556580D01*
X154306541Y-75561934D01*
X154403580Y-75581237D01*
X154414956Y-75583500D01*
X154414957Y-75583500D01*
X158056981Y-75583500D01*
X158124020Y-75603185D01*
X158169775Y-75655989D01*
X158179719Y-75725147D01*
X158150694Y-75788703D01*
X158144662Y-75795181D01*
X157522388Y-76417453D01*
X157522387Y-76417454D01*
X157445722Y-76532192D01*
X157392921Y-76659667D01*
X157392918Y-76659677D01*
X157366000Y-76795003D01*
X157366000Y-76795006D01*
X157366000Y-76932994D01*
X157366000Y-76932996D01*
X157365999Y-76932996D01*
X157392918Y-77068322D01*
X157392921Y-77068332D01*
X157445722Y-77195807D01*
X157522387Y-77310545D01*
X157619954Y-77408112D01*
X157734692Y-77484777D01*
X157862167Y-77537578D01*
X157862172Y-77537580D01*
X157862176Y-77537580D01*
X157862177Y-77537581D01*
X157997503Y-77564500D01*
X157997506Y-77564500D01*
X158135496Y-77564500D01*
X158226540Y-77546389D01*
X158270828Y-77537580D01*
X158334569Y-77511177D01*
X158398307Y-77484777D01*
X158398308Y-77484776D01*
X158398311Y-77484775D01*
X158513043Y-77408114D01*
X161694813Y-74226343D01*
X161701361Y-74216544D01*
X161724109Y-74182500D01*
X161771471Y-74111617D01*
X161771471Y-74111616D01*
X161771475Y-74111611D01*
X161824280Y-73984128D01*
X161851200Y-73848793D01*
X161851200Y-72372007D01*
X161830336Y-72267114D01*
X161830336Y-72267113D01*
X161824282Y-72236677D01*
X161824279Y-72236668D01*
X161771478Y-72109194D01*
X161771471Y-72109181D01*
X161694814Y-71994457D01*
X161694811Y-71994453D01*
X161597246Y-71896888D01*
X161597242Y-71896885D01*
X161482518Y-71820228D01*
X161482505Y-71820221D01*
X161355033Y-71767421D01*
X161355023Y-71767418D01*
X161219696Y-71740500D01*
X161219694Y-71740500D01*
X161081707Y-71740500D01*
X161081705Y-71740500D01*
X160946377Y-71767418D01*
X160946367Y-71767421D01*
X160818892Y-71820222D01*
X160704154Y-71896887D01*
X160704153Y-71896888D01*
X158454862Y-74146181D01*
X158393539Y-74179666D01*
X158367181Y-74182500D01*
X155615272Y-74182500D01*
X155590594Y-74175253D01*
X155565095Y-74171894D01*
X155557622Y-74165572D01*
X155548233Y-74162815D01*
X155531392Y-74143380D01*
X155511755Y-74126766D01*
X155508886Y-74117406D01*
X155502478Y-74110011D01*
X155498817Y-74084553D01*
X155491281Y-74059963D01*
X155493572Y-74048076D01*
X155492534Y-74040853D01*
X155495891Y-74024972D01*
X155498518Y-74015618D01*
X155499577Y-74013784D01*
X155510866Y-73971650D01*
X155511069Y-73970929D01*
X155516655Y-73962006D01*
X155542767Y-73916778D01*
X161646865Y-67812679D01*
X161646870Y-67812676D01*
X161657073Y-67802472D01*
X161657075Y-67802472D01*
X161717678Y-67741869D01*
X161739104Y-67704757D01*
X161760531Y-67667646D01*
X161782714Y-67584860D01*
X161782714Y-67499154D01*
X161782714Y-67491559D01*
X161782713Y-67491541D01*
X161782713Y-59815185D01*
X161791357Y-59785744D01*
X161797881Y-59755758D01*
X161801635Y-59750742D01*
X161802398Y-59748146D01*
X161819032Y-59727504D01*
X161862717Y-59683819D01*
X161924040Y-59650334D01*
X161950398Y-59647500D01*
X168907175Y-59647500D01*
X168974214Y-59667185D01*
X168994856Y-59683819D01*
X170250279Y-60939242D01*
X170280941Y-60995396D01*
X170282397Y-60995007D01*
X170284500Y-61002855D01*
X170284500Y-61002857D01*
X170322153Y-61143380D01*
X170325423Y-61155583D01*
X170325426Y-61155590D01*
X170404475Y-61292509D01*
X170404479Y-61292514D01*
X170404480Y-61292516D01*
X170516284Y-61404320D01*
X170516286Y-61404321D01*
X170516290Y-61404324D01*
X170653209Y-61483373D01*
X170653216Y-61483377D01*
X170805943Y-61524300D01*
X170805945Y-61524300D01*
X170964055Y-61524300D01*
X170964057Y-61524300D01*
X171116784Y-61483377D01*
X171253716Y-61404320D01*
X171365520Y-61292516D01*
X171431144Y-61178849D01*
X171481709Y-61130636D01*
X171550315Y-61117412D01*
X171615181Y-61143380D01*
X171647091Y-61185477D01*
X171648359Y-61184746D01*
X171731475Y-61328709D01*
X171731479Y-61328714D01*
X171731480Y-61328716D01*
X171843284Y-61440520D01*
X171843286Y-61440521D01*
X171843290Y-61440524D01*
X171917508Y-61483373D01*
X171980216Y-61519577D01*
X172132943Y-61560500D01*
X172132945Y-61560500D01*
X172291055Y-61560500D01*
X172291057Y-61560500D01*
X172443784Y-61519577D01*
X172580716Y-61440520D01*
X172692520Y-61328716D01*
X172702663Y-61311146D01*
X172753228Y-61262931D01*
X172821834Y-61249706D01*
X172886700Y-61275672D01*
X172898195Y-61287306D01*
X172898733Y-61286769D01*
X172904479Y-61292515D01*
X172904480Y-61292516D01*
X173016284Y-61404320D01*
X173016286Y-61404321D01*
X173016290Y-61404324D01*
X173153209Y-61483373D01*
X173153216Y-61483377D01*
X173305943Y-61524300D01*
X173305945Y-61524300D01*
X173464055Y-61524300D01*
X173464057Y-61524300D01*
X173616784Y-61483377D01*
X173753716Y-61404320D01*
X173865520Y-61292516D01*
X173944577Y-61155584D01*
X173985500Y-61002857D01*
X173985500Y-60844743D01*
X173944577Y-60692016D01*
X173933398Y-60672653D01*
X173865524Y-60555090D01*
X173865518Y-60555082D01*
X173753717Y-60443281D01*
X173753709Y-60443275D01*
X173616790Y-60364226D01*
X173616786Y-60364224D01*
X173616784Y-60364223D01*
X173464057Y-60323300D01*
X173305943Y-60323300D01*
X173297816Y-60323300D01*
X173297816Y-60320132D01*
X173243504Y-60311651D01*
X173208697Y-60287170D01*
X170976708Y-58055181D01*
X170943223Y-57993858D01*
X170948207Y-57924166D01*
X170990079Y-57868233D01*
X171055543Y-57843816D01*
X171064389Y-57843500D01*
X177959481Y-57843500D01*
X178026520Y-57863185D01*
X178047162Y-57879819D01*
X179131453Y-58964111D01*
X179131454Y-58964112D01*
X179246192Y-59040777D01*
X179373667Y-59093578D01*
X179373672Y-59093580D01*
X179373676Y-59093580D01*
X179373677Y-59093581D01*
X179509003Y-59120500D01*
X179509006Y-59120500D01*
X179646996Y-59120500D01*
X179738042Y-59102389D01*
X179782329Y-59093580D01*
X179909811Y-59040775D01*
X180024543Y-58964114D01*
X180122114Y-58866543D01*
X180198775Y-58751811D01*
X180251580Y-58624329D01*
X180278500Y-58488994D01*
X180278500Y-58351006D01*
X180278500Y-58351003D01*
X180251581Y-58215677D01*
X180251580Y-58215676D01*
X180251580Y-58215672D01*
X180251578Y-58215667D01*
X180198777Y-58088192D01*
X180122112Y-57973454D01*
X178747545Y-56598887D01*
X178632807Y-56522222D01*
X178505332Y-56469421D01*
X178505322Y-56469418D01*
X178369996Y-56442500D01*
X178369994Y-56442500D01*
X178369993Y-56442500D01*
X160593007Y-56442500D01*
X160593003Y-56442500D01*
X160484590Y-56464065D01*
X160484589Y-56464065D01*
X160471131Y-56466742D01*
X160457673Y-56469419D01*
X160431268Y-56480356D01*
X160404866Y-56491292D01*
X160404864Y-56491293D01*
X160404863Y-56491292D01*
X160330191Y-56522223D01*
X160229278Y-56589652D01*
X160218148Y-56597089D01*
X160215457Y-56598887D01*
X160215456Y-56598888D01*
X160215455Y-56598888D01*
X160110888Y-56703453D01*
X160110887Y-56703454D01*
X160034222Y-56818192D01*
X159981421Y-56945667D01*
X159981418Y-56945677D01*
X159954500Y-57081003D01*
X159954500Y-57081006D01*
X159954500Y-57218994D01*
X159954500Y-57218996D01*
X159954499Y-57218996D01*
X159981418Y-57354322D01*
X159981421Y-57354332D01*
X160034222Y-57481807D01*
X160110887Y-57596545D01*
X160208454Y-57694112D01*
X160323192Y-57770777D01*
X160450667Y-57823578D01*
X160450672Y-57823580D01*
X160534160Y-57840187D01*
X160588639Y-57851024D01*
X160650550Y-57883409D01*
X160685124Y-57944125D01*
X160681385Y-58013894D01*
X160652129Y-58060322D01*
X159843750Y-58868701D01*
X159843748Y-58868704D01*
X159800896Y-58942925D01*
X159786503Y-58996640D01*
X159778713Y-59025710D01*
X159778713Y-62930834D01*
X159759028Y-62997873D01*
X159706224Y-63043628D01*
X159637066Y-63053572D01*
X159618965Y-63048607D01*
X159618848Y-63049047D01*
X159610998Y-63046943D01*
X159610997Y-63046943D01*
X159458270Y-63006020D01*
X159300156Y-63006020D01*
X159147429Y-63046943D01*
X159147422Y-63046946D01*
X159010503Y-63125995D01*
X159010495Y-63126001D01*
X158898694Y-63237802D01*
X158898692Y-63237805D01*
X158824392Y-63366499D01*
X158773825Y-63414715D01*
X158717004Y-63428500D01*
X154498830Y-63428500D01*
X154431791Y-63408815D01*
X154411320Y-63389977D01*
X154410267Y-63391031D01*
X154292717Y-63273481D01*
X154292709Y-63273475D01*
X154155790Y-63194426D01*
X154155786Y-63194424D01*
X154155784Y-63194423D01*
X154003057Y-63153500D01*
X153844943Y-63153500D01*
X153692216Y-63194423D01*
X153692209Y-63194426D01*
X153555290Y-63273475D01*
X153555282Y-63273481D01*
X153437733Y-63391031D01*
X153435487Y-63388785D01*
X153391145Y-63421179D01*
X153349170Y-63428500D01*
X147913884Y-63428500D01*
X147846845Y-63408815D01*
X147826203Y-63392181D01*
X147193773Y-62759750D01*
X147160288Y-62698427D01*
X147159138Y-62670633D01*
X147157644Y-62670633D01*
X147157644Y-62504393D01*
X147157644Y-62504391D01*
X147116721Y-62351664D01*
X147101267Y-62324897D01*
X147037668Y-62214738D01*
X147037662Y-62214730D01*
X146925861Y-62102929D01*
X146925853Y-62102923D01*
X146788934Y-62023874D01*
X146788930Y-62023872D01*
X146788928Y-62023871D01*
X146636201Y-61982948D01*
X146478087Y-61982948D01*
X146325360Y-62023871D01*
X146325353Y-62023874D01*
X146188434Y-62102923D01*
X146188426Y-62102929D01*
X146076625Y-62214730D01*
X146076619Y-62214738D01*
X145997570Y-62351657D01*
X145997567Y-62351664D01*
X145956644Y-62504391D01*
X139560831Y-62504391D01*
X139066525Y-58437185D01*
X139065885Y-58414123D01*
X139079899Y-58200305D01*
X139080814Y-58191363D01*
X139087332Y-58144616D01*
X139088516Y-58137612D01*
X139126024Y-57949044D01*
X139128512Y-57938838D01*
X139139964Y-57899274D01*
X139141622Y-57894000D01*
X139205731Y-57705142D01*
X139210157Y-57693932D01*
X139220988Y-57669999D01*
X139222683Y-57666415D01*
X139317068Y-57475022D01*
X139325159Y-57461009D01*
X139454551Y-57267359D01*
X139464408Y-57254513D01*
X139617961Y-57079419D01*
X139629419Y-57067961D01*
X139804513Y-56914408D01*
X139817359Y-56904551D01*
X140010999Y-56775165D01*
X140025025Y-56767067D01*
X140222674Y-56669596D01*
X140225706Y-56668155D01*
X140240428Y-56661408D01*
X140252156Y-56656744D01*
X140445436Y-56591135D01*
X140450114Y-56589652D01*
X140485520Y-56579223D01*
X140496298Y-56576570D01*
X140686852Y-56538667D01*
X140693305Y-56537560D01*
X140738463Y-56531048D01*
X140747968Y-56530052D01*
X140965952Y-56515765D01*
X140970831Y-56515542D01*
X141019159Y-56514282D01*
X141019913Y-56514263D01*
X141019950Y-56514273D01*
X141020061Y-56514260D01*
X166623047Y-55880523D01*
X166624970Y-55880492D01*
X182748455Y-55753535D01*
X182757508Y-55753795D01*
G37*
%TD.AperFunction*%
%TD*%
M02*
