M48
; DRILL file {KiCad 9.0.1} date 2025-06-09T02:27:04-0400
; FORMAT={-:-/ absolute / inch / decimal}
; #@! TF.CreationDate,2025-06-09T02:27:04-04:00
; #@! TF.GenerationSoftware,Kicad,Pcbnew,9.0.1
; #@! TF.FileFunction,Plated,1,2,PTH
FMAT,2
INCH
; #@! TA.AperFunction,Plated,PTH,ViaDrill
T1C0.0157
; #@! TA.AperFunction,Plated,PTH,ComponentDrill
T2C0.0394
%
G90
G05
T1
X5.58Y-2.54
X5.64Y-2.86
X5.68Y-3.23
X5.74Y-2.31
X5.77Y-2.4639
X5.95Y-2.48
X5.9793Y-2.69
X6.0262Y-2.97
X6.0531Y-2.7235
X6.06Y-2.51
X6.07Y-3.37
X6.0733Y-3.3084
X6.1Y-2.9048
X6.14Y-2.24
X6.15Y-2.78
X6.2131Y-2.7622
X6.2231Y-3.0261
X6.2231Y-3.1587
X6.25Y-2.4
X6.2748Y-2.5042
X6.31Y-2.62
X6.325Y-2.25
X6.3445Y-2.852
X6.44Y-3.21
X6.45Y-2.82
X6.48Y-2.59
X6.59Y-2.41
X6.7036Y-2.3164
X6.7278Y-2.3986
X6.78Y-2.4
X6.8262Y-2.3986
X6.85Y-2.3
X6.982Y-2.316
X7.07Y-2.3
X7.09Y-2.222
X7.152Y-2.406
X7.4Y-2.4
X7.5Y-2.22
X7.57Y-2.28
X7.62Y-2.33
X7.7146Y-2.3986
X7.76Y-2.222
X7.7638Y-2.3986
X7.8209Y-2.3986
X7.8622Y-2.3986
X8.1031Y-2.4284
X8.112Y-2.556
X8.1169Y-2.2716
X8.1928Y-3.2206
X8.2138Y-2.8212
X8.219Y-2.7213
X8.28Y-3.3
X8.286Y-2.45
X8.33Y-3.16
X8.36Y-2.57
X8.37Y-2.7
X8.42Y-2.32
X8.47Y-2.3
X8.49Y-2.24
X8.5Y-2.88
X8.61Y-2.56
X8.62Y-2.91
X8.69Y-3.16
X8.704Y-2.86
X8.71Y-2.72
X8.71Y-3.35
X8.72Y-2.63
X8.7958Y-2.3042
X8.838Y-2.58
X8.8388Y-3.0542
X8.84Y-2.4
X8.8441Y-2.9543
X8.8493Y-2.8545
X8.8545Y-2.7546
X8.8753Y-2.2647
X8.931Y-3.0109
X8.9373Y-3.06
X8.94Y-2.49
X8.9684Y-2.7654
X8.9989Y-2.2728
X9.02Y-2.4
X9.05Y-2.68
X9.05Y-2.75
X9.06Y-3.04
X9.07Y-3.27
X9.16Y-2.51
X9.2Y-2.56
X9.207Y-2.2828
T2
X5.7304Y-2.5887
X5.83Y-2.58
M30
