%TF.GenerationSoftware,KiCad,Pcbnew,9.0.1*%
%TF.CreationDate,2025-06-09T02:27:10-04:00*%
%TF.ProjectId,Pneumatactors_1Xiao_3PiezoPumps_6Valves_TwoPiece,506e6575-6d61-4746-9163-746f72735f31,rev?*%
%TF.SameCoordinates,Original*%
%TF.FileFunction,Profile,NP*%
%FSLAX46Y46*%
G04 Gerber Fmt 4.6, Leading zero omitted, Abs format (unit mm)*
G04 Created by KiCad (PCBNEW 9.0.1) date 2025-06-09 02:27:10*
%MOMM*%
%LPD*%
G01*
G04 APERTURE LIST*
%TA.AperFunction,Profile*%
%ADD10C,0.100000*%
%TD*%
%TA.AperFunction,Profile*%
%ADD11C,0.150000*%
%TD*%
G04 APERTURE END LIST*
D10*
X170783100Y-62452090D02*
X182753000Y-62357000D01*
X139065000Y-58420000D02*
G75*
G02*
X140970000Y-56515000I1905000J0D01*
G01*
X201733293Y-62855065D02*
G75*
G02*
X206168730Y-67592151I7J-4445035D01*
G01*
D11*
X230935962Y-85013000D02*
X236015962Y-58243038D01*
D10*
X182753000Y-55753000D02*
G75*
G02*
X184658000Y-57658000I0J-1905000D01*
G01*
D11*
X208103000Y-85393962D02*
X229031000Y-86917962D01*
D10*
X139065021Y-58428944D02*
X142367000Y-85598000D01*
X184658000Y-60452000D02*
X184658000Y-57658000D01*
X182753000Y-55753000D02*
X166624000Y-55880000D01*
X206168730Y-67592147D02*
X206198038Y-83489000D01*
X184658000Y-60452000D02*
G75*
G02*
X182753000Y-62357000I-1905000J0D01*
G01*
X186132038Y-57481000D02*
X186132000Y-60452000D01*
X188037038Y-62357000D02*
G75*
G02*
X186132000Y-60452000I-38J1905000D01*
G01*
X208103038Y-85393962D02*
G75*
G02*
X206198038Y-83488962I-38J1904962D01*
G01*
X166338090Y-66897090D02*
G75*
G02*
X170783090Y-62452090I4445010J-10D01*
G01*
X144272000Y-87503000D02*
G75*
G02*
X142367000Y-85598000I0J1905000D01*
G01*
X166370000Y-84582000D02*
G75*
G02*
X164465000Y-86487000I-1905000J0D01*
G01*
X186132038Y-57481038D02*
G75*
G02*
X188037038Y-55576038I1904962J38D01*
G01*
X164465000Y-86487000D02*
X144272000Y-87503000D01*
X166370000Y-84582000D02*
X166338091Y-66897090D01*
X230935962Y-85012962D02*
G75*
G02*
X229030962Y-86917962I-1904962J-38D01*
G01*
X166624000Y-55880000D02*
X140970000Y-56515000D01*
X201733300Y-62855065D02*
X188037038Y-62357000D01*
X188037038Y-55573663D02*
X234111000Y-56338038D01*
X234110962Y-56338038D02*
G75*
G02*
X236015962Y-58243038I38J-1904962D01*
G01*
M02*
