%TF.GenerationSoftware,KiCad,Pcbnew,7.0.9*%
%TF.CreationDate,2025-03-02T20:13:22-05:00*%
%TF.ProjectId,Module_Relay_PCB,4d6f6475-6c65-45f5-9265-6c61795f5043,rev?*%
%TF.SameCoordinates,Original*%
%TF.FileFunction,Legend,Bot*%
%TF.FilePolarity,Positive*%
%FSLAX46Y46*%
G04 Gerber Fmt 4.6, Leading zero omitted, Abs format (unit mm)*
G04 Created by KiCad (PCBNEW 7.0.9) date 2025-03-02 20:13:22*
%MOMM*%
%LPD*%
G01*
G04 APERTURE LIST*
%ADD10C,0.150000*%
G04 APERTURE END LIST*
D10*
X95259819Y-53916779D02*
X94259819Y-53916779D01*
X94259819Y-53916779D02*
X94259819Y-54297731D01*
X94259819Y-54297731D02*
X94307438Y-54392969D01*
X94307438Y-54392969D02*
X94355057Y-54440588D01*
X94355057Y-54440588D02*
X94450295Y-54488207D01*
X94450295Y-54488207D02*
X94593152Y-54488207D01*
X94593152Y-54488207D02*
X94688390Y-54440588D01*
X94688390Y-54440588D02*
X94736009Y-54392969D01*
X94736009Y-54392969D02*
X94783628Y-54297731D01*
X94783628Y-54297731D02*
X94783628Y-53916779D01*
X94593152Y-54916779D02*
X95259819Y-54916779D01*
X94688390Y-54916779D02*
X94640771Y-54964398D01*
X94640771Y-54964398D02*
X94593152Y-55059636D01*
X94593152Y-55059636D02*
X94593152Y-55202493D01*
X94593152Y-55202493D02*
X94640771Y-55297731D01*
X94640771Y-55297731D02*
X94736009Y-55345350D01*
X94736009Y-55345350D02*
X95259819Y-55345350D01*
X95212200Y-56202493D02*
X95259819Y-56107255D01*
X95259819Y-56107255D02*
X95259819Y-55916779D01*
X95259819Y-55916779D02*
X95212200Y-55821541D01*
X95212200Y-55821541D02*
X95116961Y-55773922D01*
X95116961Y-55773922D02*
X94736009Y-55773922D01*
X94736009Y-55773922D02*
X94640771Y-55821541D01*
X94640771Y-55821541D02*
X94593152Y-55916779D01*
X94593152Y-55916779D02*
X94593152Y-56107255D01*
X94593152Y-56107255D02*
X94640771Y-56202493D01*
X94640771Y-56202493D02*
X94736009Y-56250112D01*
X94736009Y-56250112D02*
X94831247Y-56250112D01*
X94831247Y-56250112D02*
X94926485Y-55773922D01*
X94593152Y-57107255D02*
X95259819Y-57107255D01*
X94593152Y-56678684D02*
X95116961Y-56678684D01*
X95116961Y-56678684D02*
X95212200Y-56726303D01*
X95212200Y-56726303D02*
X95259819Y-56821541D01*
X95259819Y-56821541D02*
X95259819Y-56964398D01*
X95259819Y-56964398D02*
X95212200Y-57059636D01*
X95212200Y-57059636D02*
X95164580Y-57107255D01*
X95259819Y-57583446D02*
X94593152Y-57583446D01*
X94688390Y-57583446D02*
X94640771Y-57631065D01*
X94640771Y-57631065D02*
X94593152Y-57726303D01*
X94593152Y-57726303D02*
X94593152Y-57869160D01*
X94593152Y-57869160D02*
X94640771Y-57964398D01*
X94640771Y-57964398D02*
X94736009Y-58012017D01*
X94736009Y-58012017D02*
X95259819Y-58012017D01*
X94736009Y-58012017D02*
X94640771Y-58059636D01*
X94640771Y-58059636D02*
X94593152Y-58154874D01*
X94593152Y-58154874D02*
X94593152Y-58297731D01*
X94593152Y-58297731D02*
X94640771Y-58392970D01*
X94640771Y-58392970D02*
X94736009Y-58440589D01*
X94736009Y-58440589D02*
X95259819Y-58440589D01*
X95259819Y-59345350D02*
X94736009Y-59345350D01*
X94736009Y-59345350D02*
X94640771Y-59297731D01*
X94640771Y-59297731D02*
X94593152Y-59202493D01*
X94593152Y-59202493D02*
X94593152Y-59012017D01*
X94593152Y-59012017D02*
X94640771Y-58916779D01*
X95212200Y-59345350D02*
X95259819Y-59250112D01*
X95259819Y-59250112D02*
X95259819Y-59012017D01*
X95259819Y-59012017D02*
X95212200Y-58916779D01*
X95212200Y-58916779D02*
X95116961Y-58869160D01*
X95116961Y-58869160D02*
X95021723Y-58869160D01*
X95021723Y-58869160D02*
X94926485Y-58916779D01*
X94926485Y-58916779D02*
X94878866Y-59012017D01*
X94878866Y-59012017D02*
X94878866Y-59250112D01*
X94878866Y-59250112D02*
X94831247Y-59345350D01*
X94593152Y-59678684D02*
X94593152Y-60059636D01*
X94259819Y-59821541D02*
X95116961Y-59821541D01*
X95116961Y-59821541D02*
X95212200Y-59869160D01*
X95212200Y-59869160D02*
X95259819Y-59964398D01*
X95259819Y-59964398D02*
X95259819Y-60059636D01*
X95259819Y-60821541D02*
X94736009Y-60821541D01*
X94736009Y-60821541D02*
X94640771Y-60773922D01*
X94640771Y-60773922D02*
X94593152Y-60678684D01*
X94593152Y-60678684D02*
X94593152Y-60488208D01*
X94593152Y-60488208D02*
X94640771Y-60392970D01*
X95212200Y-60821541D02*
X95259819Y-60726303D01*
X95259819Y-60726303D02*
X95259819Y-60488208D01*
X95259819Y-60488208D02*
X95212200Y-60392970D01*
X95212200Y-60392970D02*
X95116961Y-60345351D01*
X95116961Y-60345351D02*
X95021723Y-60345351D01*
X95021723Y-60345351D02*
X94926485Y-60392970D01*
X94926485Y-60392970D02*
X94878866Y-60488208D01*
X94878866Y-60488208D02*
X94878866Y-60726303D01*
X94878866Y-60726303D02*
X94831247Y-60821541D01*
X95212200Y-61726303D02*
X95259819Y-61631065D01*
X95259819Y-61631065D02*
X95259819Y-61440589D01*
X95259819Y-61440589D02*
X95212200Y-61345351D01*
X95212200Y-61345351D02*
X95164580Y-61297732D01*
X95164580Y-61297732D02*
X95069342Y-61250113D01*
X95069342Y-61250113D02*
X94783628Y-61250113D01*
X94783628Y-61250113D02*
X94688390Y-61297732D01*
X94688390Y-61297732D02*
X94640771Y-61345351D01*
X94640771Y-61345351D02*
X94593152Y-61440589D01*
X94593152Y-61440589D02*
X94593152Y-61631065D01*
X94593152Y-61631065D02*
X94640771Y-61726303D01*
X94593152Y-62012018D02*
X94593152Y-62392970D01*
X94259819Y-62154875D02*
X95116961Y-62154875D01*
X95116961Y-62154875D02*
X95212200Y-62202494D01*
X95212200Y-62202494D02*
X95259819Y-62297732D01*
X95259819Y-62297732D02*
X95259819Y-62392970D01*
X95259819Y-62869161D02*
X95212200Y-62773923D01*
X95212200Y-62773923D02*
X95164580Y-62726304D01*
X95164580Y-62726304D02*
X95069342Y-62678685D01*
X95069342Y-62678685D02*
X94783628Y-62678685D01*
X94783628Y-62678685D02*
X94688390Y-62726304D01*
X94688390Y-62726304D02*
X94640771Y-62773923D01*
X94640771Y-62773923D02*
X94593152Y-62869161D01*
X94593152Y-62869161D02*
X94593152Y-63012018D01*
X94593152Y-63012018D02*
X94640771Y-63107256D01*
X94640771Y-63107256D02*
X94688390Y-63154875D01*
X94688390Y-63154875D02*
X94783628Y-63202494D01*
X94783628Y-63202494D02*
X95069342Y-63202494D01*
X95069342Y-63202494D02*
X95164580Y-63154875D01*
X95164580Y-63154875D02*
X95212200Y-63107256D01*
X95212200Y-63107256D02*
X95259819Y-63012018D01*
X95259819Y-63012018D02*
X95259819Y-62869161D01*
X95259819Y-63631066D02*
X94593152Y-63631066D01*
X94783628Y-63631066D02*
X94688390Y-63678685D01*
X94688390Y-63678685D02*
X94640771Y-63726304D01*
X94640771Y-63726304D02*
X94593152Y-63821542D01*
X94593152Y-63821542D02*
X94593152Y-63916780D01*
X95259819Y-65583447D02*
X94783628Y-65250114D01*
X95259819Y-65012019D02*
X94259819Y-65012019D01*
X94259819Y-65012019D02*
X94259819Y-65392971D01*
X94259819Y-65392971D02*
X94307438Y-65488209D01*
X94307438Y-65488209D02*
X94355057Y-65535828D01*
X94355057Y-65535828D02*
X94450295Y-65583447D01*
X94450295Y-65583447D02*
X94593152Y-65583447D01*
X94593152Y-65583447D02*
X94688390Y-65535828D01*
X94688390Y-65535828D02*
X94736009Y-65488209D01*
X94736009Y-65488209D02*
X94783628Y-65392971D01*
X94783628Y-65392971D02*
X94783628Y-65012019D01*
X95212200Y-66392971D02*
X95259819Y-66297733D01*
X95259819Y-66297733D02*
X95259819Y-66107257D01*
X95259819Y-66107257D02*
X95212200Y-66012019D01*
X95212200Y-66012019D02*
X95116961Y-65964400D01*
X95116961Y-65964400D02*
X94736009Y-65964400D01*
X94736009Y-65964400D02*
X94640771Y-66012019D01*
X94640771Y-66012019D02*
X94593152Y-66107257D01*
X94593152Y-66107257D02*
X94593152Y-66297733D01*
X94593152Y-66297733D02*
X94640771Y-66392971D01*
X94640771Y-66392971D02*
X94736009Y-66440590D01*
X94736009Y-66440590D02*
X94831247Y-66440590D01*
X94831247Y-66440590D02*
X94926485Y-65964400D01*
X95259819Y-67012019D02*
X95212200Y-66916781D01*
X95212200Y-66916781D02*
X95116961Y-66869162D01*
X95116961Y-66869162D02*
X94259819Y-66869162D01*
X95259819Y-67821543D02*
X94736009Y-67821543D01*
X94736009Y-67821543D02*
X94640771Y-67773924D01*
X94640771Y-67773924D02*
X94593152Y-67678686D01*
X94593152Y-67678686D02*
X94593152Y-67488210D01*
X94593152Y-67488210D02*
X94640771Y-67392972D01*
X95212200Y-67821543D02*
X95259819Y-67726305D01*
X95259819Y-67726305D02*
X95259819Y-67488210D01*
X95259819Y-67488210D02*
X95212200Y-67392972D01*
X95212200Y-67392972D02*
X95116961Y-67345353D01*
X95116961Y-67345353D02*
X95021723Y-67345353D01*
X95021723Y-67345353D02*
X94926485Y-67392972D01*
X94926485Y-67392972D02*
X94878866Y-67488210D01*
X94878866Y-67488210D02*
X94878866Y-67726305D01*
X94878866Y-67726305D02*
X94831247Y-67821543D01*
X94593152Y-68202496D02*
X95259819Y-68440591D01*
X94593152Y-68678686D02*
X95259819Y-68440591D01*
X95259819Y-68440591D02*
X95497914Y-68345353D01*
X95497914Y-68345353D02*
X95545533Y-68297734D01*
X95545533Y-68297734D02*
X95593152Y-68202496D01*
X94974104Y-69773925D02*
X94974104Y-70250115D01*
X95259819Y-69678687D02*
X94259819Y-70012020D01*
X94259819Y-70012020D02*
X95259819Y-70345353D01*
X95212200Y-71107258D02*
X95259819Y-71012020D01*
X95259819Y-71012020D02*
X95259819Y-70821544D01*
X95259819Y-70821544D02*
X95212200Y-70726306D01*
X95212200Y-70726306D02*
X95164580Y-70678687D01*
X95164580Y-70678687D02*
X95069342Y-70631068D01*
X95069342Y-70631068D02*
X94783628Y-70631068D01*
X94783628Y-70631068D02*
X94688390Y-70678687D01*
X94688390Y-70678687D02*
X94640771Y-70726306D01*
X94640771Y-70726306D02*
X94593152Y-70821544D01*
X94593152Y-70821544D02*
X94593152Y-71012020D01*
X94593152Y-71012020D02*
X94640771Y-71107258D01*
X94593152Y-71392973D02*
X94593152Y-71773925D01*
X94259819Y-71535830D02*
X95116961Y-71535830D01*
X95116961Y-71535830D02*
X95212200Y-71583449D01*
X95212200Y-71583449D02*
X95259819Y-71678687D01*
X95259819Y-71678687D02*
X95259819Y-71773925D01*
X94593152Y-72535830D02*
X95259819Y-72535830D01*
X94593152Y-72107259D02*
X95116961Y-72107259D01*
X95116961Y-72107259D02*
X95212200Y-72154878D01*
X95212200Y-72154878D02*
X95259819Y-72250116D01*
X95259819Y-72250116D02*
X95259819Y-72392973D01*
X95259819Y-72392973D02*
X95212200Y-72488211D01*
X95212200Y-72488211D02*
X95164580Y-72535830D01*
X95259819Y-73440592D02*
X94736009Y-73440592D01*
X94736009Y-73440592D02*
X94640771Y-73392973D01*
X94640771Y-73392973D02*
X94593152Y-73297735D01*
X94593152Y-73297735D02*
X94593152Y-73107259D01*
X94593152Y-73107259D02*
X94640771Y-73012021D01*
X95212200Y-73440592D02*
X95259819Y-73345354D01*
X95259819Y-73345354D02*
X95259819Y-73107259D01*
X95259819Y-73107259D02*
X95212200Y-73012021D01*
X95212200Y-73012021D02*
X95116961Y-72964402D01*
X95116961Y-72964402D02*
X95021723Y-72964402D01*
X95021723Y-72964402D02*
X94926485Y-73012021D01*
X94926485Y-73012021D02*
X94878866Y-73107259D01*
X94878866Y-73107259D02*
X94878866Y-73345354D01*
X94878866Y-73345354D02*
X94831247Y-73440592D01*
X94593152Y-73773926D02*
X94593152Y-74154878D01*
X94259819Y-73916783D02*
X95116961Y-73916783D01*
X95116961Y-73916783D02*
X95212200Y-73964402D01*
X95212200Y-73964402D02*
X95259819Y-74059640D01*
X95259819Y-74059640D02*
X95259819Y-74154878D01*
X95259819Y-74488212D02*
X94593152Y-74488212D01*
X94259819Y-74488212D02*
X94307438Y-74440593D01*
X94307438Y-74440593D02*
X94355057Y-74488212D01*
X94355057Y-74488212D02*
X94307438Y-74535831D01*
X94307438Y-74535831D02*
X94259819Y-74488212D01*
X94259819Y-74488212D02*
X94355057Y-74488212D01*
X95259819Y-75107259D02*
X95212200Y-75012021D01*
X95212200Y-75012021D02*
X95164580Y-74964402D01*
X95164580Y-74964402D02*
X95069342Y-74916783D01*
X95069342Y-74916783D02*
X94783628Y-74916783D01*
X94783628Y-74916783D02*
X94688390Y-74964402D01*
X94688390Y-74964402D02*
X94640771Y-75012021D01*
X94640771Y-75012021D02*
X94593152Y-75107259D01*
X94593152Y-75107259D02*
X94593152Y-75250116D01*
X94593152Y-75250116D02*
X94640771Y-75345354D01*
X94640771Y-75345354D02*
X94688390Y-75392973D01*
X94688390Y-75392973D02*
X94783628Y-75440592D01*
X94783628Y-75440592D02*
X95069342Y-75440592D01*
X95069342Y-75440592D02*
X95164580Y-75392973D01*
X95164580Y-75392973D02*
X95212200Y-75345354D01*
X95212200Y-75345354D02*
X95259819Y-75250116D01*
X95259819Y-75250116D02*
X95259819Y-75107259D01*
X94593152Y-75869164D02*
X95259819Y-75869164D01*
X94688390Y-75869164D02*
X94640771Y-75916783D01*
X94640771Y-75916783D02*
X94593152Y-76012021D01*
X94593152Y-76012021D02*
X94593152Y-76154878D01*
X94593152Y-76154878D02*
X94640771Y-76250116D01*
X94640771Y-76250116D02*
X94736009Y-76297735D01*
X94736009Y-76297735D02*
X95259819Y-76297735D01*
X95259819Y-77535831D02*
X94259819Y-77535831D01*
X94259819Y-77535831D02*
X94974104Y-77869164D01*
X94974104Y-77869164D02*
X94259819Y-78202497D01*
X94259819Y-78202497D02*
X95259819Y-78202497D01*
X95259819Y-78821545D02*
X95212200Y-78726307D01*
X95212200Y-78726307D02*
X95164580Y-78678688D01*
X95164580Y-78678688D02*
X95069342Y-78631069D01*
X95069342Y-78631069D02*
X94783628Y-78631069D01*
X94783628Y-78631069D02*
X94688390Y-78678688D01*
X94688390Y-78678688D02*
X94640771Y-78726307D01*
X94640771Y-78726307D02*
X94593152Y-78821545D01*
X94593152Y-78821545D02*
X94593152Y-78964402D01*
X94593152Y-78964402D02*
X94640771Y-79059640D01*
X94640771Y-79059640D02*
X94688390Y-79107259D01*
X94688390Y-79107259D02*
X94783628Y-79154878D01*
X94783628Y-79154878D02*
X95069342Y-79154878D01*
X95069342Y-79154878D02*
X95164580Y-79107259D01*
X95164580Y-79107259D02*
X95212200Y-79059640D01*
X95212200Y-79059640D02*
X95259819Y-78964402D01*
X95259819Y-78964402D02*
X95259819Y-78821545D01*
X95259819Y-80012021D02*
X94259819Y-80012021D01*
X95212200Y-80012021D02*
X95259819Y-79916783D01*
X95259819Y-79916783D02*
X95259819Y-79726307D01*
X95259819Y-79726307D02*
X95212200Y-79631069D01*
X95212200Y-79631069D02*
X95164580Y-79583450D01*
X95164580Y-79583450D02*
X95069342Y-79535831D01*
X95069342Y-79535831D02*
X94783628Y-79535831D01*
X94783628Y-79535831D02*
X94688390Y-79583450D01*
X94688390Y-79583450D02*
X94640771Y-79631069D01*
X94640771Y-79631069D02*
X94593152Y-79726307D01*
X94593152Y-79726307D02*
X94593152Y-79916783D01*
X94593152Y-79916783D02*
X94640771Y-80012021D01*
X94593152Y-80916783D02*
X95259819Y-80916783D01*
X94593152Y-80488212D02*
X95116961Y-80488212D01*
X95116961Y-80488212D02*
X95212200Y-80535831D01*
X95212200Y-80535831D02*
X95259819Y-80631069D01*
X95259819Y-80631069D02*
X95259819Y-80773926D01*
X95259819Y-80773926D02*
X95212200Y-80869164D01*
X95212200Y-80869164D02*
X95164580Y-80916783D01*
X95259819Y-81535831D02*
X95212200Y-81440593D01*
X95212200Y-81440593D02*
X95116961Y-81392974D01*
X95116961Y-81392974D02*
X94259819Y-81392974D01*
X95212200Y-82297736D02*
X95259819Y-82202498D01*
X95259819Y-82202498D02*
X95259819Y-82012022D01*
X95259819Y-82012022D02*
X95212200Y-81916784D01*
X95212200Y-81916784D02*
X95116961Y-81869165D01*
X95116961Y-81869165D02*
X94736009Y-81869165D01*
X94736009Y-81869165D02*
X94640771Y-81916784D01*
X94640771Y-81916784D02*
X94593152Y-82012022D01*
X94593152Y-82012022D02*
X94593152Y-82202498D01*
X94593152Y-82202498D02*
X94640771Y-82297736D01*
X94640771Y-82297736D02*
X94736009Y-82345355D01*
X94736009Y-82345355D02*
X94831247Y-82345355D01*
X94831247Y-82345355D02*
X94926485Y-81869165D01*
X96107914Y-54726303D02*
X96060295Y-54631064D01*
X96060295Y-54631064D02*
X96060295Y-54440588D01*
X96060295Y-54440588D02*
X96107914Y-54345350D01*
X96107914Y-54345350D02*
X96203152Y-54250112D01*
X96203152Y-54250112D02*
X96298390Y-54202493D01*
X96298390Y-54202493D02*
X96488866Y-54202493D01*
X96488866Y-54202493D02*
X96584104Y-54250112D01*
X96584104Y-54250112D02*
X96679342Y-54345350D01*
X96679342Y-54345350D02*
X96726961Y-54440588D01*
X96726961Y-54440588D02*
X96726961Y-54631064D01*
X96726961Y-54631064D02*
X96679342Y-54726303D01*
X95726961Y-54535826D02*
X95774580Y-54297731D01*
X95774580Y-54297731D02*
X95917438Y-54059636D01*
X95917438Y-54059636D02*
X96155533Y-53916779D01*
X96155533Y-53916779D02*
X96393628Y-53869160D01*
X96393628Y-53869160D02*
X96631723Y-53916779D01*
X96631723Y-53916779D02*
X96869819Y-54059636D01*
X96869819Y-54059636D02*
X97012676Y-54297731D01*
X97012676Y-54297731D02*
X97060295Y-54535826D01*
X97060295Y-54535826D02*
X97012676Y-54773922D01*
X97012676Y-54773922D02*
X96869819Y-55012017D01*
X96869819Y-55012017D02*
X96631723Y-55154874D01*
X96631723Y-55154874D02*
X96393628Y-55202493D01*
X96393628Y-55202493D02*
X96155533Y-55154874D01*
X96155533Y-55154874D02*
X95917438Y-55012017D01*
X95917438Y-55012017D02*
X95774580Y-54773922D01*
X95774580Y-54773922D02*
X95726961Y-54535826D01*
X96584104Y-56345351D02*
X96584104Y-56821541D01*
X96869819Y-56250113D02*
X95869819Y-56583446D01*
X95869819Y-56583446D02*
X96869819Y-56916779D01*
X96203152Y-57250113D02*
X96869819Y-57250113D01*
X96298390Y-57250113D02*
X96250771Y-57297732D01*
X96250771Y-57297732D02*
X96203152Y-57392970D01*
X96203152Y-57392970D02*
X96203152Y-57535827D01*
X96203152Y-57535827D02*
X96250771Y-57631065D01*
X96250771Y-57631065D02*
X96346009Y-57678684D01*
X96346009Y-57678684D02*
X96869819Y-57678684D01*
X96203152Y-58059637D02*
X96869819Y-58250113D01*
X96869819Y-58250113D02*
X96393628Y-58440589D01*
X96393628Y-58440589D02*
X96869819Y-58631065D01*
X96869819Y-58631065D02*
X96203152Y-58821541D01*
X96869819Y-59631065D02*
X96346009Y-59631065D01*
X96346009Y-59631065D02*
X96250771Y-59583446D01*
X96250771Y-59583446D02*
X96203152Y-59488208D01*
X96203152Y-59488208D02*
X96203152Y-59297732D01*
X96203152Y-59297732D02*
X96250771Y-59202494D01*
X96822200Y-59631065D02*
X96869819Y-59535827D01*
X96869819Y-59535827D02*
X96869819Y-59297732D01*
X96869819Y-59297732D02*
X96822200Y-59202494D01*
X96822200Y-59202494D02*
X96726961Y-59154875D01*
X96726961Y-59154875D02*
X96631723Y-59154875D01*
X96631723Y-59154875D02*
X96536485Y-59202494D01*
X96536485Y-59202494D02*
X96488866Y-59297732D01*
X96488866Y-59297732D02*
X96488866Y-59535827D01*
X96488866Y-59535827D02*
X96441247Y-59631065D01*
X96203152Y-60012018D02*
X96869819Y-60250113D01*
X96203152Y-60488208D02*
X96869819Y-60250113D01*
X96869819Y-60250113D02*
X97107914Y-60154875D01*
X97107914Y-60154875D02*
X97155533Y-60107256D01*
X97155533Y-60107256D02*
X97203152Y-60012018D01*
X96869819Y-61631066D02*
X95869819Y-61631066D01*
X95869819Y-61631066D02*
X95869819Y-62012018D01*
X95869819Y-62012018D02*
X95917438Y-62107256D01*
X95917438Y-62107256D02*
X95965057Y-62154875D01*
X95965057Y-62154875D02*
X96060295Y-62202494D01*
X96060295Y-62202494D02*
X96203152Y-62202494D01*
X96203152Y-62202494D02*
X96298390Y-62154875D01*
X96298390Y-62154875D02*
X96346009Y-62107256D01*
X96346009Y-62107256D02*
X96393628Y-62012018D01*
X96393628Y-62012018D02*
X96393628Y-61631066D01*
X96869819Y-62631066D02*
X96203152Y-62631066D01*
X95869819Y-62631066D02*
X95917438Y-62583447D01*
X95917438Y-62583447D02*
X95965057Y-62631066D01*
X95965057Y-62631066D02*
X95917438Y-62678685D01*
X95917438Y-62678685D02*
X95869819Y-62631066D01*
X95869819Y-62631066D02*
X95965057Y-62631066D01*
X96869819Y-63107256D02*
X96203152Y-63107256D01*
X96298390Y-63107256D02*
X96250771Y-63154875D01*
X96250771Y-63154875D02*
X96203152Y-63250113D01*
X96203152Y-63250113D02*
X96203152Y-63392970D01*
X96203152Y-63392970D02*
X96250771Y-63488208D01*
X96250771Y-63488208D02*
X96346009Y-63535827D01*
X96346009Y-63535827D02*
X96869819Y-63535827D01*
X96346009Y-63535827D02*
X96250771Y-63583446D01*
X96250771Y-63583446D02*
X96203152Y-63678684D01*
X96203152Y-63678684D02*
X96203152Y-63821541D01*
X96203152Y-63821541D02*
X96250771Y-63916780D01*
X96250771Y-63916780D02*
X96346009Y-63964399D01*
X96346009Y-63964399D02*
X96869819Y-63964399D01*
X96203152Y-64440589D02*
X97203152Y-64440589D01*
X96250771Y-64440589D02*
X96203152Y-64535827D01*
X96203152Y-64535827D02*
X96203152Y-64726303D01*
X96203152Y-64726303D02*
X96250771Y-64821541D01*
X96250771Y-64821541D02*
X96298390Y-64869160D01*
X96298390Y-64869160D02*
X96393628Y-64916779D01*
X96393628Y-64916779D02*
X96679342Y-64916779D01*
X96679342Y-64916779D02*
X96774580Y-64869160D01*
X96774580Y-64869160D02*
X96822200Y-64821541D01*
X96822200Y-64821541D02*
X96869819Y-64726303D01*
X96869819Y-64726303D02*
X96869819Y-64535827D01*
X96869819Y-64535827D02*
X96822200Y-64440589D01*
X96869819Y-65773922D02*
X96346009Y-65773922D01*
X96346009Y-65773922D02*
X96250771Y-65726303D01*
X96250771Y-65726303D02*
X96203152Y-65631065D01*
X96203152Y-65631065D02*
X96203152Y-65440589D01*
X96203152Y-65440589D02*
X96250771Y-65345351D01*
X96822200Y-65773922D02*
X96869819Y-65678684D01*
X96869819Y-65678684D02*
X96869819Y-65440589D01*
X96869819Y-65440589D02*
X96822200Y-65345351D01*
X96822200Y-65345351D02*
X96726961Y-65297732D01*
X96726961Y-65297732D02*
X96631723Y-65297732D01*
X96631723Y-65297732D02*
X96536485Y-65345351D01*
X96536485Y-65345351D02*
X96488866Y-65440589D01*
X96488866Y-65440589D02*
X96488866Y-65678684D01*
X96488866Y-65678684D02*
X96441247Y-65773922D01*
X96869819Y-66392970D02*
X96822200Y-66297732D01*
X96822200Y-66297732D02*
X96726961Y-66250113D01*
X96726961Y-66250113D02*
X95869819Y-66250113D01*
X96869819Y-66773923D02*
X95869819Y-66773923D01*
X96488866Y-66869161D02*
X96869819Y-67154875D01*
X96203152Y-67154875D02*
X96584104Y-66773923D01*
X96869819Y-68012018D02*
X96346009Y-68012018D01*
X96346009Y-68012018D02*
X96250771Y-67964399D01*
X96250771Y-67964399D02*
X96203152Y-67869161D01*
X96203152Y-67869161D02*
X96203152Y-67678685D01*
X96203152Y-67678685D02*
X96250771Y-67583447D01*
X96822200Y-68012018D02*
X96869819Y-67916780D01*
X96869819Y-67916780D02*
X96869819Y-67678685D01*
X96869819Y-67678685D02*
X96822200Y-67583447D01*
X96822200Y-67583447D02*
X96726961Y-67535828D01*
X96726961Y-67535828D02*
X96631723Y-67535828D01*
X96631723Y-67535828D02*
X96536485Y-67583447D01*
X96536485Y-67583447D02*
X96488866Y-67678685D01*
X96488866Y-67678685D02*
X96488866Y-67916780D01*
X96488866Y-67916780D02*
X96441247Y-68012018D01*
X96869819Y-68488209D02*
X96203152Y-68488209D01*
X96393628Y-68488209D02*
X96298390Y-68535828D01*
X96298390Y-68535828D02*
X96250771Y-68583447D01*
X96250771Y-68583447D02*
X96203152Y-68678685D01*
X96203152Y-68678685D02*
X96203152Y-68773923D01*
X95965057Y-69821543D02*
X95917438Y-69869162D01*
X95917438Y-69869162D02*
X95869819Y-69964400D01*
X95869819Y-69964400D02*
X95869819Y-70202495D01*
X95869819Y-70202495D02*
X95917438Y-70297733D01*
X95917438Y-70297733D02*
X95965057Y-70345352D01*
X95965057Y-70345352D02*
X96060295Y-70392971D01*
X96060295Y-70392971D02*
X96155533Y-70392971D01*
X96155533Y-70392971D02*
X96298390Y-70345352D01*
X96298390Y-70345352D02*
X96869819Y-69773924D01*
X96869819Y-69773924D02*
X96869819Y-70392971D01*
X95869819Y-71012019D02*
X95869819Y-71107257D01*
X95869819Y-71107257D02*
X95917438Y-71202495D01*
X95917438Y-71202495D02*
X95965057Y-71250114D01*
X95965057Y-71250114D02*
X96060295Y-71297733D01*
X96060295Y-71297733D02*
X96250771Y-71345352D01*
X96250771Y-71345352D02*
X96488866Y-71345352D01*
X96488866Y-71345352D02*
X96679342Y-71297733D01*
X96679342Y-71297733D02*
X96774580Y-71250114D01*
X96774580Y-71250114D02*
X96822200Y-71202495D01*
X96822200Y-71202495D02*
X96869819Y-71107257D01*
X96869819Y-71107257D02*
X96869819Y-71012019D01*
X96869819Y-71012019D02*
X96822200Y-70916781D01*
X96822200Y-70916781D02*
X96774580Y-70869162D01*
X96774580Y-70869162D02*
X96679342Y-70821543D01*
X96679342Y-70821543D02*
X96488866Y-70773924D01*
X96488866Y-70773924D02*
X96250771Y-70773924D01*
X96250771Y-70773924D02*
X96060295Y-70821543D01*
X96060295Y-70821543D02*
X95965057Y-70869162D01*
X95965057Y-70869162D02*
X95917438Y-70916781D01*
X95917438Y-70916781D02*
X95869819Y-71012019D01*
X95965057Y-71726305D02*
X95917438Y-71773924D01*
X95917438Y-71773924D02*
X95869819Y-71869162D01*
X95869819Y-71869162D02*
X95869819Y-72107257D01*
X95869819Y-72107257D02*
X95917438Y-72202495D01*
X95917438Y-72202495D02*
X95965057Y-72250114D01*
X95965057Y-72250114D02*
X96060295Y-72297733D01*
X96060295Y-72297733D02*
X96155533Y-72297733D01*
X96155533Y-72297733D02*
X96298390Y-72250114D01*
X96298390Y-72250114D02*
X96869819Y-71678686D01*
X96869819Y-71678686D02*
X96869819Y-72297733D01*
X95869819Y-73202495D02*
X95869819Y-72726305D01*
X95869819Y-72726305D02*
X96346009Y-72678686D01*
X96346009Y-72678686D02*
X96298390Y-72726305D01*
X96298390Y-72726305D02*
X96250771Y-72821543D01*
X96250771Y-72821543D02*
X96250771Y-73059638D01*
X96250771Y-73059638D02*
X96298390Y-73154876D01*
X96298390Y-73154876D02*
X96346009Y-73202495D01*
X96346009Y-73202495D02*
X96441247Y-73250114D01*
X96441247Y-73250114D02*
X96679342Y-73250114D01*
X96679342Y-73250114D02*
X96774580Y-73202495D01*
X96774580Y-73202495D02*
X96822200Y-73154876D01*
X96822200Y-73154876D02*
X96869819Y-73059638D01*
X96869819Y-73059638D02*
X96869819Y-72821543D01*
X96869819Y-72821543D02*
X96822200Y-72726305D01*
X96822200Y-72726305D02*
X96774580Y-72678686D01*
M02*
