%TF.GenerationSoftware,KiCad,Pcbnew,7.0.9*%
%TF.CreationDate,2025-03-02T20:13:22-05:00*%
%TF.ProjectId,Module_Relay_PCB,4d6f6475-6c65-45f5-9265-6c61795f5043,rev?*%
%TF.SameCoordinates,Original*%
%TF.FileFunction,Legend,Top*%
%TF.FilePolarity,Positive*%
%FSLAX46Y46*%
G04 Gerber Fmt 4.6, Leading zero omitted, Abs format (unit mm)*
G04 Created by KiCad (PCBNEW 7.0.9) date 2025-03-02 20:13:22*
%MOMM*%
%LPD*%
G01*
G04 APERTURE LIST*
%ADD10C,0.150000*%
%ADD11C,0.101600*%
%ADD12C,0.120000*%
%ADD13C,0.152400*%
%ADD14C,0.127000*%
%ADD15C,0.254000*%
%ADD16C,0.025400*%
G04 APERTURE END LIST*
D10*
X125322200Y-165290839D02*
X125369819Y-165147982D01*
X125369819Y-165147982D02*
X125369819Y-164909887D01*
X125369819Y-164909887D02*
X125322200Y-164814649D01*
X125322200Y-164814649D02*
X125274580Y-164767030D01*
X125274580Y-164767030D02*
X125179342Y-164719411D01*
X125179342Y-164719411D02*
X125084104Y-164719411D01*
X125084104Y-164719411D02*
X124988866Y-164767030D01*
X124988866Y-164767030D02*
X124941247Y-164814649D01*
X124941247Y-164814649D02*
X124893628Y-164909887D01*
X124893628Y-164909887D02*
X124846009Y-165100363D01*
X124846009Y-165100363D02*
X124798390Y-165195601D01*
X124798390Y-165195601D02*
X124750771Y-165243220D01*
X124750771Y-165243220D02*
X124655533Y-165290839D01*
X124655533Y-165290839D02*
X124560295Y-165290839D01*
X124560295Y-165290839D02*
X124465057Y-165243220D01*
X124465057Y-165243220D02*
X124417438Y-165195601D01*
X124417438Y-165195601D02*
X124369819Y-165100363D01*
X124369819Y-165100363D02*
X124369819Y-164862268D01*
X124369819Y-164862268D02*
X124417438Y-164719411D01*
X125369819Y-164290839D02*
X124369819Y-164290839D01*
X124369819Y-164290839D02*
X124369819Y-164052744D01*
X124369819Y-164052744D02*
X124417438Y-163909887D01*
X124417438Y-163909887D02*
X124512676Y-163814649D01*
X124512676Y-163814649D02*
X124607914Y-163767030D01*
X124607914Y-163767030D02*
X124798390Y-163719411D01*
X124798390Y-163719411D02*
X124941247Y-163719411D01*
X124941247Y-163719411D02*
X125131723Y-163767030D01*
X125131723Y-163767030D02*
X125226961Y-163814649D01*
X125226961Y-163814649D02*
X125322200Y-163909887D01*
X125322200Y-163909887D02*
X125369819Y-164052744D01*
X125369819Y-164052744D02*
X125369819Y-164290839D01*
X125084104Y-163338458D02*
X125084104Y-162862268D01*
X125369819Y-163433696D02*
X124369819Y-163100363D01*
X124369819Y-163100363D02*
X125369819Y-162767030D01*
X106502200Y-53685839D02*
X106549819Y-53542982D01*
X106549819Y-53542982D02*
X106549819Y-53304887D01*
X106549819Y-53304887D02*
X106502200Y-53209649D01*
X106502200Y-53209649D02*
X106454580Y-53162030D01*
X106454580Y-53162030D02*
X106359342Y-53114411D01*
X106359342Y-53114411D02*
X106264104Y-53114411D01*
X106264104Y-53114411D02*
X106168866Y-53162030D01*
X106168866Y-53162030D02*
X106121247Y-53209649D01*
X106121247Y-53209649D02*
X106073628Y-53304887D01*
X106073628Y-53304887D02*
X106026009Y-53495363D01*
X106026009Y-53495363D02*
X105978390Y-53590601D01*
X105978390Y-53590601D02*
X105930771Y-53638220D01*
X105930771Y-53638220D02*
X105835533Y-53685839D01*
X105835533Y-53685839D02*
X105740295Y-53685839D01*
X105740295Y-53685839D02*
X105645057Y-53638220D01*
X105645057Y-53638220D02*
X105597438Y-53590601D01*
X105597438Y-53590601D02*
X105549819Y-53495363D01*
X105549819Y-53495363D02*
X105549819Y-53257268D01*
X105549819Y-53257268D02*
X105597438Y-53114411D01*
X106549819Y-52685839D02*
X105549819Y-52685839D01*
X105549819Y-52685839D02*
X105549819Y-52447744D01*
X105549819Y-52447744D02*
X105597438Y-52304887D01*
X105597438Y-52304887D02*
X105692676Y-52209649D01*
X105692676Y-52209649D02*
X105787914Y-52162030D01*
X105787914Y-52162030D02*
X105978390Y-52114411D01*
X105978390Y-52114411D02*
X106121247Y-52114411D01*
X106121247Y-52114411D02*
X106311723Y-52162030D01*
X106311723Y-52162030D02*
X106406961Y-52209649D01*
X106406961Y-52209649D02*
X106502200Y-52304887D01*
X106502200Y-52304887D02*
X106549819Y-52447744D01*
X106549819Y-52447744D02*
X106549819Y-52685839D01*
X106264104Y-51733458D02*
X106264104Y-51257268D01*
X106549819Y-51828696D02*
X105549819Y-51495363D01*
X105549819Y-51495363D02*
X106549819Y-51162030D01*
X113169819Y-53162030D02*
X113169819Y-53638220D01*
X113169819Y-53638220D02*
X113646009Y-53685839D01*
X113646009Y-53685839D02*
X113598390Y-53638220D01*
X113598390Y-53638220D02*
X113550771Y-53542982D01*
X113550771Y-53542982D02*
X113550771Y-53304887D01*
X113550771Y-53304887D02*
X113598390Y-53209649D01*
X113598390Y-53209649D02*
X113646009Y-53162030D01*
X113646009Y-53162030D02*
X113741247Y-53114411D01*
X113741247Y-53114411D02*
X113979342Y-53114411D01*
X113979342Y-53114411D02*
X114074580Y-53162030D01*
X114074580Y-53162030D02*
X114122200Y-53209649D01*
X114122200Y-53209649D02*
X114169819Y-53304887D01*
X114169819Y-53304887D02*
X114169819Y-53542982D01*
X114169819Y-53542982D02*
X114122200Y-53638220D01*
X114122200Y-53638220D02*
X114074580Y-53685839D01*
X113169819Y-52828696D02*
X114169819Y-52495363D01*
X114169819Y-52495363D02*
X113169819Y-52162030D01*
X129289160Y-161402200D02*
X129432017Y-161449819D01*
X129432017Y-161449819D02*
X129670112Y-161449819D01*
X129670112Y-161449819D02*
X129765350Y-161402200D01*
X129765350Y-161402200D02*
X129812969Y-161354580D01*
X129812969Y-161354580D02*
X129860588Y-161259342D01*
X129860588Y-161259342D02*
X129860588Y-161164104D01*
X129860588Y-161164104D02*
X129812969Y-161068866D01*
X129812969Y-161068866D02*
X129765350Y-161021247D01*
X129765350Y-161021247D02*
X129670112Y-160973628D01*
X129670112Y-160973628D02*
X129479636Y-160926009D01*
X129479636Y-160926009D02*
X129384398Y-160878390D01*
X129384398Y-160878390D02*
X129336779Y-160830771D01*
X129336779Y-160830771D02*
X129289160Y-160735533D01*
X129289160Y-160735533D02*
X129289160Y-160640295D01*
X129289160Y-160640295D02*
X129336779Y-160545057D01*
X129336779Y-160545057D02*
X129384398Y-160497438D01*
X129384398Y-160497438D02*
X129479636Y-160449819D01*
X129479636Y-160449819D02*
X129717731Y-160449819D01*
X129717731Y-160449819D02*
X129860588Y-160497438D01*
X130860588Y-161354580D02*
X130812969Y-161402200D01*
X130812969Y-161402200D02*
X130670112Y-161449819D01*
X130670112Y-161449819D02*
X130574874Y-161449819D01*
X130574874Y-161449819D02*
X130432017Y-161402200D01*
X130432017Y-161402200D02*
X130336779Y-161306961D01*
X130336779Y-161306961D02*
X130289160Y-161211723D01*
X130289160Y-161211723D02*
X130241541Y-161021247D01*
X130241541Y-161021247D02*
X130241541Y-160878390D01*
X130241541Y-160878390D02*
X130289160Y-160687914D01*
X130289160Y-160687914D02*
X130336779Y-160592676D01*
X130336779Y-160592676D02*
X130432017Y-160497438D01*
X130432017Y-160497438D02*
X130574874Y-160449819D01*
X130574874Y-160449819D02*
X130670112Y-160449819D01*
X130670112Y-160449819D02*
X130812969Y-160497438D01*
X130812969Y-160497438D02*
X130860588Y-160545057D01*
X131765350Y-161449819D02*
X131289160Y-161449819D01*
X131289160Y-161449819D02*
X131289160Y-160449819D01*
X131860589Y-161545057D02*
X132622493Y-161545057D01*
X132860589Y-161449819D02*
X132860589Y-160449819D01*
X132860589Y-160449819D02*
X133241541Y-160449819D01*
X133241541Y-160449819D02*
X133336779Y-160497438D01*
X133336779Y-160497438D02*
X133384398Y-160545057D01*
X133384398Y-160545057D02*
X133432017Y-160640295D01*
X133432017Y-160640295D02*
X133432017Y-160783152D01*
X133432017Y-160783152D02*
X133384398Y-160878390D01*
X133384398Y-160878390D02*
X133336779Y-160926009D01*
X133336779Y-160926009D02*
X133241541Y-160973628D01*
X133241541Y-160973628D02*
X132860589Y-160973628D01*
X133860589Y-160449819D02*
X133860589Y-161259342D01*
X133860589Y-161259342D02*
X133908208Y-161354580D01*
X133908208Y-161354580D02*
X133955827Y-161402200D01*
X133955827Y-161402200D02*
X134051065Y-161449819D01*
X134051065Y-161449819D02*
X134241541Y-161449819D01*
X134241541Y-161449819D02*
X134336779Y-161402200D01*
X134336779Y-161402200D02*
X134384398Y-161354580D01*
X134384398Y-161354580D02*
X134432017Y-161259342D01*
X134432017Y-161259342D02*
X134432017Y-160449819D01*
X135384398Y-161449819D02*
X134908208Y-161449819D01*
X134908208Y-161449819D02*
X134908208Y-160449819D01*
X136193922Y-161449819D02*
X135717732Y-161449819D01*
X135717732Y-161449819D02*
X135717732Y-160449819D01*
X136527256Y-160449819D02*
X136527256Y-161259342D01*
X136527256Y-161259342D02*
X136574875Y-161354580D01*
X136574875Y-161354580D02*
X136622494Y-161402200D01*
X136622494Y-161402200D02*
X136717732Y-161449819D01*
X136717732Y-161449819D02*
X136908208Y-161449819D01*
X136908208Y-161449819D02*
X137003446Y-161402200D01*
X137003446Y-161402200D02*
X137051065Y-161354580D01*
X137051065Y-161354580D02*
X137098684Y-161259342D01*
X137098684Y-161259342D02*
X137098684Y-160449819D01*
X137574875Y-161449819D02*
X137574875Y-160449819D01*
X137574875Y-160449819D02*
X137955827Y-160449819D01*
X137955827Y-160449819D02*
X138051065Y-160497438D01*
X138051065Y-160497438D02*
X138098684Y-160545057D01*
X138098684Y-160545057D02*
X138146303Y-160640295D01*
X138146303Y-160640295D02*
X138146303Y-160783152D01*
X138146303Y-160783152D02*
X138098684Y-160878390D01*
X138098684Y-160878390D02*
X138051065Y-160926009D01*
X138051065Y-160926009D02*
X137955827Y-160973628D01*
X137955827Y-160973628D02*
X137574875Y-160973628D01*
X127227438Y-53114411D02*
X127179819Y-53209649D01*
X127179819Y-53209649D02*
X127179819Y-53352506D01*
X127179819Y-53352506D02*
X127227438Y-53495363D01*
X127227438Y-53495363D02*
X127322676Y-53590601D01*
X127322676Y-53590601D02*
X127417914Y-53638220D01*
X127417914Y-53638220D02*
X127608390Y-53685839D01*
X127608390Y-53685839D02*
X127751247Y-53685839D01*
X127751247Y-53685839D02*
X127941723Y-53638220D01*
X127941723Y-53638220D02*
X128036961Y-53590601D01*
X128036961Y-53590601D02*
X128132200Y-53495363D01*
X128132200Y-53495363D02*
X128179819Y-53352506D01*
X128179819Y-53352506D02*
X128179819Y-53257268D01*
X128179819Y-53257268D02*
X128132200Y-53114411D01*
X128132200Y-53114411D02*
X128084580Y-53066792D01*
X128084580Y-53066792D02*
X127751247Y-53066792D01*
X127751247Y-53066792D02*
X127751247Y-53257268D01*
X128179819Y-52638220D02*
X127179819Y-52638220D01*
X127179819Y-52638220D02*
X128179819Y-52066792D01*
X128179819Y-52066792D02*
X127179819Y-52066792D01*
X128179819Y-51590601D02*
X127179819Y-51590601D01*
X127179819Y-51590601D02*
X127179819Y-51352506D01*
X127179819Y-51352506D02*
X127227438Y-51209649D01*
X127227438Y-51209649D02*
X127322676Y-51114411D01*
X127322676Y-51114411D02*
X127417914Y-51066792D01*
X127417914Y-51066792D02*
X127608390Y-51019173D01*
X127608390Y-51019173D02*
X127751247Y-51019173D01*
X127751247Y-51019173D02*
X127941723Y-51066792D01*
X127941723Y-51066792D02*
X128036961Y-51114411D01*
X128036961Y-51114411D02*
X128132200Y-51209649D01*
X128132200Y-51209649D02*
X128179819Y-51352506D01*
X128179819Y-51352506D02*
X128179819Y-51590601D01*
X119727438Y-53114411D02*
X119679819Y-53209649D01*
X119679819Y-53209649D02*
X119679819Y-53352506D01*
X119679819Y-53352506D02*
X119727438Y-53495363D01*
X119727438Y-53495363D02*
X119822676Y-53590601D01*
X119822676Y-53590601D02*
X119917914Y-53638220D01*
X119917914Y-53638220D02*
X120108390Y-53685839D01*
X120108390Y-53685839D02*
X120251247Y-53685839D01*
X120251247Y-53685839D02*
X120441723Y-53638220D01*
X120441723Y-53638220D02*
X120536961Y-53590601D01*
X120536961Y-53590601D02*
X120632200Y-53495363D01*
X120632200Y-53495363D02*
X120679819Y-53352506D01*
X120679819Y-53352506D02*
X120679819Y-53257268D01*
X120679819Y-53257268D02*
X120632200Y-53114411D01*
X120632200Y-53114411D02*
X120584580Y-53066792D01*
X120584580Y-53066792D02*
X120251247Y-53066792D01*
X120251247Y-53066792D02*
X120251247Y-53257268D01*
X120679819Y-52638220D02*
X119679819Y-52638220D01*
X119679819Y-52638220D02*
X120679819Y-52066792D01*
X120679819Y-52066792D02*
X119679819Y-52066792D01*
X120679819Y-51590601D02*
X119679819Y-51590601D01*
X119679819Y-51590601D02*
X119679819Y-51352506D01*
X119679819Y-51352506D02*
X119727438Y-51209649D01*
X119727438Y-51209649D02*
X119822676Y-51114411D01*
X119822676Y-51114411D02*
X119917914Y-51066792D01*
X119917914Y-51066792D02*
X120108390Y-51019173D01*
X120108390Y-51019173D02*
X120251247Y-51019173D01*
X120251247Y-51019173D02*
X120441723Y-51066792D01*
X120441723Y-51066792D02*
X120536961Y-51114411D01*
X120536961Y-51114411D02*
X120632200Y-51209649D01*
X120632200Y-51209649D02*
X120679819Y-51352506D01*
X120679819Y-51352506D02*
X120679819Y-51590601D01*
X125632200Y-53685839D02*
X125679819Y-53542982D01*
X125679819Y-53542982D02*
X125679819Y-53304887D01*
X125679819Y-53304887D02*
X125632200Y-53209649D01*
X125632200Y-53209649D02*
X125584580Y-53162030D01*
X125584580Y-53162030D02*
X125489342Y-53114411D01*
X125489342Y-53114411D02*
X125394104Y-53114411D01*
X125394104Y-53114411D02*
X125298866Y-53162030D01*
X125298866Y-53162030D02*
X125251247Y-53209649D01*
X125251247Y-53209649D02*
X125203628Y-53304887D01*
X125203628Y-53304887D02*
X125156009Y-53495363D01*
X125156009Y-53495363D02*
X125108390Y-53590601D01*
X125108390Y-53590601D02*
X125060771Y-53638220D01*
X125060771Y-53638220D02*
X124965533Y-53685839D01*
X124965533Y-53685839D02*
X124870295Y-53685839D01*
X124870295Y-53685839D02*
X124775057Y-53638220D01*
X124775057Y-53638220D02*
X124727438Y-53590601D01*
X124727438Y-53590601D02*
X124679819Y-53495363D01*
X124679819Y-53495363D02*
X124679819Y-53257268D01*
X124679819Y-53257268D02*
X124727438Y-53114411D01*
X125584580Y-52114411D02*
X125632200Y-52162030D01*
X125632200Y-52162030D02*
X125679819Y-52304887D01*
X125679819Y-52304887D02*
X125679819Y-52400125D01*
X125679819Y-52400125D02*
X125632200Y-52542982D01*
X125632200Y-52542982D02*
X125536961Y-52638220D01*
X125536961Y-52638220D02*
X125441723Y-52685839D01*
X125441723Y-52685839D02*
X125251247Y-52733458D01*
X125251247Y-52733458D02*
X125108390Y-52733458D01*
X125108390Y-52733458D02*
X124917914Y-52685839D01*
X124917914Y-52685839D02*
X124822676Y-52638220D01*
X124822676Y-52638220D02*
X124727438Y-52542982D01*
X124727438Y-52542982D02*
X124679819Y-52400125D01*
X124679819Y-52400125D02*
X124679819Y-52304887D01*
X124679819Y-52304887D02*
X124727438Y-52162030D01*
X124727438Y-52162030D02*
X124775057Y-52114411D01*
X125679819Y-51209649D02*
X125679819Y-51685839D01*
X125679819Y-51685839D02*
X124679819Y-51685839D01*
X127822200Y-165290839D02*
X127869819Y-165147982D01*
X127869819Y-165147982D02*
X127869819Y-164909887D01*
X127869819Y-164909887D02*
X127822200Y-164814649D01*
X127822200Y-164814649D02*
X127774580Y-164767030D01*
X127774580Y-164767030D02*
X127679342Y-164719411D01*
X127679342Y-164719411D02*
X127584104Y-164719411D01*
X127584104Y-164719411D02*
X127488866Y-164767030D01*
X127488866Y-164767030D02*
X127441247Y-164814649D01*
X127441247Y-164814649D02*
X127393628Y-164909887D01*
X127393628Y-164909887D02*
X127346009Y-165100363D01*
X127346009Y-165100363D02*
X127298390Y-165195601D01*
X127298390Y-165195601D02*
X127250771Y-165243220D01*
X127250771Y-165243220D02*
X127155533Y-165290839D01*
X127155533Y-165290839D02*
X127060295Y-165290839D01*
X127060295Y-165290839D02*
X126965057Y-165243220D01*
X126965057Y-165243220D02*
X126917438Y-165195601D01*
X126917438Y-165195601D02*
X126869819Y-165100363D01*
X126869819Y-165100363D02*
X126869819Y-164862268D01*
X126869819Y-164862268D02*
X126917438Y-164719411D01*
X127774580Y-163719411D02*
X127822200Y-163767030D01*
X127822200Y-163767030D02*
X127869819Y-163909887D01*
X127869819Y-163909887D02*
X127869819Y-164005125D01*
X127869819Y-164005125D02*
X127822200Y-164147982D01*
X127822200Y-164147982D02*
X127726961Y-164243220D01*
X127726961Y-164243220D02*
X127631723Y-164290839D01*
X127631723Y-164290839D02*
X127441247Y-164338458D01*
X127441247Y-164338458D02*
X127298390Y-164338458D01*
X127298390Y-164338458D02*
X127107914Y-164290839D01*
X127107914Y-164290839D02*
X127012676Y-164243220D01*
X127012676Y-164243220D02*
X126917438Y-164147982D01*
X126917438Y-164147982D02*
X126869819Y-164005125D01*
X126869819Y-164005125D02*
X126869819Y-163909887D01*
X126869819Y-163909887D02*
X126917438Y-163767030D01*
X126917438Y-163767030D02*
X126965057Y-163719411D01*
X127869819Y-162814649D02*
X127869819Y-163290839D01*
X127869819Y-163290839D02*
X126869819Y-163290839D01*
X110677438Y-53114411D02*
X110629819Y-53209649D01*
X110629819Y-53209649D02*
X110629819Y-53352506D01*
X110629819Y-53352506D02*
X110677438Y-53495363D01*
X110677438Y-53495363D02*
X110772676Y-53590601D01*
X110772676Y-53590601D02*
X110867914Y-53638220D01*
X110867914Y-53638220D02*
X111058390Y-53685839D01*
X111058390Y-53685839D02*
X111201247Y-53685839D01*
X111201247Y-53685839D02*
X111391723Y-53638220D01*
X111391723Y-53638220D02*
X111486961Y-53590601D01*
X111486961Y-53590601D02*
X111582200Y-53495363D01*
X111582200Y-53495363D02*
X111629819Y-53352506D01*
X111629819Y-53352506D02*
X111629819Y-53257268D01*
X111629819Y-53257268D02*
X111582200Y-53114411D01*
X111582200Y-53114411D02*
X111534580Y-53066792D01*
X111534580Y-53066792D02*
X111201247Y-53066792D01*
X111201247Y-53066792D02*
X111201247Y-53257268D01*
X111629819Y-52638220D02*
X110629819Y-52638220D01*
X110629819Y-52638220D02*
X111629819Y-52066792D01*
X111629819Y-52066792D02*
X110629819Y-52066792D01*
X111629819Y-51590601D02*
X110629819Y-51590601D01*
X110629819Y-51590601D02*
X110629819Y-51352506D01*
X110629819Y-51352506D02*
X110677438Y-51209649D01*
X110677438Y-51209649D02*
X110772676Y-51114411D01*
X110772676Y-51114411D02*
X110867914Y-51066792D01*
X110867914Y-51066792D02*
X111058390Y-51019173D01*
X111058390Y-51019173D02*
X111201247Y-51019173D01*
X111201247Y-51019173D02*
X111391723Y-51066792D01*
X111391723Y-51066792D02*
X111486961Y-51114411D01*
X111486961Y-51114411D02*
X111582200Y-51209649D01*
X111582200Y-51209649D02*
X111629819Y-51352506D01*
X111629819Y-51352506D02*
X111629819Y-51590601D01*
X123132200Y-53685839D02*
X123179819Y-53542982D01*
X123179819Y-53542982D02*
X123179819Y-53304887D01*
X123179819Y-53304887D02*
X123132200Y-53209649D01*
X123132200Y-53209649D02*
X123084580Y-53162030D01*
X123084580Y-53162030D02*
X122989342Y-53114411D01*
X122989342Y-53114411D02*
X122894104Y-53114411D01*
X122894104Y-53114411D02*
X122798866Y-53162030D01*
X122798866Y-53162030D02*
X122751247Y-53209649D01*
X122751247Y-53209649D02*
X122703628Y-53304887D01*
X122703628Y-53304887D02*
X122656009Y-53495363D01*
X122656009Y-53495363D02*
X122608390Y-53590601D01*
X122608390Y-53590601D02*
X122560771Y-53638220D01*
X122560771Y-53638220D02*
X122465533Y-53685839D01*
X122465533Y-53685839D02*
X122370295Y-53685839D01*
X122370295Y-53685839D02*
X122275057Y-53638220D01*
X122275057Y-53638220D02*
X122227438Y-53590601D01*
X122227438Y-53590601D02*
X122179819Y-53495363D01*
X122179819Y-53495363D02*
X122179819Y-53257268D01*
X122179819Y-53257268D02*
X122227438Y-53114411D01*
X123179819Y-52685839D02*
X122179819Y-52685839D01*
X122179819Y-52685839D02*
X122179819Y-52447744D01*
X122179819Y-52447744D02*
X122227438Y-52304887D01*
X122227438Y-52304887D02*
X122322676Y-52209649D01*
X122322676Y-52209649D02*
X122417914Y-52162030D01*
X122417914Y-52162030D02*
X122608390Y-52114411D01*
X122608390Y-52114411D02*
X122751247Y-52114411D01*
X122751247Y-52114411D02*
X122941723Y-52162030D01*
X122941723Y-52162030D02*
X123036961Y-52209649D01*
X123036961Y-52209649D02*
X123132200Y-52304887D01*
X123132200Y-52304887D02*
X123179819Y-52447744D01*
X123179819Y-52447744D02*
X123179819Y-52685839D01*
X122894104Y-51733458D02*
X122894104Y-51257268D01*
X123179819Y-51828696D02*
X122179819Y-51495363D01*
X122179819Y-51495363D02*
X123179819Y-51162030D01*
X129289160Y-156402200D02*
X129432017Y-156449819D01*
X129432017Y-156449819D02*
X129670112Y-156449819D01*
X129670112Y-156449819D02*
X129765350Y-156402200D01*
X129765350Y-156402200D02*
X129812969Y-156354580D01*
X129812969Y-156354580D02*
X129860588Y-156259342D01*
X129860588Y-156259342D02*
X129860588Y-156164104D01*
X129860588Y-156164104D02*
X129812969Y-156068866D01*
X129812969Y-156068866D02*
X129765350Y-156021247D01*
X129765350Y-156021247D02*
X129670112Y-155973628D01*
X129670112Y-155973628D02*
X129479636Y-155926009D01*
X129479636Y-155926009D02*
X129384398Y-155878390D01*
X129384398Y-155878390D02*
X129336779Y-155830771D01*
X129336779Y-155830771D02*
X129289160Y-155735533D01*
X129289160Y-155735533D02*
X129289160Y-155640295D01*
X129289160Y-155640295D02*
X129336779Y-155545057D01*
X129336779Y-155545057D02*
X129384398Y-155497438D01*
X129384398Y-155497438D02*
X129479636Y-155449819D01*
X129479636Y-155449819D02*
X129717731Y-155449819D01*
X129717731Y-155449819D02*
X129860588Y-155497438D01*
X130289160Y-156449819D02*
X130289160Y-155449819D01*
X130289160Y-155449819D02*
X130527255Y-155449819D01*
X130527255Y-155449819D02*
X130670112Y-155497438D01*
X130670112Y-155497438D02*
X130765350Y-155592676D01*
X130765350Y-155592676D02*
X130812969Y-155687914D01*
X130812969Y-155687914D02*
X130860588Y-155878390D01*
X130860588Y-155878390D02*
X130860588Y-156021247D01*
X130860588Y-156021247D02*
X130812969Y-156211723D01*
X130812969Y-156211723D02*
X130765350Y-156306961D01*
X130765350Y-156306961D02*
X130670112Y-156402200D01*
X130670112Y-156402200D02*
X130527255Y-156449819D01*
X130527255Y-156449819D02*
X130289160Y-156449819D01*
X131241541Y-156164104D02*
X131717731Y-156164104D01*
X131146303Y-156449819D02*
X131479636Y-155449819D01*
X131479636Y-155449819D02*
X131812969Y-156449819D01*
X131908208Y-156545057D02*
X132670112Y-156545057D01*
X132908208Y-156449819D02*
X132908208Y-155449819D01*
X132908208Y-155449819D02*
X133289160Y-155449819D01*
X133289160Y-155449819D02*
X133384398Y-155497438D01*
X133384398Y-155497438D02*
X133432017Y-155545057D01*
X133432017Y-155545057D02*
X133479636Y-155640295D01*
X133479636Y-155640295D02*
X133479636Y-155783152D01*
X133479636Y-155783152D02*
X133432017Y-155878390D01*
X133432017Y-155878390D02*
X133384398Y-155926009D01*
X133384398Y-155926009D02*
X133289160Y-155973628D01*
X133289160Y-155973628D02*
X132908208Y-155973628D01*
X133908208Y-155449819D02*
X133908208Y-156259342D01*
X133908208Y-156259342D02*
X133955827Y-156354580D01*
X133955827Y-156354580D02*
X134003446Y-156402200D01*
X134003446Y-156402200D02*
X134098684Y-156449819D01*
X134098684Y-156449819D02*
X134289160Y-156449819D01*
X134289160Y-156449819D02*
X134384398Y-156402200D01*
X134384398Y-156402200D02*
X134432017Y-156354580D01*
X134432017Y-156354580D02*
X134479636Y-156259342D01*
X134479636Y-156259342D02*
X134479636Y-155449819D01*
X135432017Y-156449819D02*
X134955827Y-156449819D01*
X134955827Y-156449819D02*
X134955827Y-155449819D01*
X136241541Y-156449819D02*
X135765351Y-156449819D01*
X135765351Y-156449819D02*
X135765351Y-155449819D01*
X136574875Y-155449819D02*
X136574875Y-156259342D01*
X136574875Y-156259342D02*
X136622494Y-156354580D01*
X136622494Y-156354580D02*
X136670113Y-156402200D01*
X136670113Y-156402200D02*
X136765351Y-156449819D01*
X136765351Y-156449819D02*
X136955827Y-156449819D01*
X136955827Y-156449819D02*
X137051065Y-156402200D01*
X137051065Y-156402200D02*
X137098684Y-156354580D01*
X137098684Y-156354580D02*
X137146303Y-156259342D01*
X137146303Y-156259342D02*
X137146303Y-155449819D01*
X137622494Y-156449819D02*
X137622494Y-155449819D01*
X137622494Y-155449819D02*
X138003446Y-155449819D01*
X138003446Y-155449819D02*
X138098684Y-155497438D01*
X138098684Y-155497438D02*
X138146303Y-155545057D01*
X138146303Y-155545057D02*
X138193922Y-155640295D01*
X138193922Y-155640295D02*
X138193922Y-155783152D01*
X138193922Y-155783152D02*
X138146303Y-155878390D01*
X138146303Y-155878390D02*
X138098684Y-155926009D01*
X138098684Y-155926009D02*
X138003446Y-155973628D01*
X138003446Y-155973628D02*
X137622494Y-155973628D01*
X129679819Y-53162030D02*
X129679819Y-53638220D01*
X129679819Y-53638220D02*
X130156009Y-53685839D01*
X130156009Y-53685839D02*
X130108390Y-53638220D01*
X130108390Y-53638220D02*
X130060771Y-53542982D01*
X130060771Y-53542982D02*
X130060771Y-53304887D01*
X130060771Y-53304887D02*
X130108390Y-53209649D01*
X130108390Y-53209649D02*
X130156009Y-53162030D01*
X130156009Y-53162030D02*
X130251247Y-53114411D01*
X130251247Y-53114411D02*
X130489342Y-53114411D01*
X130489342Y-53114411D02*
X130584580Y-53162030D01*
X130584580Y-53162030D02*
X130632200Y-53209649D01*
X130632200Y-53209649D02*
X130679819Y-53304887D01*
X130679819Y-53304887D02*
X130679819Y-53542982D01*
X130679819Y-53542982D02*
X130632200Y-53638220D01*
X130632200Y-53638220D02*
X130584580Y-53685839D01*
X129679819Y-52828696D02*
X130679819Y-52495363D01*
X130679819Y-52495363D02*
X129679819Y-52162030D01*
X109042200Y-53685839D02*
X109089819Y-53542982D01*
X109089819Y-53542982D02*
X109089819Y-53304887D01*
X109089819Y-53304887D02*
X109042200Y-53209649D01*
X109042200Y-53209649D02*
X108994580Y-53162030D01*
X108994580Y-53162030D02*
X108899342Y-53114411D01*
X108899342Y-53114411D02*
X108804104Y-53114411D01*
X108804104Y-53114411D02*
X108708866Y-53162030D01*
X108708866Y-53162030D02*
X108661247Y-53209649D01*
X108661247Y-53209649D02*
X108613628Y-53304887D01*
X108613628Y-53304887D02*
X108566009Y-53495363D01*
X108566009Y-53495363D02*
X108518390Y-53590601D01*
X108518390Y-53590601D02*
X108470771Y-53638220D01*
X108470771Y-53638220D02*
X108375533Y-53685839D01*
X108375533Y-53685839D02*
X108280295Y-53685839D01*
X108280295Y-53685839D02*
X108185057Y-53638220D01*
X108185057Y-53638220D02*
X108137438Y-53590601D01*
X108137438Y-53590601D02*
X108089819Y-53495363D01*
X108089819Y-53495363D02*
X108089819Y-53257268D01*
X108089819Y-53257268D02*
X108137438Y-53114411D01*
X108994580Y-52114411D02*
X109042200Y-52162030D01*
X109042200Y-52162030D02*
X109089819Y-52304887D01*
X109089819Y-52304887D02*
X109089819Y-52400125D01*
X109089819Y-52400125D02*
X109042200Y-52542982D01*
X109042200Y-52542982D02*
X108946961Y-52638220D01*
X108946961Y-52638220D02*
X108851723Y-52685839D01*
X108851723Y-52685839D02*
X108661247Y-52733458D01*
X108661247Y-52733458D02*
X108518390Y-52733458D01*
X108518390Y-52733458D02*
X108327914Y-52685839D01*
X108327914Y-52685839D02*
X108232676Y-52638220D01*
X108232676Y-52638220D02*
X108137438Y-52542982D01*
X108137438Y-52542982D02*
X108089819Y-52400125D01*
X108089819Y-52400125D02*
X108089819Y-52304887D01*
X108089819Y-52304887D02*
X108137438Y-52162030D01*
X108137438Y-52162030D02*
X108185057Y-52114411D01*
X109089819Y-51209649D02*
X109089819Y-51685839D01*
X109089819Y-51685839D02*
X108089819Y-51685839D01*
X103057438Y-53114411D02*
X103009819Y-53209649D01*
X103009819Y-53209649D02*
X103009819Y-53352506D01*
X103009819Y-53352506D02*
X103057438Y-53495363D01*
X103057438Y-53495363D02*
X103152676Y-53590601D01*
X103152676Y-53590601D02*
X103247914Y-53638220D01*
X103247914Y-53638220D02*
X103438390Y-53685839D01*
X103438390Y-53685839D02*
X103581247Y-53685839D01*
X103581247Y-53685839D02*
X103771723Y-53638220D01*
X103771723Y-53638220D02*
X103866961Y-53590601D01*
X103866961Y-53590601D02*
X103962200Y-53495363D01*
X103962200Y-53495363D02*
X104009819Y-53352506D01*
X104009819Y-53352506D02*
X104009819Y-53257268D01*
X104009819Y-53257268D02*
X103962200Y-53114411D01*
X103962200Y-53114411D02*
X103914580Y-53066792D01*
X103914580Y-53066792D02*
X103581247Y-53066792D01*
X103581247Y-53066792D02*
X103581247Y-53257268D01*
X104009819Y-52638220D02*
X103009819Y-52638220D01*
X103009819Y-52638220D02*
X104009819Y-52066792D01*
X104009819Y-52066792D02*
X103009819Y-52066792D01*
X104009819Y-51590601D02*
X103009819Y-51590601D01*
X103009819Y-51590601D02*
X103009819Y-51352506D01*
X103009819Y-51352506D02*
X103057438Y-51209649D01*
X103057438Y-51209649D02*
X103152676Y-51114411D01*
X103152676Y-51114411D02*
X103247914Y-51066792D01*
X103247914Y-51066792D02*
X103438390Y-51019173D01*
X103438390Y-51019173D02*
X103581247Y-51019173D01*
X103581247Y-51019173D02*
X103771723Y-51066792D01*
X103771723Y-51066792D02*
X103866961Y-51114411D01*
X103866961Y-51114411D02*
X103962200Y-51209649D01*
X103962200Y-51209649D02*
X104009819Y-51352506D01*
X104009819Y-51352506D02*
X104009819Y-51590601D01*
X133424819Y-95318094D02*
X132424819Y-95318094D01*
X132424819Y-95318094D02*
X132424819Y-95079999D01*
X132424819Y-95079999D02*
X132472438Y-94937142D01*
X132472438Y-94937142D02*
X132567676Y-94841904D01*
X132567676Y-94841904D02*
X132662914Y-94794285D01*
X132662914Y-94794285D02*
X132853390Y-94746666D01*
X132853390Y-94746666D02*
X132996247Y-94746666D01*
X132996247Y-94746666D02*
X133186723Y-94794285D01*
X133186723Y-94794285D02*
X133281961Y-94841904D01*
X133281961Y-94841904D02*
X133377200Y-94937142D01*
X133377200Y-94937142D02*
X133424819Y-95079999D01*
X133424819Y-95079999D02*
X133424819Y-95318094D01*
X132758152Y-93889523D02*
X133424819Y-93889523D01*
X132377200Y-94127618D02*
X133091485Y-94365713D01*
X133091485Y-94365713D02*
X133091485Y-93746666D01*
X133054819Y-89761904D02*
X132054819Y-89761904D01*
X133054819Y-89190476D02*
X132483390Y-89619047D01*
X132054819Y-89190476D02*
X132626247Y-89761904D01*
X107833333Y-167550180D02*
X107833333Y-166835895D01*
X107833333Y-166835895D02*
X107880952Y-166693038D01*
X107880952Y-166693038D02*
X107976190Y-166597800D01*
X107976190Y-166597800D02*
X108119047Y-166550180D01*
X108119047Y-166550180D02*
X108214285Y-166550180D01*
X106833333Y-166550180D02*
X107404761Y-166550180D01*
X107119047Y-166550180D02*
X107119047Y-167550180D01*
X107119047Y-167550180D02*
X107214285Y-167407323D01*
X107214285Y-167407323D02*
X107309523Y-167312085D01*
X107309523Y-167312085D02*
X107404761Y-167264466D01*
X110040000Y-157295119D02*
X110040000Y-157533214D01*
X109801905Y-157437976D02*
X110040000Y-157533214D01*
X110040000Y-157533214D02*
X110278095Y-157437976D01*
X109897143Y-157723690D02*
X110040000Y-157533214D01*
X110040000Y-157533214D02*
X110182857Y-157723690D01*
X110039999Y-158385480D02*
X110039999Y-158147385D01*
X110278094Y-158242623D02*
X110039999Y-158147385D01*
X110039999Y-158147385D02*
X109801904Y-158242623D01*
X110182856Y-157956909D02*
X110039999Y-158147385D01*
X110039999Y-158147385D02*
X109897142Y-157956909D01*
D11*
X111056985Y-95132333D02*
X111776652Y-95132333D01*
X111776652Y-95132333D02*
X111861318Y-95090000D01*
X111861318Y-95090000D02*
X111903652Y-95047666D01*
X111903652Y-95047666D02*
X111945985Y-94963000D01*
X111945985Y-94963000D02*
X111945985Y-94793666D01*
X111945985Y-94793666D02*
X111903652Y-94709000D01*
X111903652Y-94709000D02*
X111861318Y-94666666D01*
X111861318Y-94666666D02*
X111776652Y-94624333D01*
X111776652Y-94624333D02*
X111056985Y-94624333D01*
X111141652Y-94243333D02*
X111099318Y-94201000D01*
X111099318Y-94201000D02*
X111056985Y-94116333D01*
X111056985Y-94116333D02*
X111056985Y-93904667D01*
X111056985Y-93904667D02*
X111099318Y-93820000D01*
X111099318Y-93820000D02*
X111141652Y-93777667D01*
X111141652Y-93777667D02*
X111226318Y-93735333D01*
X111226318Y-93735333D02*
X111310985Y-93735333D01*
X111310985Y-93735333D02*
X111437985Y-93777667D01*
X111437985Y-93777667D02*
X111945985Y-94285667D01*
X111945985Y-94285667D02*
X111945985Y-93735333D01*
D10*
X108954819Y-95978808D02*
X109954819Y-95312142D01*
X108954819Y-95312142D02*
X109954819Y-95978808D01*
X109954819Y-94931189D02*
X108954819Y-94931189D01*
X109669104Y-94502618D02*
X109669104Y-94026428D01*
X109954819Y-94597856D02*
X108954819Y-94264523D01*
X108954819Y-94264523D02*
X109954819Y-93931190D01*
X108954819Y-93407380D02*
X108954819Y-93216904D01*
X108954819Y-93216904D02*
X109002438Y-93121666D01*
X109002438Y-93121666D02*
X109097676Y-93026428D01*
X109097676Y-93026428D02*
X109288152Y-92978809D01*
X109288152Y-92978809D02*
X109621485Y-92978809D01*
X109621485Y-92978809D02*
X109811961Y-93026428D01*
X109811961Y-93026428D02*
X109907200Y-93121666D01*
X109907200Y-93121666D02*
X109954819Y-93216904D01*
X109954819Y-93216904D02*
X109954819Y-93407380D01*
X109954819Y-93407380D02*
X109907200Y-93502618D01*
X109907200Y-93502618D02*
X109811961Y-93597856D01*
X109811961Y-93597856D02*
X109621485Y-93645475D01*
X109621485Y-93645475D02*
X109288152Y-93645475D01*
X109288152Y-93645475D02*
X109097676Y-93597856D01*
X109097676Y-93597856D02*
X109002438Y-93502618D01*
X109002438Y-93502618D02*
X108954819Y-93407380D01*
X107907200Y-99216904D02*
X107954819Y-99074047D01*
X107954819Y-99074047D02*
X107954819Y-98835952D01*
X107954819Y-98835952D02*
X107907200Y-98740714D01*
X107907200Y-98740714D02*
X107859580Y-98693095D01*
X107859580Y-98693095D02*
X107764342Y-98645476D01*
X107764342Y-98645476D02*
X107669104Y-98645476D01*
X107669104Y-98645476D02*
X107573866Y-98693095D01*
X107573866Y-98693095D02*
X107526247Y-98740714D01*
X107526247Y-98740714D02*
X107478628Y-98835952D01*
X107478628Y-98835952D02*
X107431009Y-99026428D01*
X107431009Y-99026428D02*
X107383390Y-99121666D01*
X107383390Y-99121666D02*
X107335771Y-99169285D01*
X107335771Y-99169285D02*
X107240533Y-99216904D01*
X107240533Y-99216904D02*
X107145295Y-99216904D01*
X107145295Y-99216904D02*
X107050057Y-99169285D01*
X107050057Y-99169285D02*
X107002438Y-99121666D01*
X107002438Y-99121666D02*
X106954819Y-99026428D01*
X106954819Y-99026428D02*
X106954819Y-98788333D01*
X106954819Y-98788333D02*
X107002438Y-98645476D01*
X107907200Y-97835952D02*
X107954819Y-97931190D01*
X107954819Y-97931190D02*
X107954819Y-98121666D01*
X107954819Y-98121666D02*
X107907200Y-98216904D01*
X107907200Y-98216904D02*
X107811961Y-98264523D01*
X107811961Y-98264523D02*
X107431009Y-98264523D01*
X107431009Y-98264523D02*
X107335771Y-98216904D01*
X107335771Y-98216904D02*
X107288152Y-98121666D01*
X107288152Y-98121666D02*
X107288152Y-97931190D01*
X107288152Y-97931190D02*
X107335771Y-97835952D01*
X107335771Y-97835952D02*
X107431009Y-97788333D01*
X107431009Y-97788333D02*
X107526247Y-97788333D01*
X107526247Y-97788333D02*
X107621485Y-98264523D01*
X107907200Y-96978809D02*
X107954819Y-97074047D01*
X107954819Y-97074047D02*
X107954819Y-97264523D01*
X107954819Y-97264523D02*
X107907200Y-97359761D01*
X107907200Y-97359761D02*
X107811961Y-97407380D01*
X107811961Y-97407380D02*
X107431009Y-97407380D01*
X107431009Y-97407380D02*
X107335771Y-97359761D01*
X107335771Y-97359761D02*
X107288152Y-97264523D01*
X107288152Y-97264523D02*
X107288152Y-97074047D01*
X107288152Y-97074047D02*
X107335771Y-96978809D01*
X107335771Y-96978809D02*
X107431009Y-96931190D01*
X107431009Y-96931190D02*
X107526247Y-96931190D01*
X107526247Y-96931190D02*
X107621485Y-97407380D01*
X107907200Y-96121666D02*
X107954819Y-96216904D01*
X107954819Y-96216904D02*
X107954819Y-96407380D01*
X107954819Y-96407380D02*
X107907200Y-96502618D01*
X107907200Y-96502618D02*
X107811961Y-96550237D01*
X107811961Y-96550237D02*
X107431009Y-96550237D01*
X107431009Y-96550237D02*
X107335771Y-96502618D01*
X107335771Y-96502618D02*
X107288152Y-96407380D01*
X107288152Y-96407380D02*
X107288152Y-96216904D01*
X107288152Y-96216904D02*
X107335771Y-96121666D01*
X107335771Y-96121666D02*
X107431009Y-96074047D01*
X107431009Y-96074047D02*
X107526247Y-96074047D01*
X107526247Y-96074047D02*
X107621485Y-96550237D01*
X107954819Y-95216904D02*
X106954819Y-95216904D01*
X107907200Y-95216904D02*
X107954819Y-95312142D01*
X107954819Y-95312142D02*
X107954819Y-95502618D01*
X107954819Y-95502618D02*
X107907200Y-95597856D01*
X107907200Y-95597856D02*
X107859580Y-95645475D01*
X107859580Y-95645475D02*
X107764342Y-95693094D01*
X107764342Y-95693094D02*
X107478628Y-95693094D01*
X107478628Y-95693094D02*
X107383390Y-95645475D01*
X107383390Y-95645475D02*
X107335771Y-95597856D01*
X107335771Y-95597856D02*
X107288152Y-95502618D01*
X107288152Y-95502618D02*
X107288152Y-95312142D01*
X107288152Y-95312142D02*
X107335771Y-95216904D01*
X107907200Y-94026427D02*
X107954819Y-93883570D01*
X107954819Y-93883570D02*
X107954819Y-93645475D01*
X107954819Y-93645475D02*
X107907200Y-93550237D01*
X107907200Y-93550237D02*
X107859580Y-93502618D01*
X107859580Y-93502618D02*
X107764342Y-93454999D01*
X107764342Y-93454999D02*
X107669104Y-93454999D01*
X107669104Y-93454999D02*
X107573866Y-93502618D01*
X107573866Y-93502618D02*
X107526247Y-93550237D01*
X107526247Y-93550237D02*
X107478628Y-93645475D01*
X107478628Y-93645475D02*
X107431009Y-93835951D01*
X107431009Y-93835951D02*
X107383390Y-93931189D01*
X107383390Y-93931189D02*
X107335771Y-93978808D01*
X107335771Y-93978808D02*
X107240533Y-94026427D01*
X107240533Y-94026427D02*
X107145295Y-94026427D01*
X107145295Y-94026427D02*
X107050057Y-93978808D01*
X107050057Y-93978808D02*
X107002438Y-93931189D01*
X107002438Y-93931189D02*
X106954819Y-93835951D01*
X106954819Y-93835951D02*
X106954819Y-93597856D01*
X106954819Y-93597856D02*
X107002438Y-93454999D01*
X107288152Y-93169284D02*
X107288152Y-92788332D01*
X106954819Y-93026427D02*
X107811961Y-93026427D01*
X107811961Y-93026427D02*
X107907200Y-92978808D01*
X107907200Y-92978808D02*
X107954819Y-92883570D01*
X107954819Y-92883570D02*
X107954819Y-92788332D01*
X107288152Y-92026427D02*
X107954819Y-92026427D01*
X107288152Y-92454998D02*
X107811961Y-92454998D01*
X107811961Y-92454998D02*
X107907200Y-92407379D01*
X107907200Y-92407379D02*
X107954819Y-92312141D01*
X107954819Y-92312141D02*
X107954819Y-92169284D01*
X107954819Y-92169284D02*
X107907200Y-92074046D01*
X107907200Y-92074046D02*
X107859580Y-92026427D01*
X107954819Y-91121665D02*
X106954819Y-91121665D01*
X107907200Y-91121665D02*
X107954819Y-91216903D01*
X107954819Y-91216903D02*
X107954819Y-91407379D01*
X107954819Y-91407379D02*
X107907200Y-91502617D01*
X107907200Y-91502617D02*
X107859580Y-91550236D01*
X107859580Y-91550236D02*
X107764342Y-91597855D01*
X107764342Y-91597855D02*
X107478628Y-91597855D01*
X107478628Y-91597855D02*
X107383390Y-91550236D01*
X107383390Y-91550236D02*
X107335771Y-91502617D01*
X107335771Y-91502617D02*
X107288152Y-91407379D01*
X107288152Y-91407379D02*
X107288152Y-91216903D01*
X107288152Y-91216903D02*
X107335771Y-91121665D01*
X107954819Y-90645474D02*
X107288152Y-90645474D01*
X106954819Y-90645474D02*
X107002438Y-90693093D01*
X107002438Y-90693093D02*
X107050057Y-90645474D01*
X107050057Y-90645474D02*
X107002438Y-90597855D01*
X107002438Y-90597855D02*
X106954819Y-90645474D01*
X106954819Y-90645474D02*
X107050057Y-90645474D01*
X107954819Y-90026427D02*
X107907200Y-90121665D01*
X107907200Y-90121665D02*
X107859580Y-90169284D01*
X107859580Y-90169284D02*
X107764342Y-90216903D01*
X107764342Y-90216903D02*
X107478628Y-90216903D01*
X107478628Y-90216903D02*
X107383390Y-90169284D01*
X107383390Y-90169284D02*
X107335771Y-90121665D01*
X107335771Y-90121665D02*
X107288152Y-90026427D01*
X107288152Y-90026427D02*
X107288152Y-89883570D01*
X107288152Y-89883570D02*
X107335771Y-89788332D01*
X107335771Y-89788332D02*
X107383390Y-89740713D01*
X107383390Y-89740713D02*
X107478628Y-89693094D01*
X107478628Y-89693094D02*
X107764342Y-89693094D01*
X107764342Y-89693094D02*
X107859580Y-89740713D01*
X107859580Y-89740713D02*
X107907200Y-89788332D01*
X107907200Y-89788332D02*
X107954819Y-89883570D01*
X107954819Y-89883570D02*
X107954819Y-90026427D01*
X136666666Y-90304819D02*
X136666666Y-91019104D01*
X136666666Y-91019104D02*
X136619047Y-91161961D01*
X136619047Y-91161961D02*
X136523809Y-91257200D01*
X136523809Y-91257200D02*
X136380952Y-91304819D01*
X136380952Y-91304819D02*
X136285714Y-91304819D01*
X137619047Y-90304819D02*
X137142857Y-90304819D01*
X137142857Y-90304819D02*
X137095238Y-90781009D01*
X137095238Y-90781009D02*
X137142857Y-90733390D01*
X137142857Y-90733390D02*
X137238095Y-90685771D01*
X137238095Y-90685771D02*
X137476190Y-90685771D01*
X137476190Y-90685771D02*
X137571428Y-90733390D01*
X137571428Y-90733390D02*
X137619047Y-90781009D01*
X137619047Y-90781009D02*
X137666666Y-90876247D01*
X137666666Y-90876247D02*
X137666666Y-91114342D01*
X137666666Y-91114342D02*
X137619047Y-91209580D01*
X137619047Y-91209580D02*
X137571428Y-91257200D01*
X137571428Y-91257200D02*
X137476190Y-91304819D01*
X137476190Y-91304819D02*
X137238095Y-91304819D01*
X137238095Y-91304819D02*
X137142857Y-91257200D01*
X137142857Y-91257200D02*
X137095238Y-91209580D01*
D11*
X111056985Y-70507333D02*
X111776652Y-70507333D01*
X111776652Y-70507333D02*
X111861318Y-70465000D01*
X111861318Y-70465000D02*
X111903652Y-70422666D01*
X111903652Y-70422666D02*
X111945985Y-70338000D01*
X111945985Y-70338000D02*
X111945985Y-70168666D01*
X111945985Y-70168666D02*
X111903652Y-70084000D01*
X111903652Y-70084000D02*
X111861318Y-70041666D01*
X111861318Y-70041666D02*
X111776652Y-69999333D01*
X111776652Y-69999333D02*
X111056985Y-69999333D01*
X111945985Y-69110333D02*
X111945985Y-69618333D01*
X111945985Y-69364333D02*
X111056985Y-69364333D01*
X111056985Y-69364333D02*
X111183985Y-69449000D01*
X111183985Y-69449000D02*
X111268652Y-69533667D01*
X111268652Y-69533667D02*
X111310985Y-69618333D01*
D10*
X107907200Y-74591904D02*
X107954819Y-74449047D01*
X107954819Y-74449047D02*
X107954819Y-74210952D01*
X107954819Y-74210952D02*
X107907200Y-74115714D01*
X107907200Y-74115714D02*
X107859580Y-74068095D01*
X107859580Y-74068095D02*
X107764342Y-74020476D01*
X107764342Y-74020476D02*
X107669104Y-74020476D01*
X107669104Y-74020476D02*
X107573866Y-74068095D01*
X107573866Y-74068095D02*
X107526247Y-74115714D01*
X107526247Y-74115714D02*
X107478628Y-74210952D01*
X107478628Y-74210952D02*
X107431009Y-74401428D01*
X107431009Y-74401428D02*
X107383390Y-74496666D01*
X107383390Y-74496666D02*
X107335771Y-74544285D01*
X107335771Y-74544285D02*
X107240533Y-74591904D01*
X107240533Y-74591904D02*
X107145295Y-74591904D01*
X107145295Y-74591904D02*
X107050057Y-74544285D01*
X107050057Y-74544285D02*
X107002438Y-74496666D01*
X107002438Y-74496666D02*
X106954819Y-74401428D01*
X106954819Y-74401428D02*
X106954819Y-74163333D01*
X106954819Y-74163333D02*
X107002438Y-74020476D01*
X107907200Y-73210952D02*
X107954819Y-73306190D01*
X107954819Y-73306190D02*
X107954819Y-73496666D01*
X107954819Y-73496666D02*
X107907200Y-73591904D01*
X107907200Y-73591904D02*
X107811961Y-73639523D01*
X107811961Y-73639523D02*
X107431009Y-73639523D01*
X107431009Y-73639523D02*
X107335771Y-73591904D01*
X107335771Y-73591904D02*
X107288152Y-73496666D01*
X107288152Y-73496666D02*
X107288152Y-73306190D01*
X107288152Y-73306190D02*
X107335771Y-73210952D01*
X107335771Y-73210952D02*
X107431009Y-73163333D01*
X107431009Y-73163333D02*
X107526247Y-73163333D01*
X107526247Y-73163333D02*
X107621485Y-73639523D01*
X107907200Y-72353809D02*
X107954819Y-72449047D01*
X107954819Y-72449047D02*
X107954819Y-72639523D01*
X107954819Y-72639523D02*
X107907200Y-72734761D01*
X107907200Y-72734761D02*
X107811961Y-72782380D01*
X107811961Y-72782380D02*
X107431009Y-72782380D01*
X107431009Y-72782380D02*
X107335771Y-72734761D01*
X107335771Y-72734761D02*
X107288152Y-72639523D01*
X107288152Y-72639523D02*
X107288152Y-72449047D01*
X107288152Y-72449047D02*
X107335771Y-72353809D01*
X107335771Y-72353809D02*
X107431009Y-72306190D01*
X107431009Y-72306190D02*
X107526247Y-72306190D01*
X107526247Y-72306190D02*
X107621485Y-72782380D01*
X107907200Y-71496666D02*
X107954819Y-71591904D01*
X107954819Y-71591904D02*
X107954819Y-71782380D01*
X107954819Y-71782380D02*
X107907200Y-71877618D01*
X107907200Y-71877618D02*
X107811961Y-71925237D01*
X107811961Y-71925237D02*
X107431009Y-71925237D01*
X107431009Y-71925237D02*
X107335771Y-71877618D01*
X107335771Y-71877618D02*
X107288152Y-71782380D01*
X107288152Y-71782380D02*
X107288152Y-71591904D01*
X107288152Y-71591904D02*
X107335771Y-71496666D01*
X107335771Y-71496666D02*
X107431009Y-71449047D01*
X107431009Y-71449047D02*
X107526247Y-71449047D01*
X107526247Y-71449047D02*
X107621485Y-71925237D01*
X107954819Y-70591904D02*
X106954819Y-70591904D01*
X107907200Y-70591904D02*
X107954819Y-70687142D01*
X107954819Y-70687142D02*
X107954819Y-70877618D01*
X107954819Y-70877618D02*
X107907200Y-70972856D01*
X107907200Y-70972856D02*
X107859580Y-71020475D01*
X107859580Y-71020475D02*
X107764342Y-71068094D01*
X107764342Y-71068094D02*
X107478628Y-71068094D01*
X107478628Y-71068094D02*
X107383390Y-71020475D01*
X107383390Y-71020475D02*
X107335771Y-70972856D01*
X107335771Y-70972856D02*
X107288152Y-70877618D01*
X107288152Y-70877618D02*
X107288152Y-70687142D01*
X107288152Y-70687142D02*
X107335771Y-70591904D01*
X107907200Y-69401427D02*
X107954819Y-69258570D01*
X107954819Y-69258570D02*
X107954819Y-69020475D01*
X107954819Y-69020475D02*
X107907200Y-68925237D01*
X107907200Y-68925237D02*
X107859580Y-68877618D01*
X107859580Y-68877618D02*
X107764342Y-68829999D01*
X107764342Y-68829999D02*
X107669104Y-68829999D01*
X107669104Y-68829999D02*
X107573866Y-68877618D01*
X107573866Y-68877618D02*
X107526247Y-68925237D01*
X107526247Y-68925237D02*
X107478628Y-69020475D01*
X107478628Y-69020475D02*
X107431009Y-69210951D01*
X107431009Y-69210951D02*
X107383390Y-69306189D01*
X107383390Y-69306189D02*
X107335771Y-69353808D01*
X107335771Y-69353808D02*
X107240533Y-69401427D01*
X107240533Y-69401427D02*
X107145295Y-69401427D01*
X107145295Y-69401427D02*
X107050057Y-69353808D01*
X107050057Y-69353808D02*
X107002438Y-69306189D01*
X107002438Y-69306189D02*
X106954819Y-69210951D01*
X106954819Y-69210951D02*
X106954819Y-68972856D01*
X106954819Y-68972856D02*
X107002438Y-68829999D01*
X107288152Y-68544284D02*
X107288152Y-68163332D01*
X106954819Y-68401427D02*
X107811961Y-68401427D01*
X107811961Y-68401427D02*
X107907200Y-68353808D01*
X107907200Y-68353808D02*
X107954819Y-68258570D01*
X107954819Y-68258570D02*
X107954819Y-68163332D01*
X107288152Y-67401427D02*
X107954819Y-67401427D01*
X107288152Y-67829998D02*
X107811961Y-67829998D01*
X107811961Y-67829998D02*
X107907200Y-67782379D01*
X107907200Y-67782379D02*
X107954819Y-67687141D01*
X107954819Y-67687141D02*
X107954819Y-67544284D01*
X107954819Y-67544284D02*
X107907200Y-67449046D01*
X107907200Y-67449046D02*
X107859580Y-67401427D01*
X107954819Y-66496665D02*
X106954819Y-66496665D01*
X107907200Y-66496665D02*
X107954819Y-66591903D01*
X107954819Y-66591903D02*
X107954819Y-66782379D01*
X107954819Y-66782379D02*
X107907200Y-66877617D01*
X107907200Y-66877617D02*
X107859580Y-66925236D01*
X107859580Y-66925236D02*
X107764342Y-66972855D01*
X107764342Y-66972855D02*
X107478628Y-66972855D01*
X107478628Y-66972855D02*
X107383390Y-66925236D01*
X107383390Y-66925236D02*
X107335771Y-66877617D01*
X107335771Y-66877617D02*
X107288152Y-66782379D01*
X107288152Y-66782379D02*
X107288152Y-66591903D01*
X107288152Y-66591903D02*
X107335771Y-66496665D01*
X107954819Y-66020474D02*
X107288152Y-66020474D01*
X106954819Y-66020474D02*
X107002438Y-66068093D01*
X107002438Y-66068093D02*
X107050057Y-66020474D01*
X107050057Y-66020474D02*
X107002438Y-65972855D01*
X107002438Y-65972855D02*
X106954819Y-66020474D01*
X106954819Y-66020474D02*
X107050057Y-66020474D01*
X107954819Y-65401427D02*
X107907200Y-65496665D01*
X107907200Y-65496665D02*
X107859580Y-65544284D01*
X107859580Y-65544284D02*
X107764342Y-65591903D01*
X107764342Y-65591903D02*
X107478628Y-65591903D01*
X107478628Y-65591903D02*
X107383390Y-65544284D01*
X107383390Y-65544284D02*
X107335771Y-65496665D01*
X107335771Y-65496665D02*
X107288152Y-65401427D01*
X107288152Y-65401427D02*
X107288152Y-65258570D01*
X107288152Y-65258570D02*
X107335771Y-65163332D01*
X107335771Y-65163332D02*
X107383390Y-65115713D01*
X107383390Y-65115713D02*
X107478628Y-65068094D01*
X107478628Y-65068094D02*
X107764342Y-65068094D01*
X107764342Y-65068094D02*
X107859580Y-65115713D01*
X107859580Y-65115713D02*
X107907200Y-65163332D01*
X107907200Y-65163332D02*
X107954819Y-65258570D01*
X107954819Y-65258570D02*
X107954819Y-65401427D01*
X108954819Y-71353808D02*
X109954819Y-70687142D01*
X108954819Y-70687142D02*
X109954819Y-71353808D01*
X109954819Y-70306189D02*
X108954819Y-70306189D01*
X109669104Y-69877618D02*
X109669104Y-69401428D01*
X109954819Y-69972856D02*
X108954819Y-69639523D01*
X108954819Y-69639523D02*
X109954819Y-69306190D01*
X108954819Y-68782380D02*
X108954819Y-68591904D01*
X108954819Y-68591904D02*
X109002438Y-68496666D01*
X109002438Y-68496666D02*
X109097676Y-68401428D01*
X109097676Y-68401428D02*
X109288152Y-68353809D01*
X109288152Y-68353809D02*
X109621485Y-68353809D01*
X109621485Y-68353809D02*
X109811961Y-68401428D01*
X109811961Y-68401428D02*
X109907200Y-68496666D01*
X109907200Y-68496666D02*
X109954819Y-68591904D01*
X109954819Y-68591904D02*
X109954819Y-68782380D01*
X109954819Y-68782380D02*
X109907200Y-68877618D01*
X109907200Y-68877618D02*
X109811961Y-68972856D01*
X109811961Y-68972856D02*
X109621485Y-69020475D01*
X109621485Y-69020475D02*
X109288152Y-69020475D01*
X109288152Y-69020475D02*
X109097676Y-68972856D01*
X109097676Y-68972856D02*
X109002438Y-68877618D01*
X109002438Y-68877618D02*
X108954819Y-68782380D01*
X96084819Y-132389523D02*
X96799104Y-132389523D01*
X96799104Y-132389523D02*
X96941961Y-132437142D01*
X96941961Y-132437142D02*
X97037200Y-132532380D01*
X97037200Y-132532380D02*
X97084819Y-132675237D01*
X97084819Y-132675237D02*
X97084819Y-132770475D01*
X97084819Y-131389523D02*
X97084819Y-131960951D01*
X97084819Y-131675237D02*
X96084819Y-131675237D01*
X96084819Y-131675237D02*
X96227676Y-131770475D01*
X96227676Y-131770475D02*
X96322914Y-131865713D01*
X96322914Y-131865713D02*
X96370533Y-131960951D01*
X96084819Y-130770475D02*
X96084819Y-130675237D01*
X96084819Y-130675237D02*
X96132438Y-130579999D01*
X96132438Y-130579999D02*
X96180057Y-130532380D01*
X96180057Y-130532380D02*
X96275295Y-130484761D01*
X96275295Y-130484761D02*
X96465771Y-130437142D01*
X96465771Y-130437142D02*
X96703866Y-130437142D01*
X96703866Y-130437142D02*
X96894342Y-130484761D01*
X96894342Y-130484761D02*
X96989580Y-130532380D01*
X96989580Y-130532380D02*
X97037200Y-130579999D01*
X97037200Y-130579999D02*
X97084819Y-130675237D01*
X97084819Y-130675237D02*
X97084819Y-130770475D01*
X97084819Y-130770475D02*
X97037200Y-130865713D01*
X97037200Y-130865713D02*
X96989580Y-130913332D01*
X96989580Y-130913332D02*
X96894342Y-130960951D01*
X96894342Y-130960951D02*
X96703866Y-131008570D01*
X96703866Y-131008570D02*
X96465771Y-131008570D01*
X96465771Y-131008570D02*
X96275295Y-130960951D01*
X96275295Y-130960951D02*
X96180057Y-130913332D01*
X96180057Y-130913332D02*
X96132438Y-130865713D01*
X96132438Y-130865713D02*
X96084819Y-130770475D01*
X125666666Y-74154819D02*
X125666666Y-74869104D01*
X125666666Y-74869104D02*
X125619047Y-75011961D01*
X125619047Y-75011961D02*
X125523809Y-75107200D01*
X125523809Y-75107200D02*
X125380952Y-75154819D01*
X125380952Y-75154819D02*
X125285714Y-75154819D01*
X126047619Y-74154819D02*
X126666666Y-74154819D01*
X126666666Y-74154819D02*
X126333333Y-74535771D01*
X126333333Y-74535771D02*
X126476190Y-74535771D01*
X126476190Y-74535771D02*
X126571428Y-74583390D01*
X126571428Y-74583390D02*
X126619047Y-74631009D01*
X126619047Y-74631009D02*
X126666666Y-74726247D01*
X126666666Y-74726247D02*
X126666666Y-74964342D01*
X126666666Y-74964342D02*
X126619047Y-75059580D01*
X126619047Y-75059580D02*
X126571428Y-75107200D01*
X126571428Y-75107200D02*
X126476190Y-75154819D01*
X126476190Y-75154819D02*
X126190476Y-75154819D01*
X126190476Y-75154819D02*
X126095238Y-75107200D01*
X126095238Y-75107200D02*
X126047619Y-75059580D01*
X124454819Y-49704523D02*
X125169104Y-49704523D01*
X125169104Y-49704523D02*
X125311961Y-49752142D01*
X125311961Y-49752142D02*
X125407200Y-49847380D01*
X125407200Y-49847380D02*
X125454819Y-49990237D01*
X125454819Y-49990237D02*
X125454819Y-50085475D01*
X125454819Y-48704523D02*
X125454819Y-49275951D01*
X125454819Y-48990237D02*
X124454819Y-48990237D01*
X124454819Y-48990237D02*
X124597676Y-49085475D01*
X124597676Y-49085475D02*
X124692914Y-49180713D01*
X124692914Y-49180713D02*
X124740533Y-49275951D01*
X124454819Y-47847380D02*
X124454819Y-48037856D01*
X124454819Y-48037856D02*
X124502438Y-48133094D01*
X124502438Y-48133094D02*
X124550057Y-48180713D01*
X124550057Y-48180713D02*
X124692914Y-48275951D01*
X124692914Y-48275951D02*
X124883390Y-48323570D01*
X124883390Y-48323570D02*
X125264342Y-48323570D01*
X125264342Y-48323570D02*
X125359580Y-48275951D01*
X125359580Y-48275951D02*
X125407200Y-48228332D01*
X125407200Y-48228332D02*
X125454819Y-48133094D01*
X125454819Y-48133094D02*
X125454819Y-47942618D01*
X125454819Y-47942618D02*
X125407200Y-47847380D01*
X125407200Y-47847380D02*
X125359580Y-47799761D01*
X125359580Y-47799761D02*
X125264342Y-47752142D01*
X125264342Y-47752142D02*
X125026247Y-47752142D01*
X125026247Y-47752142D02*
X124931009Y-47799761D01*
X124931009Y-47799761D02*
X124883390Y-47847380D01*
X124883390Y-47847380D02*
X124835771Y-47942618D01*
X124835771Y-47942618D02*
X124835771Y-48133094D01*
X124835771Y-48133094D02*
X124883390Y-48228332D01*
X124883390Y-48228332D02*
X124931009Y-48275951D01*
X124931009Y-48275951D02*
X125026247Y-48323570D01*
X96084819Y-107889523D02*
X96799104Y-107889523D01*
X96799104Y-107889523D02*
X96941961Y-107937142D01*
X96941961Y-107937142D02*
X97037200Y-108032380D01*
X97037200Y-108032380D02*
X97084819Y-108175237D01*
X97084819Y-108175237D02*
X97084819Y-108270475D01*
X97084819Y-106889523D02*
X97084819Y-107460951D01*
X97084819Y-107175237D02*
X96084819Y-107175237D01*
X96084819Y-107175237D02*
X96227676Y-107270475D01*
X96227676Y-107270475D02*
X96322914Y-107365713D01*
X96322914Y-107365713D02*
X96370533Y-107460951D01*
X96418152Y-106032380D02*
X97084819Y-106032380D01*
X96037200Y-106270475D02*
X96751485Y-106508570D01*
X96751485Y-106508570D02*
X96751485Y-105889523D01*
X122413333Y-163654819D02*
X122080000Y-163178628D01*
X121841905Y-163654819D02*
X121841905Y-162654819D01*
X121841905Y-162654819D02*
X122222857Y-162654819D01*
X122222857Y-162654819D02*
X122318095Y-162702438D01*
X122318095Y-162702438D02*
X122365714Y-162750057D01*
X122365714Y-162750057D02*
X122413333Y-162845295D01*
X122413333Y-162845295D02*
X122413333Y-162988152D01*
X122413333Y-162988152D02*
X122365714Y-163083390D01*
X122365714Y-163083390D02*
X122318095Y-163131009D01*
X122318095Y-163131009D02*
X122222857Y-163178628D01*
X122222857Y-163178628D02*
X121841905Y-163178628D01*
X122794286Y-162750057D02*
X122841905Y-162702438D01*
X122841905Y-162702438D02*
X122937143Y-162654819D01*
X122937143Y-162654819D02*
X123175238Y-162654819D01*
X123175238Y-162654819D02*
X123270476Y-162702438D01*
X123270476Y-162702438D02*
X123318095Y-162750057D01*
X123318095Y-162750057D02*
X123365714Y-162845295D01*
X123365714Y-162845295D02*
X123365714Y-162940533D01*
X123365714Y-162940533D02*
X123318095Y-163083390D01*
X123318095Y-163083390D02*
X122746667Y-163654819D01*
X122746667Y-163654819D02*
X123365714Y-163654819D01*
X110841905Y-129564819D02*
X110841905Y-128564819D01*
X110841905Y-128564819D02*
X111080000Y-128564819D01*
X111080000Y-128564819D02*
X111222857Y-128612438D01*
X111222857Y-128612438D02*
X111318095Y-128707676D01*
X111318095Y-128707676D02*
X111365714Y-128802914D01*
X111365714Y-128802914D02*
X111413333Y-128993390D01*
X111413333Y-128993390D02*
X111413333Y-129136247D01*
X111413333Y-129136247D02*
X111365714Y-129326723D01*
X111365714Y-129326723D02*
X111318095Y-129421961D01*
X111318095Y-129421961D02*
X111222857Y-129517200D01*
X111222857Y-129517200D02*
X111080000Y-129564819D01*
X111080000Y-129564819D02*
X110841905Y-129564819D01*
X111746667Y-128564819D02*
X112413333Y-128564819D01*
X112413333Y-128564819D02*
X111984762Y-129564819D01*
X106238095Y-129934819D02*
X106238095Y-128934819D01*
X106809523Y-129934819D02*
X106380952Y-129363390D01*
X106809523Y-128934819D02*
X106238095Y-129506247D01*
X134738095Y-165534819D02*
X134738095Y-164534819D01*
X134738095Y-165011009D02*
X135309523Y-165011009D01*
X135309523Y-165534819D02*
X135309523Y-164534819D01*
X136214285Y-164868152D02*
X136214285Y-165534819D01*
X135976190Y-164487200D02*
X135738095Y-165201485D01*
X135738095Y-165201485D02*
X136357142Y-165201485D01*
X136666666Y-65679819D02*
X136666666Y-66394104D01*
X136666666Y-66394104D02*
X136619047Y-66536961D01*
X136619047Y-66536961D02*
X136523809Y-66632200D01*
X136523809Y-66632200D02*
X136380952Y-66679819D01*
X136380952Y-66679819D02*
X136285714Y-66679819D01*
X137095238Y-65775057D02*
X137142857Y-65727438D01*
X137142857Y-65727438D02*
X137238095Y-65679819D01*
X137238095Y-65679819D02*
X137476190Y-65679819D01*
X137476190Y-65679819D02*
X137571428Y-65727438D01*
X137571428Y-65727438D02*
X137619047Y-65775057D01*
X137619047Y-65775057D02*
X137666666Y-65870295D01*
X137666666Y-65870295D02*
X137666666Y-65965533D01*
X137666666Y-65965533D02*
X137619047Y-66108390D01*
X137619047Y-66108390D02*
X137047619Y-66679819D01*
X137047619Y-66679819D02*
X137666666Y-66679819D01*
X133424819Y-119318094D02*
X132424819Y-119318094D01*
X132424819Y-119318094D02*
X132424819Y-119079999D01*
X132424819Y-119079999D02*
X132472438Y-118937142D01*
X132472438Y-118937142D02*
X132567676Y-118841904D01*
X132567676Y-118841904D02*
X132662914Y-118794285D01*
X132662914Y-118794285D02*
X132853390Y-118746666D01*
X132853390Y-118746666D02*
X132996247Y-118746666D01*
X132996247Y-118746666D02*
X133186723Y-118794285D01*
X133186723Y-118794285D02*
X133281961Y-118841904D01*
X133281961Y-118841904D02*
X133377200Y-118937142D01*
X133377200Y-118937142D02*
X133424819Y-119079999D01*
X133424819Y-119079999D02*
X133424819Y-119318094D01*
X132424819Y-117889523D02*
X132424819Y-118079999D01*
X132424819Y-118079999D02*
X132472438Y-118175237D01*
X132472438Y-118175237D02*
X132520057Y-118222856D01*
X132520057Y-118222856D02*
X132662914Y-118318094D01*
X132662914Y-118318094D02*
X132853390Y-118365713D01*
X132853390Y-118365713D02*
X133234342Y-118365713D01*
X133234342Y-118365713D02*
X133329580Y-118318094D01*
X133329580Y-118318094D02*
X133377200Y-118270475D01*
X133377200Y-118270475D02*
X133424819Y-118175237D01*
X133424819Y-118175237D02*
X133424819Y-117984761D01*
X133424819Y-117984761D02*
X133377200Y-117889523D01*
X133377200Y-117889523D02*
X133329580Y-117841904D01*
X133329580Y-117841904D02*
X133234342Y-117794285D01*
X133234342Y-117794285D02*
X132996247Y-117794285D01*
X132996247Y-117794285D02*
X132901009Y-117841904D01*
X132901009Y-117841904D02*
X132853390Y-117889523D01*
X132853390Y-117889523D02*
X132805771Y-117984761D01*
X132805771Y-117984761D02*
X132805771Y-118175237D01*
X132805771Y-118175237D02*
X132853390Y-118270475D01*
X132853390Y-118270475D02*
X132901009Y-118318094D01*
X132901009Y-118318094D02*
X132996247Y-118365713D01*
X133054819Y-113761904D02*
X132054819Y-113761904D01*
X133054819Y-113190476D02*
X132483390Y-113619047D01*
X132054819Y-113190476D02*
X132626247Y-113761904D01*
X133424819Y-144318094D02*
X132424819Y-144318094D01*
X132424819Y-144318094D02*
X132424819Y-144079999D01*
X132424819Y-144079999D02*
X132472438Y-143937142D01*
X132472438Y-143937142D02*
X132567676Y-143841904D01*
X132567676Y-143841904D02*
X132662914Y-143794285D01*
X132662914Y-143794285D02*
X132853390Y-143746666D01*
X132853390Y-143746666D02*
X132996247Y-143746666D01*
X132996247Y-143746666D02*
X133186723Y-143794285D01*
X133186723Y-143794285D02*
X133281961Y-143841904D01*
X133281961Y-143841904D02*
X133377200Y-143937142D01*
X133377200Y-143937142D02*
X133424819Y-144079999D01*
X133424819Y-144079999D02*
X133424819Y-144318094D01*
X132853390Y-143175237D02*
X132805771Y-143270475D01*
X132805771Y-143270475D02*
X132758152Y-143318094D01*
X132758152Y-143318094D02*
X132662914Y-143365713D01*
X132662914Y-143365713D02*
X132615295Y-143365713D01*
X132615295Y-143365713D02*
X132520057Y-143318094D01*
X132520057Y-143318094D02*
X132472438Y-143270475D01*
X132472438Y-143270475D02*
X132424819Y-143175237D01*
X132424819Y-143175237D02*
X132424819Y-142984761D01*
X132424819Y-142984761D02*
X132472438Y-142889523D01*
X132472438Y-142889523D02*
X132520057Y-142841904D01*
X132520057Y-142841904D02*
X132615295Y-142794285D01*
X132615295Y-142794285D02*
X132662914Y-142794285D01*
X132662914Y-142794285D02*
X132758152Y-142841904D01*
X132758152Y-142841904D02*
X132805771Y-142889523D01*
X132805771Y-142889523D02*
X132853390Y-142984761D01*
X132853390Y-142984761D02*
X132853390Y-143175237D01*
X132853390Y-143175237D02*
X132901009Y-143270475D01*
X132901009Y-143270475D02*
X132948628Y-143318094D01*
X132948628Y-143318094D02*
X133043866Y-143365713D01*
X133043866Y-143365713D02*
X133234342Y-143365713D01*
X133234342Y-143365713D02*
X133329580Y-143318094D01*
X133329580Y-143318094D02*
X133377200Y-143270475D01*
X133377200Y-143270475D02*
X133424819Y-143175237D01*
X133424819Y-143175237D02*
X133424819Y-142984761D01*
X133424819Y-142984761D02*
X133377200Y-142889523D01*
X133377200Y-142889523D02*
X133329580Y-142841904D01*
X133329580Y-142841904D02*
X133234342Y-142794285D01*
X133234342Y-142794285D02*
X133043866Y-142794285D01*
X133043866Y-142794285D02*
X132948628Y-142841904D01*
X132948628Y-142841904D02*
X132901009Y-142889523D01*
X132901009Y-142889523D02*
X132853390Y-142984761D01*
X133054819Y-138761904D02*
X132054819Y-138761904D01*
X133054819Y-138190476D02*
X132483390Y-138619047D01*
X132054819Y-138190476D02*
X132626247Y-138761904D01*
X137166666Y-139179819D02*
X137166666Y-139894104D01*
X137166666Y-139894104D02*
X137119047Y-140036961D01*
X137119047Y-140036961D02*
X137023809Y-140132200D01*
X137023809Y-140132200D02*
X136880952Y-140179819D01*
X136880952Y-140179819D02*
X136785714Y-140179819D01*
X137690476Y-140179819D02*
X137880952Y-140179819D01*
X137880952Y-140179819D02*
X137976190Y-140132200D01*
X137976190Y-140132200D02*
X138023809Y-140084580D01*
X138023809Y-140084580D02*
X138119047Y-139941723D01*
X138119047Y-139941723D02*
X138166666Y-139751247D01*
X138166666Y-139751247D02*
X138166666Y-139370295D01*
X138166666Y-139370295D02*
X138119047Y-139275057D01*
X138119047Y-139275057D02*
X138071428Y-139227438D01*
X138071428Y-139227438D02*
X137976190Y-139179819D01*
X137976190Y-139179819D02*
X137785714Y-139179819D01*
X137785714Y-139179819D02*
X137690476Y-139227438D01*
X137690476Y-139227438D02*
X137642857Y-139275057D01*
X137642857Y-139275057D02*
X137595238Y-139370295D01*
X137595238Y-139370295D02*
X137595238Y-139608390D01*
X137595238Y-139608390D02*
X137642857Y-139703628D01*
X137642857Y-139703628D02*
X137690476Y-139751247D01*
X137690476Y-139751247D02*
X137785714Y-139798866D01*
X137785714Y-139798866D02*
X137976190Y-139798866D01*
X137976190Y-139798866D02*
X138071428Y-139751247D01*
X138071428Y-139751247D02*
X138119047Y-139703628D01*
X138119047Y-139703628D02*
X138166666Y-139608390D01*
X129364819Y-169369523D02*
X130079104Y-169369523D01*
X130079104Y-169369523D02*
X130221961Y-169417142D01*
X130221961Y-169417142D02*
X130317200Y-169512380D01*
X130317200Y-169512380D02*
X130364819Y-169655237D01*
X130364819Y-169655237D02*
X130364819Y-169750475D01*
X130364819Y-168369523D02*
X130364819Y-168940951D01*
X130364819Y-168655237D02*
X129364819Y-168655237D01*
X129364819Y-168655237D02*
X129507676Y-168750475D01*
X129507676Y-168750475D02*
X129602914Y-168845713D01*
X129602914Y-168845713D02*
X129650533Y-168940951D01*
X130364819Y-167417142D02*
X130364819Y-167988570D01*
X130364819Y-167702856D02*
X129364819Y-167702856D01*
X129364819Y-167702856D02*
X129507676Y-167798094D01*
X129507676Y-167798094D02*
X129602914Y-167893332D01*
X129602914Y-167893332D02*
X129650533Y-167988570D01*
X96584819Y-58889523D02*
X97299104Y-58889523D01*
X97299104Y-58889523D02*
X97441961Y-58937142D01*
X97441961Y-58937142D02*
X97537200Y-59032380D01*
X97537200Y-59032380D02*
X97584819Y-59175237D01*
X97584819Y-59175237D02*
X97584819Y-59270475D01*
X97584819Y-57889523D02*
X97584819Y-58460951D01*
X97584819Y-58175237D02*
X96584819Y-58175237D01*
X96584819Y-58175237D02*
X96727676Y-58270475D01*
X96727676Y-58270475D02*
X96822914Y-58365713D01*
X96822914Y-58365713D02*
X96870533Y-58460951D01*
X96584819Y-56984761D02*
X96584819Y-57460951D01*
X96584819Y-57460951D02*
X97061009Y-57508570D01*
X97061009Y-57508570D02*
X97013390Y-57460951D01*
X97013390Y-57460951D02*
X96965771Y-57365713D01*
X96965771Y-57365713D02*
X96965771Y-57127618D01*
X96965771Y-57127618D02*
X97013390Y-57032380D01*
X97013390Y-57032380D02*
X97061009Y-56984761D01*
X97061009Y-56984761D02*
X97156247Y-56937142D01*
X97156247Y-56937142D02*
X97394342Y-56937142D01*
X97394342Y-56937142D02*
X97489580Y-56984761D01*
X97489580Y-56984761D02*
X97537200Y-57032380D01*
X97537200Y-57032380D02*
X97584819Y-57127618D01*
X97584819Y-57127618D02*
X97584819Y-57365713D01*
X97584819Y-57365713D02*
X97537200Y-57460951D01*
X97537200Y-57460951D02*
X97489580Y-57508570D01*
X96584819Y-83389523D02*
X97299104Y-83389523D01*
X97299104Y-83389523D02*
X97441961Y-83437142D01*
X97441961Y-83437142D02*
X97537200Y-83532380D01*
X97537200Y-83532380D02*
X97584819Y-83675237D01*
X97584819Y-83675237D02*
X97584819Y-83770475D01*
X97584819Y-82389523D02*
X97584819Y-82960951D01*
X97584819Y-82675237D02*
X96584819Y-82675237D01*
X96584819Y-82675237D02*
X96727676Y-82770475D01*
X96727676Y-82770475D02*
X96822914Y-82865713D01*
X96822914Y-82865713D02*
X96870533Y-82960951D01*
X96584819Y-82056189D02*
X96584819Y-81437142D01*
X96584819Y-81437142D02*
X96965771Y-81770475D01*
X96965771Y-81770475D02*
X96965771Y-81627618D01*
X96965771Y-81627618D02*
X97013390Y-81532380D01*
X97013390Y-81532380D02*
X97061009Y-81484761D01*
X97061009Y-81484761D02*
X97156247Y-81437142D01*
X97156247Y-81437142D02*
X97394342Y-81437142D01*
X97394342Y-81437142D02*
X97489580Y-81484761D01*
X97489580Y-81484761D02*
X97537200Y-81532380D01*
X97537200Y-81532380D02*
X97584819Y-81627618D01*
X97584819Y-81627618D02*
X97584819Y-81913332D01*
X97584819Y-81913332D02*
X97537200Y-82008570D01*
X97537200Y-82008570D02*
X97489580Y-82056189D01*
X125666666Y-98739819D02*
X125666666Y-99454104D01*
X125666666Y-99454104D02*
X125619047Y-99596961D01*
X125619047Y-99596961D02*
X125523809Y-99692200D01*
X125523809Y-99692200D02*
X125380952Y-99739819D01*
X125380952Y-99739819D02*
X125285714Y-99739819D01*
X126571428Y-99073152D02*
X126571428Y-99739819D01*
X126333333Y-98692200D02*
X126095238Y-99406485D01*
X126095238Y-99406485D02*
X126714285Y-99406485D01*
X97238095Y-165534819D02*
X97238095Y-164534819D01*
X97238095Y-165011009D02*
X97809523Y-165011009D01*
X97809523Y-165534819D02*
X97809523Y-164534819D01*
X98190476Y-164534819D02*
X98809523Y-164534819D01*
X98809523Y-164534819D02*
X98476190Y-164915771D01*
X98476190Y-164915771D02*
X98619047Y-164915771D01*
X98619047Y-164915771D02*
X98714285Y-164963390D01*
X98714285Y-164963390D02*
X98761904Y-165011009D01*
X98761904Y-165011009D02*
X98809523Y-165106247D01*
X98809523Y-165106247D02*
X98809523Y-165344342D01*
X98809523Y-165344342D02*
X98761904Y-165439580D01*
X98761904Y-165439580D02*
X98714285Y-165487200D01*
X98714285Y-165487200D02*
X98619047Y-165534819D01*
X98619047Y-165534819D02*
X98333333Y-165534819D01*
X98333333Y-165534819D02*
X98238095Y-165487200D01*
X98238095Y-165487200D02*
X98190476Y-165439580D01*
D11*
X111056985Y-143882333D02*
X111776652Y-143882333D01*
X111776652Y-143882333D02*
X111861318Y-143840000D01*
X111861318Y-143840000D02*
X111903652Y-143797666D01*
X111903652Y-143797666D02*
X111945985Y-143713000D01*
X111945985Y-143713000D02*
X111945985Y-143543666D01*
X111945985Y-143543666D02*
X111903652Y-143459000D01*
X111903652Y-143459000D02*
X111861318Y-143416666D01*
X111861318Y-143416666D02*
X111776652Y-143374333D01*
X111776652Y-143374333D02*
X111056985Y-143374333D01*
X111353318Y-142570000D02*
X111945985Y-142570000D01*
X111014652Y-142781667D02*
X111649652Y-142993333D01*
X111649652Y-142993333D02*
X111649652Y-142443000D01*
D10*
X107907200Y-147966904D02*
X107954819Y-147824047D01*
X107954819Y-147824047D02*
X107954819Y-147585952D01*
X107954819Y-147585952D02*
X107907200Y-147490714D01*
X107907200Y-147490714D02*
X107859580Y-147443095D01*
X107859580Y-147443095D02*
X107764342Y-147395476D01*
X107764342Y-147395476D02*
X107669104Y-147395476D01*
X107669104Y-147395476D02*
X107573866Y-147443095D01*
X107573866Y-147443095D02*
X107526247Y-147490714D01*
X107526247Y-147490714D02*
X107478628Y-147585952D01*
X107478628Y-147585952D02*
X107431009Y-147776428D01*
X107431009Y-147776428D02*
X107383390Y-147871666D01*
X107383390Y-147871666D02*
X107335771Y-147919285D01*
X107335771Y-147919285D02*
X107240533Y-147966904D01*
X107240533Y-147966904D02*
X107145295Y-147966904D01*
X107145295Y-147966904D02*
X107050057Y-147919285D01*
X107050057Y-147919285D02*
X107002438Y-147871666D01*
X107002438Y-147871666D02*
X106954819Y-147776428D01*
X106954819Y-147776428D02*
X106954819Y-147538333D01*
X106954819Y-147538333D02*
X107002438Y-147395476D01*
X107907200Y-146585952D02*
X107954819Y-146681190D01*
X107954819Y-146681190D02*
X107954819Y-146871666D01*
X107954819Y-146871666D02*
X107907200Y-146966904D01*
X107907200Y-146966904D02*
X107811961Y-147014523D01*
X107811961Y-147014523D02*
X107431009Y-147014523D01*
X107431009Y-147014523D02*
X107335771Y-146966904D01*
X107335771Y-146966904D02*
X107288152Y-146871666D01*
X107288152Y-146871666D02*
X107288152Y-146681190D01*
X107288152Y-146681190D02*
X107335771Y-146585952D01*
X107335771Y-146585952D02*
X107431009Y-146538333D01*
X107431009Y-146538333D02*
X107526247Y-146538333D01*
X107526247Y-146538333D02*
X107621485Y-147014523D01*
X107907200Y-145728809D02*
X107954819Y-145824047D01*
X107954819Y-145824047D02*
X107954819Y-146014523D01*
X107954819Y-146014523D02*
X107907200Y-146109761D01*
X107907200Y-146109761D02*
X107811961Y-146157380D01*
X107811961Y-146157380D02*
X107431009Y-146157380D01*
X107431009Y-146157380D02*
X107335771Y-146109761D01*
X107335771Y-146109761D02*
X107288152Y-146014523D01*
X107288152Y-146014523D02*
X107288152Y-145824047D01*
X107288152Y-145824047D02*
X107335771Y-145728809D01*
X107335771Y-145728809D02*
X107431009Y-145681190D01*
X107431009Y-145681190D02*
X107526247Y-145681190D01*
X107526247Y-145681190D02*
X107621485Y-146157380D01*
X107907200Y-144871666D02*
X107954819Y-144966904D01*
X107954819Y-144966904D02*
X107954819Y-145157380D01*
X107954819Y-145157380D02*
X107907200Y-145252618D01*
X107907200Y-145252618D02*
X107811961Y-145300237D01*
X107811961Y-145300237D02*
X107431009Y-145300237D01*
X107431009Y-145300237D02*
X107335771Y-145252618D01*
X107335771Y-145252618D02*
X107288152Y-145157380D01*
X107288152Y-145157380D02*
X107288152Y-144966904D01*
X107288152Y-144966904D02*
X107335771Y-144871666D01*
X107335771Y-144871666D02*
X107431009Y-144824047D01*
X107431009Y-144824047D02*
X107526247Y-144824047D01*
X107526247Y-144824047D02*
X107621485Y-145300237D01*
X107954819Y-143966904D02*
X106954819Y-143966904D01*
X107907200Y-143966904D02*
X107954819Y-144062142D01*
X107954819Y-144062142D02*
X107954819Y-144252618D01*
X107954819Y-144252618D02*
X107907200Y-144347856D01*
X107907200Y-144347856D02*
X107859580Y-144395475D01*
X107859580Y-144395475D02*
X107764342Y-144443094D01*
X107764342Y-144443094D02*
X107478628Y-144443094D01*
X107478628Y-144443094D02*
X107383390Y-144395475D01*
X107383390Y-144395475D02*
X107335771Y-144347856D01*
X107335771Y-144347856D02*
X107288152Y-144252618D01*
X107288152Y-144252618D02*
X107288152Y-144062142D01*
X107288152Y-144062142D02*
X107335771Y-143966904D01*
X107907200Y-142776427D02*
X107954819Y-142633570D01*
X107954819Y-142633570D02*
X107954819Y-142395475D01*
X107954819Y-142395475D02*
X107907200Y-142300237D01*
X107907200Y-142300237D02*
X107859580Y-142252618D01*
X107859580Y-142252618D02*
X107764342Y-142204999D01*
X107764342Y-142204999D02*
X107669104Y-142204999D01*
X107669104Y-142204999D02*
X107573866Y-142252618D01*
X107573866Y-142252618D02*
X107526247Y-142300237D01*
X107526247Y-142300237D02*
X107478628Y-142395475D01*
X107478628Y-142395475D02*
X107431009Y-142585951D01*
X107431009Y-142585951D02*
X107383390Y-142681189D01*
X107383390Y-142681189D02*
X107335771Y-142728808D01*
X107335771Y-142728808D02*
X107240533Y-142776427D01*
X107240533Y-142776427D02*
X107145295Y-142776427D01*
X107145295Y-142776427D02*
X107050057Y-142728808D01*
X107050057Y-142728808D02*
X107002438Y-142681189D01*
X107002438Y-142681189D02*
X106954819Y-142585951D01*
X106954819Y-142585951D02*
X106954819Y-142347856D01*
X106954819Y-142347856D02*
X107002438Y-142204999D01*
X107288152Y-141919284D02*
X107288152Y-141538332D01*
X106954819Y-141776427D02*
X107811961Y-141776427D01*
X107811961Y-141776427D02*
X107907200Y-141728808D01*
X107907200Y-141728808D02*
X107954819Y-141633570D01*
X107954819Y-141633570D02*
X107954819Y-141538332D01*
X107288152Y-140776427D02*
X107954819Y-140776427D01*
X107288152Y-141204998D02*
X107811961Y-141204998D01*
X107811961Y-141204998D02*
X107907200Y-141157379D01*
X107907200Y-141157379D02*
X107954819Y-141062141D01*
X107954819Y-141062141D02*
X107954819Y-140919284D01*
X107954819Y-140919284D02*
X107907200Y-140824046D01*
X107907200Y-140824046D02*
X107859580Y-140776427D01*
X107954819Y-139871665D02*
X106954819Y-139871665D01*
X107907200Y-139871665D02*
X107954819Y-139966903D01*
X107954819Y-139966903D02*
X107954819Y-140157379D01*
X107954819Y-140157379D02*
X107907200Y-140252617D01*
X107907200Y-140252617D02*
X107859580Y-140300236D01*
X107859580Y-140300236D02*
X107764342Y-140347855D01*
X107764342Y-140347855D02*
X107478628Y-140347855D01*
X107478628Y-140347855D02*
X107383390Y-140300236D01*
X107383390Y-140300236D02*
X107335771Y-140252617D01*
X107335771Y-140252617D02*
X107288152Y-140157379D01*
X107288152Y-140157379D02*
X107288152Y-139966903D01*
X107288152Y-139966903D02*
X107335771Y-139871665D01*
X107954819Y-139395474D02*
X107288152Y-139395474D01*
X106954819Y-139395474D02*
X107002438Y-139443093D01*
X107002438Y-139443093D02*
X107050057Y-139395474D01*
X107050057Y-139395474D02*
X107002438Y-139347855D01*
X107002438Y-139347855D02*
X106954819Y-139395474D01*
X106954819Y-139395474D02*
X107050057Y-139395474D01*
X107954819Y-138776427D02*
X107907200Y-138871665D01*
X107907200Y-138871665D02*
X107859580Y-138919284D01*
X107859580Y-138919284D02*
X107764342Y-138966903D01*
X107764342Y-138966903D02*
X107478628Y-138966903D01*
X107478628Y-138966903D02*
X107383390Y-138919284D01*
X107383390Y-138919284D02*
X107335771Y-138871665D01*
X107335771Y-138871665D02*
X107288152Y-138776427D01*
X107288152Y-138776427D02*
X107288152Y-138633570D01*
X107288152Y-138633570D02*
X107335771Y-138538332D01*
X107335771Y-138538332D02*
X107383390Y-138490713D01*
X107383390Y-138490713D02*
X107478628Y-138443094D01*
X107478628Y-138443094D02*
X107764342Y-138443094D01*
X107764342Y-138443094D02*
X107859580Y-138490713D01*
X107859580Y-138490713D02*
X107907200Y-138538332D01*
X107907200Y-138538332D02*
X107954819Y-138633570D01*
X107954819Y-138633570D02*
X107954819Y-138776427D01*
X108954819Y-144728808D02*
X109954819Y-144062142D01*
X108954819Y-144062142D02*
X109954819Y-144728808D01*
X109954819Y-143681189D02*
X108954819Y-143681189D01*
X109669104Y-143252618D02*
X109669104Y-142776428D01*
X109954819Y-143347856D02*
X108954819Y-143014523D01*
X108954819Y-143014523D02*
X109954819Y-142681190D01*
X108954819Y-142157380D02*
X108954819Y-141966904D01*
X108954819Y-141966904D02*
X109002438Y-141871666D01*
X109002438Y-141871666D02*
X109097676Y-141776428D01*
X109097676Y-141776428D02*
X109288152Y-141728809D01*
X109288152Y-141728809D02*
X109621485Y-141728809D01*
X109621485Y-141728809D02*
X109811961Y-141776428D01*
X109811961Y-141776428D02*
X109907200Y-141871666D01*
X109907200Y-141871666D02*
X109954819Y-141966904D01*
X109954819Y-141966904D02*
X109954819Y-142157380D01*
X109954819Y-142157380D02*
X109907200Y-142252618D01*
X109907200Y-142252618D02*
X109811961Y-142347856D01*
X109811961Y-142347856D02*
X109621485Y-142395475D01*
X109621485Y-142395475D02*
X109288152Y-142395475D01*
X109288152Y-142395475D02*
X109097676Y-142347856D01*
X109097676Y-142347856D02*
X109002438Y-142252618D01*
X109002438Y-142252618D02*
X108954819Y-142157380D01*
X110841905Y-80564819D02*
X110841905Y-79564819D01*
X110841905Y-79564819D02*
X111080000Y-79564819D01*
X111080000Y-79564819D02*
X111222857Y-79612438D01*
X111222857Y-79612438D02*
X111318095Y-79707676D01*
X111318095Y-79707676D02*
X111365714Y-79802914D01*
X111365714Y-79802914D02*
X111413333Y-79993390D01*
X111413333Y-79993390D02*
X111413333Y-80136247D01*
X111413333Y-80136247D02*
X111365714Y-80326723D01*
X111365714Y-80326723D02*
X111318095Y-80421961D01*
X111318095Y-80421961D02*
X111222857Y-80517200D01*
X111222857Y-80517200D02*
X111080000Y-80564819D01*
X111080000Y-80564819D02*
X110841905Y-80564819D01*
X111746667Y-79564819D02*
X112365714Y-79564819D01*
X112365714Y-79564819D02*
X112032381Y-79945771D01*
X112032381Y-79945771D02*
X112175238Y-79945771D01*
X112175238Y-79945771D02*
X112270476Y-79993390D01*
X112270476Y-79993390D02*
X112318095Y-80041009D01*
X112318095Y-80041009D02*
X112365714Y-80136247D01*
X112365714Y-80136247D02*
X112365714Y-80374342D01*
X112365714Y-80374342D02*
X112318095Y-80469580D01*
X112318095Y-80469580D02*
X112270476Y-80517200D01*
X112270476Y-80517200D02*
X112175238Y-80564819D01*
X112175238Y-80564819D02*
X111889524Y-80564819D01*
X111889524Y-80564819D02*
X111794286Y-80517200D01*
X111794286Y-80517200D02*
X111746667Y-80469580D01*
X106238095Y-80934819D02*
X106238095Y-79934819D01*
X106809523Y-80934819D02*
X106380952Y-80363390D01*
X106809523Y-79934819D02*
X106238095Y-80506247D01*
X122333333Y-158654819D02*
X122000000Y-158178628D01*
X121761905Y-158654819D02*
X121761905Y-157654819D01*
X121761905Y-157654819D02*
X122142857Y-157654819D01*
X122142857Y-157654819D02*
X122238095Y-157702438D01*
X122238095Y-157702438D02*
X122285714Y-157750057D01*
X122285714Y-157750057D02*
X122333333Y-157845295D01*
X122333333Y-157845295D02*
X122333333Y-157988152D01*
X122333333Y-157988152D02*
X122285714Y-158083390D01*
X122285714Y-158083390D02*
X122238095Y-158131009D01*
X122238095Y-158131009D02*
X122142857Y-158178628D01*
X122142857Y-158178628D02*
X121761905Y-158178628D01*
X123285714Y-158654819D02*
X122714286Y-158654819D01*
X123000000Y-158654819D02*
X123000000Y-157654819D01*
X123000000Y-157654819D02*
X122904762Y-157797676D01*
X122904762Y-157797676D02*
X122809524Y-157892914D01*
X122809524Y-157892914D02*
X122714286Y-157940533D01*
X136666666Y-114179819D02*
X136666666Y-114894104D01*
X136666666Y-114894104D02*
X136619047Y-115036961D01*
X136619047Y-115036961D02*
X136523809Y-115132200D01*
X136523809Y-115132200D02*
X136380952Y-115179819D01*
X136380952Y-115179819D02*
X136285714Y-115179819D01*
X137047619Y-114179819D02*
X137714285Y-114179819D01*
X137714285Y-114179819D02*
X137285714Y-115179819D01*
D11*
X111056985Y-119507333D02*
X111776652Y-119507333D01*
X111776652Y-119507333D02*
X111861318Y-119465000D01*
X111861318Y-119465000D02*
X111903652Y-119422666D01*
X111903652Y-119422666D02*
X111945985Y-119338000D01*
X111945985Y-119338000D02*
X111945985Y-119168666D01*
X111945985Y-119168666D02*
X111903652Y-119084000D01*
X111903652Y-119084000D02*
X111861318Y-119041666D01*
X111861318Y-119041666D02*
X111776652Y-118999333D01*
X111776652Y-118999333D02*
X111056985Y-118999333D01*
X111056985Y-118660667D02*
X111056985Y-118110333D01*
X111056985Y-118110333D02*
X111395652Y-118406667D01*
X111395652Y-118406667D02*
X111395652Y-118279667D01*
X111395652Y-118279667D02*
X111437985Y-118195000D01*
X111437985Y-118195000D02*
X111480318Y-118152667D01*
X111480318Y-118152667D02*
X111564985Y-118110333D01*
X111564985Y-118110333D02*
X111776652Y-118110333D01*
X111776652Y-118110333D02*
X111861318Y-118152667D01*
X111861318Y-118152667D02*
X111903652Y-118195000D01*
X111903652Y-118195000D02*
X111945985Y-118279667D01*
X111945985Y-118279667D02*
X111945985Y-118533667D01*
X111945985Y-118533667D02*
X111903652Y-118618333D01*
X111903652Y-118618333D02*
X111861318Y-118660667D01*
D10*
X108954819Y-120353808D02*
X109954819Y-119687142D01*
X108954819Y-119687142D02*
X109954819Y-120353808D01*
X109954819Y-119306189D02*
X108954819Y-119306189D01*
X109669104Y-118877618D02*
X109669104Y-118401428D01*
X109954819Y-118972856D02*
X108954819Y-118639523D01*
X108954819Y-118639523D02*
X109954819Y-118306190D01*
X108954819Y-117782380D02*
X108954819Y-117591904D01*
X108954819Y-117591904D02*
X109002438Y-117496666D01*
X109002438Y-117496666D02*
X109097676Y-117401428D01*
X109097676Y-117401428D02*
X109288152Y-117353809D01*
X109288152Y-117353809D02*
X109621485Y-117353809D01*
X109621485Y-117353809D02*
X109811961Y-117401428D01*
X109811961Y-117401428D02*
X109907200Y-117496666D01*
X109907200Y-117496666D02*
X109954819Y-117591904D01*
X109954819Y-117591904D02*
X109954819Y-117782380D01*
X109954819Y-117782380D02*
X109907200Y-117877618D01*
X109907200Y-117877618D02*
X109811961Y-117972856D01*
X109811961Y-117972856D02*
X109621485Y-118020475D01*
X109621485Y-118020475D02*
X109288152Y-118020475D01*
X109288152Y-118020475D02*
X109097676Y-117972856D01*
X109097676Y-117972856D02*
X109002438Y-117877618D01*
X109002438Y-117877618D02*
X108954819Y-117782380D01*
X107907200Y-123591904D02*
X107954819Y-123449047D01*
X107954819Y-123449047D02*
X107954819Y-123210952D01*
X107954819Y-123210952D02*
X107907200Y-123115714D01*
X107907200Y-123115714D02*
X107859580Y-123068095D01*
X107859580Y-123068095D02*
X107764342Y-123020476D01*
X107764342Y-123020476D02*
X107669104Y-123020476D01*
X107669104Y-123020476D02*
X107573866Y-123068095D01*
X107573866Y-123068095D02*
X107526247Y-123115714D01*
X107526247Y-123115714D02*
X107478628Y-123210952D01*
X107478628Y-123210952D02*
X107431009Y-123401428D01*
X107431009Y-123401428D02*
X107383390Y-123496666D01*
X107383390Y-123496666D02*
X107335771Y-123544285D01*
X107335771Y-123544285D02*
X107240533Y-123591904D01*
X107240533Y-123591904D02*
X107145295Y-123591904D01*
X107145295Y-123591904D02*
X107050057Y-123544285D01*
X107050057Y-123544285D02*
X107002438Y-123496666D01*
X107002438Y-123496666D02*
X106954819Y-123401428D01*
X106954819Y-123401428D02*
X106954819Y-123163333D01*
X106954819Y-123163333D02*
X107002438Y-123020476D01*
X107907200Y-122210952D02*
X107954819Y-122306190D01*
X107954819Y-122306190D02*
X107954819Y-122496666D01*
X107954819Y-122496666D02*
X107907200Y-122591904D01*
X107907200Y-122591904D02*
X107811961Y-122639523D01*
X107811961Y-122639523D02*
X107431009Y-122639523D01*
X107431009Y-122639523D02*
X107335771Y-122591904D01*
X107335771Y-122591904D02*
X107288152Y-122496666D01*
X107288152Y-122496666D02*
X107288152Y-122306190D01*
X107288152Y-122306190D02*
X107335771Y-122210952D01*
X107335771Y-122210952D02*
X107431009Y-122163333D01*
X107431009Y-122163333D02*
X107526247Y-122163333D01*
X107526247Y-122163333D02*
X107621485Y-122639523D01*
X107907200Y-121353809D02*
X107954819Y-121449047D01*
X107954819Y-121449047D02*
X107954819Y-121639523D01*
X107954819Y-121639523D02*
X107907200Y-121734761D01*
X107907200Y-121734761D02*
X107811961Y-121782380D01*
X107811961Y-121782380D02*
X107431009Y-121782380D01*
X107431009Y-121782380D02*
X107335771Y-121734761D01*
X107335771Y-121734761D02*
X107288152Y-121639523D01*
X107288152Y-121639523D02*
X107288152Y-121449047D01*
X107288152Y-121449047D02*
X107335771Y-121353809D01*
X107335771Y-121353809D02*
X107431009Y-121306190D01*
X107431009Y-121306190D02*
X107526247Y-121306190D01*
X107526247Y-121306190D02*
X107621485Y-121782380D01*
X107907200Y-120496666D02*
X107954819Y-120591904D01*
X107954819Y-120591904D02*
X107954819Y-120782380D01*
X107954819Y-120782380D02*
X107907200Y-120877618D01*
X107907200Y-120877618D02*
X107811961Y-120925237D01*
X107811961Y-120925237D02*
X107431009Y-120925237D01*
X107431009Y-120925237D02*
X107335771Y-120877618D01*
X107335771Y-120877618D02*
X107288152Y-120782380D01*
X107288152Y-120782380D02*
X107288152Y-120591904D01*
X107288152Y-120591904D02*
X107335771Y-120496666D01*
X107335771Y-120496666D02*
X107431009Y-120449047D01*
X107431009Y-120449047D02*
X107526247Y-120449047D01*
X107526247Y-120449047D02*
X107621485Y-120925237D01*
X107954819Y-119591904D02*
X106954819Y-119591904D01*
X107907200Y-119591904D02*
X107954819Y-119687142D01*
X107954819Y-119687142D02*
X107954819Y-119877618D01*
X107954819Y-119877618D02*
X107907200Y-119972856D01*
X107907200Y-119972856D02*
X107859580Y-120020475D01*
X107859580Y-120020475D02*
X107764342Y-120068094D01*
X107764342Y-120068094D02*
X107478628Y-120068094D01*
X107478628Y-120068094D02*
X107383390Y-120020475D01*
X107383390Y-120020475D02*
X107335771Y-119972856D01*
X107335771Y-119972856D02*
X107288152Y-119877618D01*
X107288152Y-119877618D02*
X107288152Y-119687142D01*
X107288152Y-119687142D02*
X107335771Y-119591904D01*
X107907200Y-118401427D02*
X107954819Y-118258570D01*
X107954819Y-118258570D02*
X107954819Y-118020475D01*
X107954819Y-118020475D02*
X107907200Y-117925237D01*
X107907200Y-117925237D02*
X107859580Y-117877618D01*
X107859580Y-117877618D02*
X107764342Y-117829999D01*
X107764342Y-117829999D02*
X107669104Y-117829999D01*
X107669104Y-117829999D02*
X107573866Y-117877618D01*
X107573866Y-117877618D02*
X107526247Y-117925237D01*
X107526247Y-117925237D02*
X107478628Y-118020475D01*
X107478628Y-118020475D02*
X107431009Y-118210951D01*
X107431009Y-118210951D02*
X107383390Y-118306189D01*
X107383390Y-118306189D02*
X107335771Y-118353808D01*
X107335771Y-118353808D02*
X107240533Y-118401427D01*
X107240533Y-118401427D02*
X107145295Y-118401427D01*
X107145295Y-118401427D02*
X107050057Y-118353808D01*
X107050057Y-118353808D02*
X107002438Y-118306189D01*
X107002438Y-118306189D02*
X106954819Y-118210951D01*
X106954819Y-118210951D02*
X106954819Y-117972856D01*
X106954819Y-117972856D02*
X107002438Y-117829999D01*
X107288152Y-117544284D02*
X107288152Y-117163332D01*
X106954819Y-117401427D02*
X107811961Y-117401427D01*
X107811961Y-117401427D02*
X107907200Y-117353808D01*
X107907200Y-117353808D02*
X107954819Y-117258570D01*
X107954819Y-117258570D02*
X107954819Y-117163332D01*
X107288152Y-116401427D02*
X107954819Y-116401427D01*
X107288152Y-116829998D02*
X107811961Y-116829998D01*
X107811961Y-116829998D02*
X107907200Y-116782379D01*
X107907200Y-116782379D02*
X107954819Y-116687141D01*
X107954819Y-116687141D02*
X107954819Y-116544284D01*
X107954819Y-116544284D02*
X107907200Y-116449046D01*
X107907200Y-116449046D02*
X107859580Y-116401427D01*
X107954819Y-115496665D02*
X106954819Y-115496665D01*
X107907200Y-115496665D02*
X107954819Y-115591903D01*
X107954819Y-115591903D02*
X107954819Y-115782379D01*
X107954819Y-115782379D02*
X107907200Y-115877617D01*
X107907200Y-115877617D02*
X107859580Y-115925236D01*
X107859580Y-115925236D02*
X107764342Y-115972855D01*
X107764342Y-115972855D02*
X107478628Y-115972855D01*
X107478628Y-115972855D02*
X107383390Y-115925236D01*
X107383390Y-115925236D02*
X107335771Y-115877617D01*
X107335771Y-115877617D02*
X107288152Y-115782379D01*
X107288152Y-115782379D02*
X107288152Y-115591903D01*
X107288152Y-115591903D02*
X107335771Y-115496665D01*
X107954819Y-115020474D02*
X107288152Y-115020474D01*
X106954819Y-115020474D02*
X107002438Y-115068093D01*
X107002438Y-115068093D02*
X107050057Y-115020474D01*
X107050057Y-115020474D02*
X107002438Y-114972855D01*
X107002438Y-114972855D02*
X106954819Y-115020474D01*
X106954819Y-115020474D02*
X107050057Y-115020474D01*
X107954819Y-114401427D02*
X107907200Y-114496665D01*
X107907200Y-114496665D02*
X107859580Y-114544284D01*
X107859580Y-114544284D02*
X107764342Y-114591903D01*
X107764342Y-114591903D02*
X107478628Y-114591903D01*
X107478628Y-114591903D02*
X107383390Y-114544284D01*
X107383390Y-114544284D02*
X107335771Y-114496665D01*
X107335771Y-114496665D02*
X107288152Y-114401427D01*
X107288152Y-114401427D02*
X107288152Y-114258570D01*
X107288152Y-114258570D02*
X107335771Y-114163332D01*
X107335771Y-114163332D02*
X107383390Y-114115713D01*
X107383390Y-114115713D02*
X107478628Y-114068094D01*
X107478628Y-114068094D02*
X107764342Y-114068094D01*
X107764342Y-114068094D02*
X107859580Y-114115713D01*
X107859580Y-114115713D02*
X107907200Y-114163332D01*
X107907200Y-114163332D02*
X107954819Y-114258570D01*
X107954819Y-114258570D02*
X107954819Y-114401427D01*
X134738095Y-53794819D02*
X134738095Y-52794819D01*
X134738095Y-53271009D02*
X135309523Y-53271009D01*
X135309523Y-53794819D02*
X135309523Y-52794819D01*
X135738095Y-52890057D02*
X135785714Y-52842438D01*
X135785714Y-52842438D02*
X135880952Y-52794819D01*
X135880952Y-52794819D02*
X136119047Y-52794819D01*
X136119047Y-52794819D02*
X136214285Y-52842438D01*
X136214285Y-52842438D02*
X136261904Y-52890057D01*
X136261904Y-52890057D02*
X136309523Y-52985295D01*
X136309523Y-52985295D02*
X136309523Y-53080533D01*
X136309523Y-53080533D02*
X136261904Y-53223390D01*
X136261904Y-53223390D02*
X135690476Y-53794819D01*
X135690476Y-53794819D02*
X136309523Y-53794819D01*
X110841905Y-56064819D02*
X110841905Y-55064819D01*
X110841905Y-55064819D02*
X111080000Y-55064819D01*
X111080000Y-55064819D02*
X111222857Y-55112438D01*
X111222857Y-55112438D02*
X111318095Y-55207676D01*
X111318095Y-55207676D02*
X111365714Y-55302914D01*
X111365714Y-55302914D02*
X111413333Y-55493390D01*
X111413333Y-55493390D02*
X111413333Y-55636247D01*
X111413333Y-55636247D02*
X111365714Y-55826723D01*
X111365714Y-55826723D02*
X111318095Y-55921961D01*
X111318095Y-55921961D02*
X111222857Y-56017200D01*
X111222857Y-56017200D02*
X111080000Y-56064819D01*
X111080000Y-56064819D02*
X110841905Y-56064819D01*
X112365714Y-56064819D02*
X111794286Y-56064819D01*
X112080000Y-56064819D02*
X112080000Y-55064819D01*
X112080000Y-55064819D02*
X111984762Y-55207676D01*
X111984762Y-55207676D02*
X111889524Y-55302914D01*
X111889524Y-55302914D02*
X111794286Y-55350533D01*
X106238095Y-56434819D02*
X106238095Y-55434819D01*
X106809523Y-56434819D02*
X106380952Y-55863390D01*
X106809523Y-55434819D02*
X106238095Y-56006247D01*
X97238095Y-53794819D02*
X97238095Y-52794819D01*
X97238095Y-53271009D02*
X97809523Y-53271009D01*
X97809523Y-53794819D02*
X97809523Y-52794819D01*
X98809523Y-53794819D02*
X98238095Y-53794819D01*
X98523809Y-53794819D02*
X98523809Y-52794819D01*
X98523809Y-52794819D02*
X98428571Y-52937676D01*
X98428571Y-52937676D02*
X98333333Y-53032914D01*
X98333333Y-53032914D02*
X98238095Y-53080533D01*
X115354819Y-49704523D02*
X116069104Y-49704523D01*
X116069104Y-49704523D02*
X116211961Y-49752142D01*
X116211961Y-49752142D02*
X116307200Y-49847380D01*
X116307200Y-49847380D02*
X116354819Y-49990237D01*
X116354819Y-49990237D02*
X116354819Y-50085475D01*
X116354819Y-48704523D02*
X116354819Y-49275951D01*
X116354819Y-48990237D02*
X115354819Y-48990237D01*
X115354819Y-48990237D02*
X115497676Y-49085475D01*
X115497676Y-49085475D02*
X115592914Y-49180713D01*
X115592914Y-49180713D02*
X115640533Y-49275951D01*
X115450057Y-48323570D02*
X115402438Y-48275951D01*
X115402438Y-48275951D02*
X115354819Y-48180713D01*
X115354819Y-48180713D02*
X115354819Y-47942618D01*
X115354819Y-47942618D02*
X115402438Y-47847380D01*
X115402438Y-47847380D02*
X115450057Y-47799761D01*
X115450057Y-47799761D02*
X115545295Y-47752142D01*
X115545295Y-47752142D02*
X115640533Y-47752142D01*
X115640533Y-47752142D02*
X115783390Y-47799761D01*
X115783390Y-47799761D02*
X116354819Y-48371189D01*
X116354819Y-48371189D02*
X116354819Y-47752142D01*
X125666666Y-147654819D02*
X125666666Y-148369104D01*
X125666666Y-148369104D02*
X125619047Y-148511961D01*
X125619047Y-148511961D02*
X125523809Y-148607200D01*
X125523809Y-148607200D02*
X125380952Y-148654819D01*
X125380952Y-148654819D02*
X125285714Y-148654819D01*
X126285714Y-148083390D02*
X126190476Y-148035771D01*
X126190476Y-148035771D02*
X126142857Y-147988152D01*
X126142857Y-147988152D02*
X126095238Y-147892914D01*
X126095238Y-147892914D02*
X126095238Y-147845295D01*
X126095238Y-147845295D02*
X126142857Y-147750057D01*
X126142857Y-147750057D02*
X126190476Y-147702438D01*
X126190476Y-147702438D02*
X126285714Y-147654819D01*
X126285714Y-147654819D02*
X126476190Y-147654819D01*
X126476190Y-147654819D02*
X126571428Y-147702438D01*
X126571428Y-147702438D02*
X126619047Y-147750057D01*
X126619047Y-147750057D02*
X126666666Y-147845295D01*
X126666666Y-147845295D02*
X126666666Y-147892914D01*
X126666666Y-147892914D02*
X126619047Y-147988152D01*
X126619047Y-147988152D02*
X126571428Y-148035771D01*
X126571428Y-148035771D02*
X126476190Y-148083390D01*
X126476190Y-148083390D02*
X126285714Y-148083390D01*
X126285714Y-148083390D02*
X126190476Y-148131009D01*
X126190476Y-148131009D02*
X126142857Y-148178628D01*
X126142857Y-148178628D02*
X126095238Y-148273866D01*
X126095238Y-148273866D02*
X126095238Y-148464342D01*
X126095238Y-148464342D02*
X126142857Y-148559580D01*
X126142857Y-148559580D02*
X126190476Y-148607200D01*
X126190476Y-148607200D02*
X126285714Y-148654819D01*
X126285714Y-148654819D02*
X126476190Y-148654819D01*
X126476190Y-148654819D02*
X126571428Y-148607200D01*
X126571428Y-148607200D02*
X126619047Y-148559580D01*
X126619047Y-148559580D02*
X126666666Y-148464342D01*
X126666666Y-148464342D02*
X126666666Y-148273866D01*
X126666666Y-148273866D02*
X126619047Y-148178628D01*
X126619047Y-148178628D02*
X126571428Y-148131009D01*
X126571428Y-148131009D02*
X126476190Y-148083390D01*
X110841905Y-105064819D02*
X110841905Y-104064819D01*
X110841905Y-104064819D02*
X111080000Y-104064819D01*
X111080000Y-104064819D02*
X111222857Y-104112438D01*
X111222857Y-104112438D02*
X111318095Y-104207676D01*
X111318095Y-104207676D02*
X111365714Y-104302914D01*
X111365714Y-104302914D02*
X111413333Y-104493390D01*
X111413333Y-104493390D02*
X111413333Y-104636247D01*
X111413333Y-104636247D02*
X111365714Y-104826723D01*
X111365714Y-104826723D02*
X111318095Y-104921961D01*
X111318095Y-104921961D02*
X111222857Y-105017200D01*
X111222857Y-105017200D02*
X111080000Y-105064819D01*
X111080000Y-105064819D02*
X110841905Y-105064819D01*
X112318095Y-104064819D02*
X111841905Y-104064819D01*
X111841905Y-104064819D02*
X111794286Y-104541009D01*
X111794286Y-104541009D02*
X111841905Y-104493390D01*
X111841905Y-104493390D02*
X111937143Y-104445771D01*
X111937143Y-104445771D02*
X112175238Y-104445771D01*
X112175238Y-104445771D02*
X112270476Y-104493390D01*
X112270476Y-104493390D02*
X112318095Y-104541009D01*
X112318095Y-104541009D02*
X112365714Y-104636247D01*
X112365714Y-104636247D02*
X112365714Y-104874342D01*
X112365714Y-104874342D02*
X112318095Y-104969580D01*
X112318095Y-104969580D02*
X112270476Y-105017200D01*
X112270476Y-105017200D02*
X112175238Y-105064819D01*
X112175238Y-105064819D02*
X111937143Y-105064819D01*
X111937143Y-105064819D02*
X111841905Y-105017200D01*
X111841905Y-105017200D02*
X111794286Y-104969580D01*
X106238095Y-105434819D02*
X106238095Y-104434819D01*
X106809523Y-105434819D02*
X106380952Y-104863390D01*
X106809523Y-104434819D02*
X106238095Y-105006247D01*
X133924819Y-70818094D02*
X132924819Y-70818094D01*
X132924819Y-70818094D02*
X132924819Y-70579999D01*
X132924819Y-70579999D02*
X132972438Y-70437142D01*
X132972438Y-70437142D02*
X133067676Y-70341904D01*
X133067676Y-70341904D02*
X133162914Y-70294285D01*
X133162914Y-70294285D02*
X133353390Y-70246666D01*
X133353390Y-70246666D02*
X133496247Y-70246666D01*
X133496247Y-70246666D02*
X133686723Y-70294285D01*
X133686723Y-70294285D02*
X133781961Y-70341904D01*
X133781961Y-70341904D02*
X133877200Y-70437142D01*
X133877200Y-70437142D02*
X133924819Y-70579999D01*
X133924819Y-70579999D02*
X133924819Y-70818094D01*
X133020057Y-69865713D02*
X132972438Y-69818094D01*
X132972438Y-69818094D02*
X132924819Y-69722856D01*
X132924819Y-69722856D02*
X132924819Y-69484761D01*
X132924819Y-69484761D02*
X132972438Y-69389523D01*
X132972438Y-69389523D02*
X133020057Y-69341904D01*
X133020057Y-69341904D02*
X133115295Y-69294285D01*
X133115295Y-69294285D02*
X133210533Y-69294285D01*
X133210533Y-69294285D02*
X133353390Y-69341904D01*
X133353390Y-69341904D02*
X133924819Y-69913332D01*
X133924819Y-69913332D02*
X133924819Y-69294285D01*
X133554819Y-65261904D02*
X132554819Y-65261904D01*
X133554819Y-64690476D02*
X132983390Y-65119047D01*
X132554819Y-64690476D02*
X133126247Y-65261904D01*
X125666666Y-122639819D02*
X125666666Y-123354104D01*
X125666666Y-123354104D02*
X125619047Y-123496961D01*
X125619047Y-123496961D02*
X125523809Y-123592200D01*
X125523809Y-123592200D02*
X125380952Y-123639819D01*
X125380952Y-123639819D02*
X125285714Y-123639819D01*
X126571428Y-122639819D02*
X126380952Y-122639819D01*
X126380952Y-122639819D02*
X126285714Y-122687438D01*
X126285714Y-122687438D02*
X126238095Y-122735057D01*
X126238095Y-122735057D02*
X126142857Y-122877914D01*
X126142857Y-122877914D02*
X126095238Y-123068390D01*
X126095238Y-123068390D02*
X126095238Y-123449342D01*
X126095238Y-123449342D02*
X126142857Y-123544580D01*
X126142857Y-123544580D02*
X126190476Y-123592200D01*
X126190476Y-123592200D02*
X126285714Y-123639819D01*
X126285714Y-123639819D02*
X126476190Y-123639819D01*
X126476190Y-123639819D02*
X126571428Y-123592200D01*
X126571428Y-123592200D02*
X126619047Y-123544580D01*
X126619047Y-123544580D02*
X126666666Y-123449342D01*
X126666666Y-123449342D02*
X126666666Y-123211247D01*
X126666666Y-123211247D02*
X126619047Y-123116009D01*
X126619047Y-123116009D02*
X126571428Y-123068390D01*
X126571428Y-123068390D02*
X126476190Y-123020771D01*
X126476190Y-123020771D02*
X126285714Y-123020771D01*
X126285714Y-123020771D02*
X126190476Y-123068390D01*
X126190476Y-123068390D02*
X126142857Y-123116009D01*
X126142857Y-123116009D02*
X126095238Y-123211247D01*
D12*
%TO.C,D4*%
X130500000Y-90840000D02*
X130500000Y-91860000D01*
X131970000Y-91860000D02*
X129030000Y-91860000D01*
X129030000Y-91860000D02*
X129030000Y-97300000D01*
X131970000Y-92640000D02*
X129030000Y-92640000D01*
X131970000Y-92760000D02*
X129030000Y-92760000D01*
X131970000Y-92880000D02*
X129030000Y-92880000D01*
X131970000Y-97300000D02*
X131970000Y-91860000D01*
X129030000Y-97300000D02*
X131970000Y-97300000D01*
X130500000Y-98320000D02*
X130500000Y-97300000D01*
D13*
%TO.C,J1*%
X112122800Y-171657900D02*
X112122800Y-162920154D01*
X112122800Y-158754846D02*
X112122800Y-157002100D01*
X112122800Y-157002100D02*
X109441574Y-157002100D01*
X105558426Y-157002100D02*
X102877200Y-157002100D01*
X102877200Y-171657900D02*
X112122800Y-171657900D01*
X102877200Y-157002100D02*
X102877200Y-171657900D01*
D14*
%TO.C,U2*%
X100500000Y-103355000D02*
X117500000Y-103355000D01*
X119500000Y-101355000D02*
X119500000Y-87555000D01*
X97075970Y-98955000D02*
X97075970Y-89955000D01*
X104429270Y-98955000D02*
X97075970Y-98955000D01*
X97075970Y-89955000D02*
X104429270Y-89955000D01*
X104429270Y-89955000D02*
X104429270Y-98955000D01*
X98500910Y-87555000D02*
X98500910Y-101355000D01*
X117500000Y-85555000D02*
X100500000Y-85555000D01*
D12*
X98500001Y-101355000D02*
G75*
G03*
X100500000Y-103354999I2044611J44612D01*
G01*
X117500000Y-103354999D02*
G75*
G03*
X119499999Y-101355000I-44857J2044856D01*
G01*
X100500000Y-85555001D02*
G75*
G03*
X98500001Y-87555000I44610J-2044609D01*
G01*
X119500000Y-87555000D02*
G75*
G03*
X117500000Y-85555000I-2000000J0D01*
G01*
D15*
X100327000Y-105455000D02*
G75*
G03*
X100327000Y-105455000I-127000J0D01*
G01*
D16*
X100438295Y-103342715D02*
X100389527Y-103339667D01*
X100340506Y-103335603D01*
X100438295Y-103342715D01*
X117570850Y-85567287D02*
X117619618Y-85570335D01*
X117668639Y-85574399D01*
X117717407Y-85579732D01*
X117766175Y-85586336D01*
X117814690Y-85593956D01*
X117862950Y-85602847D01*
X117910955Y-85612752D01*
X117521574Y-85565508D01*
X117570850Y-85567287D01*
D12*
%TO.C,J5*%
X135670000Y-91850000D02*
X137000000Y-91850000D01*
X135670000Y-93180000D02*
X135670000Y-91850000D01*
X135670000Y-94450000D02*
X135670000Y-97050000D01*
X135670000Y-94450000D02*
X138330000Y-94450000D01*
X135670000Y-97050000D02*
X138330000Y-97050000D01*
X138330000Y-94450000D02*
X138330000Y-97050000D01*
D14*
%TO.C,U1*%
X100500000Y-78730000D02*
X117500000Y-78730000D01*
X119500000Y-76730000D02*
X119500000Y-62930000D01*
X97075970Y-74330000D02*
X97075970Y-65330000D01*
X104429270Y-74330000D02*
X97075970Y-74330000D01*
X97075970Y-65330000D02*
X104429270Y-65330000D01*
X104429270Y-65330000D02*
X104429270Y-74330000D01*
X98500910Y-62930000D02*
X98500910Y-76730000D01*
X117500000Y-60930000D02*
X100500000Y-60930000D01*
D12*
X98500001Y-76730000D02*
G75*
G03*
X100500000Y-78729999I2044611J44612D01*
G01*
X117500000Y-78729999D02*
G75*
G03*
X119499999Y-76730000I-44857J2044856D01*
G01*
X100500000Y-60930001D02*
G75*
G03*
X98500001Y-62930000I44610J-2044609D01*
G01*
X119500000Y-62930000D02*
G75*
G03*
X117500000Y-60930000I-2000000J0D01*
G01*
D15*
X100327000Y-80830000D02*
G75*
G03*
X100327000Y-80830000I-127000J0D01*
G01*
D16*
X100438295Y-78717715D02*
X100389527Y-78714667D01*
X100340506Y-78710603D01*
X100438295Y-78717715D01*
X117570850Y-60942287D02*
X117619618Y-60945335D01*
X117668639Y-60949399D01*
X117717407Y-60954732D01*
X117766175Y-60961336D01*
X117814690Y-60968956D01*
X117862950Y-60977847D01*
X117910955Y-60987752D01*
X117521574Y-60940508D01*
X117570850Y-60942287D01*
D12*
%TO.C,J10*%
X97630000Y-132910000D02*
X97630000Y-131580000D01*
X98960000Y-132910000D02*
X97630000Y-132910000D01*
X100230000Y-132910000D02*
X102830000Y-132910000D01*
X100230000Y-132910000D02*
X100230000Y-130250000D01*
X102830000Y-132910000D02*
X102830000Y-130250000D01*
X100230000Y-130250000D02*
X102830000Y-130250000D01*
%TO.C,J3*%
X127330000Y-73700000D02*
X126000000Y-73700000D01*
X127330000Y-72370000D02*
X127330000Y-73700000D01*
X127330000Y-71100000D02*
X127330000Y-65960000D01*
X127330000Y-71100000D02*
X124670000Y-71100000D01*
X127330000Y-65960000D02*
X124670000Y-65960000D01*
X124670000Y-71100000D02*
X124670000Y-65960000D01*
%TO.C,J16*%
X131410000Y-47565000D02*
X131410000Y-48895000D01*
X130080000Y-47565000D02*
X131410000Y-47565000D01*
X128810000Y-47565000D02*
X118590000Y-47565000D01*
X128810000Y-47565000D02*
X128810000Y-50225000D01*
X118590000Y-47565000D02*
X118590000Y-50225000D01*
X128810000Y-50225000D02*
X118590000Y-50225000D01*
%TO.C,J14*%
X97630000Y-108410000D02*
X97630000Y-107080000D01*
X98960000Y-108410000D02*
X97630000Y-108410000D01*
X100230000Y-108410000D02*
X102830000Y-108410000D01*
X100230000Y-108410000D02*
X100230000Y-105750000D01*
X102830000Y-108410000D02*
X102830000Y-105750000D01*
X100230000Y-105750000D02*
X102830000Y-105750000D01*
%TO.C,R2*%
X126620000Y-160830000D02*
X125850000Y-160830000D01*
X125850000Y-162200000D02*
X125850000Y-159460000D01*
X125850000Y-159460000D02*
X119310000Y-159460000D01*
X119310000Y-162200000D02*
X125850000Y-162200000D01*
X119310000Y-159460000D02*
X119310000Y-162200000D01*
X118540000Y-160830000D02*
X119310000Y-160830000D01*
%TO.C,D7*%
X107840000Y-131580000D02*
X108860000Y-131580000D01*
X108860000Y-130110000D02*
X108860000Y-133050000D01*
X108860000Y-133050000D02*
X114300000Y-133050000D01*
X109640000Y-130110000D02*
X109640000Y-133050000D01*
X109760000Y-130110000D02*
X109760000Y-133050000D01*
X109880000Y-130110000D02*
X109880000Y-133050000D01*
X114300000Y-130110000D02*
X108860000Y-130110000D01*
X114300000Y-133050000D02*
X114300000Y-130110000D01*
X115320000Y-131580000D02*
X114300000Y-131580000D01*
%TO.C,J2*%
X135670000Y-67225000D02*
X137000000Y-67225000D01*
X135670000Y-68555000D02*
X135670000Y-67225000D01*
X135670000Y-69825000D02*
X135670000Y-72425000D01*
X135670000Y-69825000D02*
X138330000Y-69825000D01*
X135670000Y-72425000D02*
X138330000Y-72425000D01*
X138330000Y-69825000D02*
X138330000Y-72425000D01*
%TO.C,D6*%
X130500000Y-114840000D02*
X130500000Y-115860000D01*
X131970000Y-115860000D02*
X129030000Y-115860000D01*
X129030000Y-115860000D02*
X129030000Y-121300000D01*
X131970000Y-116640000D02*
X129030000Y-116640000D01*
X131970000Y-116760000D02*
X129030000Y-116760000D01*
X131970000Y-116880000D02*
X129030000Y-116880000D01*
X131970000Y-121300000D02*
X131970000Y-115860000D01*
X129030000Y-121300000D02*
X131970000Y-121300000D01*
X130500000Y-122320000D02*
X130500000Y-121300000D01*
%TO.C,D8*%
X130500000Y-139840000D02*
X130500000Y-140860000D01*
X131970000Y-140860000D02*
X129030000Y-140860000D01*
X129030000Y-140860000D02*
X129030000Y-146300000D01*
X131970000Y-141640000D02*
X129030000Y-141640000D01*
X131970000Y-141760000D02*
X129030000Y-141760000D01*
X131970000Y-141880000D02*
X129030000Y-141880000D01*
X131970000Y-146300000D02*
X131970000Y-140860000D01*
X129030000Y-146300000D02*
X131970000Y-146300000D01*
X130500000Y-147320000D02*
X130500000Y-146300000D01*
%TO.C,J9*%
X136170000Y-140725000D02*
X137500000Y-140725000D01*
X136170000Y-142055000D02*
X136170000Y-140725000D01*
X136170000Y-143325000D02*
X136170000Y-145925000D01*
X136170000Y-143325000D02*
X138830000Y-143325000D01*
X136170000Y-145925000D02*
X138830000Y-145925000D01*
X138830000Y-143325000D02*
X138830000Y-145925000D01*
%TO.C,J11*%
X128910000Y-165960000D02*
X128910000Y-167290000D01*
X127580000Y-165960000D02*
X128910000Y-165960000D01*
X126310000Y-165960000D02*
X116090000Y-165960000D01*
X126310000Y-165960000D02*
X126310000Y-168560000D01*
X116090000Y-165960000D02*
X116090000Y-171160000D01*
X128910000Y-168560000D02*
X128910000Y-171160000D01*
X126310000Y-168560000D02*
X128910000Y-168560000D01*
X128910000Y-171160000D02*
X116090000Y-171160000D01*
%TO.C,J15*%
X98130000Y-59410000D02*
X98130000Y-58080000D01*
X99460000Y-59410000D02*
X98130000Y-59410000D01*
X100730000Y-59410000D02*
X103330000Y-59410000D01*
X100730000Y-59410000D02*
X100730000Y-56750000D01*
X103330000Y-59410000D02*
X103330000Y-56750000D01*
X100730000Y-56750000D02*
X103330000Y-56750000D01*
%TO.C,J13*%
X98130000Y-83910000D02*
X98130000Y-82580000D01*
X99460000Y-83910000D02*
X98130000Y-83910000D01*
X100730000Y-83910000D02*
X103330000Y-83910000D01*
X100730000Y-83910000D02*
X100730000Y-81250000D01*
X103330000Y-83910000D02*
X103330000Y-81250000D01*
X100730000Y-81250000D02*
X103330000Y-81250000D01*
%TO.C,J4*%
X127330000Y-98285000D02*
X126000000Y-98285000D01*
X127330000Y-96955000D02*
X127330000Y-98285000D01*
X127330000Y-95685000D02*
X127330000Y-90545000D01*
X127330000Y-95685000D02*
X124670000Y-95685000D01*
X127330000Y-90545000D02*
X124670000Y-90545000D01*
X124670000Y-95685000D02*
X124670000Y-90545000D01*
D14*
%TO.C,U4*%
X100500000Y-152105000D02*
X117500000Y-152105000D01*
X119500000Y-150105000D02*
X119500000Y-136305000D01*
X97075970Y-147705000D02*
X97075970Y-138705000D01*
X104429270Y-147705000D02*
X97075970Y-147705000D01*
X97075970Y-138705000D02*
X104429270Y-138705000D01*
X104429270Y-138705000D02*
X104429270Y-147705000D01*
X98500910Y-136305000D02*
X98500910Y-150105000D01*
X117500000Y-134305000D02*
X100500000Y-134305000D01*
D12*
X98500001Y-150105000D02*
G75*
G03*
X100500000Y-152104999I2044611J44612D01*
G01*
X117500000Y-152104999D02*
G75*
G03*
X119499999Y-150105000I-44857J2044856D01*
G01*
X100500000Y-134305001D02*
G75*
G03*
X98500001Y-136305000I44610J-2044609D01*
G01*
X119500000Y-136305000D02*
G75*
G03*
X117500000Y-134305000I-2000000J0D01*
G01*
D15*
X100327000Y-154205000D02*
G75*
G03*
X100327000Y-154205000I-127000J0D01*
G01*
D16*
X100438295Y-152092715D02*
X100389527Y-152089667D01*
X100340506Y-152085603D01*
X100438295Y-152092715D01*
X117570850Y-134317287D02*
X117619618Y-134320335D01*
X117668639Y-134324399D01*
X117717407Y-134329732D01*
X117766175Y-134336336D01*
X117814690Y-134343956D01*
X117862950Y-134352847D01*
X117910955Y-134362752D01*
X117521574Y-134315508D01*
X117570850Y-134317287D01*
D12*
%TO.C,D3*%
X107840000Y-82580000D02*
X108860000Y-82580000D01*
X108860000Y-81110000D02*
X108860000Y-84050000D01*
X108860000Y-84050000D02*
X114300000Y-84050000D01*
X109640000Y-81110000D02*
X109640000Y-84050000D01*
X109760000Y-81110000D02*
X109760000Y-84050000D01*
X109880000Y-81110000D02*
X109880000Y-84050000D01*
X114300000Y-81110000D02*
X108860000Y-81110000D01*
X114300000Y-84050000D02*
X114300000Y-81110000D01*
X115320000Y-82580000D02*
X114300000Y-82580000D01*
%TO.C,R1*%
X126540000Y-155830000D02*
X125770000Y-155830000D01*
X125770000Y-157200000D02*
X125770000Y-154460000D01*
X125770000Y-154460000D02*
X119230000Y-154460000D01*
X119230000Y-157200000D02*
X125770000Y-157200000D01*
X119230000Y-154460000D02*
X119230000Y-157200000D01*
X118460000Y-155830000D02*
X119230000Y-155830000D01*
%TO.C,J7*%
X135670000Y-115725000D02*
X137000000Y-115725000D01*
X135670000Y-117055000D02*
X135670000Y-115725000D01*
X135670000Y-118325000D02*
X135670000Y-120925000D01*
X135670000Y-118325000D02*
X138330000Y-118325000D01*
X135670000Y-120925000D02*
X138330000Y-120925000D01*
X138330000Y-118325000D02*
X138330000Y-120925000D01*
D14*
%TO.C,U3*%
X100500000Y-127730000D02*
X117500000Y-127730000D01*
X119500000Y-125730000D02*
X119500000Y-111930000D01*
X97075970Y-123330000D02*
X97075970Y-114330000D01*
X104429270Y-123330000D02*
X97075970Y-123330000D01*
X97075970Y-114330000D02*
X104429270Y-114330000D01*
X104429270Y-114330000D02*
X104429270Y-123330000D01*
X98500910Y-111930000D02*
X98500910Y-125730000D01*
X117500000Y-109930000D02*
X100500000Y-109930000D01*
D12*
X98500001Y-125730000D02*
G75*
G03*
X100500000Y-127729999I2044611J44612D01*
G01*
X117500000Y-127729999D02*
G75*
G03*
X119499999Y-125730000I-44857J2044856D01*
G01*
X100500000Y-109930001D02*
G75*
G03*
X98500001Y-111930000I44610J-2044609D01*
G01*
X119500000Y-111930000D02*
G75*
G03*
X117500000Y-109930000I-2000000J0D01*
G01*
D15*
X100327000Y-129830000D02*
G75*
G03*
X100327000Y-129830000I-127000J0D01*
G01*
D16*
X100438295Y-127717715D02*
X100389527Y-127714667D01*
X100340506Y-127710603D01*
X100438295Y-127717715D01*
X117570850Y-109942287D02*
X117619618Y-109945335D01*
X117668639Y-109949399D01*
X117717407Y-109954732D01*
X117766175Y-109961336D01*
X117814690Y-109968956D01*
X117862950Y-109977847D01*
X117910955Y-109987752D01*
X117521574Y-109940508D01*
X117570850Y-109942287D01*
D12*
%TO.C,D1*%
X107840000Y-58080000D02*
X108860000Y-58080000D01*
X108860000Y-56610000D02*
X108860000Y-59550000D01*
X108860000Y-59550000D02*
X114300000Y-59550000D01*
X109640000Y-56610000D02*
X109640000Y-59550000D01*
X109760000Y-56610000D02*
X109760000Y-59550000D01*
X109880000Y-56610000D02*
X109880000Y-59550000D01*
X114300000Y-56610000D02*
X108860000Y-56610000D01*
X114300000Y-59550000D02*
X114300000Y-56610000D01*
X115320000Y-58080000D02*
X114300000Y-58080000D01*
%TO.C,J12*%
X114900000Y-47565000D02*
X114900000Y-48895000D01*
X113570000Y-47565000D02*
X114900000Y-47565000D01*
X112300000Y-47565000D02*
X102080000Y-47565000D01*
X112300000Y-47565000D02*
X112300000Y-50225000D01*
X102080000Y-47565000D02*
X102080000Y-50225000D01*
X112300000Y-50225000D02*
X102080000Y-50225000D01*
%TO.C,J8*%
X127330000Y-147200000D02*
X126000000Y-147200000D01*
X127330000Y-145870000D02*
X127330000Y-147200000D01*
X127330000Y-144600000D02*
X127330000Y-139460000D01*
X127330000Y-144600000D02*
X124670000Y-144600000D01*
X127330000Y-139460000D02*
X124670000Y-139460000D01*
X124670000Y-144600000D02*
X124670000Y-139460000D01*
%TO.C,D5*%
X107840000Y-107080000D02*
X108860000Y-107080000D01*
X108860000Y-105610000D02*
X108860000Y-108550000D01*
X108860000Y-108550000D02*
X114300000Y-108550000D01*
X109640000Y-105610000D02*
X109640000Y-108550000D01*
X109760000Y-105610000D02*
X109760000Y-108550000D01*
X109880000Y-105610000D02*
X109880000Y-108550000D01*
X114300000Y-105610000D02*
X108860000Y-105610000D01*
X114300000Y-108550000D02*
X114300000Y-105610000D01*
X115320000Y-107080000D02*
X114300000Y-107080000D01*
%TO.C,D2*%
X131000000Y-66340000D02*
X131000000Y-67360000D01*
X132470000Y-67360000D02*
X129530000Y-67360000D01*
X129530000Y-67360000D02*
X129530000Y-72800000D01*
X132470000Y-68140000D02*
X129530000Y-68140000D01*
X132470000Y-68260000D02*
X129530000Y-68260000D01*
X132470000Y-68380000D02*
X129530000Y-68380000D01*
X132470000Y-72800000D02*
X132470000Y-67360000D01*
X129530000Y-72800000D02*
X132470000Y-72800000D01*
X131000000Y-73820000D02*
X131000000Y-72800000D01*
%TO.C,J6*%
X127330000Y-122185000D02*
X126000000Y-122185000D01*
X127330000Y-120855000D02*
X127330000Y-122185000D01*
X127330000Y-119585000D02*
X127330000Y-114445000D01*
X127330000Y-119585000D02*
X124670000Y-119585000D01*
X127330000Y-114445000D02*
X124670000Y-114445000D01*
X124670000Y-119585000D02*
X124670000Y-114445000D01*
%TD*%
M02*
