%TF.GenerationSoftware,KiCad,Pcbnew,7.0.9*%
%TF.CreationDate,2024-09-19T11:25:21-04:00*%
%TF.ProjectId,Module_PCB,4d6f6475-6c65-45f5-9043-422e6b696361,rev?*%
%TF.SameCoordinates,Original*%
%TF.FileFunction,Soldermask,Top*%
%TF.FilePolarity,Negative*%
%FSLAX46Y46*%
G04 Gerber Fmt 4.6, Leading zero omitted, Abs format (unit mm)*
G04 Created by KiCad (PCBNEW 7.0.9) date 2024-09-19 11:25:21*
%MOMM*%
%LPD*%
G01*
G04 APERTURE LIST*
G04 Aperture macros list*
%AMRoundRect*
0 Rectangle with rounded corners*
0 $1 Rounding radius*
0 $2 $3 $4 $5 $6 $7 $8 $9 X,Y pos of 4 corners*
0 Add a 4 corners polygon primitive as box body*
4,1,4,$2,$3,$4,$5,$6,$7,$8,$9,$2,$3,0*
0 Add four circle primitives for the rounded corners*
1,1,$1+$1,$2,$3*
1,1,$1+$1,$4,$5*
1,1,$1+$1,$6,$7*
1,1,$1+$1,$8,$9*
0 Add four rect primitives between the rounded corners*
20,1,$1+$1,$2,$3,$4,$5,0*
20,1,$1+$1,$4,$5,$6,$7,0*
20,1,$1+$1,$6,$7,$8,$9,0*
20,1,$1+$1,$8,$9,$2,$3,0*%
G04 Aperture macros list end*
%ADD10R,2.200000X2.200000*%
%ADD11O,2.200000X2.200000*%
%ADD12RoundRect,0.102000X-1.000000X0.500000X-1.000000X-0.500000X1.000000X-0.500000X1.000000X0.500000X0*%
%ADD13C,2.200000*%
%ADD14R,1.500000X1.500000*%
%ADD15C,1.500000*%
%ADD16R,1.700000X1.700000*%
%ADD17O,1.700000X1.700000*%
%ADD18R,1.460500X0.558800*%
%ADD19C,1.700000*%
%ADD20RoundRect,0.102000X1.250000X-0.500000X1.250000X0.500000X-1.250000X0.500000X-1.250000X-0.500000X0*%
G04 APERTURE END LIST*
D10*
%TO.C,D1*%
X15080000Y-40750000D03*
D11*
X4920000Y-40750000D03*
%TD*%
D12*
%TO.C,J1*%
X8475000Y-24650000D03*
X8475000Y-27190000D03*
X8475000Y-29730000D03*
X8475000Y-32270000D03*
X8475000Y-34810000D03*
X8475000Y-37350000D03*
%TD*%
D13*
%TO.C,H3*%
X2000000Y-53000000D03*
%TD*%
D14*
%TO.C,Q1*%
X1170000Y-45750000D03*
D15*
X3710000Y-45750000D03*
X6250000Y-45750000D03*
%TD*%
D13*
%TO.C,H2*%
X18000000Y-53000000D03*
%TD*%
D16*
%TO.C,J3*%
X8725000Y-53250000D03*
D17*
X11265000Y-53250000D03*
%TD*%
D18*
%TO.C,U2*%
X12025850Y-43345000D03*
X12025850Y-44615000D03*
X12025850Y-45885000D03*
X12025850Y-47155000D03*
X17474150Y-47155000D03*
X17474150Y-45885000D03*
X17474150Y-44615000D03*
X17474150Y-43345000D03*
%TD*%
D13*
%TO.C,H1*%
X10000000Y-2000000D03*
%TD*%
D10*
%TO.C,D2*%
X15080000Y-49750000D03*
D11*
X4920000Y-49750000D03*
%TD*%
D16*
%TO.C,U1*%
X2375000Y-4380000D03*
D19*
X2375000Y-6920000D03*
X2375000Y-9460000D03*
X2375000Y-12000000D03*
X2375000Y-14540000D03*
X2375000Y-17080000D03*
X2375000Y-19620000D03*
X17625000Y-19620000D03*
X17625000Y-17080000D03*
X17625000Y-14540000D03*
X17625000Y-12000000D03*
X17625000Y-9460000D03*
X17625000Y-6920000D03*
X17625000Y-4380000D03*
%TD*%
D20*
%TO.C,J2*%
X4850000Y-37350000D03*
X4850000Y-34810000D03*
X4850000Y-32270000D03*
X4850000Y-29730000D03*
X4850000Y-27190000D03*
X4850000Y-24650000D03*
%TD*%
M02*
