%TF.GenerationSoftware,KiCad,Pcbnew,7.0.9*%
%TF.CreationDate,2024-09-19T11:25:21-04:00*%
%TF.ProjectId,Module_PCB,4d6f6475-6c65-45f5-9043-422e6b696361,rev?*%
%TF.SameCoordinates,Original*%
%TF.FileFunction,Legend,Bot*%
%TF.FilePolarity,Positive*%
%FSLAX46Y46*%
G04 Gerber Fmt 4.6, Leading zero omitted, Abs format (unit mm)*
G04 Created by KiCad (PCBNEW 7.0.9) date 2024-09-19 11:25:21*
%MOMM*%
%LPD*%
G01*
G04 APERTURE LIST*
%ADD10C,0.150000*%
G04 APERTURE END LIST*
D10*
X10666895Y-50591792D02*
X11966895Y-50591792D01*
X11966895Y-50591792D02*
X11966895Y-50096554D01*
X11966895Y-50096554D02*
X11904990Y-49972744D01*
X11904990Y-49972744D02*
X11843085Y-49910839D01*
X11843085Y-49910839D02*
X11719276Y-49848935D01*
X11719276Y-49848935D02*
X11533561Y-49848935D01*
X11533561Y-49848935D02*
X11409752Y-49910839D01*
X11409752Y-49910839D02*
X11347847Y-49972744D01*
X11347847Y-49972744D02*
X11285942Y-50096554D01*
X11285942Y-50096554D02*
X11285942Y-50591792D01*
X11533561Y-49291792D02*
X10666895Y-49291792D01*
X11409752Y-49291792D02*
X11471657Y-49229887D01*
X11471657Y-49229887D02*
X11533561Y-49106077D01*
X11533561Y-49106077D02*
X11533561Y-48920363D01*
X11533561Y-48920363D02*
X11471657Y-48796554D01*
X11471657Y-48796554D02*
X11347847Y-48734649D01*
X11347847Y-48734649D02*
X10666895Y-48734649D01*
X10728800Y-47620364D02*
X10666895Y-47744173D01*
X10666895Y-47744173D02*
X10666895Y-47991792D01*
X10666895Y-47991792D02*
X10728800Y-48115602D01*
X10728800Y-48115602D02*
X10852609Y-48177506D01*
X10852609Y-48177506D02*
X11347847Y-48177506D01*
X11347847Y-48177506D02*
X11471657Y-48115602D01*
X11471657Y-48115602D02*
X11533561Y-47991792D01*
X11533561Y-47991792D02*
X11533561Y-47744173D01*
X11533561Y-47744173D02*
X11471657Y-47620364D01*
X11471657Y-47620364D02*
X11347847Y-47558459D01*
X11347847Y-47558459D02*
X11224038Y-47558459D01*
X11224038Y-47558459D02*
X11100228Y-48177506D01*
X11533561Y-46444173D02*
X10666895Y-46444173D01*
X11533561Y-47001316D02*
X10852609Y-47001316D01*
X10852609Y-47001316D02*
X10728800Y-46939411D01*
X10728800Y-46939411D02*
X10666895Y-46815601D01*
X10666895Y-46815601D02*
X10666895Y-46629887D01*
X10666895Y-46629887D02*
X10728800Y-46506078D01*
X10728800Y-46506078D02*
X10790704Y-46444173D01*
X10666895Y-45825126D02*
X11533561Y-45825126D01*
X11409752Y-45825126D02*
X11471657Y-45763221D01*
X11471657Y-45763221D02*
X11533561Y-45639411D01*
X11533561Y-45639411D02*
X11533561Y-45453697D01*
X11533561Y-45453697D02*
X11471657Y-45329888D01*
X11471657Y-45329888D02*
X11347847Y-45267983D01*
X11347847Y-45267983D02*
X10666895Y-45267983D01*
X11347847Y-45267983D02*
X11471657Y-45206078D01*
X11471657Y-45206078D02*
X11533561Y-45082269D01*
X11533561Y-45082269D02*
X11533561Y-44896554D01*
X11533561Y-44896554D02*
X11471657Y-44772745D01*
X11471657Y-44772745D02*
X11347847Y-44710840D01*
X11347847Y-44710840D02*
X10666895Y-44710840D01*
X10666895Y-43534650D02*
X11347847Y-43534650D01*
X11347847Y-43534650D02*
X11471657Y-43596555D01*
X11471657Y-43596555D02*
X11533561Y-43720364D01*
X11533561Y-43720364D02*
X11533561Y-43967983D01*
X11533561Y-43967983D02*
X11471657Y-44091793D01*
X10728800Y-43534650D02*
X10666895Y-43658459D01*
X10666895Y-43658459D02*
X10666895Y-43967983D01*
X10666895Y-43967983D02*
X10728800Y-44091793D01*
X10728800Y-44091793D02*
X10852609Y-44153697D01*
X10852609Y-44153697D02*
X10976419Y-44153697D01*
X10976419Y-44153697D02*
X11100228Y-44091793D01*
X11100228Y-44091793D02*
X11162133Y-43967983D01*
X11162133Y-43967983D02*
X11162133Y-43658459D01*
X11162133Y-43658459D02*
X11224038Y-43534650D01*
X11533561Y-43101317D02*
X11533561Y-42606079D01*
X11966895Y-42915603D02*
X10852609Y-42915603D01*
X10852609Y-42915603D02*
X10728800Y-42853698D01*
X10728800Y-42853698D02*
X10666895Y-42729888D01*
X10666895Y-42729888D02*
X10666895Y-42606079D01*
X10666895Y-41615603D02*
X11347847Y-41615603D01*
X11347847Y-41615603D02*
X11471657Y-41677508D01*
X11471657Y-41677508D02*
X11533561Y-41801317D01*
X11533561Y-41801317D02*
X11533561Y-42048936D01*
X11533561Y-42048936D02*
X11471657Y-42172746D01*
X10728800Y-41615603D02*
X10666895Y-41739412D01*
X10666895Y-41739412D02*
X10666895Y-42048936D01*
X10666895Y-42048936D02*
X10728800Y-42172746D01*
X10728800Y-42172746D02*
X10852609Y-42234650D01*
X10852609Y-42234650D02*
X10976419Y-42234650D01*
X10976419Y-42234650D02*
X11100228Y-42172746D01*
X11100228Y-42172746D02*
X11162133Y-42048936D01*
X11162133Y-42048936D02*
X11162133Y-41739412D01*
X11162133Y-41739412D02*
X11224038Y-41615603D01*
X10728800Y-40439413D02*
X10666895Y-40563222D01*
X10666895Y-40563222D02*
X10666895Y-40810841D01*
X10666895Y-40810841D02*
X10728800Y-40934651D01*
X10728800Y-40934651D02*
X10790704Y-40996556D01*
X10790704Y-40996556D02*
X10914514Y-41058460D01*
X10914514Y-41058460D02*
X11285942Y-41058460D01*
X11285942Y-41058460D02*
X11409752Y-40996556D01*
X11409752Y-40996556D02*
X11471657Y-40934651D01*
X11471657Y-40934651D02*
X11533561Y-40810841D01*
X11533561Y-40810841D02*
X11533561Y-40563222D01*
X11533561Y-40563222D02*
X11471657Y-40439413D01*
X11533561Y-40067984D02*
X11533561Y-39572746D01*
X11966895Y-39882270D02*
X10852609Y-39882270D01*
X10852609Y-39882270D02*
X10728800Y-39820365D01*
X10728800Y-39820365D02*
X10666895Y-39696555D01*
X10666895Y-39696555D02*
X10666895Y-39572746D01*
X10666895Y-38953698D02*
X10728800Y-39077508D01*
X10728800Y-39077508D02*
X10790704Y-39139413D01*
X10790704Y-39139413D02*
X10914514Y-39201317D01*
X10914514Y-39201317D02*
X11285942Y-39201317D01*
X11285942Y-39201317D02*
X11409752Y-39139413D01*
X11409752Y-39139413D02*
X11471657Y-39077508D01*
X11471657Y-39077508D02*
X11533561Y-38953698D01*
X11533561Y-38953698D02*
X11533561Y-38767984D01*
X11533561Y-38767984D02*
X11471657Y-38644175D01*
X11471657Y-38644175D02*
X11409752Y-38582270D01*
X11409752Y-38582270D02*
X11285942Y-38520365D01*
X11285942Y-38520365D02*
X10914514Y-38520365D01*
X10914514Y-38520365D02*
X10790704Y-38582270D01*
X10790704Y-38582270D02*
X10728800Y-38644175D01*
X10728800Y-38644175D02*
X10666895Y-38767984D01*
X10666895Y-38767984D02*
X10666895Y-38953698D01*
X10666895Y-37963223D02*
X11533561Y-37963223D01*
X11285942Y-37963223D02*
X11409752Y-37901318D01*
X11409752Y-37901318D02*
X11471657Y-37839413D01*
X11471657Y-37839413D02*
X11533561Y-37715604D01*
X11533561Y-37715604D02*
X11533561Y-37591794D01*
X11966895Y-36353699D02*
X10666895Y-35920366D01*
X10666895Y-35920366D02*
X11966895Y-35487032D01*
X10666895Y-34496556D02*
X11347847Y-34496556D01*
X11347847Y-34496556D02*
X11471657Y-34558461D01*
X11471657Y-34558461D02*
X11533561Y-34682270D01*
X11533561Y-34682270D02*
X11533561Y-34929889D01*
X11533561Y-34929889D02*
X11471657Y-35053699D01*
X10728800Y-34496556D02*
X10666895Y-34620365D01*
X10666895Y-34620365D02*
X10666895Y-34929889D01*
X10666895Y-34929889D02*
X10728800Y-35053699D01*
X10728800Y-35053699D02*
X10852609Y-35115603D01*
X10852609Y-35115603D02*
X10976419Y-35115603D01*
X10976419Y-35115603D02*
X11100228Y-35053699D01*
X11100228Y-35053699D02*
X11162133Y-34929889D01*
X11162133Y-34929889D02*
X11162133Y-34620365D01*
X11162133Y-34620365D02*
X11224038Y-34496556D01*
X10666895Y-33691794D02*
X10728800Y-33815604D01*
X10728800Y-33815604D02*
X10852609Y-33877509D01*
X10852609Y-33877509D02*
X11966895Y-33877509D01*
X11533561Y-33320366D02*
X10666895Y-33010842D01*
X10666895Y-33010842D02*
X11533561Y-32701319D01*
X10728800Y-31710843D02*
X10666895Y-31834652D01*
X10666895Y-31834652D02*
X10666895Y-32082271D01*
X10666895Y-32082271D02*
X10728800Y-32206081D01*
X10728800Y-32206081D02*
X10852609Y-32267985D01*
X10852609Y-32267985D02*
X11347847Y-32267985D01*
X11347847Y-32267985D02*
X11471657Y-32206081D01*
X11471657Y-32206081D02*
X11533561Y-32082271D01*
X11533561Y-32082271D02*
X11533561Y-31834652D01*
X11533561Y-31834652D02*
X11471657Y-31710843D01*
X11471657Y-31710843D02*
X11347847Y-31648938D01*
X11347847Y-31648938D02*
X11224038Y-31648938D01*
X11224038Y-31648938D02*
X11100228Y-32267985D01*
X11038323Y-30163223D02*
X11038323Y-29544176D01*
X10666895Y-30287033D02*
X11966895Y-29853700D01*
X11966895Y-29853700D02*
X10666895Y-29420366D01*
X10728800Y-28429890D02*
X10666895Y-28553699D01*
X10666895Y-28553699D02*
X10666895Y-28801318D01*
X10666895Y-28801318D02*
X10728800Y-28925128D01*
X10728800Y-28925128D02*
X10790704Y-28987033D01*
X10790704Y-28987033D02*
X10914514Y-29048937D01*
X10914514Y-29048937D02*
X11285942Y-29048937D01*
X11285942Y-29048937D02*
X11409752Y-28987033D01*
X11409752Y-28987033D02*
X11471657Y-28925128D01*
X11471657Y-28925128D02*
X11533561Y-28801318D01*
X11533561Y-28801318D02*
X11533561Y-28553699D01*
X11533561Y-28553699D02*
X11471657Y-28429890D01*
X11533561Y-28058461D02*
X11533561Y-27563223D01*
X11966895Y-27872747D02*
X10852609Y-27872747D01*
X10852609Y-27872747D02*
X10728800Y-27810842D01*
X10728800Y-27810842D02*
X10666895Y-27687032D01*
X10666895Y-27687032D02*
X10666895Y-27563223D01*
X11533561Y-26572747D02*
X10666895Y-26572747D01*
X11533561Y-27129890D02*
X10852609Y-27129890D01*
X10852609Y-27129890D02*
X10728800Y-27067985D01*
X10728800Y-27067985D02*
X10666895Y-26944175D01*
X10666895Y-26944175D02*
X10666895Y-26758461D01*
X10666895Y-26758461D02*
X10728800Y-26634652D01*
X10728800Y-26634652D02*
X10790704Y-26572747D01*
X10666895Y-25396557D02*
X11347847Y-25396557D01*
X11347847Y-25396557D02*
X11471657Y-25458462D01*
X11471657Y-25458462D02*
X11533561Y-25582271D01*
X11533561Y-25582271D02*
X11533561Y-25829890D01*
X11533561Y-25829890D02*
X11471657Y-25953700D01*
X10728800Y-25396557D02*
X10666895Y-25520366D01*
X10666895Y-25520366D02*
X10666895Y-25829890D01*
X10666895Y-25829890D02*
X10728800Y-25953700D01*
X10728800Y-25953700D02*
X10852609Y-26015604D01*
X10852609Y-26015604D02*
X10976419Y-26015604D01*
X10976419Y-26015604D02*
X11100228Y-25953700D01*
X11100228Y-25953700D02*
X11162133Y-25829890D01*
X11162133Y-25829890D02*
X11162133Y-25520366D01*
X11162133Y-25520366D02*
X11224038Y-25396557D01*
X11533561Y-24963224D02*
X11533561Y-24467986D01*
X11966895Y-24777510D02*
X10852609Y-24777510D01*
X10852609Y-24777510D02*
X10728800Y-24715605D01*
X10728800Y-24715605D02*
X10666895Y-24591795D01*
X10666895Y-24591795D02*
X10666895Y-24467986D01*
X10666895Y-23848938D02*
X10728800Y-23972748D01*
X10728800Y-23972748D02*
X10790704Y-24034653D01*
X10790704Y-24034653D02*
X10914514Y-24096557D01*
X10914514Y-24096557D02*
X11285942Y-24096557D01*
X11285942Y-24096557D02*
X11409752Y-24034653D01*
X11409752Y-24034653D02*
X11471657Y-23972748D01*
X11471657Y-23972748D02*
X11533561Y-23848938D01*
X11533561Y-23848938D02*
X11533561Y-23663224D01*
X11533561Y-23663224D02*
X11471657Y-23539415D01*
X11471657Y-23539415D02*
X11409752Y-23477510D01*
X11409752Y-23477510D02*
X11285942Y-23415605D01*
X11285942Y-23415605D02*
X10914514Y-23415605D01*
X10914514Y-23415605D02*
X10790704Y-23477510D01*
X10790704Y-23477510D02*
X10728800Y-23539415D01*
X10728800Y-23539415D02*
X10666895Y-23663224D01*
X10666895Y-23663224D02*
X10666895Y-23848938D01*
X10666895Y-22858463D02*
X11533561Y-22858463D01*
X11285942Y-22858463D02*
X11409752Y-22796558D01*
X11409752Y-22796558D02*
X11471657Y-22734653D01*
X11471657Y-22734653D02*
X11533561Y-22610844D01*
X11533561Y-22610844D02*
X11533561Y-22487034D01*
X10666895Y-21063225D02*
X11966895Y-21063225D01*
X11966895Y-21063225D02*
X11038323Y-20629891D01*
X11038323Y-20629891D02*
X11966895Y-20196558D01*
X11966895Y-20196558D02*
X10666895Y-20196558D01*
X10666895Y-19391796D02*
X10728800Y-19515606D01*
X10728800Y-19515606D02*
X10790704Y-19577511D01*
X10790704Y-19577511D02*
X10914514Y-19639415D01*
X10914514Y-19639415D02*
X11285942Y-19639415D01*
X11285942Y-19639415D02*
X11409752Y-19577511D01*
X11409752Y-19577511D02*
X11471657Y-19515606D01*
X11471657Y-19515606D02*
X11533561Y-19391796D01*
X11533561Y-19391796D02*
X11533561Y-19206082D01*
X11533561Y-19206082D02*
X11471657Y-19082273D01*
X11471657Y-19082273D02*
X11409752Y-19020368D01*
X11409752Y-19020368D02*
X11285942Y-18958463D01*
X11285942Y-18958463D02*
X10914514Y-18958463D01*
X10914514Y-18958463D02*
X10790704Y-19020368D01*
X10790704Y-19020368D02*
X10728800Y-19082273D01*
X10728800Y-19082273D02*
X10666895Y-19206082D01*
X10666895Y-19206082D02*
X10666895Y-19391796D01*
X10666895Y-17844178D02*
X11966895Y-17844178D01*
X10728800Y-17844178D02*
X10666895Y-17967987D01*
X10666895Y-17967987D02*
X10666895Y-18215606D01*
X10666895Y-18215606D02*
X10728800Y-18339416D01*
X10728800Y-18339416D02*
X10790704Y-18401321D01*
X10790704Y-18401321D02*
X10914514Y-18463225D01*
X10914514Y-18463225D02*
X11285942Y-18463225D01*
X11285942Y-18463225D02*
X11409752Y-18401321D01*
X11409752Y-18401321D02*
X11471657Y-18339416D01*
X11471657Y-18339416D02*
X11533561Y-18215606D01*
X11533561Y-18215606D02*
X11533561Y-17967987D01*
X11533561Y-17967987D02*
X11471657Y-17844178D01*
X11533561Y-16667988D02*
X10666895Y-16667988D01*
X11533561Y-17225131D02*
X10852609Y-17225131D01*
X10852609Y-17225131D02*
X10728800Y-17163226D01*
X10728800Y-17163226D02*
X10666895Y-17039416D01*
X10666895Y-17039416D02*
X10666895Y-16853702D01*
X10666895Y-16853702D02*
X10728800Y-16729893D01*
X10728800Y-16729893D02*
X10790704Y-16667988D01*
X10666895Y-15863226D02*
X10728800Y-15987036D01*
X10728800Y-15987036D02*
X10852609Y-16048941D01*
X10852609Y-16048941D02*
X11966895Y-16048941D01*
X10728800Y-14872751D02*
X10666895Y-14996560D01*
X10666895Y-14996560D02*
X10666895Y-15244179D01*
X10666895Y-15244179D02*
X10728800Y-15367989D01*
X10728800Y-15367989D02*
X10852609Y-15429893D01*
X10852609Y-15429893D02*
X11347847Y-15429893D01*
X11347847Y-15429893D02*
X11471657Y-15367989D01*
X11471657Y-15367989D02*
X11533561Y-15244179D01*
X11533561Y-15244179D02*
X11533561Y-14996560D01*
X11533561Y-14996560D02*
X11471657Y-14872751D01*
X11471657Y-14872751D02*
X11347847Y-14810846D01*
X11347847Y-14810846D02*
X11224038Y-14810846D01*
X11224038Y-14810846D02*
X11100228Y-15429893D01*
X8892085Y-49853696D02*
X8939704Y-49948935D01*
X8939704Y-49948935D02*
X8939704Y-50139411D01*
X8939704Y-50139411D02*
X8892085Y-50234649D01*
X8892085Y-50234649D02*
X8796847Y-50329887D01*
X8796847Y-50329887D02*
X8701609Y-50377506D01*
X8701609Y-50377506D02*
X8511133Y-50377506D01*
X8511133Y-50377506D02*
X8415895Y-50329887D01*
X8415895Y-50329887D02*
X8320657Y-50234649D01*
X8320657Y-50234649D02*
X8273038Y-50139411D01*
X8273038Y-50139411D02*
X8273038Y-49948935D01*
X8273038Y-49948935D02*
X8320657Y-49853696D01*
X9273038Y-50044173D02*
X9225419Y-50282268D01*
X9225419Y-50282268D02*
X9082561Y-50520363D01*
X9082561Y-50520363D02*
X8844466Y-50663220D01*
X8844466Y-50663220D02*
X8606371Y-50710839D01*
X8606371Y-50710839D02*
X8368276Y-50663220D01*
X8368276Y-50663220D02*
X8130180Y-50520363D01*
X8130180Y-50520363D02*
X7987323Y-50282268D01*
X7987323Y-50282268D02*
X7939704Y-50044173D01*
X7939704Y-50044173D02*
X7987323Y-49806077D01*
X7987323Y-49806077D02*
X8130180Y-49567982D01*
X8130180Y-49567982D02*
X8368276Y-49425125D01*
X8368276Y-49425125D02*
X8606371Y-49377506D01*
X8606371Y-49377506D02*
X8844466Y-49425125D01*
X8844466Y-49425125D02*
X9082561Y-49567982D01*
X9082561Y-49567982D02*
X9225419Y-49806077D01*
X9225419Y-49806077D02*
X9273038Y-50044173D01*
X8415895Y-48234648D02*
X8415895Y-47758458D01*
X8130180Y-48329886D02*
X9130180Y-47996553D01*
X9130180Y-47996553D02*
X8130180Y-47663220D01*
X8225419Y-47329886D02*
X8177800Y-47282267D01*
X8177800Y-47282267D02*
X8130180Y-47329886D01*
X8130180Y-47329886D02*
X8177800Y-47377505D01*
X8177800Y-47377505D02*
X8225419Y-47329886D01*
X8225419Y-47329886D02*
X8130180Y-47329886D01*
X8130180Y-46091791D02*
X9130180Y-46091791D01*
X9130180Y-46091791D02*
X9130180Y-45710839D01*
X9130180Y-45710839D02*
X9082561Y-45615601D01*
X9082561Y-45615601D02*
X9034942Y-45567982D01*
X9034942Y-45567982D02*
X8939704Y-45520363D01*
X8939704Y-45520363D02*
X8796847Y-45520363D01*
X8796847Y-45520363D02*
X8701609Y-45567982D01*
X8701609Y-45567982D02*
X8653990Y-45615601D01*
X8653990Y-45615601D02*
X8606371Y-45710839D01*
X8606371Y-45710839D02*
X8606371Y-46091791D01*
X8130180Y-45091791D02*
X8796847Y-45091791D01*
X9130180Y-45091791D02*
X9082561Y-45139410D01*
X9082561Y-45139410D02*
X9034942Y-45091791D01*
X9034942Y-45091791D02*
X9082561Y-45044172D01*
X9082561Y-45044172D02*
X9130180Y-45091791D01*
X9130180Y-45091791D02*
X9034942Y-45091791D01*
X8130180Y-44615601D02*
X8796847Y-44615601D01*
X8701609Y-44615601D02*
X8749228Y-44567982D01*
X8749228Y-44567982D02*
X8796847Y-44472744D01*
X8796847Y-44472744D02*
X8796847Y-44329887D01*
X8796847Y-44329887D02*
X8749228Y-44234649D01*
X8749228Y-44234649D02*
X8653990Y-44187030D01*
X8653990Y-44187030D02*
X8130180Y-44187030D01*
X8653990Y-44187030D02*
X8749228Y-44139411D01*
X8749228Y-44139411D02*
X8796847Y-44044173D01*
X8796847Y-44044173D02*
X8796847Y-43901316D01*
X8796847Y-43901316D02*
X8749228Y-43806077D01*
X8749228Y-43806077D02*
X8653990Y-43758458D01*
X8653990Y-43758458D02*
X8130180Y-43758458D01*
X8796847Y-43282268D02*
X7796847Y-43282268D01*
X8749228Y-43282268D02*
X8796847Y-43187030D01*
X8796847Y-43187030D02*
X8796847Y-42996554D01*
X8796847Y-42996554D02*
X8749228Y-42901316D01*
X8749228Y-42901316D02*
X8701609Y-42853697D01*
X8701609Y-42853697D02*
X8606371Y-42806078D01*
X8606371Y-42806078D02*
X8320657Y-42806078D01*
X8320657Y-42806078D02*
X8225419Y-42853697D01*
X8225419Y-42853697D02*
X8177800Y-42901316D01*
X8177800Y-42901316D02*
X8130180Y-42996554D01*
X8130180Y-42996554D02*
X8130180Y-43187030D01*
X8130180Y-43187030D02*
X8177800Y-43282268D01*
X8130180Y-41948935D02*
X8653990Y-41948935D01*
X8653990Y-41948935D02*
X8749228Y-41996554D01*
X8749228Y-41996554D02*
X8796847Y-42091792D01*
X8796847Y-42091792D02*
X8796847Y-42282268D01*
X8796847Y-42282268D02*
X8749228Y-42377506D01*
X8177800Y-41948935D02*
X8130180Y-42044173D01*
X8130180Y-42044173D02*
X8130180Y-42282268D01*
X8130180Y-42282268D02*
X8177800Y-42377506D01*
X8177800Y-42377506D02*
X8273038Y-42425125D01*
X8273038Y-42425125D02*
X8368276Y-42425125D01*
X8368276Y-42425125D02*
X8463514Y-42377506D01*
X8463514Y-42377506D02*
X8511133Y-42282268D01*
X8511133Y-42282268D02*
X8511133Y-42044173D01*
X8511133Y-42044173D02*
X8558752Y-41948935D01*
X8130180Y-41329887D02*
X8177800Y-41425125D01*
X8177800Y-41425125D02*
X8273038Y-41472744D01*
X8273038Y-41472744D02*
X9130180Y-41472744D01*
X8130180Y-40948934D02*
X9130180Y-40948934D01*
X8511133Y-40853696D02*
X8130180Y-40567982D01*
X8796847Y-40567982D02*
X8415895Y-40948934D01*
X8130180Y-39710839D02*
X8653990Y-39710839D01*
X8653990Y-39710839D02*
X8749228Y-39758458D01*
X8749228Y-39758458D02*
X8796847Y-39853696D01*
X8796847Y-39853696D02*
X8796847Y-40044172D01*
X8796847Y-40044172D02*
X8749228Y-40139410D01*
X8177800Y-39710839D02*
X8130180Y-39806077D01*
X8130180Y-39806077D02*
X8130180Y-40044172D01*
X8130180Y-40044172D02*
X8177800Y-40139410D01*
X8177800Y-40139410D02*
X8273038Y-40187029D01*
X8273038Y-40187029D02*
X8368276Y-40187029D01*
X8368276Y-40187029D02*
X8463514Y-40139410D01*
X8463514Y-40139410D02*
X8511133Y-40044172D01*
X8511133Y-40044172D02*
X8511133Y-39806077D01*
X8511133Y-39806077D02*
X8558752Y-39710839D01*
X8130180Y-39234648D02*
X8796847Y-39234648D01*
X8606371Y-39234648D02*
X8701609Y-39187029D01*
X8701609Y-39187029D02*
X8749228Y-39139410D01*
X8749228Y-39139410D02*
X8796847Y-39044172D01*
X8796847Y-39044172D02*
X8796847Y-38948934D01*
X8177800Y-38567981D02*
X8130180Y-38567981D01*
X8130180Y-38567981D02*
X8034942Y-38615600D01*
X8034942Y-38615600D02*
X7987323Y-38663219D01*
X8130180Y-37377505D02*
X9130180Y-37377505D01*
X8653990Y-37377505D02*
X8653990Y-36806077D01*
X8130180Y-36806077D02*
X9130180Y-36806077D01*
X8415895Y-36377505D02*
X8415895Y-35901315D01*
X8130180Y-36472743D02*
X9130180Y-36139410D01*
X9130180Y-36139410D02*
X8130180Y-35806077D01*
X8130180Y-35472743D02*
X9130180Y-35472743D01*
X9130180Y-35472743D02*
X8415895Y-35139410D01*
X8415895Y-35139410D02*
X9130180Y-34806077D01*
X9130180Y-34806077D02*
X8130180Y-34806077D01*
X8130180Y-33758458D02*
X8606371Y-34091791D01*
X8130180Y-34329886D02*
X9130180Y-34329886D01*
X9130180Y-34329886D02*
X9130180Y-33948934D01*
X9130180Y-33948934D02*
X9082561Y-33853696D01*
X9082561Y-33853696D02*
X9034942Y-33806077D01*
X9034942Y-33806077D02*
X8939704Y-33758458D01*
X8939704Y-33758458D02*
X8796847Y-33758458D01*
X8796847Y-33758458D02*
X8701609Y-33806077D01*
X8701609Y-33806077D02*
X8653990Y-33853696D01*
X8653990Y-33853696D02*
X8606371Y-33948934D01*
X8606371Y-33948934D02*
X8606371Y-34329886D01*
X8130180Y-32091791D02*
X8130180Y-32567981D01*
X8130180Y-32567981D02*
X9130180Y-32567981D01*
X8130180Y-31329886D02*
X8653990Y-31329886D01*
X8653990Y-31329886D02*
X8749228Y-31377505D01*
X8749228Y-31377505D02*
X8796847Y-31472743D01*
X8796847Y-31472743D02*
X8796847Y-31663219D01*
X8796847Y-31663219D02*
X8749228Y-31758457D01*
X8177800Y-31329886D02*
X8130180Y-31425124D01*
X8130180Y-31425124D02*
X8130180Y-31663219D01*
X8130180Y-31663219D02*
X8177800Y-31758457D01*
X8177800Y-31758457D02*
X8273038Y-31806076D01*
X8273038Y-31806076D02*
X8368276Y-31806076D01*
X8368276Y-31806076D02*
X8463514Y-31758457D01*
X8463514Y-31758457D02*
X8511133Y-31663219D01*
X8511133Y-31663219D02*
X8511133Y-31425124D01*
X8511133Y-31425124D02*
X8558752Y-31329886D01*
X8130180Y-30853695D02*
X9130180Y-30853695D01*
X8749228Y-30853695D02*
X8796847Y-30758457D01*
X8796847Y-30758457D02*
X8796847Y-30567981D01*
X8796847Y-30567981D02*
X8749228Y-30472743D01*
X8749228Y-30472743D02*
X8701609Y-30425124D01*
X8701609Y-30425124D02*
X8606371Y-30377505D01*
X8606371Y-30377505D02*
X8320657Y-30377505D01*
X8320657Y-30377505D02*
X8225419Y-30425124D01*
X8225419Y-30425124D02*
X8177800Y-30472743D01*
X8177800Y-30472743D02*
X8130180Y-30567981D01*
X8130180Y-30567981D02*
X8130180Y-30758457D01*
X8130180Y-30758457D02*
X8177800Y-30853695D01*
X9034942Y-29234647D02*
X9082561Y-29187028D01*
X9082561Y-29187028D02*
X9130180Y-29091790D01*
X9130180Y-29091790D02*
X9130180Y-28853695D01*
X9130180Y-28853695D02*
X9082561Y-28758457D01*
X9082561Y-28758457D02*
X9034942Y-28710838D01*
X9034942Y-28710838D02*
X8939704Y-28663219D01*
X8939704Y-28663219D02*
X8844466Y-28663219D01*
X8844466Y-28663219D02*
X8701609Y-28710838D01*
X8701609Y-28710838D02*
X8130180Y-29282266D01*
X8130180Y-29282266D02*
X8130180Y-28663219D01*
X9130180Y-28044171D02*
X9130180Y-27948933D01*
X9130180Y-27948933D02*
X9082561Y-27853695D01*
X9082561Y-27853695D02*
X9034942Y-27806076D01*
X9034942Y-27806076D02*
X8939704Y-27758457D01*
X8939704Y-27758457D02*
X8749228Y-27710838D01*
X8749228Y-27710838D02*
X8511133Y-27710838D01*
X8511133Y-27710838D02*
X8320657Y-27758457D01*
X8320657Y-27758457D02*
X8225419Y-27806076D01*
X8225419Y-27806076D02*
X8177800Y-27853695D01*
X8177800Y-27853695D02*
X8130180Y-27948933D01*
X8130180Y-27948933D02*
X8130180Y-28044171D01*
X8130180Y-28044171D02*
X8177800Y-28139409D01*
X8177800Y-28139409D02*
X8225419Y-28187028D01*
X8225419Y-28187028D02*
X8320657Y-28234647D01*
X8320657Y-28234647D02*
X8511133Y-28282266D01*
X8511133Y-28282266D02*
X8749228Y-28282266D01*
X8749228Y-28282266D02*
X8939704Y-28234647D01*
X8939704Y-28234647D02*
X9034942Y-28187028D01*
X9034942Y-28187028D02*
X9082561Y-28139409D01*
X9082561Y-28139409D02*
X9130180Y-28044171D01*
X9034942Y-27329885D02*
X9082561Y-27282266D01*
X9082561Y-27282266D02*
X9130180Y-27187028D01*
X9130180Y-27187028D02*
X9130180Y-26948933D01*
X9130180Y-26948933D02*
X9082561Y-26853695D01*
X9082561Y-26853695D02*
X9034942Y-26806076D01*
X9034942Y-26806076D02*
X8939704Y-26758457D01*
X8939704Y-26758457D02*
X8844466Y-26758457D01*
X8844466Y-26758457D02*
X8701609Y-26806076D01*
X8701609Y-26806076D02*
X8130180Y-27377504D01*
X8130180Y-27377504D02*
X8130180Y-26758457D01*
X8796847Y-25901314D02*
X8130180Y-25901314D01*
X9177800Y-26139409D02*
X8463514Y-26377504D01*
X8463514Y-26377504D02*
X8463514Y-25758457D01*
M02*
