%TF.GenerationSoftware,KiCad,Pcbnew,7.0.9*%
%TF.CreationDate,2025-03-23T18:33:54-04:00*%
%TF.ProjectId,Compact_Control,436f6d70-6163-4745-9f43-6f6e74726f6c,rev?*%
%TF.SameCoordinates,Original*%
%TF.FileFunction,Legend,Bot*%
%TF.FilePolarity,Positive*%
%FSLAX46Y46*%
G04 Gerber Fmt 4.6, Leading zero omitted, Abs format (unit mm)*
G04 Created by KiCad (PCBNEW 7.0.9) date 2025-03-23 18:33:54*
%MOMM*%
%LPD*%
G01*
G04 APERTURE LIST*
%ADD10C,0.150000*%
G04 APERTURE END LIST*
D10*
X13638430Y-54003220D02*
X14638430Y-54003220D01*
X14638430Y-54003220D02*
X14638430Y-53622268D01*
X14638430Y-53622268D02*
X14590811Y-53527030D01*
X14590811Y-53527030D02*
X14543192Y-53479411D01*
X14543192Y-53479411D02*
X14447954Y-53431792D01*
X14447954Y-53431792D02*
X14305097Y-53431792D01*
X14305097Y-53431792D02*
X14209859Y-53479411D01*
X14209859Y-53479411D02*
X14162240Y-53527030D01*
X14162240Y-53527030D02*
X14114621Y-53622268D01*
X14114621Y-53622268D02*
X14114621Y-54003220D01*
X14305097Y-53003220D02*
X13638430Y-53003220D01*
X14209859Y-53003220D02*
X14257478Y-52955601D01*
X14257478Y-52955601D02*
X14305097Y-52860363D01*
X14305097Y-52860363D02*
X14305097Y-52717506D01*
X14305097Y-52717506D02*
X14257478Y-52622268D01*
X14257478Y-52622268D02*
X14162240Y-52574649D01*
X14162240Y-52574649D02*
X13638430Y-52574649D01*
X13686050Y-51717506D02*
X13638430Y-51812744D01*
X13638430Y-51812744D02*
X13638430Y-52003220D01*
X13638430Y-52003220D02*
X13686050Y-52098458D01*
X13686050Y-52098458D02*
X13781288Y-52146077D01*
X13781288Y-52146077D02*
X14162240Y-52146077D01*
X14162240Y-52146077D02*
X14257478Y-52098458D01*
X14257478Y-52098458D02*
X14305097Y-52003220D01*
X14305097Y-52003220D02*
X14305097Y-51812744D01*
X14305097Y-51812744D02*
X14257478Y-51717506D01*
X14257478Y-51717506D02*
X14162240Y-51669887D01*
X14162240Y-51669887D02*
X14067002Y-51669887D01*
X14067002Y-51669887D02*
X13971764Y-52146077D01*
X14305097Y-50812744D02*
X13638430Y-50812744D01*
X14305097Y-51241315D02*
X13781288Y-51241315D01*
X13781288Y-51241315D02*
X13686050Y-51193696D01*
X13686050Y-51193696D02*
X13638430Y-51098458D01*
X13638430Y-51098458D02*
X13638430Y-50955601D01*
X13638430Y-50955601D02*
X13686050Y-50860363D01*
X13686050Y-50860363D02*
X13733669Y-50812744D01*
X13638430Y-50336553D02*
X14305097Y-50336553D01*
X14209859Y-50336553D02*
X14257478Y-50288934D01*
X14257478Y-50288934D02*
X14305097Y-50193696D01*
X14305097Y-50193696D02*
X14305097Y-50050839D01*
X14305097Y-50050839D02*
X14257478Y-49955601D01*
X14257478Y-49955601D02*
X14162240Y-49907982D01*
X14162240Y-49907982D02*
X13638430Y-49907982D01*
X14162240Y-49907982D02*
X14257478Y-49860363D01*
X14257478Y-49860363D02*
X14305097Y-49765125D01*
X14305097Y-49765125D02*
X14305097Y-49622268D01*
X14305097Y-49622268D02*
X14257478Y-49527029D01*
X14257478Y-49527029D02*
X14162240Y-49479410D01*
X14162240Y-49479410D02*
X13638430Y-49479410D01*
X13638430Y-48574649D02*
X14162240Y-48574649D01*
X14162240Y-48574649D02*
X14257478Y-48622268D01*
X14257478Y-48622268D02*
X14305097Y-48717506D01*
X14305097Y-48717506D02*
X14305097Y-48907982D01*
X14305097Y-48907982D02*
X14257478Y-49003220D01*
X13686050Y-48574649D02*
X13638430Y-48669887D01*
X13638430Y-48669887D02*
X13638430Y-48907982D01*
X13638430Y-48907982D02*
X13686050Y-49003220D01*
X13686050Y-49003220D02*
X13781288Y-49050839D01*
X13781288Y-49050839D02*
X13876526Y-49050839D01*
X13876526Y-49050839D02*
X13971764Y-49003220D01*
X13971764Y-49003220D02*
X14019383Y-48907982D01*
X14019383Y-48907982D02*
X14019383Y-48669887D01*
X14019383Y-48669887D02*
X14067002Y-48574649D01*
X14305097Y-48241315D02*
X14305097Y-47860363D01*
X14638430Y-48098458D02*
X13781288Y-48098458D01*
X13781288Y-48098458D02*
X13686050Y-48050839D01*
X13686050Y-48050839D02*
X13638430Y-47955601D01*
X13638430Y-47955601D02*
X13638430Y-47860363D01*
X13638430Y-47098458D02*
X14162240Y-47098458D01*
X14162240Y-47098458D02*
X14257478Y-47146077D01*
X14257478Y-47146077D02*
X14305097Y-47241315D01*
X14305097Y-47241315D02*
X14305097Y-47431791D01*
X14305097Y-47431791D02*
X14257478Y-47527029D01*
X13686050Y-47098458D02*
X13638430Y-47193696D01*
X13638430Y-47193696D02*
X13638430Y-47431791D01*
X13638430Y-47431791D02*
X13686050Y-47527029D01*
X13686050Y-47527029D02*
X13781288Y-47574648D01*
X13781288Y-47574648D02*
X13876526Y-47574648D01*
X13876526Y-47574648D02*
X13971764Y-47527029D01*
X13971764Y-47527029D02*
X14019383Y-47431791D01*
X14019383Y-47431791D02*
X14019383Y-47193696D01*
X14019383Y-47193696D02*
X14067002Y-47098458D01*
X13686050Y-46193696D02*
X13638430Y-46288934D01*
X13638430Y-46288934D02*
X13638430Y-46479410D01*
X13638430Y-46479410D02*
X13686050Y-46574648D01*
X13686050Y-46574648D02*
X13733669Y-46622267D01*
X13733669Y-46622267D02*
X13828907Y-46669886D01*
X13828907Y-46669886D02*
X14114621Y-46669886D01*
X14114621Y-46669886D02*
X14209859Y-46622267D01*
X14209859Y-46622267D02*
X14257478Y-46574648D01*
X14257478Y-46574648D02*
X14305097Y-46479410D01*
X14305097Y-46479410D02*
X14305097Y-46288934D01*
X14305097Y-46288934D02*
X14257478Y-46193696D01*
X14305097Y-45907981D02*
X14305097Y-45527029D01*
X14638430Y-45765124D02*
X13781288Y-45765124D01*
X13781288Y-45765124D02*
X13686050Y-45717505D01*
X13686050Y-45717505D02*
X13638430Y-45622267D01*
X13638430Y-45622267D02*
X13638430Y-45527029D01*
X13638430Y-45050838D02*
X13686050Y-45146076D01*
X13686050Y-45146076D02*
X13733669Y-45193695D01*
X13733669Y-45193695D02*
X13828907Y-45241314D01*
X13828907Y-45241314D02*
X14114621Y-45241314D01*
X14114621Y-45241314D02*
X14209859Y-45193695D01*
X14209859Y-45193695D02*
X14257478Y-45146076D01*
X14257478Y-45146076D02*
X14305097Y-45050838D01*
X14305097Y-45050838D02*
X14305097Y-44907981D01*
X14305097Y-44907981D02*
X14257478Y-44812743D01*
X14257478Y-44812743D02*
X14209859Y-44765124D01*
X14209859Y-44765124D02*
X14114621Y-44717505D01*
X14114621Y-44717505D02*
X13828907Y-44717505D01*
X13828907Y-44717505D02*
X13733669Y-44765124D01*
X13733669Y-44765124D02*
X13686050Y-44812743D01*
X13686050Y-44812743D02*
X13638430Y-44907981D01*
X13638430Y-44907981D02*
X13638430Y-45050838D01*
X13638430Y-44288933D02*
X14305097Y-44288933D01*
X14114621Y-44288933D02*
X14209859Y-44241314D01*
X14209859Y-44241314D02*
X14257478Y-44193695D01*
X14257478Y-44193695D02*
X14305097Y-44098457D01*
X14305097Y-44098457D02*
X14305097Y-44003219D01*
X13638430Y-42907980D02*
X14638430Y-42907980D01*
X14638430Y-42907980D02*
X14638430Y-42527028D01*
X14638430Y-42527028D02*
X14590811Y-42431790D01*
X14590811Y-42431790D02*
X14543192Y-42384171D01*
X14543192Y-42384171D02*
X14447954Y-42336552D01*
X14447954Y-42336552D02*
X14305097Y-42336552D01*
X14305097Y-42336552D02*
X14209859Y-42384171D01*
X14209859Y-42384171D02*
X14162240Y-42431790D01*
X14162240Y-42431790D02*
X14114621Y-42527028D01*
X14114621Y-42527028D02*
X14114621Y-42907980D01*
X13638430Y-41765123D02*
X13686050Y-41860361D01*
X13686050Y-41860361D02*
X13733669Y-41907980D01*
X13733669Y-41907980D02*
X13828907Y-41955599D01*
X13828907Y-41955599D02*
X14114621Y-41955599D01*
X14114621Y-41955599D02*
X14209859Y-41907980D01*
X14209859Y-41907980D02*
X14257478Y-41860361D01*
X14257478Y-41860361D02*
X14305097Y-41765123D01*
X14305097Y-41765123D02*
X14305097Y-41622266D01*
X14305097Y-41622266D02*
X14257478Y-41527028D01*
X14257478Y-41527028D02*
X14209859Y-41479409D01*
X14209859Y-41479409D02*
X14114621Y-41431790D01*
X14114621Y-41431790D02*
X13828907Y-41431790D01*
X13828907Y-41431790D02*
X13733669Y-41479409D01*
X13733669Y-41479409D02*
X13686050Y-41527028D01*
X13686050Y-41527028D02*
X13638430Y-41622266D01*
X13638430Y-41622266D02*
X13638430Y-41765123D01*
X13638430Y-41003218D02*
X14305097Y-41003218D01*
X14114621Y-41003218D02*
X14209859Y-40955599D01*
X14209859Y-40955599D02*
X14257478Y-40907980D01*
X14257478Y-40907980D02*
X14305097Y-40812742D01*
X14305097Y-40812742D02*
X14305097Y-40717504D01*
X14305097Y-40527027D02*
X14305097Y-40146075D01*
X14638430Y-40384170D02*
X13781288Y-40384170D01*
X13781288Y-40384170D02*
X13686050Y-40336551D01*
X13686050Y-40336551D02*
X13638430Y-40241313D01*
X13638430Y-40241313D02*
X13638430Y-40146075D01*
X13638430Y-39384170D02*
X14162240Y-39384170D01*
X14162240Y-39384170D02*
X14257478Y-39431789D01*
X14257478Y-39431789D02*
X14305097Y-39527027D01*
X14305097Y-39527027D02*
X14305097Y-39717503D01*
X14305097Y-39717503D02*
X14257478Y-39812741D01*
X13686050Y-39384170D02*
X13638430Y-39479408D01*
X13638430Y-39479408D02*
X13638430Y-39717503D01*
X13638430Y-39717503D02*
X13686050Y-39812741D01*
X13686050Y-39812741D02*
X13781288Y-39860360D01*
X13781288Y-39860360D02*
X13876526Y-39860360D01*
X13876526Y-39860360D02*
X13971764Y-39812741D01*
X13971764Y-39812741D02*
X14019383Y-39717503D01*
X14019383Y-39717503D02*
X14019383Y-39479408D01*
X14019383Y-39479408D02*
X14067002Y-39384170D01*
X13638430Y-38907979D02*
X14638430Y-38907979D01*
X14257478Y-38907979D02*
X14305097Y-38812741D01*
X14305097Y-38812741D02*
X14305097Y-38622265D01*
X14305097Y-38622265D02*
X14257478Y-38527027D01*
X14257478Y-38527027D02*
X14209859Y-38479408D01*
X14209859Y-38479408D02*
X14114621Y-38431789D01*
X14114621Y-38431789D02*
X13828907Y-38431789D01*
X13828907Y-38431789D02*
X13733669Y-38479408D01*
X13733669Y-38479408D02*
X13686050Y-38527027D01*
X13686050Y-38527027D02*
X13638430Y-38622265D01*
X13638430Y-38622265D02*
X13638430Y-38812741D01*
X13638430Y-38812741D02*
X13686050Y-38907979D01*
X13638430Y-37860360D02*
X13686050Y-37955598D01*
X13686050Y-37955598D02*
X13781288Y-38003217D01*
X13781288Y-38003217D02*
X14638430Y-38003217D01*
X13686050Y-37098455D02*
X13638430Y-37193693D01*
X13638430Y-37193693D02*
X13638430Y-37384169D01*
X13638430Y-37384169D02*
X13686050Y-37479407D01*
X13686050Y-37479407D02*
X13781288Y-37527026D01*
X13781288Y-37527026D02*
X14162240Y-37527026D01*
X14162240Y-37527026D02*
X14257478Y-37479407D01*
X14257478Y-37479407D02*
X14305097Y-37384169D01*
X14305097Y-37384169D02*
X14305097Y-37193693D01*
X14305097Y-37193693D02*
X14257478Y-37098455D01*
X14257478Y-37098455D02*
X14162240Y-37050836D01*
X14162240Y-37050836D02*
X14067002Y-37050836D01*
X14067002Y-37050836D02*
X13971764Y-37527026D01*
X13638430Y-35860359D02*
X14638430Y-35860359D01*
X14638430Y-35860359D02*
X13924145Y-35527026D01*
X13924145Y-35527026D02*
X14638430Y-35193693D01*
X14638430Y-35193693D02*
X13638430Y-35193693D01*
X13638430Y-34574645D02*
X13686050Y-34669883D01*
X13686050Y-34669883D02*
X13733669Y-34717502D01*
X13733669Y-34717502D02*
X13828907Y-34765121D01*
X13828907Y-34765121D02*
X14114621Y-34765121D01*
X14114621Y-34765121D02*
X14209859Y-34717502D01*
X14209859Y-34717502D02*
X14257478Y-34669883D01*
X14257478Y-34669883D02*
X14305097Y-34574645D01*
X14305097Y-34574645D02*
X14305097Y-34431788D01*
X14305097Y-34431788D02*
X14257478Y-34336550D01*
X14257478Y-34336550D02*
X14209859Y-34288931D01*
X14209859Y-34288931D02*
X14114621Y-34241312D01*
X14114621Y-34241312D02*
X13828907Y-34241312D01*
X13828907Y-34241312D02*
X13733669Y-34288931D01*
X13733669Y-34288931D02*
X13686050Y-34336550D01*
X13686050Y-34336550D02*
X13638430Y-34431788D01*
X13638430Y-34431788D02*
X13638430Y-34574645D01*
X13638430Y-33384169D02*
X14638430Y-33384169D01*
X13686050Y-33384169D02*
X13638430Y-33479407D01*
X13638430Y-33479407D02*
X13638430Y-33669883D01*
X13638430Y-33669883D02*
X13686050Y-33765121D01*
X13686050Y-33765121D02*
X13733669Y-33812740D01*
X13733669Y-33812740D02*
X13828907Y-33860359D01*
X13828907Y-33860359D02*
X14114621Y-33860359D01*
X14114621Y-33860359D02*
X14209859Y-33812740D01*
X14209859Y-33812740D02*
X14257478Y-33765121D01*
X14257478Y-33765121D02*
X14305097Y-33669883D01*
X14305097Y-33669883D02*
X14305097Y-33479407D01*
X14305097Y-33479407D02*
X14257478Y-33384169D01*
X14305097Y-32479407D02*
X13638430Y-32479407D01*
X14305097Y-32907978D02*
X13781288Y-32907978D01*
X13781288Y-32907978D02*
X13686050Y-32860359D01*
X13686050Y-32860359D02*
X13638430Y-32765121D01*
X13638430Y-32765121D02*
X13638430Y-32622264D01*
X13638430Y-32622264D02*
X13686050Y-32527026D01*
X13686050Y-32527026D02*
X13733669Y-32479407D01*
X13638430Y-31860359D02*
X13686050Y-31955597D01*
X13686050Y-31955597D02*
X13781288Y-32003216D01*
X13781288Y-32003216D02*
X14638430Y-32003216D01*
X13686050Y-31098454D02*
X13638430Y-31193692D01*
X13638430Y-31193692D02*
X13638430Y-31384168D01*
X13638430Y-31384168D02*
X13686050Y-31479406D01*
X13686050Y-31479406D02*
X13781288Y-31527025D01*
X13781288Y-31527025D02*
X14162240Y-31527025D01*
X14162240Y-31527025D02*
X14257478Y-31479406D01*
X14257478Y-31479406D02*
X14305097Y-31384168D01*
X14305097Y-31384168D02*
X14305097Y-31193692D01*
X14305097Y-31193692D02*
X14257478Y-31098454D01*
X14257478Y-31098454D02*
X14162240Y-31050835D01*
X14162240Y-31050835D02*
X14067002Y-31050835D01*
X14067002Y-31050835D02*
X13971764Y-31527025D01*
X13733669Y-29288930D02*
X13686050Y-29336549D01*
X13686050Y-29336549D02*
X13638430Y-29479406D01*
X13638430Y-29479406D02*
X13638430Y-29574644D01*
X13638430Y-29574644D02*
X13686050Y-29717501D01*
X13686050Y-29717501D02*
X13781288Y-29812739D01*
X13781288Y-29812739D02*
X13876526Y-29860358D01*
X13876526Y-29860358D02*
X14067002Y-29907977D01*
X14067002Y-29907977D02*
X14209859Y-29907977D01*
X14209859Y-29907977D02*
X14400335Y-29860358D01*
X14400335Y-29860358D02*
X14495573Y-29812739D01*
X14495573Y-29812739D02*
X14590811Y-29717501D01*
X14590811Y-29717501D02*
X14638430Y-29574644D01*
X14638430Y-29574644D02*
X14638430Y-29479406D01*
X14638430Y-29479406D02*
X14590811Y-29336549D01*
X14590811Y-29336549D02*
X14543192Y-29288930D01*
X13638430Y-28860358D02*
X14305097Y-28860358D01*
X14638430Y-28860358D02*
X14590811Y-28907977D01*
X14590811Y-28907977D02*
X14543192Y-28860358D01*
X14543192Y-28860358D02*
X14590811Y-28812739D01*
X14590811Y-28812739D02*
X14638430Y-28860358D01*
X14638430Y-28860358D02*
X14543192Y-28860358D01*
X13638430Y-28384168D02*
X14305097Y-28384168D01*
X14114621Y-28384168D02*
X14209859Y-28336549D01*
X14209859Y-28336549D02*
X14257478Y-28288930D01*
X14257478Y-28288930D02*
X14305097Y-28193692D01*
X14305097Y-28193692D02*
X14305097Y-28098454D01*
X13686050Y-27336549D02*
X13638430Y-27431787D01*
X13638430Y-27431787D02*
X13638430Y-27622263D01*
X13638430Y-27622263D02*
X13686050Y-27717501D01*
X13686050Y-27717501D02*
X13733669Y-27765120D01*
X13733669Y-27765120D02*
X13828907Y-27812739D01*
X13828907Y-27812739D02*
X14114621Y-27812739D01*
X14114621Y-27812739D02*
X14209859Y-27765120D01*
X14209859Y-27765120D02*
X14257478Y-27717501D01*
X14257478Y-27717501D02*
X14305097Y-27622263D01*
X14305097Y-27622263D02*
X14305097Y-27431787D01*
X14305097Y-27431787D02*
X14257478Y-27336549D01*
X14305097Y-26479406D02*
X13638430Y-26479406D01*
X14305097Y-26907977D02*
X13781288Y-26907977D01*
X13781288Y-26907977D02*
X13686050Y-26860358D01*
X13686050Y-26860358D02*
X13638430Y-26765120D01*
X13638430Y-26765120D02*
X13638430Y-26622263D01*
X13638430Y-26622263D02*
X13686050Y-26527025D01*
X13686050Y-26527025D02*
X13733669Y-26479406D01*
X13638430Y-26003215D02*
X14305097Y-26003215D01*
X14638430Y-26003215D02*
X14590811Y-26050834D01*
X14590811Y-26050834D02*
X14543192Y-26003215D01*
X14543192Y-26003215D02*
X14590811Y-25955596D01*
X14590811Y-25955596D02*
X14638430Y-26003215D01*
X14638430Y-26003215D02*
X14543192Y-26003215D01*
X14305097Y-25669882D02*
X14305097Y-25288930D01*
X14638430Y-25527025D02*
X13781288Y-25527025D01*
X13781288Y-25527025D02*
X13686050Y-25479406D01*
X13686050Y-25479406D02*
X13638430Y-25384168D01*
X13638430Y-25384168D02*
X13638430Y-25288930D01*
X12790335Y-53193696D02*
X12837954Y-53288935D01*
X12837954Y-53288935D02*
X12837954Y-53479411D01*
X12837954Y-53479411D02*
X12790335Y-53574649D01*
X12790335Y-53574649D02*
X12695097Y-53669887D01*
X12695097Y-53669887D02*
X12599859Y-53717506D01*
X12599859Y-53717506D02*
X12409383Y-53717506D01*
X12409383Y-53717506D02*
X12314145Y-53669887D01*
X12314145Y-53669887D02*
X12218907Y-53574649D01*
X12218907Y-53574649D02*
X12171288Y-53479411D01*
X12171288Y-53479411D02*
X12171288Y-53288935D01*
X12171288Y-53288935D02*
X12218907Y-53193696D01*
X13171288Y-53384173D02*
X13123669Y-53622268D01*
X13123669Y-53622268D02*
X12980811Y-53860363D01*
X12980811Y-53860363D02*
X12742716Y-54003220D01*
X12742716Y-54003220D02*
X12504621Y-54050839D01*
X12504621Y-54050839D02*
X12266526Y-54003220D01*
X12266526Y-54003220D02*
X12028430Y-53860363D01*
X12028430Y-53860363D02*
X11885573Y-53622268D01*
X11885573Y-53622268D02*
X11837954Y-53384173D01*
X11837954Y-53384173D02*
X11885573Y-53146077D01*
X11885573Y-53146077D02*
X12028430Y-52907982D01*
X12028430Y-52907982D02*
X12266526Y-52765125D01*
X12266526Y-52765125D02*
X12504621Y-52717506D01*
X12504621Y-52717506D02*
X12742716Y-52765125D01*
X12742716Y-52765125D02*
X12980811Y-52907982D01*
X12980811Y-52907982D02*
X13123669Y-53146077D01*
X13123669Y-53146077D02*
X13171288Y-53384173D01*
X12314145Y-51574648D02*
X12314145Y-51098458D01*
X12028430Y-51669886D02*
X13028430Y-51336553D01*
X13028430Y-51336553D02*
X12028430Y-51003220D01*
X12695097Y-50669886D02*
X12028430Y-50669886D01*
X12599859Y-50669886D02*
X12647478Y-50622267D01*
X12647478Y-50622267D02*
X12695097Y-50527029D01*
X12695097Y-50527029D02*
X12695097Y-50384172D01*
X12695097Y-50384172D02*
X12647478Y-50288934D01*
X12647478Y-50288934D02*
X12552240Y-50241315D01*
X12552240Y-50241315D02*
X12028430Y-50241315D01*
X12695097Y-49860362D02*
X12028430Y-49669886D01*
X12028430Y-49669886D02*
X12504621Y-49479410D01*
X12504621Y-49479410D02*
X12028430Y-49288934D01*
X12028430Y-49288934D02*
X12695097Y-49098458D01*
X12028430Y-48288934D02*
X12552240Y-48288934D01*
X12552240Y-48288934D02*
X12647478Y-48336553D01*
X12647478Y-48336553D02*
X12695097Y-48431791D01*
X12695097Y-48431791D02*
X12695097Y-48622267D01*
X12695097Y-48622267D02*
X12647478Y-48717505D01*
X12076050Y-48288934D02*
X12028430Y-48384172D01*
X12028430Y-48384172D02*
X12028430Y-48622267D01*
X12028430Y-48622267D02*
X12076050Y-48717505D01*
X12076050Y-48717505D02*
X12171288Y-48765124D01*
X12171288Y-48765124D02*
X12266526Y-48765124D01*
X12266526Y-48765124D02*
X12361764Y-48717505D01*
X12361764Y-48717505D02*
X12409383Y-48622267D01*
X12409383Y-48622267D02*
X12409383Y-48384172D01*
X12409383Y-48384172D02*
X12457002Y-48288934D01*
X12695097Y-47907981D02*
X12028430Y-47669886D01*
X12695097Y-47431791D02*
X12028430Y-47669886D01*
X12028430Y-47669886D02*
X11790335Y-47765124D01*
X11790335Y-47765124D02*
X11742716Y-47812743D01*
X11742716Y-47812743D02*
X11695097Y-47907981D01*
X12028430Y-46288933D02*
X13028430Y-46288933D01*
X13028430Y-46288933D02*
X13028430Y-45907981D01*
X13028430Y-45907981D02*
X12980811Y-45812743D01*
X12980811Y-45812743D02*
X12933192Y-45765124D01*
X12933192Y-45765124D02*
X12837954Y-45717505D01*
X12837954Y-45717505D02*
X12695097Y-45717505D01*
X12695097Y-45717505D02*
X12599859Y-45765124D01*
X12599859Y-45765124D02*
X12552240Y-45812743D01*
X12552240Y-45812743D02*
X12504621Y-45907981D01*
X12504621Y-45907981D02*
X12504621Y-46288933D01*
X12028430Y-45288933D02*
X12695097Y-45288933D01*
X13028430Y-45288933D02*
X12980811Y-45336552D01*
X12980811Y-45336552D02*
X12933192Y-45288933D01*
X12933192Y-45288933D02*
X12980811Y-45241314D01*
X12980811Y-45241314D02*
X13028430Y-45288933D01*
X13028430Y-45288933D02*
X12933192Y-45288933D01*
X12028430Y-44812743D02*
X12695097Y-44812743D01*
X12599859Y-44812743D02*
X12647478Y-44765124D01*
X12647478Y-44765124D02*
X12695097Y-44669886D01*
X12695097Y-44669886D02*
X12695097Y-44527029D01*
X12695097Y-44527029D02*
X12647478Y-44431791D01*
X12647478Y-44431791D02*
X12552240Y-44384172D01*
X12552240Y-44384172D02*
X12028430Y-44384172D01*
X12552240Y-44384172D02*
X12647478Y-44336553D01*
X12647478Y-44336553D02*
X12695097Y-44241315D01*
X12695097Y-44241315D02*
X12695097Y-44098458D01*
X12695097Y-44098458D02*
X12647478Y-44003219D01*
X12647478Y-44003219D02*
X12552240Y-43955600D01*
X12552240Y-43955600D02*
X12028430Y-43955600D01*
X12695097Y-43479410D02*
X11695097Y-43479410D01*
X12647478Y-43479410D02*
X12695097Y-43384172D01*
X12695097Y-43384172D02*
X12695097Y-43193696D01*
X12695097Y-43193696D02*
X12647478Y-43098458D01*
X12647478Y-43098458D02*
X12599859Y-43050839D01*
X12599859Y-43050839D02*
X12504621Y-43003220D01*
X12504621Y-43003220D02*
X12218907Y-43003220D01*
X12218907Y-43003220D02*
X12123669Y-43050839D01*
X12123669Y-43050839D02*
X12076050Y-43098458D01*
X12076050Y-43098458D02*
X12028430Y-43193696D01*
X12028430Y-43193696D02*
X12028430Y-43384172D01*
X12028430Y-43384172D02*
X12076050Y-43479410D01*
X12028430Y-42146077D02*
X12552240Y-42146077D01*
X12552240Y-42146077D02*
X12647478Y-42193696D01*
X12647478Y-42193696D02*
X12695097Y-42288934D01*
X12695097Y-42288934D02*
X12695097Y-42479410D01*
X12695097Y-42479410D02*
X12647478Y-42574648D01*
X12076050Y-42146077D02*
X12028430Y-42241315D01*
X12028430Y-42241315D02*
X12028430Y-42479410D01*
X12028430Y-42479410D02*
X12076050Y-42574648D01*
X12076050Y-42574648D02*
X12171288Y-42622267D01*
X12171288Y-42622267D02*
X12266526Y-42622267D01*
X12266526Y-42622267D02*
X12361764Y-42574648D01*
X12361764Y-42574648D02*
X12409383Y-42479410D01*
X12409383Y-42479410D02*
X12409383Y-42241315D01*
X12409383Y-42241315D02*
X12457002Y-42146077D01*
X12028430Y-41527029D02*
X12076050Y-41622267D01*
X12076050Y-41622267D02*
X12171288Y-41669886D01*
X12171288Y-41669886D02*
X13028430Y-41669886D01*
X12028430Y-41146076D02*
X13028430Y-41146076D01*
X12409383Y-41050838D02*
X12028430Y-40765124D01*
X12695097Y-40765124D02*
X12314145Y-41146076D01*
X12028430Y-39907981D02*
X12552240Y-39907981D01*
X12552240Y-39907981D02*
X12647478Y-39955600D01*
X12647478Y-39955600D02*
X12695097Y-40050838D01*
X12695097Y-40050838D02*
X12695097Y-40241314D01*
X12695097Y-40241314D02*
X12647478Y-40336552D01*
X12076050Y-39907981D02*
X12028430Y-40003219D01*
X12028430Y-40003219D02*
X12028430Y-40241314D01*
X12028430Y-40241314D02*
X12076050Y-40336552D01*
X12076050Y-40336552D02*
X12171288Y-40384171D01*
X12171288Y-40384171D02*
X12266526Y-40384171D01*
X12266526Y-40384171D02*
X12361764Y-40336552D01*
X12361764Y-40336552D02*
X12409383Y-40241314D01*
X12409383Y-40241314D02*
X12409383Y-40003219D01*
X12409383Y-40003219D02*
X12457002Y-39907981D01*
X12028430Y-39431790D02*
X12695097Y-39431790D01*
X12504621Y-39431790D02*
X12599859Y-39384171D01*
X12599859Y-39384171D02*
X12647478Y-39336552D01*
X12647478Y-39336552D02*
X12695097Y-39241314D01*
X12695097Y-39241314D02*
X12695097Y-39146076D01*
X12933192Y-38098456D02*
X12980811Y-38050837D01*
X12980811Y-38050837D02*
X13028430Y-37955599D01*
X13028430Y-37955599D02*
X13028430Y-37717504D01*
X13028430Y-37717504D02*
X12980811Y-37622266D01*
X12980811Y-37622266D02*
X12933192Y-37574647D01*
X12933192Y-37574647D02*
X12837954Y-37527028D01*
X12837954Y-37527028D02*
X12742716Y-37527028D01*
X12742716Y-37527028D02*
X12599859Y-37574647D01*
X12599859Y-37574647D02*
X12028430Y-38146075D01*
X12028430Y-38146075D02*
X12028430Y-37527028D01*
X13028430Y-36907980D02*
X13028430Y-36812742D01*
X13028430Y-36812742D02*
X12980811Y-36717504D01*
X12980811Y-36717504D02*
X12933192Y-36669885D01*
X12933192Y-36669885D02*
X12837954Y-36622266D01*
X12837954Y-36622266D02*
X12647478Y-36574647D01*
X12647478Y-36574647D02*
X12409383Y-36574647D01*
X12409383Y-36574647D02*
X12218907Y-36622266D01*
X12218907Y-36622266D02*
X12123669Y-36669885D01*
X12123669Y-36669885D02*
X12076050Y-36717504D01*
X12076050Y-36717504D02*
X12028430Y-36812742D01*
X12028430Y-36812742D02*
X12028430Y-36907980D01*
X12028430Y-36907980D02*
X12076050Y-37003218D01*
X12076050Y-37003218D02*
X12123669Y-37050837D01*
X12123669Y-37050837D02*
X12218907Y-37098456D01*
X12218907Y-37098456D02*
X12409383Y-37146075D01*
X12409383Y-37146075D02*
X12647478Y-37146075D01*
X12647478Y-37146075D02*
X12837954Y-37098456D01*
X12837954Y-37098456D02*
X12933192Y-37050837D01*
X12933192Y-37050837D02*
X12980811Y-37003218D01*
X12980811Y-37003218D02*
X13028430Y-36907980D01*
X12933192Y-36193694D02*
X12980811Y-36146075D01*
X12980811Y-36146075D02*
X13028430Y-36050837D01*
X13028430Y-36050837D02*
X13028430Y-35812742D01*
X13028430Y-35812742D02*
X12980811Y-35717504D01*
X12980811Y-35717504D02*
X12933192Y-35669885D01*
X12933192Y-35669885D02*
X12837954Y-35622266D01*
X12837954Y-35622266D02*
X12742716Y-35622266D01*
X12742716Y-35622266D02*
X12599859Y-35669885D01*
X12599859Y-35669885D02*
X12028430Y-36241313D01*
X12028430Y-36241313D02*
X12028430Y-35622266D01*
X13028430Y-34717504D02*
X13028430Y-35193694D01*
X13028430Y-35193694D02*
X12552240Y-35241313D01*
X12552240Y-35241313D02*
X12599859Y-35193694D01*
X12599859Y-35193694D02*
X12647478Y-35098456D01*
X12647478Y-35098456D02*
X12647478Y-34860361D01*
X12647478Y-34860361D02*
X12599859Y-34765123D01*
X12599859Y-34765123D02*
X12552240Y-34717504D01*
X12552240Y-34717504D02*
X12457002Y-34669885D01*
X12457002Y-34669885D02*
X12218907Y-34669885D01*
X12218907Y-34669885D02*
X12123669Y-34717504D01*
X12123669Y-34717504D02*
X12076050Y-34765123D01*
X12076050Y-34765123D02*
X12028430Y-34860361D01*
X12028430Y-34860361D02*
X12028430Y-35098456D01*
X12028430Y-35098456D02*
X12076050Y-35193694D01*
X12076050Y-35193694D02*
X12123669Y-35241313D01*
X10418430Y-51717505D02*
X11418430Y-51717505D01*
X10942240Y-51717505D02*
X10942240Y-51146077D01*
X10418430Y-51146077D02*
X11418430Y-51146077D01*
X10704145Y-50717505D02*
X10704145Y-50241315D01*
X10418430Y-50812743D02*
X11418430Y-50479410D01*
X11418430Y-50479410D02*
X10418430Y-50146077D01*
X10418430Y-49812743D02*
X11418430Y-49812743D01*
X11418430Y-49812743D02*
X10704145Y-49479410D01*
X10704145Y-49479410D02*
X11418430Y-49146077D01*
X11418430Y-49146077D02*
X10418430Y-49146077D01*
X10418430Y-48098458D02*
X10894621Y-48431791D01*
X10418430Y-48669886D02*
X11418430Y-48669886D01*
X11418430Y-48669886D02*
X11418430Y-48288934D01*
X11418430Y-48288934D02*
X11370811Y-48193696D01*
X11370811Y-48193696D02*
X11323192Y-48146077D01*
X11323192Y-48146077D02*
X11227954Y-48098458D01*
X11227954Y-48098458D02*
X11085097Y-48098458D01*
X11085097Y-48098458D02*
X10989859Y-48146077D01*
X10989859Y-48146077D02*
X10942240Y-48193696D01*
X10942240Y-48193696D02*
X10894621Y-48288934D01*
X10894621Y-48288934D02*
X10894621Y-48669886D01*
X10418430Y-46431791D02*
X10418430Y-46907981D01*
X10418430Y-46907981D02*
X11418430Y-46907981D01*
X10418430Y-45669886D02*
X10942240Y-45669886D01*
X10942240Y-45669886D02*
X11037478Y-45717505D01*
X11037478Y-45717505D02*
X11085097Y-45812743D01*
X11085097Y-45812743D02*
X11085097Y-46003219D01*
X11085097Y-46003219D02*
X11037478Y-46098457D01*
X10466050Y-45669886D02*
X10418430Y-45765124D01*
X10418430Y-45765124D02*
X10418430Y-46003219D01*
X10418430Y-46003219D02*
X10466050Y-46098457D01*
X10466050Y-46098457D02*
X10561288Y-46146076D01*
X10561288Y-46146076D02*
X10656526Y-46146076D01*
X10656526Y-46146076D02*
X10751764Y-46098457D01*
X10751764Y-46098457D02*
X10799383Y-46003219D01*
X10799383Y-46003219D02*
X10799383Y-45765124D01*
X10799383Y-45765124D02*
X10847002Y-45669886D01*
X10418430Y-45193695D02*
X11418430Y-45193695D01*
X11037478Y-45193695D02*
X11085097Y-45098457D01*
X11085097Y-45098457D02*
X11085097Y-44907981D01*
X11085097Y-44907981D02*
X11037478Y-44812743D01*
X11037478Y-44812743D02*
X10989859Y-44765124D01*
X10989859Y-44765124D02*
X10894621Y-44717505D01*
X10894621Y-44717505D02*
X10608907Y-44717505D01*
X10608907Y-44717505D02*
X10513669Y-44765124D01*
X10513669Y-44765124D02*
X10466050Y-44812743D01*
X10466050Y-44812743D02*
X10418430Y-44907981D01*
X10418430Y-44907981D02*
X10418430Y-45098457D01*
X10418430Y-45098457D02*
X10466050Y-45193695D01*
X10466050Y-44241314D02*
X10418430Y-44241314D01*
X10418430Y-44241314D02*
X10323192Y-44288933D01*
X10323192Y-44288933D02*
X10275573Y-44336552D01*
X11418430Y-42765124D02*
X10704145Y-42765124D01*
X10704145Y-42765124D02*
X10561288Y-42812743D01*
X10561288Y-42812743D02*
X10466050Y-42907981D01*
X10466050Y-42907981D02*
X10418430Y-43050838D01*
X10418430Y-43050838D02*
X10418430Y-43146076D01*
X10418430Y-42146076D02*
X10466050Y-42241314D01*
X10466050Y-42241314D02*
X10513669Y-42288933D01*
X10513669Y-42288933D02*
X10608907Y-42336552D01*
X10608907Y-42336552D02*
X10894621Y-42336552D01*
X10894621Y-42336552D02*
X10989859Y-42288933D01*
X10989859Y-42288933D02*
X11037478Y-42241314D01*
X11037478Y-42241314D02*
X11085097Y-42146076D01*
X11085097Y-42146076D02*
X11085097Y-42003219D01*
X11085097Y-42003219D02*
X11037478Y-41907981D01*
X11037478Y-41907981D02*
X10989859Y-41860362D01*
X10989859Y-41860362D02*
X10894621Y-41812743D01*
X10894621Y-41812743D02*
X10608907Y-41812743D01*
X10608907Y-41812743D02*
X10513669Y-41860362D01*
X10513669Y-41860362D02*
X10466050Y-41907981D01*
X10466050Y-41907981D02*
X10418430Y-42003219D01*
X10418430Y-42003219D02*
X10418430Y-42146076D01*
X10418430Y-41384171D02*
X11418430Y-41384171D01*
X10418430Y-40955600D02*
X10942240Y-40955600D01*
X10942240Y-40955600D02*
X11037478Y-41003219D01*
X11037478Y-41003219D02*
X11085097Y-41098457D01*
X11085097Y-41098457D02*
X11085097Y-41241314D01*
X11085097Y-41241314D02*
X11037478Y-41336552D01*
X11037478Y-41336552D02*
X10989859Y-41384171D01*
X11085097Y-40479409D02*
X10418430Y-40479409D01*
X10989859Y-40479409D02*
X11037478Y-40431790D01*
X11037478Y-40431790D02*
X11085097Y-40336552D01*
X11085097Y-40336552D02*
X11085097Y-40193695D01*
X11085097Y-40193695D02*
X11037478Y-40098457D01*
X11037478Y-40098457D02*
X10942240Y-40050838D01*
X10942240Y-40050838D02*
X10418430Y-40050838D01*
X10466050Y-39622266D02*
X10418430Y-39527028D01*
X10418430Y-39527028D02*
X10418430Y-39336552D01*
X10418430Y-39336552D02*
X10466050Y-39241314D01*
X10466050Y-39241314D02*
X10561288Y-39193695D01*
X10561288Y-39193695D02*
X10608907Y-39193695D01*
X10608907Y-39193695D02*
X10704145Y-39241314D01*
X10704145Y-39241314D02*
X10751764Y-39336552D01*
X10751764Y-39336552D02*
X10751764Y-39479409D01*
X10751764Y-39479409D02*
X10799383Y-39574647D01*
X10799383Y-39574647D02*
X10894621Y-39622266D01*
X10894621Y-39622266D02*
X10942240Y-39622266D01*
X10942240Y-39622266D02*
X11037478Y-39574647D01*
X11037478Y-39574647D02*
X11085097Y-39479409D01*
X11085097Y-39479409D02*
X11085097Y-39336552D01*
X11085097Y-39336552D02*
X11037478Y-39241314D01*
X10418430Y-38003218D02*
X11418430Y-38003218D01*
X10942240Y-38003218D02*
X10942240Y-37431790D01*
X10418430Y-37431790D02*
X11418430Y-37431790D01*
X10418430Y-36812742D02*
X10466050Y-36907980D01*
X10466050Y-36907980D02*
X10513669Y-36955599D01*
X10513669Y-36955599D02*
X10608907Y-37003218D01*
X10608907Y-37003218D02*
X10894621Y-37003218D01*
X10894621Y-37003218D02*
X10989859Y-36955599D01*
X10989859Y-36955599D02*
X11037478Y-36907980D01*
X11037478Y-36907980D02*
X11085097Y-36812742D01*
X11085097Y-36812742D02*
X11085097Y-36669885D01*
X11085097Y-36669885D02*
X11037478Y-36574647D01*
X11037478Y-36574647D02*
X10989859Y-36527028D01*
X10989859Y-36527028D02*
X10894621Y-36479409D01*
X10894621Y-36479409D02*
X10608907Y-36479409D01*
X10608907Y-36479409D02*
X10513669Y-36527028D01*
X10513669Y-36527028D02*
X10466050Y-36574647D01*
X10466050Y-36574647D02*
X10418430Y-36669885D01*
X10418430Y-36669885D02*
X10418430Y-36812742D01*
X11085097Y-36050837D02*
X10085097Y-36050837D01*
X11037478Y-36050837D02*
X11085097Y-35955599D01*
X11085097Y-35955599D02*
X11085097Y-35765123D01*
X11085097Y-35765123D02*
X11037478Y-35669885D01*
X11037478Y-35669885D02*
X10989859Y-35622266D01*
X10989859Y-35622266D02*
X10894621Y-35574647D01*
X10894621Y-35574647D02*
X10608907Y-35574647D01*
X10608907Y-35574647D02*
X10513669Y-35622266D01*
X10513669Y-35622266D02*
X10466050Y-35669885D01*
X10466050Y-35669885D02*
X10418430Y-35765123D01*
X10418430Y-35765123D02*
X10418430Y-35955599D01*
X10418430Y-35955599D02*
X10466050Y-36050837D01*
X10418430Y-35146075D02*
X11418430Y-35146075D01*
X10799383Y-35050837D02*
X10418430Y-34765123D01*
X11085097Y-34765123D02*
X10704145Y-35146075D01*
X10418430Y-34336551D02*
X11085097Y-34336551D01*
X11418430Y-34336551D02*
X11370811Y-34384170D01*
X11370811Y-34384170D02*
X11323192Y-34336551D01*
X11323192Y-34336551D02*
X11370811Y-34288932D01*
X11370811Y-34288932D02*
X11418430Y-34336551D01*
X11418430Y-34336551D02*
X11323192Y-34336551D01*
X11085097Y-33860361D02*
X10418430Y-33860361D01*
X10989859Y-33860361D02*
X11037478Y-33812742D01*
X11037478Y-33812742D02*
X11085097Y-33717504D01*
X11085097Y-33717504D02*
X11085097Y-33574647D01*
X11085097Y-33574647D02*
X11037478Y-33479409D01*
X11037478Y-33479409D02*
X10942240Y-33431790D01*
X10942240Y-33431790D02*
X10418430Y-33431790D01*
X10466050Y-33003218D02*
X10418430Y-32907980D01*
X10418430Y-32907980D02*
X10418430Y-32717504D01*
X10418430Y-32717504D02*
X10466050Y-32622266D01*
X10466050Y-32622266D02*
X10561288Y-32574647D01*
X10561288Y-32574647D02*
X10608907Y-32574647D01*
X10608907Y-32574647D02*
X10704145Y-32622266D01*
X10704145Y-32622266D02*
X10751764Y-32717504D01*
X10751764Y-32717504D02*
X10751764Y-32860361D01*
X10751764Y-32860361D02*
X10799383Y-32955599D01*
X10799383Y-32955599D02*
X10894621Y-33003218D01*
X10894621Y-33003218D02*
X10942240Y-33003218D01*
X10942240Y-33003218D02*
X11037478Y-32955599D01*
X11037478Y-32955599D02*
X11085097Y-32860361D01*
X11085097Y-32860361D02*
X11085097Y-32717504D01*
X11085097Y-32717504D02*
X11037478Y-32622266D01*
X11418430Y-31384170D02*
X10608907Y-31384170D01*
X10608907Y-31384170D02*
X10513669Y-31336551D01*
X10513669Y-31336551D02*
X10466050Y-31288932D01*
X10466050Y-31288932D02*
X10418430Y-31193694D01*
X10418430Y-31193694D02*
X10418430Y-31003218D01*
X10418430Y-31003218D02*
X10466050Y-30907980D01*
X10466050Y-30907980D02*
X10513669Y-30860361D01*
X10513669Y-30860361D02*
X10608907Y-30812742D01*
X10608907Y-30812742D02*
X11418430Y-30812742D01*
X11085097Y-30336551D02*
X10418430Y-30336551D01*
X10989859Y-30336551D02*
X11037478Y-30288932D01*
X11037478Y-30288932D02*
X11085097Y-30193694D01*
X11085097Y-30193694D02*
X11085097Y-30050837D01*
X11085097Y-30050837D02*
X11037478Y-29955599D01*
X11037478Y-29955599D02*
X10942240Y-29907980D01*
X10942240Y-29907980D02*
X10418430Y-29907980D01*
X10418430Y-29431789D02*
X11085097Y-29431789D01*
X11418430Y-29431789D02*
X11370811Y-29479408D01*
X11370811Y-29479408D02*
X11323192Y-29431789D01*
X11323192Y-29431789D02*
X11370811Y-29384170D01*
X11370811Y-29384170D02*
X11418430Y-29431789D01*
X11418430Y-29431789D02*
X11323192Y-29431789D01*
X11085097Y-29050837D02*
X10418430Y-28812742D01*
X10418430Y-28812742D02*
X11085097Y-28574647D01*
X10466050Y-27812742D02*
X10418430Y-27907980D01*
X10418430Y-27907980D02*
X10418430Y-28098456D01*
X10418430Y-28098456D02*
X10466050Y-28193694D01*
X10466050Y-28193694D02*
X10561288Y-28241313D01*
X10561288Y-28241313D02*
X10942240Y-28241313D01*
X10942240Y-28241313D02*
X11037478Y-28193694D01*
X11037478Y-28193694D02*
X11085097Y-28098456D01*
X11085097Y-28098456D02*
X11085097Y-27907980D01*
X11085097Y-27907980D02*
X11037478Y-27812742D01*
X11037478Y-27812742D02*
X10942240Y-27765123D01*
X10942240Y-27765123D02*
X10847002Y-27765123D01*
X10847002Y-27765123D02*
X10751764Y-28241313D01*
X10418430Y-27336551D02*
X11085097Y-27336551D01*
X10894621Y-27336551D02*
X10989859Y-27288932D01*
X10989859Y-27288932D02*
X11037478Y-27241313D01*
X11037478Y-27241313D02*
X11085097Y-27146075D01*
X11085097Y-27146075D02*
X11085097Y-27050837D01*
X10466050Y-26765122D02*
X10418430Y-26669884D01*
X10418430Y-26669884D02*
X10418430Y-26479408D01*
X10418430Y-26479408D02*
X10466050Y-26384170D01*
X10466050Y-26384170D02*
X10561288Y-26336551D01*
X10561288Y-26336551D02*
X10608907Y-26336551D01*
X10608907Y-26336551D02*
X10704145Y-26384170D01*
X10704145Y-26384170D02*
X10751764Y-26479408D01*
X10751764Y-26479408D02*
X10751764Y-26622265D01*
X10751764Y-26622265D02*
X10799383Y-26717503D01*
X10799383Y-26717503D02*
X10894621Y-26765122D01*
X10894621Y-26765122D02*
X10942240Y-26765122D01*
X10942240Y-26765122D02*
X11037478Y-26717503D01*
X11037478Y-26717503D02*
X11085097Y-26622265D01*
X11085097Y-26622265D02*
X11085097Y-26479408D01*
X11085097Y-26479408D02*
X11037478Y-26384170D01*
X10418430Y-25907979D02*
X11085097Y-25907979D01*
X11418430Y-25907979D02*
X11370811Y-25955598D01*
X11370811Y-25955598D02*
X11323192Y-25907979D01*
X11323192Y-25907979D02*
X11370811Y-25860360D01*
X11370811Y-25860360D02*
X11418430Y-25907979D01*
X11418430Y-25907979D02*
X11323192Y-25907979D01*
X11085097Y-25574646D02*
X11085097Y-25193694D01*
X11418430Y-25431789D02*
X10561288Y-25431789D01*
X10561288Y-25431789D02*
X10466050Y-25384170D01*
X10466050Y-25384170D02*
X10418430Y-25288932D01*
X10418430Y-25288932D02*
X10418430Y-25193694D01*
X11085097Y-24955598D02*
X10418430Y-24717503D01*
X11085097Y-24479408D02*
X10418430Y-24717503D01*
X10418430Y-24717503D02*
X10180335Y-24812741D01*
X10180335Y-24812741D02*
X10132716Y-24860360D01*
X10132716Y-24860360D02*
X10085097Y-24955598D01*
M02*
