%TF.GenerationSoftware,KiCad,Pcbnew,7.0.9*%
%TF.CreationDate,2025-03-23T18:33:54-04:00*%
%TF.ProjectId,Compact_Control,436f6d70-6163-4745-9f43-6f6e74726f6c,rev?*%
%TF.SameCoordinates,Original*%
%TF.FileFunction,Profile,NP*%
%FSLAX46Y46*%
G04 Gerber Fmt 4.6, Leading zero omitted, Abs format (unit mm)*
G04 Created by KiCad (PCBNEW 7.0.9) date 2025-03-23 18:33:54*
%MOMM*%
%LPD*%
G01*
G04 APERTURE LIST*
%TA.AperFunction,Profile*%
%ADD10C,0.100000*%
%TD*%
%ADD11C,0.150000*%
G04 APERTURE END LIST*
D10*
X1600000Y-55000000D02*
G75*
G03*
X0Y-53400000I-1600000J0D01*
G01*
X25000000Y-53400000D02*
G75*
G03*
X23400000Y-55000000I0J-1600000D01*
G01*
X0Y-53400000D02*
X0Y-1600000D01*
X25000000Y-1600000D02*
X25000000Y-53400000D01*
X0Y-1600000D02*
G75*
G03*
X1600000Y0I0J1600000D01*
G01*
X23400000Y0D02*
G75*
G03*
X25000000Y-1600000I1600000J0D01*
G01*
X23400000Y-55000000D02*
X1600000Y-55000000D01*
X1600000Y0D02*
X23400000Y0D01*
D11*
X-9295180Y-31595237D02*
X-9295180Y-32071427D01*
X-9295180Y-32071427D02*
X-8818990Y-32119046D01*
X-8818990Y-32119046D02*
X-8866609Y-32071427D01*
X-8866609Y-32071427D02*
X-8914228Y-31976189D01*
X-8914228Y-31976189D02*
X-8914228Y-31738094D01*
X-8914228Y-31738094D02*
X-8866609Y-31642856D01*
X-8866609Y-31642856D02*
X-8818990Y-31595237D01*
X-8818990Y-31595237D02*
X-8723752Y-31547618D01*
X-8723752Y-31547618D02*
X-8485657Y-31547618D01*
X-8485657Y-31547618D02*
X-8390419Y-31595237D01*
X-8390419Y-31595237D02*
X-8342800Y-31642856D01*
X-8342800Y-31642856D02*
X-8295180Y-31738094D01*
X-8295180Y-31738094D02*
X-8295180Y-31976189D01*
X-8295180Y-31976189D02*
X-8342800Y-32071427D01*
X-8342800Y-32071427D02*
X-8390419Y-32119046D01*
X-9295180Y-30642856D02*
X-9295180Y-31119046D01*
X-9295180Y-31119046D02*
X-8818990Y-31166665D01*
X-8818990Y-31166665D02*
X-8866609Y-31119046D01*
X-8866609Y-31119046D02*
X-8914228Y-31023808D01*
X-8914228Y-31023808D02*
X-8914228Y-30785713D01*
X-8914228Y-30785713D02*
X-8866609Y-30690475D01*
X-8866609Y-30690475D02*
X-8818990Y-30642856D01*
X-8818990Y-30642856D02*
X-8723752Y-30595237D01*
X-8723752Y-30595237D02*
X-8485657Y-30595237D01*
X-8485657Y-30595237D02*
X-8390419Y-30642856D01*
X-8390419Y-30642856D02*
X-8342800Y-30690475D01*
X-8342800Y-30690475D02*
X-8295180Y-30785713D01*
X-8295180Y-30785713D02*
X-8295180Y-31023808D01*
X-8295180Y-31023808D02*
X-8342800Y-31119046D01*
X-8342800Y-31119046D02*
X-8390419Y-31166665D01*
X-8390419Y-30166665D02*
X-8342800Y-30119046D01*
X-8342800Y-30119046D02*
X-8295180Y-30166665D01*
X-8295180Y-30166665D02*
X-8342800Y-30214284D01*
X-8342800Y-30214284D02*
X-8390419Y-30166665D01*
X-8390419Y-30166665D02*
X-8295180Y-30166665D01*
X-9295180Y-29499999D02*
X-9295180Y-29404761D01*
X-9295180Y-29404761D02*
X-9247561Y-29309523D01*
X-9247561Y-29309523D02*
X-9199942Y-29261904D01*
X-9199942Y-29261904D02*
X-9104704Y-29214285D01*
X-9104704Y-29214285D02*
X-8914228Y-29166666D01*
X-8914228Y-29166666D02*
X-8676133Y-29166666D01*
X-8676133Y-29166666D02*
X-8485657Y-29214285D01*
X-8485657Y-29214285D02*
X-8390419Y-29261904D01*
X-8390419Y-29261904D02*
X-8342800Y-29309523D01*
X-8342800Y-29309523D02*
X-8295180Y-29404761D01*
X-8295180Y-29404761D02*
X-8295180Y-29499999D01*
X-8295180Y-29499999D02*
X-8342800Y-29595237D01*
X-8342800Y-29595237D02*
X-8390419Y-29642856D01*
X-8390419Y-29642856D02*
X-8485657Y-29690475D01*
X-8485657Y-29690475D02*
X-8676133Y-29738094D01*
X-8676133Y-29738094D02*
X-8914228Y-29738094D01*
X-8914228Y-29738094D02*
X-9104704Y-29690475D01*
X-9104704Y-29690475D02*
X-9199942Y-29642856D01*
X-9199942Y-29642856D02*
X-9247561Y-29595237D01*
X-9247561Y-29595237D02*
X-9295180Y-29499999D01*
X-9295180Y-28547618D02*
X-9295180Y-28452380D01*
X-9295180Y-28452380D02*
X-9247561Y-28357142D01*
X-9247561Y-28357142D02*
X-9199942Y-28309523D01*
X-9199942Y-28309523D02*
X-9104704Y-28261904D01*
X-9104704Y-28261904D02*
X-8914228Y-28214285D01*
X-8914228Y-28214285D02*
X-8676133Y-28214285D01*
X-8676133Y-28214285D02*
X-8485657Y-28261904D01*
X-8485657Y-28261904D02*
X-8390419Y-28309523D01*
X-8390419Y-28309523D02*
X-8342800Y-28357142D01*
X-8342800Y-28357142D02*
X-8295180Y-28452380D01*
X-8295180Y-28452380D02*
X-8295180Y-28547618D01*
X-8295180Y-28547618D02*
X-8342800Y-28642856D01*
X-8342800Y-28642856D02*
X-8390419Y-28690475D01*
X-8390419Y-28690475D02*
X-8485657Y-28738094D01*
X-8485657Y-28738094D02*
X-8676133Y-28785713D01*
X-8676133Y-28785713D02*
X-8914228Y-28785713D01*
X-8914228Y-28785713D02*
X-9104704Y-28738094D01*
X-9104704Y-28738094D02*
X-9199942Y-28690475D01*
X-9199942Y-28690475D02*
X-9247561Y-28642856D01*
X-9247561Y-28642856D02*
X-9295180Y-28547618D01*
X-9295180Y-27595237D02*
X-9295180Y-27499999D01*
X-9295180Y-27499999D02*
X-9247561Y-27404761D01*
X-9247561Y-27404761D02*
X-9199942Y-27357142D01*
X-9199942Y-27357142D02*
X-9104704Y-27309523D01*
X-9104704Y-27309523D02*
X-8914228Y-27261904D01*
X-8914228Y-27261904D02*
X-8676133Y-27261904D01*
X-8676133Y-27261904D02*
X-8485657Y-27309523D01*
X-8485657Y-27309523D02*
X-8390419Y-27357142D01*
X-8390419Y-27357142D02*
X-8342800Y-27404761D01*
X-8342800Y-27404761D02*
X-8295180Y-27499999D01*
X-8295180Y-27499999D02*
X-8295180Y-27595237D01*
X-8295180Y-27595237D02*
X-8342800Y-27690475D01*
X-8342800Y-27690475D02*
X-8390419Y-27738094D01*
X-8390419Y-27738094D02*
X-8485657Y-27785713D01*
X-8485657Y-27785713D02*
X-8676133Y-27833332D01*
X-8676133Y-27833332D02*
X-8914228Y-27833332D01*
X-8914228Y-27833332D02*
X-9104704Y-27785713D01*
X-9104704Y-27785713D02*
X-9199942Y-27738094D01*
X-9199942Y-27738094D02*
X-9247561Y-27690475D01*
X-9247561Y-27690475D02*
X-9295180Y-27595237D01*
X-9295180Y-26642856D02*
X-9295180Y-26547618D01*
X-9295180Y-26547618D02*
X-9247561Y-26452380D01*
X-9247561Y-26452380D02*
X-9199942Y-26404761D01*
X-9199942Y-26404761D02*
X-9104704Y-26357142D01*
X-9104704Y-26357142D02*
X-8914228Y-26309523D01*
X-8914228Y-26309523D02*
X-8676133Y-26309523D01*
X-8676133Y-26309523D02*
X-8485657Y-26357142D01*
X-8485657Y-26357142D02*
X-8390419Y-26404761D01*
X-8390419Y-26404761D02*
X-8342800Y-26452380D01*
X-8342800Y-26452380D02*
X-8295180Y-26547618D01*
X-8295180Y-26547618D02*
X-8295180Y-26642856D01*
X-8295180Y-26642856D02*
X-8342800Y-26738094D01*
X-8342800Y-26738094D02*
X-8390419Y-26785713D01*
X-8390419Y-26785713D02*
X-8485657Y-26833332D01*
X-8485657Y-26833332D02*
X-8676133Y-26880951D01*
X-8676133Y-26880951D02*
X-8914228Y-26880951D01*
X-8914228Y-26880951D02*
X-9104704Y-26833332D01*
X-9104704Y-26833332D02*
X-9199942Y-26785713D01*
X-9199942Y-26785713D02*
X-9247561Y-26738094D01*
X-9247561Y-26738094D02*
X-9295180Y-26642856D01*
X-8295180Y-25119046D02*
X-8961847Y-25119046D01*
X-8866609Y-25119046D02*
X-8914228Y-25071427D01*
X-8914228Y-25071427D02*
X-8961847Y-24976189D01*
X-8961847Y-24976189D02*
X-8961847Y-24833332D01*
X-8961847Y-24833332D02*
X-8914228Y-24738094D01*
X-8914228Y-24738094D02*
X-8818990Y-24690475D01*
X-8818990Y-24690475D02*
X-8295180Y-24690475D01*
X-8818990Y-24690475D02*
X-8914228Y-24642856D01*
X-8914228Y-24642856D02*
X-8961847Y-24547618D01*
X-8961847Y-24547618D02*
X-8961847Y-24404761D01*
X-8961847Y-24404761D02*
X-8914228Y-24309522D01*
X-8914228Y-24309522D02*
X-8818990Y-24261903D01*
X-8818990Y-24261903D02*
X-8295180Y-24261903D01*
X-8295180Y-23785713D02*
X-8961847Y-23785713D01*
X-8866609Y-23785713D02*
X-8914228Y-23738094D01*
X-8914228Y-23738094D02*
X-8961847Y-23642856D01*
X-8961847Y-23642856D02*
X-8961847Y-23499999D01*
X-8961847Y-23499999D02*
X-8914228Y-23404761D01*
X-8914228Y-23404761D02*
X-8818990Y-23357142D01*
X-8818990Y-23357142D02*
X-8295180Y-23357142D01*
X-8818990Y-23357142D02*
X-8914228Y-23309523D01*
X-8914228Y-23309523D02*
X-8961847Y-23214285D01*
X-8961847Y-23214285D02*
X-8961847Y-23071428D01*
X-8961847Y-23071428D02*
X-8914228Y-22976189D01*
X-8914228Y-22976189D02*
X-8818990Y-22928570D01*
X-8818990Y-22928570D02*
X-8295180Y-22928570D01*
D10*
X-500000Y0D02*
X-8186420Y0D01*
X-500000Y-55000000D02*
X-8186420Y-55000000D01*
X-7600000Y0D02*
X-7600000Y-55000000D01*
X-7600000Y0D02*
X-7600000Y-55000000D01*
X-7600000Y0D02*
X-7013579Y-1126504D01*
X-7600000Y0D02*
X-8186421Y-1126504D01*
X-7600000Y-55000000D02*
X-8186421Y-53873496D01*
X-7600000Y-55000000D02*
X-7013579Y-53873496D01*
D11*
X7880953Y9599942D02*
X7928572Y9647561D01*
X7928572Y9647561D02*
X8023810Y9695180D01*
X8023810Y9695180D02*
X8261905Y9695180D01*
X8261905Y9695180D02*
X8357143Y9647561D01*
X8357143Y9647561D02*
X8404762Y9599942D01*
X8404762Y9599942D02*
X8452381Y9504704D01*
X8452381Y9504704D02*
X8452381Y9409466D01*
X8452381Y9409466D02*
X8404762Y9266609D01*
X8404762Y9266609D02*
X7833334Y8695180D01*
X7833334Y8695180D02*
X8452381Y8695180D01*
X9357143Y9695180D02*
X8880953Y9695180D01*
X8880953Y9695180D02*
X8833334Y9218990D01*
X8833334Y9218990D02*
X8880953Y9266609D01*
X8880953Y9266609D02*
X8976191Y9314228D01*
X8976191Y9314228D02*
X9214286Y9314228D01*
X9214286Y9314228D02*
X9309524Y9266609D01*
X9309524Y9266609D02*
X9357143Y9218990D01*
X9357143Y9218990D02*
X9404762Y9123752D01*
X9404762Y9123752D02*
X9404762Y8885657D01*
X9404762Y8885657D02*
X9357143Y8790419D01*
X9357143Y8790419D02*
X9309524Y8742800D01*
X9309524Y8742800D02*
X9214286Y8695180D01*
X9214286Y8695180D02*
X8976191Y8695180D01*
X8976191Y8695180D02*
X8880953Y8742800D01*
X8880953Y8742800D02*
X8833334Y8790419D01*
X9833334Y8790419D02*
X9880953Y8742800D01*
X9880953Y8742800D02*
X9833334Y8695180D01*
X9833334Y8695180D02*
X9785715Y8742800D01*
X9785715Y8742800D02*
X9833334Y8790419D01*
X9833334Y8790419D02*
X9833334Y8695180D01*
X10500000Y9695180D02*
X10595238Y9695180D01*
X10595238Y9695180D02*
X10690476Y9647561D01*
X10690476Y9647561D02*
X10738095Y9599942D01*
X10738095Y9599942D02*
X10785714Y9504704D01*
X10785714Y9504704D02*
X10833333Y9314228D01*
X10833333Y9314228D02*
X10833333Y9076133D01*
X10833333Y9076133D02*
X10785714Y8885657D01*
X10785714Y8885657D02*
X10738095Y8790419D01*
X10738095Y8790419D02*
X10690476Y8742800D01*
X10690476Y8742800D02*
X10595238Y8695180D01*
X10595238Y8695180D02*
X10500000Y8695180D01*
X10500000Y8695180D02*
X10404762Y8742800D01*
X10404762Y8742800D02*
X10357143Y8790419D01*
X10357143Y8790419D02*
X10309524Y8885657D01*
X10309524Y8885657D02*
X10261905Y9076133D01*
X10261905Y9076133D02*
X10261905Y9314228D01*
X10261905Y9314228D02*
X10309524Y9504704D01*
X10309524Y9504704D02*
X10357143Y9599942D01*
X10357143Y9599942D02*
X10404762Y9647561D01*
X10404762Y9647561D02*
X10500000Y9695180D01*
X11452381Y9695180D02*
X11547619Y9695180D01*
X11547619Y9695180D02*
X11642857Y9647561D01*
X11642857Y9647561D02*
X11690476Y9599942D01*
X11690476Y9599942D02*
X11738095Y9504704D01*
X11738095Y9504704D02*
X11785714Y9314228D01*
X11785714Y9314228D02*
X11785714Y9076133D01*
X11785714Y9076133D02*
X11738095Y8885657D01*
X11738095Y8885657D02*
X11690476Y8790419D01*
X11690476Y8790419D02*
X11642857Y8742800D01*
X11642857Y8742800D02*
X11547619Y8695180D01*
X11547619Y8695180D02*
X11452381Y8695180D01*
X11452381Y8695180D02*
X11357143Y8742800D01*
X11357143Y8742800D02*
X11309524Y8790419D01*
X11309524Y8790419D02*
X11261905Y8885657D01*
X11261905Y8885657D02*
X11214286Y9076133D01*
X11214286Y9076133D02*
X11214286Y9314228D01*
X11214286Y9314228D02*
X11261905Y9504704D01*
X11261905Y9504704D02*
X11309524Y9599942D01*
X11309524Y9599942D02*
X11357143Y9647561D01*
X11357143Y9647561D02*
X11452381Y9695180D01*
X12404762Y9695180D02*
X12500000Y9695180D01*
X12500000Y9695180D02*
X12595238Y9647561D01*
X12595238Y9647561D02*
X12642857Y9599942D01*
X12642857Y9599942D02*
X12690476Y9504704D01*
X12690476Y9504704D02*
X12738095Y9314228D01*
X12738095Y9314228D02*
X12738095Y9076133D01*
X12738095Y9076133D02*
X12690476Y8885657D01*
X12690476Y8885657D02*
X12642857Y8790419D01*
X12642857Y8790419D02*
X12595238Y8742800D01*
X12595238Y8742800D02*
X12500000Y8695180D01*
X12500000Y8695180D02*
X12404762Y8695180D01*
X12404762Y8695180D02*
X12309524Y8742800D01*
X12309524Y8742800D02*
X12261905Y8790419D01*
X12261905Y8790419D02*
X12214286Y8885657D01*
X12214286Y8885657D02*
X12166667Y9076133D01*
X12166667Y9076133D02*
X12166667Y9314228D01*
X12166667Y9314228D02*
X12214286Y9504704D01*
X12214286Y9504704D02*
X12261905Y9599942D01*
X12261905Y9599942D02*
X12309524Y9647561D01*
X12309524Y9647561D02*
X12404762Y9695180D01*
X13357143Y9695180D02*
X13452381Y9695180D01*
X13452381Y9695180D02*
X13547619Y9647561D01*
X13547619Y9647561D02*
X13595238Y9599942D01*
X13595238Y9599942D02*
X13642857Y9504704D01*
X13642857Y9504704D02*
X13690476Y9314228D01*
X13690476Y9314228D02*
X13690476Y9076133D01*
X13690476Y9076133D02*
X13642857Y8885657D01*
X13642857Y8885657D02*
X13595238Y8790419D01*
X13595238Y8790419D02*
X13547619Y8742800D01*
X13547619Y8742800D02*
X13452381Y8695180D01*
X13452381Y8695180D02*
X13357143Y8695180D01*
X13357143Y8695180D02*
X13261905Y8742800D01*
X13261905Y8742800D02*
X13214286Y8790419D01*
X13214286Y8790419D02*
X13166667Y8885657D01*
X13166667Y8885657D02*
X13119048Y9076133D01*
X13119048Y9076133D02*
X13119048Y9314228D01*
X13119048Y9314228D02*
X13166667Y9504704D01*
X13166667Y9504704D02*
X13214286Y9599942D01*
X13214286Y9599942D02*
X13261905Y9647561D01*
X13261905Y9647561D02*
X13357143Y9695180D01*
X14880953Y8695180D02*
X14880953Y9361847D01*
X14880953Y9266609D02*
X14928572Y9314228D01*
X14928572Y9314228D02*
X15023810Y9361847D01*
X15023810Y9361847D02*
X15166667Y9361847D01*
X15166667Y9361847D02*
X15261905Y9314228D01*
X15261905Y9314228D02*
X15309524Y9218990D01*
X15309524Y9218990D02*
X15309524Y8695180D01*
X15309524Y9218990D02*
X15357143Y9314228D01*
X15357143Y9314228D02*
X15452381Y9361847D01*
X15452381Y9361847D02*
X15595238Y9361847D01*
X15595238Y9361847D02*
X15690477Y9314228D01*
X15690477Y9314228D02*
X15738096Y9218990D01*
X15738096Y9218990D02*
X15738096Y8695180D01*
X16214286Y8695180D02*
X16214286Y9361847D01*
X16214286Y9266609D02*
X16261905Y9314228D01*
X16261905Y9314228D02*
X16357143Y9361847D01*
X16357143Y9361847D02*
X16500000Y9361847D01*
X16500000Y9361847D02*
X16595238Y9314228D01*
X16595238Y9314228D02*
X16642857Y9218990D01*
X16642857Y9218990D02*
X16642857Y8695180D01*
X16642857Y9218990D02*
X16690476Y9314228D01*
X16690476Y9314228D02*
X16785714Y9361847D01*
X16785714Y9361847D02*
X16928571Y9361847D01*
X16928571Y9361847D02*
X17023810Y9314228D01*
X17023810Y9314228D02*
X17071429Y9218990D01*
X17071429Y9218990D02*
X17071429Y8695180D01*
D10*
X0Y500000D02*
X0Y8586420D01*
X25000000Y500000D02*
X25000000Y8586420D01*
X0Y8000000D02*
X25000000Y8000000D01*
X0Y8000000D02*
X25000000Y8000000D01*
X0Y8000000D02*
X1126504Y8586421D01*
X0Y8000000D02*
X1126504Y7413579D01*
X25000000Y8000000D02*
X23873496Y7413579D01*
X25000000Y8000000D02*
X23873496Y8586421D01*
M02*
