%TF.GenerationSoftware,KiCad,Pcbnew,7.0.9*%
%TF.CreationDate,2025-03-23T17:44:29-04:00*%
%TF.ProjectId,Compact_Control,436f6d70-6163-4745-9f43-6f6e74726f6c,rev?*%
%TF.SameCoordinates,Original*%
%TF.FileFunction,Soldermask,Top*%
%TF.FilePolarity,Negative*%
%FSLAX46Y46*%
G04 Gerber Fmt 4.6, Leading zero omitted, Abs format (unit mm)*
G04 Created by KiCad (PCBNEW 7.0.9) date 2025-03-23 17:44:29*
%MOMM*%
%LPD*%
G01*
G04 APERTURE LIST*
G04 Aperture macros list*
%AMRoundRect*
0 Rectangle with rounded corners*
0 $1 Rounding radius*
0 $2 $3 $4 $5 $6 $7 $8 $9 X,Y pos of 4 corners*
0 Add a 4 corners polygon primitive as box body*
4,1,4,$2,$3,$4,$5,$6,$7,$8,$9,$2,$3,0*
0 Add four circle primitives for the rounded corners*
1,1,$1+$1,$2,$3*
1,1,$1+$1,$4,$5*
1,1,$1+$1,$6,$7*
1,1,$1+$1,$8,$9*
0 Add four rect primitives between the rounded corners*
20,1,$1+$1,$2,$3,$4,$5,0*
20,1,$1+$1,$4,$5,$6,$7,0*
20,1,$1+$1,$6,$7,$8,$9,0*
20,1,$1+$1,$8,$9,$2,$3,0*%
G04 Aperture macros list end*
%ADD10R,1.700000X1.700000*%
%ADD11C,1.700000*%
%ADD12RoundRect,0.100000X-0.217500X-0.100000X0.217500X-0.100000X0.217500X0.100000X-0.217500X0.100000X0*%
%ADD13O,1.700000X1.700000*%
%ADD14RoundRect,0.150000X-0.587500X-0.150000X0.587500X-0.150000X0.587500X0.150000X-0.587500X0.150000X0*%
%ADD15RoundRect,0.100000X-0.100000X0.217500X-0.100000X-0.217500X0.100000X-0.217500X0.100000X0.217500X0*%
%ADD16RoundRect,0.250000X-0.300000X-0.300000X0.300000X-0.300000X0.300000X0.300000X-0.300000X0.300000X0*%
%ADD17RoundRect,0.250000X0.300000X-0.300000X0.300000X0.300000X-0.300000X0.300000X-0.300000X-0.300000X0*%
G04 APERTURE END LIST*
D10*
%TO.C,U1*%
X20117738Y-51846960D03*
D11*
X20117738Y-49306960D03*
X20117738Y-46766960D03*
X20117738Y-44226960D03*
X20117738Y-41686960D03*
X20117738Y-39146960D03*
X20117738Y-36606960D03*
X4867738Y-36606960D03*
X4867738Y-39146960D03*
X4867738Y-41686960D03*
X4867738Y-44226960D03*
X4867738Y-46766960D03*
X4867738Y-49306960D03*
X4867738Y-51846960D03*
%TD*%
D12*
%TO.C,D6*%
X10377738Y-1681960D03*
X11192738Y-1681960D03*
%TD*%
D10*
%TO.C,J6*%
X2794000Y-26162000D03*
D13*
X2794000Y-23622000D03*
X2794000Y-21082000D03*
%TD*%
D12*
%TO.C,D4*%
X17997738Y-1681960D03*
X18812738Y-1681960D03*
%TD*%
D14*
%TO.C,Q2*%
X9645238Y-12796960D03*
X9645238Y-14696960D03*
X11520238Y-13746960D03*
%TD*%
D10*
%TO.C,J4*%
X2794000Y-14986000D03*
D13*
X2794000Y-12446000D03*
X2794000Y-9906000D03*
X2794000Y-7366000D03*
%TD*%
D10*
%TO.C,J3*%
X22225000Y-25176960D03*
D13*
X22225000Y-27716960D03*
%TD*%
D10*
%TO.C,J1*%
X22225000Y-7396960D03*
D13*
X22225000Y-9936960D03*
%TD*%
D15*
%TO.C,R4*%
X7407738Y-3406960D03*
X7407738Y-4221960D03*
%TD*%
D14*
%TO.C,Q1*%
X9645238Y-7716960D03*
X9645238Y-9616960D03*
X11520238Y-8666960D03*
%TD*%
D10*
%TO.C,U2*%
X8677738Y-18926960D03*
D13*
X8677738Y-21466960D03*
X8677738Y-24006960D03*
X8677738Y-26546960D03*
X8677738Y-29086960D03*
D10*
X16297738Y-18926960D03*
D13*
X16297738Y-21466960D03*
X16297738Y-24006960D03*
X16297738Y-26546960D03*
X16297738Y-29086960D03*
%TD*%
D15*
%TO.C,R1*%
X18837738Y-3406960D03*
X18837738Y-4221960D03*
%TD*%
D16*
%TO.C,D1*%
X2832738Y-32161960D03*
X5632738Y-32161960D03*
%TD*%
D15*
%TO.C,R3*%
X11217738Y-3406960D03*
X11217738Y-4221960D03*
%TD*%
D17*
%TO.C,D2*%
X16932738Y-10066960D03*
X16932738Y-7266960D03*
%TD*%
%TO.C,D3*%
X16932738Y-15781960D03*
X16932738Y-12981960D03*
%TD*%
D15*
%TO.C,R2*%
X15027738Y-3406960D03*
X15027738Y-4221960D03*
%TD*%
D12*
%TO.C,D5*%
X14187738Y-1681960D03*
X15002738Y-1681960D03*
%TD*%
D10*
%TO.C,J2*%
X22225000Y-16286960D03*
D13*
X22225000Y-18826960D03*
%TD*%
D12*
%TO.C,D7*%
X6567738Y-1681960D03*
X7382738Y-1681960D03*
%TD*%
M02*
