%TF.GenerationSoftware,KiCad,Pcbnew,7.0.9*%
%TF.CreationDate,2025-03-23T17:44:27-04:00*%
%TF.ProjectId,Compact_Control,436f6d70-6163-4745-9f43-6f6e74726f6c,rev?*%
%TF.SameCoordinates,Original*%
%TF.FileFunction,Drillmap*%
%TF.FilePolarity,Positive*%
%FSLAX45Y45*%
G04 Gerber Fmt 4.5, Leading zero omitted, Abs format (unit mm)*
G04 Created by KiCad (PCBNEW 7.0.9) date 2025-03-23 17:44:27*
%MOMM*%
%LPD*%
G01*
G04 APERTURE LIST*
%ADD10C,0.100000*%
%ADD11C,0.200000*%
G04 APERTURE END LIST*
D10*
X160000Y-5500000D02*
G75*
G03*
X0Y-5340000I-160000J0D01*
G01*
X2500000Y-5340000D02*
G75*
G03*
X2340000Y-5500000I0J-160000D01*
G01*
X0Y-5340000D02*
X0Y-160000D01*
X2500000Y-160000D02*
X2500000Y-5340000D01*
X0Y-160000D02*
G75*
G03*
X160000Y0I0J160000D01*
G01*
X2340000Y0D02*
G75*
G03*
X2500000Y-160000I160000J0D01*
G01*
X2340000Y-5500000D02*
X160000Y-5500000D01*
X160000Y0D02*
X2340000Y0D01*
D11*
D10*
X720774Y-529196D02*
X760774Y-569196D01*
X760774Y-529196D02*
X720774Y-569196D01*
X974774Y-3183496D02*
X1014774Y-3223496D01*
X1014774Y-3183496D02*
X974774Y-3223496D01*
X1101774Y-529196D02*
X1141774Y-569196D01*
X1141774Y-529196D02*
X1101774Y-569196D01*
X1482774Y-529196D02*
X1522774Y-569196D01*
X1522774Y-529196D02*
X1482774Y-569196D01*
X1863774Y-529196D02*
X1903774Y-569196D01*
X1903774Y-529196D02*
X1863774Y-569196D01*
X329400Y-736600D02*
G75*
G03*
X329400Y-736600I-50000J0D01*
G01*
X329400Y-990600D02*
G75*
G03*
X329400Y-990600I-50000J0D01*
G01*
X329400Y-1244600D02*
G75*
G03*
X329400Y-1244600I-50000J0D01*
G01*
X329400Y-1498600D02*
G75*
G03*
X329400Y-1498600I-50000J0D01*
G01*
X329400Y-2108200D02*
G75*
G03*
X329400Y-2108200I-50000J0D01*
G01*
X329400Y-2362200D02*
G75*
G03*
X329400Y-2362200I-50000J0D01*
G01*
X329400Y-2616200D02*
G75*
G03*
X329400Y-2616200I-50000J0D01*
G01*
X536774Y-3660696D02*
G75*
G03*
X536774Y-3660696I-50000J0D01*
G01*
X536774Y-3914696D02*
G75*
G03*
X536774Y-3914696I-50000J0D01*
G01*
X536774Y-4168696D02*
G75*
G03*
X536774Y-4168696I-50000J0D01*
G01*
X536774Y-4422696D02*
G75*
G03*
X536774Y-4422696I-50000J0D01*
G01*
X536774Y-4676696D02*
G75*
G03*
X536774Y-4676696I-50000J0D01*
G01*
X536774Y-4930696D02*
G75*
G03*
X536774Y-4930696I-50000J0D01*
G01*
X536774Y-5184696D02*
G75*
G03*
X536774Y-5184696I-50000J0D01*
G01*
X917774Y-1892696D02*
G75*
G03*
X917774Y-1892696I-50000J0D01*
G01*
X917774Y-2146696D02*
G75*
G03*
X917774Y-2146696I-50000J0D01*
G01*
X917774Y-2400696D02*
G75*
G03*
X917774Y-2400696I-50000J0D01*
G01*
X917774Y-2654696D02*
G75*
G03*
X917774Y-2654696I-50000J0D01*
G01*
X917774Y-2908696D02*
G75*
G03*
X917774Y-2908696I-50000J0D01*
G01*
X1679774Y-1892696D02*
G75*
G03*
X1679774Y-1892696I-50000J0D01*
G01*
X1679774Y-2146696D02*
G75*
G03*
X1679774Y-2146696I-50000J0D01*
G01*
X1679774Y-2400696D02*
G75*
G03*
X1679774Y-2400696I-50000J0D01*
G01*
X1679774Y-2654696D02*
G75*
G03*
X1679774Y-2654696I-50000J0D01*
G01*
X1679774Y-2908696D02*
G75*
G03*
X1679774Y-2908696I-50000J0D01*
G01*
X2061774Y-3660696D02*
G75*
G03*
X2061774Y-3660696I-50000J0D01*
G01*
X2061774Y-3914696D02*
G75*
G03*
X2061774Y-3914696I-50000J0D01*
G01*
X2061774Y-4168696D02*
G75*
G03*
X2061774Y-4168696I-50000J0D01*
G01*
X2061774Y-4422696D02*
G75*
G03*
X2061774Y-4422696I-50000J0D01*
G01*
X2061774Y-4676696D02*
G75*
G03*
X2061774Y-4676696I-50000J0D01*
G01*
X2061774Y-4930696D02*
G75*
G03*
X2061774Y-4930696I-50000J0D01*
G01*
X2061774Y-5184696D02*
G75*
G03*
X2061774Y-5184696I-50000J0D01*
G01*
X2272500Y-739696D02*
G75*
G03*
X2272500Y-739696I-50000J0D01*
G01*
X2272500Y-993696D02*
G75*
G03*
X2272500Y-993696I-50000J0D01*
G01*
X2272500Y-1628696D02*
G75*
G03*
X2272500Y-1628696I-50000J0D01*
G01*
X2272500Y-1882696D02*
G75*
G03*
X2272500Y-1882696I-50000J0D01*
G01*
X2272500Y-2517696D02*
G75*
G03*
X2272500Y-2517696I-50000J0D01*
G01*
X2272500Y-2771696D02*
G75*
G03*
X2272500Y-2771696I-50000J0D01*
G01*
D11*
X255777Y-5816484D02*
X255777Y-5616484D01*
X255777Y-5616484D02*
X303396Y-5616484D01*
X303396Y-5616484D02*
X331967Y-5626008D01*
X331967Y-5626008D02*
X351015Y-5645055D01*
X351015Y-5645055D02*
X360539Y-5664103D01*
X360539Y-5664103D02*
X370062Y-5702198D01*
X370062Y-5702198D02*
X370062Y-5730769D01*
X370062Y-5730769D02*
X360539Y-5768865D01*
X360539Y-5768865D02*
X351015Y-5787912D01*
X351015Y-5787912D02*
X331967Y-5806960D01*
X331967Y-5806960D02*
X303396Y-5816484D01*
X303396Y-5816484D02*
X255777Y-5816484D01*
X455777Y-5816484D02*
X455777Y-5683150D01*
X455777Y-5721246D02*
X465301Y-5702198D01*
X465301Y-5702198D02*
X474824Y-5692674D01*
X474824Y-5692674D02*
X493872Y-5683150D01*
X493872Y-5683150D02*
X512920Y-5683150D01*
X579586Y-5816484D02*
X579586Y-5683150D01*
X579586Y-5616484D02*
X570063Y-5626008D01*
X570063Y-5626008D02*
X579586Y-5635531D01*
X579586Y-5635531D02*
X589110Y-5626008D01*
X589110Y-5626008D02*
X579586Y-5616484D01*
X579586Y-5616484D02*
X579586Y-5635531D01*
X703396Y-5816484D02*
X684348Y-5806960D01*
X684348Y-5806960D02*
X674824Y-5787912D01*
X674824Y-5787912D02*
X674824Y-5616484D01*
X808158Y-5816484D02*
X789110Y-5806960D01*
X789110Y-5806960D02*
X779586Y-5787912D01*
X779586Y-5787912D02*
X779586Y-5616484D01*
X1036729Y-5816484D02*
X1036729Y-5616484D01*
X1036729Y-5616484D02*
X1103396Y-5759341D01*
X1103396Y-5759341D02*
X1170063Y-5616484D01*
X1170063Y-5616484D02*
X1170063Y-5816484D01*
X1351015Y-5816484D02*
X1351015Y-5711722D01*
X1351015Y-5711722D02*
X1341491Y-5692674D01*
X1341491Y-5692674D02*
X1322444Y-5683150D01*
X1322444Y-5683150D02*
X1284348Y-5683150D01*
X1284348Y-5683150D02*
X1265301Y-5692674D01*
X1351015Y-5806960D02*
X1331967Y-5816484D01*
X1331967Y-5816484D02*
X1284348Y-5816484D01*
X1284348Y-5816484D02*
X1265301Y-5806960D01*
X1265301Y-5806960D02*
X1255777Y-5787912D01*
X1255777Y-5787912D02*
X1255777Y-5768865D01*
X1255777Y-5768865D02*
X1265301Y-5749817D01*
X1265301Y-5749817D02*
X1284348Y-5740293D01*
X1284348Y-5740293D02*
X1331967Y-5740293D01*
X1331967Y-5740293D02*
X1351015Y-5730769D01*
X1446253Y-5683150D02*
X1446253Y-5883150D01*
X1446253Y-5692674D02*
X1465301Y-5683150D01*
X1465301Y-5683150D02*
X1503396Y-5683150D01*
X1503396Y-5683150D02*
X1522443Y-5692674D01*
X1522443Y-5692674D02*
X1531967Y-5702198D01*
X1531967Y-5702198D02*
X1541491Y-5721246D01*
X1541491Y-5721246D02*
X1541491Y-5778388D01*
X1541491Y-5778388D02*
X1531967Y-5797436D01*
X1531967Y-5797436D02*
X1522443Y-5806960D01*
X1522443Y-5806960D02*
X1503396Y-5816484D01*
X1503396Y-5816484D02*
X1465301Y-5816484D01*
X1465301Y-5816484D02*
X1446253Y-5806960D01*
X1627205Y-5797436D02*
X1636729Y-5806960D01*
X1636729Y-5806960D02*
X1627205Y-5816484D01*
X1627205Y-5816484D02*
X1617682Y-5806960D01*
X1617682Y-5806960D02*
X1627205Y-5797436D01*
X1627205Y-5797436D02*
X1627205Y-5816484D01*
X1627205Y-5692674D02*
X1636729Y-5702198D01*
X1636729Y-5702198D02*
X1627205Y-5711722D01*
X1627205Y-5711722D02*
X1617682Y-5702198D01*
X1617682Y-5702198D02*
X1627205Y-5692674D01*
X1627205Y-5692674D02*
X1627205Y-5711722D01*
D10*
X-45000Y-6125000D02*
X-5000Y-6165000D01*
X-5000Y-6125000D02*
X-45000Y-6165000D01*
D11*
X293872Y-6036484D02*
X312920Y-6036484D01*
X312920Y-6036484D02*
X331967Y-6046008D01*
X331967Y-6046008D02*
X341491Y-6055531D01*
X341491Y-6055531D02*
X351015Y-6074579D01*
X351015Y-6074579D02*
X360539Y-6112674D01*
X360539Y-6112674D02*
X360539Y-6160293D01*
X360539Y-6160293D02*
X351015Y-6198388D01*
X351015Y-6198388D02*
X341491Y-6217436D01*
X341491Y-6217436D02*
X331967Y-6226960D01*
X331967Y-6226960D02*
X312920Y-6236484D01*
X312920Y-6236484D02*
X293872Y-6236484D01*
X293872Y-6236484D02*
X274824Y-6226960D01*
X274824Y-6226960D02*
X265301Y-6217436D01*
X265301Y-6217436D02*
X255777Y-6198388D01*
X255777Y-6198388D02*
X246253Y-6160293D01*
X246253Y-6160293D02*
X246253Y-6112674D01*
X246253Y-6112674D02*
X255777Y-6074579D01*
X255777Y-6074579D02*
X265301Y-6055531D01*
X265301Y-6055531D02*
X274824Y-6046008D01*
X274824Y-6046008D02*
X293872Y-6036484D01*
X446253Y-6217436D02*
X455777Y-6226960D01*
X455777Y-6226960D02*
X446253Y-6236484D01*
X446253Y-6236484D02*
X436729Y-6226960D01*
X436729Y-6226960D02*
X446253Y-6217436D01*
X446253Y-6217436D02*
X446253Y-6236484D01*
X627205Y-6103150D02*
X627205Y-6236484D01*
X579586Y-6026960D02*
X531967Y-6169817D01*
X531967Y-6169817D02*
X655777Y-6169817D01*
X770062Y-6036484D02*
X789110Y-6036484D01*
X789110Y-6036484D02*
X808158Y-6046008D01*
X808158Y-6046008D02*
X817682Y-6055531D01*
X817682Y-6055531D02*
X827205Y-6074579D01*
X827205Y-6074579D02*
X836729Y-6112674D01*
X836729Y-6112674D02*
X836729Y-6160293D01*
X836729Y-6160293D02*
X827205Y-6198388D01*
X827205Y-6198388D02*
X817682Y-6217436D01*
X817682Y-6217436D02*
X808158Y-6226960D01*
X808158Y-6226960D02*
X789110Y-6236484D01*
X789110Y-6236484D02*
X770062Y-6236484D01*
X770062Y-6236484D02*
X751015Y-6226960D01*
X751015Y-6226960D02*
X741491Y-6217436D01*
X741491Y-6217436D02*
X731967Y-6198388D01*
X731967Y-6198388D02*
X722443Y-6160293D01*
X722443Y-6160293D02*
X722443Y-6112674D01*
X722443Y-6112674D02*
X731967Y-6074579D01*
X731967Y-6074579D02*
X741491Y-6055531D01*
X741491Y-6055531D02*
X751015Y-6046008D01*
X751015Y-6046008D02*
X770062Y-6036484D01*
X960539Y-6036484D02*
X979586Y-6036484D01*
X979586Y-6036484D02*
X998634Y-6046008D01*
X998634Y-6046008D02*
X1008158Y-6055531D01*
X1008158Y-6055531D02*
X1017682Y-6074579D01*
X1017682Y-6074579D02*
X1027205Y-6112674D01*
X1027205Y-6112674D02*
X1027205Y-6160293D01*
X1027205Y-6160293D02*
X1017682Y-6198388D01*
X1017682Y-6198388D02*
X1008158Y-6217436D01*
X1008158Y-6217436D02*
X998634Y-6226960D01*
X998634Y-6226960D02*
X979586Y-6236484D01*
X979586Y-6236484D02*
X960539Y-6236484D01*
X960539Y-6236484D02*
X941491Y-6226960D01*
X941491Y-6226960D02*
X931967Y-6217436D01*
X931967Y-6217436D02*
X922443Y-6198388D01*
X922443Y-6198388D02*
X912920Y-6160293D01*
X912920Y-6160293D02*
X912920Y-6112674D01*
X912920Y-6112674D02*
X922443Y-6074579D01*
X922443Y-6074579D02*
X931967Y-6055531D01*
X931967Y-6055531D02*
X941491Y-6046008D01*
X941491Y-6046008D02*
X960539Y-6036484D01*
X1112920Y-6236484D02*
X1112920Y-6103150D01*
X1112920Y-6122198D02*
X1122444Y-6112674D01*
X1122444Y-6112674D02*
X1141491Y-6103150D01*
X1141491Y-6103150D02*
X1170063Y-6103150D01*
X1170063Y-6103150D02*
X1189110Y-6112674D01*
X1189110Y-6112674D02*
X1198634Y-6131722D01*
X1198634Y-6131722D02*
X1198634Y-6236484D01*
X1198634Y-6131722D02*
X1208158Y-6112674D01*
X1208158Y-6112674D02*
X1227205Y-6103150D01*
X1227205Y-6103150D02*
X1255777Y-6103150D01*
X1255777Y-6103150D02*
X1274825Y-6112674D01*
X1274825Y-6112674D02*
X1284348Y-6131722D01*
X1284348Y-6131722D02*
X1284348Y-6236484D01*
X1379586Y-6236484D02*
X1379586Y-6103150D01*
X1379586Y-6122198D02*
X1389110Y-6112674D01*
X1389110Y-6112674D02*
X1408158Y-6103150D01*
X1408158Y-6103150D02*
X1436729Y-6103150D01*
X1436729Y-6103150D02*
X1455777Y-6112674D01*
X1455777Y-6112674D02*
X1465301Y-6131722D01*
X1465301Y-6131722D02*
X1465301Y-6236484D01*
X1465301Y-6131722D02*
X1474824Y-6112674D01*
X1474824Y-6112674D02*
X1493872Y-6103150D01*
X1493872Y-6103150D02*
X1522443Y-6103150D01*
X1522443Y-6103150D02*
X1541491Y-6112674D01*
X1541491Y-6112674D02*
X1551015Y-6131722D01*
X1551015Y-6131722D02*
X1551015Y-6236484D01*
X1941491Y-6026960D02*
X1770063Y-6284103D01*
X2198634Y-6036484D02*
X2217682Y-6036484D01*
X2217682Y-6036484D02*
X2236729Y-6046008D01*
X2236729Y-6046008D02*
X2246253Y-6055531D01*
X2246253Y-6055531D02*
X2255777Y-6074579D01*
X2255777Y-6074579D02*
X2265301Y-6112674D01*
X2265301Y-6112674D02*
X2265301Y-6160293D01*
X2265301Y-6160293D02*
X2255777Y-6198388D01*
X2255777Y-6198388D02*
X2246253Y-6217436D01*
X2246253Y-6217436D02*
X2236729Y-6226960D01*
X2236729Y-6226960D02*
X2217682Y-6236484D01*
X2217682Y-6236484D02*
X2198634Y-6236484D01*
X2198634Y-6236484D02*
X2179587Y-6226960D01*
X2179587Y-6226960D02*
X2170063Y-6217436D01*
X2170063Y-6217436D02*
X2160539Y-6198388D01*
X2160539Y-6198388D02*
X2151015Y-6160293D01*
X2151015Y-6160293D02*
X2151015Y-6112674D01*
X2151015Y-6112674D02*
X2160539Y-6074579D01*
X2160539Y-6074579D02*
X2170063Y-6055531D01*
X2170063Y-6055531D02*
X2179587Y-6046008D01*
X2179587Y-6046008D02*
X2198634Y-6036484D01*
X2351015Y-6217436D02*
X2360539Y-6226960D01*
X2360539Y-6226960D02*
X2351015Y-6236484D01*
X2351015Y-6236484D02*
X2341491Y-6226960D01*
X2341491Y-6226960D02*
X2351015Y-6217436D01*
X2351015Y-6217436D02*
X2351015Y-6236484D01*
X2484348Y-6036484D02*
X2503396Y-6036484D01*
X2503396Y-6036484D02*
X2522444Y-6046008D01*
X2522444Y-6046008D02*
X2531968Y-6055531D01*
X2531968Y-6055531D02*
X2541491Y-6074579D01*
X2541491Y-6074579D02*
X2551015Y-6112674D01*
X2551015Y-6112674D02*
X2551015Y-6160293D01*
X2551015Y-6160293D02*
X2541491Y-6198388D01*
X2541491Y-6198388D02*
X2531968Y-6217436D01*
X2531968Y-6217436D02*
X2522444Y-6226960D01*
X2522444Y-6226960D02*
X2503396Y-6236484D01*
X2503396Y-6236484D02*
X2484348Y-6236484D01*
X2484348Y-6236484D02*
X2465301Y-6226960D01*
X2465301Y-6226960D02*
X2455777Y-6217436D01*
X2455777Y-6217436D02*
X2446253Y-6198388D01*
X2446253Y-6198388D02*
X2436729Y-6160293D01*
X2436729Y-6160293D02*
X2436729Y-6112674D01*
X2436729Y-6112674D02*
X2446253Y-6074579D01*
X2446253Y-6074579D02*
X2455777Y-6055531D01*
X2455777Y-6055531D02*
X2465301Y-6046008D01*
X2465301Y-6046008D02*
X2484348Y-6036484D01*
X2741491Y-6236484D02*
X2627206Y-6236484D01*
X2684348Y-6236484D02*
X2684348Y-6036484D01*
X2684348Y-6036484D02*
X2665301Y-6065055D01*
X2665301Y-6065055D02*
X2646253Y-6084103D01*
X2646253Y-6084103D02*
X2627206Y-6093627D01*
X2922444Y-6036484D02*
X2827206Y-6036484D01*
X2827206Y-6036484D02*
X2817682Y-6131722D01*
X2817682Y-6131722D02*
X2827206Y-6122198D01*
X2827206Y-6122198D02*
X2846253Y-6112674D01*
X2846253Y-6112674D02*
X2893872Y-6112674D01*
X2893872Y-6112674D02*
X2912920Y-6122198D01*
X2912920Y-6122198D02*
X2922444Y-6131722D01*
X2922444Y-6131722D02*
X2931967Y-6150769D01*
X2931967Y-6150769D02*
X2931967Y-6198388D01*
X2931967Y-6198388D02*
X2922444Y-6217436D01*
X2922444Y-6217436D02*
X2912920Y-6226960D01*
X2912920Y-6226960D02*
X2893872Y-6236484D01*
X2893872Y-6236484D02*
X2846253Y-6236484D01*
X2846253Y-6236484D02*
X2827206Y-6226960D01*
X2827206Y-6226960D02*
X2817682Y-6217436D01*
X2998634Y-6036484D02*
X3131967Y-6036484D01*
X3131967Y-6036484D02*
X3046253Y-6236484D01*
X3198634Y-6036484D02*
X3198634Y-6074579D01*
X3274825Y-6036484D02*
X3274825Y-6074579D01*
X3570063Y-6312674D02*
X3560539Y-6303150D01*
X3560539Y-6303150D02*
X3541491Y-6274579D01*
X3541491Y-6274579D02*
X3531968Y-6255531D01*
X3531968Y-6255531D02*
X3522444Y-6226960D01*
X3522444Y-6226960D02*
X3512920Y-6179341D01*
X3512920Y-6179341D02*
X3512920Y-6141246D01*
X3512920Y-6141246D02*
X3522444Y-6093627D01*
X3522444Y-6093627D02*
X3531968Y-6065055D01*
X3531968Y-6065055D02*
X3541491Y-6046008D01*
X3541491Y-6046008D02*
X3560539Y-6017436D01*
X3560539Y-6017436D02*
X3570063Y-6007912D01*
X3741491Y-6036484D02*
X3646253Y-6036484D01*
X3646253Y-6036484D02*
X3636729Y-6131722D01*
X3636729Y-6131722D02*
X3646253Y-6122198D01*
X3646253Y-6122198D02*
X3665301Y-6112674D01*
X3665301Y-6112674D02*
X3712920Y-6112674D01*
X3712920Y-6112674D02*
X3731968Y-6122198D01*
X3731968Y-6122198D02*
X3741491Y-6131722D01*
X3741491Y-6131722D02*
X3751015Y-6150769D01*
X3751015Y-6150769D02*
X3751015Y-6198388D01*
X3751015Y-6198388D02*
X3741491Y-6217436D01*
X3741491Y-6217436D02*
X3731968Y-6226960D01*
X3731968Y-6226960D02*
X3712920Y-6236484D01*
X3712920Y-6236484D02*
X3665301Y-6236484D01*
X3665301Y-6236484D02*
X3646253Y-6226960D01*
X3646253Y-6226960D02*
X3636729Y-6217436D01*
X3989110Y-6236484D02*
X3989110Y-6036484D01*
X4074825Y-6236484D02*
X4074825Y-6131722D01*
X4074825Y-6131722D02*
X4065301Y-6112674D01*
X4065301Y-6112674D02*
X4046253Y-6103150D01*
X4046253Y-6103150D02*
X4017682Y-6103150D01*
X4017682Y-6103150D02*
X3998634Y-6112674D01*
X3998634Y-6112674D02*
X3989110Y-6122198D01*
X4198634Y-6236484D02*
X4179587Y-6226960D01*
X4179587Y-6226960D02*
X4170063Y-6217436D01*
X4170063Y-6217436D02*
X4160539Y-6198388D01*
X4160539Y-6198388D02*
X4160539Y-6141246D01*
X4160539Y-6141246D02*
X4170063Y-6122198D01*
X4170063Y-6122198D02*
X4179587Y-6112674D01*
X4179587Y-6112674D02*
X4198634Y-6103150D01*
X4198634Y-6103150D02*
X4227206Y-6103150D01*
X4227206Y-6103150D02*
X4246253Y-6112674D01*
X4246253Y-6112674D02*
X4255777Y-6122198D01*
X4255777Y-6122198D02*
X4265301Y-6141246D01*
X4265301Y-6141246D02*
X4265301Y-6198388D01*
X4265301Y-6198388D02*
X4255777Y-6217436D01*
X4255777Y-6217436D02*
X4246253Y-6226960D01*
X4246253Y-6226960D02*
X4227206Y-6236484D01*
X4227206Y-6236484D02*
X4198634Y-6236484D01*
X4379587Y-6236484D02*
X4360539Y-6226960D01*
X4360539Y-6226960D02*
X4351015Y-6207912D01*
X4351015Y-6207912D02*
X4351015Y-6036484D01*
X4531968Y-6226960D02*
X4512920Y-6236484D01*
X4512920Y-6236484D02*
X4474825Y-6236484D01*
X4474825Y-6236484D02*
X4455777Y-6226960D01*
X4455777Y-6226960D02*
X4446253Y-6207912D01*
X4446253Y-6207912D02*
X4446253Y-6131722D01*
X4446253Y-6131722D02*
X4455777Y-6112674D01*
X4455777Y-6112674D02*
X4474825Y-6103150D01*
X4474825Y-6103150D02*
X4512920Y-6103150D01*
X4512920Y-6103150D02*
X4531968Y-6112674D01*
X4531968Y-6112674D02*
X4541492Y-6131722D01*
X4541492Y-6131722D02*
X4541492Y-6150769D01*
X4541492Y-6150769D02*
X4446253Y-6169817D01*
X4617682Y-6226960D02*
X4636730Y-6236484D01*
X4636730Y-6236484D02*
X4674825Y-6236484D01*
X4674825Y-6236484D02*
X4693873Y-6226960D01*
X4693873Y-6226960D02*
X4703396Y-6207912D01*
X4703396Y-6207912D02*
X4703396Y-6198388D01*
X4703396Y-6198388D02*
X4693873Y-6179341D01*
X4693873Y-6179341D02*
X4674825Y-6169817D01*
X4674825Y-6169817D02*
X4646253Y-6169817D01*
X4646253Y-6169817D02*
X4627206Y-6160293D01*
X4627206Y-6160293D02*
X4617682Y-6141246D01*
X4617682Y-6141246D02*
X4617682Y-6131722D01*
X4617682Y-6131722D02*
X4627206Y-6112674D01*
X4627206Y-6112674D02*
X4646253Y-6103150D01*
X4646253Y-6103150D02*
X4674825Y-6103150D01*
X4674825Y-6103150D02*
X4693873Y-6112674D01*
X4770063Y-6312674D02*
X4779587Y-6303150D01*
X4779587Y-6303150D02*
X4798634Y-6274579D01*
X4798634Y-6274579D02*
X4808158Y-6255531D01*
X4808158Y-6255531D02*
X4817682Y-6226960D01*
X4817682Y-6226960D02*
X4827206Y-6179341D01*
X4827206Y-6179341D02*
X4827206Y-6141246D01*
X4827206Y-6141246D02*
X4817682Y-6093627D01*
X4817682Y-6093627D02*
X4808158Y-6065055D01*
X4808158Y-6065055D02*
X4798634Y-6046008D01*
X4798634Y-6046008D02*
X4779587Y-6017436D01*
X4779587Y-6017436D02*
X4770063Y-6007912D01*
D10*
X-5000Y-6409000D02*
G75*
G03*
X-5000Y-6409000I-50000J0D01*
G01*
D11*
X360539Y-6500484D02*
X246253Y-6500484D01*
X303396Y-6500484D02*
X303396Y-6300484D01*
X303396Y-6300484D02*
X284348Y-6329055D01*
X284348Y-6329055D02*
X265301Y-6348103D01*
X265301Y-6348103D02*
X246253Y-6357627D01*
X446253Y-6481436D02*
X455777Y-6490960D01*
X455777Y-6490960D02*
X446253Y-6500484D01*
X446253Y-6500484D02*
X436729Y-6490960D01*
X436729Y-6490960D02*
X446253Y-6481436D01*
X446253Y-6481436D02*
X446253Y-6500484D01*
X579586Y-6300484D02*
X598634Y-6300484D01*
X598634Y-6300484D02*
X617682Y-6310008D01*
X617682Y-6310008D02*
X627205Y-6319531D01*
X627205Y-6319531D02*
X636729Y-6338579D01*
X636729Y-6338579D02*
X646253Y-6376674D01*
X646253Y-6376674D02*
X646253Y-6424293D01*
X646253Y-6424293D02*
X636729Y-6462388D01*
X636729Y-6462388D02*
X627205Y-6481436D01*
X627205Y-6481436D02*
X617682Y-6490960D01*
X617682Y-6490960D02*
X598634Y-6500484D01*
X598634Y-6500484D02*
X579586Y-6500484D01*
X579586Y-6500484D02*
X560539Y-6490960D01*
X560539Y-6490960D02*
X551015Y-6481436D01*
X551015Y-6481436D02*
X541491Y-6462388D01*
X541491Y-6462388D02*
X531967Y-6424293D01*
X531967Y-6424293D02*
X531967Y-6376674D01*
X531967Y-6376674D02*
X541491Y-6338579D01*
X541491Y-6338579D02*
X551015Y-6319531D01*
X551015Y-6319531D02*
X560539Y-6310008D01*
X560539Y-6310008D02*
X579586Y-6300484D01*
X770062Y-6300484D02*
X789110Y-6300484D01*
X789110Y-6300484D02*
X808158Y-6310008D01*
X808158Y-6310008D02*
X817682Y-6319531D01*
X817682Y-6319531D02*
X827205Y-6338579D01*
X827205Y-6338579D02*
X836729Y-6376674D01*
X836729Y-6376674D02*
X836729Y-6424293D01*
X836729Y-6424293D02*
X827205Y-6462388D01*
X827205Y-6462388D02*
X817682Y-6481436D01*
X817682Y-6481436D02*
X808158Y-6490960D01*
X808158Y-6490960D02*
X789110Y-6500484D01*
X789110Y-6500484D02*
X770062Y-6500484D01*
X770062Y-6500484D02*
X751015Y-6490960D01*
X751015Y-6490960D02*
X741491Y-6481436D01*
X741491Y-6481436D02*
X731967Y-6462388D01*
X731967Y-6462388D02*
X722443Y-6424293D01*
X722443Y-6424293D02*
X722443Y-6376674D01*
X722443Y-6376674D02*
X731967Y-6338579D01*
X731967Y-6338579D02*
X741491Y-6319531D01*
X741491Y-6319531D02*
X751015Y-6310008D01*
X751015Y-6310008D02*
X770062Y-6300484D01*
X960539Y-6300484D02*
X979586Y-6300484D01*
X979586Y-6300484D02*
X998634Y-6310008D01*
X998634Y-6310008D02*
X1008158Y-6319531D01*
X1008158Y-6319531D02*
X1017682Y-6338579D01*
X1017682Y-6338579D02*
X1027205Y-6376674D01*
X1027205Y-6376674D02*
X1027205Y-6424293D01*
X1027205Y-6424293D02*
X1017682Y-6462388D01*
X1017682Y-6462388D02*
X1008158Y-6481436D01*
X1008158Y-6481436D02*
X998634Y-6490960D01*
X998634Y-6490960D02*
X979586Y-6500484D01*
X979586Y-6500484D02*
X960539Y-6500484D01*
X960539Y-6500484D02*
X941491Y-6490960D01*
X941491Y-6490960D02*
X931967Y-6481436D01*
X931967Y-6481436D02*
X922443Y-6462388D01*
X922443Y-6462388D02*
X912920Y-6424293D01*
X912920Y-6424293D02*
X912920Y-6376674D01*
X912920Y-6376674D02*
X922443Y-6338579D01*
X922443Y-6338579D02*
X931967Y-6319531D01*
X931967Y-6319531D02*
X941491Y-6310008D01*
X941491Y-6310008D02*
X960539Y-6300484D01*
X1112920Y-6500484D02*
X1112920Y-6367150D01*
X1112920Y-6386198D02*
X1122444Y-6376674D01*
X1122444Y-6376674D02*
X1141491Y-6367150D01*
X1141491Y-6367150D02*
X1170063Y-6367150D01*
X1170063Y-6367150D02*
X1189110Y-6376674D01*
X1189110Y-6376674D02*
X1198634Y-6395722D01*
X1198634Y-6395722D02*
X1198634Y-6500484D01*
X1198634Y-6395722D02*
X1208158Y-6376674D01*
X1208158Y-6376674D02*
X1227205Y-6367150D01*
X1227205Y-6367150D02*
X1255777Y-6367150D01*
X1255777Y-6367150D02*
X1274825Y-6376674D01*
X1274825Y-6376674D02*
X1284348Y-6395722D01*
X1284348Y-6395722D02*
X1284348Y-6500484D01*
X1379586Y-6500484D02*
X1379586Y-6367150D01*
X1379586Y-6386198D02*
X1389110Y-6376674D01*
X1389110Y-6376674D02*
X1408158Y-6367150D01*
X1408158Y-6367150D02*
X1436729Y-6367150D01*
X1436729Y-6367150D02*
X1455777Y-6376674D01*
X1455777Y-6376674D02*
X1465301Y-6395722D01*
X1465301Y-6395722D02*
X1465301Y-6500484D01*
X1465301Y-6395722D02*
X1474824Y-6376674D01*
X1474824Y-6376674D02*
X1493872Y-6367150D01*
X1493872Y-6367150D02*
X1522443Y-6367150D01*
X1522443Y-6367150D02*
X1541491Y-6376674D01*
X1541491Y-6376674D02*
X1551015Y-6395722D01*
X1551015Y-6395722D02*
X1551015Y-6500484D01*
X1941491Y-6290960D02*
X1770063Y-6548103D01*
X2198634Y-6300484D02*
X2217682Y-6300484D01*
X2217682Y-6300484D02*
X2236729Y-6310008D01*
X2236729Y-6310008D02*
X2246253Y-6319531D01*
X2246253Y-6319531D02*
X2255777Y-6338579D01*
X2255777Y-6338579D02*
X2265301Y-6376674D01*
X2265301Y-6376674D02*
X2265301Y-6424293D01*
X2265301Y-6424293D02*
X2255777Y-6462388D01*
X2255777Y-6462388D02*
X2246253Y-6481436D01*
X2246253Y-6481436D02*
X2236729Y-6490960D01*
X2236729Y-6490960D02*
X2217682Y-6500484D01*
X2217682Y-6500484D02*
X2198634Y-6500484D01*
X2198634Y-6500484D02*
X2179587Y-6490960D01*
X2179587Y-6490960D02*
X2170063Y-6481436D01*
X2170063Y-6481436D02*
X2160539Y-6462388D01*
X2160539Y-6462388D02*
X2151015Y-6424293D01*
X2151015Y-6424293D02*
X2151015Y-6376674D01*
X2151015Y-6376674D02*
X2160539Y-6338579D01*
X2160539Y-6338579D02*
X2170063Y-6319531D01*
X2170063Y-6319531D02*
X2179587Y-6310008D01*
X2179587Y-6310008D02*
X2198634Y-6300484D01*
X2351015Y-6481436D02*
X2360539Y-6490960D01*
X2360539Y-6490960D02*
X2351015Y-6500484D01*
X2351015Y-6500484D02*
X2341491Y-6490960D01*
X2341491Y-6490960D02*
X2351015Y-6481436D01*
X2351015Y-6481436D02*
X2351015Y-6500484D01*
X2484348Y-6300484D02*
X2503396Y-6300484D01*
X2503396Y-6300484D02*
X2522444Y-6310008D01*
X2522444Y-6310008D02*
X2531968Y-6319531D01*
X2531968Y-6319531D02*
X2541491Y-6338579D01*
X2541491Y-6338579D02*
X2551015Y-6376674D01*
X2551015Y-6376674D02*
X2551015Y-6424293D01*
X2551015Y-6424293D02*
X2541491Y-6462388D01*
X2541491Y-6462388D02*
X2531968Y-6481436D01*
X2531968Y-6481436D02*
X2522444Y-6490960D01*
X2522444Y-6490960D02*
X2503396Y-6500484D01*
X2503396Y-6500484D02*
X2484348Y-6500484D01*
X2484348Y-6500484D02*
X2465301Y-6490960D01*
X2465301Y-6490960D02*
X2455777Y-6481436D01*
X2455777Y-6481436D02*
X2446253Y-6462388D01*
X2446253Y-6462388D02*
X2436729Y-6424293D01*
X2436729Y-6424293D02*
X2436729Y-6376674D01*
X2436729Y-6376674D02*
X2446253Y-6338579D01*
X2446253Y-6338579D02*
X2455777Y-6319531D01*
X2455777Y-6319531D02*
X2465301Y-6310008D01*
X2465301Y-6310008D02*
X2484348Y-6300484D01*
X2617682Y-6300484D02*
X2741491Y-6300484D01*
X2741491Y-6300484D02*
X2674825Y-6376674D01*
X2674825Y-6376674D02*
X2703396Y-6376674D01*
X2703396Y-6376674D02*
X2722444Y-6386198D01*
X2722444Y-6386198D02*
X2731968Y-6395722D01*
X2731968Y-6395722D02*
X2741491Y-6414769D01*
X2741491Y-6414769D02*
X2741491Y-6462388D01*
X2741491Y-6462388D02*
X2731968Y-6481436D01*
X2731968Y-6481436D02*
X2722444Y-6490960D01*
X2722444Y-6490960D02*
X2703396Y-6500484D01*
X2703396Y-6500484D02*
X2646253Y-6500484D01*
X2646253Y-6500484D02*
X2627206Y-6490960D01*
X2627206Y-6490960D02*
X2617682Y-6481436D01*
X2836729Y-6500484D02*
X2874825Y-6500484D01*
X2874825Y-6500484D02*
X2893872Y-6490960D01*
X2893872Y-6490960D02*
X2903396Y-6481436D01*
X2903396Y-6481436D02*
X2922444Y-6452865D01*
X2922444Y-6452865D02*
X2931967Y-6414769D01*
X2931967Y-6414769D02*
X2931967Y-6338579D01*
X2931967Y-6338579D02*
X2922444Y-6319531D01*
X2922444Y-6319531D02*
X2912920Y-6310008D01*
X2912920Y-6310008D02*
X2893872Y-6300484D01*
X2893872Y-6300484D02*
X2855777Y-6300484D01*
X2855777Y-6300484D02*
X2836729Y-6310008D01*
X2836729Y-6310008D02*
X2827206Y-6319531D01*
X2827206Y-6319531D02*
X2817682Y-6338579D01*
X2817682Y-6338579D02*
X2817682Y-6386198D01*
X2817682Y-6386198D02*
X2827206Y-6405246D01*
X2827206Y-6405246D02*
X2836729Y-6414769D01*
X2836729Y-6414769D02*
X2855777Y-6424293D01*
X2855777Y-6424293D02*
X2893872Y-6424293D01*
X2893872Y-6424293D02*
X2912920Y-6414769D01*
X2912920Y-6414769D02*
X2922444Y-6405246D01*
X2922444Y-6405246D02*
X2931967Y-6386198D01*
X3103396Y-6367150D02*
X3103396Y-6500484D01*
X3055777Y-6290960D02*
X3008158Y-6433817D01*
X3008158Y-6433817D02*
X3131967Y-6433817D01*
X3198634Y-6300484D02*
X3198634Y-6338579D01*
X3274825Y-6300484D02*
X3274825Y-6338579D01*
X3570063Y-6576674D02*
X3560539Y-6567150D01*
X3560539Y-6567150D02*
X3541491Y-6538579D01*
X3541491Y-6538579D02*
X3531968Y-6519531D01*
X3531968Y-6519531D02*
X3522444Y-6490960D01*
X3522444Y-6490960D02*
X3512920Y-6443341D01*
X3512920Y-6443341D02*
X3512920Y-6405246D01*
X3512920Y-6405246D02*
X3522444Y-6357627D01*
X3522444Y-6357627D02*
X3531968Y-6329055D01*
X3531968Y-6329055D02*
X3541491Y-6310008D01*
X3541491Y-6310008D02*
X3560539Y-6281436D01*
X3560539Y-6281436D02*
X3570063Y-6271912D01*
X3627206Y-6300484D02*
X3751015Y-6300484D01*
X3751015Y-6300484D02*
X3684348Y-6376674D01*
X3684348Y-6376674D02*
X3712920Y-6376674D01*
X3712920Y-6376674D02*
X3731968Y-6386198D01*
X3731968Y-6386198D02*
X3741491Y-6395722D01*
X3741491Y-6395722D02*
X3751015Y-6414769D01*
X3751015Y-6414769D02*
X3751015Y-6462388D01*
X3751015Y-6462388D02*
X3741491Y-6481436D01*
X3741491Y-6481436D02*
X3731968Y-6490960D01*
X3731968Y-6490960D02*
X3712920Y-6500484D01*
X3712920Y-6500484D02*
X3655777Y-6500484D01*
X3655777Y-6500484D02*
X3636729Y-6490960D01*
X3636729Y-6490960D02*
X3627206Y-6481436D01*
X3817682Y-6300484D02*
X3951015Y-6300484D01*
X3951015Y-6300484D02*
X3865301Y-6500484D01*
X4179587Y-6500484D02*
X4179587Y-6300484D01*
X4265301Y-6500484D02*
X4265301Y-6395722D01*
X4265301Y-6395722D02*
X4255777Y-6376674D01*
X4255777Y-6376674D02*
X4236730Y-6367150D01*
X4236730Y-6367150D02*
X4208158Y-6367150D01*
X4208158Y-6367150D02*
X4189110Y-6376674D01*
X4189110Y-6376674D02*
X4179587Y-6386198D01*
X4389111Y-6500484D02*
X4370063Y-6490960D01*
X4370063Y-6490960D02*
X4360539Y-6481436D01*
X4360539Y-6481436D02*
X4351015Y-6462388D01*
X4351015Y-6462388D02*
X4351015Y-6405246D01*
X4351015Y-6405246D02*
X4360539Y-6386198D01*
X4360539Y-6386198D02*
X4370063Y-6376674D01*
X4370063Y-6376674D02*
X4389111Y-6367150D01*
X4389111Y-6367150D02*
X4417682Y-6367150D01*
X4417682Y-6367150D02*
X4436730Y-6376674D01*
X4436730Y-6376674D02*
X4446253Y-6386198D01*
X4446253Y-6386198D02*
X4455777Y-6405246D01*
X4455777Y-6405246D02*
X4455777Y-6462388D01*
X4455777Y-6462388D02*
X4446253Y-6481436D01*
X4446253Y-6481436D02*
X4436730Y-6490960D01*
X4436730Y-6490960D02*
X4417682Y-6500484D01*
X4417682Y-6500484D02*
X4389111Y-6500484D01*
X4570063Y-6500484D02*
X4551015Y-6490960D01*
X4551015Y-6490960D02*
X4541492Y-6471912D01*
X4541492Y-6471912D02*
X4541492Y-6300484D01*
X4722444Y-6490960D02*
X4703396Y-6500484D01*
X4703396Y-6500484D02*
X4665301Y-6500484D01*
X4665301Y-6500484D02*
X4646253Y-6490960D01*
X4646253Y-6490960D02*
X4636730Y-6471912D01*
X4636730Y-6471912D02*
X4636730Y-6395722D01*
X4636730Y-6395722D02*
X4646253Y-6376674D01*
X4646253Y-6376674D02*
X4665301Y-6367150D01*
X4665301Y-6367150D02*
X4703396Y-6367150D01*
X4703396Y-6367150D02*
X4722444Y-6376674D01*
X4722444Y-6376674D02*
X4731968Y-6395722D01*
X4731968Y-6395722D02*
X4731968Y-6414769D01*
X4731968Y-6414769D02*
X4636730Y-6433817D01*
X4808158Y-6490960D02*
X4827206Y-6500484D01*
X4827206Y-6500484D02*
X4865301Y-6500484D01*
X4865301Y-6500484D02*
X4884349Y-6490960D01*
X4884349Y-6490960D02*
X4893873Y-6471912D01*
X4893873Y-6471912D02*
X4893873Y-6462388D01*
X4893873Y-6462388D02*
X4884349Y-6443341D01*
X4884349Y-6443341D02*
X4865301Y-6433817D01*
X4865301Y-6433817D02*
X4836730Y-6433817D01*
X4836730Y-6433817D02*
X4817682Y-6424293D01*
X4817682Y-6424293D02*
X4808158Y-6405246D01*
X4808158Y-6405246D02*
X4808158Y-6395722D01*
X4808158Y-6395722D02*
X4817682Y-6376674D01*
X4817682Y-6376674D02*
X4836730Y-6367150D01*
X4836730Y-6367150D02*
X4865301Y-6367150D01*
X4865301Y-6367150D02*
X4884349Y-6376674D01*
X4960539Y-6576674D02*
X4970063Y-6567150D01*
X4970063Y-6567150D02*
X4989111Y-6538579D01*
X4989111Y-6538579D02*
X4998634Y-6519531D01*
X4998634Y-6519531D02*
X5008158Y-6490960D01*
X5008158Y-6490960D02*
X5017682Y-6443341D01*
X5017682Y-6443341D02*
X5017682Y-6405246D01*
X5017682Y-6405246D02*
X5008158Y-6357627D01*
X5008158Y-6357627D02*
X4998634Y-6329055D01*
X4998634Y-6329055D02*
X4989111Y-6310008D01*
X4989111Y-6310008D02*
X4970063Y-6281436D01*
X4970063Y-6281436D02*
X4960539Y-6271912D01*
M02*
