%TF.GenerationSoftware,KiCad,Pcbnew,7.0.9*%
%TF.CreationDate,2025-03-23T17:44:29-04:00*%
%TF.ProjectId,Compact_Control,436f6d70-6163-4745-9f43-6f6e74726f6c,rev?*%
%TF.SameCoordinates,Original*%
%TF.FileFunction,Copper,L1,Top*%
%TF.FilePolarity,Positive*%
%FSLAX46Y46*%
G04 Gerber Fmt 4.6, Leading zero omitted, Abs format (unit mm)*
G04 Created by KiCad (PCBNEW 7.0.9) date 2025-03-23 17:44:29*
%MOMM*%
%LPD*%
G01*
G04 APERTURE LIST*
G04 Aperture macros list*
%AMRoundRect*
0 Rectangle with rounded corners*
0 $1 Rounding radius*
0 $2 $3 $4 $5 $6 $7 $8 $9 X,Y pos of 4 corners*
0 Add a 4 corners polygon primitive as box body*
4,1,4,$2,$3,$4,$5,$6,$7,$8,$9,$2,$3,0*
0 Add four circle primitives for the rounded corners*
1,1,$1+$1,$2,$3*
1,1,$1+$1,$4,$5*
1,1,$1+$1,$6,$7*
1,1,$1+$1,$8,$9*
0 Add four rect primitives between the rounded corners*
20,1,$1+$1,$2,$3,$4,$5,0*
20,1,$1+$1,$4,$5,$6,$7,0*
20,1,$1+$1,$6,$7,$8,$9,0*
20,1,$1+$1,$8,$9,$2,$3,0*%
G04 Aperture macros list end*
%TA.AperFunction,ComponentPad*%
%ADD10R,1.700000X1.700000*%
%TD*%
%TA.AperFunction,ComponentPad*%
%ADD11C,1.700000*%
%TD*%
%TA.AperFunction,SMDPad,CuDef*%
%ADD12RoundRect,0.100000X-0.217500X-0.100000X0.217500X-0.100000X0.217500X0.100000X-0.217500X0.100000X0*%
%TD*%
%TA.AperFunction,ComponentPad*%
%ADD13O,1.700000X1.700000*%
%TD*%
%TA.AperFunction,SMDPad,CuDef*%
%ADD14RoundRect,0.150000X-0.587500X-0.150000X0.587500X-0.150000X0.587500X0.150000X-0.587500X0.150000X0*%
%TD*%
%TA.AperFunction,SMDPad,CuDef*%
%ADD15RoundRect,0.100000X-0.100000X0.217500X-0.100000X-0.217500X0.100000X-0.217500X0.100000X0.217500X0*%
%TD*%
%TA.AperFunction,SMDPad,CuDef*%
%ADD16RoundRect,0.250000X-0.300000X-0.300000X0.300000X-0.300000X0.300000X0.300000X-0.300000X0.300000X0*%
%TD*%
%TA.AperFunction,SMDPad,CuDef*%
%ADD17RoundRect,0.250000X0.300000X-0.300000X0.300000X0.300000X-0.300000X0.300000X-0.300000X-0.300000X0*%
%TD*%
%TA.AperFunction,ViaPad*%
%ADD18C,0.800000*%
%TD*%
%TA.AperFunction,Conductor*%
%ADD19C,1.000000*%
%TD*%
%TA.AperFunction,Conductor*%
%ADD20C,0.250000*%
%TD*%
G04 APERTURE END LIST*
D10*
%TO.P,U1,1,PA02_A0_D0*%
%TO.N,LED0*%
X20117738Y-51846960D03*
D11*
%TO.P,U1,2,PA4_A1_D1*%
%TO.N,LED1*%
X20117738Y-49306960D03*
%TO.P,U1,3,PA10_A2_D2*%
%TO.N,LED2*%
X20117738Y-46766960D03*
%TO.P,U1,4,PA11_A3_D3*%
%TO.N,LED3*%
X20117738Y-44226960D03*
%TO.P,U1,5,PA8_A4_D4_SDA*%
%TO.N,SDA*%
X20117738Y-41686960D03*
%TO.P,U1,6,PA9_A5_D5_SCL*%
%TO.N,SCL*%
X20117738Y-39146960D03*
%TO.P,U1,7,PB08_A6_D6_TX*%
%TO.N,unconnected-(U1-PB08_A6_D6_TX-Pad7)*%
X20117738Y-36606960D03*
%TO.P,U1,8,PB09_A7_D7_RX*%
%TO.N,unconnected-(U1-PB09_A7_D7_RX-Pad8)*%
X4867738Y-36606960D03*
%TO.P,U1,9,PA7_A8_D8_SCK*%
%TO.N,PUMP_PWM*%
X4867738Y-39146960D03*
%TO.P,U1,10,PA5_A9_D9_MISO*%
%TO.N,VALVE_1_PFM*%
X4867738Y-41686960D03*
%TO.P,U1,11,PA6_A10_D10_MOSI*%
%TO.N,VALVE_2_PFM*%
X4867738Y-44226960D03*
%TO.P,U1,12,3V3*%
%TO.N,3V3*%
X4867738Y-46766960D03*
%TO.P,U1,13,GND*%
%TO.N,GND*%
X4867738Y-49306960D03*
%TO.P,U1,14,5V*%
%TO.N,Net-(D1-K)*%
X4867738Y-51846960D03*
%TD*%
D12*
%TO.P,D6,1,K*%
%TO.N,GND*%
X10377738Y-1681960D03*
%TO.P,D6,2,A*%
%TO.N,Net-(D6-A)*%
X11192738Y-1681960D03*
%TD*%
D10*
%TO.P,J6,1,Pin_1*%
%TO.N,VIN*%
X2794000Y-26162000D03*
D13*
%TO.P,J6,2,Pin_2*%
%TO.N,VIN_SRC*%
X2794000Y-23622000D03*
%TO.P,J6,3,Pin_3*%
%TO.N,unconnected-(J6-Pin_3-Pad3)*%
X2794000Y-21082000D03*
%TD*%
D12*
%TO.P,D4,1,K*%
%TO.N,GND*%
X17997738Y-1681960D03*
%TO.P,D4,2,A*%
%TO.N,Net-(D4-A)*%
X18812738Y-1681960D03*
%TD*%
D14*
%TO.P,Q2,1,G*%
%TO.N,VALVE_2_PFM*%
X9645238Y-12796960D03*
%TO.P,Q2,2,S*%
%TO.N,GND*%
X9645238Y-14696960D03*
%TO.P,Q2,3,D*%
%TO.N,Net-(D3-A)*%
X11520238Y-13746960D03*
%TD*%
D10*
%TO.P,J4,1,Pin_1*%
%TO.N,GND*%
X2794000Y-14986000D03*
D13*
%TO.P,J4,2,Pin_2*%
%TO.N,VIN_SRC*%
X2794000Y-12446000D03*
%TO.P,J4,3,Pin_3*%
%TO.N,SDA*%
X2794000Y-9906000D03*
%TO.P,J4,4,Pin_4*%
%TO.N,SCL*%
X2794000Y-7366000D03*
%TD*%
D10*
%TO.P,J3,1,Pin_1*%
%TO.N,PUMP_-*%
X22225000Y-25176960D03*
D13*
%TO.P,J3,2,Pin_2*%
%TO.N,PUMP_+*%
X22225000Y-27716960D03*
%TD*%
D10*
%TO.P,J1,1,Pin_1*%
%TO.N,Net-(D2-A)*%
X22225000Y-7396960D03*
D13*
%TO.P,J1,2,Pin_2*%
%TO.N,VIN*%
X22225000Y-9936960D03*
%TD*%
D15*
%TO.P,R4,1*%
%TO.N,Net-(D7-A)*%
X7407738Y-3406960D03*
%TO.P,R4,2*%
%TO.N,LED3*%
X7407738Y-4221960D03*
%TD*%
D14*
%TO.P,Q1,1,G*%
%TO.N,VALVE_1_PFM*%
X9645238Y-7716960D03*
%TO.P,Q1,2,S*%
%TO.N,GND*%
X9645238Y-9616960D03*
%TO.P,Q1,3,D*%
%TO.N,Net-(D2-A)*%
X11520238Y-8666960D03*
%TD*%
D10*
%TO.P,U2,1,GND*%
%TO.N,GND*%
X8677738Y-18926960D03*
D13*
%TO.P,U2,2,VCC*%
%TO.N,3V3*%
X8677738Y-21466960D03*
%TO.P,U2,3,EN/PWM*%
%TO.N,PUMP_PWM*%
X8677738Y-24006960D03*
%TO.P,U2,4,PHASE*%
%TO.N,GND*%
X8677738Y-26546960D03*
%TO.P,U2,5,~SLEEP*%
%TO.N,unconnected-(U2-~SLEEP-Pad5)*%
X8677738Y-29086960D03*
D10*
%TO.P,U2,6,GND*%
%TO.N,GND*%
X16297738Y-18926960D03*
D13*
%TO.P,U2,7,VIN*%
%TO.N,VIN*%
X16297738Y-21466960D03*
%TO.P,U2,8,OUT2*%
%TO.N,PUMP_-*%
X16297738Y-24006960D03*
%TO.P,U2,9,OUT1*%
%TO.N,PUMP_+*%
X16297738Y-26546960D03*
%TO.P,U2,10,VM*%
%TO.N,unconnected-(U2-VM-Pad10)*%
X16297738Y-29086960D03*
%TD*%
D15*
%TO.P,R1,1*%
%TO.N,Net-(D4-A)*%
X18837738Y-3406960D03*
%TO.P,R1,2*%
%TO.N,LED0*%
X18837738Y-4221960D03*
%TD*%
D16*
%TO.P,D1,1,K*%
%TO.N,Net-(D1-K)*%
X2832738Y-32161960D03*
%TO.P,D1,2,A*%
%TO.N,VIN*%
X5632738Y-32161960D03*
%TD*%
D15*
%TO.P,R3,1*%
%TO.N,Net-(D6-A)*%
X11217738Y-3406960D03*
%TO.P,R3,2*%
%TO.N,LED2*%
X11217738Y-4221960D03*
%TD*%
D17*
%TO.P,D2,1,K*%
%TO.N,VIN*%
X16932738Y-10066960D03*
%TO.P,D2,2,A*%
%TO.N,Net-(D2-A)*%
X16932738Y-7266960D03*
%TD*%
%TO.P,D3,1,K*%
%TO.N,VIN*%
X16932738Y-15781960D03*
%TO.P,D3,2,A*%
%TO.N,Net-(D3-A)*%
X16932738Y-12981960D03*
%TD*%
D15*
%TO.P,R2,1*%
%TO.N,Net-(D5-A)*%
X15027738Y-3406960D03*
%TO.P,R2,2*%
%TO.N,LED1*%
X15027738Y-4221960D03*
%TD*%
D12*
%TO.P,D5,1,K*%
%TO.N,GND*%
X14187738Y-1681960D03*
%TO.P,D5,2,A*%
%TO.N,Net-(D5-A)*%
X15002738Y-1681960D03*
%TD*%
D10*
%TO.P,J2,1,Pin_1*%
%TO.N,Net-(D3-A)*%
X22225000Y-16286960D03*
D13*
%TO.P,J2,2,Pin_2*%
%TO.N,VIN*%
X22225000Y-18826960D03*
%TD*%
D12*
%TO.P,D7,1,K*%
%TO.N,GND*%
X6567738Y-1681960D03*
%TO.P,D7,2,A*%
%TO.N,Net-(D7-A)*%
X7382738Y-1681960D03*
%TD*%
D18*
%TO.N,VIN*%
X9947738Y-32034960D03*
%TO.N,LED0*%
X18837738Y-5491960D03*
%TO.N,LED1*%
X15027738Y-5491960D03*
%TO.N,LED2*%
X11217738Y-5491960D03*
%TO.N,LED3*%
X7407738Y-5491960D03*
%TD*%
D19*
%TO.N,Net-(D1-K)*%
X1905000Y-48884222D02*
X4867738Y-51846960D01*
X1905000Y-33089698D02*
X1905000Y-48884222D01*
X2832738Y-32161960D02*
X1905000Y-33089698D01*
%TO.N,VIN*%
X19977738Y-18826960D02*
X16932738Y-15781960D01*
X12700000Y-25064698D02*
X12700000Y-29282698D01*
X21247738Y-10066960D02*
X21377738Y-9936960D01*
X5632738Y-28492738D02*
X5632738Y-32161960D01*
X16932738Y-10066960D02*
X21247738Y-10066960D01*
X16297738Y-21466960D02*
X12700000Y-25064698D01*
X3302000Y-26162000D02*
X5632738Y-28492738D01*
X21377738Y-18826960D02*
X18737738Y-21466960D01*
X2794000Y-26162000D02*
X3302000Y-26162000D01*
X18737738Y-21466960D02*
X16297738Y-21466960D01*
X12700000Y-29282698D02*
X9947738Y-32034960D01*
X21377738Y-18826960D02*
X19977738Y-18826960D01*
%TO.N,Net-(D2-A)*%
X17062738Y-7396960D02*
X16932738Y-7266960D01*
X12920238Y-7266960D02*
X11520238Y-8666960D01*
X21377738Y-7396960D02*
X17062738Y-7396960D01*
X16932738Y-7266960D02*
X12920238Y-7266960D01*
%TO.N,Net-(D3-A)*%
X21377738Y-16286960D02*
X20237738Y-16286960D01*
X20237738Y-16286960D02*
X16932738Y-12981960D01*
X12285238Y-12981960D02*
X11520238Y-13746960D01*
X16932738Y-12981960D02*
X12285238Y-12981960D01*
D20*
%TO.N,Net-(D4-A)*%
X18837738Y-3406960D02*
X18837738Y-1706960D01*
X18837738Y-1706960D02*
X18812738Y-1681960D01*
%TO.N,Net-(D5-A)*%
X15027738Y-1706960D02*
X15002738Y-1681960D01*
X15027738Y-3406960D02*
X15027738Y-1706960D01*
%TO.N,Net-(D6-A)*%
X11217738Y-3406960D02*
X11217738Y-1706960D01*
X11217738Y-1706960D02*
X11192738Y-1681960D01*
%TO.N,Net-(D7-A)*%
X7407738Y-1706960D02*
X7382738Y-1681960D01*
X7407738Y-3406960D02*
X7407738Y-1706960D01*
D19*
%TO.N,PUMP_-*%
X17467738Y-25176960D02*
X16297738Y-24006960D01*
X22225000Y-25176960D02*
X17467738Y-25176960D01*
%TO.N,PUMP_+*%
X20968040Y-26670000D02*
X16420778Y-26670000D01*
X16420778Y-26670000D02*
X16297738Y-26546960D01*
X22225000Y-27716960D02*
X22015000Y-27716960D01*
X22015000Y-27716960D02*
X20968040Y-26670000D01*
D20*
%TO.N,VALVE_1_PFM*%
X6858000Y-10504198D02*
X9645238Y-7716960D01*
X6858000Y-39696698D02*
X6858000Y-10504198D01*
X4867738Y-41686960D02*
X6858000Y-39696698D01*
%TO.N,VALVE_2_PFM*%
X7308000Y-41786698D02*
X4867738Y-44226960D01*
X7308000Y-15134198D02*
X7308000Y-41786698D01*
X9645238Y-12796960D02*
X7308000Y-15134198D01*
%TO.N,LED0*%
X18837738Y-4221960D02*
X18837738Y-5491960D01*
%TO.N,LED1*%
X15027738Y-4221960D02*
X15027738Y-5491960D01*
%TO.N,LED2*%
X11217738Y-4221960D02*
X11217738Y-5491960D01*
%TO.N,LED3*%
X7407738Y-4221960D02*
X7407738Y-5491960D01*
%TD*%
%TA.AperFunction,Conductor*%
%TO.N,GND*%
G36*
X17852941Y-18117530D02*
G01*
X17859419Y-18123562D01*
X19175136Y-19439279D01*
X19208621Y-19500602D01*
X19203637Y-19570294D01*
X19175136Y-19614641D01*
X18359637Y-20430141D01*
X18298314Y-20463626D01*
X18271956Y-20466460D01*
X17417168Y-20466460D01*
X17350129Y-20446775D01*
X17304374Y-20393971D01*
X17294430Y-20324813D01*
X17323455Y-20261257D01*
X17373835Y-20226278D01*
X17389824Y-20220314D01*
X17389831Y-20220310D01*
X17504925Y-20134150D01*
X17504928Y-20134147D01*
X17591088Y-20019053D01*
X17591092Y-20019046D01*
X17641334Y-19884339D01*
X17641336Y-19884332D01*
X17647737Y-19824804D01*
X17647738Y-19824787D01*
X17647738Y-19176960D01*
X16731424Y-19176960D01*
X16757231Y-19136804D01*
X16797738Y-18998849D01*
X16797738Y-18855071D01*
X16757231Y-18717116D01*
X16731424Y-18676960D01*
X17647738Y-18676960D01*
X17647738Y-18211243D01*
X17667423Y-18144204D01*
X17720227Y-18098449D01*
X17789385Y-18088505D01*
X17852941Y-18117530D01*
G37*
%TD.AperFunction*%
%TA.AperFunction,Conductor*%
G36*
X23342940Y-20185D02*
G01*
X23388695Y-72989D01*
X23398187Y-110185D01*
X23398870Y-110087D01*
X23432080Y-341075D01*
X23432083Y-341085D01*
X23496583Y-560751D01*
X23591680Y-768985D01*
X23591693Y-769008D01*
X23715456Y-961587D01*
X23715460Y-961593D01*
X23865384Y-1134615D01*
X24038406Y-1284539D01*
X24038412Y-1284543D01*
X24230991Y-1408306D01*
X24231014Y-1408319D01*
X24439248Y-1503416D01*
X24439252Y-1503417D01*
X24439254Y-1503418D01*
X24658920Y-1567918D01*
X24658921Y-1567918D01*
X24658924Y-1567919D01*
X24819053Y-1590942D01*
X24885530Y-1600500D01*
X24885531Y-1600500D01*
X24889913Y-1601130D01*
X24889726Y-1602424D01*
X24949801Y-1624825D01*
X24991678Y-1680755D01*
X24999500Y-1724099D01*
X24999500Y-53275900D01*
X24979815Y-53342939D01*
X24927011Y-53388694D01*
X24889815Y-53398192D01*
X24889913Y-53398870D01*
X24885531Y-53399500D01*
X24885530Y-53399500D01*
X24862986Y-53402741D01*
X24658924Y-53432080D01*
X24658914Y-53432083D01*
X24439248Y-53496583D01*
X24231014Y-53591680D01*
X24230991Y-53591693D01*
X24038412Y-53715456D01*
X24038406Y-53715460D01*
X23865384Y-53865384D01*
X23715460Y-54038406D01*
X23715456Y-54038412D01*
X23591693Y-54230991D01*
X23591680Y-54231014D01*
X23496583Y-54439248D01*
X23432083Y-54658914D01*
X23432080Y-54658924D01*
X23398870Y-54889913D01*
X23397575Y-54889726D01*
X23375175Y-54949801D01*
X23319245Y-54991678D01*
X23275901Y-54999500D01*
X1724099Y-54999500D01*
X1657060Y-54979815D01*
X1611305Y-54927011D01*
X1601812Y-54889814D01*
X1601130Y-54889913D01*
X1567919Y-54658924D01*
X1567916Y-54658914D01*
X1503416Y-54439248D01*
X1408319Y-54231014D01*
X1408306Y-54230991D01*
X1284543Y-54038412D01*
X1284539Y-54038406D01*
X1134615Y-53865384D01*
X961593Y-53715460D01*
X961587Y-53715456D01*
X769008Y-53591693D01*
X768985Y-53591680D01*
X560751Y-53496583D01*
X341085Y-53432083D01*
X341075Y-53432080D01*
X139648Y-53403120D01*
X114470Y-53399500D01*
X114469Y-53399500D01*
X110087Y-53398870D01*
X110271Y-53397583D01*
X50168Y-53375151D01*
X8309Y-53319209D01*
X500Y-53275900D01*
X500Y-33115172D01*
X899662Y-33115172D01*
X901707Y-33131225D01*
X904003Y-33149258D01*
X904500Y-33157086D01*
X904500Y-48871505D01*
X902243Y-48960584D01*
X902243Y-48960592D01*
X913064Y-49020961D01*
X913718Y-49025626D01*
X919925Y-49086652D01*
X919927Y-49086666D01*
X930208Y-49119435D01*
X932079Y-49127059D01*
X938142Y-49160874D01*
X938142Y-49160877D01*
X960894Y-49217834D01*
X962474Y-49222273D01*
X980841Y-49280810D01*
X980844Y-49280817D01*
X997509Y-49310841D01*
X1000879Y-49317936D01*
X1013622Y-49349836D01*
X1013627Y-49349846D01*
X1047377Y-49401055D01*
X1049818Y-49405085D01*
X1079588Y-49458720D01*
X1079589Y-49458721D01*
X1079591Y-49458724D01*
X1101968Y-49484789D01*
X1106693Y-49491057D01*
X1119263Y-49510128D01*
X1125598Y-49519741D01*
X1168978Y-49563121D01*
X1172169Y-49566565D01*
X1212131Y-49613114D01*
X1212134Y-49613117D01*
X1239294Y-49634140D01*
X1245190Y-49639333D01*
X3485846Y-51879989D01*
X3519331Y-51941312D01*
X3521693Y-51956861D01*
X3532674Y-52082363D01*
X3532676Y-52082373D01*
X3593832Y-52310615D01*
X3593834Y-52310619D01*
X3593835Y-52310623D01*
X3693703Y-52524790D01*
X3693705Y-52524794D01*
X3802019Y-52679481D01*
X3829243Y-52718361D01*
X3996337Y-52885455D01*
X4093122Y-52953225D01*
X4189903Y-53020992D01*
X4189905Y-53020993D01*
X4189908Y-53020995D01*
X4404075Y-53120863D01*
X4632330Y-53182023D01*
X4808772Y-53197460D01*
X4867737Y-53202619D01*
X4867738Y-53202619D01*
X4867739Y-53202619D01*
X4926704Y-53197460D01*
X5103146Y-53182023D01*
X5331401Y-53120863D01*
X5545568Y-53020995D01*
X5739139Y-52885455D01*
X5906233Y-52718361D01*
X6041773Y-52524790D01*
X6141641Y-52310623D01*
X6202801Y-52082368D01*
X6223397Y-51846960D01*
X6202801Y-51611552D01*
X6141641Y-51383297D01*
X6041773Y-51169131D01*
X5906233Y-50975559D01*
X5906232Y-50975557D01*
X5739140Y-50808466D01*
X5739139Y-50808465D01*
X5553143Y-50678229D01*
X5509519Y-50623652D01*
X5502326Y-50554153D01*
X5533848Y-50491799D01*
X5553143Y-50475079D01*
X5629111Y-50421885D01*
X5000271Y-49793046D01*
X5010053Y-49791640D01*
X5140838Y-49731912D01*
X5249499Y-49637758D01*
X5327231Y-49516804D01*
X5350814Y-49436484D01*
X5982663Y-50068333D01*
X5982664Y-50068333D01*
X6041336Y-49984542D01*
X6041338Y-49984538D01*
X6141167Y-49770452D01*
X6141171Y-49770443D01*
X6202305Y-49542286D01*
X6202307Y-49542275D01*
X6222895Y-49306961D01*
X6222895Y-49306960D01*
X18762079Y-49306960D01*
X18782674Y-49542363D01*
X18782676Y-49542373D01*
X18843832Y-49770615D01*
X18843834Y-49770619D01*
X18843835Y-49770623D01*
X18943585Y-49984538D01*
X18943703Y-49984790D01*
X18943705Y-49984794D01*
X19002200Y-50068333D01*
X19079239Y-50178356D01*
X19079244Y-50178362D01*
X19201168Y-50300286D01*
X19234653Y-50361609D01*
X19229669Y-50431301D01*
X19187797Y-50487234D01*
X19156821Y-50504149D01*
X19025407Y-50553163D01*
X19025402Y-50553166D01*
X18910193Y-50639412D01*
X18910190Y-50639415D01*
X18823944Y-50754624D01*
X18823940Y-50754631D01*
X18773646Y-50889477D01*
X18767239Y-50949076D01*
X18767239Y-50949083D01*
X18767238Y-50949095D01*
X18767238Y-52744830D01*
X18767239Y-52744836D01*
X18773646Y-52804443D01*
X18823940Y-52939288D01*
X18823944Y-52939295D01*
X18910190Y-53054504D01*
X18910193Y-53054507D01*
X19025402Y-53140753D01*
X19025409Y-53140757D01*
X19160255Y-53191051D01*
X19160254Y-53191051D01*
X19167182Y-53191795D01*
X19219865Y-53197460D01*
X21015610Y-53197459D01*
X21075221Y-53191051D01*
X21210069Y-53140756D01*
X21325284Y-53054506D01*
X21411534Y-52939291D01*
X21461829Y-52804443D01*
X21468238Y-52744833D01*
X21468237Y-50949088D01*
X21461829Y-50889477D01*
X21411534Y-50754629D01*
X21411533Y-50754628D01*
X21411531Y-50754624D01*
X21325285Y-50639415D01*
X21325282Y-50639412D01*
X21210073Y-50553166D01*
X21210066Y-50553162D01*
X21078655Y-50504149D01*
X21022721Y-50462278D01*
X20998304Y-50396813D01*
X21013156Y-50328540D01*
X21034301Y-50300292D01*
X21156233Y-50178361D01*
X21291773Y-49984790D01*
X21391641Y-49770623D01*
X21452801Y-49542368D01*
X21473397Y-49306960D01*
X21452801Y-49071552D01*
X21402013Y-48882008D01*
X21391643Y-48843304D01*
X21391642Y-48843303D01*
X21391641Y-48843297D01*
X21291773Y-48629131D01*
X21233275Y-48545586D01*
X21156232Y-48435557D01*
X20989140Y-48268466D01*
X20989134Y-48268461D01*
X20803580Y-48138535D01*
X20759955Y-48083958D01*
X20752761Y-48014460D01*
X20784284Y-47952105D01*
X20803580Y-47935385D01*
X20825764Y-47919851D01*
X20989139Y-47805455D01*
X21156233Y-47638361D01*
X21291773Y-47444790D01*
X21391641Y-47230623D01*
X21452801Y-47002368D01*
X21473397Y-46766960D01*
X21452801Y-46531552D01*
X21391641Y-46303297D01*
X21291773Y-46089131D01*
X21156233Y-45895559D01*
X21156232Y-45895557D01*
X20989140Y-45728466D01*
X20989134Y-45728461D01*
X20803580Y-45598535D01*
X20759955Y-45543958D01*
X20752761Y-45474460D01*
X20784284Y-45412105D01*
X20803580Y-45395385D01*
X20825764Y-45379851D01*
X20989139Y-45265455D01*
X21156233Y-45098361D01*
X21291773Y-44904790D01*
X21391641Y-44690623D01*
X21452801Y-44462368D01*
X21473397Y-44226960D01*
X21452801Y-43991552D01*
X21391641Y-43763297D01*
X21291773Y-43549131D01*
X21156233Y-43355559D01*
X21156232Y-43355557D01*
X20989140Y-43188466D01*
X20989134Y-43188461D01*
X20803580Y-43058535D01*
X20759955Y-43003958D01*
X20752761Y-42934460D01*
X20784284Y-42872105D01*
X20803580Y-42855385D01*
X20825764Y-42839851D01*
X20989139Y-42725455D01*
X21156233Y-42558361D01*
X21291773Y-42364790D01*
X21391641Y-42150623D01*
X21452801Y-41922368D01*
X21473397Y-41686960D01*
X21452801Y-41451552D01*
X21391641Y-41223297D01*
X21291773Y-41009131D01*
X21239855Y-40934983D01*
X21156232Y-40815557D01*
X20989140Y-40648466D01*
X20989134Y-40648461D01*
X20803580Y-40518535D01*
X20759955Y-40463958D01*
X20752761Y-40394460D01*
X20784284Y-40332105D01*
X20803580Y-40315385D01*
X20825764Y-40299851D01*
X20989139Y-40185455D01*
X21156233Y-40018361D01*
X21291773Y-39824790D01*
X21391641Y-39610623D01*
X21452801Y-39382368D01*
X21473397Y-39146960D01*
X21452801Y-38911552D01*
X21391641Y-38683297D01*
X21291773Y-38469131D01*
X21272743Y-38441952D01*
X21156232Y-38275557D01*
X20989140Y-38108466D01*
X20989134Y-38108461D01*
X20803580Y-37978535D01*
X20759955Y-37923958D01*
X20752761Y-37854460D01*
X20784284Y-37792105D01*
X20803580Y-37775385D01*
X20825764Y-37759851D01*
X20989139Y-37645455D01*
X21156233Y-37478361D01*
X21291773Y-37284790D01*
X21391641Y-37070623D01*
X21452801Y-36842368D01*
X21473397Y-36606960D01*
X21452801Y-36371552D01*
X21391641Y-36143297D01*
X21291773Y-35929131D01*
X21272743Y-35901952D01*
X21156232Y-35735557D01*
X20989140Y-35568466D01*
X20989133Y-35568461D01*
X20795572Y-35432927D01*
X20795568Y-35432925D01*
X20795566Y-35432924D01*
X20581401Y-35333057D01*
X20581397Y-35333056D01*
X20581393Y-35333054D01*
X20353151Y-35271898D01*
X20353141Y-35271896D01*
X20117739Y-35251301D01*
X20117737Y-35251301D01*
X19882334Y-35271896D01*
X19882324Y-35271898D01*
X19654082Y-35333054D01*
X19654073Y-35333058D01*
X19439909Y-35432924D01*
X19439907Y-35432925D01*
X19246335Y-35568465D01*
X19079243Y-35735557D01*
X18943703Y-35929129D01*
X18943702Y-35929131D01*
X18843836Y-36143295D01*
X18843832Y-36143304D01*
X18782676Y-36371546D01*
X18782674Y-36371556D01*
X18762079Y-36606959D01*
X18762079Y-36606960D01*
X18782674Y-36842363D01*
X18782676Y-36842373D01*
X18843832Y-37070615D01*
X18843834Y-37070619D01*
X18843835Y-37070623D01*
X18943213Y-37283739D01*
X18943703Y-37284790D01*
X18943705Y-37284794D01*
X19007213Y-37375492D01*
X19079239Y-37478356D01*
X19079244Y-37478362D01*
X19246335Y-37645453D01*
X19246341Y-37645458D01*
X19431896Y-37775385D01*
X19475521Y-37829962D01*
X19482715Y-37899460D01*
X19451192Y-37961815D01*
X19431896Y-37978535D01*
X19246335Y-38108465D01*
X19079243Y-38275557D01*
X18943703Y-38469129D01*
X18943702Y-38469131D01*
X18843836Y-38683295D01*
X18843832Y-38683304D01*
X18782676Y-38911546D01*
X18782674Y-38911556D01*
X18762079Y-39146959D01*
X18762079Y-39146960D01*
X18782674Y-39382363D01*
X18782676Y-39382373D01*
X18843832Y-39610615D01*
X18843834Y-39610619D01*
X18843835Y-39610623D01*
X18943703Y-39824790D01*
X18943705Y-39824794D01*
X19079239Y-40018355D01*
X19079244Y-40018362D01*
X19246335Y-40185453D01*
X19246341Y-40185458D01*
X19431896Y-40315385D01*
X19475521Y-40369962D01*
X19482715Y-40439460D01*
X19451192Y-40501815D01*
X19431896Y-40518535D01*
X19246335Y-40648465D01*
X19079243Y-40815557D01*
X18943703Y-41009129D01*
X18943702Y-41009131D01*
X18843836Y-41223295D01*
X18843832Y-41223304D01*
X18782676Y-41451546D01*
X18782674Y-41451556D01*
X18762079Y-41686959D01*
X18762079Y-41686960D01*
X18782674Y-41922363D01*
X18782676Y-41922373D01*
X18843832Y-42150615D01*
X18843834Y-42150619D01*
X18843835Y-42150623D01*
X18943703Y-42364790D01*
X18943705Y-42364794D01*
X19079239Y-42558355D01*
X19079244Y-42558362D01*
X19246335Y-42725453D01*
X19246341Y-42725458D01*
X19431896Y-42855385D01*
X19475521Y-42909962D01*
X19482715Y-42979460D01*
X19451192Y-43041815D01*
X19431896Y-43058535D01*
X19246335Y-43188465D01*
X19079243Y-43355557D01*
X18943703Y-43549129D01*
X18943702Y-43549131D01*
X18843836Y-43763295D01*
X18843832Y-43763304D01*
X18782676Y-43991546D01*
X18782674Y-43991556D01*
X18762079Y-44226959D01*
X18762079Y-44226960D01*
X18782674Y-44462363D01*
X18782676Y-44462373D01*
X18843832Y-44690615D01*
X18843834Y-44690619D01*
X18843835Y-44690623D01*
X18943703Y-44904790D01*
X18943705Y-44904794D01*
X19079239Y-45098355D01*
X19079244Y-45098362D01*
X19246335Y-45265453D01*
X19246341Y-45265458D01*
X19431896Y-45395385D01*
X19475521Y-45449962D01*
X19482715Y-45519460D01*
X19451192Y-45581815D01*
X19431896Y-45598535D01*
X19246335Y-45728465D01*
X19079243Y-45895557D01*
X18943703Y-46089129D01*
X18943702Y-46089131D01*
X18843836Y-46303295D01*
X18843832Y-46303304D01*
X18782676Y-46531546D01*
X18782674Y-46531556D01*
X18762079Y-46766959D01*
X18762079Y-46766960D01*
X18782674Y-47002363D01*
X18782676Y-47002373D01*
X18843832Y-47230615D01*
X18843834Y-47230619D01*
X18843835Y-47230623D01*
X18943703Y-47444790D01*
X18943705Y-47444794D01*
X19079239Y-47638355D01*
X19079244Y-47638362D01*
X19246335Y-47805453D01*
X19246341Y-47805458D01*
X19431896Y-47935385D01*
X19475521Y-47989962D01*
X19482715Y-48059460D01*
X19451192Y-48121815D01*
X19431896Y-48138535D01*
X19246335Y-48268465D01*
X19079243Y-48435557D01*
X18943703Y-48629129D01*
X18943702Y-48629131D01*
X18843836Y-48843295D01*
X18843832Y-48843304D01*
X18782676Y-49071546D01*
X18782674Y-49071556D01*
X18762079Y-49306959D01*
X18762079Y-49306960D01*
X6222895Y-49306960D01*
X6222895Y-49306958D01*
X6202307Y-49071644D01*
X6202305Y-49071633D01*
X6141171Y-48843476D01*
X6141167Y-48843467D01*
X6041338Y-48629383D01*
X6041337Y-48629381D01*
X5982663Y-48545586D01*
X5982663Y-48545585D01*
X5350814Y-49177435D01*
X5327231Y-49097116D01*
X5249499Y-48976162D01*
X5140838Y-48882008D01*
X5010053Y-48822280D01*
X5000271Y-48820873D01*
X5629111Y-48192033D01*
X5629111Y-48192032D01*
X5553143Y-48138840D01*
X5509518Y-48084264D01*
X5502324Y-48014765D01*
X5533846Y-47952411D01*
X5553137Y-47935694D01*
X5739139Y-47805455D01*
X5906233Y-47638361D01*
X6041773Y-47444790D01*
X6141641Y-47230623D01*
X6202801Y-47002368D01*
X6223397Y-46766960D01*
X6202801Y-46531552D01*
X6141641Y-46303297D01*
X6041773Y-46089131D01*
X5906233Y-45895559D01*
X5906232Y-45895557D01*
X5739140Y-45728466D01*
X5739134Y-45728461D01*
X5553580Y-45598535D01*
X5509955Y-45543958D01*
X5502761Y-45474460D01*
X5534284Y-45412105D01*
X5553580Y-45395385D01*
X5575764Y-45379851D01*
X5739139Y-45265455D01*
X5906233Y-45098361D01*
X6041773Y-44904790D01*
X6141641Y-44690623D01*
X6202801Y-44462368D01*
X6223397Y-44226960D01*
X6202801Y-43991552D01*
X6175881Y-43891085D01*
X6177544Y-43821236D01*
X6207973Y-43771313D01*
X7691786Y-42287500D01*
X7704048Y-42277678D01*
X7703865Y-42277457D01*
X7709867Y-42272490D01*
X7709877Y-42272484D01*
X7757241Y-42222046D01*
X7778120Y-42201168D01*
X7782373Y-42195684D01*
X7786150Y-42191261D01*
X7818062Y-42157280D01*
X7827714Y-42139721D01*
X7838389Y-42123470D01*
X7850674Y-42107634D01*
X7869186Y-42064850D01*
X7871742Y-42059633D01*
X7894197Y-42018790D01*
X7899180Y-41999378D01*
X7905477Y-41980989D01*
X7913438Y-41962593D01*
X7920729Y-41916551D01*
X7921908Y-41910860D01*
X7933500Y-41865717D01*
X7933500Y-41845681D01*
X7935027Y-41826280D01*
X7937841Y-41808513D01*
X7938160Y-41806502D01*
X7933775Y-41760113D01*
X7933500Y-41754275D01*
X7933500Y-30424669D01*
X7953185Y-30357630D01*
X8005989Y-30311875D01*
X8075147Y-30301931D01*
X8109901Y-30312285D01*
X8214075Y-30360863D01*
X8442330Y-30422023D01*
X8630656Y-30438499D01*
X8677737Y-30442619D01*
X8677738Y-30442619D01*
X8677739Y-30442619D01*
X8716972Y-30439186D01*
X8913146Y-30422023D01*
X9141401Y-30360863D01*
X9355568Y-30260995D01*
X9549139Y-30125455D01*
X9716233Y-29958361D01*
X9851773Y-29764790D01*
X9951641Y-29550623D01*
X10012801Y-29322368D01*
X10033397Y-29086960D01*
X10012801Y-28851552D01*
X9951641Y-28623297D01*
X9851773Y-28409131D01*
X9841735Y-28394794D01*
X9716232Y-28215557D01*
X9549140Y-28048466D01*
X9549139Y-28048465D01*
X9363143Y-27918229D01*
X9319519Y-27863652D01*
X9312326Y-27794153D01*
X9343848Y-27731799D01*
X9363143Y-27715079D01*
X9548820Y-27585065D01*
X9715843Y-27418042D01*
X9851338Y-27224538D01*
X9951167Y-27010452D01*
X9951170Y-27010446D01*
X10008374Y-26796960D01*
X9111424Y-26796960D01*
X9137231Y-26756804D01*
X9177738Y-26618849D01*
X9177738Y-26475071D01*
X9137231Y-26337116D01*
X9111424Y-26296960D01*
X10008374Y-26296960D01*
X10008373Y-26296959D01*
X9951170Y-26083473D01*
X9951167Y-26083467D01*
X9851338Y-25869382D01*
X9851337Y-25869380D01*
X9715851Y-25675886D01*
X9715846Y-25675880D01*
X9548816Y-25508850D01*
X9363143Y-25378839D01*
X9319518Y-25324262D01*
X9312326Y-25254764D01*
X9343848Y-25192409D01*
X9363144Y-25175690D01*
X9363580Y-25175385D01*
X9549139Y-25045455D01*
X9716233Y-24878361D01*
X9851773Y-24684790D01*
X9951641Y-24470623D01*
X10012801Y-24242368D01*
X10033397Y-24006960D01*
X10012801Y-23771552D01*
X9951641Y-23543297D01*
X9851773Y-23329131D01*
X9732188Y-23158344D01*
X9716232Y-23135557D01*
X9549140Y-22968466D01*
X9549134Y-22968461D01*
X9363580Y-22838535D01*
X9319955Y-22783958D01*
X9312761Y-22714460D01*
X9344284Y-22652105D01*
X9363580Y-22635385D01*
X9421977Y-22594495D01*
X9549139Y-22505455D01*
X9716233Y-22338361D01*
X9851773Y-22144790D01*
X9951641Y-21930623D01*
X10012801Y-21702368D01*
X10033397Y-21466960D01*
X10012801Y-21231552D01*
X9951641Y-21003297D01*
X9851773Y-20789131D01*
X9732182Y-20618337D01*
X9716234Y-20595560D01*
X9716233Y-20595559D01*
X9593917Y-20473243D01*
X9560434Y-20411923D01*
X9565418Y-20342231D01*
X9607289Y-20286297D01*
X9638267Y-20269382D01*
X9769824Y-20220314D01*
X9769831Y-20220310D01*
X9884925Y-20134150D01*
X9884928Y-20134147D01*
X9971088Y-20019053D01*
X9971092Y-20019046D01*
X10021334Y-19884339D01*
X10021336Y-19884332D01*
X10027737Y-19824804D01*
X10027738Y-19824787D01*
X10027738Y-19176960D01*
X9111424Y-19176960D01*
X9137231Y-19136804D01*
X9177738Y-18998849D01*
X9177738Y-18855071D01*
X9137231Y-18717116D01*
X9111424Y-18676960D01*
X10027738Y-18676960D01*
X10027738Y-18029132D01*
X10027737Y-18029115D01*
X10021336Y-17969587D01*
X10021334Y-17969580D01*
X9971092Y-17834873D01*
X9971088Y-17834866D01*
X9884928Y-17719772D01*
X9884925Y-17719769D01*
X9769831Y-17633609D01*
X9769824Y-17633605D01*
X9635117Y-17583363D01*
X9635110Y-17583361D01*
X9575582Y-17576960D01*
X8927738Y-17576960D01*
X8927738Y-18491458D01*
X8820053Y-18442280D01*
X8713501Y-18426960D01*
X8641975Y-18426960D01*
X8535423Y-18442280D01*
X8427738Y-18491458D01*
X8427738Y-17576960D01*
X8057500Y-17576960D01*
X7990461Y-17557275D01*
X7944706Y-17504471D01*
X7933500Y-17452960D01*
X7933500Y-15444649D01*
X7953185Y-15377610D01*
X7969814Y-15356973D01*
X8255910Y-15070877D01*
X8317229Y-15037395D01*
X8386920Y-15042379D01*
X8442854Y-15084250D01*
X8452306Y-15100548D01*
X8452485Y-15100443D01*
X8540052Y-15248512D01*
X8540059Y-15248521D01*
X8656176Y-15364638D01*
X8656185Y-15364645D01*
X8797541Y-15448242D01*
X8797544Y-15448243D01*
X8955242Y-15494059D01*
X8955248Y-15494060D01*
X8992094Y-15496960D01*
X9395238Y-15496960D01*
X9395238Y-14946960D01*
X9895238Y-14946960D01*
X9895238Y-15496960D01*
X10298382Y-15496960D01*
X10335227Y-15494060D01*
X10335233Y-15494059D01*
X10492931Y-15448243D01*
X10492934Y-15448242D01*
X10634290Y-15364645D01*
X10634299Y-15364638D01*
X10750416Y-15248521D01*
X10750423Y-15248512D01*
X10834019Y-15107158D01*
X10879838Y-14949446D01*
X10880033Y-14946961D01*
X10880033Y-14946960D01*
X9895238Y-14946960D01*
X9395238Y-14946960D01*
X9395238Y-13982912D01*
X9414923Y-13915873D01*
X9431557Y-13895231D01*
X9693009Y-13633779D01*
X9754332Y-13600294D01*
X9780690Y-13597460D01*
X10158238Y-13597460D01*
X10225277Y-13617145D01*
X10271032Y-13669949D01*
X10282238Y-13721460D01*
X10282238Y-13772960D01*
X10262553Y-13839999D01*
X10209749Y-13885754D01*
X10158238Y-13896960D01*
X9895238Y-13896960D01*
X9895238Y-14446960D01*
X10550923Y-14446960D01*
X10614044Y-14464228D01*
X10672340Y-14498704D01*
X10713962Y-14510796D01*
X10830164Y-14544557D01*
X10830167Y-14544557D01*
X10830169Y-14544558D01*
X10842460Y-14545525D01*
X10867042Y-14547460D01*
X10867044Y-14547460D01*
X10879350Y-14547460D01*
X10946389Y-14567145D01*
X10952743Y-14571513D01*
X11010066Y-14613606D01*
X11010073Y-14613610D01*
X11091000Y-14650794D01*
X11194970Y-14698565D01*
X11230142Y-14706727D01*
X11393183Y-14744563D01*
X11596596Y-14749717D01*
X11596596Y-14749716D01*
X11596601Y-14749717D01*
X11776091Y-14717546D01*
X11796886Y-14713819D01*
X11796886Y-14713818D01*
X11796891Y-14713818D01*
X11985855Y-14638337D01*
X12092696Y-14567923D01*
X12159505Y-14547468D01*
X12160932Y-14547460D01*
X12173434Y-14547460D01*
X12191869Y-14546009D01*
X12210307Y-14544558D01*
X12210309Y-14544557D01*
X12210311Y-14544557D01*
X12251929Y-14532465D01*
X12368136Y-14498704D01*
X12509603Y-14415041D01*
X12625819Y-14298825D01*
X12709482Y-14157358D01*
X12709483Y-14157354D01*
X12709484Y-14157353D01*
X12734321Y-14071865D01*
X12771927Y-14012979D01*
X12835400Y-13983773D01*
X12853397Y-13982460D01*
X16340731Y-13982460D01*
X16379734Y-13988754D01*
X16412252Y-13999529D01*
X16479941Y-14021959D01*
X16522791Y-14026336D01*
X16587482Y-14052731D01*
X16597870Y-14062013D01*
X17055636Y-14519779D01*
X17089121Y-14581102D01*
X17084137Y-14650794D01*
X17042265Y-14706727D01*
X16976801Y-14731144D01*
X16967955Y-14731460D01*
X16582736Y-14731460D01*
X16582718Y-14731461D01*
X16479941Y-14741960D01*
X16479938Y-14741961D01*
X16313406Y-14797145D01*
X16313401Y-14797147D01*
X16164080Y-14889249D01*
X16040027Y-15013302D01*
X15947925Y-15162623D01*
X15947923Y-15162628D01*
X15923610Y-15236000D01*
X15892739Y-15329163D01*
X15892739Y-15329164D01*
X15892738Y-15329164D01*
X15882238Y-15431943D01*
X15882238Y-16131961D01*
X15882239Y-16131979D01*
X15892738Y-16234756D01*
X15892739Y-16234759D01*
X15947923Y-16401291D01*
X15947924Y-16401294D01*
X16040026Y-16550616D01*
X16164082Y-16674672D01*
X16313404Y-16766774D01*
X16479941Y-16821959D01*
X16522791Y-16826336D01*
X16587482Y-16852731D01*
X16597870Y-16862013D01*
X17101136Y-17365279D01*
X17134621Y-17426602D01*
X17129637Y-17496294D01*
X17087765Y-17552227D01*
X17022301Y-17576644D01*
X17013455Y-17576960D01*
X16547738Y-17576960D01*
X16547738Y-18491458D01*
X16440053Y-18442280D01*
X16333501Y-18426960D01*
X16261975Y-18426960D01*
X16155423Y-18442280D01*
X16047738Y-18491458D01*
X16047738Y-17576960D01*
X15399893Y-17576960D01*
X15340365Y-17583361D01*
X15340358Y-17583363D01*
X15205651Y-17633605D01*
X15205644Y-17633609D01*
X15090550Y-17719769D01*
X15090547Y-17719772D01*
X15004387Y-17834866D01*
X15004383Y-17834873D01*
X14954141Y-17969580D01*
X14954139Y-17969587D01*
X14947738Y-18029115D01*
X14947738Y-18676960D01*
X15864052Y-18676960D01*
X15838245Y-18717116D01*
X15797738Y-18855071D01*
X15797738Y-18998849D01*
X15838245Y-19136804D01*
X15864052Y-19176960D01*
X14947738Y-19176960D01*
X14947738Y-19824804D01*
X14954139Y-19884332D01*
X14954141Y-19884339D01*
X15004383Y-20019046D01*
X15004387Y-20019053D01*
X15090547Y-20134147D01*
X15090550Y-20134150D01*
X15205644Y-20220310D01*
X15205651Y-20220314D01*
X15337208Y-20269381D01*
X15393141Y-20311252D01*
X15417559Y-20376716D01*
X15402708Y-20444989D01*
X15381557Y-20473244D01*
X15259241Y-20595560D01*
X15123703Y-20789129D01*
X15123702Y-20789131D01*
X15023836Y-21003295D01*
X15023832Y-21003304D01*
X14962676Y-21231546D01*
X14962674Y-21231556D01*
X14951693Y-21357058D01*
X14926240Y-21422126D01*
X14915846Y-21433930D01*
X12001532Y-24348244D01*
X11936946Y-24409640D01*
X11901899Y-24459992D01*
X11899062Y-24463754D01*
X11860302Y-24511290D01*
X11860299Y-24511295D01*
X11844392Y-24541745D01*
X11840324Y-24548459D01*
X11820702Y-24576652D01*
X11796509Y-24633028D01*
X11794488Y-24637282D01*
X11766091Y-24691649D01*
X11766090Y-24691650D01*
X11756640Y-24724673D01*
X11754007Y-24732069D01*
X11740459Y-24763641D01*
X11728113Y-24823717D01*
X11726990Y-24828293D01*
X11710113Y-24887275D01*
X11710113Y-24887277D01*
X11707503Y-24921539D01*
X11706414Y-24929306D01*
X11701248Y-24954452D01*
X11699500Y-24962956D01*
X11699500Y-25024295D01*
X11699321Y-25029004D01*
X11694662Y-25090172D01*
X11696707Y-25106225D01*
X11699003Y-25124258D01*
X11699500Y-25132086D01*
X11699500Y-28816915D01*
X11679815Y-28883954D01*
X11663181Y-28904596D01*
X9204400Y-31363377D01*
X9180000Y-31393302D01*
X9108040Y-31481553D01*
X9041490Y-31608957D01*
X9013828Y-31661913D01*
X8957850Y-31857544D01*
X8942400Y-32060434D01*
X8942400Y-32060437D01*
X8968106Y-32262281D01*
X8968108Y-32262289D01*
X9033921Y-32454830D01*
X9033927Y-32454842D01*
X9128066Y-32614759D01*
X9137148Y-32630187D01*
X9164253Y-32660188D01*
X9273558Y-32781172D01*
X9437566Y-32901606D01*
X9437573Y-32901610D01*
X9543890Y-32950460D01*
X9622470Y-32986565D01*
X9688194Y-33001817D01*
X9820683Y-33032563D01*
X10024096Y-33037717D01*
X10024096Y-33037716D01*
X10024101Y-33037717D01*
X10203591Y-33005546D01*
X10224386Y-33001819D01*
X10224386Y-33001818D01*
X10224391Y-33001818D01*
X10413355Y-32926337D01*
X10583257Y-32814362D01*
X13398467Y-29999150D01*
X13463053Y-29937757D01*
X13498099Y-29887404D01*
X13500938Y-29883639D01*
X13504612Y-29879133D01*
X13539698Y-29836105D01*
X13555601Y-29805658D01*
X13559674Y-29798937D01*
X13564489Y-29792018D01*
X13579295Y-29770747D01*
X13603492Y-29714358D01*
X13605498Y-29710133D01*
X13633909Y-29655747D01*
X13643357Y-29622720D01*
X13645988Y-29615331D01*
X13659540Y-29583756D01*
X13671895Y-29523628D01*
X13672999Y-29519127D01*
X13689886Y-29460116D01*
X13692494Y-29425855D01*
X13693585Y-29418087D01*
X13700500Y-29384441D01*
X13700500Y-29323096D01*
X13700679Y-29318386D01*
X13705337Y-29257222D01*
X13700997Y-29223140D01*
X13700500Y-29215301D01*
X13700500Y-25530480D01*
X13720185Y-25463441D01*
X13736819Y-25442799D01*
X14258079Y-24921539D01*
X14805435Y-24374182D01*
X14866756Y-24340699D01*
X14936448Y-24345683D01*
X14992381Y-24387555D01*
X15012889Y-24429772D01*
X15023832Y-24470615D01*
X15023834Y-24470619D01*
X15023835Y-24470623D01*
X15112374Y-24660495D01*
X15123703Y-24684790D01*
X15123705Y-24684794D01*
X15205966Y-24802274D01*
X15252132Y-24868206D01*
X15259239Y-24878355D01*
X15259244Y-24878362D01*
X15426335Y-25045453D01*
X15426341Y-25045458D01*
X15611896Y-25175385D01*
X15655521Y-25229962D01*
X15662715Y-25299460D01*
X15631192Y-25361815D01*
X15611896Y-25378535D01*
X15426335Y-25508465D01*
X15259243Y-25675557D01*
X15123703Y-25869129D01*
X15123702Y-25869131D01*
X15023836Y-26083295D01*
X15023832Y-26083304D01*
X14962676Y-26311546D01*
X14962674Y-26311556D01*
X14942079Y-26546959D01*
X14942079Y-26546960D01*
X14962674Y-26782363D01*
X14962676Y-26782373D01*
X15023832Y-27010615D01*
X15023834Y-27010619D01*
X15023835Y-27010623D01*
X15123585Y-27224538D01*
X15123703Y-27224790D01*
X15123705Y-27224794D01*
X15259239Y-27418355D01*
X15259244Y-27418362D01*
X15426335Y-27585453D01*
X15426341Y-27585458D01*
X15611896Y-27715385D01*
X15655521Y-27769962D01*
X15662715Y-27839460D01*
X15631192Y-27901815D01*
X15611896Y-27918535D01*
X15426335Y-28048465D01*
X15259243Y-28215557D01*
X15123703Y-28409129D01*
X15123702Y-28409131D01*
X15023836Y-28623295D01*
X15023832Y-28623304D01*
X14962676Y-28851546D01*
X14962674Y-28851556D01*
X14942079Y-29086959D01*
X14942079Y-29086960D01*
X14962674Y-29322363D01*
X14962676Y-29322373D01*
X15023832Y-29550615D01*
X15023834Y-29550619D01*
X15023835Y-29550623D01*
X15099183Y-29712207D01*
X15123703Y-29764790D01*
X15123705Y-29764794D01*
X15173636Y-29836102D01*
X15259243Y-29958361D01*
X15426337Y-30125455D01*
X15523122Y-30193225D01*
X15619903Y-30260992D01*
X15619905Y-30260993D01*
X15619908Y-30260995D01*
X15834075Y-30360863D01*
X16062330Y-30422023D01*
X16250656Y-30438499D01*
X16297737Y-30442619D01*
X16297738Y-30442619D01*
X16297739Y-30442619D01*
X16336972Y-30439186D01*
X16533146Y-30422023D01*
X16761401Y-30360863D01*
X16975568Y-30260995D01*
X17169139Y-30125455D01*
X17336233Y-29958361D01*
X17471773Y-29764790D01*
X17571641Y-29550623D01*
X17632801Y-29322368D01*
X17653397Y-29086960D01*
X17632801Y-28851552D01*
X17571641Y-28623297D01*
X17471773Y-28409131D01*
X17461735Y-28394794D01*
X17336232Y-28215557D01*
X17169140Y-28048466D01*
X17169134Y-28048461D01*
X16983580Y-27918535D01*
X16939955Y-27863958D01*
X16932761Y-27794460D01*
X16964284Y-27732105D01*
X16983581Y-27715384D01*
X17015658Y-27692924D01*
X17081864Y-27670597D01*
X17086780Y-27670500D01*
X20502257Y-27670500D01*
X20569296Y-27690185D01*
X20589938Y-27706819D01*
X20886371Y-28003251D01*
X20918465Y-28058839D01*
X20951094Y-28180615D01*
X20951096Y-28180619D01*
X20951097Y-28180623D01*
X20967387Y-28215557D01*
X21050965Y-28394790D01*
X21050967Y-28394794D01*
X21159281Y-28549481D01*
X21186505Y-28588361D01*
X21353599Y-28755455D01*
X21441373Y-28816915D01*
X21547165Y-28890992D01*
X21547167Y-28890993D01*
X21547170Y-28890995D01*
X21761337Y-28990863D01*
X21989592Y-29052023D01*
X22177918Y-29068499D01*
X22224999Y-29072619D01*
X22225000Y-29072619D01*
X22225001Y-29072619D01*
X22264234Y-29069186D01*
X22460408Y-29052023D01*
X22688663Y-28990863D01*
X22902830Y-28890995D01*
X23096401Y-28755455D01*
X23263495Y-28588361D01*
X23399035Y-28394790D01*
X23498903Y-28180623D01*
X23560063Y-27952368D01*
X23580659Y-27716960D01*
X23580494Y-27715079D01*
X23569154Y-27585458D01*
X23560063Y-27481552D01*
X23498903Y-27253297D01*
X23399035Y-27039131D01*
X23379074Y-27010624D01*
X23263496Y-26845560D01*
X23214896Y-26796960D01*
X23141567Y-26723631D01*
X23108084Y-26662311D01*
X23113068Y-26592619D01*
X23154939Y-26536685D01*
X23185915Y-26519770D01*
X23317331Y-26470756D01*
X23432546Y-26384506D01*
X23518796Y-26269291D01*
X23569091Y-26134443D01*
X23575500Y-26074833D01*
X23575499Y-24279088D01*
X23569091Y-24219477D01*
X23518796Y-24084629D01*
X23518795Y-24084628D01*
X23518793Y-24084624D01*
X23432547Y-23969415D01*
X23432544Y-23969412D01*
X23317335Y-23883166D01*
X23317328Y-23883162D01*
X23182482Y-23832868D01*
X23182483Y-23832868D01*
X23122883Y-23826461D01*
X23122881Y-23826460D01*
X23122873Y-23826460D01*
X23122864Y-23826460D01*
X21327129Y-23826460D01*
X21327123Y-23826461D01*
X21267516Y-23832868D01*
X21132671Y-23883162D01*
X21132664Y-23883166D01*
X21017455Y-23969412D01*
X21017452Y-23969415D01*
X20931206Y-24084624D01*
X20931204Y-24084628D01*
X20931204Y-24084629D01*
X20927039Y-24095794D01*
X20885171Y-24151726D01*
X20819707Y-24176144D01*
X20810859Y-24176460D01*
X17933520Y-24176460D01*
X17866481Y-24156775D01*
X17845839Y-24140141D01*
X17679628Y-23973930D01*
X17646143Y-23912607D01*
X17643781Y-23897056D01*
X17642566Y-23883164D01*
X17632801Y-23771552D01*
X17571641Y-23543297D01*
X17471773Y-23329131D01*
X17352188Y-23158344D01*
X17336232Y-23135557D01*
X17169140Y-22968466D01*
X17169134Y-22968461D01*
X16983580Y-22838535D01*
X16939955Y-22783958D01*
X16932761Y-22714460D01*
X16964284Y-22652105D01*
X16983580Y-22635385D01*
X17041977Y-22594495D01*
X17169139Y-22505455D01*
X17170815Y-22503779D01*
X17171733Y-22503277D01*
X17173282Y-22501978D01*
X17173543Y-22502289D01*
X17232138Y-22470294D01*
X17258496Y-22467460D01*
X18725022Y-22467460D01*
X18814096Y-22469717D01*
X18814096Y-22469716D01*
X18814101Y-22469717D01*
X18874491Y-22458892D01*
X18879150Y-22458240D01*
X18921345Y-22453948D01*
X18940176Y-22452034D01*
X18972965Y-22441746D01*
X18980578Y-22439878D01*
X19014391Y-22433818D01*
X19071359Y-22411061D01*
X19075791Y-22409484D01*
X19134326Y-22391119D01*
X19164365Y-22374444D01*
X19171446Y-22371082D01*
X19203355Y-22358337D01*
X19254592Y-22324568D01*
X19258589Y-22322147D01*
X19312240Y-22292369D01*
X19338306Y-22269990D01*
X19344581Y-22265260D01*
X19358579Y-22256035D01*
X19373257Y-22246362D01*
X19416630Y-22202987D01*
X19420088Y-22199783D01*
X19423351Y-22196980D01*
X19466633Y-22159826D01*
X19487666Y-22132651D01*
X19492836Y-22126781D01*
X21534505Y-20085111D01*
X21595826Y-20051628D01*
X21665518Y-20056612D01*
X21674588Y-20060412D01*
X21761330Y-20100860D01*
X21761332Y-20100860D01*
X21761337Y-20100863D01*
X21761342Y-20100864D01*
X21761344Y-20100865D01*
X21816285Y-20115586D01*
X21989592Y-20162023D01*
X22177918Y-20178499D01*
X22224999Y-20182619D01*
X22225000Y-20182619D01*
X22225001Y-20182619D01*
X22264234Y-20179186D01*
X22460408Y-20162023D01*
X22688663Y-20100863D01*
X22902830Y-20000995D01*
X23096401Y-19865455D01*
X23263495Y-19698361D01*
X23399035Y-19504790D01*
X23498903Y-19290623D01*
X23560063Y-19062368D01*
X23580659Y-18826960D01*
X23560063Y-18591552D01*
X23498903Y-18363297D01*
X23399035Y-18149131D01*
X23381131Y-18123562D01*
X23263496Y-17955560D01*
X23263495Y-17955559D01*
X23141567Y-17833631D01*
X23108084Y-17772311D01*
X23113068Y-17702619D01*
X23154939Y-17646685D01*
X23185915Y-17629770D01*
X23317331Y-17580756D01*
X23432546Y-17494506D01*
X23518796Y-17379291D01*
X23569091Y-17244443D01*
X23575500Y-17184833D01*
X23575499Y-15389088D01*
X23569091Y-15329477D01*
X23568974Y-15329164D01*
X23518797Y-15194631D01*
X23518793Y-15194624D01*
X23432547Y-15079415D01*
X23432544Y-15079412D01*
X23317335Y-14993166D01*
X23317328Y-14993162D01*
X23182482Y-14942868D01*
X23182483Y-14942868D01*
X23122883Y-14936461D01*
X23122881Y-14936460D01*
X23122873Y-14936460D01*
X23122864Y-14936460D01*
X21327129Y-14936460D01*
X21327123Y-14936461D01*
X21267516Y-14942868D01*
X21132671Y-14993162D01*
X21132664Y-14993166D01*
X21017455Y-15079412D01*
X21017452Y-15079415D01*
X20931206Y-15194624D01*
X20931204Y-15194628D01*
X20931204Y-15194629D01*
X20927039Y-15205794D01*
X20885171Y-15261726D01*
X20819707Y-15286144D01*
X20810859Y-15286460D01*
X20703520Y-15286460D01*
X20636481Y-15266775D01*
X20615839Y-15250141D01*
X18012791Y-12647093D01*
X17979306Y-12585770D01*
X17977114Y-12572013D01*
X17972737Y-12529163D01*
X17917552Y-12362626D01*
X17825450Y-12213304D01*
X17701394Y-12089248D01*
X17608626Y-12032029D01*
X17552074Y-11997147D01*
X17552069Y-11997145D01*
X17532553Y-11990678D01*
X17385535Y-11941961D01*
X17385533Y-11941960D01*
X17282748Y-11931460D01*
X16582736Y-11931460D01*
X16582718Y-11931461D01*
X16479941Y-11941960D01*
X16479938Y-11941961D01*
X16379735Y-11975166D01*
X16340731Y-11981460D01*
X12297914Y-11981460D01*
X12253393Y-11980332D01*
X12208874Y-11979204D01*
X12208873Y-11979204D01*
X12208864Y-11979204D01*
X12148501Y-11990024D01*
X12143835Y-11990678D01*
X12082802Y-11996885D01*
X12050018Y-12007170D01*
X12042391Y-12009042D01*
X12008587Y-12015101D01*
X11951619Y-12037855D01*
X11947183Y-12039434D01*
X11888652Y-12057800D01*
X11888648Y-12057802D01*
X11858616Y-12074470D01*
X11851522Y-12077839D01*
X11819620Y-12090583D01*
X11819615Y-12090585D01*
X11768394Y-12124341D01*
X11764366Y-12126782D01*
X11710739Y-12156548D01*
X11684672Y-12178925D01*
X11678403Y-12183652D01*
X11649722Y-12202555D01*
X11649716Y-12202560D01*
X11606348Y-12245927D01*
X11602894Y-12249128D01*
X11556342Y-12289094D01*
X11535313Y-12316260D01*
X11530122Y-12322153D01*
X11094919Y-12757358D01*
X11033596Y-12790843D01*
X10963905Y-12785859D01*
X10907971Y-12743988D01*
X10883554Y-12678523D01*
X10883238Y-12669677D01*
X10883238Y-12581264D01*
X10880336Y-12544392D01*
X10880335Y-12544386D01*
X10834483Y-12386566D01*
X10834482Y-12386563D01*
X10834482Y-12386562D01*
X10750819Y-12245095D01*
X10750817Y-12245093D01*
X10750814Y-12245089D01*
X10634608Y-12128883D01*
X10634600Y-12128877D01*
X10493134Y-12045215D01*
X10493131Y-12045214D01*
X10335311Y-11999362D01*
X10335305Y-11999361D01*
X10298434Y-11996460D01*
X10298432Y-11996460D01*
X8992044Y-11996460D01*
X8992042Y-11996460D01*
X8955170Y-11999361D01*
X8955164Y-11999362D01*
X8797344Y-12045214D01*
X8797341Y-12045215D01*
X8655875Y-12128877D01*
X8655867Y-12128883D01*
X8539661Y-12245089D01*
X8539655Y-12245097D01*
X8455993Y-12386563D01*
X8455992Y-12386566D01*
X8410140Y-12544386D01*
X8410139Y-12544392D01*
X8407238Y-12581264D01*
X8407238Y-13012656D01*
X8410139Y-13049522D01*
X8410140Y-13049529D01*
X8411730Y-13055001D01*
X8411528Y-13124871D01*
X8380333Y-13177273D01*
X7695181Y-13862426D01*
X7633858Y-13895911D01*
X7564167Y-13890927D01*
X7508233Y-13849056D01*
X7483816Y-13783591D01*
X7483500Y-13774745D01*
X7483500Y-10814649D01*
X7503185Y-10747610D01*
X7519814Y-10726973D01*
X8255910Y-9990877D01*
X8317229Y-9957395D01*
X8386920Y-9962379D01*
X8442854Y-10004251D01*
X8452306Y-10020548D01*
X8452485Y-10020443D01*
X8540052Y-10168512D01*
X8540059Y-10168521D01*
X8656176Y-10284638D01*
X8656185Y-10284645D01*
X8797541Y-10368242D01*
X8797544Y-10368243D01*
X8955242Y-10414059D01*
X8955248Y-10414060D01*
X8992094Y-10416960D01*
X9395238Y-10416960D01*
X9395238Y-9866960D01*
X9895238Y-9866960D01*
X9895238Y-10416960D01*
X10298382Y-10416960D01*
X10335227Y-10414060D01*
X10335233Y-10414059D01*
X10492931Y-10368243D01*
X10492934Y-10368242D01*
X10634290Y-10284645D01*
X10634299Y-10284638D01*
X10750416Y-10168521D01*
X10750423Y-10168512D01*
X10834019Y-10027158D01*
X10879838Y-9869446D01*
X10880033Y-9866961D01*
X10880033Y-9866960D01*
X9895238Y-9866960D01*
X9395238Y-9866960D01*
X9395238Y-8902912D01*
X9414923Y-8835873D01*
X9431557Y-8815231D01*
X9693009Y-8553779D01*
X9754332Y-8520294D01*
X9780690Y-8517460D01*
X10158238Y-8517460D01*
X10225277Y-8537145D01*
X10271032Y-8589949D01*
X10282238Y-8641460D01*
X10282238Y-8692960D01*
X10262553Y-8759999D01*
X10209749Y-8805754D01*
X10158238Y-8816960D01*
X9895238Y-8816960D01*
X9895238Y-9366960D01*
X10550923Y-9366960D01*
X10614044Y-9384228D01*
X10672340Y-9418704D01*
X10713962Y-9430796D01*
X10830164Y-9464557D01*
X10830167Y-9464557D01*
X10830169Y-9464558D01*
X10842460Y-9465525D01*
X10867042Y-9467460D01*
X10867044Y-9467460D01*
X10879350Y-9467460D01*
X10946389Y-9487145D01*
X10952743Y-9491513D01*
X11010066Y-9533606D01*
X11010073Y-9533610D01*
X11185391Y-9614164D01*
X11194970Y-9618565D01*
X11260694Y-9633817D01*
X11393183Y-9664563D01*
X11596596Y-9669717D01*
X11596596Y-9669716D01*
X11596601Y-9669717D01*
X11776091Y-9637546D01*
X11796886Y-9633819D01*
X11796886Y-9633818D01*
X11796891Y-9633818D01*
X11985855Y-9558337D01*
X12092696Y-9487923D01*
X12159505Y-9467468D01*
X12160932Y-9467460D01*
X12173434Y-9467460D01*
X12191869Y-9466009D01*
X12210307Y-9464558D01*
X12210309Y-9464557D01*
X12210311Y-9464557D01*
X12286798Y-9442335D01*
X12368136Y-9418704D01*
X12509603Y-9335041D01*
X12625819Y-9218825D01*
X12709482Y-9077358D01*
X12755336Y-8919529D01*
X12757961Y-8886171D01*
X12782844Y-8820884D01*
X12793891Y-8808226D01*
X13298339Y-8303779D01*
X13359662Y-8270294D01*
X13386020Y-8267460D01*
X16340731Y-8267460D01*
X16379735Y-8273754D01*
X16479941Y-8306959D01*
X16582729Y-8317460D01*
X16633580Y-8317459D01*
X16683389Y-8329684D01*
X16683848Y-8328536D01*
X16689691Y-8330870D01*
X16722712Y-8340318D01*
X16730102Y-8342948D01*
X16761680Y-8356500D01*
X16794037Y-8363149D01*
X16821760Y-8368847D01*
X16826338Y-8369970D01*
X16840239Y-8373947D01*
X16885320Y-8386847D01*
X16919577Y-8389455D01*
X16927352Y-8390546D01*
X16960993Y-8397460D01*
X16960997Y-8397460D01*
X17022337Y-8397460D01*
X17027043Y-8397638D01*
X17061801Y-8400285D01*
X17088214Y-8402297D01*
X17088214Y-8402296D01*
X17088215Y-8402297D01*
X17122298Y-8397956D01*
X17130128Y-8397460D01*
X20810859Y-8397460D01*
X20877898Y-8417145D01*
X20923653Y-8469949D01*
X20927030Y-8478100D01*
X20931204Y-8489291D01*
X20931205Y-8489292D01*
X20931206Y-8489295D01*
X21017452Y-8604504D01*
X21017455Y-8604507D01*
X21132664Y-8690753D01*
X21132673Y-8690758D01*
X21203824Y-8717295D01*
X21259758Y-8759165D01*
X21284176Y-8824629D01*
X21269325Y-8892902D01*
X21219920Y-8942308D01*
X21182370Y-8955532D01*
X21101086Y-8970101D01*
X21101082Y-8970102D01*
X20939622Y-9034597D01*
X20912121Y-9045582D01*
X20912117Y-9045584D01*
X20912114Y-9045586D01*
X20911497Y-9045993D01*
X20911106Y-9046112D01*
X20906541Y-9048497D01*
X20906096Y-9047646D01*
X20844690Y-9066452D01*
X20843256Y-9066460D01*
X17524745Y-9066460D01*
X17485741Y-9060166D01*
X17447958Y-9047646D01*
X17385535Y-9026961D01*
X17385533Y-9026960D01*
X17282748Y-9016460D01*
X16582736Y-9016460D01*
X16582718Y-9016461D01*
X16479941Y-9026960D01*
X16479938Y-9026961D01*
X16313406Y-9082145D01*
X16313401Y-9082147D01*
X16164080Y-9174249D01*
X16040027Y-9298302D01*
X15947925Y-9447623D01*
X15947923Y-9447628D01*
X15934571Y-9487923D01*
X15892739Y-9614163D01*
X15892739Y-9614164D01*
X15892738Y-9614164D01*
X15882238Y-9716943D01*
X15882238Y-9716956D01*
X15882239Y-10416960D01*
X15882239Y-10416979D01*
X15892738Y-10519756D01*
X15892739Y-10519759D01*
X15913972Y-10583834D01*
X15947924Y-10686294D01*
X16040026Y-10835616D01*
X16164082Y-10959672D01*
X16313404Y-11051774D01*
X16479941Y-11106959D01*
X16582729Y-11117460D01*
X17282746Y-11117459D01*
X17282754Y-11117458D01*
X17282757Y-11117458D01*
X17346054Y-11110992D01*
X17385535Y-11106959D01*
X17485741Y-11073754D01*
X17524745Y-11067460D01*
X21235022Y-11067460D01*
X21324096Y-11069717D01*
X21324096Y-11069716D01*
X21324101Y-11069717D01*
X21384491Y-11058892D01*
X21389148Y-11058240D01*
X21396341Y-11057508D01*
X21415457Y-11055564D01*
X21484142Y-11068365D01*
X21499123Y-11077352D01*
X21547170Y-11110995D01*
X21761337Y-11210863D01*
X21989592Y-11272023D01*
X22177918Y-11288499D01*
X22224999Y-11292619D01*
X22225000Y-11292619D01*
X22225001Y-11292619D01*
X22264234Y-11289186D01*
X22460408Y-11272023D01*
X22688663Y-11210863D01*
X22902830Y-11110995D01*
X23096401Y-10975455D01*
X23263495Y-10808361D01*
X23399035Y-10614790D01*
X23498903Y-10400623D01*
X23560063Y-10172368D01*
X23580659Y-9936960D01*
X23560063Y-9701552D01*
X23498903Y-9473297D01*
X23399035Y-9259131D01*
X23377355Y-9228169D01*
X23263496Y-9065560D01*
X23214396Y-9016460D01*
X23141567Y-8943631D01*
X23108084Y-8882311D01*
X23113068Y-8812619D01*
X23154939Y-8756685D01*
X23185915Y-8739770D01*
X23317331Y-8690756D01*
X23432546Y-8604506D01*
X23518796Y-8489291D01*
X23569091Y-8354443D01*
X23575500Y-8294833D01*
X23575499Y-6499088D01*
X23569091Y-6439477D01*
X23558761Y-6411782D01*
X23518797Y-6304631D01*
X23518793Y-6304624D01*
X23432547Y-6189415D01*
X23432544Y-6189412D01*
X23317335Y-6103166D01*
X23317328Y-6103162D01*
X23182482Y-6052868D01*
X23182483Y-6052868D01*
X23122883Y-6046461D01*
X23122881Y-6046460D01*
X23122873Y-6046460D01*
X23122864Y-6046460D01*
X21327129Y-6046460D01*
X21327123Y-6046461D01*
X21267516Y-6052868D01*
X21132671Y-6103162D01*
X21132664Y-6103166D01*
X21017455Y-6189412D01*
X21017452Y-6189415D01*
X20931206Y-6304624D01*
X20931204Y-6304628D01*
X20931204Y-6304629D01*
X20927039Y-6315794D01*
X20885171Y-6371726D01*
X20819707Y-6396144D01*
X20810859Y-6396460D01*
X19506455Y-6396460D01*
X19439416Y-6376775D01*
X19393661Y-6323971D01*
X19383717Y-6254813D01*
X19412742Y-6191257D01*
X19433566Y-6172144D01*
X19443609Y-6164848D01*
X19570271Y-6024176D01*
X19664917Y-5860244D01*
X19723412Y-5680216D01*
X19743198Y-5491960D01*
X19723412Y-5303704D01*
X19664917Y-5123676D01*
X19570271Y-4959744D01*
X19495088Y-4876244D01*
X19464858Y-4813252D01*
X19463238Y-4793272D01*
X19463238Y-4764638D01*
X19472677Y-4717185D01*
X19522782Y-4596222D01*
X19538238Y-4478821D01*
X19538237Y-3965100D01*
X19538237Y-3965098D01*
X19538237Y-3965096D01*
X19522783Y-3847704D01*
X19522782Y-3847702D01*
X19522782Y-3847698D01*
X19522780Y-3847693D01*
X19522476Y-3846556D01*
X19522475Y-3845366D01*
X19521722Y-3839639D01*
X19522475Y-3839539D01*
X19522475Y-3789379D01*
X19521721Y-3789280D01*
X19522475Y-3783552D01*
X19522475Y-3782365D01*
X19522778Y-3781231D01*
X19522782Y-3781222D01*
X19538238Y-3663821D01*
X19538237Y-3150100D01*
X19538237Y-3150098D01*
X19538237Y-3150096D01*
X19522784Y-3032706D01*
X19522782Y-3032699D01*
X19522782Y-3032698D01*
X19506821Y-2994166D01*
X19472677Y-2911732D01*
X19463238Y-2864280D01*
X19463238Y-2246185D01*
X19482923Y-2179146D01*
X19488852Y-2170711D01*
X19554774Y-2084801D01*
X19615282Y-1938722D01*
X19630738Y-1821321D01*
X19630737Y-1542600D01*
X19630737Y-1542599D01*
X19630737Y-1542596D01*
X19615284Y-1425206D01*
X19615282Y-1425201D01*
X19615282Y-1425198D01*
X19554774Y-1279119D01*
X19458520Y-1153678D01*
X19333079Y-1057424D01*
X19187000Y-996916D01*
X19186998Y-996915D01*
X19069599Y-981460D01*
X18555875Y-981460D01*
X18438474Y-996915D01*
X18436349Y-997485D01*
X18434148Y-997485D01*
X18430419Y-997976D01*
X18430354Y-997485D01*
X18380054Y-997485D01*
X18379926Y-998465D01*
X18372489Y-997485D01*
X18372175Y-997486D01*
X18371870Y-997404D01*
X18254568Y-981960D01*
X18197738Y-981960D01*
X18197738Y-1071533D01*
X18178053Y-1138572D01*
X18171402Y-1146845D01*
X18171904Y-1147231D01*
X18166958Y-1153676D01*
X18166956Y-1153678D01*
X18088966Y-1255316D01*
X18070701Y-1279120D01*
X18036299Y-1362175D01*
X17992458Y-1416578D01*
X17926164Y-1438643D01*
X17858464Y-1421364D01*
X17810854Y-1370226D01*
X17797738Y-1314722D01*
X17797738Y-981960D01*
X17797737Y-981959D01*
X17740914Y-981960D01*
X17623609Y-997402D01*
X17623604Y-997404D01*
X17477652Y-1057859D01*
X17352313Y-1154035D01*
X17256137Y-1279373D01*
X17195682Y-1425328D01*
X17188225Y-1481960D01*
X17809941Y-1481960D01*
X17844377Y-1463155D01*
X17914069Y-1468138D01*
X17970003Y-1510008D01*
X17994422Y-1575472D01*
X17994738Y-1584321D01*
X17994738Y-1779598D01*
X17975053Y-1846637D01*
X17922249Y-1892392D01*
X17853091Y-1902336D01*
X17808474Y-1881960D01*
X17188228Y-1881960D01*
X17188226Y-1881961D01*
X17195680Y-1938587D01*
X17195682Y-1938593D01*
X17256137Y-2084545D01*
X17352313Y-2209884D01*
X17477651Y-2306060D01*
X17623603Y-2366514D01*
X17623607Y-2366515D01*
X17740914Y-2381959D01*
X17797737Y-2381958D01*
X17797738Y-2381958D01*
X17797738Y-2049197D01*
X17817423Y-1982158D01*
X17870227Y-1936403D01*
X17939385Y-1926459D01*
X18002941Y-1955484D01*
X18036299Y-2001745D01*
X18070701Y-2084800D01*
X18171904Y-2216691D01*
X18169091Y-2218848D01*
X18194841Y-2265739D01*
X18197738Y-2292386D01*
X18197738Y-2400098D01*
X18209404Y-2421463D01*
X18212238Y-2447821D01*
X18212238Y-2864280D01*
X18202799Y-2911732D01*
X18152695Y-3032694D01*
X18152693Y-3032699D01*
X18137238Y-3150098D01*
X18137238Y-3663823D01*
X18152693Y-3781223D01*
X18153001Y-3782372D01*
X18153001Y-3783561D01*
X18153754Y-3789281D01*
X18153001Y-3789380D01*
X18153003Y-3839541D01*
X18153755Y-3839640D01*
X18153003Y-3845344D01*
X18153004Y-3846539D01*
X18152694Y-3847694D01*
X18137238Y-3965098D01*
X18137238Y-4478823D01*
X18152691Y-4596213D01*
X18152694Y-4596222D01*
X18202799Y-4717185D01*
X18212238Y-4764638D01*
X18212238Y-4793272D01*
X18192553Y-4860311D01*
X18180388Y-4876244D01*
X18105204Y-4959744D01*
X18010559Y-5123675D01*
X18010556Y-5123682D01*
X17952065Y-5303700D01*
X17952064Y-5303704D01*
X17932278Y-5491960D01*
X17952064Y-5680216D01*
X17952065Y-5680219D01*
X18010556Y-5860237D01*
X18010559Y-5860244D01*
X18105205Y-6024176D01*
X18231867Y-6164848D01*
X18241907Y-6172143D01*
X18284572Y-6227472D01*
X18290551Y-6297086D01*
X18257945Y-6358881D01*
X18197106Y-6393238D01*
X18169021Y-6396460D01*
X17772572Y-6396460D01*
X17707476Y-6377999D01*
X17552078Y-6282149D01*
X17552073Y-6282147D01*
X17552072Y-6282146D01*
X17385535Y-6226961D01*
X17385533Y-6226960D01*
X17282748Y-6216460D01*
X16582736Y-6216460D01*
X16582718Y-6216461D01*
X16479941Y-6226960D01*
X16479938Y-6226961D01*
X16379735Y-6260166D01*
X16340731Y-6266460D01*
X15820626Y-6266460D01*
X15753587Y-6246775D01*
X15707832Y-6193971D01*
X15697888Y-6124813D01*
X15726913Y-6061257D01*
X15728476Y-6059488D01*
X15731048Y-6056630D01*
X15760271Y-6024176D01*
X15854917Y-5860244D01*
X15913412Y-5680216D01*
X15933198Y-5491960D01*
X15913412Y-5303704D01*
X15854917Y-5123676D01*
X15760271Y-4959744D01*
X15685088Y-4876244D01*
X15654858Y-4813252D01*
X15653238Y-4793272D01*
X15653238Y-4764638D01*
X15662677Y-4717185D01*
X15712782Y-4596222D01*
X15728238Y-4478821D01*
X15728237Y-3965100D01*
X15728237Y-3965098D01*
X15728237Y-3965096D01*
X15712783Y-3847704D01*
X15712782Y-3847702D01*
X15712782Y-3847698D01*
X15712780Y-3847693D01*
X15712476Y-3846556D01*
X15712475Y-3845366D01*
X15711722Y-3839639D01*
X15712475Y-3839539D01*
X15712475Y-3789379D01*
X15711721Y-3789280D01*
X15712475Y-3783552D01*
X15712475Y-3782365D01*
X15712778Y-3781231D01*
X15712782Y-3781222D01*
X15728238Y-3663821D01*
X15728237Y-3150100D01*
X15728237Y-3150098D01*
X15728237Y-3150096D01*
X15712784Y-3032706D01*
X15712782Y-3032699D01*
X15712782Y-3032698D01*
X15696821Y-2994166D01*
X15662677Y-2911732D01*
X15653238Y-2864280D01*
X15653238Y-2246185D01*
X15672923Y-2179146D01*
X15678852Y-2170711D01*
X15744774Y-2084801D01*
X15805282Y-1938722D01*
X15820738Y-1821321D01*
X15820737Y-1542600D01*
X15820737Y-1542599D01*
X15820737Y-1542596D01*
X15805284Y-1425206D01*
X15805282Y-1425201D01*
X15805282Y-1425198D01*
X15744774Y-1279119D01*
X15648520Y-1153678D01*
X15523079Y-1057424D01*
X15377000Y-996916D01*
X15376998Y-996915D01*
X15259599Y-981460D01*
X14745875Y-981460D01*
X14628474Y-996915D01*
X14626349Y-997485D01*
X14624148Y-997485D01*
X14620419Y-997976D01*
X14620354Y-997485D01*
X14570054Y-997485D01*
X14569926Y-998465D01*
X14562489Y-997485D01*
X14562175Y-997486D01*
X14561870Y-997404D01*
X14444568Y-981960D01*
X14387738Y-981960D01*
X14387738Y-1071533D01*
X14368053Y-1138572D01*
X14361402Y-1146845D01*
X14361904Y-1147231D01*
X14356958Y-1153676D01*
X14356956Y-1153678D01*
X14278966Y-1255316D01*
X14260701Y-1279120D01*
X14226299Y-1362175D01*
X14182458Y-1416578D01*
X14116164Y-1438643D01*
X14048464Y-1421364D01*
X14000854Y-1370226D01*
X13987738Y-1314722D01*
X13987738Y-981960D01*
X13987737Y-981959D01*
X13930914Y-981960D01*
X13813609Y-997402D01*
X13813604Y-997404D01*
X13667652Y-1057859D01*
X13542313Y-1154035D01*
X13446137Y-1279373D01*
X13385682Y-1425328D01*
X13378225Y-1481960D01*
X13999941Y-1481960D01*
X14034377Y-1463155D01*
X14104069Y-1468138D01*
X14160003Y-1510008D01*
X14184422Y-1575472D01*
X14184738Y-1584321D01*
X14184738Y-1779598D01*
X14165053Y-1846637D01*
X14112249Y-1892392D01*
X14043091Y-1902336D01*
X13998474Y-1881960D01*
X13378228Y-1881960D01*
X13378226Y-1881961D01*
X13385680Y-1938587D01*
X13385682Y-1938593D01*
X13446137Y-2084545D01*
X13542313Y-2209884D01*
X13667651Y-2306060D01*
X13813603Y-2366514D01*
X13813607Y-2366515D01*
X13930914Y-2381959D01*
X13987737Y-2381958D01*
X13987738Y-2381958D01*
X13987738Y-2049197D01*
X14007423Y-1982158D01*
X14060227Y-1936403D01*
X14129385Y-1926459D01*
X14192941Y-1955484D01*
X14226299Y-2001745D01*
X14260701Y-2084800D01*
X14361904Y-2216691D01*
X14359091Y-2218848D01*
X14384841Y-2265739D01*
X14387738Y-2292386D01*
X14387738Y-2400098D01*
X14399404Y-2421463D01*
X14402238Y-2447821D01*
X14402238Y-2864280D01*
X14392799Y-2911732D01*
X14342695Y-3032694D01*
X14342693Y-3032699D01*
X14327238Y-3150098D01*
X14327238Y-3663823D01*
X14342693Y-3781223D01*
X14343001Y-3782372D01*
X14343001Y-3783561D01*
X14343754Y-3789281D01*
X14343001Y-3789380D01*
X14343003Y-3839541D01*
X14343755Y-3839640D01*
X14343003Y-3845344D01*
X14343004Y-3846539D01*
X14342694Y-3847694D01*
X14327238Y-3965098D01*
X14327238Y-4478823D01*
X14342691Y-4596213D01*
X14342694Y-4596222D01*
X14392799Y-4717185D01*
X14402238Y-4764638D01*
X14402238Y-4793272D01*
X14382553Y-4860311D01*
X14370388Y-4876244D01*
X14295204Y-4959744D01*
X14200559Y-5123675D01*
X14200556Y-5123682D01*
X14142065Y-5303700D01*
X14142064Y-5303704D01*
X14122278Y-5491960D01*
X14142064Y-5680216D01*
X14142065Y-5680219D01*
X14200556Y-5860237D01*
X14200559Y-5860244D01*
X14295205Y-6024176D01*
X14301292Y-6030936D01*
X14327000Y-6059488D01*
X14357230Y-6122480D01*
X14348605Y-6191815D01*
X14303863Y-6245480D01*
X14237211Y-6266438D01*
X14234850Y-6266460D01*
X12932955Y-6266460D01*
X12843875Y-6264203D01*
X12843866Y-6264203D01*
X12790874Y-6273701D01*
X12783492Y-6275024D01*
X12778833Y-6275678D01*
X12717802Y-6281885D01*
X12717800Y-6281886D01*
X12685018Y-6292170D01*
X12677394Y-6294041D01*
X12669546Y-6295448D01*
X12643587Y-6300101D01*
X12586619Y-6322855D01*
X12582183Y-6324434D01*
X12523652Y-6342800D01*
X12523648Y-6342802D01*
X12493616Y-6359470D01*
X12486522Y-6362839D01*
X12454620Y-6375583D01*
X12454615Y-6375585D01*
X12403394Y-6409341D01*
X12399366Y-6411782D01*
X12345739Y-6441548D01*
X12319672Y-6463925D01*
X12313403Y-6468652D01*
X12284722Y-6487555D01*
X12284716Y-6487560D01*
X12241347Y-6530928D01*
X12237893Y-6534129D01*
X12191342Y-6574094D01*
X12170313Y-6601260D01*
X12165122Y-6607153D01*
X11094919Y-7677358D01*
X11033596Y-7710843D01*
X10963905Y-7705859D01*
X10907971Y-7663988D01*
X10883554Y-7598523D01*
X10883238Y-7589677D01*
X10883238Y-7501264D01*
X10880336Y-7464392D01*
X10880335Y-7464386D01*
X10834483Y-7306566D01*
X10834482Y-7306563D01*
X10834482Y-7306562D01*
X10750819Y-7165095D01*
X10750817Y-7165093D01*
X10750814Y-7165089D01*
X10634608Y-7048883D01*
X10634600Y-7048877D01*
X10493134Y-6965215D01*
X10493131Y-6965214D01*
X10335311Y-6919362D01*
X10335305Y-6919361D01*
X10298434Y-6916460D01*
X10298432Y-6916460D01*
X8992044Y-6916460D01*
X8992042Y-6916460D01*
X8955170Y-6919361D01*
X8955164Y-6919362D01*
X8797344Y-6965214D01*
X8797341Y-6965215D01*
X8655875Y-7048877D01*
X8655867Y-7048883D01*
X8539661Y-7165089D01*
X8539655Y-7165097D01*
X8455993Y-7306563D01*
X8455992Y-7306566D01*
X8410140Y-7464386D01*
X8410139Y-7464392D01*
X8407238Y-7501264D01*
X8407238Y-7932656D01*
X8410139Y-7969522D01*
X8410140Y-7969529D01*
X8411730Y-7975001D01*
X8411528Y-8044871D01*
X8380333Y-8097273D01*
X6474208Y-10003397D01*
X6461951Y-10013218D01*
X6462134Y-10013439D01*
X6456123Y-10018411D01*
X6408772Y-10068834D01*
X6387889Y-10089717D01*
X6387877Y-10089730D01*
X6383621Y-10095215D01*
X6379837Y-10099645D01*
X6347937Y-10133616D01*
X6347936Y-10133618D01*
X6338284Y-10151174D01*
X6327610Y-10167424D01*
X6315329Y-10183259D01*
X6315324Y-10183266D01*
X6296815Y-10226036D01*
X6294245Y-10231282D01*
X6271803Y-10272104D01*
X6266822Y-10291505D01*
X6260521Y-10309908D01*
X6252562Y-10328300D01*
X6252561Y-10328303D01*
X6245271Y-10374325D01*
X6244087Y-10380044D01*
X6232501Y-10425170D01*
X6232500Y-10425180D01*
X6232500Y-10445214D01*
X6230973Y-10464613D01*
X6227840Y-10484392D01*
X6227840Y-10484393D01*
X6232225Y-10530781D01*
X6232500Y-10536619D01*
X6232500Y-27378217D01*
X6212815Y-27445256D01*
X6160011Y-27491011D01*
X6090853Y-27500955D01*
X6027297Y-27471930D01*
X6020819Y-27465898D01*
X4180818Y-25625897D01*
X4147333Y-25564574D01*
X4144499Y-25538216D01*
X4144499Y-25264129D01*
X4144498Y-25264123D01*
X4144497Y-25264116D01*
X4138091Y-25204517D01*
X4127339Y-25175690D01*
X4087797Y-25069671D01*
X4087793Y-25069664D01*
X4001547Y-24954455D01*
X4001544Y-24954452D01*
X3886335Y-24868206D01*
X3886328Y-24868202D01*
X3754917Y-24819189D01*
X3698983Y-24777318D01*
X3674566Y-24711853D01*
X3689418Y-24643580D01*
X3710563Y-24615332D01*
X3832495Y-24493401D01*
X3968035Y-24299830D01*
X4067903Y-24085663D01*
X4129063Y-23857408D01*
X4149659Y-23622000D01*
X4129063Y-23386592D01*
X4067903Y-23158337D01*
X3968035Y-22944171D01*
X3894069Y-22838535D01*
X3832494Y-22750597D01*
X3665402Y-22583506D01*
X3665396Y-22583501D01*
X3479842Y-22453575D01*
X3436217Y-22398998D01*
X3429023Y-22329500D01*
X3460546Y-22267145D01*
X3479842Y-22250425D01*
X3552166Y-22199783D01*
X3665401Y-22120495D01*
X3832495Y-21953401D01*
X3968035Y-21759830D01*
X4067903Y-21545663D01*
X4129063Y-21317408D01*
X4149659Y-21082000D01*
X4129063Y-20846592D01*
X4067903Y-20618337D01*
X3968035Y-20404171D01*
X3924665Y-20342231D01*
X3832494Y-20210597D01*
X3665402Y-20043506D01*
X3665395Y-20043501D01*
X3471834Y-19907967D01*
X3471830Y-19907965D01*
X3421149Y-19884332D01*
X3257663Y-19808097D01*
X3257659Y-19808096D01*
X3257655Y-19808094D01*
X3029413Y-19746938D01*
X3029403Y-19746936D01*
X2794001Y-19726341D01*
X2793999Y-19726341D01*
X2558596Y-19746936D01*
X2558586Y-19746938D01*
X2330344Y-19808094D01*
X2330335Y-19808098D01*
X2116171Y-19907964D01*
X2116169Y-19907965D01*
X1922597Y-20043505D01*
X1755505Y-20210597D01*
X1619965Y-20404169D01*
X1619964Y-20404171D01*
X1520098Y-20618335D01*
X1520094Y-20618344D01*
X1458938Y-20846586D01*
X1458936Y-20846596D01*
X1438341Y-21081999D01*
X1438341Y-21082000D01*
X1458936Y-21317403D01*
X1458938Y-21317413D01*
X1520094Y-21545655D01*
X1520096Y-21545659D01*
X1520097Y-21545663D01*
X1593168Y-21702363D01*
X1619965Y-21759830D01*
X1619967Y-21759834D01*
X1755501Y-21953395D01*
X1755506Y-21953402D01*
X1922597Y-22120493D01*
X1922603Y-22120498D01*
X2108158Y-22250425D01*
X2151783Y-22305002D01*
X2158977Y-22374500D01*
X2127454Y-22436855D01*
X2108158Y-22453575D01*
X1922597Y-22583505D01*
X1755505Y-22750597D01*
X1619965Y-22944169D01*
X1619964Y-22944171D01*
X1520098Y-23158335D01*
X1520094Y-23158344D01*
X1458938Y-23386586D01*
X1458936Y-23386596D01*
X1438341Y-23621999D01*
X1438341Y-23622000D01*
X1458936Y-23857403D01*
X1458938Y-23857413D01*
X1520094Y-24085655D01*
X1520096Y-24085659D01*
X1520097Y-24085663D01*
X1610293Y-24279088D01*
X1619965Y-24299830D01*
X1619967Y-24299834D01*
X1696854Y-24409639D01*
X1755501Y-24493396D01*
X1755506Y-24493402D01*
X1877430Y-24615326D01*
X1910915Y-24676649D01*
X1905931Y-24746341D01*
X1864059Y-24802274D01*
X1833083Y-24819189D01*
X1701669Y-24868203D01*
X1701664Y-24868206D01*
X1586455Y-24954452D01*
X1586452Y-24954455D01*
X1500206Y-25069664D01*
X1500202Y-25069671D01*
X1449908Y-25204517D01*
X1443501Y-25264116D01*
X1443501Y-25264123D01*
X1443500Y-25264135D01*
X1443500Y-27059870D01*
X1443501Y-27059876D01*
X1449908Y-27119483D01*
X1500202Y-27254328D01*
X1500206Y-27254335D01*
X1586452Y-27369544D01*
X1586455Y-27369547D01*
X1701664Y-27455793D01*
X1701671Y-27455797D01*
X1836517Y-27506091D01*
X1836516Y-27506091D01*
X1843444Y-27506835D01*
X1896127Y-27512500D01*
X3186216Y-27512499D01*
X3253255Y-27532184D01*
X3273897Y-27548818D01*
X4595919Y-28870840D01*
X4629404Y-28932163D01*
X4632238Y-28958521D01*
X4632238Y-31569953D01*
X4625944Y-31608957D01*
X4592739Y-31709163D01*
X4592738Y-31709164D01*
X4582238Y-31811943D01*
X4582238Y-32511961D01*
X4582239Y-32511979D01*
X4592738Y-32614756D01*
X4592739Y-32614759D01*
X4647923Y-32781291D01*
X4647925Y-32781296D01*
X4668319Y-32814360D01*
X4740026Y-32930616D01*
X4864082Y-33054672D01*
X5013404Y-33146774D01*
X5179941Y-33201959D01*
X5282729Y-33212460D01*
X5982746Y-33212459D01*
X5982754Y-33212458D01*
X5982757Y-33212458D01*
X6092271Y-33201271D01*
X6092482Y-33203345D01*
X6152207Y-33207810D01*
X6208006Y-33249862D01*
X6232212Y-33315404D01*
X6232500Y-33323852D01*
X6232500Y-35808239D01*
X6212815Y-35875278D01*
X6160011Y-35921033D01*
X6090853Y-35930977D01*
X6027297Y-35901952D01*
X6006925Y-35879362D01*
X5906232Y-35735557D01*
X5739140Y-35568466D01*
X5739133Y-35568461D01*
X5545572Y-35432927D01*
X5545568Y-35432925D01*
X5545566Y-35432924D01*
X5331401Y-35333057D01*
X5331397Y-35333056D01*
X5331393Y-35333054D01*
X5103151Y-35271898D01*
X5103141Y-35271896D01*
X4867739Y-35251301D01*
X4867737Y-35251301D01*
X4632334Y-35271896D01*
X4632324Y-35271898D01*
X4404082Y-35333054D01*
X4404073Y-35333058D01*
X4189909Y-35432924D01*
X4189907Y-35432925D01*
X3996335Y-35568465D01*
X3829243Y-35735557D01*
X3693703Y-35929129D01*
X3693702Y-35929131D01*
X3593836Y-36143295D01*
X3593832Y-36143304D01*
X3532676Y-36371546D01*
X3532674Y-36371556D01*
X3512079Y-36606959D01*
X3512079Y-36606960D01*
X3532674Y-36842363D01*
X3532676Y-36842373D01*
X3593832Y-37070615D01*
X3593834Y-37070619D01*
X3593835Y-37070623D01*
X3693213Y-37283739D01*
X3693703Y-37284790D01*
X3693705Y-37284794D01*
X3757213Y-37375492D01*
X3829239Y-37478356D01*
X3829244Y-37478362D01*
X3996335Y-37645453D01*
X3996341Y-37645458D01*
X4181896Y-37775385D01*
X4225521Y-37829962D01*
X4232715Y-37899460D01*
X4201192Y-37961815D01*
X4181896Y-37978535D01*
X3996335Y-38108465D01*
X3829243Y-38275557D01*
X3693703Y-38469129D01*
X3693702Y-38469131D01*
X3593836Y-38683295D01*
X3593832Y-38683304D01*
X3532676Y-38911546D01*
X3532674Y-38911556D01*
X3512079Y-39146959D01*
X3512079Y-39146960D01*
X3532674Y-39382363D01*
X3532676Y-39382373D01*
X3593832Y-39610615D01*
X3593834Y-39610619D01*
X3593835Y-39610623D01*
X3693703Y-39824790D01*
X3693705Y-39824794D01*
X3829239Y-40018355D01*
X3829244Y-40018362D01*
X3996335Y-40185453D01*
X3996341Y-40185458D01*
X4181896Y-40315385D01*
X4225521Y-40369962D01*
X4232715Y-40439460D01*
X4201192Y-40501815D01*
X4181896Y-40518535D01*
X3996335Y-40648465D01*
X3829243Y-40815557D01*
X3693703Y-41009129D01*
X3693702Y-41009131D01*
X3593836Y-41223295D01*
X3593832Y-41223304D01*
X3532676Y-41451546D01*
X3532674Y-41451556D01*
X3512079Y-41686959D01*
X3512079Y-41686960D01*
X3532674Y-41922363D01*
X3532676Y-41922373D01*
X3593832Y-42150615D01*
X3593834Y-42150619D01*
X3593835Y-42150623D01*
X3693703Y-42364790D01*
X3693705Y-42364794D01*
X3829239Y-42558355D01*
X3829244Y-42558362D01*
X3996335Y-42725453D01*
X3996341Y-42725458D01*
X4181896Y-42855385D01*
X4225521Y-42909962D01*
X4232715Y-42979460D01*
X4201192Y-43041815D01*
X4181896Y-43058535D01*
X3996335Y-43188465D01*
X3829243Y-43355557D01*
X3693703Y-43549129D01*
X3693702Y-43549131D01*
X3593836Y-43763295D01*
X3593832Y-43763304D01*
X3532676Y-43991546D01*
X3532674Y-43991556D01*
X3512079Y-44226959D01*
X3512079Y-44226960D01*
X3532674Y-44462363D01*
X3532676Y-44462373D01*
X3593832Y-44690615D01*
X3593834Y-44690619D01*
X3593835Y-44690623D01*
X3693703Y-44904790D01*
X3693705Y-44904794D01*
X3829239Y-45098355D01*
X3829244Y-45098362D01*
X3996335Y-45265453D01*
X3996341Y-45265458D01*
X4181896Y-45395385D01*
X4225521Y-45449962D01*
X4232715Y-45519460D01*
X4201192Y-45581815D01*
X4181896Y-45598535D01*
X3996335Y-45728465D01*
X3829243Y-45895557D01*
X3693703Y-46089129D01*
X3693702Y-46089131D01*
X3593836Y-46303295D01*
X3593832Y-46303304D01*
X3532676Y-46531546D01*
X3532674Y-46531556D01*
X3512079Y-46766959D01*
X3512079Y-46766960D01*
X3532674Y-47002363D01*
X3532676Y-47002373D01*
X3593832Y-47230615D01*
X3593834Y-47230619D01*
X3593835Y-47230623D01*
X3693703Y-47444790D01*
X3693705Y-47444794D01*
X3802019Y-47599481D01*
X3829243Y-47638361D01*
X3996337Y-47805455D01*
X4181896Y-47935385D01*
X4182332Y-47935690D01*
X4225956Y-47990267D01*
X4233149Y-48059766D01*
X4201627Y-48122120D01*
X4182331Y-48138840D01*
X4106364Y-48192032D01*
X4106363Y-48192032D01*
X4735204Y-48820873D01*
X4725423Y-48822280D01*
X4594638Y-48882008D01*
X4485977Y-48976162D01*
X4408245Y-49097116D01*
X4384661Y-49177436D01*
X3752810Y-48545585D01*
X3694139Y-48629379D01*
X3594308Y-48843467D01*
X3594303Y-48843479D01*
X3583296Y-48884557D01*
X3546930Y-48944217D01*
X3484083Y-48974745D01*
X3414707Y-48966448D01*
X3375841Y-48940142D01*
X2941819Y-48506120D01*
X2908334Y-48444797D01*
X2905500Y-48418439D01*
X2905500Y-33555480D01*
X2925185Y-33488441D01*
X2941815Y-33467803D01*
X3167605Y-33242012D01*
X3228928Y-33208528D01*
X3242683Y-33206336D01*
X3285535Y-33201959D01*
X3452072Y-33146774D01*
X3601394Y-33054672D01*
X3725450Y-32930616D01*
X3817552Y-32781294D01*
X3872737Y-32614757D01*
X3883238Y-32511969D01*
X3883237Y-31811952D01*
X3872737Y-31709163D01*
X3817552Y-31542626D01*
X3725450Y-31393304D01*
X3601394Y-31269248D01*
X3452072Y-31177146D01*
X3285535Y-31121961D01*
X3285533Y-31121960D01*
X3182748Y-31111460D01*
X2482736Y-31111460D01*
X2482718Y-31111461D01*
X2379941Y-31121960D01*
X2379938Y-31121961D01*
X2213406Y-31177145D01*
X2213401Y-31177147D01*
X2064080Y-31269249D01*
X1940027Y-31393302D01*
X1847925Y-31542623D01*
X1847923Y-31542628D01*
X1792739Y-31709161D01*
X1792738Y-31709168D01*
X1788360Y-31752017D01*
X1761962Y-31816708D01*
X1752683Y-31827093D01*
X1206532Y-32373244D01*
X1141946Y-32434640D01*
X1106899Y-32484992D01*
X1104062Y-32488754D01*
X1065302Y-32536290D01*
X1065299Y-32536295D01*
X1049392Y-32566745D01*
X1045324Y-32573459D01*
X1025702Y-32601652D01*
X1001509Y-32658028D01*
X999488Y-32662282D01*
X971091Y-32716649D01*
X971090Y-32716650D01*
X961640Y-32749673D01*
X959007Y-32757069D01*
X945459Y-32788641D01*
X933113Y-32848717D01*
X931990Y-32853293D01*
X915113Y-32912275D01*
X915113Y-32912277D01*
X912503Y-32946539D01*
X911414Y-32954306D01*
X905980Y-32980750D01*
X904500Y-32987956D01*
X904500Y-33049295D01*
X904321Y-33054004D01*
X899662Y-33115172D01*
X500Y-33115172D01*
X500Y-12446000D01*
X1438341Y-12446000D01*
X1458936Y-12681403D01*
X1458938Y-12681413D01*
X1520094Y-12909655D01*
X1520096Y-12909659D01*
X1520097Y-12909663D01*
X1619965Y-13123830D01*
X1619967Y-13123834D01*
X1657386Y-13177273D01*
X1755501Y-13317396D01*
X1755506Y-13317402D01*
X1877818Y-13439714D01*
X1911303Y-13501037D01*
X1906319Y-13570729D01*
X1864447Y-13626662D01*
X1833471Y-13643577D01*
X1701912Y-13692646D01*
X1701906Y-13692649D01*
X1586812Y-13778809D01*
X1586809Y-13778812D01*
X1500649Y-13893906D01*
X1500645Y-13893913D01*
X1450403Y-14028620D01*
X1450401Y-14028627D01*
X1444000Y-14088155D01*
X1444000Y-14736000D01*
X2360314Y-14736000D01*
X2334507Y-14776156D01*
X2294000Y-14914111D01*
X2294000Y-15057889D01*
X2334507Y-15195844D01*
X2360314Y-15236000D01*
X1444000Y-15236000D01*
X1444000Y-15883844D01*
X1450401Y-15943372D01*
X1450403Y-15943379D01*
X1500645Y-16078086D01*
X1500649Y-16078093D01*
X1586809Y-16193187D01*
X1586812Y-16193190D01*
X1701906Y-16279350D01*
X1701913Y-16279354D01*
X1836620Y-16329596D01*
X1836627Y-16329598D01*
X1896155Y-16335999D01*
X1896172Y-16336000D01*
X2544000Y-16336000D01*
X2544000Y-15421501D01*
X2651685Y-15470680D01*
X2758237Y-15486000D01*
X2829763Y-15486000D01*
X2936315Y-15470680D01*
X3044000Y-15421501D01*
X3044000Y-16336000D01*
X3691828Y-16336000D01*
X3691844Y-16335999D01*
X3751372Y-16329598D01*
X3751379Y-16329596D01*
X3886086Y-16279354D01*
X3886093Y-16279350D01*
X4001187Y-16193190D01*
X4001190Y-16193187D01*
X4087350Y-16078093D01*
X4087354Y-16078086D01*
X4137596Y-15943379D01*
X4137598Y-15943372D01*
X4143999Y-15883844D01*
X4144000Y-15883827D01*
X4144000Y-15236000D01*
X3227686Y-15236000D01*
X3253493Y-15195844D01*
X3294000Y-15057889D01*
X3294000Y-14914111D01*
X3253493Y-14776156D01*
X3227686Y-14736000D01*
X4144000Y-14736000D01*
X4144000Y-14088172D01*
X4143999Y-14088155D01*
X4137598Y-14028627D01*
X4137596Y-14028620D01*
X4087354Y-13893913D01*
X4087350Y-13893906D01*
X4001190Y-13778812D01*
X4001187Y-13778809D01*
X3886093Y-13692649D01*
X3886088Y-13692646D01*
X3754528Y-13643577D01*
X3698595Y-13601705D01*
X3674178Y-13536241D01*
X3689030Y-13467968D01*
X3710175Y-13439720D01*
X3832495Y-13317401D01*
X3968035Y-13123830D01*
X4067903Y-12909663D01*
X4129063Y-12681408D01*
X4149659Y-12446000D01*
X4129063Y-12210592D01*
X4076682Y-12015101D01*
X4067905Y-11982344D01*
X4067904Y-11982343D01*
X4067903Y-11982337D01*
X3968035Y-11768171D01*
X3832495Y-11574599D01*
X3832494Y-11574597D01*
X3665402Y-11407506D01*
X3665396Y-11407501D01*
X3479842Y-11277575D01*
X3436217Y-11222998D01*
X3429023Y-11153500D01*
X3460546Y-11091145D01*
X3479842Y-11074425D01*
X3506778Y-11055564D01*
X3665401Y-10944495D01*
X3832495Y-10777401D01*
X3968035Y-10583830D01*
X4067903Y-10369663D01*
X4129063Y-10141408D01*
X4149659Y-9906000D01*
X4129063Y-9670592D01*
X4079909Y-9487145D01*
X4067905Y-9442344D01*
X4067904Y-9442343D01*
X4067903Y-9442337D01*
X3968035Y-9228171D01*
X3961495Y-9218830D01*
X3832494Y-9034597D01*
X3665402Y-8867506D01*
X3665396Y-8867501D01*
X3479842Y-8737575D01*
X3436217Y-8682998D01*
X3429023Y-8613500D01*
X3460546Y-8551145D01*
X3479842Y-8534425D01*
X3571923Y-8469949D01*
X3665401Y-8404495D01*
X3832495Y-8237401D01*
X3968035Y-8043830D01*
X4067903Y-7829663D01*
X4129063Y-7601408D01*
X4149659Y-7366000D01*
X4129063Y-7130592D01*
X4067903Y-6902337D01*
X3968035Y-6688171D01*
X3835639Y-6499088D01*
X3832494Y-6494597D01*
X3665402Y-6327506D01*
X3665395Y-6327501D01*
X3660009Y-6323730D01*
X3616618Y-6293347D01*
X3471834Y-6191967D01*
X3471830Y-6191965D01*
X3470312Y-6191257D01*
X3257663Y-6092097D01*
X3257659Y-6092096D01*
X3257655Y-6092094D01*
X3029413Y-6030938D01*
X3029403Y-6030936D01*
X2794001Y-6010341D01*
X2793999Y-6010341D01*
X2558596Y-6030936D01*
X2558586Y-6030938D01*
X2330344Y-6092094D01*
X2330335Y-6092098D01*
X2116171Y-6191964D01*
X2116169Y-6191965D01*
X1922597Y-6327505D01*
X1755505Y-6494597D01*
X1619965Y-6688169D01*
X1619964Y-6688171D01*
X1520098Y-6902335D01*
X1520094Y-6902344D01*
X1458938Y-7130586D01*
X1458936Y-7130596D01*
X1438341Y-7365999D01*
X1438341Y-7366000D01*
X1458936Y-7601403D01*
X1458938Y-7601413D01*
X1520094Y-7829655D01*
X1520096Y-7829659D01*
X1520097Y-7829663D01*
X1619965Y-8043830D01*
X1619967Y-8043834D01*
X1755501Y-8237395D01*
X1755506Y-8237402D01*
X1922597Y-8404493D01*
X1922603Y-8404498D01*
X2108158Y-8534425D01*
X2151783Y-8589002D01*
X2158977Y-8658500D01*
X2127454Y-8720855D01*
X2108158Y-8737575D01*
X1922597Y-8867505D01*
X1755505Y-9034597D01*
X1619965Y-9228169D01*
X1619964Y-9228171D01*
X1520098Y-9442335D01*
X1520094Y-9442344D01*
X1458938Y-9670586D01*
X1458936Y-9670596D01*
X1438341Y-9905999D01*
X1438341Y-9906000D01*
X1458936Y-10141403D01*
X1458938Y-10141413D01*
X1520094Y-10369655D01*
X1520096Y-10369659D01*
X1520097Y-10369663D01*
X1545985Y-10425179D01*
X1619965Y-10583830D01*
X1619967Y-10583834D01*
X1755501Y-10777395D01*
X1755506Y-10777402D01*
X1922597Y-10944493D01*
X1922603Y-10944498D01*
X2108158Y-11074425D01*
X2151783Y-11129002D01*
X2158977Y-11198500D01*
X2127454Y-11260855D01*
X2108158Y-11277575D01*
X1922597Y-11407505D01*
X1755505Y-11574597D01*
X1619965Y-11768169D01*
X1619964Y-11768171D01*
X1520098Y-11982335D01*
X1520094Y-11982344D01*
X1458938Y-12210586D01*
X1458936Y-12210596D01*
X1438341Y-12445999D01*
X1438341Y-12446000D01*
X500Y-12446000D01*
X500Y-1724099D01*
X20185Y-1657060D01*
X72989Y-1611305D01*
X110185Y-1601812D01*
X110087Y-1601130D01*
X114469Y-1600500D01*
X114470Y-1600500D01*
X234661Y-1583219D01*
X341075Y-1567919D01*
X341076Y-1567918D01*
X341080Y-1567918D01*
X560746Y-1503418D01*
X560749Y-1503416D01*
X560751Y-1503416D01*
X607733Y-1481960D01*
X5758225Y-1481960D01*
X6379941Y-1481960D01*
X6414377Y-1463155D01*
X6484069Y-1468138D01*
X6540003Y-1510008D01*
X6564422Y-1575472D01*
X6564738Y-1584321D01*
X6564738Y-1779598D01*
X6545053Y-1846637D01*
X6492249Y-1892392D01*
X6423091Y-1902336D01*
X6378474Y-1881960D01*
X5758228Y-1881960D01*
X5758226Y-1881961D01*
X5765680Y-1938587D01*
X5765682Y-1938593D01*
X5826137Y-2084545D01*
X5922313Y-2209884D01*
X6047651Y-2306060D01*
X6193603Y-2366514D01*
X6193607Y-2366515D01*
X6310914Y-2381959D01*
X6367737Y-2381958D01*
X6367738Y-2381958D01*
X6367738Y-2049197D01*
X6387423Y-1982158D01*
X6440227Y-1936403D01*
X6509385Y-1926459D01*
X6572941Y-1955484D01*
X6606299Y-2001745D01*
X6640701Y-2084800D01*
X6741904Y-2216691D01*
X6739091Y-2218848D01*
X6764841Y-2265739D01*
X6767738Y-2292386D01*
X6767738Y-2400098D01*
X6779404Y-2421463D01*
X6782238Y-2447821D01*
X6782238Y-2864280D01*
X6772799Y-2911732D01*
X6722695Y-3032694D01*
X6722693Y-3032699D01*
X6707238Y-3150098D01*
X6707238Y-3663823D01*
X6722693Y-3781223D01*
X6723001Y-3782372D01*
X6723001Y-3783561D01*
X6723754Y-3789281D01*
X6723001Y-3789380D01*
X6723003Y-3839541D01*
X6723755Y-3839640D01*
X6723003Y-3845344D01*
X6723004Y-3846539D01*
X6722694Y-3847694D01*
X6707238Y-3965098D01*
X6707238Y-4478823D01*
X6722691Y-4596213D01*
X6722694Y-4596222D01*
X6772799Y-4717185D01*
X6782238Y-4764638D01*
X6782238Y-4793272D01*
X6762553Y-4860311D01*
X6750388Y-4876244D01*
X6675204Y-4959744D01*
X6580559Y-5123675D01*
X6580556Y-5123682D01*
X6522065Y-5303700D01*
X6522064Y-5303704D01*
X6502278Y-5491960D01*
X6522064Y-5680216D01*
X6522065Y-5680219D01*
X6580556Y-5860237D01*
X6580559Y-5860244D01*
X6675205Y-6024176D01*
X6746328Y-6103166D01*
X6801867Y-6164848D01*
X6955003Y-6276108D01*
X6955008Y-6276111D01*
X7127930Y-6353102D01*
X7127935Y-6353104D01*
X7313092Y-6392460D01*
X7313093Y-6392460D01*
X7502382Y-6392460D01*
X7502384Y-6392460D01*
X7687541Y-6353104D01*
X7860468Y-6276111D01*
X8013609Y-6164848D01*
X8140271Y-6024176D01*
X8234917Y-5860244D01*
X8293412Y-5680216D01*
X8313198Y-5491960D01*
X8293412Y-5303704D01*
X8234917Y-5123676D01*
X8140271Y-4959744D01*
X8065088Y-4876244D01*
X8034858Y-4813252D01*
X8033238Y-4793272D01*
X8033238Y-4764638D01*
X8042677Y-4717185D01*
X8092782Y-4596222D01*
X8108238Y-4478821D01*
X8108237Y-3965100D01*
X8108237Y-3965098D01*
X8108237Y-3965096D01*
X8092783Y-3847704D01*
X8092782Y-3847702D01*
X8092782Y-3847698D01*
X8092780Y-3847693D01*
X8092476Y-3846556D01*
X8092475Y-3845366D01*
X8091722Y-3839639D01*
X8092475Y-3839539D01*
X8092475Y-3789379D01*
X8091721Y-3789280D01*
X8092475Y-3783552D01*
X8092475Y-3782365D01*
X8092778Y-3781231D01*
X8092782Y-3781222D01*
X8108238Y-3663821D01*
X8108237Y-3150100D01*
X8108237Y-3150098D01*
X8108237Y-3150096D01*
X8092784Y-3032706D01*
X8092782Y-3032699D01*
X8092782Y-3032698D01*
X8076821Y-2994166D01*
X8042677Y-2911732D01*
X8033238Y-2864280D01*
X8033238Y-2246185D01*
X8052923Y-2179146D01*
X8058852Y-2170711D01*
X8124774Y-2084801D01*
X8185282Y-1938722D01*
X8200738Y-1821321D01*
X8200737Y-1542600D01*
X8200737Y-1542599D01*
X8200737Y-1542596D01*
X8192755Y-1481960D01*
X9568225Y-1481960D01*
X10189941Y-1481960D01*
X10224377Y-1463155D01*
X10294069Y-1468138D01*
X10350003Y-1510008D01*
X10374422Y-1575472D01*
X10374738Y-1584321D01*
X10374738Y-1779598D01*
X10355053Y-1846637D01*
X10302249Y-1892392D01*
X10233091Y-1902336D01*
X10188474Y-1881960D01*
X9568228Y-1881960D01*
X9568226Y-1881961D01*
X9575680Y-1938587D01*
X9575682Y-1938593D01*
X9636137Y-2084545D01*
X9732313Y-2209884D01*
X9857651Y-2306060D01*
X10003603Y-2366514D01*
X10003607Y-2366515D01*
X10120914Y-2381959D01*
X10177737Y-2381958D01*
X10177738Y-2381958D01*
X10177738Y-2049197D01*
X10197423Y-1982158D01*
X10250227Y-1936403D01*
X10319385Y-1926459D01*
X10382941Y-1955484D01*
X10416299Y-2001745D01*
X10450701Y-2084800D01*
X10551904Y-2216691D01*
X10549091Y-2218848D01*
X10574841Y-2265739D01*
X10577738Y-2292386D01*
X10577738Y-2400098D01*
X10589404Y-2421463D01*
X10592238Y-2447821D01*
X10592238Y-2864280D01*
X10582799Y-2911732D01*
X10532695Y-3032694D01*
X10532693Y-3032699D01*
X10517238Y-3150098D01*
X10517238Y-3663823D01*
X10532693Y-3781223D01*
X10533001Y-3782372D01*
X10533001Y-3783561D01*
X10533754Y-3789281D01*
X10533001Y-3789380D01*
X10533003Y-3839541D01*
X10533755Y-3839640D01*
X10533003Y-3845344D01*
X10533004Y-3846539D01*
X10532694Y-3847694D01*
X10517238Y-3965098D01*
X10517238Y-4478823D01*
X10532691Y-4596213D01*
X10532694Y-4596222D01*
X10582799Y-4717185D01*
X10592238Y-4764638D01*
X10592238Y-4793272D01*
X10572553Y-4860311D01*
X10560388Y-4876244D01*
X10485204Y-4959744D01*
X10390559Y-5123675D01*
X10390556Y-5123682D01*
X10332065Y-5303700D01*
X10332064Y-5303704D01*
X10312278Y-5491960D01*
X10332064Y-5680216D01*
X10332065Y-5680219D01*
X10390556Y-5860237D01*
X10390559Y-5860244D01*
X10485205Y-6024176D01*
X10556328Y-6103166D01*
X10611867Y-6164848D01*
X10765003Y-6276108D01*
X10765008Y-6276111D01*
X10937930Y-6353102D01*
X10937935Y-6353104D01*
X11123092Y-6392460D01*
X11123093Y-6392460D01*
X11312382Y-6392460D01*
X11312384Y-6392460D01*
X11497541Y-6353104D01*
X11670468Y-6276111D01*
X11823609Y-6164848D01*
X11950271Y-6024176D01*
X12044917Y-5860244D01*
X12103412Y-5680216D01*
X12123198Y-5491960D01*
X12103412Y-5303704D01*
X12044917Y-5123676D01*
X11950271Y-4959744D01*
X11875088Y-4876244D01*
X11844858Y-4813252D01*
X11843238Y-4793272D01*
X11843238Y-4764638D01*
X11852677Y-4717185D01*
X11902782Y-4596222D01*
X11918238Y-4478821D01*
X11918237Y-3965100D01*
X11918237Y-3965098D01*
X11918237Y-3965096D01*
X11902783Y-3847704D01*
X11902782Y-3847702D01*
X11902782Y-3847698D01*
X11902780Y-3847693D01*
X11902476Y-3846556D01*
X11902475Y-3845366D01*
X11901722Y-3839639D01*
X11902475Y-3839539D01*
X11902475Y-3789379D01*
X11901721Y-3789280D01*
X11902475Y-3783552D01*
X11902475Y-3782365D01*
X11902778Y-3781231D01*
X11902782Y-3781222D01*
X11918238Y-3663821D01*
X11918237Y-3150100D01*
X11918237Y-3150098D01*
X11918237Y-3150096D01*
X11902784Y-3032706D01*
X11902782Y-3032699D01*
X11902782Y-3032698D01*
X11886821Y-2994166D01*
X11852677Y-2911732D01*
X11843238Y-2864280D01*
X11843238Y-2246185D01*
X11862923Y-2179146D01*
X11868852Y-2170711D01*
X11934774Y-2084801D01*
X11995282Y-1938722D01*
X12010738Y-1821321D01*
X12010737Y-1542600D01*
X12010737Y-1542599D01*
X12010737Y-1542596D01*
X11995284Y-1425206D01*
X11995282Y-1425201D01*
X11995282Y-1425198D01*
X11934774Y-1279119D01*
X11838520Y-1153678D01*
X11713079Y-1057424D01*
X11567000Y-996916D01*
X11566998Y-996915D01*
X11449599Y-981460D01*
X10935875Y-981460D01*
X10818474Y-996915D01*
X10816349Y-997485D01*
X10814148Y-997485D01*
X10810419Y-997976D01*
X10810354Y-997485D01*
X10760054Y-997485D01*
X10759926Y-998465D01*
X10752489Y-997485D01*
X10752175Y-997486D01*
X10751870Y-997404D01*
X10634568Y-981960D01*
X10577738Y-981960D01*
X10577738Y-1071533D01*
X10558053Y-1138572D01*
X10551402Y-1146845D01*
X10551904Y-1147231D01*
X10546958Y-1153676D01*
X10546956Y-1153678D01*
X10468966Y-1255316D01*
X10450701Y-1279120D01*
X10416299Y-1362175D01*
X10372458Y-1416578D01*
X10306164Y-1438643D01*
X10238464Y-1421364D01*
X10190854Y-1370226D01*
X10177738Y-1314722D01*
X10177738Y-981960D01*
X10177737Y-981959D01*
X10120914Y-981960D01*
X10003609Y-997402D01*
X10003604Y-997404D01*
X9857652Y-1057859D01*
X9732313Y-1154035D01*
X9636137Y-1279373D01*
X9575682Y-1425328D01*
X9568225Y-1481960D01*
X8192755Y-1481960D01*
X8185284Y-1425206D01*
X8185282Y-1425201D01*
X8185282Y-1425198D01*
X8124774Y-1279119D01*
X8028520Y-1153678D01*
X7903079Y-1057424D01*
X7757000Y-996916D01*
X7756998Y-996915D01*
X7639599Y-981460D01*
X7125875Y-981460D01*
X7008474Y-996915D01*
X7006349Y-997485D01*
X7004148Y-997485D01*
X7000419Y-997976D01*
X7000354Y-997485D01*
X6950054Y-997485D01*
X6949926Y-998465D01*
X6942489Y-997485D01*
X6942175Y-997486D01*
X6941870Y-997404D01*
X6824568Y-981960D01*
X6767738Y-981960D01*
X6767738Y-1071533D01*
X6748053Y-1138572D01*
X6741402Y-1146845D01*
X6741904Y-1147231D01*
X6736958Y-1153676D01*
X6736956Y-1153678D01*
X6658966Y-1255316D01*
X6640701Y-1279120D01*
X6606299Y-1362175D01*
X6562458Y-1416578D01*
X6496164Y-1438643D01*
X6428464Y-1421364D01*
X6380854Y-1370226D01*
X6367738Y-1314722D01*
X6367738Y-981960D01*
X6367737Y-981959D01*
X6310914Y-981960D01*
X6193609Y-997402D01*
X6193604Y-997404D01*
X6047652Y-1057859D01*
X5922313Y-1154035D01*
X5826137Y-1279373D01*
X5765682Y-1425328D01*
X5758225Y-1481960D01*
X607733Y-1481960D01*
X768985Y-1408319D01*
X768989Y-1408316D01*
X768997Y-1408313D01*
X961594Y-1284539D01*
X1134615Y-1134615D01*
X1284539Y-961594D01*
X1408313Y-768997D01*
X1408316Y-768989D01*
X1408319Y-768985D01*
X1503416Y-560751D01*
X1503416Y-560749D01*
X1503418Y-560746D01*
X1567918Y-341080D01*
X1600500Y-114470D01*
X1600500Y-114468D01*
X1601130Y-110087D01*
X1602424Y-110273D01*
X1624825Y-50199D01*
X1680755Y-8322D01*
X1724099Y-500D01*
X23275901Y-500D01*
X23342940Y-20185D01*
G37*
%TD.AperFunction*%
%TD*%
M02*
