%TF.GenerationSoftware,KiCad,Pcbnew,7.0.9*%
%TF.CreationDate,2025-03-23T17:44:29-04:00*%
%TF.ProjectId,Compact_Control,436f6d70-6163-4745-9f43-6f6e74726f6c,rev?*%
%TF.SameCoordinates,Original*%
%TF.FileFunction,Copper,L2,Bot*%
%TF.FilePolarity,Positive*%
%FSLAX46Y46*%
G04 Gerber Fmt 4.6, Leading zero omitted, Abs format (unit mm)*
G04 Created by KiCad (PCBNEW 7.0.9) date 2025-03-23 17:44:29*
%MOMM*%
%LPD*%
G01*
G04 APERTURE LIST*
%TA.AperFunction,ComponentPad*%
%ADD10R,1.700000X1.700000*%
%TD*%
%TA.AperFunction,ComponentPad*%
%ADD11C,1.700000*%
%TD*%
%TA.AperFunction,ComponentPad*%
%ADD12O,1.700000X1.700000*%
%TD*%
%TA.AperFunction,ViaPad*%
%ADD13C,0.800000*%
%TD*%
%TA.AperFunction,Conductor*%
%ADD14C,0.250000*%
%TD*%
%TA.AperFunction,Conductor*%
%ADD15C,1.000000*%
%TD*%
G04 APERTURE END LIST*
D10*
%TO.P,U1,1,PA02_A0_D0*%
%TO.N,LED0*%
X20117738Y-51846960D03*
D11*
%TO.P,U1,2,PA4_A1_D1*%
%TO.N,LED1*%
X20117738Y-49306960D03*
%TO.P,U1,3,PA10_A2_D2*%
%TO.N,LED2*%
X20117738Y-46766960D03*
%TO.P,U1,4,PA11_A3_D3*%
%TO.N,LED3*%
X20117738Y-44226960D03*
%TO.P,U1,5,PA8_A4_D4_SDA*%
%TO.N,SDA*%
X20117738Y-41686960D03*
%TO.P,U1,6,PA9_A5_D5_SCL*%
%TO.N,SCL*%
X20117738Y-39146960D03*
%TO.P,U1,7,PB08_A6_D6_TX*%
%TO.N,unconnected-(U1-PB08_A6_D6_TX-Pad7)*%
X20117738Y-36606960D03*
%TO.P,U1,8,PB09_A7_D7_RX*%
%TO.N,unconnected-(U1-PB09_A7_D7_RX-Pad8)*%
X4867738Y-36606960D03*
%TO.P,U1,9,PA7_A8_D8_SCK*%
%TO.N,PUMP_PWM*%
X4867738Y-39146960D03*
%TO.P,U1,10,PA5_A9_D9_MISO*%
%TO.N,VALVE_1_PFM*%
X4867738Y-41686960D03*
%TO.P,U1,11,PA6_A10_D10_MOSI*%
%TO.N,VALVE_2_PFM*%
X4867738Y-44226960D03*
%TO.P,U1,12,3V3*%
%TO.N,3V3*%
X4867738Y-46766960D03*
%TO.P,U1,13,GND*%
%TO.N,GND*%
X4867738Y-49306960D03*
%TO.P,U1,14,5V*%
%TO.N,Net-(D1-K)*%
X4867738Y-51846960D03*
%TD*%
D10*
%TO.P,J6,1,Pin_1*%
%TO.N,VIN*%
X2794000Y-26162000D03*
D12*
%TO.P,J6,2,Pin_2*%
%TO.N,VIN_SRC*%
X2794000Y-23622000D03*
%TO.P,J6,3,Pin_3*%
%TO.N,unconnected-(J6-Pin_3-Pad3)*%
X2794000Y-21082000D03*
%TD*%
D10*
%TO.P,J4,1,Pin_1*%
%TO.N,GND*%
X2794000Y-14986000D03*
D12*
%TO.P,J4,2,Pin_2*%
%TO.N,VIN_SRC*%
X2794000Y-12446000D03*
%TO.P,J4,3,Pin_3*%
%TO.N,SDA*%
X2794000Y-9906000D03*
%TO.P,J4,4,Pin_4*%
%TO.N,SCL*%
X2794000Y-7366000D03*
%TD*%
D10*
%TO.P,J3,1,Pin_1*%
%TO.N,PUMP_-*%
X22225000Y-25176960D03*
D12*
%TO.P,J3,2,Pin_2*%
%TO.N,PUMP_+*%
X22225000Y-27716960D03*
%TD*%
D10*
%TO.P,J1,1,Pin_1*%
%TO.N,Net-(D2-A)*%
X22225000Y-7396960D03*
D12*
%TO.P,J1,2,Pin_2*%
%TO.N,VIN*%
X22225000Y-9936960D03*
%TD*%
D10*
%TO.P,U2,1,GND*%
%TO.N,GND*%
X8677738Y-18926960D03*
D12*
%TO.P,U2,2,VCC*%
%TO.N,3V3*%
X8677738Y-21466960D03*
%TO.P,U2,3,EN/PWM*%
%TO.N,PUMP_PWM*%
X8677738Y-24006960D03*
%TO.P,U2,4,PHASE*%
%TO.N,GND*%
X8677738Y-26546960D03*
%TO.P,U2,5,~SLEEP*%
%TO.N,unconnected-(U2-~SLEEP-Pad5)*%
X8677738Y-29086960D03*
D10*
%TO.P,U2,6,GND*%
%TO.N,GND*%
X16297738Y-18926960D03*
D12*
%TO.P,U2,7,VIN*%
%TO.N,VIN*%
X16297738Y-21466960D03*
%TO.P,U2,8,OUT2*%
%TO.N,PUMP_-*%
X16297738Y-24006960D03*
%TO.P,U2,9,OUT1*%
%TO.N,PUMP_+*%
X16297738Y-26546960D03*
%TO.P,U2,10,VM*%
%TO.N,unconnected-(U2-VM-Pad10)*%
X16297738Y-29086960D03*
%TD*%
D10*
%TO.P,J2,1,Pin_1*%
%TO.N,Net-(D3-A)*%
X22225000Y-16286960D03*
D12*
%TO.P,J2,2,Pin_2*%
%TO.N,VIN*%
X22225000Y-18826960D03*
%TD*%
D13*
%TO.N,VIN*%
X9947738Y-32034960D03*
%TO.N,LED0*%
X18837738Y-5491960D03*
%TO.N,LED1*%
X15027738Y-5491960D03*
%TO.N,LED2*%
X11217738Y-5491960D03*
%TO.N,LED3*%
X7407738Y-5491960D03*
%TD*%
D14*
%TO.N,SDA*%
X20117738Y-41686960D02*
X20086960Y-41686960D01*
X20086960Y-41686960D02*
X18415000Y-40015000D01*
X2824960Y-9936960D02*
X2794000Y-9906000D01*
X18415000Y-38415000D02*
X12646342Y-32646342D01*
X12646342Y-32646342D02*
X12646342Y-13561960D01*
X9021342Y-9936960D02*
X2824960Y-9936960D01*
X18415000Y-40015000D02*
X18415000Y-38415000D01*
X12646342Y-13561960D02*
X9021342Y-9936960D01*
D15*
%TO.N,VIN*%
X7269960Y-32034960D02*
X5715000Y-30480000D01*
X22906960Y-9936960D02*
X24130000Y-11160000D01*
X24130000Y-11160000D02*
X24130000Y-17554349D01*
X5715000Y-30480000D02*
X5715000Y-28575000D01*
X3810000Y-27178000D02*
X2794000Y-26162000D01*
X5715000Y-28575000D02*
X4318000Y-27178000D01*
X24130000Y-17554349D02*
X22857389Y-18826960D01*
X4318000Y-27178000D02*
X3810000Y-27178000D01*
X9947738Y-32034960D02*
X7269960Y-32034960D01*
D14*
%TO.N,SCL*%
X13096342Y-32459946D02*
X19783356Y-39146960D01*
X13096342Y-13375564D02*
X13096342Y-32459946D01*
X19783356Y-39146960D02*
X20117738Y-39146960D01*
X9207738Y-9486960D02*
X13096342Y-13375564D01*
X4914960Y-9486960D02*
X9207738Y-9486960D01*
X2794000Y-7366000D02*
X4914960Y-9486960D01*
%TO.N,LED0*%
X23282738Y-48681960D02*
X20117738Y-51846960D01*
X23282738Y-32796960D02*
X23282738Y-48681960D01*
X19050000Y-5704222D02*
X19050000Y-28564222D01*
X18837738Y-5491960D02*
X19050000Y-5704222D01*
X19050000Y-28564222D02*
X23282738Y-32796960D01*
%TO.N,LED1*%
X22832738Y-46591960D02*
X20117738Y-49306960D01*
X15027738Y-11839168D02*
X18600000Y-15411430D01*
X18600000Y-28750618D02*
X22832738Y-32983356D01*
X18600000Y-15411430D02*
X18600000Y-28750618D01*
X15027738Y-5491960D02*
X15027738Y-11839168D01*
X22832738Y-32983356D02*
X22832738Y-46591960D01*
%TO.N,LED2*%
X11217738Y-5491960D02*
X11217738Y-8665564D01*
X18150000Y-28937014D02*
X22382738Y-33169752D01*
X11217738Y-8665564D02*
X18150000Y-15597826D01*
X18150000Y-15597826D02*
X18150000Y-28937014D01*
X22382738Y-33169752D02*
X22382738Y-44501960D01*
X22382738Y-44501960D02*
X20117738Y-46766960D01*
%TO.N,LED3*%
X21932738Y-33356148D02*
X21932738Y-42411960D01*
X7407738Y-5491960D02*
X17700000Y-15784222D01*
X17700000Y-29123410D02*
X21932738Y-33356148D01*
X21932738Y-42411960D02*
X20117738Y-44226960D01*
X17700000Y-15784222D02*
X17700000Y-29123410D01*
%TO.N,PUMP_PWM*%
X10305564Y-24006960D02*
X11529738Y-25231134D01*
X8677738Y-24006960D02*
X10305564Y-24006960D01*
X11529738Y-32484960D02*
X4867738Y-39146960D01*
X11529738Y-25231134D02*
X11529738Y-32484960D01*
%TO.N,3V3*%
X6350000Y-38301094D02*
X6350000Y-44754698D01*
X6350000Y-44754698D02*
X4867738Y-46236960D01*
X8677738Y-21742738D02*
X11979738Y-25044738D01*
X4867738Y-46236960D02*
X4867738Y-46766960D01*
X11979738Y-25044738D02*
X11979738Y-32671356D01*
X11979738Y-32671356D02*
X6350000Y-38301094D01*
X8677738Y-21466960D02*
X8677738Y-21742738D01*
D15*
%TO.N,VIN_SRC*%
X5334000Y-21082000D02*
X2794000Y-23622000D01*
X5334000Y-14732000D02*
X5334000Y-21082000D01*
X2794000Y-12446000D02*
X3048000Y-12446000D01*
X3048000Y-12446000D02*
X5334000Y-14732000D01*
%TD*%
%TA.AperFunction,Conductor*%
%TO.N,GND*%
G36*
X8777929Y-10582145D02*
G01*
X8798571Y-10598779D01*
X11984523Y-13784731D01*
X12018008Y-13846054D01*
X12020842Y-13872412D01*
X12020842Y-23901889D01*
X12001157Y-23968928D01*
X11948353Y-24014683D01*
X11879195Y-24024627D01*
X11815639Y-23995602D01*
X11809161Y-23989570D01*
X9948979Y-22129388D01*
X9915494Y-22068065D01*
X9920478Y-21998373D01*
X9924278Y-21989302D01*
X9951641Y-21930623D01*
X10012801Y-21702368D01*
X10033397Y-21466960D01*
X10012801Y-21231552D01*
X9951641Y-21003297D01*
X9851773Y-20789131D01*
X9823154Y-20748259D01*
X9716234Y-20595560D01*
X9716233Y-20595559D01*
X9593917Y-20473243D01*
X9560434Y-20411923D01*
X9565418Y-20342231D01*
X9607289Y-20286297D01*
X9638267Y-20269382D01*
X9769824Y-20220314D01*
X9769831Y-20220310D01*
X9884925Y-20134150D01*
X9884928Y-20134147D01*
X9971088Y-20019053D01*
X9971092Y-20019046D01*
X10021334Y-19884339D01*
X10021336Y-19884332D01*
X10027737Y-19824804D01*
X10027738Y-19824787D01*
X10027738Y-19176960D01*
X9111424Y-19176960D01*
X9137231Y-19136804D01*
X9177738Y-18998849D01*
X9177738Y-18855071D01*
X9137231Y-18717116D01*
X9111424Y-18676960D01*
X10027738Y-18676960D01*
X10027738Y-18029132D01*
X10027737Y-18029115D01*
X10021336Y-17969587D01*
X10021334Y-17969580D01*
X9971092Y-17834873D01*
X9971088Y-17834866D01*
X9884928Y-17719772D01*
X9884925Y-17719769D01*
X9769831Y-17633609D01*
X9769824Y-17633605D01*
X9635117Y-17583363D01*
X9635110Y-17583361D01*
X9575582Y-17576960D01*
X8927738Y-17576960D01*
X8927738Y-18491458D01*
X8820053Y-18442280D01*
X8713501Y-18426960D01*
X8641975Y-18426960D01*
X8535423Y-18442280D01*
X8427738Y-18491458D01*
X8427738Y-17576960D01*
X7779893Y-17576960D01*
X7720365Y-17583361D01*
X7720358Y-17583363D01*
X7585651Y-17633605D01*
X7585644Y-17633609D01*
X7470550Y-17719769D01*
X7470547Y-17719772D01*
X7384387Y-17834866D01*
X7384383Y-17834873D01*
X7334141Y-17969580D01*
X7334139Y-17969587D01*
X7327738Y-18029115D01*
X7327738Y-18676960D01*
X8244052Y-18676960D01*
X8218245Y-18717116D01*
X8177738Y-18855071D01*
X8177738Y-18998849D01*
X8218245Y-19136804D01*
X8244052Y-19176960D01*
X7327738Y-19176960D01*
X7327738Y-19824804D01*
X7334139Y-19884332D01*
X7334141Y-19884339D01*
X7384383Y-20019046D01*
X7384387Y-20019053D01*
X7470547Y-20134147D01*
X7470550Y-20134150D01*
X7585644Y-20220310D01*
X7585651Y-20220314D01*
X7717208Y-20269381D01*
X7773141Y-20311252D01*
X7797559Y-20376716D01*
X7782708Y-20444989D01*
X7761557Y-20473244D01*
X7639241Y-20595560D01*
X7503703Y-20789129D01*
X7503702Y-20789131D01*
X7403836Y-21003295D01*
X7403832Y-21003304D01*
X7342676Y-21231546D01*
X7342674Y-21231556D01*
X7322079Y-21466959D01*
X7322079Y-21466960D01*
X7342674Y-21702363D01*
X7342676Y-21702373D01*
X7403832Y-21930615D01*
X7403834Y-21930619D01*
X7403835Y-21930623D01*
X7492373Y-22120493D01*
X7503703Y-22144790D01*
X7503705Y-22144794D01*
X7639239Y-22338355D01*
X7639244Y-22338362D01*
X7806335Y-22505453D01*
X7806341Y-22505458D01*
X7991896Y-22635385D01*
X8035521Y-22689962D01*
X8042715Y-22759460D01*
X8011192Y-22821815D01*
X7991896Y-22838535D01*
X7806335Y-22968465D01*
X7639243Y-23135557D01*
X7503703Y-23329129D01*
X7503702Y-23329131D01*
X7403836Y-23543295D01*
X7403832Y-23543304D01*
X7342676Y-23771546D01*
X7342674Y-23771556D01*
X7322079Y-24006959D01*
X7322079Y-24006960D01*
X7342674Y-24242363D01*
X7342676Y-24242373D01*
X7403832Y-24470615D01*
X7403834Y-24470619D01*
X7403835Y-24470623D01*
X7488480Y-24652145D01*
X7503703Y-24684790D01*
X7503705Y-24684794D01*
X7585966Y-24802274D01*
X7639239Y-24878356D01*
X7639244Y-24878362D01*
X7806335Y-25045453D01*
X7806341Y-25045458D01*
X7992332Y-25175690D01*
X8035957Y-25230267D01*
X8043151Y-25299765D01*
X8011628Y-25362120D01*
X7992333Y-25378840D01*
X7806660Y-25508850D01*
X7806658Y-25508851D01*
X7639629Y-25675880D01*
X7639624Y-25675886D01*
X7504138Y-25869380D01*
X7504137Y-25869382D01*
X7404308Y-26083467D01*
X7404305Y-26083473D01*
X7347102Y-26296959D01*
X7347102Y-26296960D01*
X8244052Y-26296960D01*
X8218245Y-26337116D01*
X8177738Y-26475071D01*
X8177738Y-26618849D01*
X8218245Y-26756804D01*
X8244052Y-26796960D01*
X7347102Y-26796960D01*
X7404305Y-27010446D01*
X7404308Y-27010452D01*
X7504137Y-27224538D01*
X7639632Y-27418042D01*
X7806655Y-27585065D01*
X7992333Y-27715079D01*
X8035957Y-27769656D01*
X8043150Y-27839155D01*
X8011628Y-27901509D01*
X7992333Y-27918229D01*
X7806332Y-28048468D01*
X7639243Y-28215557D01*
X7503703Y-28409129D01*
X7503702Y-28409131D01*
X7403836Y-28623295D01*
X7403832Y-28623304D01*
X7342676Y-28851546D01*
X7342674Y-28851556D01*
X7322079Y-29086959D01*
X7322079Y-29086960D01*
X7342674Y-29322363D01*
X7342676Y-29322373D01*
X7403832Y-29550615D01*
X7403834Y-29550619D01*
X7403835Y-29550623D01*
X7503703Y-29764790D01*
X7503705Y-29764794D01*
X7612019Y-29919481D01*
X7639243Y-29958361D01*
X7806337Y-30125455D01*
X7903122Y-30193225D01*
X7999903Y-30260992D01*
X7999905Y-30260993D01*
X7999908Y-30260995D01*
X8214075Y-30360863D01*
X8442330Y-30422023D01*
X8630656Y-30438499D01*
X8677737Y-30442619D01*
X8677738Y-30442619D01*
X8677739Y-30442619D01*
X8716972Y-30439186D01*
X8913146Y-30422023D01*
X9141401Y-30360863D01*
X9355568Y-30260995D01*
X9549139Y-30125455D01*
X9716233Y-29958361D01*
X9851773Y-29764790D01*
X9951641Y-29550623D01*
X10012801Y-29322368D01*
X10033397Y-29086960D01*
X10012801Y-28851552D01*
X9951641Y-28623297D01*
X9851773Y-28409131D01*
X9841735Y-28394794D01*
X9716232Y-28215557D01*
X9549140Y-28048466D01*
X9549139Y-28048465D01*
X9363143Y-27918229D01*
X9319519Y-27863652D01*
X9312326Y-27794153D01*
X9343848Y-27731799D01*
X9363143Y-27715079D01*
X9548820Y-27585065D01*
X9715843Y-27418042D01*
X9851338Y-27224538D01*
X9951167Y-27010452D01*
X9951170Y-27010446D01*
X10008374Y-26796960D01*
X9111424Y-26796960D01*
X9137231Y-26756804D01*
X9177738Y-26618849D01*
X9177738Y-26475071D01*
X9137231Y-26337116D01*
X9111424Y-26296960D01*
X10008374Y-26296960D01*
X10008373Y-26296959D01*
X9951170Y-26083473D01*
X9951167Y-26083467D01*
X9851338Y-25869382D01*
X9851337Y-25869380D01*
X9715851Y-25675886D01*
X9715846Y-25675880D01*
X9548816Y-25508850D01*
X9363143Y-25378839D01*
X9319518Y-25324262D01*
X9312326Y-25254764D01*
X9343848Y-25192409D01*
X9363144Y-25175690D01*
X9363580Y-25175385D01*
X9549139Y-25045455D01*
X9716233Y-24878361D01*
X9851390Y-24685337D01*
X9905967Y-24641712D01*
X9952965Y-24632460D01*
X9995112Y-24632460D01*
X10062151Y-24652145D01*
X10082793Y-24668779D01*
X10867919Y-25453905D01*
X10901404Y-25515228D01*
X10904238Y-25541586D01*
X10904238Y-31278594D01*
X10884553Y-31345633D01*
X10831749Y-31391388D01*
X10762591Y-31401332D01*
X10699035Y-31372307D01*
X10690364Y-31364027D01*
X10672879Y-31345633D01*
X10602797Y-31271907D01*
X10445382Y-31162343D01*
X10435788Y-31155665D01*
X10248794Y-31075419D01*
X10049479Y-31034460D01*
X7735742Y-31034460D01*
X7668703Y-31014775D01*
X7648061Y-30998141D01*
X6751819Y-30101899D01*
X6718334Y-30040576D01*
X6715500Y-30014218D01*
X6715500Y-28587675D01*
X6717756Y-28498642D01*
X6717755Y-28498641D01*
X6717756Y-28498636D01*
X6706929Y-28438233D01*
X6706282Y-28433620D01*
X6700074Y-28372562D01*
X6700073Y-28372560D01*
X6700073Y-28372557D01*
X6689790Y-28339787D01*
X6687917Y-28332154D01*
X6681858Y-28298348D01*
X6659102Y-28241378D01*
X6657521Y-28236937D01*
X6639853Y-28180624D01*
X6639159Y-28178412D01*
X6639158Y-28178410D01*
X6639157Y-28178407D01*
X6623949Y-28151010D01*
X6622485Y-28148371D01*
X6619117Y-28141278D01*
X6607386Y-28111909D01*
X6606377Y-28109383D01*
X6572620Y-28058163D01*
X6570180Y-28054134D01*
X6558783Y-28033601D01*
X6540409Y-28000498D01*
X6540407Y-28000495D01*
X6518033Y-27974434D01*
X6513302Y-27968159D01*
X6502895Y-27952368D01*
X6494402Y-27939481D01*
X6451012Y-27896091D01*
X6447822Y-27892648D01*
X6407867Y-27846106D01*
X6407863Y-27846102D01*
X6380698Y-27825074D01*
X6374803Y-27819882D01*
X5034451Y-26479531D01*
X4973061Y-26414949D01*
X4973060Y-26414948D01*
X4973059Y-26414947D01*
X4929325Y-26384507D01*
X4922709Y-26379902D01*
X4918946Y-26377064D01*
X4871413Y-26338305D01*
X4871406Y-26338300D01*
X4840959Y-26322397D01*
X4834251Y-26318334D01*
X4806049Y-26298705D01*
X4806046Y-26298703D01*
X4806045Y-26298703D01*
X4806041Y-26298701D01*
X4749680Y-26274514D01*
X4745424Y-26272493D01*
X4691057Y-26244094D01*
X4691050Y-26244091D01*
X4691049Y-26244091D01*
X4685008Y-26242362D01*
X4658030Y-26234642D01*
X4650630Y-26232008D01*
X4619057Y-26218459D01*
X4619058Y-26218459D01*
X4558966Y-26206109D01*
X4554391Y-26204986D01*
X4495420Y-26188113D01*
X4495425Y-26188113D01*
X4461158Y-26185503D01*
X4453380Y-26184412D01*
X4419742Y-26177500D01*
X4419741Y-26177500D01*
X4358402Y-26177500D01*
X4353695Y-26177321D01*
X4348799Y-26176948D01*
X4292526Y-26172662D01*
X4288624Y-26173159D01*
X4288158Y-26173218D01*
X4219170Y-26162161D01*
X4184814Y-26137893D01*
X4180818Y-26133897D01*
X4147333Y-26072574D01*
X4144499Y-26046216D01*
X4144499Y-25264129D01*
X4144498Y-25264123D01*
X4144497Y-25264116D01*
X4138091Y-25204517D01*
X4127339Y-25175690D01*
X4087797Y-25069671D01*
X4087793Y-25069664D01*
X4001547Y-24954455D01*
X4001544Y-24954452D01*
X3886335Y-24868206D01*
X3886328Y-24868202D01*
X3754917Y-24819189D01*
X3698983Y-24777318D01*
X3674566Y-24711853D01*
X3689418Y-24643580D01*
X3710563Y-24615332D01*
X3832495Y-24493401D01*
X3968035Y-24299830D01*
X4067903Y-24085663D01*
X4129063Y-23857408D01*
X4140043Y-23731901D01*
X4165495Y-23666834D01*
X4175882Y-23655037D01*
X6032487Y-21798433D01*
X6097053Y-21737059D01*
X6132119Y-21686675D01*
X6134912Y-21682972D01*
X6173697Y-21635408D01*
X6189604Y-21604952D01*
X6193666Y-21598248D01*
X6213295Y-21570049D01*
X6237497Y-21513650D01*
X6239500Y-21509431D01*
X6267909Y-21455049D01*
X6277357Y-21422022D01*
X6279988Y-21414633D01*
X6293540Y-21383058D01*
X6305895Y-21322930D01*
X6306999Y-21318429D01*
X6323886Y-21259418D01*
X6326494Y-21225157D01*
X6327585Y-21217389D01*
X6334500Y-21183743D01*
X6334500Y-21122398D01*
X6334679Y-21117688D01*
X6339337Y-21056524D01*
X6334997Y-21022442D01*
X6334500Y-21014603D01*
X6334500Y-14744677D01*
X6334720Y-14736000D01*
X6336756Y-14655637D01*
X6325932Y-14595247D01*
X6325282Y-14590617D01*
X6319074Y-14529562D01*
X6308790Y-14496786D01*
X6306917Y-14489154D01*
X6300858Y-14455349D01*
X6300858Y-14455347D01*
X6278102Y-14398378D01*
X6276521Y-14393937D01*
X6258157Y-14335407D01*
X6241488Y-14305378D01*
X6238117Y-14298278D01*
X6225378Y-14266386D01*
X6225377Y-14266383D01*
X6191620Y-14215163D01*
X6189180Y-14211134D01*
X6168965Y-14174715D01*
X6159409Y-14157498D01*
X6159407Y-14157495D01*
X6137033Y-14131434D01*
X6132302Y-14125159D01*
X6113402Y-14096481D01*
X6070012Y-14053091D01*
X6066822Y-14049648D01*
X6026867Y-14003106D01*
X6026863Y-14003102D01*
X5999698Y-13982074D01*
X5993811Y-13976890D01*
X4116522Y-12099602D01*
X4084429Y-12044014D01*
X4067904Y-11982341D01*
X4067903Y-11982337D01*
X3968035Y-11768171D01*
X3968034Y-11768169D01*
X3832494Y-11574597D01*
X3665402Y-11407506D01*
X3665396Y-11407501D01*
X3479842Y-11277575D01*
X3436217Y-11222998D01*
X3429023Y-11153500D01*
X3460546Y-11091145D01*
X3479842Y-11074425D01*
X3621181Y-10975458D01*
X3665401Y-10944495D01*
X3832495Y-10777401D01*
X3945974Y-10615335D01*
X4000551Y-10571712D01*
X4047549Y-10562460D01*
X8710890Y-10562460D01*
X8777929Y-10582145D01*
G37*
%TD.AperFunction*%
%TA.AperFunction,Conductor*%
G36*
X23342940Y-20185D02*
G01*
X23388695Y-72989D01*
X23398187Y-110185D01*
X23398870Y-110087D01*
X23432080Y-341075D01*
X23432083Y-341085D01*
X23496583Y-560751D01*
X23591680Y-768985D01*
X23591693Y-769008D01*
X23715456Y-961587D01*
X23715460Y-961593D01*
X23865384Y-1134615D01*
X24038406Y-1284539D01*
X24038412Y-1284543D01*
X24230991Y-1408306D01*
X24231014Y-1408319D01*
X24439248Y-1503416D01*
X24439252Y-1503417D01*
X24439254Y-1503418D01*
X24658920Y-1567918D01*
X24658921Y-1567918D01*
X24658924Y-1567919D01*
X24819053Y-1590942D01*
X24885530Y-1600500D01*
X24885531Y-1600500D01*
X24889913Y-1601130D01*
X24889726Y-1602424D01*
X24949801Y-1624825D01*
X24991678Y-1680755D01*
X24999500Y-1724099D01*
X24999500Y-10315038D01*
X24979815Y-10382077D01*
X24927011Y-10427832D01*
X24857853Y-10437776D01*
X24799593Y-10413090D01*
X24795691Y-10410069D01*
X24789806Y-10404886D01*
X23578540Y-9193620D01*
X23460367Y-9097262D01*
X23280009Y-9003051D01*
X23280008Y-9003050D01*
X23280003Y-9003048D01*
X23200177Y-8980207D01*
X23146609Y-8948673D01*
X23141569Y-8943633D01*
X23108084Y-8882310D01*
X23113068Y-8812618D01*
X23154940Y-8756685D01*
X23185915Y-8739770D01*
X23317331Y-8690756D01*
X23432546Y-8604506D01*
X23518796Y-8489291D01*
X23569091Y-8354443D01*
X23575500Y-8294833D01*
X23575499Y-6499088D01*
X23569091Y-6439477D01*
X23536875Y-6353102D01*
X23518797Y-6304631D01*
X23518793Y-6304624D01*
X23432547Y-6189415D01*
X23432544Y-6189412D01*
X23317335Y-6103166D01*
X23317328Y-6103162D01*
X23182482Y-6052868D01*
X23182483Y-6052868D01*
X23122883Y-6046461D01*
X23122881Y-6046460D01*
X23122873Y-6046460D01*
X23122864Y-6046460D01*
X21327129Y-6046460D01*
X21327123Y-6046461D01*
X21267516Y-6052868D01*
X21132671Y-6103162D01*
X21132664Y-6103166D01*
X21017455Y-6189412D01*
X21017452Y-6189415D01*
X20931206Y-6304624D01*
X20931202Y-6304631D01*
X20880908Y-6439477D01*
X20874501Y-6499076D01*
X20874501Y-6499083D01*
X20874500Y-6499095D01*
X20874500Y-8294830D01*
X20874501Y-8294836D01*
X20880908Y-8354443D01*
X20931202Y-8489288D01*
X20931206Y-8489295D01*
X21017452Y-8604504D01*
X21017455Y-8604507D01*
X21132664Y-8690753D01*
X21132671Y-8690757D01*
X21264081Y-8739770D01*
X21320015Y-8781641D01*
X21344432Y-8847105D01*
X21329580Y-8915378D01*
X21308430Y-8943633D01*
X21186503Y-9065560D01*
X21050965Y-9259129D01*
X21050964Y-9259131D01*
X20951098Y-9473295D01*
X20951094Y-9473304D01*
X20889938Y-9701546D01*
X20889936Y-9701556D01*
X20869341Y-9936959D01*
X20869341Y-9936960D01*
X20889936Y-10172363D01*
X20889938Y-10172373D01*
X20951094Y-10400615D01*
X20951096Y-10400619D01*
X20951097Y-10400623D01*
X21008854Y-10524482D01*
X21050965Y-10614790D01*
X21050967Y-10614794D01*
X21148295Y-10753792D01*
X21186505Y-10808361D01*
X21353599Y-10975455D01*
X21418547Y-11020932D01*
X21547165Y-11110992D01*
X21547167Y-11110993D01*
X21547170Y-11110995D01*
X21761337Y-11210863D01*
X21761343Y-11210864D01*
X21761344Y-11210865D01*
X21806626Y-11222998D01*
X21989592Y-11272023D01*
X22177918Y-11288499D01*
X22224999Y-11292619D01*
X22225000Y-11292619D01*
X22225001Y-11292619D01*
X22264234Y-11289186D01*
X22460408Y-11272023D01*
X22680460Y-11213061D01*
X22750310Y-11214724D01*
X22800234Y-11245155D01*
X23093181Y-11538102D01*
X23126666Y-11599425D01*
X23129500Y-11625783D01*
X23129500Y-14812460D01*
X23109815Y-14879499D01*
X23057011Y-14925254D01*
X23005500Y-14936460D01*
X21327129Y-14936460D01*
X21327123Y-14936461D01*
X21267516Y-14942868D01*
X21132671Y-14993162D01*
X21132664Y-14993166D01*
X21017455Y-15079412D01*
X21017452Y-15079415D01*
X20931206Y-15194624D01*
X20931202Y-15194631D01*
X20880908Y-15329477D01*
X20874501Y-15389076D01*
X20874500Y-15389095D01*
X20874500Y-17184830D01*
X20874501Y-17184836D01*
X20880908Y-17244443D01*
X20931202Y-17379288D01*
X20931206Y-17379295D01*
X21017452Y-17494504D01*
X21017455Y-17494507D01*
X21132664Y-17580753D01*
X21132671Y-17580757D01*
X21264081Y-17629770D01*
X21320015Y-17671641D01*
X21344432Y-17737105D01*
X21329580Y-17805378D01*
X21308430Y-17833633D01*
X21186503Y-17955560D01*
X21050965Y-18149129D01*
X21050964Y-18149131D01*
X20951098Y-18363295D01*
X20951094Y-18363304D01*
X20889938Y-18591546D01*
X20889936Y-18591556D01*
X20869341Y-18826959D01*
X20869341Y-18826960D01*
X20889936Y-19062363D01*
X20889938Y-19062373D01*
X20951094Y-19290615D01*
X20951096Y-19290619D01*
X20951097Y-19290623D01*
X21014672Y-19426960D01*
X21050965Y-19504790D01*
X21050967Y-19504794D01*
X21159281Y-19659481D01*
X21186505Y-19698361D01*
X21353599Y-19865455D01*
X21450384Y-19933225D01*
X21547165Y-20000992D01*
X21547167Y-20000993D01*
X21547170Y-20000995D01*
X21761337Y-20100863D01*
X21761343Y-20100864D01*
X21761344Y-20100865D01*
X21816285Y-20115586D01*
X21989592Y-20162023D01*
X22177918Y-20178499D01*
X22224999Y-20182619D01*
X22225000Y-20182619D01*
X22225001Y-20182619D01*
X22264234Y-20179186D01*
X22460408Y-20162023D01*
X22688663Y-20100863D01*
X22902830Y-20000995D01*
X23096401Y-19865455D01*
X23172633Y-19789221D01*
X23214311Y-19761754D01*
X23323006Y-19718337D01*
X23492908Y-19606362D01*
X24787819Y-18311449D01*
X24849142Y-18277965D01*
X24918833Y-18282949D01*
X24974767Y-18324820D01*
X24999184Y-18390285D01*
X24999500Y-18399131D01*
X24999500Y-53275900D01*
X24979815Y-53342939D01*
X24927011Y-53388694D01*
X24889815Y-53398192D01*
X24889913Y-53398870D01*
X24885531Y-53399500D01*
X24885530Y-53399500D01*
X24862986Y-53402741D01*
X24658924Y-53432080D01*
X24658914Y-53432083D01*
X24439248Y-53496583D01*
X24231014Y-53591680D01*
X24230991Y-53591693D01*
X24038412Y-53715456D01*
X24038406Y-53715460D01*
X23865384Y-53865384D01*
X23715460Y-54038406D01*
X23715456Y-54038412D01*
X23591693Y-54230991D01*
X23591680Y-54231014D01*
X23496583Y-54439248D01*
X23432083Y-54658914D01*
X23432080Y-54658924D01*
X23398870Y-54889913D01*
X23397575Y-54889726D01*
X23375175Y-54949801D01*
X23319245Y-54991678D01*
X23275901Y-54999500D01*
X1724099Y-54999500D01*
X1657060Y-54979815D01*
X1611305Y-54927011D01*
X1601812Y-54889814D01*
X1601130Y-54889913D01*
X1567919Y-54658924D01*
X1567916Y-54658914D01*
X1503416Y-54439248D01*
X1408319Y-54231014D01*
X1408306Y-54230991D01*
X1284543Y-54038412D01*
X1284539Y-54038406D01*
X1134615Y-53865384D01*
X961593Y-53715460D01*
X961587Y-53715456D01*
X769008Y-53591693D01*
X768985Y-53591680D01*
X560751Y-53496583D01*
X341085Y-53432083D01*
X341075Y-53432080D01*
X139648Y-53403120D01*
X114470Y-53399500D01*
X114469Y-53399500D01*
X110087Y-53398870D01*
X110271Y-53397583D01*
X50168Y-53375151D01*
X8309Y-53319209D01*
X500Y-53275900D01*
X500Y-23622000D01*
X1438341Y-23622000D01*
X1458936Y-23857403D01*
X1458938Y-23857413D01*
X1520094Y-24085655D01*
X1520096Y-24085659D01*
X1520097Y-24085663D01*
X1610292Y-24279087D01*
X1619965Y-24299830D01*
X1619967Y-24299834D01*
X1728281Y-24454521D01*
X1755501Y-24493396D01*
X1755506Y-24493402D01*
X1877430Y-24615326D01*
X1910915Y-24676649D01*
X1905931Y-24746341D01*
X1864059Y-24802274D01*
X1833083Y-24819189D01*
X1701669Y-24868203D01*
X1701664Y-24868206D01*
X1586455Y-24954452D01*
X1586452Y-24954455D01*
X1500206Y-25069664D01*
X1500202Y-25069671D01*
X1449908Y-25204517D01*
X1443501Y-25264116D01*
X1443501Y-25264123D01*
X1443500Y-25264135D01*
X1443500Y-27059870D01*
X1443501Y-27059876D01*
X1449908Y-27119483D01*
X1500202Y-27254328D01*
X1500206Y-27254335D01*
X1586452Y-27369544D01*
X1586455Y-27369547D01*
X1701664Y-27455793D01*
X1701671Y-27455797D01*
X1836517Y-27506091D01*
X1836516Y-27506091D01*
X1843444Y-27506835D01*
X1896127Y-27512500D01*
X2678216Y-27512499D01*
X2745255Y-27532183D01*
X2765897Y-27548818D01*
X2932159Y-27715079D01*
X3093548Y-27876468D01*
X3154941Y-27941053D01*
X3154944Y-27941055D01*
X3154947Y-27941058D01*
X3189053Y-27964795D01*
X3205303Y-27976106D01*
X3209044Y-27978926D01*
X3256593Y-28017698D01*
X3287045Y-28033604D01*
X3293758Y-28037672D01*
X3321951Y-28057295D01*
X3378329Y-28081489D01*
X3382578Y-28083507D01*
X3436951Y-28111909D01*
X3464489Y-28119788D01*
X3469974Y-28121358D01*
X3477368Y-28123990D01*
X3508942Y-28137540D01*
X3508945Y-28137540D01*
X3508946Y-28137541D01*
X3569022Y-28149887D01*
X3573600Y-28151010D01*
X3587501Y-28154987D01*
X3632582Y-28167887D01*
X3666839Y-28170495D01*
X3674614Y-28171586D01*
X3708255Y-28178500D01*
X3708259Y-28178500D01*
X3769598Y-28178500D01*
X3774304Y-28178678D01*
X3787050Y-28179649D01*
X3835471Y-28183337D01*
X3835472Y-28183336D01*
X3835476Y-28183337D01*
X3839830Y-28182782D01*
X3908817Y-28193833D01*
X3943185Y-28218106D01*
X4678181Y-28953102D01*
X4711666Y-29014425D01*
X4714500Y-29040783D01*
X4714500Y-30467283D01*
X4712243Y-30556362D01*
X4712243Y-30556370D01*
X4723064Y-30616739D01*
X4723718Y-30621404D01*
X4729925Y-30682430D01*
X4729927Y-30682444D01*
X4740208Y-30715213D01*
X4742079Y-30722837D01*
X4748142Y-30756652D01*
X4748142Y-30756655D01*
X4770894Y-30813612D01*
X4772474Y-30818051D01*
X4790841Y-30876588D01*
X4790844Y-30876595D01*
X4807509Y-30906619D01*
X4810879Y-30913714D01*
X4823622Y-30945614D01*
X4823627Y-30945624D01*
X4857377Y-30996833D01*
X4859818Y-31000863D01*
X4889588Y-31054498D01*
X4889589Y-31054499D01*
X4889591Y-31054502D01*
X4911968Y-31080567D01*
X4916693Y-31086835D01*
X4929263Y-31105906D01*
X4935598Y-31115519D01*
X4978978Y-31158899D01*
X4982169Y-31162343D01*
X5022131Y-31208892D01*
X5022134Y-31208895D01*
X5049294Y-31229918D01*
X5055190Y-31235111D01*
X6553526Y-32733447D01*
X6614898Y-32798010D01*
X6614901Y-32798013D01*
X6665241Y-32833052D01*
X6669003Y-32835888D01*
X6716547Y-32874654D01*
X6716550Y-32874655D01*
X6716553Y-32874658D01*
X6747005Y-32890564D01*
X6753718Y-32894632D01*
X6781911Y-32914255D01*
X6838289Y-32938449D01*
X6842538Y-32940467D01*
X6896911Y-32968869D01*
X6924449Y-32976748D01*
X6929934Y-32978318D01*
X6937328Y-32980950D01*
X6968902Y-32994500D01*
X6968905Y-32994500D01*
X6968906Y-32994501D01*
X7028982Y-33006847D01*
X7033560Y-33007970D01*
X7047461Y-33011947D01*
X7092542Y-33024847D01*
X7126799Y-33027455D01*
X7134574Y-33028546D01*
X7168215Y-33035460D01*
X7168219Y-33035460D01*
X7229559Y-33035460D01*
X7234265Y-33035638D01*
X7269023Y-33038285D01*
X7295436Y-33040297D01*
X7295436Y-33040296D01*
X7295437Y-33040297D01*
X7329520Y-33035956D01*
X7337350Y-33035460D01*
X9795285Y-33035460D01*
X9862324Y-33055145D01*
X9908079Y-33107949D01*
X9918023Y-33177107D01*
X9888998Y-33240663D01*
X9882966Y-33247141D01*
X6435078Y-36695028D01*
X6373755Y-36728513D01*
X6304063Y-36723529D01*
X6248130Y-36681657D01*
X6223713Y-36616193D01*
X6223397Y-36607347D01*
X6223397Y-36606959D01*
X6202801Y-36371556D01*
X6202801Y-36371552D01*
X6141641Y-36143297D01*
X6041773Y-35929131D01*
X5906233Y-35735559D01*
X5906232Y-35735557D01*
X5739140Y-35568466D01*
X5739133Y-35568461D01*
X5545572Y-35432927D01*
X5545568Y-35432925D01*
X5545566Y-35432924D01*
X5331401Y-35333057D01*
X5331397Y-35333056D01*
X5331393Y-35333054D01*
X5103151Y-35271898D01*
X5103141Y-35271896D01*
X4867739Y-35251301D01*
X4867737Y-35251301D01*
X4632334Y-35271896D01*
X4632324Y-35271898D01*
X4404082Y-35333054D01*
X4404073Y-35333058D01*
X4189909Y-35432924D01*
X4189907Y-35432925D01*
X3996335Y-35568465D01*
X3829243Y-35735557D01*
X3693703Y-35929129D01*
X3693702Y-35929131D01*
X3593836Y-36143295D01*
X3593832Y-36143304D01*
X3532676Y-36371546D01*
X3532674Y-36371556D01*
X3512079Y-36606959D01*
X3512079Y-36606960D01*
X3532674Y-36842363D01*
X3532676Y-36842373D01*
X3593832Y-37070615D01*
X3593834Y-37070619D01*
X3593835Y-37070623D01*
X3618437Y-37123381D01*
X3693703Y-37284790D01*
X3693705Y-37284794D01*
X3829239Y-37478355D01*
X3829244Y-37478362D01*
X3996335Y-37645453D01*
X3996341Y-37645458D01*
X4181896Y-37775385D01*
X4225521Y-37829962D01*
X4232715Y-37899460D01*
X4201192Y-37961815D01*
X4181896Y-37978535D01*
X3996335Y-38108465D01*
X3829243Y-38275557D01*
X3693703Y-38469129D01*
X3693702Y-38469131D01*
X3593836Y-38683295D01*
X3593832Y-38683304D01*
X3532676Y-38911546D01*
X3532674Y-38911556D01*
X3512079Y-39146959D01*
X3512079Y-39146960D01*
X3532674Y-39382363D01*
X3532676Y-39382373D01*
X3593832Y-39610615D01*
X3593834Y-39610619D01*
X3593835Y-39610623D01*
X3678238Y-39791625D01*
X3693703Y-39824790D01*
X3693705Y-39824794D01*
X3829239Y-40018355D01*
X3829244Y-40018362D01*
X3996335Y-40185453D01*
X3996341Y-40185458D01*
X4181896Y-40315385D01*
X4225521Y-40369962D01*
X4232715Y-40439460D01*
X4201192Y-40501815D01*
X4181896Y-40518535D01*
X3996335Y-40648465D01*
X3829243Y-40815557D01*
X3693703Y-41009129D01*
X3693702Y-41009131D01*
X3593836Y-41223295D01*
X3593832Y-41223304D01*
X3532676Y-41451546D01*
X3532674Y-41451556D01*
X3512079Y-41686959D01*
X3512079Y-41686960D01*
X3532674Y-41922363D01*
X3532676Y-41922373D01*
X3593832Y-42150615D01*
X3593834Y-42150619D01*
X3593835Y-42150623D01*
X3693703Y-42364790D01*
X3693705Y-42364794D01*
X3829239Y-42558355D01*
X3829244Y-42558362D01*
X3996335Y-42725453D01*
X3996341Y-42725458D01*
X4181896Y-42855385D01*
X4225521Y-42909962D01*
X4232715Y-42979460D01*
X4201192Y-43041815D01*
X4181896Y-43058535D01*
X3996335Y-43188465D01*
X3829243Y-43355557D01*
X3693703Y-43549129D01*
X3693702Y-43549131D01*
X3593836Y-43763295D01*
X3593832Y-43763304D01*
X3532676Y-43991546D01*
X3532674Y-43991556D01*
X3512079Y-44226959D01*
X3512079Y-44226960D01*
X3532674Y-44462363D01*
X3532676Y-44462373D01*
X3593832Y-44690615D01*
X3593834Y-44690619D01*
X3593835Y-44690623D01*
X3651218Y-44813681D01*
X3693703Y-44904790D01*
X3693705Y-44904794D01*
X3829239Y-45098355D01*
X3829244Y-45098362D01*
X3996335Y-45265453D01*
X3996341Y-45265458D01*
X4181896Y-45395385D01*
X4225521Y-45449962D01*
X4232715Y-45519460D01*
X4201192Y-45581815D01*
X4181896Y-45598535D01*
X3996335Y-45728465D01*
X3829243Y-45895557D01*
X3693703Y-46089129D01*
X3693702Y-46089131D01*
X3593836Y-46303295D01*
X3593832Y-46303304D01*
X3532676Y-46531546D01*
X3532674Y-46531556D01*
X3512079Y-46766959D01*
X3512079Y-46766960D01*
X3532674Y-47002363D01*
X3532676Y-47002373D01*
X3593832Y-47230615D01*
X3593834Y-47230619D01*
X3593835Y-47230623D01*
X3693703Y-47444790D01*
X3693705Y-47444794D01*
X3802019Y-47599481D01*
X3829243Y-47638361D01*
X3996337Y-47805455D01*
X4181896Y-47935385D01*
X4182332Y-47935690D01*
X4225956Y-47990267D01*
X4233149Y-48059766D01*
X4201627Y-48122120D01*
X4182331Y-48138840D01*
X4106364Y-48192032D01*
X4106363Y-48192032D01*
X4735204Y-48820873D01*
X4725423Y-48822280D01*
X4594638Y-48882008D01*
X4485977Y-48976162D01*
X4408245Y-49097116D01*
X4384661Y-49177436D01*
X3752810Y-48545585D01*
X3694139Y-48629379D01*
X3594308Y-48843467D01*
X3594304Y-48843476D01*
X3533170Y-49071633D01*
X3533168Y-49071644D01*
X3512581Y-49306958D01*
X3512581Y-49306961D01*
X3533168Y-49542275D01*
X3533170Y-49542286D01*
X3594304Y-49770443D01*
X3594308Y-49770452D01*
X3694138Y-49984539D01*
X3694140Y-49984543D01*
X3752810Y-50068333D01*
X3752811Y-50068333D01*
X4384661Y-49436483D01*
X4408245Y-49516804D01*
X4485977Y-49637758D01*
X4594638Y-49731912D01*
X4725423Y-49791640D01*
X4735204Y-49793046D01*
X4106363Y-50421885D01*
X4182332Y-50475079D01*
X4225957Y-50529656D01*
X4233151Y-50599154D01*
X4201628Y-50661509D01*
X4182333Y-50678229D01*
X3996332Y-50808468D01*
X3829243Y-50975557D01*
X3693703Y-51169129D01*
X3693702Y-51169131D01*
X3593836Y-51383295D01*
X3593832Y-51383304D01*
X3532676Y-51611546D01*
X3532674Y-51611556D01*
X3512079Y-51846959D01*
X3512079Y-51846960D01*
X3532674Y-52082363D01*
X3532676Y-52082373D01*
X3593832Y-52310615D01*
X3593834Y-52310619D01*
X3593835Y-52310623D01*
X3693703Y-52524790D01*
X3693705Y-52524794D01*
X3802019Y-52679481D01*
X3829243Y-52718361D01*
X3996337Y-52885455D01*
X4093122Y-52953225D01*
X4189903Y-53020992D01*
X4189905Y-53020993D01*
X4189908Y-53020995D01*
X4404075Y-53120863D01*
X4632330Y-53182023D01*
X4808772Y-53197460D01*
X4867737Y-53202619D01*
X4867738Y-53202619D01*
X4867739Y-53202619D01*
X4926704Y-53197460D01*
X5103146Y-53182023D01*
X5331401Y-53120863D01*
X5545568Y-53020995D01*
X5739139Y-52885455D01*
X5906233Y-52718361D01*
X6041773Y-52524790D01*
X6141641Y-52310623D01*
X6202801Y-52082368D01*
X6223397Y-51846960D01*
X6202801Y-51611552D01*
X6141641Y-51383297D01*
X6041773Y-51169131D01*
X5906233Y-50975559D01*
X5906232Y-50975557D01*
X5739140Y-50808466D01*
X5739139Y-50808465D01*
X5553143Y-50678229D01*
X5509519Y-50623652D01*
X5502326Y-50554153D01*
X5533848Y-50491799D01*
X5553143Y-50475079D01*
X5629111Y-50421885D01*
X5000271Y-49793046D01*
X5010053Y-49791640D01*
X5140838Y-49731912D01*
X5249499Y-49637758D01*
X5327231Y-49516804D01*
X5350814Y-49436484D01*
X5982663Y-50068333D01*
X5982664Y-50068333D01*
X6041336Y-49984542D01*
X6041338Y-49984538D01*
X6141167Y-49770452D01*
X6141171Y-49770443D01*
X6202305Y-49542286D01*
X6202307Y-49542275D01*
X6222895Y-49306961D01*
X6222895Y-49306958D01*
X6202307Y-49071644D01*
X6202305Y-49071633D01*
X6141171Y-48843476D01*
X6141167Y-48843467D01*
X6041338Y-48629383D01*
X6041337Y-48629381D01*
X5982663Y-48545586D01*
X5982663Y-48545585D01*
X5350814Y-49177435D01*
X5327231Y-49097116D01*
X5249499Y-48976162D01*
X5140838Y-48882008D01*
X5010053Y-48822280D01*
X5000271Y-48820873D01*
X5629111Y-48192033D01*
X5629111Y-48192032D01*
X5553143Y-48138840D01*
X5509518Y-48084264D01*
X5502324Y-48014765D01*
X5533846Y-47952411D01*
X5553137Y-47935694D01*
X5739139Y-47805455D01*
X5906233Y-47638361D01*
X6041773Y-47444790D01*
X6141641Y-47230623D01*
X6202801Y-47002368D01*
X6223397Y-46766960D01*
X6202801Y-46531552D01*
X6141641Y-46303297D01*
X6041773Y-46089131D01*
X6041772Y-46089129D01*
X6039067Y-46084444D01*
X6040596Y-46083560D01*
X6020801Y-46024857D01*
X6037814Y-45957091D01*
X6057019Y-45932267D01*
X6733787Y-45255500D01*
X6746042Y-45245684D01*
X6745859Y-45245462D01*
X6751866Y-45240490D01*
X6751877Y-45240484D01*
X6782775Y-45207580D01*
X6799227Y-45190062D01*
X6809671Y-45179616D01*
X6820120Y-45169169D01*
X6824379Y-45163676D01*
X6828152Y-45159259D01*
X6860062Y-45125280D01*
X6869715Y-45107718D01*
X6880389Y-45091468D01*
X6892673Y-45075634D01*
X6911180Y-45032865D01*
X6913749Y-45027622D01*
X6936196Y-44986791D01*
X6936197Y-44986790D01*
X6941177Y-44967389D01*
X6947478Y-44948986D01*
X6955438Y-44930594D01*
X6962730Y-44884547D01*
X6963911Y-44878850D01*
X6975500Y-44833717D01*
X6975500Y-44813681D01*
X6977027Y-44794280D01*
X6980160Y-44774502D01*
X6975775Y-44728113D01*
X6975500Y-44722275D01*
X6975500Y-38611546D01*
X6995185Y-38544507D01*
X7011819Y-38523865D01*
X12237866Y-33297818D01*
X12299189Y-33264333D01*
X12368881Y-33269317D01*
X12413228Y-33297818D01*
X17753181Y-38637771D01*
X17786666Y-38699094D01*
X17789500Y-38725452D01*
X17789500Y-39932255D01*
X17787775Y-39947872D01*
X17788061Y-39947899D01*
X17787326Y-39955665D01*
X17789500Y-40024814D01*
X17789500Y-40054343D01*
X17789501Y-40054360D01*
X17790368Y-40061231D01*
X17790826Y-40067050D01*
X17792290Y-40113624D01*
X17792291Y-40113627D01*
X17797880Y-40132867D01*
X17801824Y-40151911D01*
X17804336Y-40171792D01*
X17809747Y-40185458D01*
X17821490Y-40215119D01*
X17823382Y-40220647D01*
X17836381Y-40265388D01*
X17846580Y-40282634D01*
X17855138Y-40300103D01*
X17862514Y-40318732D01*
X17889898Y-40356423D01*
X17893106Y-40361307D01*
X17916827Y-40401416D01*
X17916833Y-40401424D01*
X17930990Y-40415580D01*
X17943628Y-40430376D01*
X17955405Y-40446586D01*
X17955406Y-40446587D01*
X17991309Y-40476288D01*
X17995620Y-40480210D01*
X18524539Y-41009129D01*
X18770996Y-41255586D01*
X18804481Y-41316909D01*
X18803090Y-41375360D01*
X18782676Y-41451546D01*
X18782674Y-41451556D01*
X18762079Y-41686959D01*
X18762079Y-41686960D01*
X18782674Y-41922363D01*
X18782676Y-41922373D01*
X18843832Y-42150615D01*
X18843834Y-42150619D01*
X18843835Y-42150623D01*
X18943703Y-42364790D01*
X18943705Y-42364794D01*
X19079239Y-42558355D01*
X19079244Y-42558362D01*
X19246335Y-42725453D01*
X19246341Y-42725458D01*
X19431896Y-42855385D01*
X19475521Y-42909962D01*
X19482715Y-42979460D01*
X19451192Y-43041815D01*
X19431896Y-43058535D01*
X19246335Y-43188465D01*
X19079243Y-43355557D01*
X18943703Y-43549129D01*
X18943702Y-43549131D01*
X18843836Y-43763295D01*
X18843832Y-43763304D01*
X18782676Y-43991546D01*
X18782674Y-43991556D01*
X18762079Y-44226959D01*
X18762079Y-44226960D01*
X18782674Y-44462363D01*
X18782676Y-44462373D01*
X18843832Y-44690615D01*
X18843834Y-44690619D01*
X18843835Y-44690623D01*
X18901218Y-44813681D01*
X18943703Y-44904790D01*
X18943705Y-44904794D01*
X19079239Y-45098355D01*
X19079244Y-45098362D01*
X19246335Y-45265453D01*
X19246341Y-45265458D01*
X19431896Y-45395385D01*
X19475521Y-45449962D01*
X19482715Y-45519460D01*
X19451192Y-45581815D01*
X19431896Y-45598535D01*
X19246335Y-45728465D01*
X19079243Y-45895557D01*
X18943703Y-46089129D01*
X18943702Y-46089131D01*
X18843836Y-46303295D01*
X18843832Y-46303304D01*
X18782676Y-46531546D01*
X18782674Y-46531556D01*
X18762079Y-46766959D01*
X18762079Y-46766960D01*
X18782674Y-47002363D01*
X18782676Y-47002373D01*
X18843832Y-47230615D01*
X18843834Y-47230619D01*
X18843835Y-47230623D01*
X18943703Y-47444790D01*
X18943705Y-47444794D01*
X19079239Y-47638355D01*
X19079244Y-47638362D01*
X19246335Y-47805453D01*
X19246341Y-47805458D01*
X19431896Y-47935385D01*
X19475521Y-47989962D01*
X19482715Y-48059460D01*
X19451192Y-48121815D01*
X19431896Y-48138535D01*
X19246335Y-48268465D01*
X19079243Y-48435557D01*
X18943703Y-48629129D01*
X18943702Y-48629131D01*
X18843836Y-48843295D01*
X18843832Y-48843304D01*
X18782676Y-49071546D01*
X18782674Y-49071556D01*
X18762079Y-49306959D01*
X18762079Y-49306960D01*
X18782674Y-49542363D01*
X18782676Y-49542373D01*
X18843832Y-49770615D01*
X18843834Y-49770619D01*
X18843835Y-49770623D01*
X18943585Y-49984538D01*
X18943703Y-49984790D01*
X18943705Y-49984794D01*
X19079239Y-50178355D01*
X19079244Y-50178362D01*
X19201168Y-50300286D01*
X19234653Y-50361609D01*
X19229669Y-50431301D01*
X19187797Y-50487234D01*
X19156821Y-50504149D01*
X19025407Y-50553163D01*
X19025402Y-50553166D01*
X18910193Y-50639412D01*
X18910190Y-50639415D01*
X18823944Y-50754624D01*
X18823940Y-50754631D01*
X18773646Y-50889477D01*
X18767239Y-50949076D01*
X18767238Y-50949095D01*
X18767238Y-52744830D01*
X18767239Y-52744836D01*
X18773646Y-52804443D01*
X18823940Y-52939288D01*
X18823944Y-52939295D01*
X18910190Y-53054504D01*
X18910193Y-53054507D01*
X19025402Y-53140753D01*
X19025409Y-53140757D01*
X19160255Y-53191051D01*
X19160254Y-53191051D01*
X19167182Y-53191795D01*
X19219865Y-53197460D01*
X21015610Y-53197459D01*
X21075221Y-53191051D01*
X21210069Y-53140756D01*
X21325284Y-53054506D01*
X21411534Y-52939291D01*
X21461829Y-52804443D01*
X21468238Y-52744833D01*
X21468237Y-51432411D01*
X21487922Y-51365373D01*
X21504551Y-51344736D01*
X23666526Y-49182761D01*
X23678780Y-49172946D01*
X23678597Y-49172724D01*
X23684604Y-49167752D01*
X23684615Y-49167746D01*
X23715513Y-49134842D01*
X23731965Y-49117324D01*
X23742409Y-49106878D01*
X23752858Y-49096431D01*
X23757117Y-49090938D01*
X23760890Y-49086521D01*
X23792800Y-49052542D01*
X23802453Y-49034980D01*
X23813127Y-49018730D01*
X23825411Y-49002896D01*
X23843918Y-48960127D01*
X23846487Y-48954884D01*
X23868934Y-48914053D01*
X23868935Y-48914052D01*
X23873915Y-48894651D01*
X23880216Y-48876248D01*
X23888176Y-48857856D01*
X23895468Y-48811809D01*
X23896649Y-48806112D01*
X23908238Y-48760979D01*
X23908238Y-48740943D01*
X23909765Y-48721542D01*
X23912898Y-48701764D01*
X23908513Y-48655375D01*
X23908238Y-48649537D01*
X23908238Y-32879697D01*
X23909962Y-32864083D01*
X23909676Y-32864056D01*
X23910410Y-32856293D01*
X23908238Y-32787162D01*
X23908238Y-32757611D01*
X23908238Y-32757610D01*
X23907367Y-32750719D01*
X23906910Y-32744905D01*
X23905447Y-32698334D01*
X23905447Y-32698332D01*
X23899858Y-32679097D01*
X23895912Y-32660044D01*
X23893402Y-32640168D01*
X23876239Y-32596819D01*
X23874352Y-32591306D01*
X23861355Y-32546570D01*
X23861354Y-32546568D01*
X23851159Y-32529329D01*
X23842598Y-32511853D01*
X23835224Y-32493229D01*
X23835224Y-32493227D01*
X23825212Y-32479448D01*
X23807821Y-32455510D01*
X23804638Y-32450665D01*
X23780908Y-32410539D01*
X23780903Y-32410533D01*
X23766743Y-32396373D01*
X23754108Y-32381580D01*
X23742331Y-32365372D01*
X23706431Y-32335673D01*
X23702119Y-32331750D01*
X19711819Y-28341450D01*
X19678334Y-28280127D01*
X19675500Y-28253769D01*
X19675500Y-27716960D01*
X20869341Y-27716960D01*
X20889936Y-27952363D01*
X20889938Y-27952373D01*
X20951094Y-28180615D01*
X20951096Y-28180619D01*
X20951097Y-28180623D01*
X20952104Y-28182782D01*
X21050965Y-28394790D01*
X21050967Y-28394794D01*
X21123679Y-28498636D01*
X21186505Y-28588361D01*
X21353599Y-28755455D01*
X21450384Y-28823225D01*
X21547165Y-28890992D01*
X21547167Y-28890993D01*
X21547170Y-28890995D01*
X21761337Y-28990863D01*
X21989592Y-29052023D01*
X22177918Y-29068499D01*
X22224999Y-29072619D01*
X22225000Y-29072619D01*
X22225001Y-29072619D01*
X22264234Y-29069186D01*
X22460408Y-29052023D01*
X22688663Y-28990863D01*
X22902830Y-28890995D01*
X23096401Y-28755455D01*
X23263495Y-28588361D01*
X23399035Y-28394790D01*
X23498903Y-28180623D01*
X23560063Y-27952368D01*
X23580659Y-27716960D01*
X23580494Y-27715079D01*
X23569154Y-27585458D01*
X23560063Y-27481552D01*
X23498903Y-27253297D01*
X23399035Y-27039131D01*
X23379074Y-27010624D01*
X23263496Y-26845560D01*
X23214896Y-26796960D01*
X23141567Y-26723631D01*
X23108084Y-26662311D01*
X23113068Y-26592619D01*
X23154939Y-26536685D01*
X23185915Y-26519770D01*
X23317331Y-26470756D01*
X23432546Y-26384506D01*
X23518796Y-26269291D01*
X23569091Y-26134443D01*
X23575500Y-26074833D01*
X23575499Y-24279088D01*
X23569091Y-24219477D01*
X23562293Y-24201251D01*
X23518797Y-24084631D01*
X23518793Y-24084624D01*
X23432547Y-23969415D01*
X23432544Y-23969412D01*
X23317335Y-23883166D01*
X23317328Y-23883162D01*
X23182482Y-23832868D01*
X23182483Y-23832868D01*
X23122883Y-23826461D01*
X23122881Y-23826460D01*
X23122873Y-23826460D01*
X23122864Y-23826460D01*
X21327129Y-23826460D01*
X21327123Y-23826461D01*
X21267516Y-23832868D01*
X21132671Y-23883162D01*
X21132664Y-23883166D01*
X21017455Y-23969412D01*
X21017452Y-23969415D01*
X20931206Y-24084624D01*
X20931202Y-24084631D01*
X20880908Y-24219477D01*
X20878447Y-24242373D01*
X20874501Y-24279083D01*
X20874500Y-24279095D01*
X20874500Y-26074830D01*
X20874501Y-26074836D01*
X20880908Y-26134443D01*
X20931202Y-26269288D01*
X20931206Y-26269295D01*
X21017452Y-26384504D01*
X21017455Y-26384507D01*
X21132664Y-26470753D01*
X21132671Y-26470757D01*
X21264081Y-26519770D01*
X21320015Y-26561641D01*
X21344432Y-26627105D01*
X21329580Y-26695378D01*
X21308430Y-26723633D01*
X21186503Y-26845560D01*
X21050965Y-27039129D01*
X21050964Y-27039131D01*
X20951098Y-27253295D01*
X20951094Y-27253304D01*
X20889938Y-27481546D01*
X20889936Y-27481556D01*
X20869341Y-27716959D01*
X20869341Y-27716960D01*
X19675500Y-27716960D01*
X19675500Y-5847312D01*
X19681569Y-5808994D01*
X19723412Y-5680216D01*
X19743198Y-5491960D01*
X19723412Y-5303704D01*
X19664917Y-5123676D01*
X19570271Y-4959744D01*
X19443609Y-4819072D01*
X19443608Y-4819071D01*
X19290472Y-4707811D01*
X19290467Y-4707808D01*
X19117545Y-4630817D01*
X19117540Y-4630815D01*
X18971739Y-4599825D01*
X18932384Y-4591460D01*
X18743092Y-4591460D01*
X18710635Y-4598358D01*
X18557935Y-4630815D01*
X18557930Y-4630817D01*
X18385008Y-4707808D01*
X18385003Y-4707811D01*
X18231867Y-4819071D01*
X18105204Y-4959745D01*
X18010559Y-5123675D01*
X18010556Y-5123682D01*
X17952065Y-5303700D01*
X17952064Y-5303704D01*
X17932278Y-5491960D01*
X17952064Y-5680216D01*
X17952065Y-5680219D01*
X18010556Y-5860237D01*
X18010559Y-5860244D01*
X18105205Y-6024176D01*
X18231867Y-6164848D01*
X18373385Y-6267666D01*
X18416051Y-6322995D01*
X18424500Y-6367984D01*
X18424500Y-14051977D01*
X18404815Y-14119016D01*
X18352011Y-14164771D01*
X18282853Y-14174715D01*
X18219297Y-14145690D01*
X18212819Y-14139658D01*
X15689557Y-11616396D01*
X15656072Y-11555073D01*
X15653238Y-11528715D01*
X15653238Y-6190647D01*
X15672923Y-6123608D01*
X15685088Y-6107675D01*
X15703629Y-6087082D01*
X15760271Y-6024176D01*
X15854917Y-5860244D01*
X15913412Y-5680216D01*
X15933198Y-5491960D01*
X15913412Y-5303704D01*
X15854917Y-5123676D01*
X15760271Y-4959744D01*
X15633609Y-4819072D01*
X15633608Y-4819071D01*
X15480472Y-4707811D01*
X15480467Y-4707808D01*
X15307545Y-4630817D01*
X15307540Y-4630815D01*
X15161739Y-4599825D01*
X15122384Y-4591460D01*
X14933092Y-4591460D01*
X14900635Y-4598358D01*
X14747935Y-4630815D01*
X14747930Y-4630817D01*
X14575008Y-4707808D01*
X14575003Y-4707811D01*
X14421867Y-4819071D01*
X14295204Y-4959745D01*
X14200559Y-5123675D01*
X14200556Y-5123682D01*
X14142065Y-5303700D01*
X14142064Y-5303704D01*
X14122278Y-5491960D01*
X14142064Y-5680216D01*
X14142065Y-5680219D01*
X14200556Y-5860237D01*
X14200559Y-5860244D01*
X14295205Y-6024176D01*
X14301292Y-6030936D01*
X14370388Y-6107675D01*
X14400618Y-6170666D01*
X14402238Y-6190647D01*
X14402238Y-10666111D01*
X14382553Y-10733150D01*
X14329749Y-10778905D01*
X14260591Y-10788849D01*
X14197035Y-10759824D01*
X14190557Y-10753792D01*
X11879557Y-8442792D01*
X11846072Y-8381469D01*
X11843238Y-8355111D01*
X11843238Y-6190647D01*
X11862923Y-6123608D01*
X11875088Y-6107675D01*
X11893629Y-6087082D01*
X11950271Y-6024176D01*
X12044917Y-5860244D01*
X12103412Y-5680216D01*
X12123198Y-5491960D01*
X12103412Y-5303704D01*
X12044917Y-5123676D01*
X11950271Y-4959744D01*
X11823609Y-4819072D01*
X11823608Y-4819071D01*
X11670472Y-4707811D01*
X11670467Y-4707808D01*
X11497545Y-4630817D01*
X11497540Y-4630815D01*
X11351739Y-4599825D01*
X11312384Y-4591460D01*
X11123092Y-4591460D01*
X11090635Y-4598358D01*
X10937935Y-4630815D01*
X10937930Y-4630817D01*
X10765008Y-4707808D01*
X10765003Y-4707811D01*
X10611867Y-4819071D01*
X10485204Y-4959745D01*
X10390559Y-5123675D01*
X10390556Y-5123682D01*
X10332065Y-5303700D01*
X10332064Y-5303704D01*
X10312278Y-5491960D01*
X10332064Y-5680216D01*
X10332065Y-5680219D01*
X10390556Y-5860237D01*
X10390559Y-5860244D01*
X10485205Y-6024176D01*
X10491292Y-6030936D01*
X10560388Y-6107675D01*
X10590618Y-6170666D01*
X10592238Y-6190647D01*
X10592238Y-7492507D01*
X10572553Y-7559546D01*
X10519749Y-7605301D01*
X10450591Y-7615245D01*
X10387035Y-7586220D01*
X10380557Y-7580188D01*
X8346698Y-5546329D01*
X8313213Y-5485006D01*
X8311061Y-5471628D01*
X8293412Y-5303704D01*
X8234917Y-5123676D01*
X8140271Y-4959744D01*
X8013609Y-4819072D01*
X8013608Y-4819071D01*
X7860472Y-4707811D01*
X7860467Y-4707808D01*
X7687545Y-4630817D01*
X7687540Y-4630815D01*
X7541739Y-4599825D01*
X7502384Y-4591460D01*
X7313092Y-4591460D01*
X7280635Y-4598358D01*
X7127935Y-4630815D01*
X7127930Y-4630817D01*
X6955008Y-4707808D01*
X6955003Y-4707811D01*
X6801867Y-4819071D01*
X6675204Y-4959745D01*
X6580559Y-5123675D01*
X6580556Y-5123682D01*
X6522065Y-5303700D01*
X6522064Y-5303704D01*
X6502278Y-5491960D01*
X6522064Y-5680216D01*
X6522065Y-5680219D01*
X6580556Y-5860237D01*
X6580559Y-5860244D01*
X6675205Y-6024176D01*
X6746328Y-6103166D01*
X6801867Y-6164848D01*
X6955003Y-6276108D01*
X6955008Y-6276111D01*
X7127930Y-6353102D01*
X7127935Y-6353104D01*
X7313092Y-6392460D01*
X7372286Y-6392460D01*
X7439325Y-6412145D01*
X7459967Y-6428779D01*
X17038181Y-16006993D01*
X17071666Y-16068316D01*
X17074500Y-16094674D01*
X17074500Y-17452960D01*
X17054815Y-17519999D01*
X17002011Y-17565754D01*
X16950500Y-17576960D01*
X16547738Y-17576960D01*
X16547738Y-18491458D01*
X16440053Y-18442280D01*
X16333501Y-18426960D01*
X16261975Y-18426960D01*
X16155423Y-18442280D01*
X16047738Y-18491458D01*
X16047738Y-17576960D01*
X15399893Y-17576960D01*
X15340365Y-17583361D01*
X15340358Y-17583363D01*
X15205651Y-17633605D01*
X15205644Y-17633609D01*
X15090550Y-17719769D01*
X15090547Y-17719772D01*
X15004387Y-17834866D01*
X15004383Y-17834873D01*
X14954141Y-17969580D01*
X14954139Y-17969587D01*
X14947738Y-18029115D01*
X14947738Y-18676960D01*
X15864052Y-18676960D01*
X15838245Y-18717116D01*
X15797738Y-18855071D01*
X15797738Y-18998849D01*
X15838245Y-19136804D01*
X15864052Y-19176960D01*
X14947738Y-19176960D01*
X14947738Y-19824804D01*
X14954139Y-19884332D01*
X14954141Y-19884339D01*
X15004383Y-20019046D01*
X15004387Y-20019053D01*
X15090547Y-20134147D01*
X15090550Y-20134150D01*
X15205644Y-20220310D01*
X15205651Y-20220314D01*
X15337208Y-20269381D01*
X15393141Y-20311252D01*
X15417559Y-20376716D01*
X15402708Y-20444989D01*
X15381557Y-20473244D01*
X15259241Y-20595560D01*
X15123703Y-20789129D01*
X15123702Y-20789131D01*
X15023836Y-21003295D01*
X15023832Y-21003304D01*
X14962676Y-21231546D01*
X14962674Y-21231556D01*
X14942079Y-21466959D01*
X14942079Y-21466960D01*
X14962674Y-21702363D01*
X14962676Y-21702373D01*
X15023832Y-21930615D01*
X15023834Y-21930619D01*
X15023835Y-21930623D01*
X15112373Y-22120493D01*
X15123703Y-22144790D01*
X15123705Y-22144794D01*
X15259239Y-22338355D01*
X15259244Y-22338362D01*
X15426335Y-22505453D01*
X15426341Y-22505458D01*
X15611896Y-22635385D01*
X15655521Y-22689962D01*
X15662715Y-22759460D01*
X15631192Y-22821815D01*
X15611896Y-22838535D01*
X15426335Y-22968465D01*
X15259243Y-23135557D01*
X15123703Y-23329129D01*
X15123702Y-23329131D01*
X15023836Y-23543295D01*
X15023832Y-23543304D01*
X14962676Y-23771546D01*
X14962674Y-23771556D01*
X14942079Y-24006959D01*
X14942079Y-24006960D01*
X14962674Y-24242363D01*
X14962676Y-24242373D01*
X15023832Y-24470615D01*
X15023834Y-24470619D01*
X15023835Y-24470623D01*
X15108480Y-24652145D01*
X15123703Y-24684790D01*
X15123705Y-24684794D01*
X15205966Y-24802274D01*
X15259239Y-24878356D01*
X15259244Y-24878362D01*
X15426335Y-25045453D01*
X15426341Y-25045458D01*
X15611896Y-25175385D01*
X15655521Y-25229962D01*
X15662715Y-25299460D01*
X15631192Y-25361815D01*
X15611896Y-25378535D01*
X15426335Y-25508465D01*
X15259243Y-25675557D01*
X15123703Y-25869129D01*
X15123702Y-25869131D01*
X15023836Y-26083295D01*
X15023832Y-26083304D01*
X14962676Y-26311546D01*
X14962674Y-26311556D01*
X14942079Y-26546959D01*
X14942079Y-26546960D01*
X14962674Y-26782363D01*
X14962676Y-26782373D01*
X15023832Y-27010615D01*
X15023834Y-27010619D01*
X15023835Y-27010623D01*
X15123585Y-27224538D01*
X15123703Y-27224790D01*
X15123705Y-27224794D01*
X15259239Y-27418355D01*
X15259244Y-27418362D01*
X15426335Y-27585453D01*
X15426341Y-27585458D01*
X15611896Y-27715385D01*
X15655521Y-27769962D01*
X15662715Y-27839460D01*
X15631192Y-27901815D01*
X15611896Y-27918535D01*
X15426335Y-28048465D01*
X15259243Y-28215557D01*
X15123703Y-28409129D01*
X15123702Y-28409131D01*
X15023836Y-28623295D01*
X15023832Y-28623304D01*
X14962676Y-28851546D01*
X14962674Y-28851556D01*
X14942079Y-29086959D01*
X14942079Y-29086960D01*
X14962674Y-29322363D01*
X14962676Y-29322373D01*
X15023832Y-29550615D01*
X15023834Y-29550619D01*
X15023835Y-29550623D01*
X15123703Y-29764790D01*
X15123705Y-29764794D01*
X15232019Y-29919481D01*
X15259243Y-29958361D01*
X15426337Y-30125455D01*
X15523122Y-30193225D01*
X15619903Y-30260992D01*
X15619905Y-30260993D01*
X15619908Y-30260995D01*
X15834075Y-30360863D01*
X16062330Y-30422023D01*
X16250656Y-30438499D01*
X16297737Y-30442619D01*
X16297738Y-30442619D01*
X16297739Y-30442619D01*
X16336972Y-30439186D01*
X16533146Y-30422023D01*
X16761401Y-30360863D01*
X16975568Y-30260995D01*
X17169139Y-30125455D01*
X17336233Y-29958361D01*
X17380841Y-29894652D01*
X17435415Y-29851029D01*
X17504914Y-29843835D01*
X17567269Y-29875357D01*
X17570096Y-29878096D01*
X21270919Y-33578919D01*
X21304404Y-33640242D01*
X21307238Y-33666600D01*
X21307238Y-35587201D01*
X21287553Y-35654240D01*
X21234749Y-35699995D01*
X21165591Y-35709939D01*
X21102035Y-35680914D01*
X21095557Y-35674883D01*
X21074914Y-35654240D01*
X20989139Y-35568465D01*
X20989135Y-35568462D01*
X20989134Y-35568461D01*
X20795572Y-35432927D01*
X20795568Y-35432925D01*
X20795566Y-35432924D01*
X20581401Y-35333057D01*
X20581397Y-35333056D01*
X20581393Y-35333054D01*
X20353151Y-35271898D01*
X20353141Y-35271896D01*
X20117739Y-35251301D01*
X20117737Y-35251301D01*
X19882334Y-35271896D01*
X19882324Y-35271898D01*
X19654082Y-35333054D01*
X19654073Y-35333058D01*
X19439909Y-35432924D01*
X19439907Y-35432925D01*
X19246335Y-35568465D01*
X19079243Y-35735557D01*
X18943703Y-35929129D01*
X18943702Y-35929131D01*
X18843836Y-36143295D01*
X18843832Y-36143304D01*
X18782676Y-36371546D01*
X18782674Y-36371556D01*
X18762079Y-36606959D01*
X18762079Y-36606960D01*
X18782674Y-36842363D01*
X18782677Y-36842376D01*
X18816381Y-36968166D01*
X18814718Y-37038015D01*
X18775555Y-37095878D01*
X18711326Y-37123381D01*
X18642424Y-37111794D01*
X18608925Y-37087939D01*
X13758161Y-32237174D01*
X13724676Y-32175851D01*
X13721842Y-32149493D01*
X13721842Y-13458306D01*
X13723566Y-13442686D01*
X13723281Y-13442659D01*
X13724015Y-13434897D01*
X13721842Y-13365736D01*
X13721842Y-13336220D01*
X13721842Y-13336214D01*
X13720973Y-13329343D01*
X13720515Y-13323516D01*
X13720323Y-13317395D01*
X13719052Y-13276937D01*
X13713461Y-13257694D01*
X13709515Y-13238642D01*
X13707006Y-13218772D01*
X13689846Y-13175431D01*
X13687966Y-13169943D01*
X13674960Y-13125174D01*
X13664761Y-13107928D01*
X13656200Y-13090452D01*
X13648829Y-13071834D01*
X13648828Y-13071832D01*
X13621432Y-13034124D01*
X13618234Y-13029255D01*
X13594515Y-12989147D01*
X13594508Y-12989138D01*
X13580347Y-12974977D01*
X13567712Y-12960184D01*
X13555935Y-12943976D01*
X13520035Y-12914277D01*
X13515723Y-12910354D01*
X9708541Y-9103172D01*
X9698718Y-9090910D01*
X9698497Y-9091094D01*
X9693524Y-9085083D01*
X9672733Y-9065559D01*
X9643102Y-9037733D01*
X9632657Y-9027288D01*
X9622213Y-9016843D01*
X9616724Y-9012585D01*
X9612299Y-9008807D01*
X9578320Y-8976898D01*
X9578318Y-8976896D01*
X9578315Y-8976895D01*
X9560767Y-8967248D01*
X9544501Y-8956564D01*
X9528671Y-8944285D01*
X9485906Y-8925778D01*
X9480660Y-8923208D01*
X9439831Y-8900763D01*
X9439830Y-8900762D01*
X9420431Y-8895782D01*
X9402019Y-8889478D01*
X9383636Y-8881522D01*
X9383630Y-8881520D01*
X9337612Y-8874232D01*
X9331890Y-8873047D01*
X9286759Y-8861460D01*
X9286757Y-8861460D01*
X9266722Y-8861460D01*
X9247324Y-8859933D01*
X9239900Y-8858757D01*
X9227543Y-8856800D01*
X9227542Y-8856800D01*
X9181154Y-8861185D01*
X9175316Y-8861460D01*
X5225413Y-8861460D01*
X5158374Y-8841775D01*
X5137732Y-8825141D01*
X4134237Y-7821646D01*
X4100752Y-7760323D01*
X4102142Y-7701876D01*
X4129063Y-7601408D01*
X4149659Y-7366000D01*
X4129063Y-7130592D01*
X4067903Y-6902337D01*
X3968035Y-6688171D01*
X3835644Y-6499095D01*
X3832494Y-6494597D01*
X3665402Y-6327506D01*
X3665395Y-6327501D01*
X3471834Y-6191967D01*
X3471830Y-6191965D01*
X3469004Y-6190647D01*
X3257663Y-6092097D01*
X3257659Y-6092096D01*
X3257655Y-6092094D01*
X3029413Y-6030938D01*
X3029403Y-6030936D01*
X2794001Y-6010341D01*
X2793999Y-6010341D01*
X2558596Y-6030936D01*
X2558586Y-6030938D01*
X2330344Y-6092094D01*
X2330335Y-6092098D01*
X2116171Y-6191964D01*
X2116169Y-6191965D01*
X1922597Y-6327505D01*
X1755505Y-6494597D01*
X1619965Y-6688169D01*
X1619964Y-6688171D01*
X1520098Y-6902335D01*
X1520094Y-6902344D01*
X1458938Y-7130586D01*
X1458936Y-7130596D01*
X1438341Y-7365999D01*
X1438341Y-7366000D01*
X1458936Y-7601403D01*
X1458938Y-7601413D01*
X1520094Y-7829655D01*
X1520096Y-7829659D01*
X1520097Y-7829663D01*
X1619965Y-8043830D01*
X1619967Y-8043834D01*
X1755501Y-8237395D01*
X1755506Y-8237402D01*
X1922597Y-8404493D01*
X1922603Y-8404498D01*
X2108158Y-8534425D01*
X2151783Y-8589002D01*
X2158977Y-8658500D01*
X2127454Y-8720855D01*
X2108158Y-8737575D01*
X1922597Y-8867505D01*
X1755505Y-9034597D01*
X1619965Y-9228169D01*
X1619964Y-9228171D01*
X1520098Y-9442335D01*
X1520094Y-9442344D01*
X1458938Y-9670586D01*
X1458936Y-9670596D01*
X1438341Y-9905999D01*
X1438341Y-9906000D01*
X1458936Y-10141403D01*
X1458938Y-10141413D01*
X1520094Y-10369655D01*
X1520096Y-10369659D01*
X1520097Y-10369663D01*
X1607195Y-10556445D01*
X1619965Y-10583830D01*
X1619967Y-10583834D01*
X1697375Y-10694383D01*
X1755504Y-10777400D01*
X1755506Y-10777402D01*
X1922597Y-10944493D01*
X1922603Y-10944498D01*
X2108158Y-11074425D01*
X2151783Y-11129002D01*
X2158977Y-11198500D01*
X2127454Y-11260855D01*
X2108158Y-11277575D01*
X1922597Y-11407505D01*
X1755505Y-11574597D01*
X1619965Y-11768169D01*
X1619964Y-11768171D01*
X1520098Y-11982335D01*
X1520094Y-11982344D01*
X1458938Y-12210586D01*
X1458936Y-12210596D01*
X1438341Y-12445999D01*
X1438341Y-12446000D01*
X1458936Y-12681403D01*
X1458938Y-12681413D01*
X1520094Y-12909655D01*
X1520096Y-12909659D01*
X1520097Y-12909663D01*
X1547335Y-12968075D01*
X1619965Y-13123830D01*
X1619967Y-13123834D01*
X1755501Y-13317395D01*
X1755506Y-13317402D01*
X1877818Y-13439714D01*
X1911303Y-13501037D01*
X1906319Y-13570729D01*
X1864447Y-13626662D01*
X1833471Y-13643577D01*
X1701912Y-13692646D01*
X1701906Y-13692649D01*
X1586812Y-13778809D01*
X1586809Y-13778812D01*
X1500649Y-13893906D01*
X1500645Y-13893913D01*
X1450403Y-14028620D01*
X1450401Y-14028627D01*
X1444000Y-14088155D01*
X1444000Y-14736000D01*
X2360314Y-14736000D01*
X2334507Y-14776156D01*
X2294000Y-14914111D01*
X2294000Y-15057889D01*
X2334507Y-15195844D01*
X2360314Y-15236000D01*
X1444000Y-15236000D01*
X1444000Y-15883844D01*
X1450401Y-15943372D01*
X1450403Y-15943379D01*
X1500645Y-16078086D01*
X1500649Y-16078093D01*
X1586809Y-16193187D01*
X1586812Y-16193190D01*
X1701906Y-16279350D01*
X1701913Y-16279354D01*
X1836620Y-16329596D01*
X1836627Y-16329598D01*
X1896155Y-16335999D01*
X1896172Y-16336000D01*
X2544000Y-16336000D01*
X2544000Y-15421501D01*
X2651685Y-15470680D01*
X2758237Y-15486000D01*
X2829763Y-15486000D01*
X2936315Y-15470680D01*
X3044000Y-15421501D01*
X3044000Y-16336000D01*
X3691828Y-16336000D01*
X3691844Y-16335999D01*
X3751372Y-16329598D01*
X3751379Y-16329596D01*
X3886086Y-16279354D01*
X3886093Y-16279350D01*
X4001187Y-16193190D01*
X4001190Y-16193187D01*
X4087350Y-16078093D01*
X4087354Y-16078086D01*
X4093318Y-16062097D01*
X4135189Y-16006163D01*
X4200653Y-15981746D01*
X4268926Y-15996597D01*
X4318332Y-16046002D01*
X4333500Y-16105430D01*
X4333500Y-20616216D01*
X4313815Y-20683255D01*
X4297181Y-20703897D01*
X4286304Y-20714774D01*
X4224981Y-20748259D01*
X4155289Y-20743275D01*
X4099356Y-20701403D01*
X4078848Y-20659185D01*
X4067906Y-20618346D01*
X4067904Y-20618342D01*
X4067903Y-20618337D01*
X3968035Y-20404171D01*
X3924665Y-20342231D01*
X3832494Y-20210597D01*
X3665402Y-20043506D01*
X3665395Y-20043501D01*
X3471834Y-19907967D01*
X3471830Y-19907965D01*
X3421149Y-19884332D01*
X3257663Y-19808097D01*
X3257659Y-19808096D01*
X3257655Y-19808094D01*
X3029413Y-19746938D01*
X3029403Y-19746936D01*
X2794001Y-19726341D01*
X2793999Y-19726341D01*
X2558596Y-19746936D01*
X2558586Y-19746938D01*
X2330344Y-19808094D01*
X2330335Y-19808098D01*
X2116171Y-19907964D01*
X2116169Y-19907965D01*
X1922597Y-20043505D01*
X1755505Y-20210597D01*
X1619965Y-20404169D01*
X1619964Y-20404171D01*
X1520098Y-20618335D01*
X1520094Y-20618344D01*
X1458938Y-20846586D01*
X1458936Y-20846596D01*
X1438341Y-21081999D01*
X1438341Y-21082000D01*
X1458936Y-21317403D01*
X1458938Y-21317413D01*
X1520094Y-21545655D01*
X1520096Y-21545659D01*
X1520097Y-21545663D01*
X1584112Y-21682943D01*
X1619965Y-21759830D01*
X1619967Y-21759834D01*
X1755501Y-21953395D01*
X1755506Y-21953402D01*
X1922597Y-22120493D01*
X1922603Y-22120498D01*
X2108158Y-22250425D01*
X2151783Y-22305002D01*
X2158977Y-22374500D01*
X2127454Y-22436855D01*
X2108158Y-22453575D01*
X1922597Y-22583505D01*
X1755505Y-22750597D01*
X1619965Y-22944169D01*
X1619964Y-22944171D01*
X1520098Y-23158335D01*
X1520094Y-23158344D01*
X1458938Y-23386586D01*
X1458936Y-23386596D01*
X1438341Y-23621999D01*
X1438341Y-23622000D01*
X500Y-23622000D01*
X500Y-1724099D01*
X20185Y-1657060D01*
X72989Y-1611305D01*
X110185Y-1601812D01*
X110087Y-1601130D01*
X114469Y-1600500D01*
X114470Y-1600500D01*
X234661Y-1583219D01*
X341075Y-1567919D01*
X341076Y-1567918D01*
X341080Y-1567918D01*
X560746Y-1503418D01*
X560749Y-1503416D01*
X560751Y-1503416D01*
X768985Y-1408319D01*
X768989Y-1408316D01*
X768997Y-1408313D01*
X961594Y-1284539D01*
X1134615Y-1134615D01*
X1284539Y-961594D01*
X1408313Y-768997D01*
X1408316Y-768989D01*
X1408319Y-768985D01*
X1503416Y-560751D01*
X1503416Y-560749D01*
X1503418Y-560746D01*
X1567918Y-341080D01*
X1600500Y-114470D01*
X1600500Y-114468D01*
X1601130Y-110087D01*
X1602424Y-110273D01*
X1624825Y-50199D01*
X1680755Y-8322D01*
X1724099Y-500D01*
X23275901Y-500D01*
X23342940Y-20185D01*
G37*
%TD.AperFunction*%
%TD*%
M02*
