M48
; DRILL file {KiCad 9.0.1} date 2025-04-11T12:37:25-0400
; FORMAT={-:-/ absolute / inch / decimal}
; #@! TF.CreationDate,2025-04-11T12:37:25-04:00
; #@! TF.GenerationSoftware,Kicad,Pcbnew,9.0.1
; #@! TF.FileFunction,Plated,1,2,PTH
FMAT,2
INCH
; #@! TA.AperFunction,Plated,PTH,ViaDrill
T1C0.0157
; #@! TA.AperFunction,Plated,PTH,ComponentDrill
T2C0.0394
%
G90
G05
T1
X0.59Y-2.87
X0.6399Y-2.5171
X0.6649Y-2.0821
X0.7149Y-0.9821
X0.7899Y-2.2021
X0.7949Y-2.5171
X0.8099Y-2.3921
X0.8399Y-2.4321
X0.8649Y-1.3321
X0.9649Y-2.7821
X0.9699Y-2.5171
X1.0349Y-2.5171
X1.1399Y-1.5571
X1.1949Y-2.1971
X1.2049Y-2.5171
X1.2149Y-2.3921
X1.2649Y-2.4321
X1.3149Y-1.0321
X1.3849Y-2.5171
X1.4149Y-1.2321
X1.4149Y-2.8821
X1.4449Y-2.5171
X1.6099Y-2.1971
X1.6149Y-2.5171
X1.6349Y-2.3921
X1.6649Y-1.5821
X1.6649Y-2.4321
X1.7042Y-1.5821
X1.8149Y-2.6571
X1.8199Y-2.5171
X2.0149Y-2.1971
X2.0299Y-1.6821
X2.0399Y-2.9821
X2.0449Y-2.3921
X2.0899Y-2.4321
X2.1649Y-1.3071
X2.2199Y-2.5171
X2.2399Y-2.8821
X2.3299Y-2.0421
X2.3299Y-2.1121
X2.3299Y-2.2021
X2.3299Y-2.5171
X2.3399Y-2.8571
X2.4899Y-1.1321
X2.5399Y-2.5821
X2.5399Y-2.6571
X2.5599Y-2.1971
X2.5649Y-3.0071
X2.5849Y-2.3921
X2.6149Y-2.4321
X2.6899Y-1.6321
X2.6899Y-1.7821
X2.7649Y-2.5571
X2.7899Y-1.6321
X2.7899Y-2.6321
X2.7899Y-2.8071
X2.8149Y-1.8071
X2.8649Y-1.1321
X2.9599Y-2.1971
X2.9649Y-1.6321
X2.9649Y-3.0321
X2.9849Y-2.3921
X3.0149Y-2.4321
X3.0649Y-1.0821
X3.0649Y-1.4071
X3.0899Y-1.7571
X3.1399Y-2.6321
X3.1899Y-2.7571
X3.2149Y-0.9821
X3.2649Y-1.8321
X3.2649Y-1.9321
X3.2899Y-1.1571
X3.2899Y-1.2571
X3.3549Y-2.1971
X3.3749Y-2.3921
X3.4149Y-2.4321
X3.4149Y-3.0071
X3.4649Y-1.1571
X3.4649Y-1.2571
X3.5649Y-2.6321
X3.5649Y-2.7571
X3.7549Y-2.1971
X3.7849Y-2.3921
X3.7899Y-3.0071
X3.8149Y-2.4321
X3.8399Y-1.6071
X3.9399Y-1.8821
X3.9649Y-2.6321
X3.9649Y-2.7821
X4.1599Y-2.1971
X4.1649Y-3.0071
X4.1849Y-2.3921
X4.2149Y-2.4321
X4.3399Y-2.6321
X4.3649Y-2.7571
X4.5599Y-2.1971
X4.5649Y-3.0321
X4.5899Y-2.3921
X4.6149Y-2.4321
X4.7149Y-1.7071
X4.7149Y-2.6321
X4.8149Y-2.7821
X4.8399Y-1.0321
X4.9649Y-2.1971
X4.9649Y-3.0321
X4.9849Y-2.3921
X5.0149Y-2.4321
X5.1399Y-2.6321
X5.1899Y-2.7321
X5.2149Y-1.3821
X5.3599Y-2.1971
X5.3899Y-2.3921
X5.3899Y-2.9821
X5.4149Y-2.4321
X5.4899Y-2.6571
X5.5399Y-0.9571
X5.5399Y-1.6571
X5.5899Y-2.9071
T2
X1.8299Y-1.9221
X1.9299Y-1.9221
X2.0299Y-1.9221
X2.1299Y-1.9221
X2.2299Y-1.9221
X2.3299Y-1.9221
X3.377Y-1.1041
X3.377Y-1.2041
X3.377Y-1.3041
X3.377Y-1.4041
X3.377Y-1.5041
X3.377Y-1.6041
X3.377Y-1.7041
X4.377Y-1.1021
X4.377Y-1.2021
X4.377Y-1.3021
X4.377Y-1.4021
X4.377Y-1.5021
X4.377Y-1.6021
X4.377Y-1.7021
M30
