%TF.GenerationSoftware,KiCad,Pcbnew,9.0.1*%
%TF.CreationDate,2025-04-11T12:37:24-04:00*%
%TF.ProjectId,Pneumatactors_1Xiao_3Pumps_8Valves,506e6575-6d61-4746-9163-746f72735f31,rev?*%
%TF.SameCoordinates,Original*%
%TF.FileFunction,Copper,L2,Bot*%
%TF.FilePolarity,Positive*%
%FSLAX46Y46*%
G04 Gerber Fmt 4.6, Leading zero omitted, Abs format (unit mm)*
G04 Created by KiCad (PCBNEW 9.0.1) date 2025-04-11 12:37:24*
%MOMM*%
%LPD*%
G01*
G04 APERTURE LIST*
%TA.AperFunction,ComponentPad*%
%ADD10R,1.700000X1.700000*%
%TD*%
%TA.AperFunction,ComponentPad*%
%ADD11C,1.700000*%
%TD*%
%TA.AperFunction,ViaPad*%
%ADD12C,0.800000*%
%TD*%
%TA.AperFunction,Conductor*%
%ADD13C,0.250000*%
%TD*%
G04 APERTURE END LIST*
D10*
%TO.P,J4,1,Pin_1*%
%TO.N,3.7V*%
X59178892Y-48821892D03*
D11*
%TO.P,J4,2,Pin_2*%
%TO.N,GND*%
X56638892Y-48821892D03*
%TO.P,J4,3,Pin_3*%
X54098892Y-48821892D03*
%TO.P,J4,4,Pin_4*%
%TO.N,5V*%
X51558892Y-48821892D03*
%TO.P,J4,5,Pin_5*%
%TO.N,unconnected-(J4-Pin_5-Pad5)*%
X49018892Y-48821892D03*
%TO.P,J4,6,Pin_6*%
%TO.N,unconnected-(J4-Pin_6-Pad6)*%
X46478892Y-48821892D03*
%TD*%
D10*
%TO.P,J1,1,Pin_1*%
%TO.N,SER*%
X85775892Y-28044892D03*
D11*
%TO.P,J1,2,Pin_2*%
%TO.N,RCLK*%
X85775892Y-30584892D03*
%TO.P,J1,3,Pin_3*%
%TO.N,SRCLK*%
X85775892Y-33124892D03*
%TO.P,J1,4,Pin_4*%
%TO.N,Net-(J1-Pin_4)*%
X85775892Y-35664892D03*
%TO.P,J1,5,Pin_5*%
%TO.N,SDA*%
X85775892Y-38204892D03*
%TO.P,J1,6,Pin_6*%
%TO.N,SCL*%
X85775892Y-40744892D03*
%TO.P,J1,7,Pin_7*%
%TO.N,Net-(J1-Pin_7)*%
X85775892Y-43284892D03*
%TD*%
D10*
%TO.P,J2,1,Pin_1*%
%TO.N,Net-(J2-Pin_1)*%
X111175892Y-43233892D03*
D11*
%TO.P,J2,2,Pin_2*%
%TO.N,Net-(J2-Pin_2)*%
X111175892Y-40693892D03*
%TO.P,J2,3,Pin_3*%
%TO.N,Net-(J2-Pin_3)*%
X111175892Y-38153892D03*
%TO.P,J2,4,Pin_4*%
%TO.N,Net-(J2-Pin_4)*%
X111175892Y-35613892D03*
%TO.P,J2,5,Pin_5*%
%TO.N,3V3*%
X111175892Y-33073892D03*
%TO.P,J2,6,Pin_6*%
%TO.N,GND*%
X111175892Y-30533892D03*
%TO.P,J2,7,Pin_7*%
%TO.N,5V*%
X111175892Y-27993892D03*
%TD*%
D12*
%TO.N,5V*%
X70862892Y-41455892D03*
X130552892Y-66855892D03*
X122297892Y-70665892D03*
X51558892Y-42725892D03*
X79752892Y-66855892D03*
X81022892Y-70030892D03*
X139442892Y-67490892D03*
X68322892Y-45265892D03*
X70862892Y-71300892D03*
X70227892Y-64950892D03*
X131822892Y-69395892D03*
X70862892Y-66855892D03*
X90547892Y-70030892D03*
X82927892Y-49075892D03*
X90547892Y-66855892D03*
X100707892Y-66855892D03*
X71497892Y-45900892D03*
X110867892Y-70030892D03*
X110232892Y-66855892D03*
X119757892Y-66855892D03*
X100707892Y-70665892D03*
X68322892Y-41455892D03*
%TO.N,3.7V*%
X24634892Y-63934892D03*
X56384892Y-63934892D03*
X59178892Y-53647892D03*
X35175892Y-63934892D03*
X41017892Y-63934892D03*
X16252892Y-63934892D03*
X30603892Y-63934892D03*
X59178892Y-63934892D03*
X36699892Y-63934892D03*
X26285892Y-63934892D03*
X59178892Y-55933892D03*
X59178892Y-51869892D03*
X46224892Y-63934892D03*
X20189892Y-63934892D03*
%TO.N,GND*%
X105787892Y-76380892D03*
X53082892Y-61775892D03*
X16887892Y-52885892D03*
X88007892Y-29390892D03*
X75307892Y-41455892D03*
X141982892Y-73840892D03*
X33397892Y-26215892D03*
X107057892Y-61775892D03*
X115947892Y-77015892D03*
X72767892Y-28755892D03*
X96262892Y-76380892D03*
X32127892Y-61775892D03*
X86737892Y-76380892D03*
X65147892Y-76380892D03*
X21332892Y-61775892D03*
X64512892Y-65585892D03*
X21967892Y-33835892D03*
X137537892Y-61775892D03*
X14986000Y-72898000D03*
X140712892Y-42090892D03*
X140712892Y-24310892D03*
X126107892Y-77015892D03*
X81657892Y-24945892D03*
X77847892Y-35740892D03*
X56892892Y-73205892D03*
X51812892Y-75745892D03*
X59432892Y-72570892D03*
X119757892Y-43360892D03*
X35937892Y-73205892D03*
X54987892Y-33200892D03*
X136902892Y-75745892D03*
X132457892Y-35105892D03*
X127377892Y-61775892D03*
X97532892Y-40820892D03*
X35937892Y-31295892D03*
X122932892Y-26215892D03*
X88007892Y-31930892D03*
X63242892Y-28755892D03*
X86737892Y-61775892D03*
X28952892Y-39550892D03*
X66417892Y-61775892D03*
X83562892Y-29390892D03*
X42287892Y-61775892D03*
X76577892Y-61775892D03*
X64512892Y-67490892D03*
X96897892Y-61775892D03*
X100072892Y-47805892D03*
X83562892Y-31930892D03*
X78482892Y-44630892D03*
X24507892Y-70665892D03*
X75307892Y-77015892D03*
X46097892Y-67490892D03*
X117217892Y-61775892D03*
X18157892Y-24945892D03*
X82927892Y-46535892D03*
X77847892Y-27485892D03*
%TO.N,SDA*%
X42287892Y-40185892D03*
%TO.N,SCL*%
X43287895Y-40185892D03*
%TO.N,Net-(Q3-G)*%
X115820892Y-55806892D03*
X116582892Y-60759892D03*
%TO.N,Net-(Q4-G)*%
X105660892Y-55806892D03*
X106295892Y-60759892D03*
%TO.N,Net-(Q5-G)*%
X96135892Y-60759892D03*
X95373892Y-55806892D03*
%TO.N,Net-(Q6-G)*%
X85721892Y-60759892D03*
X85213892Y-55806892D03*
%TO.N,Net-(Q1-G)*%
X136140892Y-55806892D03*
X136902892Y-60759892D03*
%TO.N,Net-(Q2-G)*%
X126615892Y-60759892D03*
X126107892Y-55806892D03*
%TO.N,Net-(Q7-G)*%
X75815892Y-60759892D03*
X75180892Y-55806892D03*
%TO.N,Net-(Q8-G)*%
X65020892Y-55806892D03*
X65655892Y-60759892D03*
%TO.N,Net-(Q9-G)*%
X51177892Y-55806892D03*
X51939892Y-60759892D03*
%TO.N,Net-(Q10-G)*%
X41525892Y-60759892D03*
X40890892Y-55806892D03*
%TO.N,Net-(Q11-G)*%
X30857892Y-60759892D03*
X30349892Y-55806892D03*
%TO.N,Net-(Q12-G)*%
X20570892Y-60759892D03*
X20062892Y-55933892D03*
%TD*%
D13*
%TO.N,5V*%
X70227892Y-58600892D02*
X70227892Y-64950892D01*
X82927892Y-49075892D02*
X79752892Y-49075892D01*
X79752892Y-49075892D02*
X70227892Y-58600892D01*
%TO.N,SDA*%
X79117892Y-25580892D02*
X79117892Y-31546892D01*
X42287892Y-26215892D02*
X44827892Y-23675892D01*
X42287892Y-40185892D02*
X42287892Y-26215892D01*
X44827892Y-23675892D02*
X77212892Y-23675892D01*
X79117892Y-31546892D02*
X85775892Y-38204892D01*
X77212892Y-23675892D02*
X79117892Y-25580892D01*
%TO.N,SCL*%
X43287895Y-40185892D02*
X43013892Y-39911889D01*
X42738892Y-39610172D02*
X42738892Y-26402702D01*
X43013892Y-39911889D02*
X43013892Y-39885172D01*
X78666892Y-25767702D02*
X78666892Y-31733702D01*
X45014702Y-24126892D02*
X77026082Y-24126892D01*
X77026082Y-24126892D02*
X78666892Y-25767702D01*
X78666892Y-31733702D02*
X81657892Y-34724702D01*
X43013892Y-39885172D02*
X42738892Y-39610172D01*
X81657892Y-34724702D02*
X81657892Y-36626892D01*
X42738892Y-26402702D02*
X45014702Y-24126892D01*
X81657892Y-36626892D02*
X85775892Y-40744892D01*
%TO.N,Net-(Q3-G)*%
X116582892Y-56568892D02*
X115820892Y-55806892D01*
X116582892Y-60759892D02*
X116582892Y-56568892D01*
%TO.N,Net-(Q4-G)*%
X106295892Y-60759892D02*
X106295892Y-56441892D01*
X106295892Y-56441892D02*
X105660892Y-55806892D01*
%TO.N,Net-(Q5-G)*%
X95500892Y-55806892D02*
X95373892Y-55806892D01*
X96135892Y-56441892D02*
X95500892Y-55806892D01*
X96135892Y-60759892D02*
X96135892Y-56441892D01*
X94357892Y-55806892D02*
X94230892Y-55933892D01*
%TO.N,Net-(Q6-G)*%
X85721892Y-60759892D02*
X85721892Y-56314892D01*
X85721892Y-56314892D02*
X85213892Y-55806892D01*
%TO.N,Net-(Q1-G)*%
X136902892Y-60759892D02*
X136902892Y-56568892D01*
X136902892Y-56568892D02*
X136140892Y-55806892D01*
%TO.N,Net-(Q2-G)*%
X126615892Y-56314892D02*
X126107892Y-55806892D01*
X126615892Y-60759892D02*
X126615892Y-56314892D01*
%TO.N,Net-(Q7-G)*%
X75815892Y-56441892D02*
X75180892Y-55806892D01*
X75815892Y-60759892D02*
X75815892Y-56441892D01*
%TO.N,Net-(Q8-G)*%
X65655892Y-56441892D02*
X65020892Y-55806892D01*
X65655892Y-60759892D02*
X65655892Y-56441892D01*
%TO.N,Net-(Q9-G)*%
X51939892Y-60759892D02*
X51939892Y-56568892D01*
X51939892Y-56568892D02*
X51177892Y-55806892D01*
%TO.N,Net-(Q10-G)*%
X41525892Y-56441892D02*
X40890892Y-55806892D01*
X41525892Y-60759892D02*
X41525892Y-56441892D01*
%TO.N,Net-(Q11-G)*%
X30857892Y-60759892D02*
X30857892Y-56314892D01*
X30857892Y-56314892D02*
X30349892Y-55806892D01*
%TO.N,Net-(Q12-G)*%
X20570892Y-60759892D02*
X20570892Y-56441892D01*
X20570892Y-56441892D02*
X20062892Y-55933892D01*
%TD*%
%TA.AperFunction,Conductor*%
%TO.N,3.7V*%
G36*
X61052493Y-47191457D02*
G01*
X61082557Y-47243528D01*
X61083892Y-47258792D01*
X61083892Y-65624992D01*
X61063327Y-65681493D01*
X61011256Y-65711557D01*
X60995992Y-65712892D01*
X15578792Y-65712892D01*
X15522291Y-65692327D01*
X15492227Y-65640256D01*
X15490892Y-65624992D01*
X15490892Y-62244792D01*
X15511457Y-62188291D01*
X15563528Y-62158227D01*
X15578792Y-62156892D01*
X20828246Y-62156892D01*
X20884747Y-62177457D01*
X20890401Y-62182637D01*
X20964176Y-62256412D01*
X21101108Y-62335469D01*
X21101110Y-62335469D01*
X21101111Y-62335470D01*
X21253835Y-62376392D01*
X21411948Y-62376392D01*
X21411949Y-62376392D01*
X21564676Y-62335469D01*
X21701608Y-62256412D01*
X21775383Y-62182637D01*
X21829877Y-62157226D01*
X21837538Y-62156892D01*
X31623246Y-62156892D01*
X31679747Y-62177457D01*
X31685401Y-62182637D01*
X31759176Y-62256412D01*
X31896108Y-62335469D01*
X31896110Y-62335469D01*
X31896111Y-62335470D01*
X32048835Y-62376392D01*
X32206948Y-62376392D01*
X32206949Y-62376392D01*
X32359676Y-62335469D01*
X32496608Y-62256412D01*
X32570383Y-62182637D01*
X32624877Y-62157226D01*
X32632538Y-62156892D01*
X41783246Y-62156892D01*
X41839747Y-62177457D01*
X41845401Y-62182637D01*
X41919176Y-62256412D01*
X42056108Y-62335469D01*
X42056110Y-62335469D01*
X42056111Y-62335470D01*
X42208835Y-62376392D01*
X42366948Y-62376392D01*
X42366949Y-62376392D01*
X42519676Y-62335469D01*
X42656608Y-62256412D01*
X42730383Y-62182637D01*
X42784877Y-62157226D01*
X42792538Y-62156892D01*
X52578246Y-62156892D01*
X52634747Y-62177457D01*
X52640401Y-62182637D01*
X52714176Y-62256412D01*
X52851108Y-62335469D01*
X52851110Y-62335469D01*
X52851111Y-62335470D01*
X53003835Y-62376392D01*
X53161948Y-62376392D01*
X53161949Y-62376392D01*
X53314676Y-62335469D01*
X53451608Y-62256412D01*
X53525383Y-62182637D01*
X53579877Y-62157226D01*
X53587538Y-62156892D01*
X57908891Y-62156892D01*
X57908892Y-62156892D01*
X57908892Y-50157664D01*
X57929457Y-50101163D01*
X57981528Y-50071099D01*
X58040742Y-50081540D01*
X58049469Y-50087297D01*
X58086801Y-50115244D01*
X58221517Y-50165491D01*
X58281055Y-50171891D01*
X58281065Y-50171892D01*
X58928891Y-50171892D01*
X58928892Y-50171891D01*
X58928892Y-49254904D01*
X58985899Y-49287817D01*
X59113066Y-49321892D01*
X59244718Y-49321892D01*
X59371885Y-49287817D01*
X59428892Y-49254904D01*
X59428892Y-50171891D01*
X59428893Y-50171892D01*
X60076719Y-50171892D01*
X60076728Y-50171891D01*
X60136266Y-50165491D01*
X60270982Y-50115244D01*
X60386078Y-50029083D01*
X60386083Y-50029078D01*
X60472244Y-49913982D01*
X60522491Y-49779266D01*
X60528891Y-49719728D01*
X60528892Y-49719719D01*
X60528892Y-49071893D01*
X60528891Y-49071892D01*
X59611904Y-49071892D01*
X59644817Y-49014885D01*
X59678892Y-48887718D01*
X59678892Y-48756066D01*
X59644817Y-48628899D01*
X59611904Y-48571892D01*
X60528891Y-48571892D01*
X60528892Y-48571891D01*
X60528892Y-47924064D01*
X60528891Y-47924055D01*
X60522491Y-47864517D01*
X60472244Y-47729801D01*
X60386083Y-47614705D01*
X60386078Y-47614700D01*
X60270982Y-47528539D01*
X60136266Y-47478292D01*
X60076728Y-47471892D01*
X59428893Y-47471892D01*
X59428892Y-47471893D01*
X59428892Y-48388880D01*
X59371885Y-48355967D01*
X59244718Y-48321892D01*
X59113066Y-48321892D01*
X58985899Y-48355967D01*
X58928892Y-48388880D01*
X58928892Y-47471893D01*
X58928891Y-47471892D01*
X58281055Y-47471892D01*
X58221517Y-47478292D01*
X58086801Y-47528539D01*
X58049469Y-47556487D01*
X57991914Y-47573885D01*
X57936641Y-47550216D01*
X57909514Y-47496556D01*
X57908892Y-47486120D01*
X57908892Y-47258792D01*
X57929457Y-47202291D01*
X57981528Y-47172227D01*
X57996792Y-47170892D01*
X60995992Y-47170892D01*
X61052493Y-47191457D01*
G37*
%TD.AperFunction*%
%TD*%
%TA.AperFunction,Conductor*%
%TO.N,5V*%
G36*
X67131892Y-63955892D02*
G01*
X72846892Y-63955892D01*
X72841616Y-62410892D01*
X139989992Y-62410892D01*
X140046493Y-62431457D01*
X140076557Y-62483528D01*
X140077892Y-62498792D01*
X140077892Y-73117992D01*
X140057327Y-73174493D01*
X140005256Y-73204557D01*
X139989992Y-73205892D01*
X65235792Y-73205892D01*
X65179291Y-73185327D01*
X65149227Y-73133256D01*
X65147892Y-73117992D01*
X65147892Y-62498792D01*
X65168457Y-62442291D01*
X65220528Y-62412227D01*
X65235792Y-62410892D01*
X67126615Y-62410892D01*
X67126616Y-62410892D01*
X67131892Y-63955892D01*
G37*
%TD.AperFunction*%
%TD*%
%TA.AperFunction,Conductor*%
%TO.N,GND*%
G36*
X143220993Y-22934957D02*
G01*
X143251057Y-22987028D01*
X143252392Y-23002292D01*
X143252392Y-79721492D01*
X143231827Y-79777993D01*
X143179756Y-79808057D01*
X143164492Y-79809392D01*
X14055292Y-79809392D01*
X13998791Y-79788827D01*
X13968727Y-79736756D01*
X13967392Y-79721492D01*
X13967392Y-62244789D01*
X15285392Y-62244789D01*
X15285392Y-62244792D01*
X15285392Y-65624992D01*
X15285844Y-65635358D01*
X15286173Y-65642905D01*
X15287507Y-65658159D01*
X15314258Y-65743004D01*
X15314261Y-65743011D01*
X15344322Y-65795076D01*
X15344322Y-65795077D01*
X15375178Y-65835812D01*
X15375184Y-65835817D01*
X15452003Y-65885432D01*
X15452010Y-65885435D01*
X15508500Y-65905996D01*
X15508501Y-65905996D01*
X15508506Y-65905998D01*
X15508512Y-65905999D01*
X15508516Y-65906000D01*
X15564512Y-65915874D01*
X15578792Y-65918392D01*
X15578797Y-65918392D01*
X60995981Y-65918392D01*
X60995992Y-65918392D01*
X61013897Y-65917611D01*
X61029161Y-65916276D01*
X61114008Y-65889524D01*
X61166079Y-65859460D01*
X61206814Y-65828604D01*
X61256433Y-65751779D01*
X61276998Y-65695278D01*
X61289392Y-65624992D01*
X61289392Y-62498789D01*
X64942392Y-62498789D01*
X64942392Y-62498792D01*
X64942392Y-73117992D01*
X64942844Y-73128358D01*
X64943173Y-73135905D01*
X64944507Y-73151159D01*
X64971258Y-73236004D01*
X64971261Y-73236011D01*
X65001322Y-73288076D01*
X65001322Y-73288077D01*
X65032178Y-73328812D01*
X65032184Y-73328817D01*
X65109003Y-73378432D01*
X65109010Y-73378435D01*
X65165500Y-73398996D01*
X65165501Y-73398996D01*
X65165506Y-73398998D01*
X65165512Y-73398999D01*
X65165516Y-73399000D01*
X65221512Y-73408874D01*
X65235792Y-73411392D01*
X65235797Y-73411392D01*
X139989981Y-73411392D01*
X139989992Y-73411392D01*
X140007897Y-73410611D01*
X140023161Y-73409276D01*
X140108008Y-73382524D01*
X140160079Y-73352460D01*
X140200814Y-73321604D01*
X140250433Y-73244779D01*
X140270998Y-73188278D01*
X140283392Y-73117992D01*
X140283392Y-62498792D01*
X140282611Y-62480887D01*
X140281276Y-62465623D01*
X140254524Y-62380776D01*
X140224460Y-62328705D01*
X140199069Y-62295184D01*
X140193605Y-62287971D01*
X140193599Y-62287966D01*
X140116780Y-62238351D01*
X140116773Y-62238348D01*
X140060283Y-62217787D01*
X140060267Y-62217783D01*
X139990002Y-62205393D01*
X139989995Y-62205392D01*
X139989992Y-62205392D01*
X139989987Y-62205392D01*
X73134014Y-62205392D01*
X73077513Y-62184827D01*
X73047449Y-62132756D01*
X73046115Y-62117792D01*
X73039821Y-60274614D01*
X73026246Y-56299571D01*
X73046617Y-56243003D01*
X73051979Y-56237130D01*
X73561274Y-55727835D01*
X74580392Y-55727835D01*
X74580392Y-55885949D01*
X74581756Y-55891039D01*
X74621313Y-56038672D01*
X74621314Y-56038673D01*
X74621315Y-56038676D01*
X74700372Y-56175608D01*
X74812176Y-56287412D01*
X74949108Y-56366469D01*
X74949110Y-56366469D01*
X74949111Y-56366470D01*
X75101835Y-56407392D01*
X75259950Y-56407392D01*
X75265662Y-56406640D01*
X75265867Y-56408200D01*
X75287819Y-56410121D01*
X75319019Y-56412847D01*
X75319025Y-56412851D01*
X75319028Y-56412852D01*
X75344035Y-56430361D01*
X75464647Y-56550973D01*
X75490058Y-56605467D01*
X75490392Y-56613128D01*
X75490392Y-60203671D01*
X75469827Y-60260172D01*
X75451507Y-60275546D01*
X75451750Y-60275862D01*
X75447175Y-60279372D01*
X75335374Y-60391172D01*
X75256313Y-60528111D01*
X75215392Y-60680835D01*
X75215392Y-60838948D01*
X75256313Y-60991672D01*
X75256314Y-60991675D01*
X75256315Y-60991676D01*
X75335372Y-61128608D01*
X75447176Y-61240412D01*
X75584108Y-61319469D01*
X75584110Y-61319469D01*
X75584111Y-61319470D01*
X75736835Y-61360392D01*
X75894948Y-61360392D01*
X75894949Y-61360392D01*
X76047676Y-61319469D01*
X76184608Y-61240412D01*
X76296412Y-61128608D01*
X76375469Y-60991676D01*
X76416392Y-60838949D01*
X76416392Y-60680835D01*
X76375469Y-60528108D01*
X76296412Y-60391176D01*
X76296410Y-60391174D01*
X76296409Y-60391172D01*
X76184608Y-60279372D01*
X76180034Y-60275862D01*
X76180991Y-60274614D01*
X76146689Y-60233723D01*
X76141392Y-60203671D01*
X76141392Y-56491837D01*
X76141393Y-56491824D01*
X76141393Y-56399040D01*
X76136498Y-56380772D01*
X76119210Y-56316254D01*
X76119206Y-56316247D01*
X76114691Y-56308426D01*
X76114690Y-56308426D01*
X76076357Y-56242030D01*
X76076355Y-56242028D01*
X76076354Y-56242026D01*
X76012685Y-56178358D01*
X76012684Y-56178358D01*
X75804361Y-55970035D01*
X75778950Y-55915541D01*
X75781036Y-55891714D01*
X75780640Y-55891662D01*
X75781392Y-55885950D01*
X75781392Y-55727835D01*
X84613392Y-55727835D01*
X84613392Y-55885949D01*
X84614756Y-55891039D01*
X84654313Y-56038672D01*
X84654314Y-56038673D01*
X84654315Y-56038676D01*
X84733372Y-56175608D01*
X84845176Y-56287412D01*
X84982108Y-56366469D01*
X84982110Y-56366469D01*
X84982111Y-56366470D01*
X85134835Y-56407392D01*
X85292946Y-56407392D01*
X85292949Y-56407392D01*
X85292951Y-56407391D01*
X85297016Y-56406856D01*
X85355718Y-56419868D01*
X85392323Y-56467569D01*
X85396392Y-56494004D01*
X85396392Y-60203671D01*
X85375827Y-60260172D01*
X85357507Y-60275546D01*
X85357750Y-60275862D01*
X85353175Y-60279372D01*
X85241374Y-60391172D01*
X85162313Y-60528111D01*
X85121392Y-60680835D01*
X85121392Y-60838948D01*
X85162313Y-60991672D01*
X85162314Y-60991675D01*
X85162315Y-60991676D01*
X85241372Y-61128608D01*
X85353176Y-61240412D01*
X85490108Y-61319469D01*
X85490110Y-61319469D01*
X85490111Y-61319470D01*
X85642835Y-61360392D01*
X85800948Y-61360392D01*
X85800949Y-61360392D01*
X85953676Y-61319469D01*
X86090608Y-61240412D01*
X86202412Y-61128608D01*
X86281469Y-60991676D01*
X86322392Y-60838949D01*
X86322392Y-60680835D01*
X86281469Y-60528108D01*
X86202412Y-60391176D01*
X86202410Y-60391174D01*
X86202409Y-60391172D01*
X86090608Y-60279372D01*
X86086034Y-60275862D01*
X86086991Y-60274614D01*
X86052689Y-60233723D01*
X86047392Y-60203671D01*
X86047392Y-56272039D01*
X86025211Y-56189257D01*
X86025210Y-56189256D01*
X86025210Y-56189254D01*
X85982357Y-56115030D01*
X85921754Y-56054427D01*
X85837361Y-55970034D01*
X85827094Y-55948017D01*
X85813868Y-55927649D01*
X85814003Y-55919943D01*
X85811950Y-55915540D01*
X85812272Y-55897163D01*
X85813020Y-55891065D01*
X85813027Y-55891039D01*
X93905392Y-55891039D01*
X93905392Y-55976744D01*
X93927573Y-56059529D01*
X93959616Y-56115030D01*
X93970427Y-56133754D01*
X94031030Y-56194357D01*
X94105253Y-56237210D01*
X94188039Y-56259392D01*
X94273744Y-56259392D01*
X94273745Y-56259392D01*
X94356531Y-56237210D01*
X94430754Y-56194357D01*
X94618357Y-56006754D01*
X94640253Y-55968830D01*
X94686310Y-55930182D01*
X94746437Y-55930182D01*
X94792498Y-55968830D01*
X94801280Y-55990030D01*
X94808952Y-56018662D01*
X94814315Y-56038676D01*
X94893372Y-56175608D01*
X95005176Y-56287412D01*
X95142108Y-56366469D01*
X95142110Y-56366469D01*
X95142111Y-56366470D01*
X95294835Y-56407392D01*
X95452947Y-56407392D01*
X95452949Y-56407392D01*
X95552293Y-56380772D01*
X95612188Y-56386012D01*
X95637193Y-56403520D01*
X95718419Y-56484745D01*
X95784647Y-56550973D01*
X95810058Y-56605467D01*
X95810392Y-56613128D01*
X95810392Y-60203671D01*
X95789827Y-60260172D01*
X95771507Y-60275546D01*
X95771750Y-60275862D01*
X95767175Y-60279372D01*
X95655374Y-60391172D01*
X95576313Y-60528111D01*
X95535392Y-60680835D01*
X95535392Y-60838948D01*
X95576313Y-60991672D01*
X95576314Y-60991675D01*
X95576315Y-60991676D01*
X95655372Y-61128608D01*
X95767176Y-61240412D01*
X95904108Y-61319469D01*
X95904110Y-61319469D01*
X95904111Y-61319470D01*
X96056835Y-61360392D01*
X96214948Y-61360392D01*
X96214949Y-61360392D01*
X96367676Y-61319469D01*
X96504608Y-61240412D01*
X96616412Y-61128608D01*
X96695469Y-60991676D01*
X96736392Y-60838949D01*
X96736392Y-60680835D01*
X96695469Y-60528108D01*
X96616412Y-60391176D01*
X96616410Y-60391174D01*
X96616409Y-60391172D01*
X96504608Y-60279372D01*
X96500034Y-60275862D01*
X96500991Y-60274614D01*
X96466689Y-60233723D01*
X96461392Y-60203671D01*
X96461392Y-56491837D01*
X96461393Y-56491824D01*
X96461393Y-56399040D01*
X96456498Y-56380772D01*
X96439210Y-56316254D01*
X96439206Y-56316247D01*
X96434691Y-56308426D01*
X96434690Y-56308426D01*
X96396357Y-56242030D01*
X96396355Y-56242028D01*
X96396354Y-56242026D01*
X96332685Y-56178358D01*
X96332684Y-56178358D01*
X96000137Y-55845810D01*
X95992026Y-55828418D01*
X95979693Y-55813719D01*
X95976361Y-55794822D01*
X95974726Y-55791316D01*
X95974392Y-55783655D01*
X95974392Y-55727835D01*
X105060392Y-55727835D01*
X105060392Y-55885949D01*
X105061756Y-55891039D01*
X105101313Y-56038672D01*
X105101314Y-56038673D01*
X105101315Y-56038676D01*
X105180372Y-56175608D01*
X105292176Y-56287412D01*
X105429108Y-56366469D01*
X105429110Y-56366469D01*
X105429111Y-56366470D01*
X105581835Y-56407392D01*
X105739950Y-56407392D01*
X105745662Y-56406640D01*
X105745867Y-56408200D01*
X105767819Y-56410121D01*
X105799019Y-56412847D01*
X105799025Y-56412851D01*
X105799028Y-56412852D01*
X105824035Y-56430361D01*
X105944647Y-56550973D01*
X105970058Y-56605467D01*
X105970392Y-56613128D01*
X105970392Y-60203671D01*
X105949827Y-60260172D01*
X105931507Y-60275546D01*
X105931750Y-60275862D01*
X105927175Y-60279372D01*
X105815374Y-60391172D01*
X105736313Y-60528111D01*
X105695392Y-60680835D01*
X105695392Y-60838948D01*
X105736313Y-60991672D01*
X105736314Y-60991675D01*
X105736315Y-60991676D01*
X105815372Y-61128608D01*
X105927176Y-61240412D01*
X106064108Y-61319469D01*
X106064110Y-61319469D01*
X106064111Y-61319470D01*
X106216835Y-61360392D01*
X106374948Y-61360392D01*
X106374949Y-61360392D01*
X106527676Y-61319469D01*
X106664608Y-61240412D01*
X106776412Y-61128608D01*
X106855469Y-60991676D01*
X106896392Y-60838949D01*
X106896392Y-60680835D01*
X106855469Y-60528108D01*
X106776412Y-60391176D01*
X106776410Y-60391174D01*
X106776409Y-60391172D01*
X106664608Y-60279372D01*
X106660034Y-60275862D01*
X106660991Y-60274614D01*
X106626689Y-60233723D01*
X106621392Y-60203671D01*
X106621392Y-56491837D01*
X106621393Y-56491824D01*
X106621393Y-56399040D01*
X106616498Y-56380772D01*
X106599210Y-56316254D01*
X106599206Y-56316247D01*
X106594691Y-56308426D01*
X106594690Y-56308426D01*
X106556357Y-56242030D01*
X106556355Y-56242028D01*
X106556354Y-56242026D01*
X106492685Y-56178358D01*
X106492684Y-56178358D01*
X106284361Y-55970035D01*
X106258950Y-55915541D01*
X106261036Y-55891714D01*
X106260640Y-55891662D01*
X106261392Y-55885950D01*
X106261392Y-55727835D01*
X115220392Y-55727835D01*
X115220392Y-55885949D01*
X115221756Y-55891039D01*
X115261313Y-56038672D01*
X115261314Y-56038673D01*
X115261315Y-56038676D01*
X115340372Y-56175608D01*
X115452176Y-56287412D01*
X115589108Y-56366469D01*
X115589110Y-56366469D01*
X115589111Y-56366470D01*
X115741835Y-56407392D01*
X115899950Y-56407392D01*
X115905662Y-56406640D01*
X115905867Y-56408203D01*
X115959019Y-56412847D01*
X115984035Y-56430361D01*
X116231647Y-56677973D01*
X116257058Y-56732467D01*
X116257392Y-56740128D01*
X116257392Y-60203671D01*
X116236827Y-60260172D01*
X116218507Y-60275546D01*
X116218750Y-60275862D01*
X116214175Y-60279372D01*
X116102374Y-60391172D01*
X116023313Y-60528111D01*
X115982392Y-60680835D01*
X115982392Y-60838948D01*
X116023313Y-60991672D01*
X116023314Y-60991675D01*
X116023315Y-60991676D01*
X116102372Y-61128608D01*
X116214176Y-61240412D01*
X116351108Y-61319469D01*
X116351110Y-61319469D01*
X116351111Y-61319470D01*
X116503835Y-61360392D01*
X116661948Y-61360392D01*
X116661949Y-61360392D01*
X116814676Y-61319469D01*
X116951608Y-61240412D01*
X117063412Y-61128608D01*
X117142469Y-60991676D01*
X117183392Y-60838949D01*
X117183392Y-60680835D01*
X117142469Y-60528108D01*
X117063412Y-60391176D01*
X117063410Y-60391174D01*
X117063409Y-60391172D01*
X116951608Y-60279372D01*
X116947034Y-60275862D01*
X116947991Y-60274614D01*
X116913689Y-60233723D01*
X116908392Y-60203671D01*
X116908392Y-56618837D01*
X116908393Y-56618824D01*
X116908393Y-56526038D01*
X116886210Y-56443251D01*
X116868545Y-56412657D01*
X116868543Y-56412655D01*
X116864783Y-56406142D01*
X116843357Y-56369030D01*
X116782754Y-56308427D01*
X116782751Y-56308425D01*
X116444361Y-55970035D01*
X116418950Y-55915541D01*
X116421036Y-55891714D01*
X116420640Y-55891662D01*
X116421392Y-55885950D01*
X116421392Y-55727835D01*
X125507392Y-55727835D01*
X125507392Y-55885949D01*
X125508756Y-55891039D01*
X125548313Y-56038672D01*
X125548314Y-56038673D01*
X125548315Y-56038676D01*
X125627372Y-56175608D01*
X125739176Y-56287412D01*
X125876108Y-56366469D01*
X125876110Y-56366469D01*
X125876111Y-56366470D01*
X126028835Y-56407392D01*
X126186946Y-56407392D01*
X126186949Y-56407392D01*
X126186951Y-56407391D01*
X126191016Y-56406856D01*
X126249718Y-56419868D01*
X126286323Y-56467569D01*
X126290392Y-56494004D01*
X126290392Y-60203671D01*
X126269827Y-60260172D01*
X126251507Y-60275546D01*
X126251750Y-60275862D01*
X126247175Y-60279372D01*
X126135374Y-60391172D01*
X126056313Y-60528111D01*
X126015392Y-60680835D01*
X126015392Y-60838948D01*
X126056313Y-60991672D01*
X126056314Y-60991675D01*
X126056315Y-60991676D01*
X126135372Y-61128608D01*
X126247176Y-61240412D01*
X126384108Y-61319469D01*
X126384110Y-61319469D01*
X126384111Y-61319470D01*
X126536835Y-61360392D01*
X126694948Y-61360392D01*
X126694949Y-61360392D01*
X126847676Y-61319469D01*
X126984608Y-61240412D01*
X127096412Y-61128608D01*
X127175469Y-60991676D01*
X127216392Y-60838949D01*
X127216392Y-60680835D01*
X127175469Y-60528108D01*
X127096412Y-60391176D01*
X127096410Y-60391174D01*
X127096409Y-60391172D01*
X126984608Y-60279372D01*
X126980034Y-60275862D01*
X126980991Y-60274614D01*
X126946689Y-60233723D01*
X126941392Y-60203671D01*
X126941392Y-56272039D01*
X126919211Y-56189257D01*
X126919210Y-56189256D01*
X126919210Y-56189254D01*
X126876357Y-56115030D01*
X126815754Y-56054427D01*
X126731361Y-55970034D01*
X126705950Y-55915540D01*
X126708036Y-55891714D01*
X126707640Y-55891662D01*
X126708392Y-55885950D01*
X126708392Y-55727835D01*
X135540392Y-55727835D01*
X135540392Y-55885949D01*
X135541756Y-55891039D01*
X135581313Y-56038672D01*
X135581314Y-56038673D01*
X135581315Y-56038676D01*
X135660372Y-56175608D01*
X135772176Y-56287412D01*
X135909108Y-56366469D01*
X135909110Y-56366469D01*
X135909111Y-56366470D01*
X136061835Y-56407392D01*
X136219950Y-56407392D01*
X136225662Y-56406640D01*
X136225867Y-56408203D01*
X136279019Y-56412847D01*
X136304035Y-56430361D01*
X136551647Y-56677973D01*
X136577058Y-56732467D01*
X136577392Y-56740128D01*
X136577392Y-60203671D01*
X136556827Y-60260172D01*
X136538507Y-60275546D01*
X136538750Y-60275862D01*
X136534175Y-60279372D01*
X136422374Y-60391172D01*
X136343313Y-60528111D01*
X136302392Y-60680835D01*
X136302392Y-60838948D01*
X136343313Y-60991672D01*
X136343314Y-60991675D01*
X136343315Y-60991676D01*
X136422372Y-61128608D01*
X136534176Y-61240412D01*
X136671108Y-61319469D01*
X136671110Y-61319469D01*
X136671111Y-61319470D01*
X136823835Y-61360392D01*
X136981948Y-61360392D01*
X136981949Y-61360392D01*
X137134676Y-61319469D01*
X137271608Y-61240412D01*
X137383412Y-61128608D01*
X137462469Y-60991676D01*
X137503392Y-60838949D01*
X137503392Y-60680835D01*
X137462469Y-60528108D01*
X137383412Y-60391176D01*
X137383410Y-60391174D01*
X137383409Y-60391172D01*
X137271608Y-60279372D01*
X137267034Y-60275862D01*
X137267991Y-60274614D01*
X137233689Y-60233723D01*
X137228392Y-60203671D01*
X137228392Y-56618837D01*
X137228393Y-56618824D01*
X137228393Y-56526038D01*
X137206210Y-56443251D01*
X137188545Y-56412657D01*
X137188543Y-56412655D01*
X137184783Y-56406142D01*
X137163357Y-56369030D01*
X137102754Y-56308427D01*
X137102751Y-56308425D01*
X136764361Y-55970035D01*
X136738950Y-55915541D01*
X136741036Y-55891714D01*
X136740640Y-55891662D01*
X136741392Y-55885950D01*
X136741392Y-55727835D01*
X136700470Y-55575111D01*
X136700469Y-55575110D01*
X136700469Y-55575108D01*
X136621412Y-55438176D01*
X136509608Y-55326372D01*
X136372676Y-55247315D01*
X136372675Y-55247314D01*
X136372672Y-55247313D01*
X136219949Y-55206392D01*
X136061835Y-55206392D01*
X135909111Y-55247313D01*
X135772174Y-55326373D01*
X135660373Y-55438174D01*
X135581313Y-55575111D01*
X135547285Y-55702111D01*
X135540392Y-55727835D01*
X126708392Y-55727835D01*
X126667470Y-55575111D01*
X126667469Y-55575110D01*
X126667469Y-55575108D01*
X126588412Y-55438176D01*
X126476608Y-55326372D01*
X126339676Y-55247315D01*
X126339675Y-55247314D01*
X126339672Y-55247313D01*
X126186949Y-55206392D01*
X126028835Y-55206392D01*
X125876111Y-55247313D01*
X125739174Y-55326373D01*
X125627373Y-55438174D01*
X125548313Y-55575111D01*
X125514285Y-55702111D01*
X125507392Y-55727835D01*
X116421392Y-55727835D01*
X116380470Y-55575111D01*
X116380469Y-55575110D01*
X116380469Y-55575108D01*
X116301412Y-55438176D01*
X116189608Y-55326372D01*
X116052676Y-55247315D01*
X116052675Y-55247314D01*
X116052672Y-55247313D01*
X115899949Y-55206392D01*
X115741835Y-55206392D01*
X115589111Y-55247313D01*
X115452174Y-55326373D01*
X115340373Y-55438174D01*
X115261313Y-55575111D01*
X115227285Y-55702111D01*
X115220392Y-55727835D01*
X106261392Y-55727835D01*
X106220470Y-55575111D01*
X106220469Y-55575110D01*
X106220469Y-55575108D01*
X106141412Y-55438176D01*
X106029608Y-55326372D01*
X105892676Y-55247315D01*
X105892675Y-55247314D01*
X105892672Y-55247313D01*
X105739949Y-55206392D01*
X105581835Y-55206392D01*
X105429111Y-55247313D01*
X105292174Y-55326373D01*
X105180373Y-55438174D01*
X105101313Y-55575111D01*
X105067285Y-55702111D01*
X105060392Y-55727835D01*
X95974392Y-55727835D01*
X95933470Y-55575111D01*
X95933469Y-55575110D01*
X95933469Y-55575108D01*
X95854412Y-55438176D01*
X95742608Y-55326372D01*
X95605676Y-55247315D01*
X95605675Y-55247314D01*
X95605672Y-55247313D01*
X95452949Y-55206392D01*
X95294835Y-55206392D01*
X95142111Y-55247313D01*
X95005174Y-55326373D01*
X94893373Y-55438174D01*
X94814314Y-55575110D01*
X94801280Y-55623753D01*
X94766791Y-55673006D01*
X94708713Y-55688567D01*
X94654220Y-55663156D01*
X94640251Y-55644952D01*
X94618358Y-55607032D01*
X94618357Y-55607030D01*
X94557754Y-55546427D01*
X94483531Y-55503574D01*
X94483530Y-55503573D01*
X94483529Y-55503573D01*
X94400745Y-55481392D01*
X94315039Y-55481392D01*
X94232254Y-55503573D01*
X94158032Y-55546425D01*
X93970425Y-55734032D01*
X93927573Y-55808254D01*
X93905392Y-55891039D01*
X85813027Y-55891039D01*
X85814392Y-55885949D01*
X85814392Y-55727835D01*
X85807499Y-55702111D01*
X85773470Y-55575111D01*
X85773469Y-55575110D01*
X85773469Y-55575108D01*
X85694412Y-55438176D01*
X85582608Y-55326372D01*
X85445676Y-55247315D01*
X85445675Y-55247314D01*
X85445672Y-55247313D01*
X85292949Y-55206392D01*
X85134835Y-55206392D01*
X84982111Y-55247313D01*
X84845174Y-55326373D01*
X84733373Y-55438174D01*
X84654313Y-55575111D01*
X84620285Y-55702111D01*
X84613392Y-55727835D01*
X75781392Y-55727835D01*
X75740470Y-55575111D01*
X75740469Y-55575110D01*
X75740469Y-55575108D01*
X75661412Y-55438176D01*
X75549608Y-55326372D01*
X75412676Y-55247315D01*
X75412675Y-55247314D01*
X75412672Y-55247313D01*
X75259949Y-55206392D01*
X75101835Y-55206392D01*
X74949111Y-55247313D01*
X74812174Y-55326373D01*
X74700373Y-55438174D01*
X74621313Y-55575111D01*
X74587285Y-55702111D01*
X74580392Y-55727835D01*
X73561274Y-55727835D01*
X79861974Y-49427137D01*
X79916468Y-49401726D01*
X79924129Y-49401392D01*
X82371672Y-49401392D01*
X82428173Y-49421957D01*
X82443544Y-49440277D01*
X82443862Y-49440034D01*
X82447372Y-49444608D01*
X82559172Y-49556409D01*
X82559174Y-49556410D01*
X82559176Y-49556412D01*
X82696108Y-49635469D01*
X82696110Y-49635469D01*
X82696111Y-49635470D01*
X82848835Y-49676392D01*
X83006948Y-49676392D01*
X83006949Y-49676392D01*
X83159676Y-49635469D01*
X83296608Y-49556412D01*
X83408412Y-49444608D01*
X83487469Y-49307676D01*
X83528392Y-49154949D01*
X83528392Y-48996835D01*
X83487469Y-48844108D01*
X83408412Y-48707176D01*
X83296608Y-48595372D01*
X83159676Y-48516315D01*
X83159675Y-48516314D01*
X83159672Y-48516313D01*
X83006949Y-48475392D01*
X82848835Y-48475392D01*
X82696111Y-48516313D01*
X82559172Y-48595374D01*
X82447372Y-48707175D01*
X82443862Y-48711750D01*
X82442611Y-48710790D01*
X82401739Y-48745090D01*
X82371672Y-48750392D01*
X79710039Y-48750392D01*
X79627254Y-48772573D01*
X79553032Y-48815425D01*
X73172321Y-55196134D01*
X73117827Y-55221545D01*
X73059749Y-55205982D01*
X73025261Y-55156729D01*
X73022267Y-55134285D01*
X72981454Y-43181428D01*
X84725392Y-43181428D01*
X84725392Y-43388355D01*
X84765759Y-43591303D01*
X84765761Y-43591308D01*
X84765762Y-43591312D01*
X84844951Y-43782490D01*
X84844952Y-43782492D01*
X84844953Y-43782493D01*
X84959911Y-43954542D01*
X84959912Y-43954543D01*
X84959915Y-43954547D01*
X85106237Y-44100869D01*
X85278294Y-44215833D01*
X85469472Y-44295022D01*
X85469477Y-44295023D01*
X85469480Y-44295024D01*
X85572324Y-44315480D01*
X85672427Y-44335392D01*
X85672429Y-44335392D01*
X85879355Y-44335392D01*
X85879357Y-44335392D01*
X86012228Y-44308962D01*
X86082303Y-44295024D01*
X86082304Y-44295023D01*
X86082312Y-44295022D01*
X86273490Y-44215833D01*
X86445547Y-44100869D01*
X86591869Y-43954547D01*
X86706833Y-43782490D01*
X86786022Y-43591312D01*
X86826392Y-43388357D01*
X86826392Y-43181427D01*
X86786022Y-42978472D01*
X86706833Y-42787294D01*
X86591869Y-42615237D01*
X86445547Y-42468915D01*
X86445543Y-42468912D01*
X86445542Y-42468911D01*
X86391665Y-42432912D01*
X86288747Y-42364145D01*
X110125392Y-42364145D01*
X110125392Y-44103638D01*
X110137025Y-44162124D01*
X110172911Y-44215830D01*
X110181340Y-44228444D01*
X110181343Y-44228446D01*
X110247659Y-44272758D01*
X110247661Y-44272759D01*
X110306144Y-44284392D01*
X110306146Y-44284392D01*
X112045638Y-44284392D01*
X112045640Y-44284392D01*
X112104123Y-44272759D01*
X112170444Y-44228444D01*
X112214759Y-44162123D01*
X112226392Y-44103640D01*
X112226392Y-42364144D01*
X112214759Y-42305661D01*
X112170444Y-42239340D01*
X112163039Y-42234392D01*
X112104124Y-42195025D01*
X112084628Y-42191147D01*
X112045640Y-42183392D01*
X110306144Y-42183392D01*
X110276902Y-42189208D01*
X110247659Y-42195025D01*
X110181343Y-42239337D01*
X110181337Y-42239343D01*
X110137025Y-42305659D01*
X110137025Y-42305661D01*
X110126779Y-42357174D01*
X110125392Y-42364145D01*
X86288747Y-42364145D01*
X86273493Y-42353953D01*
X86273492Y-42353952D01*
X86273490Y-42353951D01*
X86082312Y-42274762D01*
X86082308Y-42274761D01*
X86082303Y-42274759D01*
X85929576Y-42244381D01*
X85879357Y-42234392D01*
X85672427Y-42234392D01*
X85627736Y-42243281D01*
X85469480Y-42274759D01*
X85469475Y-42274761D01*
X85469473Y-42274761D01*
X85469472Y-42274762D01*
X85278294Y-42353951D01*
X85278292Y-42353951D01*
X85278290Y-42353953D01*
X85106241Y-42468911D01*
X84959911Y-42615241D01*
X84844953Y-42787290D01*
X84844951Y-42787292D01*
X84844951Y-42787294D01*
X84837638Y-42804949D01*
X84765761Y-42978475D01*
X84765759Y-42978480D01*
X84725392Y-43181428D01*
X72981454Y-43181428D01*
X72960681Y-37097790D01*
X72959870Y-37080245D01*
X72958536Y-37065281D01*
X72931815Y-36980776D01*
X72901751Y-36928705D01*
X72876904Y-36895902D01*
X72870896Y-36887971D01*
X72870890Y-36887966D01*
X72794071Y-36838351D01*
X72794064Y-36838348D01*
X72737574Y-36817787D01*
X72737558Y-36817783D01*
X72667293Y-36805393D01*
X72667286Y-36805392D01*
X72667283Y-36805392D01*
X67128083Y-36805392D01*
X67109817Y-36806205D01*
X67094266Y-36807592D01*
X67009169Y-36834662D01*
X66957192Y-36864908D01*
X66916566Y-36895900D01*
X66867210Y-36972894D01*
X66867206Y-36972903D01*
X66846837Y-37029465D01*
X66846837Y-37029467D01*
X66834684Y-37099791D01*
X66834684Y-37099799D01*
X66838638Y-38257355D01*
X66839771Y-38589135D01*
X66839838Y-38608674D01*
X66920045Y-62097755D01*
X66920112Y-62117192D01*
X66899741Y-62173763D01*
X66847772Y-62204004D01*
X66832213Y-62205392D01*
X65235792Y-62205392D01*
X65225944Y-62205821D01*
X65217878Y-62206173D01*
X65202624Y-62207507D01*
X65117779Y-62234258D01*
X65117772Y-62234261D01*
X65065707Y-62264322D01*
X65065706Y-62264322D01*
X65024971Y-62295178D01*
X65024966Y-62295184D01*
X64975351Y-62372003D01*
X64975348Y-62372010D01*
X64954787Y-62428500D01*
X64954783Y-62428516D01*
X64942393Y-62498781D01*
X64942392Y-62498789D01*
X61289392Y-62498789D01*
X61289392Y-55727835D01*
X64420392Y-55727835D01*
X64420392Y-55885949D01*
X64421756Y-55891039D01*
X64461313Y-56038672D01*
X64461314Y-56038673D01*
X64461315Y-56038676D01*
X64540372Y-56175608D01*
X64652176Y-56287412D01*
X64789108Y-56366469D01*
X64789110Y-56366469D01*
X64789111Y-56366470D01*
X64941835Y-56407392D01*
X65099950Y-56407392D01*
X65105662Y-56406640D01*
X65105867Y-56408200D01*
X65127819Y-56410121D01*
X65159019Y-56412847D01*
X65159025Y-56412851D01*
X65159028Y-56412852D01*
X65184035Y-56430361D01*
X65304647Y-56550973D01*
X65330058Y-56605467D01*
X65330392Y-56613128D01*
X65330392Y-60203671D01*
X65309827Y-60260172D01*
X65291507Y-60275546D01*
X65291750Y-60275862D01*
X65287175Y-60279372D01*
X65175374Y-60391172D01*
X65096313Y-60528111D01*
X65055392Y-60680835D01*
X65055392Y-60838948D01*
X65096313Y-60991672D01*
X65096314Y-60991675D01*
X65096315Y-60991676D01*
X65175372Y-61128608D01*
X65287176Y-61240412D01*
X65424108Y-61319469D01*
X65424110Y-61319469D01*
X65424111Y-61319470D01*
X65576835Y-61360392D01*
X65734948Y-61360392D01*
X65734949Y-61360392D01*
X65887676Y-61319469D01*
X66024608Y-61240412D01*
X66136412Y-61128608D01*
X66215469Y-60991676D01*
X66256392Y-60838949D01*
X66256392Y-60680835D01*
X66215469Y-60528108D01*
X66136412Y-60391176D01*
X66136410Y-60391174D01*
X66136409Y-60391172D01*
X66024608Y-60279372D01*
X66020034Y-60275862D01*
X66020991Y-60274614D01*
X65986689Y-60233723D01*
X65981392Y-60203671D01*
X65981392Y-56491837D01*
X65981393Y-56491824D01*
X65981393Y-56399040D01*
X65976498Y-56380772D01*
X65959210Y-56316254D01*
X65959206Y-56316247D01*
X65954691Y-56308426D01*
X65954690Y-56308426D01*
X65916357Y-56242030D01*
X65916355Y-56242028D01*
X65916354Y-56242026D01*
X65852685Y-56178358D01*
X65852684Y-56178358D01*
X65644361Y-55970035D01*
X65618950Y-55915541D01*
X65621036Y-55891714D01*
X65620640Y-55891662D01*
X65621392Y-55885950D01*
X65621392Y-55727835D01*
X65580470Y-55575111D01*
X65580469Y-55575110D01*
X65580469Y-55575108D01*
X65501412Y-55438176D01*
X65389608Y-55326372D01*
X65252676Y-55247315D01*
X65252675Y-55247314D01*
X65252672Y-55247313D01*
X65099949Y-55206392D01*
X64941835Y-55206392D01*
X64789111Y-55247313D01*
X64652174Y-55326373D01*
X64540373Y-55438174D01*
X64461313Y-55575111D01*
X64427285Y-55702111D01*
X64420392Y-55727835D01*
X61289392Y-55727835D01*
X61289392Y-47258792D01*
X61288611Y-47240887D01*
X61287276Y-47225623D01*
X61260524Y-47140776D01*
X61230460Y-47088705D01*
X61205069Y-47055184D01*
X61199605Y-47047971D01*
X61199599Y-47047966D01*
X61122780Y-46998351D01*
X61122773Y-46998348D01*
X61066283Y-46977787D01*
X61066267Y-46977783D01*
X60996002Y-46965393D01*
X60995995Y-46965392D01*
X60995992Y-46965392D01*
X57996792Y-46965392D01*
X57986944Y-46965821D01*
X57978878Y-46966173D01*
X57963624Y-46967507D01*
X57878779Y-46994258D01*
X57878772Y-46994261D01*
X57826707Y-47024322D01*
X57826706Y-47024322D01*
X57785971Y-47055178D01*
X57785966Y-47055184D01*
X57736351Y-47132003D01*
X57736348Y-47132010D01*
X57715787Y-47188500D01*
X57715783Y-47188516D01*
X57703393Y-47258781D01*
X57703392Y-47258797D01*
X57703392Y-47486120D01*
X57703756Y-47498356D01*
X57704377Y-47508782D01*
X57726117Y-47589271D01*
X57753242Y-47642927D01*
X57753245Y-47642932D01*
X57781792Y-47685317D01*
X57781795Y-47685320D01*
X57855745Y-47739123D01*
X57855746Y-47739123D01*
X57855747Y-47739124D01*
X57911020Y-47762793D01*
X57960139Y-47776914D01*
X58051376Y-47770594D01*
X58051377Y-47770593D01*
X58053523Y-47770445D01*
X58111310Y-47787056D01*
X58144900Y-47836926D01*
X58141307Y-47885088D01*
X58141714Y-47885169D01*
X58141053Y-47888490D01*
X58140809Y-47891766D01*
X58140025Y-47893657D01*
X58128392Y-47952145D01*
X58128392Y-48482624D01*
X58107827Y-48539125D01*
X58055756Y-48569189D01*
X57996542Y-48558748D01*
X57957893Y-48512688D01*
X57956790Y-48509026D01*
X57956717Y-48509050D01*
X57889987Y-48303676D01*
X57889984Y-48303669D01*
X57793514Y-48114337D01*
X57754162Y-48060174D01*
X57121854Y-48692481D01*
X57104817Y-48628899D01*
X57038991Y-48514885D01*
X56945899Y-48421793D01*
X56831885Y-48355967D01*
X56768299Y-48338928D01*
X57400608Y-47706620D01*
X57346445Y-47667269D01*
X57157114Y-47570799D01*
X57157107Y-47570796D01*
X56955016Y-47505133D01*
X56745137Y-47471892D01*
X56532647Y-47471892D01*
X56322767Y-47505133D01*
X56120676Y-47570796D01*
X56120669Y-47570799D01*
X55931346Y-47667264D01*
X55931337Y-47667269D01*
X55877174Y-47706620D01*
X56509483Y-48338929D01*
X56445899Y-48355967D01*
X56331885Y-48421793D01*
X56238793Y-48514885D01*
X56172967Y-48628899D01*
X56155929Y-48692483D01*
X55523620Y-48060174D01*
X55484269Y-48114337D01*
X55484266Y-48114341D01*
X55447210Y-48187068D01*
X55403235Y-48228074D01*
X55343191Y-48231220D01*
X55295171Y-48195034D01*
X55290571Y-48187067D01*
X55253510Y-48114332D01*
X55214162Y-48060174D01*
X54581854Y-48692481D01*
X54564817Y-48628899D01*
X54498991Y-48514885D01*
X54405899Y-48421793D01*
X54291885Y-48355967D01*
X54228299Y-48338928D01*
X54860608Y-47706620D01*
X54806445Y-47667269D01*
X54617114Y-47570799D01*
X54617107Y-47570796D01*
X54415016Y-47505133D01*
X54205137Y-47471892D01*
X53992647Y-47471892D01*
X53782767Y-47505133D01*
X53580676Y-47570796D01*
X53580669Y-47570799D01*
X53391346Y-47667264D01*
X53391337Y-47667269D01*
X53337174Y-47706620D01*
X53969483Y-48338929D01*
X53905899Y-48355967D01*
X53791885Y-48421793D01*
X53698793Y-48514885D01*
X53632967Y-48628899D01*
X53615929Y-48692483D01*
X52983620Y-48060174D01*
X52944269Y-48114337D01*
X52944264Y-48114346D01*
X52847799Y-48303669D01*
X52847796Y-48303676D01*
X52782133Y-48505767D01*
X52763809Y-48621461D01*
X52734658Y-48674049D01*
X52678525Y-48695597D01*
X52621673Y-48676021D01*
X52590780Y-48624858D01*
X52569024Y-48515480D01*
X52569023Y-48515477D01*
X52569022Y-48515472D01*
X52489833Y-48324294D01*
X52398142Y-48187068D01*
X52374872Y-48152241D01*
X52374871Y-48152240D01*
X52374869Y-48152237D01*
X52228547Y-48005915D01*
X52228543Y-48005912D01*
X52228542Y-48005911D01*
X52056493Y-47890953D01*
X52056492Y-47890952D01*
X52056490Y-47890951D01*
X51865312Y-47811762D01*
X51865308Y-47811761D01*
X51865303Y-47811759D01*
X51712576Y-47781381D01*
X51662357Y-47771392D01*
X51455427Y-47771392D01*
X51410736Y-47780281D01*
X51252480Y-47811759D01*
X51252475Y-47811761D01*
X51252473Y-47811761D01*
X51252472Y-47811762D01*
X51061294Y-47890951D01*
X51061292Y-47890951D01*
X51061290Y-47890953D01*
X50889241Y-48005911D01*
X50742911Y-48152241D01*
X50627953Y-48324290D01*
X50627951Y-48324292D01*
X50627951Y-48324294D01*
X50568286Y-48468337D01*
X50548761Y-48515475D01*
X50548759Y-48515480D01*
X50508392Y-48718428D01*
X50508392Y-48925355D01*
X50548759Y-49128303D01*
X50548761Y-49128308D01*
X50548762Y-49128312D01*
X50627951Y-49319490D01*
X50627952Y-49319492D01*
X50627953Y-49319493D01*
X50742911Y-49491542D01*
X50742912Y-49491543D01*
X50742915Y-49491547D01*
X50889237Y-49637869D01*
X51061294Y-49752833D01*
X51252472Y-49832022D01*
X51252477Y-49832023D01*
X51252480Y-49832024D01*
X51355324Y-49852480D01*
X51455427Y-49872392D01*
X51455429Y-49872392D01*
X51662355Y-49872392D01*
X51662357Y-49872392D01*
X51795228Y-49845962D01*
X51865303Y-49832024D01*
X51865304Y-49832023D01*
X51865312Y-49832022D01*
X52056490Y-49752833D01*
X52228547Y-49637869D01*
X52374869Y-49491547D01*
X52489833Y-49319490D01*
X52569022Y-49128312D01*
X52590780Y-49018924D01*
X52621972Y-48967522D01*
X52678908Y-48948194D01*
X52734947Y-48969986D01*
X52763809Y-49022322D01*
X52782133Y-49138016D01*
X52847796Y-49340107D01*
X52847799Y-49340114D01*
X52944269Y-49529445D01*
X52983620Y-49583608D01*
X53615928Y-48951299D01*
X53632967Y-49014885D01*
X53698793Y-49128899D01*
X53791885Y-49221991D01*
X53905899Y-49287817D01*
X53969481Y-49304854D01*
X53337174Y-49937162D01*
X53337173Y-49937162D01*
X53391337Y-49976514D01*
X53391336Y-49976514D01*
X53580669Y-50072984D01*
X53580676Y-50072987D01*
X53782767Y-50138650D01*
X53992647Y-50171892D01*
X54205137Y-50171892D01*
X54415016Y-50138650D01*
X54617107Y-50072987D01*
X54617114Y-50072984D01*
X54806446Y-49976514D01*
X54860608Y-49937162D01*
X54228300Y-49304854D01*
X54291885Y-49287817D01*
X54405899Y-49221991D01*
X54498991Y-49128899D01*
X54564817Y-49014885D01*
X54581854Y-48951300D01*
X55214162Y-49583608D01*
X55253511Y-49529451D01*
X55290572Y-49456715D01*
X55334547Y-49415709D01*
X55394591Y-49412562D01*
X55442611Y-49448747D01*
X55447212Y-49456715D01*
X55484272Y-49529450D01*
X55523620Y-49583608D01*
X56155928Y-48951299D01*
X56172967Y-49014885D01*
X56238793Y-49128899D01*
X56331885Y-49221991D01*
X56445899Y-49287817D01*
X56509481Y-49304854D01*
X55877174Y-49937162D01*
X55877173Y-49937162D01*
X55931337Y-49976514D01*
X55931336Y-49976514D01*
X56120669Y-50072984D01*
X56120676Y-50072987D01*
X56322767Y-50138650D01*
X56532647Y-50171892D01*
X56745137Y-50171892D01*
X56955016Y-50138650D01*
X57157107Y-50072987D01*
X57157114Y-50072984D01*
X57346446Y-49976514D01*
X57400608Y-49937162D01*
X56768300Y-49304854D01*
X56831885Y-49287817D01*
X56945899Y-49221991D01*
X57038991Y-49128899D01*
X57104817Y-49014885D01*
X57121854Y-48951300D01*
X57754162Y-49583608D01*
X57793514Y-49529446D01*
X57889984Y-49340114D01*
X57889987Y-49340107D01*
X57956717Y-49134734D01*
X57958535Y-49135324D01*
X57988213Y-49090496D01*
X58045865Y-49073423D01*
X58101003Y-49097403D01*
X58127828Y-49151215D01*
X58128392Y-49161159D01*
X58128392Y-49691638D01*
X58140025Y-49750126D01*
X58141385Y-49753409D01*
X58141583Y-49757957D01*
X58141714Y-49758615D01*
X58141612Y-49758635D01*
X58144003Y-49813479D01*
X58107396Y-49861178D01*
X58048693Y-49874187D01*
X58044908Y-49873604D01*
X58017229Y-49868723D01*
X58017216Y-49868721D01*
X57966169Y-49866174D01*
X57878781Y-49893130D01*
X57878775Y-49893132D01*
X57826707Y-49923194D01*
X57826706Y-49923194D01*
X57785971Y-49954050D01*
X57785966Y-49954056D01*
X57736351Y-50030875D01*
X57736348Y-50030882D01*
X57715787Y-50087372D01*
X57715783Y-50087388D01*
X57703393Y-50157653D01*
X57703392Y-50157669D01*
X57703392Y-61863492D01*
X57682827Y-61919993D01*
X57630756Y-61950057D01*
X57615492Y-61951392D01*
X53587535Y-61951392D01*
X53578614Y-61951586D01*
X53578595Y-61951586D01*
X53578587Y-61951587D01*
X53570926Y-61951921D01*
X53570922Y-61951921D01*
X53570920Y-61951922D01*
X53570916Y-61951922D01*
X53493029Y-61970979D01*
X53438532Y-61996392D01*
X53380068Y-62037330D01*
X53333613Y-62083785D01*
X53315409Y-62097754D01*
X53245376Y-62138187D01*
X53224177Y-62146968D01*
X53167806Y-62162073D01*
X53146070Y-62167897D01*
X53123321Y-62170892D01*
X53042463Y-62170892D01*
X53019713Y-62167897D01*
X52941606Y-62146968D01*
X52920406Y-62138187D01*
X52850375Y-62097755D01*
X52832171Y-62083786D01*
X52785722Y-62037338D01*
X52779232Y-62031124D01*
X52778747Y-62030680D01*
X52773567Y-62025934D01*
X52705033Y-61984351D01*
X52648532Y-61963786D01*
X52648521Y-61963783D01*
X52578256Y-61951393D01*
X52578249Y-61951392D01*
X52578246Y-61951392D01*
X42792538Y-61951392D01*
X42792535Y-61951392D01*
X42783614Y-61951586D01*
X42783595Y-61951586D01*
X42783587Y-61951587D01*
X42775926Y-61951921D01*
X42775922Y-61951921D01*
X42775920Y-61951922D01*
X42775916Y-61951922D01*
X42698029Y-61970979D01*
X42643532Y-61996392D01*
X42585068Y-62037330D01*
X42538613Y-62083785D01*
X42520409Y-62097754D01*
X42450376Y-62138187D01*
X42429177Y-62146968D01*
X42372806Y-62162073D01*
X42351070Y-62167897D01*
X42328321Y-62170892D01*
X42247463Y-62170892D01*
X42224713Y-62167897D01*
X42146606Y-62146968D01*
X42125406Y-62138187D01*
X42055375Y-62097755D01*
X42037171Y-62083786D01*
X41990722Y-62037338D01*
X41984232Y-62031124D01*
X41983747Y-62030680D01*
X41978567Y-62025934D01*
X41910033Y-61984351D01*
X41853532Y-61963786D01*
X41853521Y-61963783D01*
X41783256Y-61951393D01*
X41783249Y-61951392D01*
X41783246Y-61951392D01*
X32632538Y-61951392D01*
X32632535Y-61951392D01*
X32623614Y-61951586D01*
X32623595Y-61951586D01*
X32623587Y-61951587D01*
X32615926Y-61951921D01*
X32615922Y-61951921D01*
X32615920Y-61951922D01*
X32615916Y-61951922D01*
X32538029Y-61970979D01*
X32483532Y-61996392D01*
X32425068Y-62037330D01*
X32378613Y-62083785D01*
X32360409Y-62097754D01*
X32290376Y-62138187D01*
X32269177Y-62146968D01*
X32212806Y-62162073D01*
X32191070Y-62167897D01*
X32168321Y-62170892D01*
X32087463Y-62170892D01*
X32064713Y-62167897D01*
X31986606Y-62146968D01*
X31965406Y-62138187D01*
X31895375Y-62097755D01*
X31877171Y-62083786D01*
X31830722Y-62037338D01*
X31824232Y-62031124D01*
X31823747Y-62030680D01*
X31818567Y-62025934D01*
X31750033Y-61984351D01*
X31693532Y-61963786D01*
X31693521Y-61963783D01*
X31623256Y-61951393D01*
X31623249Y-61951392D01*
X31623246Y-61951392D01*
X21837538Y-61951392D01*
X21837535Y-61951392D01*
X21828614Y-61951586D01*
X21828595Y-61951586D01*
X21828587Y-61951587D01*
X21820926Y-61951921D01*
X21820922Y-61951921D01*
X21820920Y-61951922D01*
X21820916Y-61951922D01*
X21743029Y-61970979D01*
X21688532Y-61996392D01*
X21630068Y-62037330D01*
X21583613Y-62083785D01*
X21565409Y-62097754D01*
X21495376Y-62138187D01*
X21474177Y-62146968D01*
X21417806Y-62162073D01*
X21396070Y-62167897D01*
X21373321Y-62170892D01*
X21292463Y-62170892D01*
X21269713Y-62167897D01*
X21191606Y-62146968D01*
X21170406Y-62138187D01*
X21100375Y-62097755D01*
X21082171Y-62083786D01*
X21035722Y-62037338D01*
X21029232Y-62031124D01*
X21028747Y-62030680D01*
X21023567Y-62025934D01*
X20955033Y-61984351D01*
X20898532Y-61963786D01*
X20898521Y-61963783D01*
X20828256Y-61951393D01*
X20828249Y-61951392D01*
X20828246Y-61951392D01*
X15578792Y-61951392D01*
X15568944Y-61951821D01*
X15560878Y-61952173D01*
X15545624Y-61953507D01*
X15460779Y-61980258D01*
X15460772Y-61980261D01*
X15408707Y-62010322D01*
X15408706Y-62010322D01*
X15367971Y-62041178D01*
X15367966Y-62041184D01*
X15318351Y-62118003D01*
X15318348Y-62118010D01*
X15297787Y-62174500D01*
X15297783Y-62174516D01*
X15285393Y-62244781D01*
X15285392Y-62244789D01*
X13967392Y-62244789D01*
X13967392Y-55854835D01*
X19462392Y-55854835D01*
X19462392Y-56012949D01*
X19469285Y-56038673D01*
X19503313Y-56165672D01*
X19503314Y-56165675D01*
X19503315Y-56165676D01*
X19582372Y-56302608D01*
X19694176Y-56414412D01*
X19831108Y-56493469D01*
X19831110Y-56493469D01*
X19831111Y-56493470D01*
X19983835Y-56534392D01*
X20141946Y-56534392D01*
X20141949Y-56534392D01*
X20141951Y-56534391D01*
X20146016Y-56533856D01*
X20204718Y-56546868D01*
X20241323Y-56594569D01*
X20245392Y-56621004D01*
X20245392Y-60203671D01*
X20224827Y-60260172D01*
X20206507Y-60275546D01*
X20206750Y-60275862D01*
X20202175Y-60279372D01*
X20090374Y-60391172D01*
X20011313Y-60528111D01*
X19970392Y-60680835D01*
X19970392Y-60838948D01*
X20011313Y-60991672D01*
X20011314Y-60991675D01*
X20011315Y-60991676D01*
X20090372Y-61128608D01*
X20202176Y-61240412D01*
X20339108Y-61319469D01*
X20339110Y-61319469D01*
X20339111Y-61319470D01*
X20491835Y-61360392D01*
X20649948Y-61360392D01*
X20649949Y-61360392D01*
X20802676Y-61319469D01*
X20939608Y-61240412D01*
X21051412Y-61128608D01*
X21130469Y-60991676D01*
X21171392Y-60838949D01*
X21171392Y-60680835D01*
X21130469Y-60528108D01*
X21051412Y-60391176D01*
X21051410Y-60391174D01*
X21051409Y-60391172D01*
X20939608Y-60279372D01*
X20935034Y-60275862D01*
X20935991Y-60274614D01*
X20901689Y-60233723D01*
X20896392Y-60203671D01*
X20896392Y-56399039D01*
X20874211Y-56316257D01*
X20874210Y-56316256D01*
X20874210Y-56316254D01*
X20831357Y-56242030D01*
X20770754Y-56181427D01*
X20686361Y-56097034D01*
X20660950Y-56042540D01*
X20663036Y-56018714D01*
X20662640Y-56018662D01*
X20663392Y-56012950D01*
X20663392Y-55854835D01*
X20633915Y-55744824D01*
X20629363Y-55727835D01*
X29749392Y-55727835D01*
X29749392Y-55885949D01*
X29750756Y-55891039D01*
X29790313Y-56038672D01*
X29790314Y-56038673D01*
X29790315Y-56038676D01*
X29869372Y-56175608D01*
X29981176Y-56287412D01*
X30118108Y-56366469D01*
X30118110Y-56366469D01*
X30118111Y-56366470D01*
X30270835Y-56407392D01*
X30428946Y-56407392D01*
X30428949Y-56407392D01*
X30428951Y-56407391D01*
X30433016Y-56406856D01*
X30491718Y-56419868D01*
X30528323Y-56467569D01*
X30532392Y-56494004D01*
X30532392Y-60203671D01*
X30511827Y-60260172D01*
X30493507Y-60275546D01*
X30493750Y-60275862D01*
X30489175Y-60279372D01*
X30377374Y-60391172D01*
X30298313Y-60528111D01*
X30257392Y-60680835D01*
X30257392Y-60838948D01*
X30298313Y-60991672D01*
X30298314Y-60991675D01*
X30298315Y-60991676D01*
X30377372Y-61128608D01*
X30489176Y-61240412D01*
X30626108Y-61319469D01*
X30626110Y-61319469D01*
X30626111Y-61319470D01*
X30778835Y-61360392D01*
X30936948Y-61360392D01*
X30936949Y-61360392D01*
X31089676Y-61319469D01*
X31226608Y-61240412D01*
X31338412Y-61128608D01*
X31417469Y-60991676D01*
X31458392Y-60838949D01*
X31458392Y-60680835D01*
X31417469Y-60528108D01*
X31338412Y-60391176D01*
X31338410Y-60391174D01*
X31338409Y-60391172D01*
X31226608Y-60279372D01*
X31222034Y-60275862D01*
X31222991Y-60274614D01*
X31188689Y-60233723D01*
X31183392Y-60203671D01*
X31183392Y-56272039D01*
X31161211Y-56189257D01*
X31161210Y-56189256D01*
X31161210Y-56189254D01*
X31118357Y-56115030D01*
X31057754Y-56054427D01*
X30973361Y-55970034D01*
X30947950Y-55915540D01*
X30950036Y-55891714D01*
X30949640Y-55891662D01*
X30950392Y-55885950D01*
X30950392Y-55727835D01*
X40290392Y-55727835D01*
X40290392Y-55885949D01*
X40291756Y-55891039D01*
X40331313Y-56038672D01*
X40331314Y-56038673D01*
X40331315Y-56038676D01*
X40410372Y-56175608D01*
X40522176Y-56287412D01*
X40659108Y-56366469D01*
X40659110Y-56366469D01*
X40659111Y-56366470D01*
X40811835Y-56407392D01*
X40969950Y-56407392D01*
X40975662Y-56406640D01*
X40975867Y-56408200D01*
X40997819Y-56410121D01*
X41029019Y-56412847D01*
X41029025Y-56412851D01*
X41029028Y-56412852D01*
X41054035Y-56430361D01*
X41174647Y-56550973D01*
X41200058Y-56605467D01*
X41200392Y-56613128D01*
X41200392Y-60203671D01*
X41179827Y-60260172D01*
X41161507Y-60275546D01*
X41161750Y-60275862D01*
X41157175Y-60279372D01*
X41045374Y-60391172D01*
X40966313Y-60528111D01*
X40925392Y-60680835D01*
X40925392Y-60838948D01*
X40966313Y-60991672D01*
X40966314Y-60991675D01*
X40966315Y-60991676D01*
X41045372Y-61128608D01*
X41157176Y-61240412D01*
X41294108Y-61319469D01*
X41294110Y-61319469D01*
X41294111Y-61319470D01*
X41446835Y-61360392D01*
X41604948Y-61360392D01*
X41604949Y-61360392D01*
X41757676Y-61319469D01*
X41894608Y-61240412D01*
X42006412Y-61128608D01*
X42085469Y-60991676D01*
X42126392Y-60838949D01*
X42126392Y-60680835D01*
X42085469Y-60528108D01*
X42006412Y-60391176D01*
X42006410Y-60391174D01*
X42006409Y-60391172D01*
X41894608Y-60279372D01*
X41890034Y-60275862D01*
X41890991Y-60274614D01*
X41856689Y-60233723D01*
X41851392Y-60203671D01*
X41851392Y-56491837D01*
X41851393Y-56491824D01*
X41851393Y-56399040D01*
X41846498Y-56380772D01*
X41829210Y-56316254D01*
X41829206Y-56316247D01*
X41824691Y-56308426D01*
X41824690Y-56308426D01*
X41786357Y-56242030D01*
X41786355Y-56242028D01*
X41786354Y-56242026D01*
X41722685Y-56178358D01*
X41722684Y-56178358D01*
X41514361Y-55970035D01*
X41488950Y-55915541D01*
X41491036Y-55891714D01*
X41490640Y-55891662D01*
X41491392Y-55885950D01*
X41491392Y-55727835D01*
X50577392Y-55727835D01*
X50577392Y-55885949D01*
X50578756Y-55891039D01*
X50618313Y-56038672D01*
X50618314Y-56038673D01*
X50618315Y-56038676D01*
X50697372Y-56175608D01*
X50809176Y-56287412D01*
X50946108Y-56366469D01*
X50946110Y-56366469D01*
X50946111Y-56366470D01*
X51098835Y-56407392D01*
X51256950Y-56407392D01*
X51262662Y-56406640D01*
X51262867Y-56408203D01*
X51316019Y-56412847D01*
X51341035Y-56430361D01*
X51588647Y-56677973D01*
X51614058Y-56732467D01*
X51614392Y-56740128D01*
X51614392Y-60203671D01*
X51593827Y-60260172D01*
X51575507Y-60275546D01*
X51575750Y-60275862D01*
X51571175Y-60279372D01*
X51459374Y-60391172D01*
X51380313Y-60528111D01*
X51339392Y-60680835D01*
X51339392Y-60838948D01*
X51380313Y-60991672D01*
X51380314Y-60991675D01*
X51380315Y-60991676D01*
X51459372Y-61128608D01*
X51571176Y-61240412D01*
X51708108Y-61319469D01*
X51708110Y-61319469D01*
X51708111Y-61319470D01*
X51860835Y-61360392D01*
X52018948Y-61360392D01*
X52018949Y-61360392D01*
X52171676Y-61319469D01*
X52308608Y-61240412D01*
X52420412Y-61128608D01*
X52499469Y-60991676D01*
X52540392Y-60838949D01*
X52540392Y-60680835D01*
X52499469Y-60528108D01*
X52420412Y-60391176D01*
X52420410Y-60391174D01*
X52420409Y-60391172D01*
X52308608Y-60279372D01*
X52304034Y-60275862D01*
X52304991Y-60274614D01*
X52270689Y-60233723D01*
X52265392Y-60203671D01*
X52265392Y-56618837D01*
X52265393Y-56618824D01*
X52265393Y-56526038D01*
X52243210Y-56443251D01*
X52225545Y-56412657D01*
X52225543Y-56412655D01*
X52221783Y-56406142D01*
X52200357Y-56369030D01*
X52139754Y-56308427D01*
X52139751Y-56308425D01*
X51801361Y-55970035D01*
X51775950Y-55915541D01*
X51778036Y-55891714D01*
X51777640Y-55891662D01*
X51778392Y-55885950D01*
X51778392Y-55727835D01*
X51737470Y-55575111D01*
X51737469Y-55575110D01*
X51737469Y-55575108D01*
X51658412Y-55438176D01*
X51546608Y-55326372D01*
X51409676Y-55247315D01*
X51409675Y-55247314D01*
X51409672Y-55247313D01*
X51256949Y-55206392D01*
X51098835Y-55206392D01*
X50946111Y-55247313D01*
X50809174Y-55326373D01*
X50697373Y-55438174D01*
X50618313Y-55575111D01*
X50584285Y-55702111D01*
X50577392Y-55727835D01*
X41491392Y-55727835D01*
X41450470Y-55575111D01*
X41450469Y-55575110D01*
X41450469Y-55575108D01*
X41371412Y-55438176D01*
X41259608Y-55326372D01*
X41122676Y-55247315D01*
X41122675Y-55247314D01*
X41122672Y-55247313D01*
X40969949Y-55206392D01*
X40811835Y-55206392D01*
X40659111Y-55247313D01*
X40522174Y-55326373D01*
X40410373Y-55438174D01*
X40331313Y-55575111D01*
X40297285Y-55702111D01*
X40290392Y-55727835D01*
X30950392Y-55727835D01*
X30909470Y-55575111D01*
X30909469Y-55575110D01*
X30909469Y-55575108D01*
X30830412Y-55438176D01*
X30718608Y-55326372D01*
X30581676Y-55247315D01*
X30581675Y-55247314D01*
X30581672Y-55247313D01*
X30428949Y-55206392D01*
X30270835Y-55206392D01*
X30118111Y-55247313D01*
X29981174Y-55326373D01*
X29869373Y-55438174D01*
X29790313Y-55575111D01*
X29756285Y-55702111D01*
X29749392Y-55727835D01*
X20629363Y-55727835D01*
X20622470Y-55702111D01*
X20622469Y-55702110D01*
X20622469Y-55702108D01*
X20543412Y-55565176D01*
X20431608Y-55453372D01*
X20294676Y-55374315D01*
X20294675Y-55374314D01*
X20294672Y-55374313D01*
X20141949Y-55333392D01*
X19983835Y-55333392D01*
X19831111Y-55374313D01*
X19694174Y-55453373D01*
X19582373Y-55565174D01*
X19503313Y-55702111D01*
X19469470Y-55828418D01*
X19462392Y-55854835D01*
X13967392Y-55854835D01*
X13967392Y-48718428D01*
X45428392Y-48718428D01*
X45428392Y-48925355D01*
X45468759Y-49128303D01*
X45468761Y-49128308D01*
X45468762Y-49128312D01*
X45547951Y-49319490D01*
X45547952Y-49319492D01*
X45547953Y-49319493D01*
X45662911Y-49491542D01*
X45662912Y-49491543D01*
X45662915Y-49491547D01*
X45809237Y-49637869D01*
X45981294Y-49752833D01*
X46172472Y-49832022D01*
X46172477Y-49832023D01*
X46172480Y-49832024D01*
X46275324Y-49852480D01*
X46375427Y-49872392D01*
X46375429Y-49872392D01*
X46582355Y-49872392D01*
X46582357Y-49872392D01*
X46715228Y-49845962D01*
X46785303Y-49832024D01*
X46785304Y-49832023D01*
X46785312Y-49832022D01*
X46976490Y-49752833D01*
X47148547Y-49637869D01*
X47294869Y-49491547D01*
X47409833Y-49319490D01*
X47489022Y-49128312D01*
X47529392Y-48925357D01*
X47529392Y-48718428D01*
X47968392Y-48718428D01*
X47968392Y-48925355D01*
X48008759Y-49128303D01*
X48008761Y-49128308D01*
X48008762Y-49128312D01*
X48087951Y-49319490D01*
X48087952Y-49319492D01*
X48087953Y-49319493D01*
X48202911Y-49491542D01*
X48202912Y-49491543D01*
X48202915Y-49491547D01*
X48349237Y-49637869D01*
X48521294Y-49752833D01*
X48712472Y-49832022D01*
X48712477Y-49832023D01*
X48712480Y-49832024D01*
X48815324Y-49852480D01*
X48915427Y-49872392D01*
X48915429Y-49872392D01*
X49122355Y-49872392D01*
X49122357Y-49872392D01*
X49255228Y-49845962D01*
X49325303Y-49832024D01*
X49325304Y-49832023D01*
X49325312Y-49832022D01*
X49516490Y-49752833D01*
X49688547Y-49637869D01*
X49834869Y-49491547D01*
X49949833Y-49319490D01*
X50029022Y-49128312D01*
X50069392Y-48925357D01*
X50069392Y-48718427D01*
X50050104Y-48621461D01*
X50029024Y-48515480D01*
X50029023Y-48515477D01*
X50029022Y-48515472D01*
X49949833Y-48324294D01*
X49858142Y-48187068D01*
X49834872Y-48152241D01*
X49834871Y-48152240D01*
X49834869Y-48152237D01*
X49688547Y-48005915D01*
X49688543Y-48005912D01*
X49688542Y-48005911D01*
X49516493Y-47890953D01*
X49516492Y-47890952D01*
X49516490Y-47890951D01*
X49325312Y-47811762D01*
X49325308Y-47811761D01*
X49325303Y-47811759D01*
X49172576Y-47781381D01*
X49122357Y-47771392D01*
X48915427Y-47771392D01*
X48870736Y-47780281D01*
X48712480Y-47811759D01*
X48712475Y-47811761D01*
X48712473Y-47811761D01*
X48712472Y-47811762D01*
X48521294Y-47890951D01*
X48521292Y-47890951D01*
X48521290Y-47890953D01*
X48349241Y-48005911D01*
X48202911Y-48152241D01*
X48087953Y-48324290D01*
X48087951Y-48324292D01*
X48087951Y-48324294D01*
X48028286Y-48468337D01*
X48008761Y-48515475D01*
X48008759Y-48515480D01*
X47968392Y-48718428D01*
X47529392Y-48718428D01*
X47529392Y-48718427D01*
X47510104Y-48621461D01*
X47489024Y-48515480D01*
X47489023Y-48515477D01*
X47489022Y-48515472D01*
X47409833Y-48324294D01*
X47318142Y-48187068D01*
X47294872Y-48152241D01*
X47294871Y-48152240D01*
X47294869Y-48152237D01*
X47148547Y-48005915D01*
X47148543Y-48005912D01*
X47148542Y-48005911D01*
X46976493Y-47890953D01*
X46976492Y-47890952D01*
X46976490Y-47890951D01*
X46785312Y-47811762D01*
X46785308Y-47811761D01*
X46785303Y-47811759D01*
X46632576Y-47781381D01*
X46582357Y-47771392D01*
X46375427Y-47771392D01*
X46330736Y-47780281D01*
X46172480Y-47811759D01*
X46172475Y-47811761D01*
X46172473Y-47811761D01*
X46172472Y-47811762D01*
X45981294Y-47890951D01*
X45981292Y-47890951D01*
X45981290Y-47890953D01*
X45809241Y-48005911D01*
X45662911Y-48152241D01*
X45547953Y-48324290D01*
X45547951Y-48324292D01*
X45547951Y-48324294D01*
X45488286Y-48468337D01*
X45468761Y-48515475D01*
X45468759Y-48515480D01*
X45428392Y-48718428D01*
X13967392Y-48718428D01*
X13967392Y-42646835D01*
X50958392Y-42646835D01*
X50958392Y-42804948D01*
X50999313Y-42957672D01*
X50999314Y-42957675D01*
X50999315Y-42957676D01*
X51078372Y-43094608D01*
X51190176Y-43206412D01*
X51327108Y-43285469D01*
X51327110Y-43285469D01*
X51327111Y-43285470D01*
X51479835Y-43326392D01*
X51637948Y-43326392D01*
X51637949Y-43326392D01*
X51790676Y-43285469D01*
X51927608Y-43206412D01*
X52039412Y-43094608D01*
X52118469Y-42957676D01*
X52159392Y-42804949D01*
X52159392Y-42646835D01*
X52118469Y-42494108D01*
X52039412Y-42357176D01*
X51927608Y-42245372D01*
X51790676Y-42166315D01*
X51790675Y-42166314D01*
X51790672Y-42166313D01*
X51637949Y-42125392D01*
X51479835Y-42125392D01*
X51327111Y-42166313D01*
X51190174Y-42245373D01*
X51078373Y-42357174D01*
X50999313Y-42494111D01*
X50958392Y-42646835D01*
X13967392Y-42646835D01*
X13967392Y-40106835D01*
X41687392Y-40106835D01*
X41687392Y-40264948D01*
X41728313Y-40417672D01*
X41728314Y-40417675D01*
X41728315Y-40417676D01*
X41807372Y-40554608D01*
X41919176Y-40666412D01*
X42056108Y-40745469D01*
X42056110Y-40745469D01*
X42056111Y-40745470D01*
X42208835Y-40786392D01*
X42366948Y-40786392D01*
X42366949Y-40786392D01*
X42519676Y-40745469D01*
X42656608Y-40666412D01*
X42725738Y-40597282D01*
X42780231Y-40571871D01*
X42838310Y-40587432D01*
X42850048Y-40597281D01*
X42919179Y-40666412D01*
X43056111Y-40745469D01*
X43056113Y-40745469D01*
X43056114Y-40745470D01*
X43208838Y-40786392D01*
X43366951Y-40786392D01*
X43366952Y-40786392D01*
X43519679Y-40745469D01*
X43656611Y-40666412D01*
X43768415Y-40554608D01*
X43847472Y-40417676D01*
X43888395Y-40264949D01*
X43888395Y-40106835D01*
X43847472Y-39954108D01*
X43768415Y-39817176D01*
X43656611Y-39705372D01*
X43519679Y-39626315D01*
X43519678Y-39626314D01*
X43519675Y-39626313D01*
X43366952Y-39585392D01*
X43210847Y-39585392D01*
X43192814Y-39578828D01*
X43173698Y-39577156D01*
X43157979Y-39566149D01*
X43154346Y-39564827D01*
X43148692Y-39559646D01*
X43090137Y-39501090D01*
X43064726Y-39446596D01*
X43064392Y-39438936D01*
X43064392Y-34587933D01*
X64414803Y-34587933D01*
X64414803Y-34734850D01*
X64443461Y-34878927D01*
X64443462Y-34878931D01*
X64443463Y-34878934D01*
X64499683Y-35014661D01*
X64581302Y-35136812D01*
X64685183Y-35240693D01*
X64807334Y-35322312D01*
X64943061Y-35378532D01*
X65087148Y-35407192D01*
X65160103Y-35407192D01*
X65160103Y-35581741D01*
X65160103Y-35835542D01*
X65139538Y-35892043D01*
X65089351Y-35921753D01*
X64943068Y-35950850D01*
X64943055Y-35950854D01*
X64893688Y-35971303D01*
X64807334Y-36007072D01*
X64807333Y-36007073D01*
X64685185Y-36088689D01*
X64581300Y-36192574D01*
X64526889Y-36274006D01*
X64499683Y-36314723D01*
X64491474Y-36334542D01*
X64443465Y-36450444D01*
X64443461Y-36450456D01*
X64414803Y-36594533D01*
X64414803Y-36741450D01*
X64443461Y-36885527D01*
X64443462Y-36885531D01*
X64443463Y-36885534D01*
X64499683Y-37021261D01*
X64581302Y-37143412D01*
X64685183Y-37247293D01*
X64807334Y-37328912D01*
X64943061Y-37385132D01*
X64962060Y-37388911D01*
X65087145Y-37413792D01*
X65087148Y-37413792D01*
X65234061Y-37413792D01*
X65320984Y-37396501D01*
X65378145Y-37385132D01*
X65513872Y-37328912D01*
X65636023Y-37247293D01*
X65739904Y-37143412D01*
X65821523Y-37021261D01*
X65877743Y-36885534D01*
X65893684Y-36805392D01*
X65906403Y-36741450D01*
X65906403Y-36594533D01*
X65877744Y-36450456D01*
X65877743Y-36450450D01*
X65821523Y-36314723D01*
X65739904Y-36192572D01*
X65636023Y-36088691D01*
X65513872Y-36007072D01*
X65378145Y-35950852D01*
X65378140Y-35950851D01*
X65378137Y-35950850D01*
X65231855Y-35921753D01*
X65180451Y-35890561D01*
X65161103Y-35835542D01*
X65161103Y-35581741D01*
X65161103Y-35407192D01*
X65234058Y-35407192D01*
X65378145Y-35378532D01*
X65513872Y-35322312D01*
X65636023Y-35240693D01*
X65739904Y-35136812D01*
X65821523Y-35014661D01*
X65877743Y-34878934D01*
X65893859Y-34797911D01*
X65906403Y-34734850D01*
X65906403Y-34587933D01*
X65877744Y-34443856D01*
X65877743Y-34443850D01*
X65821523Y-34308123D01*
X65739904Y-34185972D01*
X65636023Y-34082091D01*
X65513872Y-34000472D01*
X65378145Y-33944252D01*
X65378142Y-33944251D01*
X65378138Y-33944250D01*
X65234061Y-33915592D01*
X65234058Y-33915592D01*
X65087148Y-33915592D01*
X65087145Y-33915592D01*
X64943067Y-33944250D01*
X64943055Y-33944254D01*
X64881561Y-33969725D01*
X64807334Y-34000472D01*
X64766617Y-34027678D01*
X64685185Y-34082089D01*
X64581300Y-34185974D01*
X64547337Y-34236804D01*
X64499683Y-34308123D01*
X64468936Y-34382350D01*
X64443465Y-34443844D01*
X64443461Y-34443856D01*
X64414803Y-34587933D01*
X43064392Y-34587933D01*
X43064392Y-31111998D01*
X66850500Y-31111998D01*
X66850500Y-33912006D01*
X66855195Y-33955673D01*
X66855196Y-33955680D01*
X66855197Y-33955684D01*
X66866403Y-34007195D01*
X66868890Y-34017373D01*
X66868891Y-34017376D01*
X66911899Y-34098084D01*
X66957643Y-34150876D01*
X66957653Y-34150887D01*
X66957655Y-34150889D01*
X66975246Y-34168843D01*
X67055063Y-34213490D01*
X67122102Y-34233175D01*
X67180000Y-34241500D01*
X72520001Y-34241500D01*
X72520002Y-34241499D01*
X72563684Y-34236803D01*
X72615195Y-34225597D01*
X72625373Y-34223110D01*
X72706085Y-34180100D01*
X72758889Y-34134345D01*
X72776843Y-34116754D01*
X72821490Y-34036937D01*
X72841175Y-33969898D01*
X72849500Y-33912000D01*
X72849500Y-31112000D01*
X72844803Y-31068316D01*
X72833597Y-31016805D01*
X72831110Y-31006627D01*
X72788100Y-30925915D01*
X72771923Y-30907246D01*
X72742356Y-30873123D01*
X72742346Y-30873112D01*
X72742010Y-30872769D01*
X72724754Y-30855157D01*
X72724751Y-30855155D01*
X72644945Y-30810514D01*
X72644940Y-30810511D01*
X72644937Y-30810510D01*
X72644934Y-30810509D01*
X72577903Y-30790826D01*
X72577899Y-30790825D01*
X72520001Y-30782500D01*
X72520000Y-30782500D01*
X67180000Y-30782500D01*
X67179993Y-30782500D01*
X67136326Y-30787195D01*
X67136317Y-30787196D01*
X67136316Y-30787197D01*
X67084805Y-30798403D01*
X67074627Y-30800890D01*
X67074623Y-30800891D01*
X66993915Y-30843899D01*
X66941123Y-30889643D01*
X66941112Y-30889653D01*
X66923155Y-30907247D01*
X66923155Y-30907248D01*
X66878514Y-30987054D01*
X66878509Y-30987065D01*
X66858826Y-31054096D01*
X66858825Y-31054100D01*
X66850500Y-31111998D01*
X43064392Y-31111998D01*
X43064392Y-26573939D01*
X43084957Y-26517438D01*
X43090137Y-26511784D01*
X45123784Y-24478137D01*
X45178278Y-24452726D01*
X45185939Y-24452392D01*
X76854845Y-24452392D01*
X76911346Y-24472957D01*
X76917000Y-24478137D01*
X78315647Y-25876783D01*
X78341058Y-25931277D01*
X78341392Y-25938938D01*
X78341392Y-31690849D01*
X78341392Y-31776555D01*
X78343651Y-31784987D01*
X78363573Y-31859339D01*
X78385965Y-31898124D01*
X78406427Y-31933564D01*
X79904167Y-33431303D01*
X81306647Y-34833783D01*
X81332058Y-34888277D01*
X81332392Y-34895938D01*
X81332392Y-36584039D01*
X81332392Y-36669745D01*
X81340510Y-36700044D01*
X81354573Y-36752529D01*
X81392247Y-36817783D01*
X81397427Y-36826754D01*
X83159808Y-38589135D01*
X84795516Y-40224843D01*
X84820927Y-40279337D01*
X84814570Y-40320635D01*
X84765763Y-40438467D01*
X84765760Y-40438475D01*
X84725392Y-40641428D01*
X84725392Y-40848355D01*
X84765759Y-41051303D01*
X84765761Y-41051308D01*
X84765762Y-41051312D01*
X84844951Y-41242490D01*
X84844952Y-41242492D01*
X84844953Y-41242493D01*
X84959911Y-41414542D01*
X84959912Y-41414543D01*
X84959915Y-41414547D01*
X85106237Y-41560869D01*
X85278294Y-41675833D01*
X85469472Y-41755022D01*
X85469477Y-41755023D01*
X85469480Y-41755024D01*
X85572324Y-41775480D01*
X85672427Y-41795392D01*
X85672429Y-41795392D01*
X85879355Y-41795392D01*
X85879357Y-41795392D01*
X86012228Y-41768962D01*
X86082303Y-41755024D01*
X86082304Y-41755023D01*
X86082312Y-41755022D01*
X86273490Y-41675833D01*
X86445547Y-41560869D01*
X86591869Y-41414547D01*
X86706833Y-41242490D01*
X86786022Y-41051312D01*
X86796167Y-41000312D01*
X86826392Y-40848355D01*
X86826392Y-40641430D01*
X86826392Y-40641428D01*
X86826392Y-40641427D01*
X86816248Y-40590428D01*
X110125392Y-40590428D01*
X110125392Y-40797355D01*
X110165759Y-41000303D01*
X110165761Y-41000308D01*
X110165762Y-41000312D01*
X110244951Y-41191490D01*
X110244952Y-41191492D01*
X110244953Y-41191493D01*
X110359911Y-41363542D01*
X110359912Y-41363543D01*
X110359915Y-41363547D01*
X110506237Y-41509869D01*
X110678294Y-41624833D01*
X110869472Y-41704022D01*
X110869477Y-41704023D01*
X110869480Y-41704024D01*
X110972324Y-41724480D01*
X111072427Y-41744392D01*
X111072429Y-41744392D01*
X111279355Y-41744392D01*
X111279357Y-41744392D01*
X111412228Y-41717962D01*
X111482303Y-41704024D01*
X111482304Y-41704023D01*
X111482312Y-41704022D01*
X111673490Y-41624833D01*
X111845547Y-41509869D01*
X111991869Y-41363547D01*
X112106833Y-41191490D01*
X112186022Y-41000312D01*
X112226392Y-40797357D01*
X112226392Y-40590427D01*
X112196167Y-40438475D01*
X112186024Y-40387480D01*
X112186023Y-40387477D01*
X112186022Y-40387472D01*
X112106833Y-40196294D01*
X111991869Y-40024237D01*
X111845547Y-39877915D01*
X111845543Y-39877912D01*
X111845542Y-39877911D01*
X111673493Y-39762953D01*
X111673492Y-39762952D01*
X111673490Y-39762951D01*
X111482312Y-39683762D01*
X111482308Y-39683761D01*
X111482303Y-39683759D01*
X111329576Y-39653381D01*
X111279357Y-39643392D01*
X111072427Y-39643392D01*
X111027736Y-39652281D01*
X110869480Y-39683759D01*
X110869475Y-39683761D01*
X110869473Y-39683761D01*
X110869472Y-39683762D01*
X110678294Y-39762951D01*
X110678292Y-39762951D01*
X110678290Y-39762953D01*
X110506241Y-39877911D01*
X110359911Y-40024241D01*
X110244953Y-40196290D01*
X110244951Y-40196292D01*
X110244951Y-40196294D01*
X110193447Y-40320635D01*
X110165761Y-40387475D01*
X110165759Y-40387480D01*
X110125392Y-40590428D01*
X86816248Y-40590428D01*
X86786022Y-40438472D01*
X86706833Y-40247294D01*
X86591869Y-40075237D01*
X86445547Y-39928915D01*
X86445543Y-39928912D01*
X86445542Y-39928911D01*
X86273493Y-39813953D01*
X86273492Y-39813952D01*
X86273490Y-39813951D01*
X86082312Y-39734762D01*
X86082308Y-39734761D01*
X86082303Y-39734759D01*
X85916911Y-39701862D01*
X85879357Y-39694392D01*
X85672427Y-39694392D01*
X85634873Y-39701862D01*
X85469475Y-39734760D01*
X85469467Y-39734763D01*
X85351635Y-39783570D01*
X85291565Y-39786193D01*
X85255843Y-39764516D01*
X82009137Y-36517810D01*
X81983726Y-36463316D01*
X81983392Y-36455655D01*
X81983392Y-35084929D01*
X82003957Y-35028428D01*
X82056028Y-34998364D01*
X82115242Y-35008805D01*
X82133447Y-35022774D01*
X84795516Y-37684843D01*
X84820927Y-37739337D01*
X84814570Y-37780635D01*
X84765763Y-37898467D01*
X84765760Y-37898475D01*
X84725392Y-38101428D01*
X84725392Y-38308355D01*
X84765759Y-38511303D01*
X84765761Y-38511308D01*
X84765762Y-38511312D01*
X84844951Y-38702490D01*
X84844952Y-38702492D01*
X84844953Y-38702493D01*
X84959911Y-38874542D01*
X84959912Y-38874543D01*
X84959915Y-38874547D01*
X85106237Y-39020869D01*
X85278294Y-39135833D01*
X85469472Y-39215022D01*
X85469477Y-39215023D01*
X85469480Y-39215024D01*
X85572324Y-39235480D01*
X85672427Y-39255392D01*
X85672429Y-39255392D01*
X85879355Y-39255392D01*
X85879357Y-39255392D01*
X86012228Y-39228962D01*
X86082303Y-39215024D01*
X86082304Y-39215023D01*
X86082312Y-39215022D01*
X86273490Y-39135833D01*
X86445547Y-39020869D01*
X86591869Y-38874547D01*
X86706833Y-38702490D01*
X86786022Y-38511312D01*
X86796167Y-38460312D01*
X86826392Y-38308355D01*
X86826392Y-38101430D01*
X86826392Y-38101428D01*
X86826392Y-38101427D01*
X86816248Y-38050428D01*
X110125392Y-38050428D01*
X110125392Y-38257355D01*
X110165759Y-38460303D01*
X110165761Y-38460308D01*
X110165762Y-38460312D01*
X110244951Y-38651490D01*
X110244952Y-38651492D01*
X110244953Y-38651493D01*
X110359911Y-38823542D01*
X110359912Y-38823543D01*
X110359915Y-38823547D01*
X110506237Y-38969869D01*
X110678294Y-39084833D01*
X110869472Y-39164022D01*
X110869477Y-39164023D01*
X110869480Y-39164024D01*
X110972324Y-39184480D01*
X111072427Y-39204392D01*
X111072429Y-39204392D01*
X111279355Y-39204392D01*
X111279357Y-39204392D01*
X111412228Y-39177962D01*
X111482303Y-39164024D01*
X111482304Y-39164023D01*
X111482312Y-39164022D01*
X111673490Y-39084833D01*
X111845547Y-38969869D01*
X111991869Y-38823547D01*
X112106833Y-38651490D01*
X112186022Y-38460312D01*
X112226392Y-38257357D01*
X112226392Y-38050427D01*
X112196167Y-37898475D01*
X112186024Y-37847480D01*
X112186023Y-37847477D01*
X112186022Y-37847472D01*
X112106833Y-37656294D01*
X111991869Y-37484237D01*
X111845547Y-37337915D01*
X111845543Y-37337912D01*
X111845542Y-37337911D01*
X111673493Y-37222953D01*
X111673492Y-37222952D01*
X111673490Y-37222951D01*
X111482312Y-37143762D01*
X111482308Y-37143761D01*
X111482303Y-37143759D01*
X111329576Y-37113381D01*
X111279357Y-37103392D01*
X111072427Y-37103392D01*
X111027736Y-37112281D01*
X110869480Y-37143759D01*
X110869475Y-37143761D01*
X110869473Y-37143761D01*
X110869472Y-37143762D01*
X110678294Y-37222951D01*
X110678292Y-37222951D01*
X110678290Y-37222953D01*
X110506241Y-37337911D01*
X110359911Y-37484241D01*
X110244953Y-37656290D01*
X110244951Y-37656292D01*
X110244951Y-37656294D01*
X110193447Y-37780635D01*
X110165761Y-37847475D01*
X110165759Y-37847480D01*
X110125392Y-38050428D01*
X86816248Y-38050428D01*
X86786022Y-37898472D01*
X86706833Y-37707294D01*
X86591869Y-37535237D01*
X86445547Y-37388915D01*
X86445543Y-37388912D01*
X86445542Y-37388911D01*
X86273493Y-37273953D01*
X86273492Y-37273952D01*
X86273490Y-37273951D01*
X86082312Y-37194762D01*
X86082308Y-37194761D01*
X86082303Y-37194759D01*
X85929576Y-37164381D01*
X85879357Y-37154392D01*
X85672427Y-37154392D01*
X85627600Y-37163308D01*
X85469475Y-37194760D01*
X85469467Y-37194763D01*
X85351635Y-37243570D01*
X85291565Y-37246193D01*
X85255843Y-37224516D01*
X83592755Y-35561428D01*
X84725392Y-35561428D01*
X84725392Y-35768355D01*
X84765759Y-35971303D01*
X84765761Y-35971308D01*
X84765762Y-35971312D01*
X84844951Y-36162490D01*
X84844952Y-36162492D01*
X84844953Y-36162493D01*
X84959911Y-36334542D01*
X84959912Y-36334543D01*
X84959915Y-36334547D01*
X85106237Y-36480869D01*
X85106240Y-36480871D01*
X85106241Y-36480872D01*
X85192265Y-36538351D01*
X85278294Y-36595833D01*
X85469472Y-36675022D01*
X85469477Y-36675023D01*
X85469480Y-36675024D01*
X85572324Y-36695480D01*
X85672427Y-36715392D01*
X85672429Y-36715392D01*
X85879355Y-36715392D01*
X85879357Y-36715392D01*
X86012228Y-36688962D01*
X86082303Y-36675024D01*
X86082304Y-36675023D01*
X86082312Y-36675022D01*
X86273490Y-36595833D01*
X86445547Y-36480869D01*
X86591869Y-36334547D01*
X86706833Y-36162490D01*
X86786022Y-35971312D01*
X86796167Y-35920312D01*
X86826392Y-35768355D01*
X86826392Y-35561430D01*
X86826392Y-35561428D01*
X86826392Y-35561427D01*
X86816248Y-35510428D01*
X110125392Y-35510428D01*
X110125392Y-35717355D01*
X110165759Y-35920303D01*
X110165761Y-35920308D01*
X110165762Y-35920312D01*
X110244951Y-36111490D01*
X110244952Y-36111492D01*
X110244953Y-36111493D01*
X110359911Y-36283542D01*
X110359912Y-36283543D01*
X110359915Y-36283547D01*
X110506237Y-36429869D01*
X110506240Y-36429871D01*
X110506241Y-36429872D01*
X110556294Y-36463316D01*
X110678294Y-36544833D01*
X110869472Y-36624022D01*
X110869477Y-36624023D01*
X110869480Y-36624024D01*
X110972324Y-36644480D01*
X111072427Y-36664392D01*
X111072429Y-36664392D01*
X111279355Y-36664392D01*
X111279357Y-36664392D01*
X111412228Y-36637962D01*
X111482303Y-36624024D01*
X111482304Y-36624023D01*
X111482312Y-36624022D01*
X111673490Y-36544833D01*
X111845547Y-36429869D01*
X111991869Y-36283547D01*
X112106833Y-36111490D01*
X112186022Y-35920312D01*
X112226392Y-35717357D01*
X112226392Y-35510427D01*
X112213177Y-35443991D01*
X112186024Y-35307480D01*
X112186023Y-35307477D01*
X112186022Y-35307472D01*
X112106833Y-35116294D01*
X112044345Y-35022774D01*
X111991872Y-34944241D01*
X111991871Y-34944240D01*
X111991869Y-34944237D01*
X111845547Y-34797915D01*
X111845543Y-34797912D01*
X111845542Y-34797911D01*
X111673493Y-34682953D01*
X111673492Y-34682952D01*
X111673490Y-34682951D01*
X111482312Y-34603762D01*
X111482308Y-34603761D01*
X111482303Y-34603759D01*
X111329576Y-34573381D01*
X111279357Y-34563392D01*
X111072427Y-34563392D01*
X111027736Y-34572281D01*
X110869480Y-34603759D01*
X110869475Y-34603761D01*
X110869473Y-34603761D01*
X110869472Y-34603762D01*
X110678294Y-34682951D01*
X110678292Y-34682951D01*
X110678290Y-34682953D01*
X110506241Y-34797911D01*
X110359911Y-34944241D01*
X110244953Y-35116290D01*
X110244951Y-35116292D01*
X110244951Y-35116294D01*
X110236452Y-35136812D01*
X110165761Y-35307475D01*
X110165759Y-35307480D01*
X110125392Y-35510428D01*
X86816248Y-35510428D01*
X86795464Y-35405941D01*
X86786024Y-35358480D01*
X86786023Y-35358477D01*
X86786022Y-35358472D01*
X86706833Y-35167294D01*
X86649351Y-35081265D01*
X86591872Y-34995241D01*
X86591871Y-34995240D01*
X86591869Y-34995237D01*
X86445547Y-34848915D01*
X86445543Y-34848912D01*
X86445542Y-34848911D01*
X86273493Y-34733953D01*
X86273492Y-34733952D01*
X86273490Y-34733951D01*
X86082312Y-34654762D01*
X86082308Y-34654761D01*
X86082303Y-34654759D01*
X85929576Y-34624381D01*
X85879357Y-34614392D01*
X85672427Y-34614392D01*
X85627736Y-34623281D01*
X85469480Y-34654759D01*
X85469475Y-34654761D01*
X85469473Y-34654761D01*
X85469472Y-34654762D01*
X85278294Y-34733951D01*
X85278292Y-34733951D01*
X85278290Y-34733953D01*
X85106241Y-34848911D01*
X84959911Y-34995241D01*
X84844953Y-35167290D01*
X84765761Y-35358475D01*
X84765759Y-35358480D01*
X84725392Y-35561428D01*
X83592755Y-35561428D01*
X81052755Y-33021428D01*
X84725392Y-33021428D01*
X84725392Y-33228355D01*
X84765759Y-33431303D01*
X84765761Y-33431308D01*
X84765762Y-33431312D01*
X84844951Y-33622490D01*
X84844952Y-33622492D01*
X84844953Y-33622493D01*
X84959911Y-33794542D01*
X84959912Y-33794543D01*
X84959915Y-33794547D01*
X85106237Y-33940869D01*
X85278294Y-34055833D01*
X85469472Y-34135022D01*
X85469477Y-34135023D01*
X85469480Y-34135024D01*
X85549231Y-34150887D01*
X85672427Y-34175392D01*
X85672429Y-34175392D01*
X85879355Y-34175392D01*
X85879357Y-34175392D01*
X86012228Y-34148962D01*
X86082303Y-34135024D01*
X86082304Y-34135023D01*
X86082312Y-34135022D01*
X86273490Y-34055833D01*
X86445547Y-33940869D01*
X86591869Y-33794547D01*
X86706833Y-33622490D01*
X86786022Y-33431312D01*
X86796167Y-33380312D01*
X86826392Y-33228355D01*
X86826392Y-33021430D01*
X86826392Y-33021428D01*
X86826392Y-33021427D01*
X86786022Y-32818472D01*
X86706833Y-32627294D01*
X86591869Y-32455237D01*
X86445547Y-32308915D01*
X86445543Y-32308912D01*
X86445542Y-32308911D01*
X86273493Y-32193953D01*
X86273492Y-32193952D01*
X86273490Y-32193951D01*
X86082312Y-32114762D01*
X86082308Y-32114761D01*
X86082303Y-32114759D01*
X85929576Y-32084381D01*
X85879357Y-32074392D01*
X85672427Y-32074392D01*
X85627736Y-32083281D01*
X85469480Y-32114759D01*
X85469475Y-32114761D01*
X85469473Y-32114761D01*
X85469472Y-32114762D01*
X85278294Y-32193951D01*
X85278292Y-32193951D01*
X85278290Y-32193953D01*
X85106241Y-32308911D01*
X84959911Y-32455241D01*
X84844953Y-32627290D01*
X84765761Y-32818475D01*
X84765759Y-32818480D01*
X84725392Y-33021428D01*
X81052755Y-33021428D01*
X79469137Y-31437810D01*
X79443726Y-31383316D01*
X79443392Y-31375655D01*
X79443392Y-30481428D01*
X84725392Y-30481428D01*
X84725392Y-30688355D01*
X84765759Y-30891303D01*
X84765761Y-30891308D01*
X84765762Y-30891312D01*
X84844951Y-31082490D01*
X84844952Y-31082492D01*
X84844953Y-31082493D01*
X84959911Y-31254542D01*
X84959912Y-31254543D01*
X84959915Y-31254547D01*
X85106237Y-31400869D01*
X85106240Y-31400871D01*
X85106241Y-31400872D01*
X85192265Y-31458351D01*
X85278294Y-31515833D01*
X85469472Y-31595022D01*
X85469477Y-31595023D01*
X85469480Y-31595024D01*
X85572324Y-31615480D01*
X85672427Y-31635392D01*
X85672429Y-31635392D01*
X85879355Y-31635392D01*
X85879357Y-31635392D01*
X86012228Y-31608962D01*
X86082303Y-31595024D01*
X86082304Y-31595023D01*
X86082312Y-31595022D01*
X86273490Y-31515833D01*
X86445547Y-31400869D01*
X86591869Y-31254547D01*
X86706833Y-31082490D01*
X86786022Y-30891312D01*
X86789643Y-30873111D01*
X86826392Y-30688355D01*
X86826392Y-30481428D01*
X86818418Y-30441339D01*
X86815694Y-30427646D01*
X109825892Y-30427646D01*
X109825892Y-30640137D01*
X109859133Y-30850016D01*
X109924796Y-31052107D01*
X109924799Y-31052114D01*
X110021269Y-31241445D01*
X110060620Y-31295608D01*
X110692928Y-30663299D01*
X110709967Y-30726885D01*
X110775793Y-30840899D01*
X110868885Y-30933991D01*
X110982899Y-30999817D01*
X111046481Y-31016854D01*
X110414174Y-31649162D01*
X110414173Y-31649162D01*
X110468337Y-31688514D01*
X110468336Y-31688514D01*
X110657669Y-31784984D01*
X110657676Y-31784987D01*
X110859768Y-31850650D01*
X110975460Y-31868974D01*
X111028049Y-31898124D01*
X111049597Y-31954258D01*
X111030021Y-32011109D01*
X110978859Y-32042003D01*
X110869479Y-32063760D01*
X110869475Y-32063761D01*
X110869473Y-32063761D01*
X110869472Y-32063762D01*
X110678294Y-32142951D01*
X110678292Y-32142951D01*
X110678290Y-32142953D01*
X110506241Y-32257911D01*
X110359911Y-32404241D01*
X110244953Y-32576290D01*
X110165761Y-32767475D01*
X110165759Y-32767480D01*
X110125392Y-32970428D01*
X110125392Y-33177355D01*
X110165759Y-33380303D01*
X110165761Y-33380308D01*
X110165762Y-33380312D01*
X110244951Y-33571490D01*
X110244952Y-33571492D01*
X110244953Y-33571493D01*
X110359911Y-33743542D01*
X110359912Y-33743543D01*
X110359915Y-33743547D01*
X110506237Y-33889869D01*
X110506240Y-33889871D01*
X110506241Y-33889872D01*
X110544734Y-33915592D01*
X110678294Y-34004833D01*
X110869472Y-34084022D01*
X110869477Y-34084023D01*
X110869480Y-34084024D01*
X110972324Y-34104480D01*
X111072427Y-34124392D01*
X111072429Y-34124392D01*
X111279355Y-34124392D01*
X111279357Y-34124392D01*
X111412228Y-34097962D01*
X111482303Y-34084024D01*
X111482304Y-34084023D01*
X111482312Y-34084022D01*
X111673490Y-34004833D01*
X111845547Y-33889869D01*
X111991869Y-33743547D01*
X112106833Y-33571490D01*
X112186022Y-33380312D01*
X112226392Y-33177357D01*
X112226392Y-32970427D01*
X112196167Y-32818475D01*
X112186024Y-32767480D01*
X112186023Y-32767477D01*
X112186022Y-32767472D01*
X112106833Y-32576294D01*
X111991869Y-32404237D01*
X111845547Y-32257915D01*
X111845543Y-32257912D01*
X111845542Y-32257911D01*
X111673493Y-32142953D01*
X111673492Y-32142952D01*
X111673490Y-32142951D01*
X111482312Y-32063762D01*
X111482308Y-32063761D01*
X111482303Y-32063759D01*
X111372925Y-32042003D01*
X111321521Y-32010811D01*
X111302194Y-31953874D01*
X111323986Y-31897836D01*
X111376323Y-31868974D01*
X111492015Y-31850650D01*
X111694107Y-31784987D01*
X111694114Y-31784984D01*
X111883446Y-31688514D01*
X111937608Y-31649162D01*
X111305300Y-31016854D01*
X111368885Y-30999817D01*
X111482899Y-30933991D01*
X111575991Y-30840899D01*
X111641817Y-30726885D01*
X111658854Y-30663300D01*
X112291162Y-31295608D01*
X112330514Y-31241446D01*
X112426984Y-31052114D01*
X112426987Y-31052107D01*
X112492650Y-30850016D01*
X112525892Y-30640137D01*
X112525892Y-30427646D01*
X112492650Y-30217767D01*
X112426987Y-30015676D01*
X112426984Y-30015669D01*
X112330514Y-29826337D01*
X112291162Y-29772174D01*
X111658854Y-30404481D01*
X111641817Y-30340899D01*
X111575991Y-30226885D01*
X111482899Y-30133793D01*
X111368885Y-30067967D01*
X111305299Y-30050928D01*
X111937608Y-29418620D01*
X111883445Y-29379269D01*
X111694114Y-29282799D01*
X111694107Y-29282796D01*
X111492016Y-29217133D01*
X111376322Y-29198809D01*
X111323734Y-29169658D01*
X111302186Y-29113525D01*
X111321762Y-29056674D01*
X111372924Y-29025780D01*
X111436136Y-29013206D01*
X111482303Y-29004024D01*
X111482304Y-29004023D01*
X111482312Y-29004022D01*
X111673490Y-28924833D01*
X111845547Y-28809869D01*
X111991869Y-28663547D01*
X112106833Y-28491490D01*
X112186022Y-28300312D01*
X112226392Y-28097357D01*
X112226392Y-27890427D01*
X112186022Y-27687472D01*
X112106833Y-27496294D01*
X111991869Y-27324237D01*
X111845547Y-27177915D01*
X111845543Y-27177912D01*
X111845542Y-27177911D01*
X111673493Y-27062953D01*
X111673492Y-27062952D01*
X111673490Y-27062951D01*
X111482312Y-26983762D01*
X111482308Y-26983761D01*
X111482303Y-26983759D01*
X111329576Y-26953381D01*
X111279357Y-26943392D01*
X111072427Y-26943392D01*
X111027736Y-26952281D01*
X110869480Y-26983759D01*
X110869475Y-26983761D01*
X110869473Y-26983761D01*
X110869472Y-26983762D01*
X110678294Y-27062951D01*
X110678292Y-27062951D01*
X110678290Y-27062953D01*
X110506241Y-27177911D01*
X110359911Y-27324241D01*
X110244953Y-27496290D01*
X110165761Y-27687475D01*
X110165759Y-27687480D01*
X110125392Y-27890428D01*
X110125392Y-28097355D01*
X110165759Y-28300303D01*
X110165761Y-28300308D01*
X110165762Y-28300312D01*
X110244951Y-28491490D01*
X110244952Y-28491492D01*
X110244953Y-28491493D01*
X110359911Y-28663542D01*
X110359912Y-28663543D01*
X110359915Y-28663547D01*
X110506237Y-28809869D01*
X110678294Y-28924833D01*
X110869472Y-29004022D01*
X110869477Y-29004023D01*
X110869480Y-29004024D01*
X110978858Y-29025780D01*
X111030261Y-29056972D01*
X111049589Y-29113908D01*
X111027797Y-29169947D01*
X110975461Y-29198809D01*
X110859767Y-29217133D01*
X110657676Y-29282796D01*
X110657669Y-29282799D01*
X110468346Y-29379264D01*
X110468337Y-29379269D01*
X110414174Y-29418620D01*
X111046483Y-30050929D01*
X110982899Y-30067967D01*
X110868885Y-30133793D01*
X110775793Y-30226885D01*
X110709967Y-30340899D01*
X110692929Y-30404483D01*
X110060620Y-29772174D01*
X110021269Y-29826337D01*
X110021264Y-29826346D01*
X109924799Y-30015669D01*
X109924796Y-30015676D01*
X109859133Y-30217767D01*
X109825892Y-30427646D01*
X86815694Y-30427646D01*
X86786024Y-30278480D01*
X86786023Y-30278477D01*
X86786022Y-30278472D01*
X86706833Y-30087294D01*
X86591869Y-29915237D01*
X86445547Y-29768915D01*
X86445543Y-29768912D01*
X86445542Y-29768911D01*
X86273493Y-29653953D01*
X86273492Y-29653952D01*
X86273490Y-29653951D01*
X86082312Y-29574762D01*
X86082308Y-29574761D01*
X86082303Y-29574759D01*
X85929576Y-29544381D01*
X85879357Y-29534392D01*
X85672427Y-29534392D01*
X85627736Y-29543281D01*
X85469480Y-29574759D01*
X85469475Y-29574761D01*
X85469473Y-29574761D01*
X85469472Y-29574762D01*
X85278294Y-29653951D01*
X85278292Y-29653951D01*
X85278290Y-29653953D01*
X85106241Y-29768911D01*
X84959911Y-29915241D01*
X84844953Y-30087290D01*
X84844951Y-30087292D01*
X84844951Y-30087294D01*
X84806411Y-30180337D01*
X84765761Y-30278475D01*
X84765759Y-30278480D01*
X84725392Y-30481428D01*
X79443392Y-30481428D01*
X79443392Y-27175145D01*
X84725392Y-27175145D01*
X84725392Y-28914638D01*
X84737025Y-28973124D01*
X84781337Y-29039440D01*
X84781340Y-29039444D01*
X84781343Y-29039446D01*
X84847659Y-29083758D01*
X84847661Y-29083759D01*
X84906144Y-29095392D01*
X84906146Y-29095392D01*
X86645638Y-29095392D01*
X86645640Y-29095392D01*
X86704123Y-29083759D01*
X86770444Y-29039444D01*
X86814759Y-28973123D01*
X86826392Y-28914640D01*
X86826392Y-27175144D01*
X86814759Y-27116661D01*
X86770444Y-27050340D01*
X86770440Y-27050337D01*
X86704124Y-27006025D01*
X86684628Y-27002147D01*
X86645640Y-26994392D01*
X84906144Y-26994392D01*
X84876902Y-27000208D01*
X84847659Y-27006025D01*
X84781343Y-27050337D01*
X84781337Y-27050343D01*
X84737025Y-27116659D01*
X84725392Y-27175145D01*
X79443392Y-27175145D01*
X79443392Y-25538039D01*
X79443391Y-25538037D01*
X79435139Y-25507237D01*
X79421209Y-25455250D01*
X79403545Y-25424657D01*
X79403543Y-25424655D01*
X79399783Y-25418142D01*
X79378357Y-25381030D01*
X79317754Y-25320427D01*
X79317751Y-25320425D01*
X77412754Y-23415427D01*
X77338531Y-23372574D01*
X77338530Y-23372573D01*
X77338529Y-23372573D01*
X77255745Y-23350392D01*
X44785039Y-23350392D01*
X44702257Y-23372572D01*
X44628028Y-23415428D01*
X42027425Y-26016032D01*
X41984573Y-26090254D01*
X41970645Y-26142237D01*
X41962392Y-26173037D01*
X41962392Y-39629671D01*
X41941827Y-39686172D01*
X41923507Y-39701546D01*
X41923750Y-39701862D01*
X41919175Y-39705372D01*
X41807374Y-39817172D01*
X41728313Y-39954111D01*
X41687392Y-40106835D01*
X13967392Y-40106835D01*
X13967392Y-23002292D01*
X13987957Y-22945791D01*
X14040028Y-22915727D01*
X14055292Y-22914392D01*
X143164492Y-22914392D01*
X143220993Y-22934957D01*
G37*
%TD.AperFunction*%
%TD*%
%TA.AperFunction,Conductor*%
%TO.N,5V*%
G36*
X72723784Y-37031457D02*
G01*
X72753848Y-37083528D01*
X72755182Y-37098492D01*
X72841615Y-62410891D01*
X72841616Y-62410892D01*
X72846892Y-63955892D01*
X67131892Y-63955892D01*
X67045270Y-38588433D01*
X67856492Y-38588433D01*
X67856492Y-38735350D01*
X67885150Y-38879427D01*
X67885151Y-38879431D01*
X67885152Y-38879434D01*
X67941372Y-39015161D01*
X68022991Y-39137312D01*
X68126872Y-39241193D01*
X68249023Y-39322812D01*
X68384750Y-39379032D01*
X68420028Y-39386049D01*
X68528834Y-39407692D01*
X68528837Y-39407692D01*
X68675750Y-39407692D01*
X68762673Y-39390401D01*
X68819834Y-39379032D01*
X68955561Y-39322812D01*
X69077712Y-39241193D01*
X69181593Y-39137312D01*
X69263212Y-39015161D01*
X69319432Y-38879434D01*
X69331689Y-38817812D01*
X69346842Y-38741635D01*
X69346842Y-38741631D01*
X69348092Y-38735347D01*
X69348092Y-38662392D01*
X70284442Y-38662392D01*
X70340943Y-38682957D01*
X70370653Y-38733144D01*
X70399750Y-38879426D01*
X70399751Y-38879429D01*
X70399752Y-38879434D01*
X70455972Y-39015161D01*
X70537591Y-39137312D01*
X70641472Y-39241193D01*
X70763623Y-39322812D01*
X70899350Y-39379032D01*
X70934628Y-39386049D01*
X71043434Y-39407692D01*
X71043437Y-39407692D01*
X71190350Y-39407692D01*
X71277273Y-39390401D01*
X71334434Y-39379032D01*
X71470161Y-39322812D01*
X71592312Y-39241193D01*
X71696193Y-39137312D01*
X71777812Y-39015161D01*
X71834032Y-38879434D01*
X71845401Y-38822273D01*
X71862692Y-38735350D01*
X71862692Y-38588433D01*
X71834033Y-38444356D01*
X71834032Y-38444350D01*
X71777812Y-38308623D01*
X71696193Y-38186472D01*
X71592312Y-38082591D01*
X71470161Y-38000972D01*
X71334434Y-37944752D01*
X71334431Y-37944751D01*
X71334427Y-37944750D01*
X71190350Y-37916092D01*
X71190347Y-37916092D01*
X71043437Y-37916092D01*
X71043434Y-37916092D01*
X70899356Y-37944750D01*
X70899344Y-37944754D01*
X70837850Y-37970225D01*
X70763623Y-38000972D01*
X70763622Y-38000973D01*
X70641474Y-38082589D01*
X70537589Y-38186474D01*
X70483178Y-38267906D01*
X70455972Y-38308623D01*
X70425225Y-38382850D01*
X70399754Y-38444344D01*
X70399750Y-38444357D01*
X70370653Y-38590640D01*
X70339461Y-38642044D01*
X70284442Y-38661392D01*
X69348092Y-38661392D01*
X69348092Y-38588437D01*
X69346842Y-38582152D01*
X69346842Y-38582148D01*
X69319433Y-38444357D01*
X69319433Y-38444356D01*
X69319432Y-38444350D01*
X69263212Y-38308623D01*
X69181593Y-38186472D01*
X69077712Y-38082591D01*
X68955561Y-38000972D01*
X68819834Y-37944752D01*
X68819831Y-37944751D01*
X68819827Y-37944750D01*
X68675750Y-37916092D01*
X68675747Y-37916092D01*
X68528837Y-37916092D01*
X68528834Y-37916092D01*
X68384756Y-37944750D01*
X68384744Y-37944754D01*
X68323250Y-37970225D01*
X68249023Y-38000972D01*
X68249022Y-38000973D01*
X68126874Y-38082589D01*
X68022989Y-38186474D01*
X67968578Y-38267906D01*
X67941372Y-38308623D01*
X67910625Y-38382850D01*
X67885154Y-38444344D01*
X67885150Y-38444356D01*
X67856492Y-38588433D01*
X67045270Y-38588433D01*
X67040184Y-37099091D01*
X67060555Y-37042521D01*
X67112524Y-37012280D01*
X67128083Y-37010892D01*
X72667283Y-37010892D01*
X72723784Y-37031457D01*
G37*
%TD.AperFunction*%
%TD*%
%TA.AperFunction,NonConductor*%
G36*
X72587039Y-31007685D02*
G01*
X72632794Y-31060489D01*
X72644000Y-31112000D01*
X72644000Y-33912000D01*
X72624315Y-33979039D01*
X72571511Y-34024794D01*
X72520000Y-34036000D01*
X67180000Y-34036000D01*
X67112961Y-34016315D01*
X67067206Y-33963511D01*
X67056000Y-33912000D01*
X67056000Y-32594032D01*
X68110503Y-32594032D01*
X68110503Y-32740951D01*
X68139161Y-32885026D01*
X68139164Y-32885036D01*
X68195381Y-33020758D01*
X68195386Y-33020767D01*
X68277001Y-33142911D01*
X68277004Y-33142915D01*
X68380879Y-33246790D01*
X68380883Y-33246793D01*
X68503027Y-33328408D01*
X68503033Y-33328411D01*
X68503034Y-33328412D01*
X68638761Y-33384632D01*
X68782843Y-33413291D01*
X68782847Y-33413292D01*
X68782848Y-33413292D01*
X68929759Y-33413292D01*
X68929760Y-33413291D01*
X69073845Y-33384632D01*
X69209572Y-33328412D01*
X69331723Y-33246793D01*
X69435604Y-33142912D01*
X69517223Y-33020761D01*
X69573443Y-32885034D01*
X69602103Y-32740947D01*
X69602103Y-32667992D01*
X70000827Y-32667992D01*
X70067866Y-32687677D01*
X70113621Y-32740481D01*
X70122444Y-32767801D01*
X70145761Y-32885026D01*
X70145764Y-32885036D01*
X70201981Y-33020758D01*
X70201986Y-33020767D01*
X70283601Y-33142911D01*
X70283604Y-33142915D01*
X70387479Y-33246790D01*
X70387483Y-33246793D01*
X70509627Y-33328408D01*
X70509633Y-33328411D01*
X70509634Y-33328412D01*
X70645361Y-33384632D01*
X70789443Y-33413291D01*
X70789447Y-33413292D01*
X70789448Y-33413292D01*
X70936359Y-33413292D01*
X70936360Y-33413291D01*
X71080445Y-33384632D01*
X71216172Y-33328412D01*
X71338323Y-33246793D01*
X71442204Y-33142912D01*
X71523823Y-33020761D01*
X71580043Y-32885034D01*
X71608703Y-32740947D01*
X71608703Y-32594037D01*
X71580043Y-32449950D01*
X71523823Y-32314223D01*
X71523822Y-32314222D01*
X71523819Y-32314216D01*
X71442204Y-32192072D01*
X71442201Y-32192068D01*
X71338326Y-32088193D01*
X71338322Y-32088190D01*
X71216178Y-32006575D01*
X71216169Y-32006570D01*
X71080447Y-31950353D01*
X71080448Y-31950353D01*
X71080445Y-31950352D01*
X71080441Y-31950351D01*
X71080437Y-31950350D01*
X70936362Y-31921692D01*
X70936358Y-31921692D01*
X70789448Y-31921692D01*
X70789443Y-31921692D01*
X70645368Y-31950350D01*
X70645358Y-31950353D01*
X70509636Y-32006570D01*
X70509627Y-32006575D01*
X70387483Y-32088190D01*
X70387479Y-32088193D01*
X70283604Y-32192068D01*
X70283601Y-32192072D01*
X70201986Y-32314216D01*
X70201981Y-32314225D01*
X70145764Y-32449947D01*
X70145761Y-32449957D01*
X70122444Y-32567183D01*
X70090060Y-32629094D01*
X70029344Y-32663668D01*
X70000827Y-32666992D01*
X69602103Y-32666992D01*
X69602103Y-32594037D01*
X69594379Y-32555204D01*
X69594379Y-32555202D01*
X69573444Y-32449957D01*
X69573443Y-32449950D01*
X69517223Y-32314223D01*
X69517222Y-32314222D01*
X69517219Y-32314216D01*
X69435604Y-32192072D01*
X69435601Y-32192068D01*
X69331726Y-32088193D01*
X69331722Y-32088190D01*
X69209578Y-32006575D01*
X69209569Y-32006570D01*
X69073847Y-31950353D01*
X69073848Y-31950353D01*
X69073845Y-31950352D01*
X69073841Y-31950351D01*
X69073837Y-31950350D01*
X68929762Y-31921692D01*
X68929758Y-31921692D01*
X68782848Y-31921692D01*
X68782843Y-31921692D01*
X68638768Y-31950350D01*
X68638758Y-31950353D01*
X68503036Y-32006570D01*
X68503027Y-32006575D01*
X68380883Y-32088190D01*
X68380879Y-32088193D01*
X68277004Y-32192068D01*
X68277001Y-32192072D01*
X68195386Y-32314216D01*
X68195381Y-32314225D01*
X68139164Y-32449947D01*
X68139161Y-32449957D01*
X68110503Y-32594032D01*
X67056000Y-32594032D01*
X67056000Y-31112000D01*
X67075685Y-31044961D01*
X67128489Y-30999206D01*
X67180000Y-30988000D01*
X72520000Y-30988000D01*
X72587039Y-31007685D01*
G37*
%TD.AperFunction*%
M02*
