%TF.GenerationSoftware,KiCad,Pcbnew,9.0.1*%
%TF.CreationDate,2025-04-11T12:37:24-04:00*%
%TF.ProjectId,Pneumatactors_1Xiao_3Pumps_8Valves,506e6575-6d61-4746-9163-746f72735f31,rev?*%
%TF.SameCoordinates,Original*%
%TF.FileFunction,Paste,Top*%
%TF.FilePolarity,Positive*%
%FSLAX46Y46*%
G04 Gerber Fmt 4.6, Leading zero omitted, Abs format (unit mm)*
G04 Created by KiCad (PCBNEW 9.0.1) date 2025-04-11 12:37:24*
%MOMM*%
%LPD*%
G01*
G04 APERTURE LIST*
G04 Aperture macros list*
%AMRoundRect*
0 Rectangle with rounded corners*
0 $1 Rounding radius*
0 $2 $3 $4 $5 $6 $7 $8 $9 X,Y pos of 4 corners*
0 Add a 4 corners polygon primitive as box body*
4,1,4,$2,$3,$4,$5,$6,$7,$8,$9,$2,$3,0*
0 Add four circle primitives for the rounded corners*
1,1,$1+$1,$2,$3*
1,1,$1+$1,$4,$5*
1,1,$1+$1,$6,$7*
1,1,$1+$1,$8,$9*
0 Add four rect primitives between the rounded corners*
20,1,$1+$1,$2,$3,$4,$5,0*
20,1,$1+$1,$4,$5,$6,$7,0*
20,1,$1+$1,$6,$7,$8,$9,0*
20,1,$1+$1,$8,$9,$2,$3,0*%
G04 Aperture macros list end*
%ADD10RoundRect,0.250000X0.625000X-0.400000X0.625000X0.400000X-0.625000X0.400000X-0.625000X-0.400000X0*%
%ADD11RoundRect,0.250000X-0.250000X-1.500000X0.250000X-1.500000X0.250000X1.500000X-0.250000X1.500000X0*%
%ADD12RoundRect,0.250001X-0.499999X-1.449999X0.499999X-1.449999X0.499999X1.449999X-0.499999X1.449999X0*%
%ADD13RoundRect,0.250000X1.000000X0.650000X-1.000000X0.650000X-1.000000X-0.650000X1.000000X-0.650000X0*%
%ADD14RoundRect,0.150000X-0.587500X-0.150000X0.587500X-0.150000X0.587500X0.150000X-0.587500X0.150000X0*%
%ADD15RoundRect,0.250000X0.400000X0.625000X-0.400000X0.625000X-0.400000X-0.625000X0.400000X-0.625000X0*%
%ADD16RoundRect,0.500000X-0.875000X-0.500000X0.875000X-0.500000X0.875000X0.500000X-0.875000X0.500000X0*%
%ADD17RoundRect,0.275000X0.975000X0.275000X-0.975000X0.275000X-0.975000X-0.275000X0.975000X-0.275000X0*%
%ADD18C,1.700000*%
%ADD19RoundRect,0.250000X-0.650000X1.000000X-0.650000X-1.000000X0.650000X-1.000000X0.650000X1.000000X0*%
%ADD20RoundRect,0.125000X-0.762500X-0.125000X0.762500X-0.125000X0.762500X0.125000X-0.762500X0.125000X0*%
%ADD21O,4.013200X1.498600*%
%ADD22O,3.505200X1.498600*%
%ADD23O,1.498600X3.505200*%
%ADD24RoundRect,0.100000X-0.637500X-0.100000X0.637500X-0.100000X0.637500X0.100000X-0.637500X0.100000X0*%
G04 APERTURE END LIST*
D10*
%TO.C,R15*%
X78434892Y-61187892D03*
X78434892Y-58087892D03*
%TD*%
D11*
%TO.C,J12*%
X64226892Y-70757892D03*
X66226892Y-70757892D03*
D12*
X61876892Y-76507892D03*
X68576892Y-76507892D03*
%TD*%
D13*
%TO.C,D3*%
X128186892Y-63955892D03*
X124186892Y-63955892D03*
%TD*%
%TO.C,D6*%
X97706892Y-63955892D03*
X93706892Y-63955892D03*
%TD*%
D11*
%TO.C,J5*%
X135346892Y-70757892D03*
X137346892Y-70757892D03*
D12*
X132996892Y-76507892D03*
X139696892Y-76507892D03*
%TD*%
D14*
%TO.C,Q7*%
X72163392Y-59195892D03*
X72163392Y-61095892D03*
X74038392Y-60145892D03*
%TD*%
D15*
%TO.C,R2*%
X127736892Y-55827892D03*
X124636892Y-55827892D03*
%TD*%
%TO.C,R14*%
X66776892Y-55827892D03*
X63676892Y-55827892D03*
%TD*%
D11*
%TO.C,J9*%
X94706892Y-70757892D03*
X96706892Y-70757892D03*
D12*
X92356892Y-76507892D03*
X99056892Y-76507892D03*
%TD*%
D13*
%TO.C,D11*%
X43096892Y-63955892D03*
X39096892Y-63955892D03*
%TD*%
D11*
%TO.C,J16*%
X19268892Y-70757892D03*
X21268892Y-70757892D03*
D12*
X16918892Y-76507892D03*
X23618892Y-76507892D03*
%TD*%
D14*
%TO.C,Q8*%
X62003392Y-59195892D03*
X62003392Y-61095892D03*
X63878392Y-60145892D03*
%TD*%
D11*
%TO.C,J6*%
X125186892Y-70757892D03*
X127186892Y-70757892D03*
D12*
X122836892Y-76507892D03*
X129536892Y-76507892D03*
%TD*%
D11*
%TO.C,J11*%
X74386892Y-70757892D03*
X76386892Y-70757892D03*
D12*
X72036892Y-76507892D03*
X78736892Y-76507892D03*
%TD*%
D10*
%TO.C,R11*%
X98754892Y-61187892D03*
X98754892Y-58087892D03*
%TD*%
D16*
%TO.C,U1*%
X90420892Y-28040892D03*
X90420892Y-30580892D03*
X90420892Y-33120892D03*
X90420892Y-35660892D03*
X90420892Y-38200892D03*
X90420892Y-40740892D03*
X90420892Y-43280892D03*
X106585892Y-43280892D03*
X106585892Y-40740892D03*
X106585892Y-38200892D03*
X106585892Y-35660892D03*
X106585892Y-33120892D03*
X106585892Y-30580892D03*
X106585892Y-28040892D03*
D17*
X94030892Y-35278892D03*
X94030892Y-33373892D03*
D18*
X97205892Y-27028892D03*
X99745892Y-27028892D03*
X97205892Y-29568892D03*
X99745892Y-29568892D03*
X97205892Y-32108892D03*
X99745892Y-32108892D03*
X97205892Y-34648892D03*
X99745892Y-34648892D03*
%TD*%
D15*
%TO.C,R5*%
X117576892Y-55827892D03*
X114476892Y-55827892D03*
%TD*%
D19*
%TO.C,D1*%
X116770256Y-28279892D03*
X116770256Y-32279892D03*
%TD*%
D10*
%TO.C,R12*%
X88594892Y-61187892D03*
X88594892Y-58087892D03*
%TD*%
D13*
%TO.C,D5*%
X107866892Y-63955892D03*
X103866892Y-63955892D03*
%TD*%
D11*
%TO.C,J10*%
X84546892Y-70757892D03*
X86546892Y-70757892D03*
D12*
X82196892Y-76507892D03*
X88896892Y-76507892D03*
%TD*%
D13*
%TO.C,D4*%
X118026892Y-63955892D03*
X114026892Y-63955892D03*
%TD*%
D10*
%TO.C,R4*%
X129234892Y-61187892D03*
X129234892Y-58087892D03*
%TD*%
%TO.C,R7*%
X119328892Y-61187892D03*
X119328892Y-58087892D03*
%TD*%
D14*
%TO.C,Q9*%
X48287392Y-59195892D03*
X48287392Y-61095892D03*
X50162392Y-60145892D03*
%TD*%
%TO.C,Q6*%
X82147892Y-59195892D03*
X82147892Y-61095892D03*
X84022892Y-60145892D03*
%TD*%
D10*
%TO.C,R19*%
X54558892Y-61187892D03*
X54558892Y-58087892D03*
%TD*%
D14*
%TO.C,Q10*%
X37873392Y-59195892D03*
X37873392Y-61095892D03*
X39748392Y-60145892D03*
%TD*%
D11*
%TO.C,J7*%
X115026892Y-70757892D03*
X117026892Y-70757892D03*
D12*
X112676892Y-76507892D03*
X119376892Y-76507892D03*
%TD*%
D13*
%TO.C,D13*%
X22268892Y-63955892D03*
X18268892Y-63955892D03*
%TD*%
D11*
%TO.C,J8*%
X104866892Y-70757892D03*
X106866892Y-70757892D03*
D12*
X102516892Y-76507892D03*
X109216892Y-76507892D03*
%TD*%
D15*
%TO.C,R10*%
X87096892Y-55827892D03*
X83996892Y-55827892D03*
%TD*%
D10*
%TO.C,R8*%
X108914892Y-61187892D03*
X108914892Y-58087892D03*
%TD*%
D14*
%TO.C,Q3*%
X112803392Y-59195892D03*
X112803392Y-61095892D03*
X114678392Y-60145892D03*
%TD*%
D15*
%TO.C,R22*%
X21818892Y-55827892D03*
X18718892Y-55827892D03*
%TD*%
D10*
%TO.C,R24*%
X23316892Y-61187892D03*
X23316892Y-58087892D03*
%TD*%
D15*
%TO.C,R17*%
X53060892Y-55827892D03*
X49960892Y-55827892D03*
%TD*%
D13*
%TO.C,D12*%
X32682892Y-63955892D03*
X28682892Y-63955892D03*
%TD*%
D15*
%TO.C,R13*%
X76936892Y-55827892D03*
X73836892Y-55827892D03*
%TD*%
D14*
%TO.C,Q5*%
X92483392Y-59195892D03*
X92483392Y-61095892D03*
X94358392Y-60145892D03*
%TD*%
D10*
%TO.C,R16*%
X68274892Y-61187892D03*
X68274892Y-58087892D03*
%TD*%
D13*
%TO.C,D2*%
X138346892Y-63955892D03*
X134346892Y-63955892D03*
%TD*%
D15*
%TO.C,R18*%
X42646892Y-55827892D03*
X39546892Y-55827892D03*
%TD*%
D13*
%TO.C,D7*%
X87546892Y-63955892D03*
X83546892Y-63955892D03*
%TD*%
D15*
%TO.C,R1*%
X137896892Y-55827892D03*
X134796892Y-55827892D03*
%TD*%
D20*
%TO.C,U2*%
X74054392Y-45022892D03*
X74054392Y-45672892D03*
X74054392Y-46322892D03*
X74054392Y-46972892D03*
X74054392Y-47622892D03*
X74054392Y-48272892D03*
X74054392Y-48922892D03*
X74054392Y-49572892D03*
X80879392Y-49572892D03*
X80879392Y-48922892D03*
X80879392Y-48272892D03*
X80879392Y-47622892D03*
X80879392Y-46972892D03*
X80879392Y-46322892D03*
X80879392Y-45672892D03*
X80879392Y-45022892D03*
%TD*%
D14*
%TO.C,Q4*%
X102721892Y-59195892D03*
X102721892Y-61095892D03*
X104596892Y-60145892D03*
%TD*%
D15*
%TO.C,R21*%
X32026892Y-55806892D03*
X28926892Y-55806892D03*
%TD*%
D14*
%TO.C,Q12*%
X17045392Y-59195892D03*
X17045392Y-61095892D03*
X18920392Y-60145892D03*
%TD*%
D15*
%TO.C,R6*%
X107416892Y-55827892D03*
X104316892Y-55827892D03*
%TD*%
D14*
%TO.C,Q1*%
X133201892Y-59195892D03*
X133201892Y-61095892D03*
X135076892Y-60145892D03*
%TD*%
D11*
%TO.C,J13*%
X50510892Y-70757892D03*
X52510892Y-70757892D03*
D12*
X48160892Y-76507892D03*
X54860892Y-76507892D03*
%TD*%
D21*
%TO.C,J3*%
X69859603Y-38661892D03*
D22*
X69859603Y-32667492D03*
D23*
X65160603Y-35664692D03*
%TD*%
D15*
%TO.C,R9*%
X97282892Y-55827892D03*
X94182892Y-55827892D03*
%TD*%
D10*
%TO.C,R23*%
X33651892Y-61192292D03*
X33651892Y-58092292D03*
%TD*%
D13*
%TO.C,D9*%
X67226892Y-63955892D03*
X63226892Y-63955892D03*
%TD*%
D10*
%TO.C,R20*%
X44144892Y-61187892D03*
X44144892Y-58087892D03*
%TD*%
D13*
%TO.C,D10*%
X53510892Y-63955892D03*
X49510892Y-63955892D03*
%TD*%
D10*
%TO.C,R3*%
X139394892Y-61187892D03*
X139394892Y-58087892D03*
%TD*%
D24*
%TO.C,U3*%
X33964392Y-41294892D03*
X33964392Y-41944892D03*
X33964392Y-42594892D03*
X33964392Y-43244892D03*
X33964392Y-43894892D03*
X33964392Y-44544892D03*
X33964392Y-45194892D03*
X33964392Y-45844892D03*
X33964392Y-46494892D03*
X33964392Y-47144892D03*
X33964392Y-47794892D03*
X33964392Y-48444892D03*
X33964392Y-49094892D03*
X33964392Y-49744892D03*
X39689392Y-49744892D03*
X39689392Y-49094892D03*
X39689392Y-48444892D03*
X39689392Y-47794892D03*
X39689392Y-47144892D03*
X39689392Y-46494892D03*
X39689392Y-45844892D03*
X39689392Y-45194892D03*
X39689392Y-44544892D03*
X39689392Y-43894892D03*
X39689392Y-43244892D03*
X39689392Y-42594892D03*
X39689392Y-41944892D03*
X39689392Y-41294892D03*
%TD*%
D11*
%TO.C,J15*%
X29682892Y-70757892D03*
X31682892Y-70757892D03*
D12*
X27332892Y-76507892D03*
X34032892Y-76507892D03*
%TD*%
D13*
%TO.C,D8*%
X77386892Y-63955892D03*
X73386892Y-63955892D03*
%TD*%
D11*
%TO.C,J14*%
X40096892Y-70757892D03*
X42096892Y-70757892D03*
D12*
X37746892Y-76507892D03*
X44446892Y-76507892D03*
%TD*%
D14*
%TO.C,Q11*%
X27459392Y-59195892D03*
X27459392Y-61095892D03*
X29334392Y-60145892D03*
%TD*%
%TO.C,Q2*%
X122963392Y-59195892D03*
X122963392Y-61095892D03*
X124838392Y-60145892D03*
%TD*%
M02*
