%TF.GenerationSoftware,KiCad,Pcbnew,7.0.9*%
%TF.CreationDate,2025-03-02T20:15:54-05:00*%
%TF.ProjectId,Module_Nano_Pump,4d6f6475-6c65-45f4-9e61-6e6f5f50756d,rev?*%
%TF.SameCoordinates,Original*%
%TF.FileFunction,Copper,L1,Top*%
%TF.FilePolarity,Positive*%
%FSLAX46Y46*%
G04 Gerber Fmt 4.6, Leading zero omitted, Abs format (unit mm)*
G04 Created by KiCad (PCBNEW 7.0.9) date 2025-03-02 20:15:54*
%MOMM*%
%LPD*%
G01*
G04 APERTURE LIST*
%TA.AperFunction,ComponentPad*%
%ADD10R,2.200000X2.200000*%
%TD*%
%TA.AperFunction,ComponentPad*%
%ADD11O,2.200000X2.200000*%
%TD*%
%TA.AperFunction,ComponentPad*%
%ADD12C,1.700000*%
%TD*%
%TA.AperFunction,SMDPad,CuDef*%
%ADD13O,4.013200X1.498600*%
%TD*%
%TA.AperFunction,SMDPad,CuDef*%
%ADD14O,3.505200X1.498600*%
%TD*%
%TA.AperFunction,SMDPad,CuDef*%
%ADD15O,1.498600X3.505200*%
%TD*%
%TA.AperFunction,ComponentPad*%
%ADD16C,5.500000*%
%TD*%
%TA.AperFunction,ComponentPad*%
%ADD17R,1.700000X1.700000*%
%TD*%
%TA.AperFunction,ComponentPad*%
%ADD18O,1.700000X1.700000*%
%TD*%
%TA.AperFunction,ComponentPad*%
%ADD19C,1.600000*%
%TD*%
%TA.AperFunction,ComponentPad*%
%ADD20O,1.600000X1.600000*%
%TD*%
%TA.AperFunction,ComponentPad*%
%ADD21R,1.600000X1.600000*%
%TD*%
%TA.AperFunction,ViaPad*%
%ADD22C,0.800000*%
%TD*%
%TA.AperFunction,Conductor*%
%ADD23C,0.250000*%
%TD*%
%TA.AperFunction,Conductor*%
%ADD24C,1.000000*%
%TD*%
G04 APERTURE END LIST*
D10*
%TO.P,D1,1,K*%
%TO.N,Net-(D1-K)*%
X66040000Y-57150000D03*
D11*
%TO.P,D1,2,A*%
%TO.N,5V*%
X55880000Y-57150000D03*
%TD*%
D12*
%TO.P,U1,1,VM*%
%TO.N,unconnected-(U1-VM-Pad1)*%
X45720000Y-96520000D03*
%TO.P,U1,2,GND*%
%TO.N,GND*%
X45720000Y-99060000D03*
%TO.P,U1,3,VCC*%
%TO.N,5V_NANO*%
X45720000Y-101600000D03*
%TO.P,U1,4,OCC*%
%TO.N,unconnected-(U1-OCC-Pad4)*%
X45720000Y-104140000D03*
%TO.P,U1,5,EN*%
%TO.N,EN*%
X45720000Y-106680000D03*
%TO.P,U1,6,ENB*%
%TO.N,GND*%
X45720000Y-109220000D03*
%TO.P,U1,7,PWM2*%
%TO.N,PWM2*%
X45720000Y-111760000D03*
%TO.P,U1,8,PWM1*%
%TO.N,PWM1*%
X45720000Y-114300000D03*
%TO.P,U1,9,OCM*%
%TO.N,unconnected-(U1-OCM-Pad9)*%
X45720000Y-116840000D03*
%TO.P,U1,10,OCM*%
%TO.N,unconnected-(U1-OCM-Pad10)*%
X45720000Y-119380000D03*
%TO.P,U1,11,VIN*%
%TO.N,5V*%
X68580000Y-104140000D03*
%TO.P,U1,12,GND*%
%TO.N,GND*%
X68580000Y-106680000D03*
%TO.P,U1,13,OUT2*%
%TO.N,unconnected-(U1-OUT2-Pad13)*%
X68580000Y-109220000D03*
%TO.P,U1,14,OUT1*%
%TO.N,unconnected-(U1-OUT1-Pad14)*%
X68580000Y-111760000D03*
%TD*%
D13*
%TO.P,J3,1,1*%
%TO.N,5V_BARREL*%
X47010000Y-144010300D03*
D14*
%TO.P,J3,2,2*%
%TO.N,GND*%
X47010000Y-150004700D03*
D15*
%TO.P,J3,3,3*%
%TO.N,unconnected-(J3-Pad3)*%
X51709000Y-147007500D03*
%TD*%
D16*
%TO.P,H2,1*%
%TO.N,N/C*%
X75010000Y-35250000D03*
%TD*%
D17*
%TO.P,J2,1,Pin_1*%
%TO.N,SCL*%
X67090000Y-153460000D03*
D18*
%TO.P,J2,2,Pin_2*%
%TO.N,GND*%
X67090000Y-156000000D03*
%TO.P,J2,3,Pin_3*%
%TO.N,SDA*%
X64550000Y-153460000D03*
%TO.P,J2,4,Pin_4*%
%TO.N,unconnected-(J2-Pin_4-Pad4)*%
X64550000Y-156000000D03*
%TO.P,J2,5,Pin_5*%
%TO.N,unconnected-(J2-Pin_5-Pad5)*%
X62010000Y-153460000D03*
%TO.P,J2,6,Pin_6*%
%TO.N,unconnected-(J2-Pin_6-Pad6)*%
X62010000Y-156000000D03*
%TO.P,J2,7,Pin_7*%
%TO.N,unconnected-(J2-Pin_7-Pad7)*%
X59470000Y-153460000D03*
%TO.P,J2,8,Pin_8*%
%TO.N,unconnected-(J2-Pin_8-Pad8)*%
X59470000Y-156000000D03*
%TO.P,J2,9,Pin_9*%
%TO.N,unconnected-(J2-Pin_9-Pad9)*%
X56930000Y-153460000D03*
%TO.P,J2,10,Pin_10*%
%TO.N,GND*%
X56930000Y-156000000D03*
%TD*%
D17*
%TO.P,J4,1,Pin_1*%
%TO.N,5V_BUS*%
X60550000Y-35250000D03*
D18*
%TO.P,J4,2,Pin_2*%
%TO.N,GND*%
X58010000Y-35250000D03*
%TO.P,J4,3,Pin_3*%
%TO.N,SCL*%
X55470000Y-35250000D03*
%TO.P,J4,4,Pin_4*%
%TO.N,SDA*%
X52930000Y-35250000D03*
%TO.P,J4,5,Pin_5*%
%TO.N,GND*%
X50390000Y-35250000D03*
%TD*%
D17*
%TO.P,J1,1,Pin_1*%
%TO.N,Net-(D1-K)*%
X72390000Y-57150000D03*
D18*
%TO.P,J1,2,Pin_2*%
%TO.N,Net-(A1-VIN)*%
X74930000Y-57150000D03*
%TD*%
D16*
%TO.P,H1,1*%
%TO.N,N/C*%
X37510000Y-35250000D03*
%TD*%
D19*
%TO.P,R1,1*%
%TO.N,SDA*%
X67090000Y-142000000D03*
D20*
%TO.P,R1,2*%
%TO.N,5V*%
X56930000Y-142000000D03*
%TD*%
D16*
%TO.P,H3,1*%
%TO.N,N/C*%
X37510000Y-155000000D03*
%TD*%
D19*
%TO.P,R2,1*%
%TO.N,SCL*%
X67170000Y-147000000D03*
D20*
%TO.P,R2,2*%
%TO.N,5V*%
X57010000Y-147000000D03*
%TD*%
D16*
%TO.P,H4,1*%
%TO.N,N/C*%
X75010000Y-155000000D03*
%TD*%
D17*
%TO.P,J5,1,Pin_1*%
%TO.N,5V*%
X64770000Y-46990000D03*
D18*
%TO.P,J5,2,Pin_2*%
%TO.N,5V_BUS*%
X64770000Y-44450000D03*
%TD*%
D21*
%TO.P,A1,1,TX1*%
%TO.N,unconnected-(A1-TX1-Pad1)*%
X74930000Y-63500000D03*
D20*
%TO.P,A1,2,RX1*%
%TO.N,unconnected-(A1-RX1-Pad2)*%
X72390000Y-63500000D03*
%TO.P,A1,3,~{RESET}*%
%TO.N,unconnected-(A1-~{RESET}-Pad3)*%
X69850000Y-63500000D03*
%TO.P,A1,4,GND*%
%TO.N,GND*%
X67310000Y-63500000D03*
%TO.P,A1,5,D2*%
%TO.N,unconnected-(A1-D2-Pad5)*%
X64770000Y-63500000D03*
%TO.P,A1,6,D3*%
%TO.N,unconnected-(A1-D3-Pad6)*%
X62230000Y-63500000D03*
%TO.P,A1,7,D4*%
%TO.N,EN*%
X59690000Y-63500000D03*
%TO.P,A1,8,D5*%
%TO.N,PWM1*%
X57150000Y-63500000D03*
%TO.P,A1,9,D6*%
%TO.N,PWM2*%
X54610000Y-63500000D03*
%TO.P,A1,10,D7*%
%TO.N,unconnected-(A1-D7-Pad10)*%
X52070000Y-63500000D03*
%TO.P,A1,11,D8*%
%TO.N,unconnected-(A1-D8-Pad11)*%
X49530000Y-63500000D03*
%TO.P,A1,12,D9*%
%TO.N,unconnected-(A1-D9-Pad12)*%
X46990000Y-63500000D03*
%TO.P,A1,13,D10*%
%TO.N,unconnected-(A1-D10-Pad13)*%
X44450000Y-63500000D03*
%TO.P,A1,14,MOSI*%
%TO.N,unconnected-(A1-MOSI-Pad14)*%
X41910000Y-63500000D03*
%TO.P,A1,15,MISO*%
%TO.N,unconnected-(A1-MISO-Pad15)*%
X39370000Y-63500000D03*
%TO.P,A1,16,SCK*%
%TO.N,unconnected-(A1-SCK-Pad16)*%
X39370000Y-78740000D03*
%TO.P,A1,17,3V3*%
%TO.N,unconnected-(A1-3V3-Pad17)*%
X41910000Y-78740000D03*
%TO.P,A1,18,AREF*%
%TO.N,unconnected-(A1-AREF-Pad18)*%
X44450000Y-78740000D03*
%TO.P,A1,19,A0*%
%TO.N,unconnected-(A1-A0-Pad19)*%
X46990000Y-78740000D03*
%TO.P,A1,20,A1*%
%TO.N,unconnected-(A1-A1-Pad20)*%
X49530000Y-78740000D03*
%TO.P,A1,21,A2*%
%TO.N,unconnected-(A1-A2-Pad21)*%
X52070000Y-78740000D03*
%TO.P,A1,22,A3*%
%TO.N,unconnected-(A1-A3-Pad22)*%
X54610000Y-78740000D03*
%TO.P,A1,23,SDA/A4*%
%TO.N,SDA*%
X57150000Y-78740000D03*
%TO.P,A1,24,SCL/A5*%
%TO.N,SCL*%
X59690000Y-78740000D03*
%TO.P,A1,25,A6*%
%TO.N,unconnected-(A1-A6-Pad25)*%
X62230000Y-78740000D03*
%TO.P,A1,26,A7*%
%TO.N,unconnected-(A1-A7-Pad26)*%
X64770000Y-78740000D03*
%TO.P,A1,27,+5V*%
%TO.N,5V_NANO*%
X67310000Y-78740000D03*
%TO.P,A1,28,~{RESET}*%
%TO.N,unconnected-(A1-~{RESET}-Pad28)*%
X69850000Y-78740000D03*
%TO.P,A1,29,GND*%
%TO.N,GND*%
X72390000Y-78740000D03*
%TO.P,A1,30,VIN*%
%TO.N,Net-(A1-VIN)*%
X74930000Y-78740000D03*
%TD*%
D17*
%TO.P,J6,1,Pin_1*%
%TO.N,5V*%
X48265000Y-136525000D03*
D18*
%TO.P,J6,2,Pin_2*%
%TO.N,5V_BARREL*%
X45725000Y-136525000D03*
%TD*%
D22*
%TO.N,GND*%
X52070000Y-44450000D03*
X52070000Y-70485000D03*
X59690000Y-70485000D03*
%TO.N,5V_NANO*%
X60960000Y-86360000D03*
%TD*%
D23*
%TO.N,PWM1*%
X56515000Y-63500000D02*
X46990000Y-73025000D01*
X57150000Y-63500000D02*
X56515000Y-63500000D01*
X49530000Y-94615000D02*
X49530000Y-110490000D01*
X49530000Y-110490000D02*
X45720000Y-114300000D01*
X35560000Y-80645000D02*
X49530000Y-94615000D01*
X38735000Y-73025000D02*
X35560000Y-76200000D01*
X46990000Y-73025000D02*
X38735000Y-73025000D01*
X35560000Y-76200000D02*
X35560000Y-80645000D01*
%TO.N,PWM2*%
X41910000Y-87631396D02*
X41910000Y-107950000D01*
X41910000Y-107950000D02*
X45720000Y-111760000D01*
X35110000Y-80831396D02*
X41910000Y-87631396D01*
X35110000Y-76013604D02*
X35110000Y-80831396D01*
X54610000Y-63500000D02*
X45535000Y-72575000D01*
X45535000Y-72575000D02*
X38548604Y-72575000D01*
X38548604Y-72575000D02*
X35110000Y-76013604D01*
%TO.N,SDA*%
X67090000Y-142000000D02*
X64550000Y-144540000D01*
X67090000Y-140750000D02*
X67090000Y-142000000D01*
X64550000Y-144540000D02*
X64550000Y-153460000D01*
X59055000Y-80645000D02*
X59055000Y-132715000D01*
X57150000Y-78740000D02*
X59055000Y-80645000D01*
X59055000Y-132715000D02*
X67090000Y-140750000D01*
%TO.N,SCL*%
X67090000Y-153460000D02*
X67090000Y-147080000D01*
X68580000Y-142875000D02*
X68580000Y-140970000D01*
X68580000Y-140970000D02*
X59690000Y-132080000D01*
X67090000Y-147080000D02*
X67170000Y-147000000D01*
X67170000Y-147000000D02*
X67170000Y-144285000D01*
X67170000Y-144285000D02*
X68580000Y-142875000D01*
X59690000Y-132080000D02*
X59690000Y-78740000D01*
%TO.N,5V_NANO*%
X67310000Y-78740000D02*
X67310000Y-80010000D01*
X67310000Y-80010000D02*
X60960000Y-86360000D01*
D24*
%TO.N,Net-(A1-VIN)*%
X77470000Y-59690000D02*
X77470000Y-76200000D01*
X74930000Y-57150000D02*
X77470000Y-59690000D01*
X77470000Y-76200000D02*
X74930000Y-78740000D01*
%TO.N,Net-(D1-K)*%
X66040000Y-57150000D02*
X72390000Y-57150000D01*
%TO.N,5V*%
X64770000Y-48260000D02*
X55880000Y-57150000D01*
X48265000Y-136525000D02*
X51455000Y-136525000D01*
X56930000Y-146920000D02*
X57010000Y-147000000D01*
X64770000Y-46990000D02*
X64770000Y-48260000D01*
X56930000Y-142000000D02*
X56930000Y-146920000D01*
X51455000Y-136525000D02*
X56930000Y-142000000D01*
%TO.N,5V_BARREL*%
X45725000Y-136525000D02*
X45720000Y-136530000D01*
X45720000Y-140335000D02*
X47010000Y-141625000D01*
X47010000Y-141625000D02*
X47010000Y-143510300D01*
X45720000Y-136530000D02*
X45720000Y-140335000D01*
%TO.N,5V_BUS*%
X60650000Y-35250000D02*
X64770000Y-39370000D01*
X61010000Y-35710000D02*
X60550000Y-35250000D01*
X64770000Y-39370000D02*
X64770000Y-44450000D01*
X60550000Y-35250000D02*
X60650000Y-35250000D01*
%TD*%
%TA.AperFunction,Conductor*%
%TO.N,GND*%
G36*
X42740703Y-88710739D02*
G01*
X42747181Y-88716771D01*
X48868181Y-94837771D01*
X48901666Y-94899094D01*
X48904500Y-94925452D01*
X48904500Y-110179546D01*
X48884815Y-110246585D01*
X48868181Y-110267227D01*
X47287340Y-111848068D01*
X47226017Y-111881553D01*
X47156325Y-111876569D01*
X47100392Y-111834697D01*
X47075975Y-111769233D01*
X47075659Y-111760387D01*
X47075659Y-111759999D01*
X47055063Y-111524596D01*
X47055063Y-111524592D01*
X46993903Y-111296337D01*
X46894035Y-111082171D01*
X46764157Y-110896684D01*
X46758494Y-110888597D01*
X46591402Y-110721506D01*
X46591401Y-110721505D01*
X46405405Y-110591269D01*
X46361781Y-110536692D01*
X46354588Y-110467193D01*
X46386110Y-110404839D01*
X46405405Y-110388119D01*
X46481373Y-110334925D01*
X45852533Y-109706086D01*
X45862315Y-109704680D01*
X45993100Y-109644952D01*
X46101761Y-109550798D01*
X46179493Y-109429844D01*
X46203076Y-109349524D01*
X46834925Y-109981373D01*
X46834926Y-109981373D01*
X46893598Y-109897582D01*
X46893600Y-109897578D01*
X46993429Y-109683492D01*
X46993433Y-109683483D01*
X47054567Y-109455326D01*
X47054569Y-109455315D01*
X47075157Y-109220001D01*
X47075157Y-109219998D01*
X47054569Y-108984684D01*
X47054567Y-108984673D01*
X46993433Y-108756516D01*
X46993429Y-108756507D01*
X46893600Y-108542423D01*
X46893599Y-108542421D01*
X46834925Y-108458626D01*
X46834925Y-108458625D01*
X46203076Y-109090475D01*
X46179493Y-109010156D01*
X46101761Y-108889202D01*
X45993100Y-108795048D01*
X45862315Y-108735320D01*
X45852533Y-108733913D01*
X46481373Y-108105073D01*
X46481373Y-108105072D01*
X46405405Y-108051880D01*
X46361780Y-107997304D01*
X46354586Y-107927805D01*
X46386108Y-107865451D01*
X46405399Y-107848734D01*
X46591401Y-107718495D01*
X46758495Y-107551401D01*
X46894035Y-107357830D01*
X46993903Y-107143663D01*
X47055063Y-106915408D01*
X47075659Y-106680000D01*
X47055063Y-106444592D01*
X46993903Y-106216337D01*
X46894035Y-106002171D01*
X46835537Y-105918626D01*
X46758494Y-105808597D01*
X46591402Y-105641506D01*
X46591396Y-105641501D01*
X46405842Y-105511575D01*
X46362217Y-105456998D01*
X46355023Y-105387500D01*
X46386546Y-105325145D01*
X46405842Y-105308425D01*
X46428026Y-105292891D01*
X46591401Y-105178495D01*
X46758495Y-105011401D01*
X46894035Y-104817830D01*
X46993903Y-104603663D01*
X47055063Y-104375408D01*
X47075659Y-104140000D01*
X47055063Y-103904592D01*
X46993903Y-103676337D01*
X46894035Y-103462171D01*
X46758495Y-103268599D01*
X46758494Y-103268597D01*
X46591402Y-103101506D01*
X46591396Y-103101501D01*
X46405842Y-102971575D01*
X46362217Y-102916998D01*
X46355023Y-102847500D01*
X46386546Y-102785145D01*
X46405842Y-102768425D01*
X46428026Y-102752891D01*
X46591401Y-102638495D01*
X46758495Y-102471401D01*
X46894035Y-102277830D01*
X46993903Y-102063663D01*
X47055063Y-101835408D01*
X47075659Y-101600000D01*
X47055063Y-101364592D01*
X46993903Y-101136337D01*
X46894035Y-100922171D01*
X46758495Y-100728599D01*
X46758494Y-100728597D01*
X46591402Y-100561506D01*
X46591401Y-100561505D01*
X46405405Y-100431269D01*
X46361781Y-100376692D01*
X46354588Y-100307193D01*
X46386110Y-100244839D01*
X46405405Y-100228119D01*
X46481373Y-100174925D01*
X45852533Y-99546086D01*
X45862315Y-99544680D01*
X45993100Y-99484952D01*
X46101761Y-99390798D01*
X46179493Y-99269844D01*
X46203076Y-99189524D01*
X46834925Y-99821373D01*
X46834926Y-99821373D01*
X46893598Y-99737582D01*
X46893600Y-99737578D01*
X46993429Y-99523492D01*
X46993433Y-99523483D01*
X47054567Y-99295326D01*
X47054569Y-99295315D01*
X47075157Y-99060001D01*
X47075157Y-99059998D01*
X47054569Y-98824684D01*
X47054567Y-98824673D01*
X46993433Y-98596516D01*
X46993429Y-98596507D01*
X46893600Y-98382423D01*
X46893599Y-98382421D01*
X46834925Y-98298626D01*
X46834925Y-98298625D01*
X46203076Y-98930475D01*
X46179493Y-98850156D01*
X46101761Y-98729202D01*
X45993100Y-98635048D01*
X45862315Y-98575320D01*
X45852533Y-98573913D01*
X46481373Y-97945073D01*
X46481373Y-97945072D01*
X46405405Y-97891880D01*
X46361780Y-97837304D01*
X46354586Y-97767805D01*
X46386108Y-97705451D01*
X46405399Y-97688734D01*
X46591401Y-97558495D01*
X46758495Y-97391401D01*
X46894035Y-97197830D01*
X46993903Y-96983663D01*
X47055063Y-96755408D01*
X47075659Y-96520000D01*
X47055063Y-96284592D01*
X46993903Y-96056337D01*
X46894035Y-95842171D01*
X46758495Y-95648599D01*
X46758494Y-95648597D01*
X46591402Y-95481506D01*
X46591395Y-95481501D01*
X46397834Y-95345967D01*
X46397830Y-95345965D01*
X46397828Y-95345964D01*
X46183663Y-95246097D01*
X46183659Y-95246096D01*
X46183655Y-95246094D01*
X45955413Y-95184938D01*
X45955403Y-95184936D01*
X45720001Y-95164341D01*
X45719999Y-95164341D01*
X45484596Y-95184936D01*
X45484586Y-95184938D01*
X45256344Y-95246094D01*
X45256335Y-95246098D01*
X45042171Y-95345964D01*
X45042169Y-95345965D01*
X44848597Y-95481505D01*
X44681505Y-95648597D01*
X44545965Y-95842169D01*
X44545964Y-95842171D01*
X44446098Y-96056335D01*
X44446094Y-96056344D01*
X44384938Y-96284586D01*
X44384936Y-96284596D01*
X44364341Y-96519999D01*
X44364341Y-96520000D01*
X44384936Y-96755403D01*
X44384938Y-96755413D01*
X44446094Y-96983655D01*
X44446096Y-96983659D01*
X44446097Y-96983663D01*
X44545965Y-97197830D01*
X44545967Y-97197834D01*
X44654281Y-97352521D01*
X44681505Y-97391401D01*
X44848599Y-97558495D01*
X45034594Y-97688730D01*
X45078218Y-97743307D01*
X45085411Y-97812806D01*
X45053889Y-97875160D01*
X45034593Y-97891880D01*
X44958626Y-97945072D01*
X44958625Y-97945072D01*
X45587466Y-98573913D01*
X45577685Y-98575320D01*
X45446900Y-98635048D01*
X45338239Y-98729202D01*
X45260507Y-98850156D01*
X45236923Y-98930476D01*
X44605072Y-98298625D01*
X44546401Y-98382419D01*
X44446570Y-98596507D01*
X44446566Y-98596516D01*
X44385432Y-98824673D01*
X44385430Y-98824684D01*
X44364843Y-99059998D01*
X44364843Y-99060001D01*
X44385430Y-99295315D01*
X44385432Y-99295326D01*
X44446566Y-99523483D01*
X44446570Y-99523492D01*
X44546400Y-99737579D01*
X44546402Y-99737583D01*
X44605072Y-99821373D01*
X44605073Y-99821373D01*
X45236923Y-99189523D01*
X45260507Y-99269844D01*
X45338239Y-99390798D01*
X45446900Y-99484952D01*
X45577685Y-99544680D01*
X45587466Y-99546086D01*
X44958625Y-100174925D01*
X45034594Y-100228119D01*
X45078219Y-100282696D01*
X45085413Y-100352194D01*
X45053890Y-100414549D01*
X45034595Y-100431269D01*
X44848594Y-100561508D01*
X44681505Y-100728597D01*
X44545965Y-100922169D01*
X44545964Y-100922171D01*
X44446098Y-101136335D01*
X44446094Y-101136344D01*
X44384938Y-101364586D01*
X44384936Y-101364596D01*
X44364341Y-101599999D01*
X44364341Y-101600000D01*
X44384936Y-101835403D01*
X44384938Y-101835413D01*
X44446094Y-102063655D01*
X44446096Y-102063659D01*
X44446097Y-102063663D01*
X44545965Y-102277830D01*
X44545967Y-102277834D01*
X44681501Y-102471395D01*
X44681506Y-102471402D01*
X44848597Y-102638493D01*
X44848603Y-102638498D01*
X45034158Y-102768425D01*
X45077783Y-102823002D01*
X45084977Y-102892500D01*
X45053454Y-102954855D01*
X45034158Y-102971575D01*
X44848597Y-103101505D01*
X44681505Y-103268597D01*
X44545965Y-103462169D01*
X44545964Y-103462171D01*
X44446098Y-103676335D01*
X44446094Y-103676344D01*
X44384938Y-103904586D01*
X44384936Y-103904596D01*
X44364341Y-104139999D01*
X44364341Y-104140000D01*
X44384936Y-104375403D01*
X44384938Y-104375413D01*
X44446094Y-104603655D01*
X44446096Y-104603659D01*
X44446097Y-104603663D01*
X44545965Y-104817830D01*
X44545967Y-104817834D01*
X44681501Y-105011395D01*
X44681506Y-105011402D01*
X44848597Y-105178493D01*
X44848603Y-105178498D01*
X45034158Y-105308425D01*
X45077783Y-105363002D01*
X45084977Y-105432500D01*
X45053454Y-105494855D01*
X45034158Y-105511575D01*
X44848597Y-105641505D01*
X44681505Y-105808597D01*
X44545965Y-106002169D01*
X44545964Y-106002171D01*
X44446098Y-106216335D01*
X44446094Y-106216344D01*
X44384938Y-106444586D01*
X44384936Y-106444596D01*
X44364341Y-106679999D01*
X44364341Y-106680000D01*
X44384936Y-106915403D01*
X44384938Y-106915413D01*
X44446094Y-107143655D01*
X44446096Y-107143659D01*
X44446097Y-107143663D01*
X44545847Y-107357578D01*
X44545965Y-107357830D01*
X44545967Y-107357834D01*
X44604462Y-107441373D01*
X44681505Y-107551401D01*
X44848599Y-107718495D01*
X45033721Y-107848119D01*
X45034594Y-107848730D01*
X45078218Y-107903307D01*
X45085411Y-107972806D01*
X45053889Y-108035160D01*
X45034593Y-108051880D01*
X44958626Y-108105072D01*
X44958625Y-108105072D01*
X45587466Y-108733913D01*
X45577685Y-108735320D01*
X45446900Y-108795048D01*
X45338239Y-108889202D01*
X45260507Y-109010156D01*
X45236923Y-109090476D01*
X44605072Y-108458625D01*
X44546401Y-108542419D01*
X44446570Y-108756507D01*
X44446566Y-108756516D01*
X44385432Y-108984673D01*
X44385430Y-108984684D01*
X44364843Y-109219998D01*
X44364843Y-109220890D01*
X44364731Y-109221268D01*
X44364371Y-109225393D01*
X44363542Y-109225320D01*
X44345158Y-109287929D01*
X44292354Y-109333684D01*
X44223196Y-109343628D01*
X44159640Y-109314603D01*
X44153162Y-109308571D01*
X42571819Y-107727228D01*
X42538334Y-107665905D01*
X42535500Y-107639547D01*
X42535500Y-88804452D01*
X42555185Y-88737413D01*
X42607989Y-88691658D01*
X42677147Y-88681714D01*
X42740703Y-88710739D01*
G37*
%TD.AperFunction*%
%TA.AperFunction,Conductor*%
G36*
X79952539Y-30770185D02*
G01*
X79998294Y-30822989D01*
X80009500Y-30874500D01*
X80009500Y-159625500D01*
X79989815Y-159692539D01*
X79937011Y-159738294D01*
X79885500Y-159749500D01*
X32634500Y-159749500D01*
X32567461Y-159729815D01*
X32521706Y-159677011D01*
X32510500Y-159625500D01*
X32510500Y-155000002D01*
X34254726Y-155000002D01*
X34273808Y-155351954D01*
X34330833Y-155699793D01*
X34330834Y-155699796D01*
X34425126Y-156039408D01*
X34425127Y-156039410D01*
X34555588Y-156366844D01*
X34555597Y-156366862D01*
X34697536Y-156634587D01*
X34720695Y-156678269D01*
X34851642Y-156871402D01*
X34918498Y-156970006D01*
X34918505Y-156970016D01*
X35091801Y-157174035D01*
X35146686Y-157238650D01*
X35402580Y-157481046D01*
X35683182Y-157694354D01*
X35985202Y-157876074D01*
X35985206Y-157876075D01*
X35985210Y-157876078D01*
X36305088Y-158024070D01*
X36305092Y-158024070D01*
X36305099Y-158024074D01*
X36639122Y-158136619D01*
X36983355Y-158212391D01*
X37333763Y-158250500D01*
X37333769Y-158250500D01*
X37686231Y-158250500D01*
X37686237Y-158250500D01*
X38036645Y-158212391D01*
X38380878Y-158136619D01*
X38714901Y-158024074D01*
X38714908Y-158024070D01*
X38714911Y-158024070D01*
X39034789Y-157876078D01*
X39034798Y-157876074D01*
X39336818Y-157694354D01*
X39617420Y-157481046D01*
X39873314Y-157238650D01*
X40101501Y-156970008D01*
X40299305Y-156678269D01*
X40464407Y-156366854D01*
X40594871Y-156039414D01*
X40689168Y-155699788D01*
X40746191Y-155351957D01*
X40765274Y-155000000D01*
X40760412Y-154910337D01*
X40748086Y-154683002D01*
X40746191Y-154648043D01*
X40689168Y-154300212D01*
X40634195Y-154102217D01*
X40594873Y-153960591D01*
X40594872Y-153960589D01*
X40580159Y-153923663D01*
X40553058Y-153855645D01*
X40464411Y-153633155D01*
X40464402Y-153633137D01*
X40299305Y-153321731D01*
X40101501Y-153029992D01*
X40101497Y-153029987D01*
X40101494Y-153029983D01*
X39873314Y-152761350D01*
X39690943Y-152588599D01*
X39617420Y-152518954D01*
X39617413Y-152518948D01*
X39617410Y-152518946D01*
X39452791Y-152393806D01*
X39336818Y-152305646D01*
X39304743Y-152286347D01*
X39034802Y-152123928D01*
X39034789Y-152123921D01*
X38714911Y-151975929D01*
X38714906Y-151975928D01*
X38714903Y-151975927D01*
X38714901Y-151975926D01*
X38608432Y-151940052D01*
X38380880Y-151863381D01*
X38036643Y-151787608D01*
X37686238Y-151749500D01*
X37686237Y-151749500D01*
X37333763Y-151749500D01*
X37333761Y-151749500D01*
X36983356Y-151787608D01*
X36639119Y-151863381D01*
X36305093Y-151975928D01*
X36305088Y-151975929D01*
X35985210Y-152123921D01*
X35985197Y-152123928D01*
X35683184Y-152305644D01*
X35402589Y-152518946D01*
X35402580Y-152518954D01*
X35146685Y-152761350D01*
X34918505Y-153029983D01*
X34918498Y-153029993D01*
X34720695Y-153321730D01*
X34555597Y-153633137D01*
X34555588Y-153633155D01*
X34425127Y-153960589D01*
X34425126Y-153960591D01*
X34330834Y-154300203D01*
X34330833Y-154300206D01*
X34273808Y-154648045D01*
X34254726Y-154999997D01*
X34254726Y-155000002D01*
X32510500Y-155000002D01*
X32510500Y-150254700D01*
X44779855Y-150254700D01*
X44783797Y-150283813D01*
X44783798Y-150283817D01*
X44853290Y-150497692D01*
X44959851Y-150695715D01*
X44959853Y-150695718D01*
X45100061Y-150871534D01*
X45269405Y-151019484D01*
X45269413Y-151019490D01*
X45462450Y-151134826D01*
X45462456Y-151134828D01*
X45672997Y-151213847D01*
X45894257Y-151254000D01*
X46760000Y-151254000D01*
X46760000Y-150242949D01*
X46740649Y-150207511D01*
X46743025Y-150145586D01*
X46746169Y-150135088D01*
X46746932Y-150121988D01*
X46770482Y-150056208D01*
X46825857Y-150013601D01*
X46870722Y-150005200D01*
X47152035Y-150005200D01*
X47219074Y-150024885D01*
X47264829Y-150077689D01*
X47274151Y-150107668D01*
X47282860Y-150157061D01*
X47275116Y-150226501D01*
X47260000Y-150249026D01*
X47260000Y-151254000D01*
X48069403Y-151254000D01*
X48069406Y-151253999D01*
X48237273Y-151238892D01*
X48454037Y-151179069D01*
X48454050Y-151179064D01*
X48656648Y-151081498D01*
X48656656Y-151081494D01*
X48838579Y-150949319D01*
X48838587Y-150949313D01*
X48993986Y-150786778D01*
X49117874Y-150599097D01*
X49206257Y-150392313D01*
X49206259Y-150392307D01*
X49237668Y-150254700D01*
X48877235Y-150254700D01*
X48810196Y-150235015D01*
X48764441Y-150182211D01*
X48753445Y-150123490D01*
X48756318Y-150074149D01*
X48762907Y-149961040D01*
X48752185Y-149900232D01*
X48759929Y-149830793D01*
X48803986Y-149776564D01*
X48870367Y-149754762D01*
X48874301Y-149754700D01*
X49240145Y-149754700D01*
X49236202Y-149725586D01*
X49236201Y-149725582D01*
X49166709Y-149511707D01*
X49060148Y-149313684D01*
X49060146Y-149313681D01*
X48919938Y-149137865D01*
X48750594Y-148989915D01*
X48750586Y-148989909D01*
X48557549Y-148874573D01*
X48557543Y-148874571D01*
X48347002Y-148795552D01*
X48125743Y-148755400D01*
X47260000Y-148755400D01*
X47260000Y-149766451D01*
X47279350Y-149801888D01*
X47276976Y-149863806D01*
X47273832Y-149874307D01*
X47273830Y-149874316D01*
X47273068Y-149887411D01*
X47249518Y-149953192D01*
X47194143Y-149995799D01*
X47149278Y-150004200D01*
X46867965Y-150004200D01*
X46800926Y-149984515D01*
X46755171Y-149931711D01*
X46745850Y-149901737D01*
X46737139Y-149852337D01*
X46744883Y-149782900D01*
X46760000Y-149760373D01*
X46760000Y-148755400D01*
X45950593Y-148755400D01*
X45782726Y-148770507D01*
X45565962Y-148830330D01*
X45565949Y-148830335D01*
X45363351Y-148927901D01*
X45363343Y-148927905D01*
X45181420Y-149060080D01*
X45181412Y-149060086D01*
X45026013Y-149222621D01*
X44902125Y-149410302D01*
X44813742Y-149617086D01*
X44813740Y-149617092D01*
X44782332Y-149754699D01*
X44782332Y-149754700D01*
X45142765Y-149754700D01*
X45209804Y-149774385D01*
X45255559Y-149827189D01*
X45266555Y-149885910D01*
X45257093Y-150048359D01*
X45257093Y-150048360D01*
X45267815Y-150109168D01*
X45260071Y-150178607D01*
X45216014Y-150232836D01*
X45149633Y-150254638D01*
X45145699Y-150254700D01*
X44779855Y-150254700D01*
X32510500Y-150254700D01*
X32510500Y-148066928D01*
X50459200Y-148066928D01*
X50474313Y-148234862D01*
X50534160Y-148451713D01*
X50534165Y-148451726D01*
X50631770Y-148654406D01*
X50631774Y-148654414D01*
X50764002Y-148836410D01*
X50764003Y-148836412D01*
X50926614Y-148991884D01*
X51114361Y-149115815D01*
X51114363Y-149115816D01*
X51114365Y-149115817D01*
X51321229Y-149204235D01*
X51540557Y-149254295D01*
X51765299Y-149264388D01*
X51988231Y-149234190D01*
X52202188Y-149164671D01*
X52400294Y-149058066D01*
X52576181Y-148917801D01*
X52724197Y-148748383D01*
X52839583Y-148555260D01*
X52918631Y-148344637D01*
X52932020Y-148270852D01*
X52958800Y-148123286D01*
X52958800Y-145948075D01*
X52958800Y-145948068D01*
X52943686Y-145780138D01*
X52913390Y-145670363D01*
X52883839Y-145563286D01*
X52883834Y-145563273D01*
X52786229Y-145360593D01*
X52786225Y-145360585D01*
X52653997Y-145178589D01*
X52653996Y-145178587D01*
X52491385Y-145023115D01*
X52303638Y-144899184D01*
X52252287Y-144877235D01*
X52096771Y-144810765D01*
X52096764Y-144810763D01*
X52096760Y-144810762D01*
X51877443Y-144760705D01*
X51652705Y-144750612D01*
X51652704Y-144750612D01*
X51652701Y-144750612D01*
X51429769Y-144780810D01*
X51429766Y-144780810D01*
X51429765Y-144780811D01*
X51215810Y-144850329D01*
X51017704Y-144956935D01*
X50841821Y-145097196D01*
X50693803Y-145266616D01*
X50693802Y-145266618D01*
X50578420Y-145459732D01*
X50578418Y-145459738D01*
X50499368Y-145670363D01*
X50459200Y-145891713D01*
X50459200Y-148066928D01*
X32510500Y-148066928D01*
X32510500Y-136525000D01*
X44369341Y-136525000D01*
X44389936Y-136760403D01*
X44389938Y-136760413D01*
X44451094Y-136988655D01*
X44451096Y-136988659D01*
X44451097Y-136988663D01*
X44535499Y-137169663D01*
X44550965Y-137202830D01*
X44550967Y-137202834D01*
X44659281Y-137357521D01*
X44686505Y-137396401D01*
X44686511Y-137396407D01*
X44689982Y-137400544D01*
X44688114Y-137402111D01*
X44716666Y-137454400D01*
X44719500Y-137480758D01*
X44719500Y-140322283D01*
X44717243Y-140411362D01*
X44717243Y-140411370D01*
X44728064Y-140471739D01*
X44728718Y-140476404D01*
X44734925Y-140537430D01*
X44734927Y-140537444D01*
X44745208Y-140570213D01*
X44747079Y-140577837D01*
X44753142Y-140611652D01*
X44753142Y-140611655D01*
X44768710Y-140650629D01*
X44774957Y-140666268D01*
X44775894Y-140668612D01*
X44777474Y-140673051D01*
X44795841Y-140731588D01*
X44795844Y-140731595D01*
X44812509Y-140761619D01*
X44815879Y-140768714D01*
X44828622Y-140800614D01*
X44828627Y-140800624D01*
X44862377Y-140851833D01*
X44864818Y-140855863D01*
X44894588Y-140909498D01*
X44894589Y-140909499D01*
X44894591Y-140909502D01*
X44916968Y-140935567D01*
X44921693Y-140941835D01*
X44933778Y-140960171D01*
X44940598Y-140970519D01*
X44983978Y-141013899D01*
X44987169Y-141017343D01*
X45017559Y-141052742D01*
X45027134Y-141063895D01*
X45054294Y-141084918D01*
X45060190Y-141090111D01*
X45973181Y-142003102D01*
X46006666Y-142064425D01*
X46009500Y-142090783D01*
X46009500Y-142636500D01*
X45989815Y-142703539D01*
X45937011Y-142749294D01*
X45885500Y-142760500D01*
X45696568Y-142760500D01*
X45663230Y-142763500D01*
X45528637Y-142775613D01*
X45311786Y-142835460D01*
X45311773Y-142835465D01*
X45109093Y-142933070D01*
X45109085Y-142933074D01*
X44927089Y-143065302D01*
X44927087Y-143065303D01*
X44771615Y-143227914D01*
X44647684Y-143415661D01*
X44559265Y-143622530D01*
X44559262Y-143622539D01*
X44509205Y-143841853D01*
X44509205Y-143841859D01*
X44499892Y-144049241D01*
X44499112Y-144066599D01*
X44529310Y-144289531D01*
X44529311Y-144289534D01*
X44598829Y-144503489D01*
X44705435Y-144701595D01*
X44845696Y-144877478D01*
X44845698Y-144877479D01*
X44845699Y-144877481D01*
X45015117Y-145025497D01*
X45098893Y-145075551D01*
X45208232Y-145140879D01*
X45208234Y-145140879D01*
X45208240Y-145140883D01*
X45418863Y-145219931D01*
X45640213Y-145260100D01*
X45640216Y-145260100D01*
X48323425Y-145260100D01*
X48323432Y-145260100D01*
X48491362Y-145244986D01*
X48582147Y-145219931D01*
X48708213Y-145185139D01*
X48708215Y-145185138D01*
X48708223Y-145185136D01*
X48910913Y-145087526D01*
X49092916Y-144955293D01*
X49248383Y-144792687D01*
X49372317Y-144604935D01*
X49460735Y-144398071D01*
X49510795Y-144178743D01*
X49520888Y-143954001D01*
X49490690Y-143731069D01*
X49421171Y-143517112D01*
X49314566Y-143319006D01*
X49180178Y-143150488D01*
X49174303Y-143143121D01*
X49004883Y-142995103D01*
X49004881Y-142995102D01*
X48811767Y-142879720D01*
X48811762Y-142879718D01*
X48811760Y-142879717D01*
X48693848Y-142835464D01*
X48601136Y-142800668D01*
X48379787Y-142760500D01*
X48379784Y-142760500D01*
X48134500Y-142760500D01*
X48067461Y-142740815D01*
X48021706Y-142688011D01*
X48010500Y-142636500D01*
X48010500Y-141637675D01*
X48012756Y-141548642D01*
X48012755Y-141548641D01*
X48012756Y-141548636D01*
X48001929Y-141488233D01*
X48001282Y-141483620D01*
X47995074Y-141422562D01*
X47995073Y-141422560D01*
X47995073Y-141422557D01*
X47984790Y-141389787D01*
X47982917Y-141382154D01*
X47976858Y-141348348D01*
X47976426Y-141347267D01*
X47954102Y-141291378D01*
X47952521Y-141286937D01*
X47934157Y-141228407D01*
X47917488Y-141198378D01*
X47914117Y-141191278D01*
X47901378Y-141159386D01*
X47901377Y-141159383D01*
X47867620Y-141108163D01*
X47865180Y-141104134D01*
X47854379Y-141084675D01*
X47835409Y-141050498D01*
X47835407Y-141050495D01*
X47813033Y-141024434D01*
X47808302Y-141018159D01*
X47805486Y-141013886D01*
X47789402Y-140989481D01*
X47746012Y-140946091D01*
X47742822Y-140942648D01*
X47702867Y-140896106D01*
X47702863Y-140896102D01*
X47675698Y-140875074D01*
X47669803Y-140869882D01*
X46756819Y-139956898D01*
X46723334Y-139895575D01*
X46720500Y-139869217D01*
X46720500Y-137632454D01*
X46740185Y-137565415D01*
X46792989Y-137519660D01*
X46862147Y-137509716D01*
X46925703Y-137538741D01*
X46960682Y-137589121D01*
X46971202Y-137617328D01*
X46971206Y-137617335D01*
X47057452Y-137732544D01*
X47057455Y-137732547D01*
X47172664Y-137818793D01*
X47172671Y-137818797D01*
X47307517Y-137869091D01*
X47307516Y-137869091D01*
X47314444Y-137869835D01*
X47367127Y-137875500D01*
X49162872Y-137875499D01*
X49222483Y-137869091D01*
X49357331Y-137818796D01*
X49472546Y-137732546D01*
X49558796Y-137617331D01*
X49562960Y-137606165D01*
X49604829Y-137550234D01*
X49670293Y-137525816D01*
X49679141Y-137525500D01*
X50989217Y-137525500D01*
X51056256Y-137545185D01*
X51076898Y-137561819D01*
X55603112Y-142088033D01*
X55636597Y-142149356D01*
X55638959Y-142164906D01*
X55644364Y-142226687D01*
X55644366Y-142226697D01*
X55703258Y-142446488D01*
X55703261Y-142446496D01*
X55799432Y-142652734D01*
X55903016Y-142800669D01*
X55907075Y-142806465D01*
X55929402Y-142872671D01*
X55929500Y-142877588D01*
X55929500Y-146236663D01*
X55909815Y-146303702D01*
X55907076Y-146307786D01*
X55879432Y-146347266D01*
X55783261Y-146553502D01*
X55783258Y-146553511D01*
X55724366Y-146773302D01*
X55724364Y-146773313D01*
X55704532Y-146999998D01*
X55704532Y-147000001D01*
X55724364Y-147226686D01*
X55724366Y-147226697D01*
X55783258Y-147446488D01*
X55783261Y-147446497D01*
X55879431Y-147652732D01*
X55879432Y-147652734D01*
X56009954Y-147839141D01*
X56170858Y-148000045D01*
X56170861Y-148000047D01*
X56357266Y-148130568D01*
X56563504Y-148226739D01*
X56563509Y-148226740D01*
X56563511Y-148226741D01*
X56616415Y-148240916D01*
X56783308Y-148285635D01*
X56945230Y-148299801D01*
X57009998Y-148305468D01*
X57010000Y-148305468D01*
X57010002Y-148305468D01*
X57066673Y-148300509D01*
X57236692Y-148285635D01*
X57456496Y-148226739D01*
X57662734Y-148130568D01*
X57849139Y-148000047D01*
X58010047Y-147839139D01*
X58140568Y-147652734D01*
X58236739Y-147446496D01*
X58295635Y-147226692D01*
X58315468Y-147000000D01*
X58295635Y-146773308D01*
X58236739Y-146553504D01*
X58140568Y-146347266D01*
X58010047Y-146160861D01*
X58010045Y-146160858D01*
X57966819Y-146117632D01*
X57933334Y-146056309D01*
X57930500Y-146029951D01*
X57930500Y-142877588D01*
X57950185Y-142810549D01*
X57952925Y-142806465D01*
X58060568Y-142652734D01*
X58156739Y-142446496D01*
X58215635Y-142226692D01*
X58235468Y-142000000D01*
X58215635Y-141773308D01*
X58156739Y-141553504D01*
X58060568Y-141347266D01*
X57930047Y-141160861D01*
X57930045Y-141160858D01*
X57769141Y-140999954D01*
X57582734Y-140869432D01*
X57582732Y-140869431D01*
X57376497Y-140773261D01*
X57376488Y-140773258D01*
X57156697Y-140714366D01*
X57156687Y-140714364D01*
X57094905Y-140708959D01*
X57029836Y-140683506D01*
X57018032Y-140673112D01*
X52171452Y-135826532D01*
X52110061Y-135761949D01*
X52110060Y-135761948D01*
X52110059Y-135761947D01*
X52082204Y-135742559D01*
X52059709Y-135726902D01*
X52055946Y-135724064D01*
X52008413Y-135685305D01*
X52008406Y-135685300D01*
X51977959Y-135669397D01*
X51971251Y-135665334D01*
X51943049Y-135645705D01*
X51943046Y-135645703D01*
X51943045Y-135645703D01*
X51943041Y-135645701D01*
X51886680Y-135621514D01*
X51882424Y-135619493D01*
X51828057Y-135591094D01*
X51828050Y-135591091D01*
X51828049Y-135591091D01*
X51822008Y-135589362D01*
X51795030Y-135581642D01*
X51787630Y-135579008D01*
X51756057Y-135565459D01*
X51756058Y-135565459D01*
X51695966Y-135553109D01*
X51691391Y-135551986D01*
X51632420Y-135535113D01*
X51632425Y-135535113D01*
X51598158Y-135532503D01*
X51590380Y-135531412D01*
X51556742Y-135524500D01*
X51556741Y-135524500D01*
X51495402Y-135524500D01*
X51490695Y-135524321D01*
X51485121Y-135523896D01*
X51429524Y-135519662D01*
X51409589Y-135522201D01*
X51395440Y-135524003D01*
X51387611Y-135524500D01*
X49679141Y-135524500D01*
X49612102Y-135504815D01*
X49566347Y-135452011D01*
X49562969Y-135443859D01*
X49558796Y-135432669D01*
X49558793Y-135432665D01*
X49558793Y-135432664D01*
X49472547Y-135317455D01*
X49472544Y-135317452D01*
X49357335Y-135231206D01*
X49357328Y-135231202D01*
X49222482Y-135180908D01*
X49222483Y-135180908D01*
X49162883Y-135174501D01*
X49162881Y-135174500D01*
X49162873Y-135174500D01*
X49162864Y-135174500D01*
X47367129Y-135174500D01*
X47367123Y-135174501D01*
X47307516Y-135180908D01*
X47172671Y-135231202D01*
X47172664Y-135231206D01*
X47057455Y-135317452D01*
X47057452Y-135317455D01*
X46971206Y-135432664D01*
X46971203Y-135432669D01*
X46922189Y-135564083D01*
X46880317Y-135620016D01*
X46814853Y-135644433D01*
X46746580Y-135629581D01*
X46718326Y-135608430D01*
X46596402Y-135486506D01*
X46596395Y-135486501D01*
X46402834Y-135350967D01*
X46402830Y-135350965D01*
X46402828Y-135350964D01*
X46188663Y-135251097D01*
X46188659Y-135251096D01*
X46188655Y-135251094D01*
X45960413Y-135189938D01*
X45960403Y-135189936D01*
X45725001Y-135169341D01*
X45724999Y-135169341D01*
X45489596Y-135189936D01*
X45489586Y-135189938D01*
X45261344Y-135251094D01*
X45261335Y-135251098D01*
X45047171Y-135350964D01*
X45047169Y-135350965D01*
X44853597Y-135486505D01*
X44686505Y-135653597D01*
X44550965Y-135847169D01*
X44550964Y-135847171D01*
X44451098Y-136061335D01*
X44451094Y-136061344D01*
X44389938Y-136289586D01*
X44389936Y-136289596D01*
X44369341Y-136524999D01*
X44369341Y-136525000D01*
X32510500Y-136525000D01*
X32510500Y-75993799D01*
X34479840Y-75993799D01*
X34484225Y-76040187D01*
X34484500Y-76046025D01*
X34484500Y-80748651D01*
X34482775Y-80764268D01*
X34483061Y-80764295D01*
X34482326Y-80772061D01*
X34484500Y-80841210D01*
X34484500Y-80870739D01*
X34484501Y-80870756D01*
X34485368Y-80877627D01*
X34485826Y-80883446D01*
X34487290Y-80930020D01*
X34487291Y-80930023D01*
X34492880Y-80949263D01*
X34496824Y-80968307D01*
X34499336Y-80988187D01*
X34516490Y-81031515D01*
X34518382Y-81037043D01*
X34531381Y-81081784D01*
X34541580Y-81099030D01*
X34550138Y-81116499D01*
X34557514Y-81135128D01*
X34584898Y-81172819D01*
X34588106Y-81177703D01*
X34611827Y-81217812D01*
X34611833Y-81217820D01*
X34625990Y-81231976D01*
X34638628Y-81246772D01*
X34650405Y-81262982D01*
X34650406Y-81262983D01*
X34686309Y-81292684D01*
X34690620Y-81296606D01*
X38817195Y-85423181D01*
X41248181Y-87854167D01*
X41281666Y-87915490D01*
X41284500Y-87941848D01*
X41284500Y-107867255D01*
X41282775Y-107882872D01*
X41283061Y-107882899D01*
X41282326Y-107890665D01*
X41284500Y-107959814D01*
X41284500Y-107989343D01*
X41284501Y-107989360D01*
X41285368Y-107996231D01*
X41285826Y-108002050D01*
X41287290Y-108048624D01*
X41287291Y-108048627D01*
X41292880Y-108067867D01*
X41296824Y-108086911D01*
X41299119Y-108105072D01*
X41299336Y-108106791D01*
X41316490Y-108150119D01*
X41318382Y-108155647D01*
X41331381Y-108200388D01*
X41341580Y-108217634D01*
X41350138Y-108235103D01*
X41357514Y-108253732D01*
X41384898Y-108291423D01*
X41388106Y-108296307D01*
X41411827Y-108336416D01*
X41411833Y-108336424D01*
X41425990Y-108350580D01*
X41438628Y-108365376D01*
X41450405Y-108381586D01*
X41450406Y-108381587D01*
X41486309Y-108411288D01*
X41490620Y-108415210D01*
X42972988Y-109897578D01*
X44379762Y-111304352D01*
X44413247Y-111365675D01*
X44411856Y-111424126D01*
X44384938Y-111524586D01*
X44384936Y-111524596D01*
X44364341Y-111759999D01*
X44364341Y-111760000D01*
X44384936Y-111995403D01*
X44384938Y-111995413D01*
X44446094Y-112223655D01*
X44446096Y-112223659D01*
X44446097Y-112223663D01*
X44545965Y-112437830D01*
X44545967Y-112437834D01*
X44681501Y-112631395D01*
X44681506Y-112631402D01*
X44848597Y-112798493D01*
X44848603Y-112798498D01*
X45034158Y-112928425D01*
X45077783Y-112983002D01*
X45084977Y-113052500D01*
X45053454Y-113114855D01*
X45034158Y-113131575D01*
X44848597Y-113261505D01*
X44681505Y-113428597D01*
X44545965Y-113622169D01*
X44545964Y-113622171D01*
X44446098Y-113836335D01*
X44446094Y-113836344D01*
X44384938Y-114064586D01*
X44384936Y-114064596D01*
X44364341Y-114299999D01*
X44364341Y-114300000D01*
X44384936Y-114535403D01*
X44384938Y-114535413D01*
X44446094Y-114763655D01*
X44446096Y-114763659D01*
X44446097Y-114763663D01*
X44545965Y-114977830D01*
X44545967Y-114977834D01*
X44681501Y-115171395D01*
X44681506Y-115171402D01*
X44848597Y-115338493D01*
X44848603Y-115338498D01*
X45034158Y-115468425D01*
X45077783Y-115523002D01*
X45084977Y-115592500D01*
X45053454Y-115654855D01*
X45034158Y-115671575D01*
X44848597Y-115801505D01*
X44681505Y-115968597D01*
X44545965Y-116162169D01*
X44545964Y-116162171D01*
X44446098Y-116376335D01*
X44446094Y-116376344D01*
X44384938Y-116604586D01*
X44384936Y-116604596D01*
X44364341Y-116839999D01*
X44364341Y-116840000D01*
X44384936Y-117075403D01*
X44384938Y-117075413D01*
X44446094Y-117303655D01*
X44446096Y-117303659D01*
X44446097Y-117303663D01*
X44545965Y-117517830D01*
X44545967Y-117517834D01*
X44681501Y-117711395D01*
X44681506Y-117711402D01*
X44848597Y-117878493D01*
X44848603Y-117878498D01*
X45034158Y-118008425D01*
X45077783Y-118063002D01*
X45084977Y-118132500D01*
X45053454Y-118194855D01*
X45034158Y-118211575D01*
X44848597Y-118341505D01*
X44681505Y-118508597D01*
X44545965Y-118702169D01*
X44545964Y-118702171D01*
X44446098Y-118916335D01*
X44446094Y-118916344D01*
X44384938Y-119144586D01*
X44384936Y-119144596D01*
X44364341Y-119379999D01*
X44364341Y-119380000D01*
X44384936Y-119615403D01*
X44384938Y-119615413D01*
X44446094Y-119843655D01*
X44446096Y-119843659D01*
X44446097Y-119843663D01*
X44545965Y-120057830D01*
X44545967Y-120057834D01*
X44654281Y-120212521D01*
X44681505Y-120251401D01*
X44848599Y-120418495D01*
X44945384Y-120486265D01*
X45042165Y-120554032D01*
X45042167Y-120554033D01*
X45042170Y-120554035D01*
X45256337Y-120653903D01*
X45484592Y-120715063D01*
X45672918Y-120731539D01*
X45719999Y-120735659D01*
X45720000Y-120735659D01*
X45720001Y-120735659D01*
X45759234Y-120732226D01*
X45955408Y-120715063D01*
X46183663Y-120653903D01*
X46397830Y-120554035D01*
X46591401Y-120418495D01*
X46758495Y-120251401D01*
X46894035Y-120057830D01*
X46993903Y-119843663D01*
X47055063Y-119615408D01*
X47075659Y-119380000D01*
X47055063Y-119144592D01*
X46993903Y-118916337D01*
X46894035Y-118702171D01*
X46758495Y-118508599D01*
X46758494Y-118508597D01*
X46591402Y-118341506D01*
X46591396Y-118341501D01*
X46405842Y-118211575D01*
X46362217Y-118156998D01*
X46355023Y-118087500D01*
X46386546Y-118025145D01*
X46405842Y-118008425D01*
X46428026Y-117992891D01*
X46591401Y-117878495D01*
X46758495Y-117711401D01*
X46894035Y-117517830D01*
X46993903Y-117303663D01*
X47055063Y-117075408D01*
X47075659Y-116840000D01*
X47055063Y-116604592D01*
X46993903Y-116376337D01*
X46894035Y-116162171D01*
X46758495Y-115968599D01*
X46758494Y-115968597D01*
X46591402Y-115801506D01*
X46591396Y-115801501D01*
X46405842Y-115671575D01*
X46362217Y-115616998D01*
X46355023Y-115547500D01*
X46386546Y-115485145D01*
X46405842Y-115468425D01*
X46428026Y-115452891D01*
X46591401Y-115338495D01*
X46758495Y-115171401D01*
X46894035Y-114977830D01*
X46993903Y-114763663D01*
X47055063Y-114535408D01*
X47075659Y-114300000D01*
X47055063Y-114064592D01*
X47028143Y-113964125D01*
X47029806Y-113894276D01*
X47060235Y-113844353D01*
X49913786Y-110990802D01*
X49926048Y-110980980D01*
X49925865Y-110980759D01*
X49931867Y-110975792D01*
X49931877Y-110975786D01*
X49979241Y-110925348D01*
X50000120Y-110904470D01*
X50004373Y-110898986D01*
X50008150Y-110894563D01*
X50040062Y-110860582D01*
X50049714Y-110843023D01*
X50060389Y-110826772D01*
X50072674Y-110810936D01*
X50091186Y-110768152D01*
X50093742Y-110762935D01*
X50116197Y-110722092D01*
X50121180Y-110702680D01*
X50127477Y-110684291D01*
X50135438Y-110665895D01*
X50142729Y-110619853D01*
X50143908Y-110614162D01*
X50155500Y-110569019D01*
X50155500Y-110548983D01*
X50157027Y-110529582D01*
X50160160Y-110509804D01*
X50155775Y-110463415D01*
X50155500Y-110457577D01*
X50155500Y-94697737D01*
X50157224Y-94682123D01*
X50156938Y-94682096D01*
X50157672Y-94674333D01*
X50155500Y-94605202D01*
X50155500Y-94575651D01*
X50155500Y-94575650D01*
X50154629Y-94568759D01*
X50154172Y-94562945D01*
X50152709Y-94516374D01*
X50152709Y-94516372D01*
X50147120Y-94497137D01*
X50143174Y-94478084D01*
X50140664Y-94458208D01*
X50123501Y-94414859D01*
X50121614Y-94409346D01*
X50108617Y-94364610D01*
X50108616Y-94364608D01*
X50098421Y-94347369D01*
X50089860Y-94329893D01*
X50082486Y-94311269D01*
X50082486Y-94311267D01*
X50072474Y-94297488D01*
X50055083Y-94273550D01*
X50051900Y-94268705D01*
X50028170Y-94228579D01*
X50028165Y-94228573D01*
X50014005Y-94214413D01*
X50001370Y-94199620D01*
X49989593Y-94183412D01*
X49953693Y-94153713D01*
X49949381Y-94149790D01*
X36221819Y-80422228D01*
X36188334Y-80360905D01*
X36185500Y-80334547D01*
X36185500Y-76510452D01*
X36205185Y-76443413D01*
X36221819Y-76422771D01*
X38957772Y-73686819D01*
X39019095Y-73653334D01*
X39045453Y-73650500D01*
X46907257Y-73650500D01*
X46922877Y-73652224D01*
X46922904Y-73651939D01*
X46930660Y-73652671D01*
X46930667Y-73652673D01*
X46999814Y-73650500D01*
X47029350Y-73650500D01*
X47036228Y-73649630D01*
X47042041Y-73649172D01*
X47088627Y-73647709D01*
X47107869Y-73642117D01*
X47126912Y-73638174D01*
X47146792Y-73635664D01*
X47190122Y-73618507D01*
X47195646Y-73616617D01*
X47199396Y-73615527D01*
X47240390Y-73603618D01*
X47257629Y-73593422D01*
X47275103Y-73584862D01*
X47293727Y-73577488D01*
X47293727Y-73577487D01*
X47293732Y-73577486D01*
X47331449Y-73550082D01*
X47336305Y-73546892D01*
X47376420Y-73523170D01*
X47390589Y-73508999D01*
X47405379Y-73496368D01*
X47421587Y-73484594D01*
X47451299Y-73448676D01*
X47455212Y-73444376D01*
X56289449Y-64610140D01*
X56350770Y-64576657D01*
X56420462Y-64581641D01*
X56448251Y-64596248D01*
X56497264Y-64630567D01*
X56497266Y-64630568D01*
X56703504Y-64726739D01*
X56923308Y-64785635D01*
X57085230Y-64799801D01*
X57149998Y-64805468D01*
X57150000Y-64805468D01*
X57150002Y-64805468D01*
X57206807Y-64800498D01*
X57376692Y-64785635D01*
X57596496Y-64726739D01*
X57802734Y-64630568D01*
X57989139Y-64500047D01*
X58150047Y-64339139D01*
X58280568Y-64152734D01*
X58307618Y-64094724D01*
X58353790Y-64042285D01*
X58420983Y-64023133D01*
X58487865Y-64043348D01*
X58532382Y-64094725D01*
X58559429Y-64152728D01*
X58559432Y-64152734D01*
X58689954Y-64339141D01*
X58850858Y-64500045D01*
X58850861Y-64500047D01*
X59037266Y-64630568D01*
X59243504Y-64726739D01*
X59463308Y-64785635D01*
X59625230Y-64799801D01*
X59689998Y-64805468D01*
X59690000Y-64805468D01*
X59690002Y-64805468D01*
X59746807Y-64800498D01*
X59916692Y-64785635D01*
X60136496Y-64726739D01*
X60342734Y-64630568D01*
X60529139Y-64500047D01*
X60690047Y-64339139D01*
X60820568Y-64152734D01*
X60847618Y-64094724D01*
X60893790Y-64042285D01*
X60960983Y-64023133D01*
X61027865Y-64043348D01*
X61072382Y-64094725D01*
X61099429Y-64152728D01*
X61099432Y-64152734D01*
X61229954Y-64339141D01*
X61390858Y-64500045D01*
X61390861Y-64500047D01*
X61577266Y-64630568D01*
X61783504Y-64726739D01*
X62003308Y-64785635D01*
X62165230Y-64799801D01*
X62229998Y-64805468D01*
X62230000Y-64805468D01*
X62230002Y-64805468D01*
X62286807Y-64800498D01*
X62456692Y-64785635D01*
X62676496Y-64726739D01*
X62882734Y-64630568D01*
X63069139Y-64500047D01*
X63230047Y-64339139D01*
X63360568Y-64152734D01*
X63387618Y-64094724D01*
X63433790Y-64042285D01*
X63500983Y-64023133D01*
X63567865Y-64043348D01*
X63612382Y-64094725D01*
X63639429Y-64152728D01*
X63639432Y-64152734D01*
X63769954Y-64339141D01*
X63930858Y-64500045D01*
X63930861Y-64500047D01*
X64117266Y-64630568D01*
X64323504Y-64726739D01*
X64543308Y-64785635D01*
X64705230Y-64799801D01*
X64769998Y-64805468D01*
X64770000Y-64805468D01*
X64770002Y-64805468D01*
X64826807Y-64800498D01*
X64996692Y-64785635D01*
X65216496Y-64726739D01*
X65422734Y-64630568D01*
X65609139Y-64500047D01*
X65770047Y-64339139D01*
X65900568Y-64152734D01*
X65927895Y-64094129D01*
X65974064Y-64041695D01*
X66041257Y-64022542D01*
X66108139Y-64042757D01*
X66152657Y-64094133D01*
X66179865Y-64152482D01*
X66310342Y-64338820D01*
X66471179Y-64499657D01*
X66657517Y-64630134D01*
X66863673Y-64726265D01*
X66863682Y-64726269D01*
X67059999Y-64778872D01*
X67060000Y-64778871D01*
X67060000Y-63935501D01*
X67167685Y-63984680D01*
X67274237Y-64000000D01*
X67345763Y-64000000D01*
X67452315Y-63984680D01*
X67560000Y-63935501D01*
X67560000Y-64778872D01*
X67756317Y-64726269D01*
X67756326Y-64726265D01*
X67962482Y-64630134D01*
X68148820Y-64499657D01*
X68309657Y-64338820D01*
X68440132Y-64152484D01*
X68467341Y-64094134D01*
X68513513Y-64041695D01*
X68580707Y-64022542D01*
X68647588Y-64042757D01*
X68692106Y-64094133D01*
X68719431Y-64152732D01*
X68719432Y-64152734D01*
X68849954Y-64339141D01*
X69010858Y-64500045D01*
X69010861Y-64500047D01*
X69197266Y-64630568D01*
X69403504Y-64726739D01*
X69623308Y-64785635D01*
X69785230Y-64799801D01*
X69849998Y-64805468D01*
X69850000Y-64805468D01*
X69850002Y-64805468D01*
X69906807Y-64800498D01*
X70076692Y-64785635D01*
X70296496Y-64726739D01*
X70502734Y-64630568D01*
X70689139Y-64500047D01*
X70850047Y-64339139D01*
X70980568Y-64152734D01*
X71007618Y-64094724D01*
X71053790Y-64042285D01*
X71120983Y-64023133D01*
X71187865Y-64043348D01*
X71232382Y-64094725D01*
X71259429Y-64152728D01*
X71259432Y-64152734D01*
X71389954Y-64339141D01*
X71550858Y-64500045D01*
X71550861Y-64500047D01*
X71737266Y-64630568D01*
X71943504Y-64726739D01*
X72163308Y-64785635D01*
X72325230Y-64799801D01*
X72389998Y-64805468D01*
X72390000Y-64805468D01*
X72390002Y-64805468D01*
X72446807Y-64800498D01*
X72616692Y-64785635D01*
X72836496Y-64726739D01*
X73042734Y-64630568D01*
X73229139Y-64500047D01*
X73390047Y-64339139D01*
X73407272Y-64314539D01*
X73461848Y-64270913D01*
X73531346Y-64263718D01*
X73593701Y-64295239D01*
X73629116Y-64355468D01*
X73632138Y-64372406D01*
X73635908Y-64407483D01*
X73686202Y-64542328D01*
X73686206Y-64542335D01*
X73772452Y-64657544D01*
X73772455Y-64657547D01*
X73887664Y-64743793D01*
X73887671Y-64743797D01*
X74022517Y-64794091D01*
X74022516Y-64794091D01*
X74029444Y-64794835D01*
X74082127Y-64800500D01*
X75777872Y-64800499D01*
X75837483Y-64794091D01*
X75972331Y-64743796D01*
X76087546Y-64657546D01*
X76173796Y-64542331D01*
X76224091Y-64407483D01*
X76224091Y-64407476D01*
X76224822Y-64404387D01*
X76226050Y-64402228D01*
X76226802Y-64400215D01*
X76227128Y-64400336D01*
X76259394Y-64343670D01*
X76321304Y-64311283D01*
X76390896Y-64317507D01*
X76446075Y-64360368D01*
X76469322Y-64426257D01*
X76469500Y-64432899D01*
X76469500Y-75734216D01*
X76449815Y-75801255D01*
X76433181Y-75821897D01*
X74841966Y-77413111D01*
X74780643Y-77446596D01*
X74765095Y-77448958D01*
X74703307Y-77454365D01*
X74483511Y-77513258D01*
X74483502Y-77513261D01*
X74277267Y-77609431D01*
X74277265Y-77609432D01*
X74090858Y-77739954D01*
X73929954Y-77900858D01*
X73799433Y-78087264D01*
X73799432Y-78087266D01*
X73799315Y-78087518D01*
X73772106Y-78145867D01*
X73725933Y-78198306D01*
X73658739Y-78217457D01*
X73591858Y-78197241D01*
X73547342Y-78145865D01*
X73520135Y-78087520D01*
X73520134Y-78087518D01*
X73389657Y-77901179D01*
X73228820Y-77740342D01*
X73042482Y-77609865D01*
X72836328Y-77513734D01*
X72640000Y-77461127D01*
X72640000Y-78304498D01*
X72532315Y-78255320D01*
X72425763Y-78240000D01*
X72354237Y-78240000D01*
X72247685Y-78255320D01*
X72140000Y-78304498D01*
X72140000Y-77461127D01*
X71943671Y-77513734D01*
X71737517Y-77609865D01*
X71551179Y-77740342D01*
X71390342Y-77901179D01*
X71259867Y-78087515D01*
X71232657Y-78145867D01*
X71186484Y-78198306D01*
X71119290Y-78217457D01*
X71052409Y-78197241D01*
X71007893Y-78145865D01*
X70980685Y-78087518D01*
X70980568Y-78087266D01*
X70850047Y-77900861D01*
X70850045Y-77900858D01*
X70689141Y-77739954D01*
X70502734Y-77609432D01*
X70502732Y-77609431D01*
X70296497Y-77513261D01*
X70296488Y-77513258D01*
X70076697Y-77454366D01*
X70076693Y-77454365D01*
X70076692Y-77454365D01*
X70076691Y-77454364D01*
X70076686Y-77454364D01*
X69850002Y-77434532D01*
X69849998Y-77434532D01*
X69623313Y-77454364D01*
X69623302Y-77454366D01*
X69403511Y-77513258D01*
X69403502Y-77513261D01*
X69197267Y-77609431D01*
X69197265Y-77609432D01*
X69010858Y-77739954D01*
X68849954Y-77900858D01*
X68719432Y-78087265D01*
X68719431Y-78087267D01*
X68692382Y-78145275D01*
X68646209Y-78197714D01*
X68579016Y-78216866D01*
X68512135Y-78196650D01*
X68467618Y-78145275D01*
X68440686Y-78087520D01*
X68440568Y-78087266D01*
X68310047Y-77900861D01*
X68310045Y-77900858D01*
X68149141Y-77739954D01*
X67962734Y-77609432D01*
X67962732Y-77609431D01*
X67756497Y-77513261D01*
X67756488Y-77513258D01*
X67536697Y-77454366D01*
X67536693Y-77454365D01*
X67536692Y-77454365D01*
X67536691Y-77454364D01*
X67536686Y-77454364D01*
X67310002Y-77434532D01*
X67309998Y-77434532D01*
X67083313Y-77454364D01*
X67083302Y-77454366D01*
X66863511Y-77513258D01*
X66863502Y-77513261D01*
X66657267Y-77609431D01*
X66657265Y-77609432D01*
X66470858Y-77739954D01*
X66309954Y-77900858D01*
X66179432Y-78087265D01*
X66179431Y-78087267D01*
X66152382Y-78145275D01*
X66106209Y-78197714D01*
X66039016Y-78216866D01*
X65972135Y-78196650D01*
X65927618Y-78145275D01*
X65900686Y-78087520D01*
X65900568Y-78087266D01*
X65770047Y-77900861D01*
X65770045Y-77900858D01*
X65609141Y-77739954D01*
X65422734Y-77609432D01*
X65422732Y-77609431D01*
X65216497Y-77513261D01*
X65216488Y-77513258D01*
X64996697Y-77454366D01*
X64996693Y-77454365D01*
X64996692Y-77454365D01*
X64996691Y-77454364D01*
X64996686Y-77454364D01*
X64770002Y-77434532D01*
X64769998Y-77434532D01*
X64543313Y-77454364D01*
X64543302Y-77454366D01*
X64323511Y-77513258D01*
X64323502Y-77513261D01*
X64117267Y-77609431D01*
X64117265Y-77609432D01*
X63930858Y-77739954D01*
X63769954Y-77900858D01*
X63639432Y-78087265D01*
X63639431Y-78087267D01*
X63612382Y-78145275D01*
X63566209Y-78197714D01*
X63499016Y-78216866D01*
X63432135Y-78196650D01*
X63387618Y-78145275D01*
X63360686Y-78087520D01*
X63360568Y-78087266D01*
X63230047Y-77900861D01*
X63230045Y-77900858D01*
X63069141Y-77739954D01*
X62882734Y-77609432D01*
X62882732Y-77609431D01*
X62676497Y-77513261D01*
X62676488Y-77513258D01*
X62456697Y-77454366D01*
X62456693Y-77454365D01*
X62456692Y-77454365D01*
X62456691Y-77454364D01*
X62456686Y-77454364D01*
X62230002Y-77434532D01*
X62229998Y-77434532D01*
X62003313Y-77454364D01*
X62003302Y-77454366D01*
X61783511Y-77513258D01*
X61783502Y-77513261D01*
X61577267Y-77609431D01*
X61577265Y-77609432D01*
X61390858Y-77739954D01*
X61229954Y-77900858D01*
X61099432Y-78087265D01*
X61099431Y-78087267D01*
X61072382Y-78145275D01*
X61026209Y-78197714D01*
X60959016Y-78216866D01*
X60892135Y-78196650D01*
X60847618Y-78145275D01*
X60820686Y-78087520D01*
X60820568Y-78087266D01*
X60690047Y-77900861D01*
X60690045Y-77900858D01*
X60529141Y-77739954D01*
X60342734Y-77609432D01*
X60342732Y-77609431D01*
X60136497Y-77513261D01*
X60136488Y-77513258D01*
X59916697Y-77454366D01*
X59916693Y-77454365D01*
X59916692Y-77454365D01*
X59916691Y-77454364D01*
X59916686Y-77454364D01*
X59690002Y-77434532D01*
X59689998Y-77434532D01*
X59463313Y-77454364D01*
X59463302Y-77454366D01*
X59243511Y-77513258D01*
X59243502Y-77513261D01*
X59037267Y-77609431D01*
X59037265Y-77609432D01*
X58850858Y-77739954D01*
X58689954Y-77900858D01*
X58559432Y-78087265D01*
X58559431Y-78087267D01*
X58532382Y-78145275D01*
X58486209Y-78197714D01*
X58419016Y-78216866D01*
X58352135Y-78196650D01*
X58307618Y-78145275D01*
X58280686Y-78087520D01*
X58280568Y-78087266D01*
X58150047Y-77900861D01*
X58150045Y-77900858D01*
X57989141Y-77739954D01*
X57802734Y-77609432D01*
X57802732Y-77609431D01*
X57596497Y-77513261D01*
X57596488Y-77513258D01*
X57376697Y-77454366D01*
X57376693Y-77454365D01*
X57376692Y-77454365D01*
X57376691Y-77454364D01*
X57376686Y-77454364D01*
X57150002Y-77434532D01*
X57149998Y-77434532D01*
X56923313Y-77454364D01*
X56923302Y-77454366D01*
X56703511Y-77513258D01*
X56703502Y-77513261D01*
X56497267Y-77609431D01*
X56497265Y-77609432D01*
X56310858Y-77739954D01*
X56149954Y-77900858D01*
X56019432Y-78087265D01*
X56019431Y-78087267D01*
X55992382Y-78145275D01*
X55946209Y-78197714D01*
X55879016Y-78216866D01*
X55812135Y-78196650D01*
X55767618Y-78145275D01*
X55740686Y-78087520D01*
X55740568Y-78087266D01*
X55610047Y-77900861D01*
X55610045Y-77900858D01*
X55449141Y-77739954D01*
X55262734Y-77609432D01*
X55262732Y-77609431D01*
X55056497Y-77513261D01*
X55056488Y-77513258D01*
X54836697Y-77454366D01*
X54836693Y-77454365D01*
X54836692Y-77454365D01*
X54836691Y-77454364D01*
X54836686Y-77454364D01*
X54610002Y-77434532D01*
X54609998Y-77434532D01*
X54383313Y-77454364D01*
X54383302Y-77454366D01*
X54163511Y-77513258D01*
X54163502Y-77513261D01*
X53957267Y-77609431D01*
X53957265Y-77609432D01*
X53770858Y-77739954D01*
X53609954Y-77900858D01*
X53479432Y-78087265D01*
X53479431Y-78087267D01*
X53452382Y-78145275D01*
X53406209Y-78197714D01*
X53339016Y-78216866D01*
X53272135Y-78196650D01*
X53227618Y-78145275D01*
X53200686Y-78087520D01*
X53200568Y-78087266D01*
X53070047Y-77900861D01*
X53070045Y-77900858D01*
X52909141Y-77739954D01*
X52722734Y-77609432D01*
X52722732Y-77609431D01*
X52516497Y-77513261D01*
X52516488Y-77513258D01*
X52296697Y-77454366D01*
X52296693Y-77454365D01*
X52296692Y-77454365D01*
X52296691Y-77454364D01*
X52296686Y-77454364D01*
X52070002Y-77434532D01*
X52069998Y-77434532D01*
X51843313Y-77454364D01*
X51843302Y-77454366D01*
X51623511Y-77513258D01*
X51623502Y-77513261D01*
X51417267Y-77609431D01*
X51417265Y-77609432D01*
X51230858Y-77739954D01*
X51069954Y-77900858D01*
X50939432Y-78087265D01*
X50939431Y-78087267D01*
X50912382Y-78145275D01*
X50866209Y-78197714D01*
X50799016Y-78216866D01*
X50732135Y-78196650D01*
X50687618Y-78145275D01*
X50660686Y-78087520D01*
X50660568Y-78087266D01*
X50530047Y-77900861D01*
X50530045Y-77900858D01*
X50369141Y-77739954D01*
X50182734Y-77609432D01*
X50182732Y-77609431D01*
X49976497Y-77513261D01*
X49976488Y-77513258D01*
X49756697Y-77454366D01*
X49756693Y-77454365D01*
X49756692Y-77454365D01*
X49756691Y-77454364D01*
X49756686Y-77454364D01*
X49530002Y-77434532D01*
X49529998Y-77434532D01*
X49303313Y-77454364D01*
X49303302Y-77454366D01*
X49083511Y-77513258D01*
X49083502Y-77513261D01*
X48877267Y-77609431D01*
X48877265Y-77609432D01*
X48690858Y-77739954D01*
X48529954Y-77900858D01*
X48399432Y-78087265D01*
X48399431Y-78087267D01*
X48372382Y-78145275D01*
X48326209Y-78197714D01*
X48259016Y-78216866D01*
X48192135Y-78196650D01*
X48147618Y-78145275D01*
X48120686Y-78087520D01*
X48120568Y-78087266D01*
X47990047Y-77900861D01*
X47990045Y-77900858D01*
X47829141Y-77739954D01*
X47642734Y-77609432D01*
X47642732Y-77609431D01*
X47436497Y-77513261D01*
X47436488Y-77513258D01*
X47216697Y-77454366D01*
X47216693Y-77454365D01*
X47216692Y-77454365D01*
X47216691Y-77454364D01*
X47216686Y-77454364D01*
X46990002Y-77434532D01*
X46989998Y-77434532D01*
X46763313Y-77454364D01*
X46763302Y-77454366D01*
X46543511Y-77513258D01*
X46543502Y-77513261D01*
X46337267Y-77609431D01*
X46337265Y-77609432D01*
X46150858Y-77739954D01*
X45989954Y-77900858D01*
X45859432Y-78087265D01*
X45859431Y-78087267D01*
X45832382Y-78145275D01*
X45786209Y-78197714D01*
X45719016Y-78216866D01*
X45652135Y-78196650D01*
X45607618Y-78145275D01*
X45580686Y-78087520D01*
X45580568Y-78087266D01*
X45450047Y-77900861D01*
X45450045Y-77900858D01*
X45289141Y-77739954D01*
X45102734Y-77609432D01*
X45102732Y-77609431D01*
X44896497Y-77513261D01*
X44896488Y-77513258D01*
X44676697Y-77454366D01*
X44676693Y-77454365D01*
X44676692Y-77454365D01*
X44676691Y-77454364D01*
X44676686Y-77454364D01*
X44450002Y-77434532D01*
X44449998Y-77434532D01*
X44223313Y-77454364D01*
X44223302Y-77454366D01*
X44003511Y-77513258D01*
X44003502Y-77513261D01*
X43797267Y-77609431D01*
X43797265Y-77609432D01*
X43610858Y-77739954D01*
X43449954Y-77900858D01*
X43319432Y-78087265D01*
X43319431Y-78087267D01*
X43292382Y-78145275D01*
X43246209Y-78197714D01*
X43179016Y-78216866D01*
X43112135Y-78196650D01*
X43067618Y-78145275D01*
X43040686Y-78087520D01*
X43040568Y-78087266D01*
X42910047Y-77900861D01*
X42910045Y-77900858D01*
X42749141Y-77739954D01*
X42562734Y-77609432D01*
X42562732Y-77609431D01*
X42356497Y-77513261D01*
X42356488Y-77513258D01*
X42136697Y-77454366D01*
X42136693Y-77454365D01*
X42136692Y-77454365D01*
X42136691Y-77454364D01*
X42136686Y-77454364D01*
X41910002Y-77434532D01*
X41909998Y-77434532D01*
X41683313Y-77454364D01*
X41683302Y-77454366D01*
X41463511Y-77513258D01*
X41463502Y-77513261D01*
X41257267Y-77609431D01*
X41257265Y-77609432D01*
X41070858Y-77739954D01*
X40909954Y-77900858D01*
X40779432Y-78087265D01*
X40779431Y-78087267D01*
X40752382Y-78145275D01*
X40706209Y-78197714D01*
X40639016Y-78216866D01*
X40572135Y-78196650D01*
X40527618Y-78145275D01*
X40500686Y-78087520D01*
X40500568Y-78087266D01*
X40370047Y-77900861D01*
X40370045Y-77900858D01*
X40209141Y-77739954D01*
X40022734Y-77609432D01*
X40022732Y-77609431D01*
X39816497Y-77513261D01*
X39816488Y-77513258D01*
X39596697Y-77454366D01*
X39596693Y-77454365D01*
X39596692Y-77454365D01*
X39596691Y-77454364D01*
X39596686Y-77454364D01*
X39370002Y-77434532D01*
X39369998Y-77434532D01*
X39143313Y-77454364D01*
X39143302Y-77454366D01*
X38923511Y-77513258D01*
X38923502Y-77513261D01*
X38717267Y-77609431D01*
X38717265Y-77609432D01*
X38530858Y-77739954D01*
X38369954Y-77900858D01*
X38239432Y-78087265D01*
X38239431Y-78087267D01*
X38143261Y-78293502D01*
X38143258Y-78293511D01*
X38084366Y-78513302D01*
X38084364Y-78513313D01*
X38064532Y-78739998D01*
X38064532Y-78740001D01*
X38084364Y-78966686D01*
X38084366Y-78966697D01*
X38143258Y-79186488D01*
X38143261Y-79186497D01*
X38239431Y-79392732D01*
X38239432Y-79392734D01*
X38369954Y-79579141D01*
X38530858Y-79740045D01*
X38530861Y-79740047D01*
X38717266Y-79870568D01*
X38923504Y-79966739D01*
X39143308Y-80025635D01*
X39300791Y-80039413D01*
X39369998Y-80045468D01*
X39370000Y-80045468D01*
X39370002Y-80045468D01*
X39426673Y-80040509D01*
X39596692Y-80025635D01*
X39816496Y-79966739D01*
X40022734Y-79870568D01*
X40209139Y-79740047D01*
X40370047Y-79579139D01*
X40500568Y-79392734D01*
X40527618Y-79334724D01*
X40573790Y-79282285D01*
X40640983Y-79263133D01*
X40707865Y-79283348D01*
X40752382Y-79334725D01*
X40779429Y-79392728D01*
X40779432Y-79392734D01*
X40909954Y-79579141D01*
X41070858Y-79740045D01*
X41070861Y-79740047D01*
X41257266Y-79870568D01*
X41463504Y-79966739D01*
X41683308Y-80025635D01*
X41840791Y-80039413D01*
X41909998Y-80045468D01*
X41910000Y-80045468D01*
X41910002Y-80045468D01*
X41966673Y-80040509D01*
X42136692Y-80025635D01*
X42356496Y-79966739D01*
X42562734Y-79870568D01*
X42749139Y-79740047D01*
X42910047Y-79579139D01*
X43040568Y-79392734D01*
X43067618Y-79334724D01*
X43113790Y-79282285D01*
X43180983Y-79263133D01*
X43247865Y-79283348D01*
X43292382Y-79334725D01*
X43319429Y-79392728D01*
X43319432Y-79392734D01*
X43449954Y-79579141D01*
X43610858Y-79740045D01*
X43610861Y-79740047D01*
X43797266Y-79870568D01*
X44003504Y-79966739D01*
X44223308Y-80025635D01*
X44380791Y-80039413D01*
X44449998Y-80045468D01*
X44450000Y-80045468D01*
X44450002Y-80045468D01*
X44506673Y-80040509D01*
X44676692Y-80025635D01*
X44896496Y-79966739D01*
X45102734Y-79870568D01*
X45289139Y-79740047D01*
X45450047Y-79579139D01*
X45580568Y-79392734D01*
X45607618Y-79334724D01*
X45653790Y-79282285D01*
X45720983Y-79263133D01*
X45787865Y-79283348D01*
X45832382Y-79334725D01*
X45859429Y-79392728D01*
X45859432Y-79392734D01*
X45989954Y-79579141D01*
X46150858Y-79740045D01*
X46150861Y-79740047D01*
X46337266Y-79870568D01*
X46543504Y-79966739D01*
X46763308Y-80025635D01*
X46920791Y-80039413D01*
X46989998Y-80045468D01*
X46990000Y-80045468D01*
X46990002Y-80045468D01*
X47046673Y-80040509D01*
X47216692Y-80025635D01*
X47436496Y-79966739D01*
X47642734Y-79870568D01*
X47829139Y-79740047D01*
X47990047Y-79579139D01*
X48120568Y-79392734D01*
X48147618Y-79334724D01*
X48193790Y-79282285D01*
X48260983Y-79263133D01*
X48327865Y-79283348D01*
X48372382Y-79334725D01*
X48399429Y-79392728D01*
X48399432Y-79392734D01*
X48529954Y-79579141D01*
X48690858Y-79740045D01*
X48690861Y-79740047D01*
X48877266Y-79870568D01*
X49083504Y-79966739D01*
X49303308Y-80025635D01*
X49460791Y-80039413D01*
X49529998Y-80045468D01*
X49530000Y-80045468D01*
X49530002Y-80045468D01*
X49586673Y-80040509D01*
X49756692Y-80025635D01*
X49976496Y-79966739D01*
X50182734Y-79870568D01*
X50369139Y-79740047D01*
X50530047Y-79579139D01*
X50660568Y-79392734D01*
X50687618Y-79334724D01*
X50733790Y-79282285D01*
X50800983Y-79263133D01*
X50867865Y-79283348D01*
X50912382Y-79334725D01*
X50939429Y-79392728D01*
X50939432Y-79392734D01*
X51069954Y-79579141D01*
X51230858Y-79740045D01*
X51230861Y-79740047D01*
X51417266Y-79870568D01*
X51623504Y-79966739D01*
X51843308Y-80025635D01*
X52000791Y-80039413D01*
X52069998Y-80045468D01*
X52070000Y-80045468D01*
X52070002Y-80045468D01*
X52126673Y-80040509D01*
X52296692Y-80025635D01*
X52516496Y-79966739D01*
X52722734Y-79870568D01*
X52909139Y-79740047D01*
X53070047Y-79579139D01*
X53200568Y-79392734D01*
X53227618Y-79334724D01*
X53273790Y-79282285D01*
X53340983Y-79263133D01*
X53407865Y-79283348D01*
X53452382Y-79334725D01*
X53479429Y-79392728D01*
X53479432Y-79392734D01*
X53609954Y-79579141D01*
X53770858Y-79740045D01*
X53770861Y-79740047D01*
X53957266Y-79870568D01*
X54163504Y-79966739D01*
X54383308Y-80025635D01*
X54540791Y-80039413D01*
X54609998Y-80045468D01*
X54610000Y-80045468D01*
X54610002Y-80045468D01*
X54666673Y-80040509D01*
X54836692Y-80025635D01*
X55056496Y-79966739D01*
X55262734Y-79870568D01*
X55449139Y-79740047D01*
X55610047Y-79579139D01*
X55740568Y-79392734D01*
X55767618Y-79334724D01*
X55813790Y-79282285D01*
X55880983Y-79263133D01*
X55947865Y-79283348D01*
X55992382Y-79334725D01*
X56019429Y-79392728D01*
X56019432Y-79392734D01*
X56149954Y-79579141D01*
X56310858Y-79740045D01*
X56310861Y-79740047D01*
X56497266Y-79870568D01*
X56703504Y-79966739D01*
X56923308Y-80025635D01*
X57080791Y-80039413D01*
X57149998Y-80045468D01*
X57150000Y-80045468D01*
X57150002Y-80045468D01*
X57206673Y-80040509D01*
X57376692Y-80025635D01*
X57445048Y-80007319D01*
X57514897Y-80008982D01*
X57564822Y-80039413D01*
X58393181Y-80867771D01*
X58426666Y-80929094D01*
X58429500Y-80955452D01*
X58429500Y-132632255D01*
X58427775Y-132647872D01*
X58428061Y-132647899D01*
X58427326Y-132655665D01*
X58429500Y-132724814D01*
X58429500Y-132754343D01*
X58429501Y-132754360D01*
X58430368Y-132761231D01*
X58430826Y-132767050D01*
X58432290Y-132813624D01*
X58432291Y-132813627D01*
X58437880Y-132832867D01*
X58441824Y-132851911D01*
X58444336Y-132871791D01*
X58461490Y-132915119D01*
X58463382Y-132920647D01*
X58476381Y-132965388D01*
X58486580Y-132982634D01*
X58495138Y-133000103D01*
X58502514Y-133018732D01*
X58529898Y-133056423D01*
X58533106Y-133061307D01*
X58556827Y-133101416D01*
X58556833Y-133101424D01*
X58570990Y-133115580D01*
X58583628Y-133130376D01*
X58595405Y-133146586D01*
X58595406Y-133146587D01*
X58631309Y-133176288D01*
X58635620Y-133180210D01*
X65324626Y-139869217D01*
X66266646Y-140811237D01*
X66300131Y-140872560D01*
X66295147Y-140942252D01*
X66254773Y-140996183D01*
X66255013Y-140996469D01*
X66253793Y-140997492D01*
X66253275Y-140998185D01*
X66251031Y-140999809D01*
X66250865Y-140999949D01*
X66089951Y-141160862D01*
X65959432Y-141347265D01*
X65959431Y-141347267D01*
X65863261Y-141553502D01*
X65863258Y-141553511D01*
X65804366Y-141773302D01*
X65804364Y-141773313D01*
X65784532Y-141999998D01*
X65784532Y-142000000D01*
X65804364Y-142226686D01*
X65804365Y-142226691D01*
X65804366Y-142226697D01*
X65822680Y-142295048D01*
X65821017Y-142364897D01*
X65790586Y-142414821D01*
X64166208Y-144039199D01*
X64153951Y-144049020D01*
X64154134Y-144049241D01*
X64148123Y-144054213D01*
X64100772Y-144104636D01*
X64079889Y-144125519D01*
X64079877Y-144125532D01*
X64075621Y-144131017D01*
X64071837Y-144135447D01*
X64039937Y-144169418D01*
X64039936Y-144169420D01*
X64030284Y-144186976D01*
X64019610Y-144203226D01*
X64007329Y-144219061D01*
X64007324Y-144219068D01*
X63988815Y-144261838D01*
X63986245Y-144267084D01*
X63963803Y-144307906D01*
X63958822Y-144327307D01*
X63952521Y-144345710D01*
X63944562Y-144364102D01*
X63944561Y-144364105D01*
X63937271Y-144410127D01*
X63936087Y-144415846D01*
X63924501Y-144460972D01*
X63924500Y-144460982D01*
X63924500Y-144481016D01*
X63922973Y-144500415D01*
X63919840Y-144520194D01*
X63919840Y-144520195D01*
X63924225Y-144566583D01*
X63924500Y-144572421D01*
X63924500Y-152184773D01*
X63904815Y-152251812D01*
X63871623Y-152286348D01*
X63678597Y-152421505D01*
X63511505Y-152588597D01*
X63381575Y-152774158D01*
X63326998Y-152817783D01*
X63257500Y-152824977D01*
X63195145Y-152793454D01*
X63178425Y-152774158D01*
X63048494Y-152588597D01*
X62881402Y-152421506D01*
X62881395Y-152421501D01*
X62687834Y-152285967D01*
X62687830Y-152285965D01*
X62635500Y-152261563D01*
X62473663Y-152186097D01*
X62473659Y-152186096D01*
X62473655Y-152186094D01*
X62245413Y-152124938D01*
X62245403Y-152124936D01*
X62010001Y-152104341D01*
X62009999Y-152104341D01*
X61774596Y-152124936D01*
X61774586Y-152124938D01*
X61546344Y-152186094D01*
X61546335Y-152186098D01*
X61332171Y-152285964D01*
X61332169Y-152285965D01*
X61138597Y-152421505D01*
X60971505Y-152588597D01*
X60841575Y-152774158D01*
X60786998Y-152817783D01*
X60717500Y-152824977D01*
X60655145Y-152793454D01*
X60638425Y-152774158D01*
X60508494Y-152588597D01*
X60341402Y-152421506D01*
X60341395Y-152421501D01*
X60147834Y-152285967D01*
X60147830Y-152285965D01*
X60095500Y-152261563D01*
X59933663Y-152186097D01*
X59933659Y-152186096D01*
X59933655Y-152186094D01*
X59705413Y-152124938D01*
X59705403Y-152124936D01*
X59470001Y-152104341D01*
X59469999Y-152104341D01*
X59234596Y-152124936D01*
X59234586Y-152124938D01*
X59006344Y-152186094D01*
X59006335Y-152186098D01*
X58792171Y-152285964D01*
X58792169Y-152285965D01*
X58598597Y-152421505D01*
X58431505Y-152588597D01*
X58301575Y-152774158D01*
X58246998Y-152817783D01*
X58177500Y-152824977D01*
X58115145Y-152793454D01*
X58098425Y-152774158D01*
X57968494Y-152588597D01*
X57801402Y-152421506D01*
X57801395Y-152421501D01*
X57607834Y-152285967D01*
X57607830Y-152285965D01*
X57555500Y-152261563D01*
X57393663Y-152186097D01*
X57393659Y-152186096D01*
X57393655Y-152186094D01*
X57165413Y-152124938D01*
X57165403Y-152124936D01*
X56930001Y-152104341D01*
X56929999Y-152104341D01*
X56694596Y-152124936D01*
X56694586Y-152124938D01*
X56466344Y-152186094D01*
X56466335Y-152186098D01*
X56252171Y-152285964D01*
X56252169Y-152285965D01*
X56058597Y-152421505D01*
X55891505Y-152588597D01*
X55755965Y-152782169D01*
X55755964Y-152782171D01*
X55656098Y-152996335D01*
X55656094Y-152996344D01*
X55594938Y-153224586D01*
X55594936Y-153224596D01*
X55574341Y-153459999D01*
X55574341Y-153460000D01*
X55594936Y-153695403D01*
X55594938Y-153695413D01*
X55656094Y-153923655D01*
X55656096Y-153923659D01*
X55656097Y-153923663D01*
X55660000Y-153932032D01*
X55755965Y-154137830D01*
X55755967Y-154137834D01*
X55864281Y-154292521D01*
X55891501Y-154331396D01*
X55891506Y-154331402D01*
X56058597Y-154498493D01*
X56058603Y-154498498D01*
X56244594Y-154628730D01*
X56288219Y-154683307D01*
X56295413Y-154752805D01*
X56263890Y-154815160D01*
X56244595Y-154831880D01*
X56058922Y-154961890D01*
X56058920Y-154961891D01*
X55891891Y-155128920D01*
X55891886Y-155128926D01*
X55756400Y-155322420D01*
X55756399Y-155322422D01*
X55656570Y-155536507D01*
X55656567Y-155536513D01*
X55599364Y-155749999D01*
X55599364Y-155750000D01*
X56496314Y-155750000D01*
X56470507Y-155790156D01*
X56430000Y-155928111D01*
X56430000Y-156071889D01*
X56470507Y-156209844D01*
X56496314Y-156250000D01*
X55599364Y-156250000D01*
X55656567Y-156463486D01*
X55656570Y-156463492D01*
X55756399Y-156677578D01*
X55891894Y-156871082D01*
X56058917Y-157038105D01*
X56252421Y-157173600D01*
X56466507Y-157273429D01*
X56466516Y-157273433D01*
X56680000Y-157330634D01*
X56680000Y-156435501D01*
X56787685Y-156484680D01*
X56894237Y-156500000D01*
X56965763Y-156500000D01*
X57072315Y-156484680D01*
X57180000Y-156435501D01*
X57180000Y-157330633D01*
X57393483Y-157273433D01*
X57393492Y-157273429D01*
X57607578Y-157173600D01*
X57801082Y-157038105D01*
X57968105Y-156871082D01*
X58098119Y-156685405D01*
X58152696Y-156641781D01*
X58222195Y-156634588D01*
X58284549Y-156666110D01*
X58301269Y-156685405D01*
X58431505Y-156871401D01*
X58598599Y-157038495D01*
X58695384Y-157106265D01*
X58792165Y-157174032D01*
X58792167Y-157174033D01*
X58792170Y-157174035D01*
X59006337Y-157273903D01*
X59234592Y-157335063D01*
X59422918Y-157351539D01*
X59469999Y-157355659D01*
X59470000Y-157355659D01*
X59470001Y-157355659D01*
X59509234Y-157352226D01*
X59705408Y-157335063D01*
X59933663Y-157273903D01*
X60147830Y-157174035D01*
X60341401Y-157038495D01*
X60508495Y-156871401D01*
X60638425Y-156685842D01*
X60693002Y-156642217D01*
X60762500Y-156635023D01*
X60824855Y-156666546D01*
X60841575Y-156685842D01*
X60971281Y-156871082D01*
X60971505Y-156871401D01*
X61138599Y-157038495D01*
X61235384Y-157106265D01*
X61332165Y-157174032D01*
X61332167Y-157174033D01*
X61332170Y-157174035D01*
X61546337Y-157273903D01*
X61774592Y-157335063D01*
X61962918Y-157351539D01*
X62009999Y-157355659D01*
X62010000Y-157355659D01*
X62010001Y-157355659D01*
X62049234Y-157352226D01*
X62245408Y-157335063D01*
X62473663Y-157273903D01*
X62687830Y-157174035D01*
X62881401Y-157038495D01*
X63048495Y-156871401D01*
X63178425Y-156685842D01*
X63233002Y-156642217D01*
X63302500Y-156635023D01*
X63364855Y-156666546D01*
X63381575Y-156685842D01*
X63511281Y-156871082D01*
X63511505Y-156871401D01*
X63678599Y-157038495D01*
X63775384Y-157106265D01*
X63872165Y-157174032D01*
X63872167Y-157174033D01*
X63872170Y-157174035D01*
X64086337Y-157273903D01*
X64314592Y-157335063D01*
X64502918Y-157351539D01*
X64549999Y-157355659D01*
X64550000Y-157355659D01*
X64550001Y-157355659D01*
X64589234Y-157352226D01*
X64785408Y-157335063D01*
X65013663Y-157273903D01*
X65227830Y-157174035D01*
X65421401Y-157038495D01*
X65588495Y-156871401D01*
X65718730Y-156685405D01*
X65773307Y-156641781D01*
X65842805Y-156634587D01*
X65905160Y-156666110D01*
X65921879Y-156685405D01*
X66051890Y-156871078D01*
X66218917Y-157038105D01*
X66412421Y-157173600D01*
X66626507Y-157273429D01*
X66626516Y-157273433D01*
X66840000Y-157330634D01*
X66840000Y-156435501D01*
X66947685Y-156484680D01*
X67054237Y-156500000D01*
X67125763Y-156500000D01*
X67232315Y-156484680D01*
X67340000Y-156435501D01*
X67340000Y-157330633D01*
X67553483Y-157273433D01*
X67553492Y-157273429D01*
X67767578Y-157173600D01*
X67961082Y-157038105D01*
X68128105Y-156871082D01*
X68263600Y-156677578D01*
X68363429Y-156463492D01*
X68363432Y-156463486D01*
X68420636Y-156250000D01*
X67523686Y-156250000D01*
X67549493Y-156209844D01*
X67590000Y-156071889D01*
X67590000Y-155928111D01*
X67549493Y-155790156D01*
X67523686Y-155750000D01*
X68420636Y-155750000D01*
X68420635Y-155749999D01*
X68363432Y-155536513D01*
X68363429Y-155536507D01*
X68263600Y-155322422D01*
X68263599Y-155322420D01*
X68128113Y-155128926D01*
X68128108Y-155128920D01*
X68006053Y-155006865D01*
X68002306Y-155000002D01*
X71754726Y-155000002D01*
X71773808Y-155351954D01*
X71830833Y-155699793D01*
X71830834Y-155699796D01*
X71925126Y-156039408D01*
X71925127Y-156039410D01*
X72055588Y-156366844D01*
X72055597Y-156366862D01*
X72197536Y-156634587D01*
X72220695Y-156678269D01*
X72351642Y-156871402D01*
X72418498Y-156970006D01*
X72418505Y-156970016D01*
X72591801Y-157174035D01*
X72646686Y-157238650D01*
X72902580Y-157481046D01*
X73183182Y-157694354D01*
X73485202Y-157876074D01*
X73485206Y-157876075D01*
X73485210Y-157876078D01*
X73805088Y-158024070D01*
X73805092Y-158024070D01*
X73805099Y-158024074D01*
X74139122Y-158136619D01*
X74483355Y-158212391D01*
X74833763Y-158250500D01*
X74833769Y-158250500D01*
X75186231Y-158250500D01*
X75186237Y-158250500D01*
X75536645Y-158212391D01*
X75880878Y-158136619D01*
X76214901Y-158024074D01*
X76214908Y-158024070D01*
X76214911Y-158024070D01*
X76534789Y-157876078D01*
X76534798Y-157876074D01*
X76836818Y-157694354D01*
X77117420Y-157481046D01*
X77373314Y-157238650D01*
X77601501Y-156970008D01*
X77799305Y-156678269D01*
X77964407Y-156366854D01*
X78094871Y-156039414D01*
X78189168Y-155699788D01*
X78246191Y-155351957D01*
X78265274Y-155000000D01*
X78260412Y-154910337D01*
X78248086Y-154683002D01*
X78246191Y-154648043D01*
X78189168Y-154300212D01*
X78134195Y-154102217D01*
X78094873Y-153960591D01*
X78094872Y-153960589D01*
X78080159Y-153923663D01*
X78053058Y-153855645D01*
X77964411Y-153633155D01*
X77964402Y-153633137D01*
X77799305Y-153321731D01*
X77601501Y-153029992D01*
X77601497Y-153029987D01*
X77601494Y-153029983D01*
X77373314Y-152761350D01*
X77190943Y-152588599D01*
X77117420Y-152518954D01*
X77117413Y-152518948D01*
X77117410Y-152518946D01*
X76952791Y-152393806D01*
X76836818Y-152305646D01*
X76804743Y-152286347D01*
X76534802Y-152123928D01*
X76534789Y-152123921D01*
X76214911Y-151975929D01*
X76214906Y-151975928D01*
X76214903Y-151975927D01*
X76214901Y-151975926D01*
X76108432Y-151940052D01*
X75880880Y-151863381D01*
X75536643Y-151787608D01*
X75186238Y-151749500D01*
X75186237Y-151749500D01*
X74833763Y-151749500D01*
X74833761Y-151749500D01*
X74483356Y-151787608D01*
X74139119Y-151863381D01*
X73805093Y-151975928D01*
X73805088Y-151975929D01*
X73485210Y-152123921D01*
X73485197Y-152123928D01*
X73183184Y-152305644D01*
X72902589Y-152518946D01*
X72902580Y-152518954D01*
X72646685Y-152761350D01*
X72418505Y-153029983D01*
X72418498Y-153029993D01*
X72220695Y-153321730D01*
X72055597Y-153633137D01*
X72055588Y-153633155D01*
X71925127Y-153960589D01*
X71925126Y-153960591D01*
X71830834Y-154300203D01*
X71830833Y-154300206D01*
X71773808Y-154648045D01*
X71754726Y-154999997D01*
X71754726Y-155000002D01*
X68002306Y-155000002D01*
X67972568Y-154945542D01*
X67977552Y-154875850D01*
X68019424Y-154819917D01*
X68050400Y-154803002D01*
X68182331Y-154753796D01*
X68297546Y-154667546D01*
X68383796Y-154552331D01*
X68434091Y-154417483D01*
X68440500Y-154357873D01*
X68440499Y-152562128D01*
X68434091Y-152502517D01*
X68432810Y-152499083D01*
X68383797Y-152367671D01*
X68383793Y-152367664D01*
X68297547Y-152252455D01*
X68297544Y-152252452D01*
X68182335Y-152166206D01*
X68182328Y-152166202D01*
X68047482Y-152115908D01*
X68047483Y-152115908D01*
X67987883Y-152109501D01*
X67987881Y-152109500D01*
X67987873Y-152109500D01*
X67987865Y-152109500D01*
X67839500Y-152109500D01*
X67772461Y-152089815D01*
X67726706Y-152037011D01*
X67715500Y-151985500D01*
X67715500Y-148259568D01*
X67735185Y-148192529D01*
X67787092Y-148147187D01*
X67822734Y-148130568D01*
X68009139Y-148000047D01*
X68170047Y-147839139D01*
X68300568Y-147652734D01*
X68396739Y-147446496D01*
X68455635Y-147226692D01*
X68475468Y-147000000D01*
X68455635Y-146773308D01*
X68396739Y-146553504D01*
X68300568Y-146347266D01*
X68170047Y-146160861D01*
X68170045Y-146160858D01*
X68009140Y-145999953D01*
X67848377Y-145887386D01*
X67804752Y-145832809D01*
X67795500Y-145785811D01*
X67795500Y-144595452D01*
X67815185Y-144528413D01*
X67831819Y-144507771D01*
X68391364Y-143948226D01*
X68963788Y-143375801D01*
X68976042Y-143365986D01*
X68975859Y-143365764D01*
X68981866Y-143360792D01*
X68981877Y-143360786D01*
X69021113Y-143319004D01*
X69029227Y-143310364D01*
X69039671Y-143299918D01*
X69050120Y-143289471D01*
X69054379Y-143283978D01*
X69058152Y-143279561D01*
X69090062Y-143245582D01*
X69099713Y-143228024D01*
X69110396Y-143211761D01*
X69122673Y-143195936D01*
X69141185Y-143153153D01*
X69143738Y-143147941D01*
X69166197Y-143107092D01*
X69171180Y-143087680D01*
X69177481Y-143069280D01*
X69185437Y-143050896D01*
X69192729Y-143004852D01*
X69193906Y-142999171D01*
X69205500Y-142954019D01*
X69205500Y-142933983D01*
X69207027Y-142914582D01*
X69210160Y-142894804D01*
X69205775Y-142848415D01*
X69205500Y-142842577D01*
X69205500Y-141052742D01*
X69207224Y-141037122D01*
X69206939Y-141037095D01*
X69207673Y-141029333D01*
X69205500Y-140960172D01*
X69205500Y-140930656D01*
X69205500Y-140930650D01*
X69204631Y-140923779D01*
X69204173Y-140917952D01*
X69204103Y-140915732D01*
X69202710Y-140871373D01*
X69197119Y-140852130D01*
X69193173Y-140833078D01*
X69190664Y-140813208D01*
X69173504Y-140769867D01*
X69171624Y-140764379D01*
X69158618Y-140719610D01*
X69148422Y-140702370D01*
X69139861Y-140684894D01*
X69132487Y-140666270D01*
X69132486Y-140666268D01*
X69105079Y-140628545D01*
X69101888Y-140623686D01*
X69094771Y-140611652D01*
X69078170Y-140583580D01*
X69078168Y-140583578D01*
X69078165Y-140583574D01*
X69064006Y-140569415D01*
X69051368Y-140554619D01*
X69039594Y-140538413D01*
X69038415Y-140537438D01*
X69003688Y-140508709D01*
X68999376Y-140504786D01*
X60351819Y-131857228D01*
X60318334Y-131795905D01*
X60315500Y-131769547D01*
X60315500Y-111760000D01*
X67224341Y-111760000D01*
X67244936Y-111995403D01*
X67244938Y-111995413D01*
X67306094Y-112223655D01*
X67306096Y-112223659D01*
X67306097Y-112223663D01*
X67405965Y-112437830D01*
X67405967Y-112437834D01*
X67514281Y-112592521D01*
X67541505Y-112631401D01*
X67708599Y-112798495D01*
X67805384Y-112866265D01*
X67902165Y-112934032D01*
X67902167Y-112934033D01*
X67902170Y-112934035D01*
X68116337Y-113033903D01*
X68344592Y-113095063D01*
X68532918Y-113111539D01*
X68579999Y-113115659D01*
X68580000Y-113115659D01*
X68580001Y-113115659D01*
X68619234Y-113112226D01*
X68815408Y-113095063D01*
X69043663Y-113033903D01*
X69257830Y-112934035D01*
X69451401Y-112798495D01*
X69618495Y-112631401D01*
X69754035Y-112437830D01*
X69853903Y-112223663D01*
X69915063Y-111995408D01*
X69935659Y-111760000D01*
X69915063Y-111524592D01*
X69853903Y-111296337D01*
X69754035Y-111082171D01*
X69624157Y-110896684D01*
X69618494Y-110888597D01*
X69451402Y-110721506D01*
X69451396Y-110721501D01*
X69265842Y-110591575D01*
X69222217Y-110536998D01*
X69215023Y-110467500D01*
X69246546Y-110405145D01*
X69265842Y-110388425D01*
X69438930Y-110267227D01*
X69451401Y-110258495D01*
X69618495Y-110091401D01*
X69754035Y-109897830D01*
X69853903Y-109683663D01*
X69915063Y-109455408D01*
X69935659Y-109220000D01*
X69915063Y-108984592D01*
X69853903Y-108756337D01*
X69754035Y-108542171D01*
X69695537Y-108458626D01*
X69618494Y-108348597D01*
X69451402Y-108181506D01*
X69451401Y-108181505D01*
X69283844Y-108064180D01*
X69265405Y-108051269D01*
X69221781Y-107996692D01*
X69214588Y-107927193D01*
X69246110Y-107864839D01*
X69265405Y-107848119D01*
X69341373Y-107794925D01*
X68712533Y-107166086D01*
X68722315Y-107164680D01*
X68853100Y-107104952D01*
X68961761Y-107010798D01*
X69039493Y-106889844D01*
X69063076Y-106809524D01*
X69694925Y-107441373D01*
X69694926Y-107441373D01*
X69753598Y-107357582D01*
X69753600Y-107357578D01*
X69853429Y-107143492D01*
X69853433Y-107143483D01*
X69914567Y-106915326D01*
X69914569Y-106915315D01*
X69935157Y-106680001D01*
X69935157Y-106679998D01*
X69914569Y-106444684D01*
X69914567Y-106444673D01*
X69853433Y-106216516D01*
X69853429Y-106216507D01*
X69753600Y-106002423D01*
X69753599Y-106002421D01*
X69694925Y-105918626D01*
X69694925Y-105918625D01*
X69063076Y-106550475D01*
X69039493Y-106470156D01*
X68961761Y-106349202D01*
X68853100Y-106255048D01*
X68722315Y-106195320D01*
X68712533Y-106193913D01*
X69341373Y-105565073D01*
X69341373Y-105565072D01*
X69265405Y-105511880D01*
X69221780Y-105457304D01*
X69214586Y-105387805D01*
X69246108Y-105325451D01*
X69265399Y-105308734D01*
X69451401Y-105178495D01*
X69618495Y-105011401D01*
X69754035Y-104817830D01*
X69853903Y-104603663D01*
X69915063Y-104375408D01*
X69935659Y-104140000D01*
X69915063Y-103904592D01*
X69853903Y-103676337D01*
X69754035Y-103462171D01*
X69618495Y-103268599D01*
X69618494Y-103268597D01*
X69451402Y-103101506D01*
X69451395Y-103101501D01*
X69257834Y-102965967D01*
X69257830Y-102965965D01*
X69257828Y-102965964D01*
X69043663Y-102866097D01*
X69043659Y-102866096D01*
X69043655Y-102866094D01*
X68815413Y-102804938D01*
X68815403Y-102804936D01*
X68580001Y-102784341D01*
X68579999Y-102784341D01*
X68344596Y-102804936D01*
X68344586Y-102804938D01*
X68116344Y-102866094D01*
X68116335Y-102866098D01*
X67902171Y-102965964D01*
X67902169Y-102965965D01*
X67708597Y-103101505D01*
X67541505Y-103268597D01*
X67405965Y-103462169D01*
X67405964Y-103462171D01*
X67306098Y-103676335D01*
X67306094Y-103676344D01*
X67244938Y-103904586D01*
X67244936Y-103904596D01*
X67224341Y-104139999D01*
X67224341Y-104140000D01*
X67244936Y-104375403D01*
X67244938Y-104375413D01*
X67306094Y-104603655D01*
X67306096Y-104603659D01*
X67306097Y-104603663D01*
X67405965Y-104817830D01*
X67405967Y-104817834D01*
X67514281Y-104972521D01*
X67541505Y-105011401D01*
X67708599Y-105178495D01*
X67894158Y-105308425D01*
X67894594Y-105308730D01*
X67938218Y-105363307D01*
X67945411Y-105432806D01*
X67913889Y-105495160D01*
X67894593Y-105511880D01*
X67818626Y-105565072D01*
X67818625Y-105565072D01*
X68447466Y-106193913D01*
X68437685Y-106195320D01*
X68306900Y-106255048D01*
X68198239Y-106349202D01*
X68120507Y-106470156D01*
X68096923Y-106550476D01*
X67465072Y-105918625D01*
X67406401Y-106002419D01*
X67306570Y-106216507D01*
X67306566Y-106216516D01*
X67245432Y-106444673D01*
X67245430Y-106444684D01*
X67224843Y-106679998D01*
X67224843Y-106680001D01*
X67245430Y-106915315D01*
X67245432Y-106915326D01*
X67306566Y-107143483D01*
X67306570Y-107143492D01*
X67406400Y-107357579D01*
X67406402Y-107357583D01*
X67465072Y-107441373D01*
X67465073Y-107441373D01*
X68096923Y-106809523D01*
X68120507Y-106889844D01*
X68198239Y-107010798D01*
X68306900Y-107104952D01*
X68437685Y-107164680D01*
X68447466Y-107166086D01*
X67818625Y-107794925D01*
X67894594Y-107848119D01*
X67938219Y-107902696D01*
X67945413Y-107972194D01*
X67913890Y-108034549D01*
X67894595Y-108051269D01*
X67708594Y-108181508D01*
X67541505Y-108348597D01*
X67405965Y-108542169D01*
X67405964Y-108542171D01*
X67306098Y-108756335D01*
X67306094Y-108756344D01*
X67244938Y-108984586D01*
X67244936Y-108984596D01*
X67224341Y-109219999D01*
X67224341Y-109220000D01*
X67244936Y-109455403D01*
X67244938Y-109455413D01*
X67306094Y-109683655D01*
X67306096Y-109683659D01*
X67306097Y-109683663D01*
X67405847Y-109897578D01*
X67405965Y-109897830D01*
X67405967Y-109897834D01*
X67541501Y-110091395D01*
X67541506Y-110091402D01*
X67708597Y-110258493D01*
X67708603Y-110258498D01*
X67894158Y-110388425D01*
X67937783Y-110443002D01*
X67944977Y-110512500D01*
X67913454Y-110574855D01*
X67894158Y-110591575D01*
X67708597Y-110721505D01*
X67541505Y-110888597D01*
X67405965Y-111082169D01*
X67405964Y-111082171D01*
X67306098Y-111296335D01*
X67306094Y-111296344D01*
X67244938Y-111524586D01*
X67244936Y-111524596D01*
X67224341Y-111759999D01*
X67224341Y-111760000D01*
X60315500Y-111760000D01*
X60315500Y-87248185D01*
X60335185Y-87181146D01*
X60387989Y-87135391D01*
X60457147Y-87125447D01*
X60500373Y-87143087D01*
X60501637Y-87140899D01*
X60507270Y-87144151D01*
X60680192Y-87221142D01*
X60680197Y-87221144D01*
X60865354Y-87260500D01*
X60865355Y-87260500D01*
X61054644Y-87260500D01*
X61054646Y-87260500D01*
X61239803Y-87221144D01*
X61412730Y-87144151D01*
X61565871Y-87032888D01*
X61692533Y-86892216D01*
X61787179Y-86728284D01*
X61845674Y-86548256D01*
X61863321Y-86380345D01*
X61889905Y-86315732D01*
X61898952Y-86305636D01*
X67693788Y-80510801D01*
X67706042Y-80500986D01*
X67705859Y-80500764D01*
X67711866Y-80495792D01*
X67711877Y-80495786D01*
X67742775Y-80462882D01*
X67759227Y-80445364D01*
X67769671Y-80434918D01*
X67780120Y-80424471D01*
X67784379Y-80418978D01*
X67788152Y-80414561D01*
X67820062Y-80380582D01*
X67829713Y-80363024D01*
X67840396Y-80346761D01*
X67852673Y-80330936D01*
X67871185Y-80288153D01*
X67873738Y-80282941D01*
X67896197Y-80242092D01*
X67901180Y-80222680D01*
X67907481Y-80204280D01*
X67915437Y-80185896D01*
X67922729Y-80139852D01*
X67923906Y-80134171D01*
X67935500Y-80089019D01*
X67935500Y-80068983D01*
X67937027Y-80049582D01*
X67940160Y-80029804D01*
X67935775Y-79983415D01*
X67935500Y-79977577D01*
X67935500Y-79954188D01*
X67955185Y-79887149D01*
X67988377Y-79852613D01*
X68060209Y-79802316D01*
X68149139Y-79740047D01*
X68310047Y-79579139D01*
X68440568Y-79392734D01*
X68467618Y-79334724D01*
X68513790Y-79282285D01*
X68580983Y-79263133D01*
X68647865Y-79283348D01*
X68692382Y-79334725D01*
X68719429Y-79392728D01*
X68719432Y-79392734D01*
X68849954Y-79579141D01*
X69010858Y-79740045D01*
X69010861Y-79740047D01*
X69197266Y-79870568D01*
X69403504Y-79966739D01*
X69623308Y-80025635D01*
X69780791Y-80039413D01*
X69849998Y-80045468D01*
X69850000Y-80045468D01*
X69850002Y-80045468D01*
X69906673Y-80040509D01*
X70076692Y-80025635D01*
X70296496Y-79966739D01*
X70502734Y-79870568D01*
X70689139Y-79740047D01*
X70850047Y-79579139D01*
X70980568Y-79392734D01*
X71007895Y-79334129D01*
X71054064Y-79281695D01*
X71121257Y-79262542D01*
X71188139Y-79282757D01*
X71232657Y-79334133D01*
X71259865Y-79392482D01*
X71390342Y-79578820D01*
X71551179Y-79739657D01*
X71737517Y-79870134D01*
X71943673Y-79966265D01*
X71943682Y-79966269D01*
X72139999Y-80018872D01*
X72140000Y-80018871D01*
X72140000Y-79175501D01*
X72247685Y-79224680D01*
X72354237Y-79240000D01*
X72425763Y-79240000D01*
X72532315Y-79224680D01*
X72640000Y-79175501D01*
X72640000Y-80018872D01*
X72836317Y-79966269D01*
X72836326Y-79966265D01*
X73042482Y-79870134D01*
X73228820Y-79739657D01*
X73389657Y-79578820D01*
X73520132Y-79392484D01*
X73547341Y-79334134D01*
X73593513Y-79281695D01*
X73660707Y-79262542D01*
X73727588Y-79282757D01*
X73772106Y-79334133D01*
X73799431Y-79392732D01*
X73799432Y-79392734D01*
X73929954Y-79579141D01*
X74090858Y-79740045D01*
X74090861Y-79740047D01*
X74277266Y-79870568D01*
X74483504Y-79966739D01*
X74703308Y-80025635D01*
X74860791Y-80039413D01*
X74929998Y-80045468D01*
X74930000Y-80045468D01*
X74930002Y-80045468D01*
X74986673Y-80040509D01*
X75156692Y-80025635D01*
X75376496Y-79966739D01*
X75582734Y-79870568D01*
X75769139Y-79740047D01*
X75930047Y-79579139D01*
X76060568Y-79392734D01*
X76156739Y-79186496D01*
X76215635Y-78966692D01*
X76221039Y-78904906D01*
X76246490Y-78839840D01*
X76256878Y-78828041D01*
X78168487Y-76916433D01*
X78233053Y-76855059D01*
X78268119Y-76804675D01*
X78270912Y-76800972D01*
X78309697Y-76753408D01*
X78325604Y-76722952D01*
X78329666Y-76716248D01*
X78349295Y-76688049D01*
X78373497Y-76631650D01*
X78375500Y-76627431D01*
X78403909Y-76573049D01*
X78413357Y-76540022D01*
X78415988Y-76532633D01*
X78429540Y-76501058D01*
X78441895Y-76440930D01*
X78442999Y-76436429D01*
X78459886Y-76377418D01*
X78462494Y-76343157D01*
X78463585Y-76335389D01*
X78470500Y-76301743D01*
X78470500Y-76240398D01*
X78470679Y-76235688D01*
X78475337Y-76174524D01*
X78470997Y-76140442D01*
X78470500Y-76132603D01*
X78470500Y-59702675D01*
X78472756Y-59613642D01*
X78472755Y-59613641D01*
X78472756Y-59613636D01*
X78461929Y-59553233D01*
X78461282Y-59548620D01*
X78455074Y-59487562D01*
X78455073Y-59487560D01*
X78455073Y-59487557D01*
X78444790Y-59454787D01*
X78442917Y-59447154D01*
X78436858Y-59413348D01*
X78414102Y-59356378D01*
X78412521Y-59351937D01*
X78394157Y-59293407D01*
X78377488Y-59263378D01*
X78374117Y-59256278D01*
X78361378Y-59224386D01*
X78361377Y-59224383D01*
X78327620Y-59173163D01*
X78325180Y-59169134D01*
X78314379Y-59149675D01*
X78295409Y-59115498D01*
X78295407Y-59115495D01*
X78273033Y-59089434D01*
X78268302Y-59083159D01*
X78249402Y-59054481D01*
X78206012Y-59011091D01*
X78202822Y-59007648D01*
X78162867Y-58961106D01*
X78162863Y-58961102D01*
X78135698Y-58940074D01*
X78129803Y-58934882D01*
X76311890Y-57116969D01*
X76278405Y-57055646D01*
X76276043Y-57040095D01*
X76265063Y-56914592D01*
X76203903Y-56686337D01*
X76104035Y-56472171D01*
X75968495Y-56278599D01*
X75968494Y-56278597D01*
X75801402Y-56111506D01*
X75801395Y-56111501D01*
X75607834Y-55975967D01*
X75607830Y-55975965D01*
X75607828Y-55975964D01*
X75393663Y-55876097D01*
X75393659Y-55876096D01*
X75393655Y-55876094D01*
X75165413Y-55814938D01*
X75165403Y-55814936D01*
X74930001Y-55794341D01*
X74929999Y-55794341D01*
X74694596Y-55814936D01*
X74694586Y-55814938D01*
X74466344Y-55876094D01*
X74466335Y-55876098D01*
X74252171Y-55975964D01*
X74252169Y-55975965D01*
X74058600Y-56111503D01*
X73936673Y-56233430D01*
X73875350Y-56266914D01*
X73805658Y-56261930D01*
X73749725Y-56220058D01*
X73732810Y-56189081D01*
X73683797Y-56057671D01*
X73683793Y-56057664D01*
X73597547Y-55942455D01*
X73597544Y-55942452D01*
X73482335Y-55856206D01*
X73482328Y-55856202D01*
X73347482Y-55805908D01*
X73347483Y-55805908D01*
X73287883Y-55799501D01*
X73287881Y-55799500D01*
X73287873Y-55799500D01*
X73287864Y-55799500D01*
X71492129Y-55799500D01*
X71492123Y-55799501D01*
X71432516Y-55805908D01*
X71297671Y-55856202D01*
X71297664Y-55856206D01*
X71182455Y-55942452D01*
X71182452Y-55942455D01*
X71096206Y-56057664D01*
X71096204Y-56057668D01*
X71096204Y-56057669D01*
X71092039Y-56068834D01*
X71050171Y-56124766D01*
X70984707Y-56149184D01*
X70975859Y-56149500D01*
X67764499Y-56149500D01*
X67697460Y-56129815D01*
X67651705Y-56077011D01*
X67640499Y-56025500D01*
X67640499Y-56002129D01*
X67640498Y-56002123D01*
X67640497Y-56002116D01*
X67634091Y-55942517D01*
X67609318Y-55876098D01*
X67583797Y-55807671D01*
X67583793Y-55807664D01*
X67497547Y-55692455D01*
X67497544Y-55692452D01*
X67382335Y-55606206D01*
X67382328Y-55606202D01*
X67247482Y-55555908D01*
X67247483Y-55555908D01*
X67187883Y-55549501D01*
X67187881Y-55549500D01*
X67187873Y-55549500D01*
X67187864Y-55549500D01*
X64892129Y-55549500D01*
X64892123Y-55549501D01*
X64832516Y-55555908D01*
X64697671Y-55606202D01*
X64697664Y-55606206D01*
X64582455Y-55692452D01*
X64582452Y-55692455D01*
X64496206Y-55807664D01*
X64496202Y-55807671D01*
X64445908Y-55942517D01*
X64439501Y-56002116D01*
X64439501Y-56002123D01*
X64439500Y-56002135D01*
X64439500Y-58297870D01*
X64439501Y-58297876D01*
X64445908Y-58357483D01*
X64496202Y-58492328D01*
X64496206Y-58492335D01*
X64582452Y-58607544D01*
X64582455Y-58607547D01*
X64697664Y-58693793D01*
X64697671Y-58693797D01*
X64832517Y-58744091D01*
X64832516Y-58744091D01*
X64839444Y-58744835D01*
X64892127Y-58750500D01*
X67187872Y-58750499D01*
X67247483Y-58744091D01*
X67382331Y-58693796D01*
X67497546Y-58607546D01*
X67583796Y-58492331D01*
X67634091Y-58357483D01*
X67640500Y-58297873D01*
X67640500Y-58274500D01*
X67660185Y-58207461D01*
X67712989Y-58161706D01*
X67764500Y-58150500D01*
X70975859Y-58150500D01*
X71042898Y-58170185D01*
X71088653Y-58222989D01*
X71092030Y-58231140D01*
X71096204Y-58242331D01*
X71096205Y-58242332D01*
X71096206Y-58242335D01*
X71182452Y-58357544D01*
X71182455Y-58357547D01*
X71297664Y-58443793D01*
X71297671Y-58443797D01*
X71432517Y-58494091D01*
X71432516Y-58494091D01*
X71439444Y-58494835D01*
X71492127Y-58500500D01*
X73287872Y-58500499D01*
X73347483Y-58494091D01*
X73482331Y-58443796D01*
X73597546Y-58357546D01*
X73683796Y-58242331D01*
X73732810Y-58110916D01*
X73774681Y-58054984D01*
X73840145Y-58030566D01*
X73908418Y-58045417D01*
X73936673Y-58066569D01*
X74058599Y-58188495D01*
X74155384Y-58256265D01*
X74252165Y-58324032D01*
X74252167Y-58324033D01*
X74252170Y-58324035D01*
X74466337Y-58423903D01*
X74694592Y-58485063D01*
X74820096Y-58496043D01*
X74885164Y-58521495D01*
X74896969Y-58531890D01*
X76433181Y-60068102D01*
X76466666Y-60129425D01*
X76469500Y-60155783D01*
X76469500Y-62567099D01*
X76449815Y-62634138D01*
X76397011Y-62679893D01*
X76327853Y-62689837D01*
X76264297Y-62660812D01*
X76226523Y-62602034D01*
X76224824Y-62595616D01*
X76224092Y-62592520D01*
X76173797Y-62457671D01*
X76173793Y-62457664D01*
X76087547Y-62342455D01*
X76087544Y-62342452D01*
X75972335Y-62256206D01*
X75972328Y-62256202D01*
X75837482Y-62205908D01*
X75837483Y-62205908D01*
X75777883Y-62199501D01*
X75777881Y-62199500D01*
X75777873Y-62199500D01*
X75777864Y-62199500D01*
X74082129Y-62199500D01*
X74082123Y-62199501D01*
X74022516Y-62205908D01*
X73887671Y-62256202D01*
X73887664Y-62256206D01*
X73772455Y-62342452D01*
X73772452Y-62342455D01*
X73686206Y-62457664D01*
X73686202Y-62457671D01*
X73635908Y-62592516D01*
X73632137Y-62627596D01*
X73605398Y-62692146D01*
X73548006Y-62731994D01*
X73478180Y-62734487D01*
X73418092Y-62698834D01*
X73407273Y-62685462D01*
X73390045Y-62660858D01*
X73229141Y-62499954D01*
X73042734Y-62369432D01*
X73042732Y-62369431D01*
X72836497Y-62273261D01*
X72836488Y-62273258D01*
X72616697Y-62214366D01*
X72616693Y-62214365D01*
X72616692Y-62214365D01*
X72616691Y-62214364D01*
X72616686Y-62214364D01*
X72390002Y-62194532D01*
X72389998Y-62194532D01*
X72163313Y-62214364D01*
X72163302Y-62214366D01*
X71943511Y-62273258D01*
X71943502Y-62273261D01*
X71737267Y-62369431D01*
X71737265Y-62369432D01*
X71550858Y-62499954D01*
X71389954Y-62660858D01*
X71259432Y-62847265D01*
X71259431Y-62847267D01*
X71232382Y-62905275D01*
X71186209Y-62957714D01*
X71119016Y-62976866D01*
X71052135Y-62956650D01*
X71007618Y-62905275D01*
X70980686Y-62847520D01*
X70980568Y-62847266D01*
X70850047Y-62660861D01*
X70850045Y-62660858D01*
X70689141Y-62499954D01*
X70502734Y-62369432D01*
X70502732Y-62369431D01*
X70296497Y-62273261D01*
X70296488Y-62273258D01*
X70076697Y-62214366D01*
X70076693Y-62214365D01*
X70076692Y-62214365D01*
X70076691Y-62214364D01*
X70076686Y-62214364D01*
X69850002Y-62194532D01*
X69849998Y-62194532D01*
X69623313Y-62214364D01*
X69623302Y-62214366D01*
X69403511Y-62273258D01*
X69403502Y-62273261D01*
X69197267Y-62369431D01*
X69197265Y-62369432D01*
X69010858Y-62499954D01*
X68849954Y-62660858D01*
X68719433Y-62847264D01*
X68719432Y-62847266D01*
X68719315Y-62847518D01*
X68692106Y-62905867D01*
X68645933Y-62958306D01*
X68578739Y-62977457D01*
X68511858Y-62957241D01*
X68467342Y-62905865D01*
X68440135Y-62847520D01*
X68440134Y-62847518D01*
X68309657Y-62661179D01*
X68148820Y-62500342D01*
X67962482Y-62369865D01*
X67756328Y-62273734D01*
X67560000Y-62221127D01*
X67560000Y-63064498D01*
X67452315Y-63015320D01*
X67345763Y-63000000D01*
X67274237Y-63000000D01*
X67167685Y-63015320D01*
X67060000Y-63064498D01*
X67060000Y-62221127D01*
X66863671Y-62273734D01*
X66657517Y-62369865D01*
X66471179Y-62500342D01*
X66310342Y-62661179D01*
X66179867Y-62847515D01*
X66152657Y-62905867D01*
X66106484Y-62958306D01*
X66039290Y-62977457D01*
X65972409Y-62957241D01*
X65927893Y-62905865D01*
X65900685Y-62847518D01*
X65900568Y-62847266D01*
X65770047Y-62660861D01*
X65770045Y-62660858D01*
X65609141Y-62499954D01*
X65422734Y-62369432D01*
X65422732Y-62369431D01*
X65216497Y-62273261D01*
X65216488Y-62273258D01*
X64996697Y-62214366D01*
X64996693Y-62214365D01*
X64996692Y-62214365D01*
X64996691Y-62214364D01*
X64996686Y-62214364D01*
X64770002Y-62194532D01*
X64769998Y-62194532D01*
X64543313Y-62214364D01*
X64543302Y-62214366D01*
X64323511Y-62273258D01*
X64323502Y-62273261D01*
X64117267Y-62369431D01*
X64117265Y-62369432D01*
X63930858Y-62499954D01*
X63769954Y-62660858D01*
X63639432Y-62847265D01*
X63639431Y-62847267D01*
X63612382Y-62905275D01*
X63566209Y-62957714D01*
X63499016Y-62976866D01*
X63432135Y-62956650D01*
X63387618Y-62905275D01*
X63360686Y-62847520D01*
X63360568Y-62847266D01*
X63230047Y-62660861D01*
X63230045Y-62660858D01*
X63069141Y-62499954D01*
X62882734Y-62369432D01*
X62882732Y-62369431D01*
X62676497Y-62273261D01*
X62676488Y-62273258D01*
X62456697Y-62214366D01*
X62456693Y-62214365D01*
X62456692Y-62214365D01*
X62456691Y-62214364D01*
X62456686Y-62214364D01*
X62230002Y-62194532D01*
X62229998Y-62194532D01*
X62003313Y-62214364D01*
X62003302Y-62214366D01*
X61783511Y-62273258D01*
X61783502Y-62273261D01*
X61577267Y-62369431D01*
X61577265Y-62369432D01*
X61390858Y-62499954D01*
X61229954Y-62660858D01*
X61099432Y-62847265D01*
X61099431Y-62847267D01*
X61072382Y-62905275D01*
X61026209Y-62957714D01*
X60959016Y-62976866D01*
X60892135Y-62956650D01*
X60847618Y-62905275D01*
X60820686Y-62847520D01*
X60820568Y-62847266D01*
X60690047Y-62660861D01*
X60690045Y-62660858D01*
X60529141Y-62499954D01*
X60342734Y-62369432D01*
X60342732Y-62369431D01*
X60136497Y-62273261D01*
X60136488Y-62273258D01*
X59916697Y-62214366D01*
X59916693Y-62214365D01*
X59916692Y-62214365D01*
X59916691Y-62214364D01*
X59916686Y-62214364D01*
X59690002Y-62194532D01*
X59689998Y-62194532D01*
X59463313Y-62214364D01*
X59463302Y-62214366D01*
X59243511Y-62273258D01*
X59243502Y-62273261D01*
X59037267Y-62369431D01*
X59037265Y-62369432D01*
X58850858Y-62499954D01*
X58689954Y-62660858D01*
X58559432Y-62847265D01*
X58559431Y-62847267D01*
X58532382Y-62905275D01*
X58486209Y-62957714D01*
X58419016Y-62976866D01*
X58352135Y-62956650D01*
X58307618Y-62905275D01*
X58280686Y-62847520D01*
X58280568Y-62847266D01*
X58150047Y-62660861D01*
X58150045Y-62660858D01*
X57989141Y-62499954D01*
X57802734Y-62369432D01*
X57802732Y-62369431D01*
X57596497Y-62273261D01*
X57596488Y-62273258D01*
X57376697Y-62214366D01*
X57376693Y-62214365D01*
X57376692Y-62214365D01*
X57376691Y-62214364D01*
X57376686Y-62214364D01*
X57150002Y-62194532D01*
X57149998Y-62194532D01*
X56923313Y-62214364D01*
X56923302Y-62214366D01*
X56703511Y-62273258D01*
X56703502Y-62273261D01*
X56497267Y-62369431D01*
X56497265Y-62369432D01*
X56310858Y-62499954D01*
X56149954Y-62660858D01*
X56019432Y-62847265D01*
X56019431Y-62847267D01*
X55992382Y-62905275D01*
X55946209Y-62957714D01*
X55879016Y-62976866D01*
X55812135Y-62956650D01*
X55767618Y-62905275D01*
X55740686Y-62847520D01*
X55740568Y-62847266D01*
X55610047Y-62660861D01*
X55610045Y-62660858D01*
X55449141Y-62499954D01*
X55262734Y-62369432D01*
X55262732Y-62369431D01*
X55056497Y-62273261D01*
X55056488Y-62273258D01*
X54836697Y-62214366D01*
X54836693Y-62214365D01*
X54836692Y-62214365D01*
X54836691Y-62214364D01*
X54836686Y-62214364D01*
X54610002Y-62194532D01*
X54609998Y-62194532D01*
X54383313Y-62214364D01*
X54383302Y-62214366D01*
X54163511Y-62273258D01*
X54163502Y-62273261D01*
X53957267Y-62369431D01*
X53957265Y-62369432D01*
X53770858Y-62499954D01*
X53609954Y-62660858D01*
X53479432Y-62847265D01*
X53479431Y-62847267D01*
X53452382Y-62905275D01*
X53406209Y-62957714D01*
X53339016Y-62976866D01*
X53272135Y-62956650D01*
X53227618Y-62905275D01*
X53200686Y-62847520D01*
X53200568Y-62847266D01*
X53070047Y-62660861D01*
X53070045Y-62660858D01*
X52909141Y-62499954D01*
X52722734Y-62369432D01*
X52722732Y-62369431D01*
X52516497Y-62273261D01*
X52516488Y-62273258D01*
X52296697Y-62214366D01*
X52296693Y-62214365D01*
X52296692Y-62214365D01*
X52296691Y-62214364D01*
X52296686Y-62214364D01*
X52070002Y-62194532D01*
X52069998Y-62194532D01*
X51843313Y-62214364D01*
X51843302Y-62214366D01*
X51623511Y-62273258D01*
X51623502Y-62273261D01*
X51417267Y-62369431D01*
X51417265Y-62369432D01*
X51230858Y-62499954D01*
X51069954Y-62660858D01*
X50939432Y-62847265D01*
X50939431Y-62847267D01*
X50912382Y-62905275D01*
X50866209Y-62957714D01*
X50799016Y-62976866D01*
X50732135Y-62956650D01*
X50687618Y-62905275D01*
X50660686Y-62847520D01*
X50660568Y-62847266D01*
X50530047Y-62660861D01*
X50530045Y-62660858D01*
X50369141Y-62499954D01*
X50182734Y-62369432D01*
X50182732Y-62369431D01*
X49976497Y-62273261D01*
X49976488Y-62273258D01*
X49756697Y-62214366D01*
X49756693Y-62214365D01*
X49756692Y-62214365D01*
X49756691Y-62214364D01*
X49756686Y-62214364D01*
X49530002Y-62194532D01*
X49529998Y-62194532D01*
X49303313Y-62214364D01*
X49303302Y-62214366D01*
X49083511Y-62273258D01*
X49083502Y-62273261D01*
X48877267Y-62369431D01*
X48877265Y-62369432D01*
X48690858Y-62499954D01*
X48529954Y-62660858D01*
X48399432Y-62847265D01*
X48399431Y-62847267D01*
X48372382Y-62905275D01*
X48326209Y-62957714D01*
X48259016Y-62976866D01*
X48192135Y-62956650D01*
X48147618Y-62905275D01*
X48120686Y-62847520D01*
X48120568Y-62847266D01*
X47990047Y-62660861D01*
X47990045Y-62660858D01*
X47829141Y-62499954D01*
X47642734Y-62369432D01*
X47642732Y-62369431D01*
X47436497Y-62273261D01*
X47436488Y-62273258D01*
X47216697Y-62214366D01*
X47216693Y-62214365D01*
X47216692Y-62214365D01*
X47216691Y-62214364D01*
X47216686Y-62214364D01*
X46990002Y-62194532D01*
X46989998Y-62194532D01*
X46763313Y-62214364D01*
X46763302Y-62214366D01*
X46543511Y-62273258D01*
X46543502Y-62273261D01*
X46337267Y-62369431D01*
X46337265Y-62369432D01*
X46150858Y-62499954D01*
X45989954Y-62660858D01*
X45859432Y-62847265D01*
X45859431Y-62847267D01*
X45832382Y-62905275D01*
X45786209Y-62957714D01*
X45719016Y-62976866D01*
X45652135Y-62956650D01*
X45607618Y-62905275D01*
X45580686Y-62847520D01*
X45580568Y-62847266D01*
X45450047Y-62660861D01*
X45450045Y-62660858D01*
X45289141Y-62499954D01*
X45102734Y-62369432D01*
X45102732Y-62369431D01*
X44896497Y-62273261D01*
X44896488Y-62273258D01*
X44676697Y-62214366D01*
X44676693Y-62214365D01*
X44676692Y-62214365D01*
X44676691Y-62214364D01*
X44676686Y-62214364D01*
X44450002Y-62194532D01*
X44449998Y-62194532D01*
X44223313Y-62214364D01*
X44223302Y-62214366D01*
X44003511Y-62273258D01*
X44003502Y-62273261D01*
X43797267Y-62369431D01*
X43797265Y-62369432D01*
X43610858Y-62499954D01*
X43449954Y-62660858D01*
X43319432Y-62847265D01*
X43319431Y-62847267D01*
X43292382Y-62905275D01*
X43246209Y-62957714D01*
X43179016Y-62976866D01*
X43112135Y-62956650D01*
X43067618Y-62905275D01*
X43040686Y-62847520D01*
X43040568Y-62847266D01*
X42910047Y-62660861D01*
X42910045Y-62660858D01*
X42749141Y-62499954D01*
X42562734Y-62369432D01*
X42562732Y-62369431D01*
X42356497Y-62273261D01*
X42356488Y-62273258D01*
X42136697Y-62214366D01*
X42136693Y-62214365D01*
X42136692Y-62214365D01*
X42136691Y-62214364D01*
X42136686Y-62214364D01*
X41910002Y-62194532D01*
X41909998Y-62194532D01*
X41683313Y-62214364D01*
X41683302Y-62214366D01*
X41463511Y-62273258D01*
X41463502Y-62273261D01*
X41257267Y-62369431D01*
X41257265Y-62369432D01*
X41070858Y-62499954D01*
X40909954Y-62660858D01*
X40779432Y-62847265D01*
X40779431Y-62847267D01*
X40752382Y-62905275D01*
X40706209Y-62957714D01*
X40639016Y-62976866D01*
X40572135Y-62956650D01*
X40527618Y-62905275D01*
X40500686Y-62847520D01*
X40500568Y-62847266D01*
X40370047Y-62660861D01*
X40370045Y-62660858D01*
X40209141Y-62499954D01*
X40022734Y-62369432D01*
X40022732Y-62369431D01*
X39816497Y-62273261D01*
X39816488Y-62273258D01*
X39596697Y-62214366D01*
X39596693Y-62214365D01*
X39596692Y-62214365D01*
X39596691Y-62214364D01*
X39596686Y-62214364D01*
X39370002Y-62194532D01*
X39369998Y-62194532D01*
X39143313Y-62214364D01*
X39143302Y-62214366D01*
X38923511Y-62273258D01*
X38923502Y-62273261D01*
X38717267Y-62369431D01*
X38717265Y-62369432D01*
X38530858Y-62499954D01*
X38369954Y-62660858D01*
X38239432Y-62847265D01*
X38239431Y-62847267D01*
X38143261Y-63053502D01*
X38143258Y-63053511D01*
X38084366Y-63273302D01*
X38084364Y-63273313D01*
X38064532Y-63499998D01*
X38064532Y-63500001D01*
X38084364Y-63726686D01*
X38084366Y-63726697D01*
X38143258Y-63946488D01*
X38143261Y-63946497D01*
X38239431Y-64152732D01*
X38239432Y-64152734D01*
X38369954Y-64339141D01*
X38530858Y-64500045D01*
X38530861Y-64500047D01*
X38717266Y-64630568D01*
X38923504Y-64726739D01*
X39143308Y-64785635D01*
X39305230Y-64799801D01*
X39369998Y-64805468D01*
X39370000Y-64805468D01*
X39370002Y-64805468D01*
X39426807Y-64800498D01*
X39596692Y-64785635D01*
X39816496Y-64726739D01*
X40022734Y-64630568D01*
X40209139Y-64500047D01*
X40370047Y-64339139D01*
X40500568Y-64152734D01*
X40527618Y-64094724D01*
X40573790Y-64042285D01*
X40640983Y-64023133D01*
X40707865Y-64043348D01*
X40752382Y-64094725D01*
X40779429Y-64152728D01*
X40779432Y-64152734D01*
X40909954Y-64339141D01*
X41070858Y-64500045D01*
X41070861Y-64500047D01*
X41257266Y-64630568D01*
X41463504Y-64726739D01*
X41683308Y-64785635D01*
X41845230Y-64799801D01*
X41909998Y-64805468D01*
X41910000Y-64805468D01*
X41910002Y-64805468D01*
X41966807Y-64800498D01*
X42136692Y-64785635D01*
X42356496Y-64726739D01*
X42562734Y-64630568D01*
X42749139Y-64500047D01*
X42910047Y-64339139D01*
X43040568Y-64152734D01*
X43067618Y-64094724D01*
X43113790Y-64042285D01*
X43180983Y-64023133D01*
X43247865Y-64043348D01*
X43292382Y-64094725D01*
X43319429Y-64152728D01*
X43319432Y-64152734D01*
X43449954Y-64339141D01*
X43610858Y-64500045D01*
X43610861Y-64500047D01*
X43797266Y-64630568D01*
X44003504Y-64726739D01*
X44223308Y-64785635D01*
X44385230Y-64799801D01*
X44449998Y-64805468D01*
X44450000Y-64805468D01*
X44450002Y-64805468D01*
X44506807Y-64800498D01*
X44676692Y-64785635D01*
X44896496Y-64726739D01*
X45102734Y-64630568D01*
X45289139Y-64500047D01*
X45450047Y-64339139D01*
X45580568Y-64152734D01*
X45607618Y-64094724D01*
X45653790Y-64042285D01*
X45720983Y-64023133D01*
X45787865Y-64043348D01*
X45832382Y-64094725D01*
X45859429Y-64152728D01*
X45859432Y-64152734D01*
X45989954Y-64339141D01*
X46150858Y-64500045D01*
X46150861Y-64500047D01*
X46337266Y-64630568D01*
X46543504Y-64726739D01*
X46763308Y-64785635D01*
X46925230Y-64799801D01*
X46989998Y-64805468D01*
X46990000Y-64805468D01*
X46990002Y-64805468D01*
X47046807Y-64800498D01*
X47216692Y-64785635D01*
X47436496Y-64726739D01*
X47642734Y-64630568D01*
X47829139Y-64500047D01*
X47990047Y-64339139D01*
X48120568Y-64152734D01*
X48147618Y-64094724D01*
X48193790Y-64042285D01*
X48260983Y-64023133D01*
X48327865Y-64043348D01*
X48372382Y-64094725D01*
X48399429Y-64152728D01*
X48399432Y-64152734D01*
X48529954Y-64339141D01*
X48690858Y-64500045D01*
X48690861Y-64500047D01*
X48877266Y-64630568D01*
X49083504Y-64726739D01*
X49303308Y-64785635D01*
X49465230Y-64799801D01*
X49529998Y-64805468D01*
X49530000Y-64805468D01*
X49530002Y-64805468D01*
X49586807Y-64800498D01*
X49756692Y-64785635D01*
X49976496Y-64726739D01*
X50182734Y-64630568D01*
X50369139Y-64500047D01*
X50530047Y-64339139D01*
X50660568Y-64152734D01*
X50687618Y-64094724D01*
X50733790Y-64042285D01*
X50800983Y-64023133D01*
X50867865Y-64043348D01*
X50912382Y-64094725D01*
X50939429Y-64152728D01*
X50939432Y-64152734D01*
X51069954Y-64339141D01*
X51230858Y-64500045D01*
X51230861Y-64500047D01*
X51417266Y-64630568D01*
X51623504Y-64726739D01*
X51843308Y-64785635D01*
X52005230Y-64799801D01*
X52069998Y-64805468D01*
X52069999Y-64805468D01*
X52069999Y-64805467D01*
X52070000Y-64805468D01*
X52114102Y-64801609D01*
X52182600Y-64815375D01*
X52232784Y-64863989D01*
X52248718Y-64932018D01*
X52225344Y-64997862D01*
X52212590Y-65012818D01*
X45312228Y-71913181D01*
X45250905Y-71946666D01*
X45224547Y-71949500D01*
X38631341Y-71949500D01*
X38615724Y-71947776D01*
X38615697Y-71948062D01*
X38607935Y-71947327D01*
X38538807Y-71949500D01*
X38509254Y-71949500D01*
X38508533Y-71949590D01*
X38502361Y-71950369D01*
X38496549Y-71950826D01*
X38449976Y-71952290D01*
X38449973Y-71952291D01*
X38430730Y-71957881D01*
X38411687Y-71961825D01*
X38391808Y-71964336D01*
X38391807Y-71964337D01*
X38348482Y-71981490D01*
X38342956Y-71983382D01*
X38298212Y-71996383D01*
X38298208Y-71996385D01*
X38280969Y-72006580D01*
X38263502Y-72015137D01*
X38244873Y-72022512D01*
X38244871Y-72022513D01*
X38207168Y-72049906D01*
X38202286Y-72053112D01*
X38162184Y-72076828D01*
X38148012Y-72091000D01*
X38133227Y-72103628D01*
X38117016Y-72115407D01*
X38087313Y-72151310D01*
X38083381Y-72155631D01*
X34726208Y-75512803D01*
X34713951Y-75522624D01*
X34714134Y-75522845D01*
X34708123Y-75527817D01*
X34660772Y-75578240D01*
X34639889Y-75599123D01*
X34639877Y-75599136D01*
X34635621Y-75604621D01*
X34631837Y-75609051D01*
X34599937Y-75643022D01*
X34599936Y-75643024D01*
X34590284Y-75660580D01*
X34579610Y-75676830D01*
X34567329Y-75692665D01*
X34567324Y-75692672D01*
X34548815Y-75735442D01*
X34546245Y-75740688D01*
X34523803Y-75781510D01*
X34518822Y-75800911D01*
X34512521Y-75819314D01*
X34504562Y-75837706D01*
X34504561Y-75837709D01*
X34497271Y-75883731D01*
X34496087Y-75889450D01*
X34484501Y-75934576D01*
X34484500Y-75934586D01*
X34484500Y-75954620D01*
X34482973Y-75974019D01*
X34479840Y-75993798D01*
X34479840Y-75993799D01*
X32510500Y-75993799D01*
X32510500Y-35250002D01*
X34254726Y-35250002D01*
X34273808Y-35601954D01*
X34330833Y-35949793D01*
X34330834Y-35949796D01*
X34425126Y-36289408D01*
X34425127Y-36289410D01*
X34555588Y-36616844D01*
X34555597Y-36616862D01*
X34720695Y-36928269D01*
X34918498Y-37220006D01*
X34918505Y-37220016D01*
X35146685Y-37488649D01*
X35146686Y-37488650D01*
X35402580Y-37731046D01*
X35683182Y-37944354D01*
X35985202Y-38126074D01*
X35985206Y-38126075D01*
X35985210Y-38126078D01*
X36305088Y-38274070D01*
X36305092Y-38274070D01*
X36305099Y-38274074D01*
X36639122Y-38386619D01*
X36983355Y-38462391D01*
X37333763Y-38500500D01*
X37333769Y-38500500D01*
X37686231Y-38500500D01*
X37686237Y-38500500D01*
X38036645Y-38462391D01*
X38380878Y-38386619D01*
X38714901Y-38274074D01*
X38714908Y-38274070D01*
X38714911Y-38274070D01*
X39034789Y-38126078D01*
X39034798Y-38126074D01*
X39336818Y-37944354D01*
X39617420Y-37731046D01*
X39873314Y-37488650D01*
X40101501Y-37220008D01*
X40299305Y-36928269D01*
X40464407Y-36616854D01*
X40594871Y-36289414D01*
X40595126Y-36288498D01*
X40641609Y-36121078D01*
X40689168Y-35949788D01*
X40746191Y-35601957D01*
X40751719Y-35500000D01*
X49059364Y-35500000D01*
X49116567Y-35713486D01*
X49116570Y-35713492D01*
X49216399Y-35927578D01*
X49351894Y-36121082D01*
X49518917Y-36288105D01*
X49712421Y-36423600D01*
X49926507Y-36523429D01*
X49926516Y-36523433D01*
X50140000Y-36580634D01*
X50140000Y-35685501D01*
X50247685Y-35734680D01*
X50354237Y-35750000D01*
X50425763Y-35750000D01*
X50532315Y-35734680D01*
X50640000Y-35685501D01*
X50640000Y-36580633D01*
X50853483Y-36523433D01*
X50853492Y-36523429D01*
X51067578Y-36423600D01*
X51261082Y-36288105D01*
X51428105Y-36121082D01*
X51558119Y-35935405D01*
X51612696Y-35891781D01*
X51682195Y-35884588D01*
X51744549Y-35916110D01*
X51761269Y-35935405D01*
X51891505Y-36121401D01*
X52058599Y-36288495D01*
X52155384Y-36356265D01*
X52252165Y-36424032D01*
X52252167Y-36424033D01*
X52252170Y-36424035D01*
X52466337Y-36523903D01*
X52694592Y-36585063D01*
X52871034Y-36600500D01*
X52929999Y-36605659D01*
X52930000Y-36605659D01*
X52930001Y-36605659D01*
X52988966Y-36600500D01*
X53165408Y-36585063D01*
X53393663Y-36523903D01*
X53607830Y-36424035D01*
X53801401Y-36288495D01*
X53968495Y-36121401D01*
X54098425Y-35935842D01*
X54153002Y-35892217D01*
X54222500Y-35885023D01*
X54284855Y-35916546D01*
X54301575Y-35935842D01*
X54431281Y-36121082D01*
X54431505Y-36121401D01*
X54598599Y-36288495D01*
X54695384Y-36356265D01*
X54792165Y-36424032D01*
X54792167Y-36424033D01*
X54792170Y-36424035D01*
X55006337Y-36523903D01*
X55234592Y-36585063D01*
X55411034Y-36600500D01*
X55469999Y-36605659D01*
X55470000Y-36605659D01*
X55470001Y-36605659D01*
X55528966Y-36600500D01*
X55705408Y-36585063D01*
X55933663Y-36523903D01*
X56147830Y-36424035D01*
X56341401Y-36288495D01*
X56508495Y-36121401D01*
X56638730Y-35935405D01*
X56693307Y-35891781D01*
X56762805Y-35884587D01*
X56825160Y-35916110D01*
X56841879Y-35935405D01*
X56971890Y-36121078D01*
X57138917Y-36288105D01*
X57332421Y-36423600D01*
X57546507Y-36523429D01*
X57546516Y-36523433D01*
X57760000Y-36580634D01*
X57760000Y-35685501D01*
X57867685Y-35734680D01*
X57974237Y-35750000D01*
X58045763Y-35750000D01*
X58152315Y-35734680D01*
X58260000Y-35685501D01*
X58260000Y-36580633D01*
X58473483Y-36523433D01*
X58473492Y-36523429D01*
X58687578Y-36423600D01*
X58881078Y-36288108D01*
X59003133Y-36166053D01*
X59064456Y-36132568D01*
X59134148Y-36137552D01*
X59190082Y-36179423D01*
X59206997Y-36210401D01*
X59256202Y-36342328D01*
X59256206Y-36342335D01*
X59342452Y-36457544D01*
X59342455Y-36457547D01*
X59457664Y-36543793D01*
X59457671Y-36543797D01*
X59592517Y-36594091D01*
X59592516Y-36594091D01*
X59599444Y-36594835D01*
X59652127Y-36600500D01*
X60523412Y-36600499D01*
X60580823Y-36614590D01*
X60603442Y-36626405D01*
X60633712Y-36648633D01*
X63733181Y-39748101D01*
X63766666Y-39809424D01*
X63769500Y-39835782D01*
X63769500Y-43489241D01*
X63749815Y-43556280D01*
X63733181Y-43576922D01*
X63731505Y-43578597D01*
X63595965Y-43772169D01*
X63595964Y-43772171D01*
X63496098Y-43986335D01*
X63496094Y-43986344D01*
X63434938Y-44214586D01*
X63434936Y-44214596D01*
X63414341Y-44449999D01*
X63414341Y-44450000D01*
X63434936Y-44685403D01*
X63434938Y-44685413D01*
X63496094Y-44913655D01*
X63496096Y-44913659D01*
X63496097Y-44913663D01*
X63595965Y-45127830D01*
X63595967Y-45127834D01*
X63704281Y-45282521D01*
X63731501Y-45321396D01*
X63731506Y-45321402D01*
X63853430Y-45443326D01*
X63886915Y-45504649D01*
X63881931Y-45574341D01*
X63840059Y-45630274D01*
X63809083Y-45647189D01*
X63677669Y-45696203D01*
X63677664Y-45696206D01*
X63562455Y-45782452D01*
X63562452Y-45782455D01*
X63476206Y-45897664D01*
X63476202Y-45897671D01*
X63425908Y-46032517D01*
X63419501Y-46092116D01*
X63419501Y-46092123D01*
X63419500Y-46092135D01*
X63419500Y-47887870D01*
X63419501Y-47887876D01*
X63425908Y-47947483D01*
X63463716Y-48048849D01*
X63468700Y-48118540D01*
X63435215Y-48179863D01*
X56097049Y-55518029D01*
X56035726Y-55551514D01*
X55999640Y-55553966D01*
X55880000Y-55544551D01*
X55628848Y-55564317D01*
X55383889Y-55623126D01*
X55151140Y-55719533D01*
X54936346Y-55851160D01*
X54936343Y-55851161D01*
X54744776Y-56014776D01*
X54581161Y-56206343D01*
X54581160Y-56206346D01*
X54449533Y-56421140D01*
X54353126Y-56653889D01*
X54294317Y-56898848D01*
X54274551Y-57150000D01*
X54294317Y-57401151D01*
X54353126Y-57646110D01*
X54449533Y-57878859D01*
X54581160Y-58093653D01*
X54581161Y-58093656D01*
X54629711Y-58150500D01*
X54744776Y-58285224D01*
X54893066Y-58411875D01*
X54936343Y-58448838D01*
X54936346Y-58448839D01*
X55151140Y-58580466D01*
X55383889Y-58676873D01*
X55628852Y-58735683D01*
X55880000Y-58755449D01*
X56131148Y-58735683D01*
X56376111Y-58676873D01*
X56608859Y-58580466D01*
X56823659Y-58448836D01*
X57015224Y-58285224D01*
X57178836Y-58093659D01*
X57310466Y-57878859D01*
X57406873Y-57646111D01*
X57465683Y-57401148D01*
X57485449Y-57150000D01*
X57476032Y-57030359D01*
X57490396Y-56961984D01*
X57511966Y-56932953D01*
X65468487Y-48976433D01*
X65533053Y-48915059D01*
X65568112Y-48864686D01*
X65570925Y-48860957D01*
X65609698Y-48813407D01*
X65625607Y-48782948D01*
X65629667Y-48776248D01*
X65649295Y-48748049D01*
X65673492Y-48691660D01*
X65675498Y-48687435D01*
X65703909Y-48633049D01*
X65713360Y-48600015D01*
X65715991Y-48592628D01*
X65729540Y-48561058D01*
X65741893Y-48500940D01*
X65743006Y-48496412D01*
X65759887Y-48437418D01*
X65762495Y-48403159D01*
X65763586Y-48395383D01*
X65766407Y-48381655D01*
X65799178Y-48319953D01*
X65844537Y-48290432D01*
X65862331Y-48283796D01*
X65977546Y-48197546D01*
X66063796Y-48082331D01*
X66114091Y-47947483D01*
X66120500Y-47887873D01*
X66120499Y-46092128D01*
X66114091Y-46032517D01*
X66063796Y-45897669D01*
X66063795Y-45897668D01*
X66063793Y-45897664D01*
X65977547Y-45782455D01*
X65977544Y-45782452D01*
X65862335Y-45696206D01*
X65862328Y-45696202D01*
X65730917Y-45647189D01*
X65674983Y-45605318D01*
X65650566Y-45539853D01*
X65665418Y-45471580D01*
X65686563Y-45443332D01*
X65808495Y-45321401D01*
X65944035Y-45127830D01*
X66043903Y-44913663D01*
X66105063Y-44685408D01*
X66125659Y-44450000D01*
X66105063Y-44214592D01*
X66043903Y-43986337D01*
X65944035Y-43772171D01*
X65808495Y-43578599D01*
X65808494Y-43578597D01*
X65806819Y-43576922D01*
X65806315Y-43576000D01*
X65805014Y-43574449D01*
X65805325Y-43574187D01*
X65773334Y-43515599D01*
X65770500Y-43489241D01*
X65770500Y-39382715D01*
X65772757Y-39293641D01*
X65772756Y-39293640D01*
X65772757Y-39293637D01*
X65761933Y-39233249D01*
X65761280Y-39228587D01*
X65755074Y-39167563D01*
X65755074Y-39167562D01*
X65744784Y-39134768D01*
X65742917Y-39127155D01*
X65736858Y-39093347D01*
X65736857Y-39093345D01*
X65714102Y-39036379D01*
X65712521Y-39031938D01*
X65694157Y-38973407D01*
X65677488Y-38943378D01*
X65674117Y-38936278D01*
X65661378Y-38904386D01*
X65661377Y-38904383D01*
X65627621Y-38853164D01*
X65625183Y-38849140D01*
X65595410Y-38795500D01*
X65595409Y-38795498D01*
X65583293Y-38781385D01*
X65573031Y-38769430D01*
X65568301Y-38763157D01*
X65549401Y-38734480D01*
X65527716Y-38712796D01*
X65506019Y-38691099D01*
X65502828Y-38687655D01*
X65462865Y-38641104D01*
X65435694Y-38620072D01*
X65429807Y-38614887D01*
X62064922Y-35250002D01*
X71754726Y-35250002D01*
X71773808Y-35601954D01*
X71830833Y-35949793D01*
X71830834Y-35949796D01*
X71925126Y-36289408D01*
X71925127Y-36289410D01*
X72055588Y-36616844D01*
X72055597Y-36616862D01*
X72220695Y-36928269D01*
X72418498Y-37220006D01*
X72418505Y-37220016D01*
X72646685Y-37488649D01*
X72646686Y-37488650D01*
X72902580Y-37731046D01*
X73183182Y-37944354D01*
X73485202Y-38126074D01*
X73485206Y-38126075D01*
X73485210Y-38126078D01*
X73805088Y-38274070D01*
X73805092Y-38274070D01*
X73805099Y-38274074D01*
X74139122Y-38386619D01*
X74483355Y-38462391D01*
X74833763Y-38500500D01*
X74833769Y-38500500D01*
X75186231Y-38500500D01*
X75186237Y-38500500D01*
X75536645Y-38462391D01*
X75880878Y-38386619D01*
X76214901Y-38274074D01*
X76214908Y-38274070D01*
X76214911Y-38274070D01*
X76534789Y-38126078D01*
X76534798Y-38126074D01*
X76836818Y-37944354D01*
X77117420Y-37731046D01*
X77373314Y-37488650D01*
X77601501Y-37220008D01*
X77799305Y-36928269D01*
X77964407Y-36616854D01*
X78094871Y-36289414D01*
X78095126Y-36288498D01*
X78141609Y-36121078D01*
X78189168Y-35949788D01*
X78246191Y-35601957D01*
X78265274Y-35250000D01*
X78246191Y-34898043D01*
X78189168Y-34550212D01*
X78139118Y-34369949D01*
X78094873Y-34210591D01*
X78094872Y-34210589D01*
X77964411Y-33883155D01*
X77964402Y-33883137D01*
X77799304Y-33571730D01*
X77601501Y-33279992D01*
X77601497Y-33279987D01*
X77601494Y-33279983D01*
X77373314Y-33011350D01*
X77117420Y-32768954D01*
X77117413Y-32768948D01*
X77117410Y-32768946D01*
X76836815Y-32555644D01*
X76534802Y-32373928D01*
X76534789Y-32373921D01*
X76214911Y-32225929D01*
X76214906Y-32225928D01*
X76214903Y-32225927D01*
X76214901Y-32225926D01*
X76108432Y-32190052D01*
X75880880Y-32113381D01*
X75536643Y-32037608D01*
X75186238Y-31999500D01*
X75186237Y-31999500D01*
X74833763Y-31999500D01*
X74833761Y-31999500D01*
X74483356Y-32037608D01*
X74139119Y-32113381D01*
X73805093Y-32225928D01*
X73805088Y-32225929D01*
X73485210Y-32373921D01*
X73485197Y-32373928D01*
X73183184Y-32555644D01*
X72902589Y-32768946D01*
X72902580Y-32768954D01*
X72646685Y-33011350D01*
X72418505Y-33279983D01*
X72418498Y-33279993D01*
X72220695Y-33571730D01*
X72055597Y-33883137D01*
X72055588Y-33883155D01*
X71925127Y-34210589D01*
X71925126Y-34210591D01*
X71830834Y-34550203D01*
X71830833Y-34550206D01*
X71773808Y-34898045D01*
X71754726Y-35249997D01*
X71754726Y-35250002D01*
X62064922Y-35250002D01*
X61936818Y-35121898D01*
X61903333Y-35060575D01*
X61900499Y-35034217D01*
X61900499Y-34352129D01*
X61900498Y-34352123D01*
X61894091Y-34292516D01*
X61843797Y-34157671D01*
X61843793Y-34157664D01*
X61757547Y-34042455D01*
X61757544Y-34042452D01*
X61642335Y-33956206D01*
X61642328Y-33956202D01*
X61507482Y-33905908D01*
X61507483Y-33905908D01*
X61447883Y-33899501D01*
X61447881Y-33899500D01*
X61447873Y-33899500D01*
X61447864Y-33899500D01*
X59652129Y-33899500D01*
X59652123Y-33899501D01*
X59592516Y-33905908D01*
X59457671Y-33956202D01*
X59457664Y-33956206D01*
X59342455Y-34042452D01*
X59342452Y-34042455D01*
X59256206Y-34157664D01*
X59256202Y-34157671D01*
X59206997Y-34289598D01*
X59165126Y-34345532D01*
X59099661Y-34369949D01*
X59031388Y-34355097D01*
X59003134Y-34333946D01*
X58881082Y-34211894D01*
X58687578Y-34076399D01*
X58473492Y-33976570D01*
X58473486Y-33976567D01*
X58260000Y-33919364D01*
X58260000Y-34814498D01*
X58152315Y-34765320D01*
X58045763Y-34750000D01*
X57974237Y-34750000D01*
X57867685Y-34765320D01*
X57760000Y-34814498D01*
X57760000Y-33919364D01*
X57759999Y-33919364D01*
X57546513Y-33976567D01*
X57546507Y-33976570D01*
X57332422Y-34076399D01*
X57332420Y-34076400D01*
X57138926Y-34211886D01*
X57138920Y-34211891D01*
X56971891Y-34378920D01*
X56971890Y-34378922D01*
X56841880Y-34564595D01*
X56787303Y-34608219D01*
X56717804Y-34615412D01*
X56655450Y-34583890D01*
X56638730Y-34564594D01*
X56508494Y-34378597D01*
X56341402Y-34211506D01*
X56341395Y-34211501D01*
X56340095Y-34210591D01*
X56264518Y-34157671D01*
X56147834Y-34075967D01*
X56147830Y-34075965D01*
X56147828Y-34075964D01*
X55933663Y-33976097D01*
X55933659Y-33976096D01*
X55933655Y-33976094D01*
X55705413Y-33914938D01*
X55705403Y-33914936D01*
X55470001Y-33894341D01*
X55469999Y-33894341D01*
X55234596Y-33914936D01*
X55234586Y-33914938D01*
X55006344Y-33976094D01*
X55006335Y-33976098D01*
X54792171Y-34075964D01*
X54792169Y-34075965D01*
X54598597Y-34211505D01*
X54431505Y-34378597D01*
X54301575Y-34564158D01*
X54246998Y-34607783D01*
X54177500Y-34614977D01*
X54115145Y-34583454D01*
X54098425Y-34564158D01*
X53968494Y-34378597D01*
X53801402Y-34211506D01*
X53801395Y-34211501D01*
X53800095Y-34210591D01*
X53724518Y-34157671D01*
X53607834Y-34075967D01*
X53607830Y-34075965D01*
X53607828Y-34075964D01*
X53393663Y-33976097D01*
X53393659Y-33976096D01*
X53393655Y-33976094D01*
X53165413Y-33914938D01*
X53165403Y-33914936D01*
X52930001Y-33894341D01*
X52929999Y-33894341D01*
X52694596Y-33914936D01*
X52694586Y-33914938D01*
X52466344Y-33976094D01*
X52466335Y-33976098D01*
X52252171Y-34075964D01*
X52252169Y-34075965D01*
X52058597Y-34211505D01*
X51891508Y-34378594D01*
X51761269Y-34564595D01*
X51706692Y-34608219D01*
X51637193Y-34615412D01*
X51574839Y-34583890D01*
X51558119Y-34564594D01*
X51428113Y-34378926D01*
X51428108Y-34378920D01*
X51261082Y-34211894D01*
X51067578Y-34076399D01*
X50853492Y-33976570D01*
X50853486Y-33976567D01*
X50640000Y-33919364D01*
X50640000Y-34814498D01*
X50532315Y-34765320D01*
X50425763Y-34750000D01*
X50354237Y-34750000D01*
X50247685Y-34765320D01*
X50140000Y-34814498D01*
X50140000Y-33919364D01*
X50139999Y-33919364D01*
X49926513Y-33976567D01*
X49926507Y-33976570D01*
X49712422Y-34076399D01*
X49712420Y-34076400D01*
X49518926Y-34211886D01*
X49518920Y-34211891D01*
X49351891Y-34378920D01*
X49351886Y-34378926D01*
X49216400Y-34572420D01*
X49216399Y-34572422D01*
X49116570Y-34786507D01*
X49116567Y-34786513D01*
X49059364Y-34999999D01*
X49059364Y-35000000D01*
X49956314Y-35000000D01*
X49930507Y-35040156D01*
X49890000Y-35178111D01*
X49890000Y-35321889D01*
X49930507Y-35459844D01*
X49956314Y-35500000D01*
X49059364Y-35500000D01*
X40751719Y-35500000D01*
X40765274Y-35250000D01*
X40746191Y-34898043D01*
X40689168Y-34550212D01*
X40639118Y-34369949D01*
X40594873Y-34210591D01*
X40594872Y-34210589D01*
X40464411Y-33883155D01*
X40464402Y-33883137D01*
X40299304Y-33571730D01*
X40101501Y-33279992D01*
X40101497Y-33279987D01*
X40101494Y-33279983D01*
X39873314Y-33011350D01*
X39617420Y-32768954D01*
X39617413Y-32768948D01*
X39617410Y-32768946D01*
X39336815Y-32555644D01*
X39034802Y-32373928D01*
X39034789Y-32373921D01*
X38714911Y-32225929D01*
X38714906Y-32225928D01*
X38714903Y-32225927D01*
X38714901Y-32225926D01*
X38608432Y-32190052D01*
X38380880Y-32113381D01*
X38036643Y-32037608D01*
X37686238Y-31999500D01*
X37686237Y-31999500D01*
X37333763Y-31999500D01*
X37333761Y-31999500D01*
X36983356Y-32037608D01*
X36639119Y-32113381D01*
X36305093Y-32225928D01*
X36305088Y-32225929D01*
X35985210Y-32373921D01*
X35985197Y-32373928D01*
X35683184Y-32555644D01*
X35402589Y-32768946D01*
X35402580Y-32768954D01*
X35146685Y-33011350D01*
X34918505Y-33279983D01*
X34918498Y-33279993D01*
X34720695Y-33571730D01*
X34555597Y-33883137D01*
X34555588Y-33883155D01*
X34425127Y-34210589D01*
X34425126Y-34210591D01*
X34330834Y-34550203D01*
X34330833Y-34550206D01*
X34273808Y-34898045D01*
X34254726Y-35249997D01*
X34254726Y-35250002D01*
X32510500Y-35250002D01*
X32510500Y-30874500D01*
X32530185Y-30807461D01*
X32582989Y-30761706D01*
X32634500Y-30750500D01*
X79885500Y-30750500D01*
X79952539Y-30770185D01*
G37*
%TD.AperFunction*%
%TD*%
M02*
