%TF.GenerationSoftware,KiCad,Pcbnew,7.0.9*%
%TF.CreationDate,2025-03-02T20:15:52-05:00*%
%TF.ProjectId,Module_Nano_Pump,4d6f6475-6c65-45f4-9e61-6e6f5f50756d,rev?*%
%TF.SameCoordinates,Original*%
%TF.FileFunction,Drillmap*%
%TF.FilePolarity,Positive*%
%FSLAX45Y45*%
G04 Gerber Fmt 4.5, Leading zero omitted, Abs format (unit mm)*
G04 Created by KiCad (PCBNEW 7.0.9) date 2025-03-02 20:15:52*
%MOMM*%
%LPD*%
G01*
G04 APERTURE LIST*
%ADD10C,0.100000*%
%ADD11C,0.200000*%
G04 APERTURE END LIST*
D10*
X3251000Y-3075000D02*
X8001000Y-3075000D01*
X8001000Y-15975000D01*
X3251000Y-15975000D01*
X3251000Y-3075000D01*
D11*
D10*
X4525741Y-14351500D02*
X4624801Y-14450560D01*
X4624801Y-14351500D02*
X4525741Y-14450560D01*
X4551140Y-14950940D02*
X4650200Y-15050000D01*
X4650200Y-14950940D02*
X4551140Y-15050000D01*
X4751800Y-14950940D02*
X4850860Y-15050000D01*
X4850860Y-14950940D02*
X4751800Y-15050000D01*
X4777201Y-14351500D02*
X4876261Y-14450560D01*
X4876261Y-14351500D02*
X4777201Y-14450560D01*
X5121370Y-14550890D02*
X5220430Y-14649950D01*
X5220430Y-14550890D02*
X5121370Y-14649950D01*
X5121370Y-14751550D02*
X5220430Y-14850610D01*
X5220430Y-14751550D02*
X5121370Y-14850610D01*
D11*
X3506777Y-16291484D02*
X3506777Y-16091484D01*
X3506777Y-16091484D02*
X3554396Y-16091484D01*
X3554396Y-16091484D02*
X3582967Y-16101008D01*
X3582967Y-16101008D02*
X3602015Y-16120055D01*
X3602015Y-16120055D02*
X3611539Y-16139103D01*
X3611539Y-16139103D02*
X3621062Y-16177198D01*
X3621062Y-16177198D02*
X3621062Y-16205769D01*
X3621062Y-16205769D02*
X3611539Y-16243865D01*
X3611539Y-16243865D02*
X3602015Y-16262912D01*
X3602015Y-16262912D02*
X3582967Y-16281960D01*
X3582967Y-16281960D02*
X3554396Y-16291484D01*
X3554396Y-16291484D02*
X3506777Y-16291484D01*
X3706777Y-16291484D02*
X3706777Y-16158150D01*
X3706777Y-16196246D02*
X3716301Y-16177198D01*
X3716301Y-16177198D02*
X3725824Y-16167674D01*
X3725824Y-16167674D02*
X3744872Y-16158150D01*
X3744872Y-16158150D02*
X3763920Y-16158150D01*
X3830586Y-16291484D02*
X3830586Y-16158150D01*
X3830586Y-16091484D02*
X3821062Y-16101008D01*
X3821062Y-16101008D02*
X3830586Y-16110531D01*
X3830586Y-16110531D02*
X3840110Y-16101008D01*
X3840110Y-16101008D02*
X3830586Y-16091484D01*
X3830586Y-16091484D02*
X3830586Y-16110531D01*
X3954396Y-16291484D02*
X3935348Y-16281960D01*
X3935348Y-16281960D02*
X3925824Y-16262912D01*
X3925824Y-16262912D02*
X3925824Y-16091484D01*
X4059158Y-16291484D02*
X4040110Y-16281960D01*
X4040110Y-16281960D02*
X4030586Y-16262912D01*
X4030586Y-16262912D02*
X4030586Y-16091484D01*
X4287729Y-16291484D02*
X4287729Y-16091484D01*
X4287729Y-16091484D02*
X4354396Y-16234341D01*
X4354396Y-16234341D02*
X4421063Y-16091484D01*
X4421063Y-16091484D02*
X4421063Y-16291484D01*
X4602015Y-16291484D02*
X4602015Y-16186722D01*
X4602015Y-16186722D02*
X4592491Y-16167674D01*
X4592491Y-16167674D02*
X4573444Y-16158150D01*
X4573444Y-16158150D02*
X4535348Y-16158150D01*
X4535348Y-16158150D02*
X4516301Y-16167674D01*
X4602015Y-16281960D02*
X4582967Y-16291484D01*
X4582967Y-16291484D02*
X4535348Y-16291484D01*
X4535348Y-16291484D02*
X4516301Y-16281960D01*
X4516301Y-16281960D02*
X4506777Y-16262912D01*
X4506777Y-16262912D02*
X4506777Y-16243865D01*
X4506777Y-16243865D02*
X4516301Y-16224817D01*
X4516301Y-16224817D02*
X4535348Y-16215293D01*
X4535348Y-16215293D02*
X4582967Y-16215293D01*
X4582967Y-16215293D02*
X4602015Y-16205769D01*
X4697253Y-16158150D02*
X4697253Y-16358150D01*
X4697253Y-16167674D02*
X4716301Y-16158150D01*
X4716301Y-16158150D02*
X4754396Y-16158150D01*
X4754396Y-16158150D02*
X4773444Y-16167674D01*
X4773444Y-16167674D02*
X4782967Y-16177198D01*
X4782967Y-16177198D02*
X4792491Y-16196246D01*
X4792491Y-16196246D02*
X4792491Y-16253388D01*
X4792491Y-16253388D02*
X4782967Y-16272436D01*
X4782967Y-16272436D02*
X4773444Y-16281960D01*
X4773444Y-16281960D02*
X4754396Y-16291484D01*
X4754396Y-16291484D02*
X4716301Y-16291484D01*
X4716301Y-16291484D02*
X4697253Y-16281960D01*
X4878205Y-16272436D02*
X4887729Y-16281960D01*
X4887729Y-16281960D02*
X4878205Y-16291484D01*
X4878205Y-16291484D02*
X4868682Y-16281960D01*
X4868682Y-16281960D02*
X4878205Y-16272436D01*
X4878205Y-16272436D02*
X4878205Y-16291484D01*
X4878205Y-16167674D02*
X4887729Y-16177198D01*
X4887729Y-16177198D02*
X4878205Y-16186722D01*
X4878205Y-16186722D02*
X4868682Y-16177198D01*
X4868682Y-16177198D02*
X4878205Y-16167674D01*
X4878205Y-16167674D02*
X4878205Y-16186722D01*
D10*
X3146940Y-16570470D02*
X3246000Y-16669530D01*
X3246000Y-16570470D02*
X3146940Y-16669530D01*
D11*
X3544872Y-16511484D02*
X3563920Y-16511484D01*
X3563920Y-16511484D02*
X3582967Y-16521008D01*
X3582967Y-16521008D02*
X3592491Y-16530531D01*
X3592491Y-16530531D02*
X3602015Y-16549579D01*
X3602015Y-16549579D02*
X3611539Y-16587674D01*
X3611539Y-16587674D02*
X3611539Y-16635293D01*
X3611539Y-16635293D02*
X3602015Y-16673388D01*
X3602015Y-16673388D02*
X3592491Y-16692436D01*
X3592491Y-16692436D02*
X3582967Y-16701960D01*
X3582967Y-16701960D02*
X3563920Y-16711484D01*
X3563920Y-16711484D02*
X3544872Y-16711484D01*
X3544872Y-16711484D02*
X3525824Y-16701960D01*
X3525824Y-16701960D02*
X3516301Y-16692436D01*
X3516301Y-16692436D02*
X3506777Y-16673388D01*
X3506777Y-16673388D02*
X3497253Y-16635293D01*
X3497253Y-16635293D02*
X3497253Y-16587674D01*
X3497253Y-16587674D02*
X3506777Y-16549579D01*
X3506777Y-16549579D02*
X3516301Y-16530531D01*
X3516301Y-16530531D02*
X3525824Y-16521008D01*
X3525824Y-16521008D02*
X3544872Y-16511484D01*
X3697253Y-16692436D02*
X3706777Y-16701960D01*
X3706777Y-16701960D02*
X3697253Y-16711484D01*
X3697253Y-16711484D02*
X3687729Y-16701960D01*
X3687729Y-16701960D02*
X3697253Y-16692436D01*
X3697253Y-16692436D02*
X3697253Y-16711484D01*
X3802015Y-16711484D02*
X3840110Y-16711484D01*
X3840110Y-16711484D02*
X3859158Y-16701960D01*
X3859158Y-16701960D02*
X3868682Y-16692436D01*
X3868682Y-16692436D02*
X3887729Y-16663865D01*
X3887729Y-16663865D02*
X3897253Y-16625769D01*
X3897253Y-16625769D02*
X3897253Y-16549579D01*
X3897253Y-16549579D02*
X3887729Y-16530531D01*
X3887729Y-16530531D02*
X3878205Y-16521008D01*
X3878205Y-16521008D02*
X3859158Y-16511484D01*
X3859158Y-16511484D02*
X3821062Y-16511484D01*
X3821062Y-16511484D02*
X3802015Y-16521008D01*
X3802015Y-16521008D02*
X3792491Y-16530531D01*
X3792491Y-16530531D02*
X3782967Y-16549579D01*
X3782967Y-16549579D02*
X3782967Y-16597198D01*
X3782967Y-16597198D02*
X3792491Y-16616246D01*
X3792491Y-16616246D02*
X3802015Y-16625769D01*
X3802015Y-16625769D02*
X3821062Y-16635293D01*
X3821062Y-16635293D02*
X3859158Y-16635293D01*
X3859158Y-16635293D02*
X3878205Y-16625769D01*
X3878205Y-16625769D02*
X3887729Y-16616246D01*
X3887729Y-16616246D02*
X3897253Y-16597198D01*
X3992491Y-16711484D02*
X4030586Y-16711484D01*
X4030586Y-16711484D02*
X4049634Y-16701960D01*
X4049634Y-16701960D02*
X4059158Y-16692436D01*
X4059158Y-16692436D02*
X4078205Y-16663865D01*
X4078205Y-16663865D02*
X4087729Y-16625769D01*
X4087729Y-16625769D02*
X4087729Y-16549579D01*
X4087729Y-16549579D02*
X4078205Y-16530531D01*
X4078205Y-16530531D02*
X4068682Y-16521008D01*
X4068682Y-16521008D02*
X4049634Y-16511484D01*
X4049634Y-16511484D02*
X4011539Y-16511484D01*
X4011539Y-16511484D02*
X3992491Y-16521008D01*
X3992491Y-16521008D02*
X3982967Y-16530531D01*
X3982967Y-16530531D02*
X3973443Y-16549579D01*
X3973443Y-16549579D02*
X3973443Y-16597198D01*
X3973443Y-16597198D02*
X3982967Y-16616246D01*
X3982967Y-16616246D02*
X3992491Y-16625769D01*
X3992491Y-16625769D02*
X4011539Y-16635293D01*
X4011539Y-16635293D02*
X4049634Y-16635293D01*
X4049634Y-16635293D02*
X4068682Y-16625769D01*
X4068682Y-16625769D02*
X4078205Y-16616246D01*
X4078205Y-16616246D02*
X4087729Y-16597198D01*
X4278205Y-16711484D02*
X4163920Y-16711484D01*
X4221063Y-16711484D02*
X4221063Y-16511484D01*
X4221063Y-16511484D02*
X4202015Y-16540055D01*
X4202015Y-16540055D02*
X4182967Y-16559103D01*
X4182967Y-16559103D02*
X4163920Y-16568627D01*
X4363920Y-16711484D02*
X4363920Y-16578150D01*
X4363920Y-16597198D02*
X4373444Y-16587674D01*
X4373444Y-16587674D02*
X4392491Y-16578150D01*
X4392491Y-16578150D02*
X4421063Y-16578150D01*
X4421063Y-16578150D02*
X4440110Y-16587674D01*
X4440110Y-16587674D02*
X4449634Y-16606722D01*
X4449634Y-16606722D02*
X4449634Y-16711484D01*
X4449634Y-16606722D02*
X4459158Y-16587674D01*
X4459158Y-16587674D02*
X4478205Y-16578150D01*
X4478205Y-16578150D02*
X4506777Y-16578150D01*
X4506777Y-16578150D02*
X4525825Y-16587674D01*
X4525825Y-16587674D02*
X4535348Y-16606722D01*
X4535348Y-16606722D02*
X4535348Y-16711484D01*
X4630586Y-16711484D02*
X4630586Y-16578150D01*
X4630586Y-16597198D02*
X4640110Y-16587674D01*
X4640110Y-16587674D02*
X4659158Y-16578150D01*
X4659158Y-16578150D02*
X4687729Y-16578150D01*
X4687729Y-16578150D02*
X4706777Y-16587674D01*
X4706777Y-16587674D02*
X4716301Y-16606722D01*
X4716301Y-16606722D02*
X4716301Y-16711484D01*
X4716301Y-16606722D02*
X4725825Y-16587674D01*
X4725825Y-16587674D02*
X4744872Y-16578150D01*
X4744872Y-16578150D02*
X4773444Y-16578150D01*
X4773444Y-16578150D02*
X4792491Y-16587674D01*
X4792491Y-16587674D02*
X4802015Y-16606722D01*
X4802015Y-16606722D02*
X4802015Y-16711484D01*
X5192491Y-16501960D02*
X5021063Y-16759103D01*
X5449634Y-16511484D02*
X5468682Y-16511484D01*
X5468682Y-16511484D02*
X5487729Y-16521008D01*
X5487729Y-16521008D02*
X5497253Y-16530531D01*
X5497253Y-16530531D02*
X5506777Y-16549579D01*
X5506777Y-16549579D02*
X5516301Y-16587674D01*
X5516301Y-16587674D02*
X5516301Y-16635293D01*
X5516301Y-16635293D02*
X5506777Y-16673388D01*
X5506777Y-16673388D02*
X5497253Y-16692436D01*
X5497253Y-16692436D02*
X5487729Y-16701960D01*
X5487729Y-16701960D02*
X5468682Y-16711484D01*
X5468682Y-16711484D02*
X5449634Y-16711484D01*
X5449634Y-16711484D02*
X5430587Y-16701960D01*
X5430587Y-16701960D02*
X5421063Y-16692436D01*
X5421063Y-16692436D02*
X5411539Y-16673388D01*
X5411539Y-16673388D02*
X5402015Y-16635293D01*
X5402015Y-16635293D02*
X5402015Y-16587674D01*
X5402015Y-16587674D02*
X5411539Y-16549579D01*
X5411539Y-16549579D02*
X5421063Y-16530531D01*
X5421063Y-16530531D02*
X5430587Y-16521008D01*
X5430587Y-16521008D02*
X5449634Y-16511484D01*
X5602015Y-16692436D02*
X5611539Y-16701960D01*
X5611539Y-16701960D02*
X5602015Y-16711484D01*
X5602015Y-16711484D02*
X5592491Y-16701960D01*
X5592491Y-16701960D02*
X5602015Y-16692436D01*
X5602015Y-16692436D02*
X5602015Y-16711484D01*
X5735348Y-16511484D02*
X5754396Y-16511484D01*
X5754396Y-16511484D02*
X5773444Y-16521008D01*
X5773444Y-16521008D02*
X5782967Y-16530531D01*
X5782967Y-16530531D02*
X5792491Y-16549579D01*
X5792491Y-16549579D02*
X5802015Y-16587674D01*
X5802015Y-16587674D02*
X5802015Y-16635293D01*
X5802015Y-16635293D02*
X5792491Y-16673388D01*
X5792491Y-16673388D02*
X5782967Y-16692436D01*
X5782967Y-16692436D02*
X5773444Y-16701960D01*
X5773444Y-16701960D02*
X5754396Y-16711484D01*
X5754396Y-16711484D02*
X5735348Y-16711484D01*
X5735348Y-16711484D02*
X5716301Y-16701960D01*
X5716301Y-16701960D02*
X5706777Y-16692436D01*
X5706777Y-16692436D02*
X5697253Y-16673388D01*
X5697253Y-16673388D02*
X5687729Y-16635293D01*
X5687729Y-16635293D02*
X5687729Y-16587674D01*
X5687729Y-16587674D02*
X5697253Y-16549579D01*
X5697253Y-16549579D02*
X5706777Y-16530531D01*
X5706777Y-16530531D02*
X5716301Y-16521008D01*
X5716301Y-16521008D02*
X5735348Y-16511484D01*
X5868682Y-16511484D02*
X5992491Y-16511484D01*
X5992491Y-16511484D02*
X5925825Y-16587674D01*
X5925825Y-16587674D02*
X5954396Y-16587674D01*
X5954396Y-16587674D02*
X5973444Y-16597198D01*
X5973444Y-16597198D02*
X5982967Y-16606722D01*
X5982967Y-16606722D02*
X5992491Y-16625769D01*
X5992491Y-16625769D02*
X5992491Y-16673388D01*
X5992491Y-16673388D02*
X5982967Y-16692436D01*
X5982967Y-16692436D02*
X5973444Y-16701960D01*
X5973444Y-16701960D02*
X5954396Y-16711484D01*
X5954396Y-16711484D02*
X5897253Y-16711484D01*
X5897253Y-16711484D02*
X5878206Y-16701960D01*
X5878206Y-16701960D02*
X5868682Y-16692436D01*
X6087729Y-16711484D02*
X6125825Y-16711484D01*
X6125825Y-16711484D02*
X6144872Y-16701960D01*
X6144872Y-16701960D02*
X6154396Y-16692436D01*
X6154396Y-16692436D02*
X6173444Y-16663865D01*
X6173444Y-16663865D02*
X6182967Y-16625769D01*
X6182967Y-16625769D02*
X6182967Y-16549579D01*
X6182967Y-16549579D02*
X6173444Y-16530531D01*
X6173444Y-16530531D02*
X6163920Y-16521008D01*
X6163920Y-16521008D02*
X6144872Y-16511484D01*
X6144872Y-16511484D02*
X6106777Y-16511484D01*
X6106777Y-16511484D02*
X6087729Y-16521008D01*
X6087729Y-16521008D02*
X6078206Y-16530531D01*
X6078206Y-16530531D02*
X6068682Y-16549579D01*
X6068682Y-16549579D02*
X6068682Y-16597198D01*
X6068682Y-16597198D02*
X6078206Y-16616246D01*
X6078206Y-16616246D02*
X6087729Y-16625769D01*
X6087729Y-16625769D02*
X6106777Y-16635293D01*
X6106777Y-16635293D02*
X6144872Y-16635293D01*
X6144872Y-16635293D02*
X6163920Y-16625769D01*
X6163920Y-16625769D02*
X6173444Y-16616246D01*
X6173444Y-16616246D02*
X6182967Y-16597198D01*
X6306777Y-16511484D02*
X6325825Y-16511484D01*
X6325825Y-16511484D02*
X6344872Y-16521008D01*
X6344872Y-16521008D02*
X6354396Y-16530531D01*
X6354396Y-16530531D02*
X6363920Y-16549579D01*
X6363920Y-16549579D02*
X6373444Y-16587674D01*
X6373444Y-16587674D02*
X6373444Y-16635293D01*
X6373444Y-16635293D02*
X6363920Y-16673388D01*
X6363920Y-16673388D02*
X6354396Y-16692436D01*
X6354396Y-16692436D02*
X6344872Y-16701960D01*
X6344872Y-16701960D02*
X6325825Y-16711484D01*
X6325825Y-16711484D02*
X6306777Y-16711484D01*
X6306777Y-16711484D02*
X6287729Y-16701960D01*
X6287729Y-16701960D02*
X6278206Y-16692436D01*
X6278206Y-16692436D02*
X6268682Y-16673388D01*
X6268682Y-16673388D02*
X6259158Y-16635293D01*
X6259158Y-16635293D02*
X6259158Y-16587674D01*
X6259158Y-16587674D02*
X6268682Y-16549579D01*
X6268682Y-16549579D02*
X6278206Y-16530531D01*
X6278206Y-16530531D02*
X6287729Y-16521008D01*
X6287729Y-16521008D02*
X6306777Y-16511484D01*
X6449634Y-16511484D02*
X6449634Y-16549579D01*
X6525825Y-16511484D02*
X6525825Y-16549579D01*
X6821063Y-16787674D02*
X6811539Y-16778150D01*
X6811539Y-16778150D02*
X6792491Y-16749579D01*
X6792491Y-16749579D02*
X6782968Y-16730531D01*
X6782968Y-16730531D02*
X6773444Y-16701960D01*
X6773444Y-16701960D02*
X6763920Y-16654341D01*
X6763920Y-16654341D02*
X6763920Y-16616246D01*
X6763920Y-16616246D02*
X6773444Y-16568627D01*
X6773444Y-16568627D02*
X6782968Y-16540055D01*
X6782968Y-16540055D02*
X6792491Y-16521008D01*
X6792491Y-16521008D02*
X6811539Y-16492436D01*
X6811539Y-16492436D02*
X6821063Y-16482912D01*
X6982968Y-16511484D02*
X6944872Y-16511484D01*
X6944872Y-16511484D02*
X6925825Y-16521008D01*
X6925825Y-16521008D02*
X6916301Y-16530531D01*
X6916301Y-16530531D02*
X6897253Y-16559103D01*
X6897253Y-16559103D02*
X6887729Y-16597198D01*
X6887729Y-16597198D02*
X6887729Y-16673388D01*
X6887729Y-16673388D02*
X6897253Y-16692436D01*
X6897253Y-16692436D02*
X6906777Y-16701960D01*
X6906777Y-16701960D02*
X6925825Y-16711484D01*
X6925825Y-16711484D02*
X6963920Y-16711484D01*
X6963920Y-16711484D02*
X6982968Y-16701960D01*
X6982968Y-16701960D02*
X6992491Y-16692436D01*
X6992491Y-16692436D02*
X7002015Y-16673388D01*
X7002015Y-16673388D02*
X7002015Y-16625769D01*
X7002015Y-16625769D02*
X6992491Y-16606722D01*
X6992491Y-16606722D02*
X6982968Y-16597198D01*
X6982968Y-16597198D02*
X6963920Y-16587674D01*
X6963920Y-16587674D02*
X6925825Y-16587674D01*
X6925825Y-16587674D02*
X6906777Y-16597198D01*
X6906777Y-16597198D02*
X6897253Y-16606722D01*
X6897253Y-16606722D02*
X6887729Y-16625769D01*
X7240110Y-16711484D02*
X7240110Y-16511484D01*
X7325825Y-16711484D02*
X7325825Y-16606722D01*
X7325825Y-16606722D02*
X7316301Y-16587674D01*
X7316301Y-16587674D02*
X7297253Y-16578150D01*
X7297253Y-16578150D02*
X7268682Y-16578150D01*
X7268682Y-16578150D02*
X7249634Y-16587674D01*
X7249634Y-16587674D02*
X7240110Y-16597198D01*
X7449634Y-16711484D02*
X7430587Y-16701960D01*
X7430587Y-16701960D02*
X7421063Y-16692436D01*
X7421063Y-16692436D02*
X7411539Y-16673388D01*
X7411539Y-16673388D02*
X7411539Y-16616246D01*
X7411539Y-16616246D02*
X7421063Y-16597198D01*
X7421063Y-16597198D02*
X7430587Y-16587674D01*
X7430587Y-16587674D02*
X7449634Y-16578150D01*
X7449634Y-16578150D02*
X7478206Y-16578150D01*
X7478206Y-16578150D02*
X7497253Y-16587674D01*
X7497253Y-16587674D02*
X7506777Y-16597198D01*
X7506777Y-16597198D02*
X7516301Y-16616246D01*
X7516301Y-16616246D02*
X7516301Y-16673388D01*
X7516301Y-16673388D02*
X7506777Y-16692436D01*
X7506777Y-16692436D02*
X7497253Y-16701960D01*
X7497253Y-16701960D02*
X7478206Y-16711484D01*
X7478206Y-16711484D02*
X7449634Y-16711484D01*
X7630587Y-16711484D02*
X7611539Y-16701960D01*
X7611539Y-16701960D02*
X7602015Y-16682912D01*
X7602015Y-16682912D02*
X7602015Y-16511484D01*
X7782968Y-16701960D02*
X7763920Y-16711484D01*
X7763920Y-16711484D02*
X7725825Y-16711484D01*
X7725825Y-16711484D02*
X7706777Y-16701960D01*
X7706777Y-16701960D02*
X7697253Y-16682912D01*
X7697253Y-16682912D02*
X7697253Y-16606722D01*
X7697253Y-16606722D02*
X7706777Y-16587674D01*
X7706777Y-16587674D02*
X7725825Y-16578150D01*
X7725825Y-16578150D02*
X7763920Y-16578150D01*
X7763920Y-16578150D02*
X7782968Y-16587674D01*
X7782968Y-16587674D02*
X7792491Y-16606722D01*
X7792491Y-16606722D02*
X7792491Y-16625769D01*
X7792491Y-16625769D02*
X7697253Y-16644817D01*
X7868682Y-16701960D02*
X7887730Y-16711484D01*
X7887730Y-16711484D02*
X7925825Y-16711484D01*
X7925825Y-16711484D02*
X7944872Y-16701960D01*
X7944872Y-16701960D02*
X7954396Y-16682912D01*
X7954396Y-16682912D02*
X7954396Y-16673388D01*
X7954396Y-16673388D02*
X7944872Y-16654341D01*
X7944872Y-16654341D02*
X7925825Y-16644817D01*
X7925825Y-16644817D02*
X7897253Y-16644817D01*
X7897253Y-16644817D02*
X7878206Y-16635293D01*
X7878206Y-16635293D02*
X7868682Y-16616246D01*
X7868682Y-16616246D02*
X7868682Y-16606722D01*
X7868682Y-16606722D02*
X7878206Y-16587674D01*
X7878206Y-16587674D02*
X7897253Y-16578150D01*
X7897253Y-16578150D02*
X7925825Y-16578150D01*
X7925825Y-16578150D02*
X7944872Y-16587674D01*
X8021063Y-16787674D02*
X8030587Y-16778150D01*
X8030587Y-16778150D02*
X8049634Y-16749579D01*
X8049634Y-16749579D02*
X8059158Y-16730531D01*
X8059158Y-16730531D02*
X8068682Y-16701960D01*
X8068682Y-16701960D02*
X8078206Y-16654341D01*
X8078206Y-16654341D02*
X8078206Y-16616246D01*
X8078206Y-16616246D02*
X8068682Y-16568627D01*
X8068682Y-16568627D02*
X8059158Y-16540055D01*
X8059158Y-16540055D02*
X8049634Y-16521008D01*
X8049634Y-16521008D02*
X8030587Y-16492436D01*
X8030587Y-16492436D02*
X8021063Y-16482912D01*
X8382968Y-16787674D02*
X8373444Y-16778150D01*
X8373444Y-16778150D02*
X8354396Y-16749579D01*
X8354396Y-16749579D02*
X8344872Y-16730531D01*
X8344872Y-16730531D02*
X8335349Y-16701960D01*
X8335349Y-16701960D02*
X8325825Y-16654341D01*
X8325825Y-16654341D02*
X8325825Y-16616246D01*
X8325825Y-16616246D02*
X8335349Y-16568627D01*
X8335349Y-16568627D02*
X8344872Y-16540055D01*
X8344872Y-16540055D02*
X8354396Y-16521008D01*
X8354396Y-16521008D02*
X8373444Y-16492436D01*
X8373444Y-16492436D02*
X8382968Y-16482912D01*
X8459158Y-16578150D02*
X8459158Y-16711484D01*
X8459158Y-16597198D02*
X8468682Y-16587674D01*
X8468682Y-16587674D02*
X8487730Y-16578150D01*
X8487730Y-16578150D02*
X8516301Y-16578150D01*
X8516301Y-16578150D02*
X8535349Y-16587674D01*
X8535349Y-16587674D02*
X8544873Y-16606722D01*
X8544873Y-16606722D02*
X8544873Y-16711484D01*
X8668682Y-16711484D02*
X8649634Y-16701960D01*
X8649634Y-16701960D02*
X8640111Y-16692436D01*
X8640111Y-16692436D02*
X8630587Y-16673388D01*
X8630587Y-16673388D02*
X8630587Y-16616246D01*
X8630587Y-16616246D02*
X8640111Y-16597198D01*
X8640111Y-16597198D02*
X8649634Y-16587674D01*
X8649634Y-16587674D02*
X8668682Y-16578150D01*
X8668682Y-16578150D02*
X8697254Y-16578150D01*
X8697254Y-16578150D02*
X8716301Y-16587674D01*
X8716301Y-16587674D02*
X8725825Y-16597198D01*
X8725825Y-16597198D02*
X8735349Y-16616246D01*
X8735349Y-16616246D02*
X8735349Y-16673388D01*
X8735349Y-16673388D02*
X8725825Y-16692436D01*
X8725825Y-16692436D02*
X8716301Y-16701960D01*
X8716301Y-16701960D02*
X8697254Y-16711484D01*
X8697254Y-16711484D02*
X8668682Y-16711484D01*
X8792492Y-16578150D02*
X8868682Y-16578150D01*
X8821063Y-16511484D02*
X8821063Y-16682912D01*
X8821063Y-16682912D02*
X8830587Y-16701960D01*
X8830587Y-16701960D02*
X8849634Y-16711484D01*
X8849634Y-16711484D02*
X8868682Y-16711484D01*
X9087730Y-16578150D02*
X9087730Y-16778150D01*
X9087730Y-16587674D02*
X9106777Y-16578150D01*
X9106777Y-16578150D02*
X9144873Y-16578150D01*
X9144873Y-16578150D02*
X9163920Y-16587674D01*
X9163920Y-16587674D02*
X9173444Y-16597198D01*
X9173444Y-16597198D02*
X9182968Y-16616246D01*
X9182968Y-16616246D02*
X9182968Y-16673388D01*
X9182968Y-16673388D02*
X9173444Y-16692436D01*
X9173444Y-16692436D02*
X9163920Y-16701960D01*
X9163920Y-16701960D02*
X9144873Y-16711484D01*
X9144873Y-16711484D02*
X9106777Y-16711484D01*
X9106777Y-16711484D02*
X9087730Y-16701960D01*
X9297254Y-16711484D02*
X9278206Y-16701960D01*
X9278206Y-16701960D02*
X9268682Y-16682912D01*
X9268682Y-16682912D02*
X9268682Y-16511484D01*
X9459158Y-16711484D02*
X9459158Y-16606722D01*
X9459158Y-16606722D02*
X9449635Y-16587674D01*
X9449635Y-16587674D02*
X9430587Y-16578150D01*
X9430587Y-16578150D02*
X9392492Y-16578150D01*
X9392492Y-16578150D02*
X9373444Y-16587674D01*
X9459158Y-16701960D02*
X9440111Y-16711484D01*
X9440111Y-16711484D02*
X9392492Y-16711484D01*
X9392492Y-16711484D02*
X9373444Y-16701960D01*
X9373444Y-16701960D02*
X9363920Y-16682912D01*
X9363920Y-16682912D02*
X9363920Y-16663865D01*
X9363920Y-16663865D02*
X9373444Y-16644817D01*
X9373444Y-16644817D02*
X9392492Y-16635293D01*
X9392492Y-16635293D02*
X9440111Y-16635293D01*
X9440111Y-16635293D02*
X9459158Y-16625769D01*
X9525825Y-16578150D02*
X9602015Y-16578150D01*
X9554396Y-16511484D02*
X9554396Y-16682912D01*
X9554396Y-16682912D02*
X9563920Y-16701960D01*
X9563920Y-16701960D02*
X9582968Y-16711484D01*
X9582968Y-16711484D02*
X9602015Y-16711484D01*
X9744873Y-16701960D02*
X9725825Y-16711484D01*
X9725825Y-16711484D02*
X9687730Y-16711484D01*
X9687730Y-16711484D02*
X9668682Y-16701960D01*
X9668682Y-16701960D02*
X9659158Y-16682912D01*
X9659158Y-16682912D02*
X9659158Y-16606722D01*
X9659158Y-16606722D02*
X9668682Y-16587674D01*
X9668682Y-16587674D02*
X9687730Y-16578150D01*
X9687730Y-16578150D02*
X9725825Y-16578150D01*
X9725825Y-16578150D02*
X9744873Y-16587674D01*
X9744873Y-16587674D02*
X9754396Y-16606722D01*
X9754396Y-16606722D02*
X9754396Y-16625769D01*
X9754396Y-16625769D02*
X9659158Y-16644817D01*
X9925825Y-16711484D02*
X9925825Y-16511484D01*
X9925825Y-16701960D02*
X9906777Y-16711484D01*
X9906777Y-16711484D02*
X9868682Y-16711484D01*
X9868682Y-16711484D02*
X9849635Y-16701960D01*
X9849635Y-16701960D02*
X9840111Y-16692436D01*
X9840111Y-16692436D02*
X9830587Y-16673388D01*
X9830587Y-16673388D02*
X9830587Y-16616246D01*
X9830587Y-16616246D02*
X9840111Y-16597198D01*
X9840111Y-16597198D02*
X9849635Y-16587674D01*
X9849635Y-16587674D02*
X9868682Y-16578150D01*
X9868682Y-16578150D02*
X9906777Y-16578150D01*
X9906777Y-16578150D02*
X9925825Y-16587674D01*
X10002016Y-16787674D02*
X10011539Y-16778150D01*
X10011539Y-16778150D02*
X10030587Y-16749579D01*
X10030587Y-16749579D02*
X10040111Y-16730531D01*
X10040111Y-16730531D02*
X10049635Y-16701960D01*
X10049635Y-16701960D02*
X10059158Y-16654341D01*
X10059158Y-16654341D02*
X10059158Y-16616246D01*
X10059158Y-16616246D02*
X10049635Y-16568627D01*
X10049635Y-16568627D02*
X10040111Y-16540055D01*
X10040111Y-16540055D02*
X10030587Y-16521008D01*
X10030587Y-16521008D02*
X10011539Y-16492436D01*
X10011539Y-16492436D02*
X10002016Y-16482912D01*
M02*
