%TF.GenerationSoftware,KiCad,Pcbnew,9.0.1*%
%TF.CreationDate,2025-05-22T11:03:56-04:00*%
%TF.ProjectId,Pneumatactors_1Xiao_PiezoPumps_2Valves,506e6575-6d61-4746-9163-746f72735f31,rev?*%
%TF.SameCoordinates,Original*%
%TF.FileFunction,Copper,L1,Top*%
%TF.FilePolarity,Positive*%
%FSLAX46Y46*%
G04 Gerber Fmt 4.6, Leading zero omitted, Abs format (unit mm)*
G04 Created by KiCad (PCBNEW 9.0.1) date 2025-05-22 11:03:56*
%MOMM*%
%LPD*%
G01*
G04 APERTURE LIST*
G04 Aperture macros list*
%AMRoundRect*
0 Rectangle with rounded corners*
0 $1 Rounding radius*
0 $2 $3 $4 $5 $6 $7 $8 $9 X,Y pos of 4 corners*
0 Add a 4 corners polygon primitive as box body*
4,1,4,$2,$3,$4,$5,$6,$7,$8,$9,$2,$3,0*
0 Add four circle primitives for the rounded corners*
1,1,$1+$1,$2,$3*
1,1,$1+$1,$4,$5*
1,1,$1+$1,$6,$7*
1,1,$1+$1,$8,$9*
0 Add four rect primitives between the rounded corners*
20,1,$1+$1,$2,$3,$4,$5,0*
20,1,$1+$1,$4,$5,$6,$7,0*
20,1,$1+$1,$6,$7,$8,$9,0*
20,1,$1+$1,$8,$9,$2,$3,0*%
G04 Aperture macros list end*
%TA.AperFunction,SMDPad,CuDef*%
%ADD10RoundRect,0.250000X-0.625000X0.400000X-0.625000X-0.400000X0.625000X-0.400000X0.625000X0.400000X0*%
%TD*%
%TA.AperFunction,SMDPad,CuDef*%
%ADD11RoundRect,0.250000X0.625000X-0.400000X0.625000X0.400000X-0.625000X0.400000X-0.625000X-0.400000X0*%
%TD*%
%TA.AperFunction,SMDPad,CuDef*%
%ADD12RoundRect,0.250000X1.000000X0.650000X-1.000000X0.650000X-1.000000X-0.650000X1.000000X-0.650000X0*%
%TD*%
%TA.AperFunction,SMDPad,CuDef*%
%ADD13RoundRect,0.150000X-0.150000X0.587500X-0.150000X-0.587500X0.150000X-0.587500X0.150000X0.587500X0*%
%TD*%
%TA.AperFunction,SMDPad,CuDef*%
%ADD14C,1.700000*%
%TD*%
%TA.AperFunction,SMDPad,CuDef*%
%ADD15RoundRect,0.275000X0.975000X0.275000X-0.975000X0.275000X-0.975000X-0.275000X0.975000X-0.275000X0*%
%TD*%
%TA.AperFunction,SMDPad,CuDef*%
%ADD16RoundRect,0.500000X-0.875000X-0.500000X0.875000X-0.500000X0.875000X0.500000X-0.875000X0.500000X0*%
%TD*%
%TA.AperFunction,ComponentPad*%
%ADD17C,1.700000*%
%TD*%
%TA.AperFunction,ComponentPad*%
%ADD18R,1.700000X1.700000*%
%TD*%
%TA.AperFunction,ViaPad*%
%ADD19C,0.800000*%
%TD*%
%TA.AperFunction,Conductor*%
%ADD20C,1.000000*%
%TD*%
%TA.AperFunction,Conductor*%
%ADD21C,0.250000*%
%TD*%
G04 APERTURE END LIST*
D10*
%TO.P,R6,2*%
%TO.N,3V3*%
X48260000Y-65050000D03*
%TO.P,R6,1*%
%TO.N,SCL*%
X48260000Y-61950000D03*
%TD*%
%TO.P,R1,2*%
%TO.N,Net-(Q1-G)*%
X47260000Y-70130000D03*
%TO.P,R1,1*%
%TO.N,V1*%
X47260000Y-67030000D03*
%TD*%
D11*
%TO.P,R2,2*%
%TO.N,Net-(Q2-G)*%
X57785000Y-67665000D03*
%TO.P,R2,1*%
%TO.N,V2*%
X57785000Y-70765000D03*
%TD*%
D12*
%TO.P,D2,2,A*%
%TO.N,Net-(D2-A)*%
X42720000Y-74295000D03*
%TO.P,D2,1,K*%
%TO.N,5V*%
X46720000Y-74295000D03*
%TD*%
D13*
%TO.P,Q1,3,D*%
%TO.N,Net-(D2-A)*%
X43450000Y-70455000D03*
%TO.P,Q1,2,S*%
%TO.N,Net-(Q1-S)*%
X42500000Y-68580000D03*
%TO.P,Q1,1,G*%
%TO.N,Net-(Q1-G)*%
X44400000Y-68580000D03*
%TD*%
D14*
%TO.P,U1,24*%
%TO.N,N/C*%
X51428636Y-47930000D03*
%TO.P,U1,23*%
X48888636Y-47930000D03*
%TO.P,U1,22*%
X51428636Y-45390000D03*
%TO.P,U1,21*%
X48888636Y-45390000D03*
%TO.P,U1,20,GND*%
%TO.N,unconnected-(U1-GND-Pad20)*%
X51428636Y-42850000D03*
%TO.P,U1,19,RESET*%
%TO.N,unconnected-(U1-RESET-Pad19)*%
X48888636Y-42850000D03*
%TO.P,U1,18,PA30_SWCLK*%
%TO.N,unconnected-(U1-PA30_SWCLK-Pad18)*%
X51428636Y-40310000D03*
%TO.P,U1,17,PA31_SWDIO*%
%TO.N,unconnected-(U1-PA31_SWDIO-Pad17)*%
X48888636Y-40310000D03*
D15*
%TO.P,U1,16,GND*%
%TO.N,unconnected-(U1-GND-Pad16)*%
X45713636Y-46655000D03*
%TO.P,U1,15,5V*%
%TO.N,unconnected-(U1-5V-Pad15)*%
X45713636Y-48560000D03*
D16*
%TO.P,U1,14,5V*%
%TO.N,Net-(D1-K)*%
X58268636Y-41322000D03*
%TO.P,U1,13,GND*%
%TO.N,GND*%
X58268636Y-43862000D03*
%TO.P,U1,12,3V3*%
%TO.N,3V3*%
X58268636Y-46402000D03*
%TO.P,U1,11,PA6_A10_D10_MOSI*%
%TO.N,P3_A*%
X58268636Y-48942000D03*
%TO.P,U1,10,PA5_A9_D9_MISO*%
%TO.N,P2_A*%
X58268636Y-51482000D03*
%TO.P,U1,9,PA7_A8_D8_SCK*%
%TO.N,P1_A*%
X58268636Y-54022000D03*
%TO.P,U1,8,PB09_A7_D7_RX*%
%TO.N,unconnected-(U1-PB09_A7_D7_RX-Pad8)*%
X58268636Y-56562000D03*
%TO.P,U1,7,PB08_A6_D6_TX*%
%TO.N,unconnected-(U1-PB08_A6_D6_TX-Pad7)*%
X42103636Y-56562000D03*
%TO.P,U1,6,PA9_A5_D5_SCL*%
%TO.N,SCL*%
X42103636Y-54022000D03*
%TO.P,U1,5,PA8_A4_D4_SDA*%
%TO.N,SDA*%
X42103636Y-51482000D03*
%TO.P,U1,4,PA11_A3_D3*%
%TO.N,V2*%
X42103636Y-48942000D03*
%TO.P,U1,3,PA10_A2_D2*%
%TO.N,V1*%
X42103636Y-46402000D03*
%TO.P,U1,2,PA4_A1_D1*%
%TO.N,unconnected-(U1-PA4_A1_D1-Pad2)*%
X42103636Y-43862000D03*
%TO.P,U1,1,PA02_A0_D0*%
%TO.N,unconnected-(U1-PA02_A0_D0-Pad1)*%
X42103636Y-41322000D03*
%TD*%
D12*
%TO.P,D1,2,A*%
%TO.N,5V*%
X53880000Y-63246000D03*
%TO.P,D1,1,K*%
%TO.N,Net-(D1-K)*%
X57880000Y-63246000D03*
%TD*%
D10*
%TO.P,R5,2*%
%TO.N,3V3*%
X50800000Y-65050000D03*
%TO.P,R5,1*%
%TO.N,SDA*%
X50800000Y-61950000D03*
%TD*%
D11*
%TO.P,R3,2*%
%TO.N,GND*%
X45720000Y-61950000D03*
%TO.P,R3,1*%
%TO.N,Net-(Q1-S)*%
X45720000Y-65050000D03*
%TD*%
D10*
%TO.P,R4,2*%
%TO.N,GND*%
X49800000Y-70130000D03*
%TO.P,R4,1*%
%TO.N,Net-(Q2-S)*%
X49800000Y-67030000D03*
%TD*%
D13*
%TO.P,Q2,3,D*%
%TO.N,Net-(D3-A)*%
X54295000Y-70467500D03*
%TO.P,Q2,2,S*%
%TO.N,Net-(Q2-S)*%
X53345000Y-68592500D03*
%TO.P,Q2,1,G*%
%TO.N,Net-(Q2-G)*%
X55245000Y-68592500D03*
%TD*%
D12*
%TO.P,D3,2,A*%
%TO.N,Net-(D3-A)*%
X52880000Y-74295000D03*
%TO.P,D3,1,K*%
%TO.N,5V*%
X56880000Y-74295000D03*
%TD*%
D17*
%TO.P,J3,2,Pin_2*%
%TO.N,5V*%
X42418000Y-61722000D03*
D18*
%TO.P,J3,1,Pin_1*%
%TO.N,GND*%
X42418000Y-64262000D03*
%TD*%
D19*
%TO.N,GND*%
X48514000Y-49530000D03*
%TO.N,SCL*%
X53340000Y-40640000D03*
%TO.N,P3_A*%
X59058289Y-48351184D03*
%TO.N,SCL*%
X55512399Y-41864966D03*
%TO.N,GND*%
X54864000Y-48514000D03*
%TO.N,5V*%
X53610500Y-55920000D03*
%TO.N,GND*%
X49403000Y-59182000D03*
%TO.N,3V3*%
X50419000Y-54991000D03*
X48006000Y-63500000D03*
%TO.N,5V*%
X55496000Y-71374000D03*
%TO.N,Net-(D1-K)*%
X53721000Y-52197000D03*
X53721000Y-49403000D03*
%TO.N,P1_A*%
X59176696Y-54022000D03*
%TO.N,GND*%
X56896000Y-58547000D03*
%TO.N,5V*%
X44831000Y-71755000D03*
%TO.N,Net-(D3-A)*%
X52832000Y-71120000D03*
%TO.N,GND*%
X55626000Y-51689000D03*
X50419000Y-50927000D03*
%TO.N,P2_A*%
X58451696Y-51694319D03*
%TO.N,SDA*%
X47369818Y-55373182D03*
X45210818Y-53214182D03*
%TO.N,SCL*%
X47371000Y-56642000D03*
%TO.N,GND*%
X51562000Y-60325000D03*
X44323000Y-63881000D03*
X44958000Y-59055000D03*
%TO.N,Net-(D2-A)*%
X42164000Y-71501000D03*
%TO.N,GND*%
X59817000Y-60452000D03*
X50165000Y-46609000D03*
X51181000Y-56261000D03*
X49530000Y-63500000D03*
X55880000Y-45720000D03*
%TD*%
D20*
%TO.N,Net-(Q2-G)*%
X56857500Y-68592500D02*
X57785000Y-67665000D01*
%TO.N,Net-(Q2-S)*%
X51362500Y-68592500D02*
X49800000Y-67030000D01*
X53345000Y-68592500D02*
X51362500Y-68592500D01*
%TO.N,Net-(Q2-G)*%
X55245000Y-68592500D02*
X56857500Y-68592500D01*
%TO.N,Net-(Q1-S)*%
X42500000Y-68270000D02*
X45720000Y-65050000D01*
D21*
%TO.N,SDA*%
X50800000Y-58803364D02*
X50800000Y-61950000D01*
X42103636Y-51482000D02*
X43478636Y-51482000D01*
%TO.N,V2*%
X52304000Y-59035000D02*
X52304000Y-65131000D01*
%TO.N,3V3*%
X50419000Y-54102000D02*
X58119000Y-46402000D01*
X58119000Y-46402000D02*
X58268636Y-46402000D01*
X48006000Y-63500000D02*
X48006000Y-64796000D01*
X48260000Y-65050000D02*
X50800000Y-65050000D01*
X48006000Y-64796000D02*
X48260000Y-65050000D01*
X50419000Y-54991000D02*
X50419000Y-54102000D01*
%TO.N,SCL*%
X47371000Y-56642000D02*
X48260000Y-57531000D01*
X48260000Y-57531000D02*
X48260000Y-61950000D01*
X44751000Y-54022000D02*
X47371000Y-56642000D01*
X42103636Y-54022000D02*
X44751000Y-54022000D01*
%TO.N,SDA*%
X47369818Y-55373182D02*
X50800000Y-58803364D01*
X43478636Y-51482000D02*
X45210818Y-53214182D01*
X45210818Y-53214182D02*
X47369818Y-55373182D01*
D20*
%TO.N,Net-(Q1-S)*%
X42500000Y-68580000D02*
X42500000Y-68270000D01*
%TO.N,Net-(Q1-G)*%
X47260000Y-70130000D02*
X45950000Y-70130000D01*
X45950000Y-70130000D02*
X44400000Y-68580000D01*
%TO.N,Net-(D1-K)*%
X55081000Y-53557000D02*
X53721000Y-52197000D01*
X53721000Y-49403000D02*
X53721000Y-45212000D01*
%TO.N,Net-(D2-A)*%
X43450000Y-73565000D02*
X42720000Y-74295000D01*
X43450000Y-70455000D02*
X43210000Y-70455000D01*
X43450000Y-70455000D02*
X43450000Y-73565000D01*
X43210000Y-70455000D02*
X42164000Y-71501000D01*
%TO.N,Net-(D1-K)*%
X57611000Y-41322000D02*
X58268636Y-41322000D01*
X55081000Y-60447000D02*
X55081000Y-53557000D01*
X57880000Y-63246000D02*
X55081000Y-60447000D01*
X53721000Y-45212000D02*
X57611000Y-41322000D01*
%TO.N,Net-(D3-A)*%
X54295000Y-70467500D02*
X53484500Y-70467500D01*
X53484500Y-70467500D02*
X52832000Y-71120000D01*
X54295000Y-70467500D02*
X54295000Y-72880000D01*
X54295000Y-72880000D02*
X52880000Y-74295000D01*
%TO.N,5V*%
X55279000Y-75896000D02*
X48321000Y-75896000D01*
X56880000Y-72758000D02*
X55496000Y-71374000D01*
X40769000Y-62168919D02*
X40769000Y-75345844D01*
X41215919Y-61722000D02*
X40769000Y-62168919D01*
X42418000Y-61722000D02*
X41215919Y-61722000D01*
X56880000Y-74295000D02*
X55279000Y-75896000D01*
X45119000Y-75896000D02*
X46720000Y-74295000D01*
X46720000Y-74295000D02*
X46720000Y-73644000D01*
D21*
%TO.N,V1*%
X47059000Y-64542486D02*
X47059000Y-66829000D01*
X45997486Y-64074000D02*
X46590514Y-64074000D01*
X44272158Y-61544158D02*
X44272158Y-62348672D01*
X46590514Y-64074000D02*
X47059000Y-64542486D01*
X42103636Y-46402000D02*
X42093224Y-46402000D01*
X40402636Y-48092588D02*
X40402636Y-57674636D01*
D20*
%TO.N,5V*%
X46720000Y-73644000D02*
X44831000Y-71755000D01*
X53880000Y-63246000D02*
X53880000Y-56189500D01*
X41319156Y-75896000D02*
X45119000Y-75896000D01*
X48321000Y-75896000D02*
X46720000Y-74295000D01*
X53880000Y-56189500D02*
X53610500Y-55920000D01*
X40769000Y-75345844D02*
X41319156Y-75896000D01*
X56880000Y-74295000D02*
X56880000Y-72758000D01*
D21*
%TO.N,V1*%
X47059000Y-66829000D02*
X47260000Y-67030000D01*
X40402636Y-57674636D02*
X44272158Y-61544158D01*
X42093224Y-46402000D02*
X40402636Y-48092588D01*
X44272158Y-62348672D02*
X45997486Y-64074000D01*
%TO.N,V2*%
X58986000Y-69564000D02*
X57785000Y-70765000D01*
X42103636Y-48942000D02*
X43227000Y-48942000D01*
X58986000Y-66823514D02*
X58986000Y-69564000D01*
X53213000Y-66040000D02*
X58202486Y-66040000D01*
X58202486Y-66040000D02*
X58986000Y-66823514D01*
X43227000Y-48942000D02*
X44323000Y-50038000D01*
X44323000Y-51054000D02*
X52304000Y-59035000D01*
X52304000Y-65131000D02*
X53213000Y-66040000D01*
X44323000Y-50038000D02*
X44323000Y-51054000D01*
%TO.N,SCL*%
X54287433Y-40640000D02*
X55512399Y-41864966D01*
X53340000Y-40640000D02*
X54287433Y-40640000D01*
X53351365Y-44026000D02*
X55512399Y-41864966D01*
%TD*%
%TA.AperFunction,Conductor*%
%TO.N,GND*%
G36*
X60267539Y-38120185D02*
G01*
X60313294Y-38172989D01*
X60324500Y-38224500D01*
X60324500Y-42969724D01*
X60304815Y-43036763D01*
X60252011Y-43082518D01*
X60182853Y-43092462D01*
X60119297Y-43063437D01*
X60081523Y-43004659D01*
X60081284Y-43003836D01*
X60077078Y-42989137D01*
X59982914Y-42808870D01*
X59854389Y-42651246D01*
X59842574Y-42641613D01*
X59842573Y-42641613D01*
X58622188Y-43861999D01*
X58622188Y-43862000D01*
X59842573Y-45082385D01*
X59842573Y-45082386D01*
X59854389Y-45072752D01*
X59982914Y-44915129D01*
X60077078Y-44734861D01*
X60081284Y-44720164D01*
X60118651Y-44661126D01*
X60182004Y-44631662D01*
X60251230Y-44641127D01*
X60304349Y-44686516D01*
X60324497Y-44753417D01*
X60324500Y-44754275D01*
X60324500Y-77345500D01*
X60304815Y-77412539D01*
X60252011Y-77458294D01*
X60200500Y-77469500D01*
X40129500Y-77469500D01*
X40062461Y-77449815D01*
X40016706Y-77397011D01*
X40005500Y-77345500D01*
X40005500Y-75871621D01*
X40025185Y-75804582D01*
X40077989Y-75758827D01*
X40147147Y-75748883D01*
X40210703Y-75777908D01*
X40221585Y-75789087D01*
X40872610Y-76440112D01*
X40987348Y-76516777D01*
X41114823Y-76569578D01*
X41114828Y-76569580D01*
X41114832Y-76569580D01*
X41114833Y-76569581D01*
X41250159Y-76596500D01*
X41250162Y-76596500D01*
X45187996Y-76596500D01*
X45279040Y-76578389D01*
X45323328Y-76569580D01*
X45387069Y-76543177D01*
X45450807Y-76516777D01*
X45450808Y-76516776D01*
X45450811Y-76516775D01*
X45565543Y-76440114D01*
X46573838Y-75431819D01*
X46600765Y-75417115D01*
X46626584Y-75400523D01*
X46632784Y-75399631D01*
X46635161Y-75398334D01*
X46661519Y-75395500D01*
X46778481Y-75395500D01*
X46845520Y-75415185D01*
X46866162Y-75431819D01*
X47874453Y-76440111D01*
X47874454Y-76440112D01*
X47989192Y-76516777D01*
X48116667Y-76569578D01*
X48116672Y-76569580D01*
X48116676Y-76569580D01*
X48116677Y-76569581D01*
X48252003Y-76596500D01*
X48252006Y-76596500D01*
X55347996Y-76596500D01*
X55439040Y-76578389D01*
X55483328Y-76569580D01*
X55547069Y-76543177D01*
X55610807Y-76516777D01*
X55610808Y-76516776D01*
X55610811Y-76516775D01*
X55725543Y-76440114D01*
X56733838Y-75431819D01*
X56795161Y-75398334D01*
X56821519Y-75395500D01*
X57934270Y-75395500D01*
X57964699Y-75392646D01*
X57964701Y-75392646D01*
X58028790Y-75370219D01*
X58092882Y-75347793D01*
X58202150Y-75267150D01*
X58282793Y-75157882D01*
X58305219Y-75093790D01*
X58327646Y-75029701D01*
X58327646Y-75029699D01*
X58330500Y-74999269D01*
X58330500Y-73590730D01*
X58327646Y-73560300D01*
X58327646Y-73560298D01*
X58282793Y-73432119D01*
X58282792Y-73432117D01*
X58282790Y-73432114D01*
X58202150Y-73322850D01*
X58092882Y-73242207D01*
X58092880Y-73242206D01*
X57964700Y-73197353D01*
X57934270Y-73194500D01*
X57934266Y-73194500D01*
X57704500Y-73194500D01*
X57637461Y-73174815D01*
X57591706Y-73122011D01*
X57580500Y-73070500D01*
X57580500Y-72689006D01*
X57577847Y-72675672D01*
X57553580Y-72553672D01*
X57547288Y-72538481D01*
X57500777Y-72426192D01*
X57424112Y-72311454D01*
X56921070Y-71808412D01*
X56887585Y-71747089D01*
X56892569Y-71677397D01*
X56934441Y-71621464D01*
X56999905Y-71597047D01*
X57049704Y-71603689D01*
X57075301Y-71612646D01*
X57081387Y-71613216D01*
X57105730Y-71615500D01*
X57105734Y-71615500D01*
X58464270Y-71615500D01*
X58494699Y-71612646D01*
X58494701Y-71612646D01*
X58572392Y-71585460D01*
X58622882Y-71567793D01*
X58732150Y-71487150D01*
X58812793Y-71377882D01*
X58837086Y-71308457D01*
X58857646Y-71249701D01*
X58857646Y-71249699D01*
X58860500Y-71219269D01*
X58860500Y-70310730D01*
X58857646Y-70280300D01*
X58857645Y-70280298D01*
X58850299Y-70259302D01*
X58846737Y-70189523D01*
X58879657Y-70130668D01*
X59246465Y-69763862D01*
X59289318Y-69689638D01*
X59311500Y-69606853D01*
X59311500Y-66780661D01*
X59289318Y-66697876D01*
X59289318Y-66697875D01*
X59246465Y-66623652D01*
X58402348Y-65779535D01*
X58365236Y-65758108D01*
X58328126Y-65736682D01*
X58286732Y-65725591D01*
X58245339Y-65714500D01*
X58245338Y-65714500D01*
X53399189Y-65714500D01*
X53332150Y-65694815D01*
X53311508Y-65678181D01*
X52665819Y-65032492D01*
X52632334Y-64971169D01*
X52629500Y-64944811D01*
X52629500Y-64460391D01*
X52649185Y-64393352D01*
X52701989Y-64347597D01*
X52771147Y-64337653D01*
X52794458Y-64343351D01*
X52795301Y-64343646D01*
X52810517Y-64345073D01*
X52825730Y-64346500D01*
X52825734Y-64346500D01*
X54934270Y-64346500D01*
X54964699Y-64343646D01*
X54964701Y-64343646D01*
X55035245Y-64318961D01*
X55092882Y-64298793D01*
X55202150Y-64218150D01*
X55282793Y-64108882D01*
X55312772Y-64023206D01*
X55327646Y-63980701D01*
X55327646Y-63980699D01*
X55330500Y-63950269D01*
X55330500Y-62541730D01*
X55327646Y-62511300D01*
X55327646Y-62511298D01*
X55285780Y-62391655D01*
X55282793Y-62383118D01*
X55202150Y-62273850D01*
X55092882Y-62193207D01*
X55092880Y-62193206D01*
X54964700Y-62148353D01*
X54934270Y-62145500D01*
X54934266Y-62145500D01*
X54704500Y-62145500D01*
X54637461Y-62125815D01*
X54591706Y-62073011D01*
X54580500Y-62021500D01*
X54580500Y-61236519D01*
X54600185Y-61169480D01*
X54652989Y-61123725D01*
X54722147Y-61113781D01*
X54785703Y-61142806D01*
X54792181Y-61148838D01*
X56393181Y-62749838D01*
X56426666Y-62811161D01*
X56429500Y-62837519D01*
X56429500Y-63950269D01*
X56432353Y-63980699D01*
X56432353Y-63980701D01*
X56477206Y-64108880D01*
X56477207Y-64108882D01*
X56557850Y-64218150D01*
X56667118Y-64298793D01*
X56709845Y-64313744D01*
X56795299Y-64343646D01*
X56825730Y-64346500D01*
X56825734Y-64346500D01*
X58934270Y-64346500D01*
X58964699Y-64343646D01*
X58964701Y-64343646D01*
X59035245Y-64318961D01*
X59092882Y-64298793D01*
X59202150Y-64218150D01*
X59282793Y-64108882D01*
X59312772Y-64023206D01*
X59327646Y-63980701D01*
X59327646Y-63980699D01*
X59330500Y-63950269D01*
X59330500Y-62541730D01*
X59327646Y-62511300D01*
X59327646Y-62511298D01*
X59285780Y-62391655D01*
X59282793Y-62383118D01*
X59202150Y-62273850D01*
X59092882Y-62193207D01*
X59092880Y-62193206D01*
X58964700Y-62148353D01*
X58934270Y-62145500D01*
X58934266Y-62145500D01*
X57821519Y-62145500D01*
X57754480Y-62125815D01*
X57733838Y-62109181D01*
X55817819Y-60193162D01*
X55784334Y-60131839D01*
X55781500Y-60105481D01*
X55781500Y-53488004D01*
X55754581Y-53352677D01*
X55754580Y-53352676D01*
X55754580Y-53352672D01*
X55749927Y-53341439D01*
X55701778Y-53225195D01*
X55701771Y-53225182D01*
X55625115Y-53110459D01*
X55601467Y-53086811D01*
X55527542Y-53012886D01*
X55190742Y-52676086D01*
X54167546Y-51652888D01*
X54167545Y-51652887D01*
X54052807Y-51576222D01*
X53925332Y-51523421D01*
X53925322Y-51523418D01*
X53789996Y-51496500D01*
X53789994Y-51496500D01*
X53784188Y-51496500D01*
X53717149Y-51476815D01*
X53671394Y-51424011D01*
X53661450Y-51354853D01*
X53690475Y-51291297D01*
X53696507Y-51284819D01*
X56481455Y-48499871D01*
X56542778Y-48466386D01*
X56612470Y-48471370D01*
X56668403Y-48513242D01*
X56692820Y-48578706D01*
X56693136Y-48587552D01*
X56693136Y-49498613D01*
X56699549Y-49569192D01*
X56699549Y-49569194D01*
X56699550Y-49569196D01*
X56750158Y-49731606D01*
X56752095Y-49734811D01*
X56838166Y-49877188D01*
X56958447Y-49997469D01*
X56958449Y-49997470D01*
X56958451Y-49997472D01*
X57104030Y-50085478D01*
X57104033Y-50085479D01*
X57104032Y-50085479D01*
X57130141Y-50093615D01*
X57188289Y-50132352D01*
X57216263Y-50196378D01*
X57205181Y-50265363D01*
X57158563Y-50317406D01*
X57130141Y-50330385D01*
X57104033Y-50338520D01*
X56958447Y-50426530D01*
X56838166Y-50546811D01*
X56750158Y-50692393D01*
X56699549Y-50854807D01*
X56694418Y-50911275D01*
X56693701Y-50919173D01*
X56693136Y-50925386D01*
X56693136Y-52038613D01*
X56699549Y-52109192D01*
X56699549Y-52109194D01*
X56699550Y-52109196D01*
X56750158Y-52271606D01*
X56828580Y-52401332D01*
X56838166Y-52417188D01*
X56958447Y-52537469D01*
X56958449Y-52537470D01*
X56958451Y-52537472D01*
X57104030Y-52625478D01*
X57104033Y-52625479D01*
X57104032Y-52625479D01*
X57130141Y-52633615D01*
X57188289Y-52672352D01*
X57216263Y-52736378D01*
X57205181Y-52805363D01*
X57158563Y-52857406D01*
X57130141Y-52870385D01*
X57104033Y-52878520D01*
X56958447Y-52966530D01*
X56838166Y-53086811D01*
X56750158Y-53232393D01*
X56699549Y-53394807D01*
X56693136Y-53465386D01*
X56693136Y-54578613D01*
X56699549Y-54649192D01*
X56699549Y-54649194D01*
X56699550Y-54649196D01*
X56738029Y-54772682D01*
X56750158Y-54811606D01*
X56838166Y-54957188D01*
X56958447Y-55077469D01*
X56958449Y-55077470D01*
X56958451Y-55077472D01*
X57104030Y-55165478D01*
X57104033Y-55165479D01*
X57104032Y-55165479D01*
X57130141Y-55173615D01*
X57188289Y-55212352D01*
X57216263Y-55276378D01*
X57205181Y-55345363D01*
X57158563Y-55397406D01*
X57130141Y-55410385D01*
X57104033Y-55418520D01*
X56958447Y-55506530D01*
X56838166Y-55626811D01*
X56750158Y-55772393D01*
X56699549Y-55934807D01*
X56693136Y-56005386D01*
X56693136Y-57118613D01*
X56699549Y-57189192D01*
X56699549Y-57189194D01*
X56699550Y-57189196D01*
X56717152Y-57245683D01*
X56750158Y-57351606D01*
X56838166Y-57497188D01*
X56958447Y-57617469D01*
X56958449Y-57617470D01*
X56958451Y-57617472D01*
X57104030Y-57705478D01*
X57266440Y-57756086D01*
X57337020Y-57762500D01*
X57337023Y-57762500D01*
X59200249Y-57762500D01*
X59200252Y-57762500D01*
X59270832Y-57756086D01*
X59433242Y-57705478D01*
X59578821Y-57617472D01*
X59699108Y-57497185D01*
X59787114Y-57351606D01*
X59837722Y-57189196D01*
X59844136Y-57118616D01*
X59844136Y-56005384D01*
X59837722Y-55934804D01*
X59787114Y-55772394D01*
X59699108Y-55626815D01*
X59699106Y-55626813D01*
X59699105Y-55626811D01*
X59578824Y-55506530D01*
X59578821Y-55506528D01*
X59433242Y-55418522D01*
X59407129Y-55410385D01*
X59348982Y-55371648D01*
X59321008Y-55307623D01*
X59332089Y-55238638D01*
X59378708Y-55186595D01*
X59407128Y-55173615D01*
X59433242Y-55165478D01*
X59578821Y-55077472D01*
X59699108Y-54957185D01*
X59787114Y-54811606D01*
X59837722Y-54649196D01*
X59844136Y-54578616D01*
X59844136Y-53465384D01*
X59837722Y-53394804D01*
X59787114Y-53232394D01*
X59699108Y-53086815D01*
X59699106Y-53086813D01*
X59699105Y-53086811D01*
X59578824Y-52966530D01*
X59578821Y-52966528D01*
X59433242Y-52878522D01*
X59407129Y-52870385D01*
X59348982Y-52831648D01*
X59321008Y-52767623D01*
X59332089Y-52698638D01*
X59378708Y-52646595D01*
X59407128Y-52633615D01*
X59433242Y-52625478D01*
X59578821Y-52537472D01*
X59699108Y-52417185D01*
X59787114Y-52271606D01*
X59837722Y-52109196D01*
X59844136Y-52038616D01*
X59844136Y-50925384D01*
X59837722Y-50854804D01*
X59787114Y-50692394D01*
X59699108Y-50546815D01*
X59699106Y-50546813D01*
X59699105Y-50546811D01*
X59578824Y-50426530D01*
X59578821Y-50426528D01*
X59433242Y-50338522D01*
X59407129Y-50330385D01*
X59348982Y-50291648D01*
X59321008Y-50227623D01*
X59332089Y-50158638D01*
X59378708Y-50106595D01*
X59407128Y-50093615D01*
X59433242Y-50085478D01*
X59578821Y-49997472D01*
X59699108Y-49877185D01*
X59787114Y-49731606D01*
X59837722Y-49569196D01*
X59844136Y-49498616D01*
X59844136Y-48385384D01*
X59837722Y-48314804D01*
X59787114Y-48152394D01*
X59699108Y-48006815D01*
X59699106Y-48006813D01*
X59699105Y-48006811D01*
X59578824Y-47886530D01*
X59578821Y-47886528D01*
X59433242Y-47798522D01*
X59407129Y-47790385D01*
X59348982Y-47751648D01*
X59321008Y-47687623D01*
X59332089Y-47618638D01*
X59378708Y-47566595D01*
X59407128Y-47553615D01*
X59433242Y-47545478D01*
X59578821Y-47457472D01*
X59699108Y-47337185D01*
X59787114Y-47191606D01*
X59837722Y-47029196D01*
X59844136Y-46958616D01*
X59844136Y-45845384D01*
X59837722Y-45774804D01*
X59787114Y-45612394D01*
X59699108Y-45466815D01*
X59699106Y-45466813D01*
X59699105Y-45466811D01*
X59578824Y-45346530D01*
X59433242Y-45258522D01*
X59365477Y-45237406D01*
X59285724Y-45212554D01*
X59234934Y-45181850D01*
X58268636Y-44215552D01*
X57302336Y-45181850D01*
X57251545Y-45212554D01*
X57104033Y-45258520D01*
X56958447Y-45346530D01*
X56838166Y-45466811D01*
X56750158Y-45612393D01*
X56699549Y-45774807D01*
X56693136Y-45845386D01*
X56693136Y-46958613D01*
X56699549Y-47029192D01*
X56699549Y-47029194D01*
X56699550Y-47029196D01*
X56724854Y-47110401D01*
X56750159Y-47191610D01*
X56751935Y-47195554D01*
X56752370Y-47198704D01*
X56752390Y-47198767D01*
X56752379Y-47198770D01*
X56761501Y-47264765D01*
X56732129Y-47328162D01*
X56726542Y-47334129D01*
X54633181Y-49427491D01*
X54571858Y-49460976D01*
X54502166Y-49455992D01*
X54446233Y-49414120D01*
X54421816Y-49348656D01*
X54421500Y-49339810D01*
X54421500Y-45553519D01*
X54441185Y-45486480D01*
X54457819Y-45465838D01*
X56181955Y-43741702D01*
X56243278Y-43708217D01*
X56312970Y-43713201D01*
X56368903Y-43755073D01*
X56393320Y-43820537D01*
X56393636Y-43829383D01*
X56393636Y-44420000D01*
X56404244Y-44539325D01*
X56404245Y-44539328D01*
X56460193Y-44734861D01*
X56554357Y-44915129D01*
X56682880Y-45072750D01*
X56694697Y-45082385D01*
X56694698Y-45082385D01*
X58091860Y-43685224D01*
X59234932Y-42542150D01*
X59285720Y-42511446D01*
X59433242Y-42465478D01*
X59578821Y-42377472D01*
X59699108Y-42257185D01*
X59787114Y-42111606D01*
X59837722Y-41949196D01*
X59844136Y-41878616D01*
X59844136Y-40765384D01*
X59837722Y-40694804D01*
X59787114Y-40532394D01*
X59699108Y-40386815D01*
X59699106Y-40386813D01*
X59699105Y-40386811D01*
X59578824Y-40266530D01*
X59433242Y-40178522D01*
X59372117Y-40159475D01*
X59270832Y-40127914D01*
X59270830Y-40127913D01*
X59270828Y-40127913D01*
X59221414Y-40123423D01*
X59200252Y-40121500D01*
X57337020Y-40121500D01*
X57317781Y-40123248D01*
X57266443Y-40127913D01*
X57104029Y-40178522D01*
X56958447Y-40266530D01*
X56838166Y-40386811D01*
X56750158Y-40532393D01*
X56699549Y-40694807D01*
X56693136Y-40765386D01*
X56693136Y-41197845D01*
X56673451Y-41264884D01*
X56656817Y-41285526D01*
X56272669Y-41669673D01*
X56211346Y-41703158D01*
X56141654Y-41698174D01*
X56085721Y-41656302D01*
X56076435Y-41639991D01*
X56076040Y-41640220D01*
X55992923Y-41496256D01*
X55992917Y-41496248D01*
X55881116Y-41384447D01*
X55881108Y-41384441D01*
X55744189Y-41305392D01*
X55744185Y-41305390D01*
X55744183Y-41305389D01*
X55591456Y-41264466D01*
X55433342Y-41264466D01*
X55425215Y-41264466D01*
X55425215Y-41261300D01*
X55370892Y-41252812D01*
X55336095Y-41228336D01*
X54915357Y-40807598D01*
X54487295Y-40379535D01*
X54450183Y-40358108D01*
X54413073Y-40336682D01*
X54371679Y-40325591D01*
X54330286Y-40314500D01*
X54330285Y-40314500D01*
X53914830Y-40314500D01*
X53847791Y-40294815D01*
X53827320Y-40275977D01*
X53826267Y-40277031D01*
X53708717Y-40159481D01*
X53708709Y-40159475D01*
X53571790Y-40080426D01*
X53571786Y-40080424D01*
X53571784Y-40080423D01*
X53419057Y-40039500D01*
X53260943Y-40039500D01*
X53108216Y-40080423D01*
X53108209Y-40080426D01*
X52971290Y-40159475D01*
X52971282Y-40159481D01*
X52859481Y-40271282D01*
X52859475Y-40271290D01*
X52780426Y-40408209D01*
X52780423Y-40408216D01*
X52739500Y-40560943D01*
X52739500Y-40719057D01*
X52763225Y-40807598D01*
X52780423Y-40871783D01*
X52780426Y-40871790D01*
X52859475Y-41008709D01*
X52859479Y-41008714D01*
X52859480Y-41008716D01*
X52971284Y-41120520D01*
X52971286Y-41120521D01*
X52971290Y-41120524D01*
X53105216Y-41197845D01*
X53108216Y-41199577D01*
X53260943Y-41240500D01*
X53260945Y-41240500D01*
X53419055Y-41240500D01*
X53419057Y-41240500D01*
X53571784Y-41199577D01*
X53708716Y-41120520D01*
X53820520Y-41008716D01*
X53820520Y-41008715D01*
X53826267Y-41002969D01*
X53827495Y-41004197D01*
X53847524Y-40991325D01*
X53872855Y-40972821D01*
X53877609Y-40971991D01*
X53879895Y-40970523D01*
X53914830Y-40965500D01*
X54101244Y-40965500D01*
X54168283Y-40985185D01*
X54188925Y-41001819D01*
X54875769Y-41688662D01*
X54909254Y-41749985D01*
X54910417Y-41777782D01*
X54911899Y-41777782D01*
X54911899Y-41952150D01*
X54908730Y-41952150D01*
X54900255Y-42006451D01*
X54875769Y-42041268D01*
X53090902Y-43826135D01*
X53090900Y-43826138D01*
X53048047Y-43900359D01*
X53025865Y-43983147D01*
X53025865Y-44068852D01*
X53048047Y-44151640D01*
X53069473Y-44188750D01*
X53090900Y-44225862D01*
X53151503Y-44286465D01*
X53225726Y-44329318D01*
X53308512Y-44351500D01*
X53308526Y-44351500D01*
X53308690Y-44351522D01*
X53308835Y-44351586D01*
X53316362Y-44353603D01*
X53316047Y-44354776D01*
X53372589Y-44379783D01*
X53411066Y-44438104D01*
X53411903Y-44507969D01*
X53380197Y-44562144D01*
X53176887Y-44765454D01*
X53100222Y-44880192D01*
X53047421Y-45007667D01*
X53047418Y-45007677D01*
X53020500Y-45143004D01*
X53020500Y-45143007D01*
X53020500Y-49471993D01*
X53020500Y-49471995D01*
X53020499Y-49471995D01*
X53047418Y-49607322D01*
X53047421Y-49607332D01*
X53100221Y-49734804D01*
X53100228Y-49734817D01*
X53176885Y-49849541D01*
X53176888Y-49849545D01*
X53274454Y-49947111D01*
X53274458Y-49947114D01*
X53389182Y-50023771D01*
X53389195Y-50023778D01*
X53516667Y-50076578D01*
X53516672Y-50076580D01*
X53516676Y-50076580D01*
X53516677Y-50076581D01*
X53652004Y-50103500D01*
X53657810Y-50103500D01*
X53724849Y-50123185D01*
X53770604Y-50175989D01*
X53780548Y-50245147D01*
X53751523Y-50308703D01*
X53745491Y-50315181D01*
X50158537Y-53902135D01*
X50158533Y-53902141D01*
X50115681Y-53976361D01*
X50115682Y-53976362D01*
X50093500Y-54059147D01*
X50093500Y-54416169D01*
X50073815Y-54483208D01*
X50054982Y-54503684D01*
X50056031Y-54504733D01*
X49938481Y-54622282D01*
X49938475Y-54622290D01*
X49859426Y-54759209D01*
X49859423Y-54759216D01*
X49818500Y-54911943D01*
X49818500Y-55070057D01*
X49857629Y-55216086D01*
X49859423Y-55222783D01*
X49859426Y-55222790D01*
X49938475Y-55359709D01*
X49938479Y-55359714D01*
X49938480Y-55359716D01*
X50050284Y-55471520D01*
X50050286Y-55471521D01*
X50050290Y-55471524D01*
X50138962Y-55522718D01*
X50187216Y-55550577D01*
X50339943Y-55591500D01*
X50339945Y-55591500D01*
X50498055Y-55591500D01*
X50498057Y-55591500D01*
X50650784Y-55550577D01*
X50787716Y-55471520D01*
X50899520Y-55359716D01*
X50978577Y-55222784D01*
X51019500Y-55070057D01*
X51019500Y-54911943D01*
X50978577Y-54759216D01*
X50915058Y-54649196D01*
X50899524Y-54622290D01*
X50899518Y-54622282D01*
X50781969Y-54504733D01*
X50783198Y-54503503D01*
X50770309Y-54483448D01*
X50751798Y-54458080D01*
X50750977Y-54453366D01*
X50749523Y-54451104D01*
X50744500Y-54416169D01*
X50744500Y-54288188D01*
X50764185Y-54221149D01*
X50780814Y-54200512D01*
X52808819Y-52172506D01*
X52870142Y-52139022D01*
X52939834Y-52144006D01*
X52995767Y-52185878D01*
X53020184Y-52251342D01*
X53020500Y-52260188D01*
X53020500Y-52265994D01*
X53020500Y-52265996D01*
X53020499Y-52265996D01*
X53047418Y-52401322D01*
X53047421Y-52401332D01*
X53100222Y-52528807D01*
X53176887Y-52643545D01*
X53176888Y-52643546D01*
X54344181Y-53810837D01*
X54377666Y-53872160D01*
X54380500Y-53898518D01*
X54380500Y-55399980D01*
X54360815Y-55467019D01*
X54308011Y-55512774D01*
X54238853Y-55522718D01*
X54175297Y-55493693D01*
X54168819Y-55487661D01*
X54057045Y-55375887D01*
X53942307Y-55299222D01*
X53814832Y-55246421D01*
X53814822Y-55246418D01*
X53679496Y-55219500D01*
X53679494Y-55219500D01*
X53541506Y-55219500D01*
X53541504Y-55219500D01*
X53406177Y-55246418D01*
X53406167Y-55246421D01*
X53278692Y-55299222D01*
X53163954Y-55375887D01*
X53066387Y-55473454D01*
X52989722Y-55588192D01*
X52936921Y-55715667D01*
X52936918Y-55715677D01*
X52910000Y-55851003D01*
X52910000Y-55851006D01*
X52910000Y-55988994D01*
X52910000Y-55988996D01*
X52909999Y-55988996D01*
X52936918Y-56124322D01*
X52936921Y-56124332D01*
X52989722Y-56251807D01*
X52989725Y-56251811D01*
X53066386Y-56366543D01*
X53143182Y-56443339D01*
X53176666Y-56504660D01*
X53179500Y-56531019D01*
X53179500Y-62021500D01*
X53159815Y-62088539D01*
X53107011Y-62134294D01*
X53055500Y-62145500D01*
X52825730Y-62145500D01*
X52795300Y-62148353D01*
X52795299Y-62148353D01*
X52794453Y-62148650D01*
X52793787Y-62148683D01*
X52787927Y-62149964D01*
X52787715Y-62148993D01*
X52724674Y-62152211D01*
X52664047Y-62117481D01*
X52631821Y-62055487D01*
X52629500Y-62031608D01*
X52629500Y-58992149D01*
X52629500Y-58992147D01*
X52607318Y-58909362D01*
X52602994Y-58901872D01*
X52564469Y-58835144D01*
X52564463Y-58835136D01*
X44684819Y-50955492D01*
X44651334Y-50894169D01*
X44648500Y-50867811D01*
X44648500Y-49995149D01*
X44648500Y-49995147D01*
X44626318Y-49912362D01*
X44626318Y-49912361D01*
X44583465Y-49838138D01*
X43715455Y-48970128D01*
X43681970Y-48908805D01*
X43679136Y-48882447D01*
X43679136Y-48385386D01*
X43679136Y-48385384D01*
X43672722Y-48314804D01*
X43649256Y-48239498D01*
X44263136Y-48239498D01*
X44263136Y-48880481D01*
X44263137Y-48880490D01*
X44269223Y-48937114D01*
X44285406Y-48980500D01*
X44317008Y-49065226D01*
X44398949Y-49174687D01*
X44508410Y-49256628D01*
X44636522Y-49304412D01*
X44693151Y-49310500D01*
X46734120Y-49310499D01*
X46790750Y-49304412D01*
X46918862Y-49256628D01*
X47028323Y-49174687D01*
X47110264Y-49065226D01*
X47158048Y-48937114D01*
X47160323Y-48915944D01*
X47164135Y-48880501D01*
X47164135Y-48880490D01*
X47164136Y-48880485D01*
X47164135Y-48239516D01*
X47158048Y-48182886D01*
X47110264Y-48054774D01*
X47028323Y-47945313D01*
X46958075Y-47892726D01*
X46918866Y-47863374D01*
X46918863Y-47863373D01*
X46918862Y-47863372D01*
X46820086Y-47826530D01*
X47838136Y-47826530D01*
X47838136Y-48033469D01*
X47878504Y-48236412D01*
X47878506Y-48236420D01*
X47957694Y-48427596D01*
X48072660Y-48599657D01*
X48218978Y-48745975D01*
X48218981Y-48745977D01*
X48391038Y-48860941D01*
X48582216Y-48940130D01*
X48785166Y-48980499D01*
X48785170Y-48980500D01*
X48785171Y-48980500D01*
X48992102Y-48980500D01*
X48992103Y-48980499D01*
X49195056Y-48940130D01*
X49386234Y-48860941D01*
X49558291Y-48745977D01*
X49704613Y-48599655D01*
X49819577Y-48427598D01*
X49898766Y-48236420D01*
X49939136Y-48033465D01*
X49939136Y-47826535D01*
X49939135Y-47826530D01*
X50378136Y-47826530D01*
X50378136Y-48033469D01*
X50418504Y-48236412D01*
X50418506Y-48236420D01*
X50497694Y-48427596D01*
X50612660Y-48599657D01*
X50758978Y-48745975D01*
X50758981Y-48745977D01*
X50931038Y-48860941D01*
X51122216Y-48940130D01*
X51325166Y-48980499D01*
X51325170Y-48980500D01*
X51325171Y-48980500D01*
X51532102Y-48980500D01*
X51532103Y-48980499D01*
X51735056Y-48940130D01*
X51926234Y-48860941D01*
X52098291Y-48745977D01*
X52244613Y-48599655D01*
X52359577Y-48427598D01*
X52438766Y-48236420D01*
X52479136Y-48033465D01*
X52479136Y-47826535D01*
X52438766Y-47623580D01*
X52359577Y-47432402D01*
X52244613Y-47260345D01*
X52244611Y-47260342D01*
X52098293Y-47114024D01*
X52012262Y-47056541D01*
X51926234Y-46999059D01*
X51869360Y-46975501D01*
X51735056Y-46919870D01*
X51735048Y-46919868D01*
X51532105Y-46879500D01*
X51532101Y-46879500D01*
X51325171Y-46879500D01*
X51325166Y-46879500D01*
X51122223Y-46919868D01*
X51122215Y-46919870D01*
X50931039Y-46999058D01*
X50758978Y-47114024D01*
X50612660Y-47260342D01*
X50497694Y-47432403D01*
X50418506Y-47623579D01*
X50418504Y-47623587D01*
X50378136Y-47826530D01*
X49939135Y-47826530D01*
X49898766Y-47623580D01*
X49819577Y-47432402D01*
X49704613Y-47260345D01*
X49704611Y-47260342D01*
X49558293Y-47114024D01*
X49472262Y-47056541D01*
X49386234Y-46999059D01*
X49329360Y-46975501D01*
X49195056Y-46919870D01*
X49195048Y-46919868D01*
X48992105Y-46879500D01*
X48992101Y-46879500D01*
X48785171Y-46879500D01*
X48785166Y-46879500D01*
X48582223Y-46919868D01*
X48582215Y-46919870D01*
X48391039Y-46999058D01*
X48218978Y-47114024D01*
X48072660Y-47260342D01*
X47957694Y-47432403D01*
X47878506Y-47623579D01*
X47878504Y-47623587D01*
X47838136Y-47826530D01*
X46820086Y-47826530D01*
X46790750Y-47815588D01*
X46790748Y-47815587D01*
X46790746Y-47815587D01*
X46734129Y-47809500D01*
X44693154Y-47809500D01*
X44693145Y-47809501D01*
X44636521Y-47815587D01*
X44508409Y-47863372D01*
X44398949Y-47945313D01*
X44317009Y-48054771D01*
X44317008Y-48054774D01*
X44280598Y-48152393D01*
X44269223Y-48182889D01*
X44263136Y-48239498D01*
X43649256Y-48239498D01*
X43622114Y-48152394D01*
X43534108Y-48006815D01*
X43534106Y-48006813D01*
X43534105Y-48006811D01*
X43413824Y-47886530D01*
X43413821Y-47886528D01*
X43268242Y-47798522D01*
X43242129Y-47790385D01*
X43183982Y-47751648D01*
X43156008Y-47687623D01*
X43167089Y-47618638D01*
X43213708Y-47566595D01*
X43242128Y-47553615D01*
X43268242Y-47545478D01*
X43413821Y-47457472D01*
X43534108Y-47337185D01*
X43622114Y-47191606D01*
X43672722Y-47029196D01*
X43679136Y-46958616D01*
X43679136Y-46334498D01*
X44263136Y-46334498D01*
X44263136Y-46975481D01*
X44263137Y-46975490D01*
X44269223Y-47032114D01*
X44299775Y-47114023D01*
X44317008Y-47160226D01*
X44398949Y-47269687D01*
X44477063Y-47328162D01*
X44505512Y-47349459D01*
X44508410Y-47351628D01*
X44636522Y-47399412D01*
X44693151Y-47405500D01*
X46734120Y-47405499D01*
X46790750Y-47399412D01*
X46918862Y-47351628D01*
X47028323Y-47269687D01*
X47110264Y-47160226D01*
X47158048Y-47032114D01*
X47161602Y-46999058D01*
X47164135Y-46975501D01*
X47164135Y-46975490D01*
X47164136Y-46975485D01*
X47164135Y-46334516D01*
X47158048Y-46277886D01*
X47110264Y-46149774D01*
X47028323Y-46040313D01*
X46962547Y-45991074D01*
X46918864Y-45958373D01*
X46918862Y-45958372D01*
X46790750Y-45910588D01*
X46790748Y-45910587D01*
X46790746Y-45910587D01*
X46734129Y-45904500D01*
X44693154Y-45904500D01*
X44693145Y-45904501D01*
X44636521Y-45910587D01*
X44508409Y-45958372D01*
X44398949Y-46040313D01*
X44317009Y-46149771D01*
X44269223Y-46277889D01*
X44263136Y-46334498D01*
X43679136Y-46334498D01*
X43679136Y-45845384D01*
X43672722Y-45774804D01*
X43622114Y-45612394D01*
X43534108Y-45466815D01*
X43534106Y-45466813D01*
X43534105Y-45466811D01*
X43413824Y-45346530D01*
X43413821Y-45346528D01*
X43314573Y-45286530D01*
X47838136Y-45286530D01*
X47838136Y-45493469D01*
X47850081Y-45553519D01*
X47878506Y-45696420D01*
X47957695Y-45887598D01*
X48004984Y-45958372D01*
X48072660Y-46059657D01*
X48218978Y-46205975D01*
X48218981Y-46205977D01*
X48391038Y-46320941D01*
X48582216Y-46400130D01*
X48785166Y-46440499D01*
X48785170Y-46440500D01*
X48785171Y-46440500D01*
X48992102Y-46440500D01*
X48992103Y-46440499D01*
X49195056Y-46400130D01*
X49386234Y-46320941D01*
X49558291Y-46205977D01*
X49704613Y-46059655D01*
X49819577Y-45887598D01*
X49898766Y-45696420D01*
X49939136Y-45493465D01*
X49939136Y-45286535D01*
X49939135Y-45286530D01*
X50378136Y-45286530D01*
X50378136Y-45493469D01*
X50390081Y-45553519D01*
X50418506Y-45696420D01*
X50497695Y-45887598D01*
X50544984Y-45958372D01*
X50612660Y-46059657D01*
X50758978Y-46205975D01*
X50758981Y-46205977D01*
X50931038Y-46320941D01*
X51122216Y-46400130D01*
X51325166Y-46440499D01*
X51325170Y-46440500D01*
X51325171Y-46440500D01*
X51532102Y-46440500D01*
X51532103Y-46440499D01*
X51735056Y-46400130D01*
X51926234Y-46320941D01*
X52098291Y-46205977D01*
X52244613Y-46059655D01*
X52359577Y-45887598D01*
X52438766Y-45696420D01*
X52479136Y-45493465D01*
X52479136Y-45286535D01*
X52438766Y-45083580D01*
X52359577Y-44892402D01*
X52244613Y-44720345D01*
X52244611Y-44720342D01*
X52098293Y-44574024D01*
X52012262Y-44516541D01*
X51926234Y-44459059D01*
X51875644Y-44438104D01*
X51735056Y-44379870D01*
X51735048Y-44379868D01*
X51532105Y-44339500D01*
X51532101Y-44339500D01*
X51325171Y-44339500D01*
X51325166Y-44339500D01*
X51122223Y-44379868D01*
X51122215Y-44379870D01*
X50931039Y-44459058D01*
X50758978Y-44574024D01*
X50612660Y-44720342D01*
X50497694Y-44892403D01*
X50418506Y-45083579D01*
X50418504Y-45083587D01*
X50378136Y-45286530D01*
X49939135Y-45286530D01*
X49898766Y-45083580D01*
X49819577Y-44892402D01*
X49704613Y-44720345D01*
X49704611Y-44720342D01*
X49558293Y-44574024D01*
X49472262Y-44516541D01*
X49386234Y-44459059D01*
X49335644Y-44438104D01*
X49195056Y-44379870D01*
X49195048Y-44379868D01*
X48992105Y-44339500D01*
X48992101Y-44339500D01*
X48785171Y-44339500D01*
X48785166Y-44339500D01*
X48582223Y-44379868D01*
X48582215Y-44379870D01*
X48391039Y-44459058D01*
X48218978Y-44574024D01*
X48072660Y-44720342D01*
X47957694Y-44892403D01*
X47878506Y-45083579D01*
X47878504Y-45083587D01*
X47838136Y-45286530D01*
X43314573Y-45286530D01*
X43268242Y-45258522D01*
X43242129Y-45250385D01*
X43183982Y-45211648D01*
X43156008Y-45147623D01*
X43167089Y-45078638D01*
X43213708Y-45026595D01*
X43242128Y-45013615D01*
X43268242Y-45005478D01*
X43413821Y-44917472D01*
X43534108Y-44797185D01*
X43622114Y-44651606D01*
X43672722Y-44489196D01*
X43679136Y-44418616D01*
X43679136Y-43305384D01*
X43672722Y-43234804D01*
X43622114Y-43072394D01*
X43534108Y-42926815D01*
X43534106Y-42926813D01*
X43534105Y-42926811D01*
X43413824Y-42806530D01*
X43413821Y-42806528D01*
X43314573Y-42746530D01*
X47838136Y-42746530D01*
X47838136Y-42953469D01*
X47878504Y-43156412D01*
X47878506Y-43156420D01*
X47957694Y-43347596D01*
X48072660Y-43519657D01*
X48218978Y-43665975D01*
X48218981Y-43665977D01*
X48391038Y-43780941D01*
X48582216Y-43860130D01*
X48784462Y-43900359D01*
X48785166Y-43900499D01*
X48785170Y-43900500D01*
X48785171Y-43900500D01*
X48992102Y-43900500D01*
X48992103Y-43900499D01*
X49195056Y-43860130D01*
X49386234Y-43780941D01*
X49558291Y-43665977D01*
X49704613Y-43519655D01*
X49819577Y-43347598D01*
X49898766Y-43156420D01*
X49939136Y-42953465D01*
X49939136Y-42746535D01*
X49939135Y-42746530D01*
X50378136Y-42746530D01*
X50378136Y-42953469D01*
X50418504Y-43156412D01*
X50418506Y-43156420D01*
X50497694Y-43347596D01*
X50612660Y-43519657D01*
X50758978Y-43665975D01*
X50758981Y-43665977D01*
X50931038Y-43780941D01*
X51122216Y-43860130D01*
X51324462Y-43900359D01*
X51325166Y-43900499D01*
X51325170Y-43900500D01*
X51325171Y-43900500D01*
X51532102Y-43900500D01*
X51532103Y-43900499D01*
X51735056Y-43860130D01*
X51926234Y-43780941D01*
X52098291Y-43665977D01*
X52244613Y-43519655D01*
X52359577Y-43347598D01*
X52438766Y-43156420D01*
X52479136Y-42953465D01*
X52479136Y-42746535D01*
X52438766Y-42543580D01*
X52359577Y-42352402D01*
X52244613Y-42180345D01*
X52244611Y-42180342D01*
X52098293Y-42034024D01*
X52012262Y-41976541D01*
X51926234Y-41919059D01*
X51828589Y-41878613D01*
X51735056Y-41839870D01*
X51735048Y-41839868D01*
X51532105Y-41799500D01*
X51532101Y-41799500D01*
X51325171Y-41799500D01*
X51325166Y-41799500D01*
X51122223Y-41839868D01*
X51122215Y-41839870D01*
X50931039Y-41919058D01*
X50758978Y-42034024D01*
X50612660Y-42180342D01*
X50497694Y-42352403D01*
X50418506Y-42543579D01*
X50418504Y-42543587D01*
X50378136Y-42746530D01*
X49939135Y-42746530D01*
X49898766Y-42543580D01*
X49819577Y-42352402D01*
X49704613Y-42180345D01*
X49704611Y-42180342D01*
X49558293Y-42034024D01*
X49472262Y-41976541D01*
X49386234Y-41919059D01*
X49288589Y-41878613D01*
X49195056Y-41839870D01*
X49195048Y-41839868D01*
X48992105Y-41799500D01*
X48992101Y-41799500D01*
X48785171Y-41799500D01*
X48785166Y-41799500D01*
X48582223Y-41839868D01*
X48582215Y-41839870D01*
X48391039Y-41919058D01*
X48218978Y-42034024D01*
X48072660Y-42180342D01*
X47957694Y-42352403D01*
X47878506Y-42543579D01*
X47878504Y-42543587D01*
X47838136Y-42746530D01*
X43314573Y-42746530D01*
X43268242Y-42718522D01*
X43242129Y-42710385D01*
X43183982Y-42671648D01*
X43156008Y-42607623D01*
X43167089Y-42538638D01*
X43213708Y-42486595D01*
X43242128Y-42473615D01*
X43268242Y-42465478D01*
X43413821Y-42377472D01*
X43534108Y-42257185D01*
X43622114Y-42111606D01*
X43672722Y-41949196D01*
X43679136Y-41878616D01*
X43679136Y-40765384D01*
X43672722Y-40694804D01*
X43622114Y-40532394D01*
X43534108Y-40386815D01*
X43534106Y-40386813D01*
X43534105Y-40386811D01*
X43413824Y-40266530D01*
X43314573Y-40206530D01*
X47838136Y-40206530D01*
X47838136Y-40413469D01*
X47878504Y-40616412D01*
X47878506Y-40616420D01*
X47957695Y-40807598D01*
X48015177Y-40893626D01*
X48072660Y-40979657D01*
X48218978Y-41125975D01*
X48218981Y-41125977D01*
X48391038Y-41240941D01*
X48582216Y-41320130D01*
X48785166Y-41360499D01*
X48785170Y-41360500D01*
X48785171Y-41360500D01*
X48992102Y-41360500D01*
X48992103Y-41360499D01*
X49195056Y-41320130D01*
X49386234Y-41240941D01*
X49558291Y-41125977D01*
X49704613Y-40979655D01*
X49819577Y-40807598D01*
X49898766Y-40616420D01*
X49939136Y-40413465D01*
X49939136Y-40206535D01*
X49939135Y-40206530D01*
X50378136Y-40206530D01*
X50378136Y-40413469D01*
X50418504Y-40616412D01*
X50418506Y-40616420D01*
X50497695Y-40807598D01*
X50555177Y-40893626D01*
X50612660Y-40979657D01*
X50758978Y-41125975D01*
X50758981Y-41125977D01*
X50931038Y-41240941D01*
X51122216Y-41320130D01*
X51325166Y-41360499D01*
X51325170Y-41360500D01*
X51325171Y-41360500D01*
X51532102Y-41360500D01*
X51532103Y-41360499D01*
X51735056Y-41320130D01*
X51926234Y-41240941D01*
X52098291Y-41125977D01*
X52244613Y-40979655D01*
X52359577Y-40807598D01*
X52438766Y-40616420D01*
X52479136Y-40413465D01*
X52479136Y-40206535D01*
X52438766Y-40003580D01*
X52359577Y-39812402D01*
X52244613Y-39640345D01*
X52244611Y-39640342D01*
X52098293Y-39494024D01*
X52012262Y-39436541D01*
X51926234Y-39379059D01*
X51735056Y-39299870D01*
X51735048Y-39299868D01*
X51532105Y-39259500D01*
X51532101Y-39259500D01*
X51325171Y-39259500D01*
X51325166Y-39259500D01*
X51122223Y-39299868D01*
X51122215Y-39299870D01*
X50931039Y-39379058D01*
X50758978Y-39494024D01*
X50612660Y-39640342D01*
X50497694Y-39812403D01*
X50418506Y-40003579D01*
X50418504Y-40003587D01*
X50378136Y-40206530D01*
X49939135Y-40206530D01*
X49898766Y-40003580D01*
X49819577Y-39812402D01*
X49704613Y-39640345D01*
X49704611Y-39640342D01*
X49558293Y-39494024D01*
X49472262Y-39436541D01*
X49386234Y-39379059D01*
X49195056Y-39299870D01*
X49195048Y-39299868D01*
X48992105Y-39259500D01*
X48992101Y-39259500D01*
X48785171Y-39259500D01*
X48785166Y-39259500D01*
X48582223Y-39299868D01*
X48582215Y-39299870D01*
X48391039Y-39379058D01*
X48218978Y-39494024D01*
X48072660Y-39640342D01*
X47957694Y-39812403D01*
X47878506Y-40003579D01*
X47878504Y-40003587D01*
X47838136Y-40206530D01*
X43314573Y-40206530D01*
X43268242Y-40178522D01*
X43207117Y-40159475D01*
X43105832Y-40127914D01*
X43105830Y-40127913D01*
X43105828Y-40127913D01*
X43056414Y-40123423D01*
X43035252Y-40121500D01*
X41172020Y-40121500D01*
X41152781Y-40123248D01*
X41101443Y-40127913D01*
X40939029Y-40178522D01*
X40793447Y-40266530D01*
X40673166Y-40386811D01*
X40585158Y-40532393D01*
X40534549Y-40694807D01*
X40528136Y-40765386D01*
X40528136Y-41878613D01*
X40534549Y-41949192D01*
X40534549Y-41949194D01*
X40534550Y-41949196D01*
X40547958Y-41992224D01*
X40585158Y-42111606D01*
X40673166Y-42257188D01*
X40793447Y-42377469D01*
X40793449Y-42377470D01*
X40793451Y-42377472D01*
X40939030Y-42465478D01*
X40939033Y-42465479D01*
X40939032Y-42465479D01*
X40965141Y-42473615D01*
X41023289Y-42512352D01*
X41051263Y-42576378D01*
X41040181Y-42645363D01*
X40993563Y-42697406D01*
X40965141Y-42710385D01*
X40939033Y-42718520D01*
X40793447Y-42806530D01*
X40673166Y-42926811D01*
X40585158Y-43072393D01*
X40534549Y-43234807D01*
X40528136Y-43305386D01*
X40528136Y-44418613D01*
X40534549Y-44489192D01*
X40534549Y-44489194D01*
X40534550Y-44489196D01*
X40557281Y-44562144D01*
X40585158Y-44651606D01*
X40673166Y-44797188D01*
X40793447Y-44917469D01*
X40793449Y-44917470D01*
X40793451Y-44917472D01*
X40939030Y-45005478D01*
X40939033Y-45005479D01*
X40939032Y-45005479D01*
X40965141Y-45013615D01*
X41023289Y-45052352D01*
X41051263Y-45116378D01*
X41040181Y-45185363D01*
X40993563Y-45237406D01*
X40965141Y-45250385D01*
X40939033Y-45258520D01*
X40793447Y-45346530D01*
X40673166Y-45466811D01*
X40585158Y-45612393D01*
X40534549Y-45774807D01*
X40528136Y-45845386D01*
X40528136Y-46958613D01*
X40534549Y-47029192D01*
X40534549Y-47029194D01*
X40534550Y-47029196D01*
X40575380Y-47160228D01*
X40585159Y-47191608D01*
X40632154Y-47269348D01*
X40649990Y-47336902D01*
X40628472Y-47403376D01*
X40613718Y-47421178D01*
X40217181Y-47817716D01*
X40155858Y-47851201D01*
X40086167Y-47846217D01*
X40030233Y-47804346D01*
X40005816Y-47738881D01*
X40005500Y-47730035D01*
X40005500Y-38224500D01*
X40025185Y-38157461D01*
X40077989Y-38111706D01*
X40129500Y-38100500D01*
X60200500Y-38100500D01*
X60267539Y-38120185D01*
G37*
%TD.AperFunction*%
%TA.AperFunction,Conductor*%
G36*
X43627507Y-61366082D02*
G01*
X43653828Y-61386155D01*
X43910339Y-61642666D01*
X43943824Y-61703989D01*
X43946658Y-61730347D01*
X43946658Y-62305819D01*
X43946658Y-62391525D01*
X43950072Y-62404266D01*
X43968840Y-62474312D01*
X43978738Y-62491455D01*
X44011693Y-62548534D01*
X44011695Y-62548536D01*
X45450978Y-63987819D01*
X45484463Y-64049142D01*
X45479479Y-64118834D01*
X45437607Y-64174767D01*
X45372143Y-64199184D01*
X45363297Y-64199500D01*
X45040730Y-64199500D01*
X45010300Y-64202353D01*
X45010298Y-64202353D01*
X44882119Y-64247206D01*
X44882117Y-64247207D01*
X44772850Y-64327850D01*
X44692207Y-64437117D01*
X44692206Y-64437119D01*
X44647353Y-64565298D01*
X44647353Y-64565300D01*
X44644500Y-64595730D01*
X44644500Y-65083480D01*
X44624815Y-65150519D01*
X44608181Y-65171161D01*
X41955890Y-67823451D01*
X41955887Y-67823454D01*
X41902332Y-67903607D01*
X41902331Y-67903608D01*
X41879229Y-67938180D01*
X41879221Y-67938195D01*
X41826421Y-68065667D01*
X41826418Y-68065677D01*
X41799500Y-68201004D01*
X41799500Y-68201007D01*
X41799500Y-68648993D01*
X41799500Y-68648995D01*
X41799499Y-68648995D01*
X41826418Y-68784322D01*
X41826421Y-68784332D01*
X41879221Y-68911804D01*
X41879228Y-68911817D01*
X41955885Y-69026541D01*
X41963177Y-69033833D01*
X41996665Y-69095155D01*
X41999500Y-69121518D01*
X41999500Y-69200760D01*
X42009426Y-69268891D01*
X42060803Y-69373985D01*
X42143514Y-69456696D01*
X42143515Y-69456696D01*
X42143517Y-69456698D01*
X42248607Y-69508073D01*
X42282673Y-69513036D01*
X42316739Y-69518000D01*
X42316740Y-69518000D01*
X42683261Y-69518000D01*
X42705971Y-69514691D01*
X42751393Y-69508073D01*
X42856483Y-69456698D01*
X42939198Y-69373983D01*
X42990573Y-69268893D01*
X43000500Y-69200760D01*
X43000500Y-69121518D01*
X43020185Y-69054479D01*
X43036823Y-69033833D01*
X43044114Y-69026542D01*
X43120775Y-68911811D01*
X43173580Y-68784328D01*
X43182389Y-68740041D01*
X43200500Y-68648995D01*
X43200500Y-68611518D01*
X43220185Y-68544479D01*
X43236815Y-68523841D01*
X43527051Y-68233605D01*
X43588371Y-68200122D01*
X43658062Y-68205106D01*
X43713996Y-68246977D01*
X43738413Y-68312442D01*
X43729294Y-68368732D01*
X43726421Y-68375669D01*
X43726418Y-68375677D01*
X43699500Y-68511003D01*
X43699500Y-68511006D01*
X43699500Y-68648994D01*
X43699500Y-68648996D01*
X43699499Y-68648996D01*
X43726418Y-68784322D01*
X43726421Y-68784332D01*
X43779222Y-68911807D01*
X43855887Y-69026545D01*
X43863177Y-69033834D01*
X43896665Y-69095156D01*
X43899500Y-69121519D01*
X43899500Y-69200760D01*
X43909426Y-69268891D01*
X43960803Y-69373985D01*
X44043514Y-69456696D01*
X44043515Y-69456696D01*
X44043517Y-69456698D01*
X44148607Y-69508073D01*
X44182673Y-69513036D01*
X44216739Y-69518000D01*
X44216740Y-69518000D01*
X44295981Y-69518000D01*
X44363020Y-69537685D01*
X44383662Y-69554319D01*
X45503453Y-70674111D01*
X45503454Y-70674112D01*
X45618192Y-70750777D01*
X45745667Y-70803578D01*
X45745672Y-70803580D01*
X45745676Y-70803580D01*
X45745677Y-70803581D01*
X45881003Y-70830500D01*
X45881006Y-70830500D01*
X45881007Y-70830500D01*
X46242712Y-70830500D01*
X46309751Y-70850185D01*
X46316345Y-70854730D01*
X46422113Y-70932790D01*
X46422115Y-70932791D01*
X46422118Y-70932793D01*
X46464845Y-70947744D01*
X46550299Y-70977646D01*
X46580730Y-70980500D01*
X46580734Y-70980500D01*
X47939270Y-70980500D01*
X47969699Y-70977646D01*
X47969701Y-70977646D01*
X48033790Y-70955219D01*
X48097882Y-70932793D01*
X48207150Y-70852150D01*
X48261323Y-70778747D01*
X48316969Y-70736498D01*
X48386625Y-70731039D01*
X48448175Y-70764106D01*
X48478798Y-70813378D01*
X48490641Y-70849119D01*
X48490643Y-70849124D01*
X48582684Y-70998345D01*
X48706654Y-71122315D01*
X48855875Y-71214356D01*
X48855880Y-71214358D01*
X49022302Y-71269505D01*
X49022309Y-71269506D01*
X49125019Y-71279999D01*
X49549999Y-71279999D01*
X50050000Y-71279999D01*
X50474972Y-71279999D01*
X50474986Y-71279998D01*
X50577697Y-71269505D01*
X50744119Y-71214358D01*
X50744124Y-71214356D01*
X50893345Y-71122315D01*
X51017315Y-70998345D01*
X51109356Y-70849124D01*
X51109358Y-70849119D01*
X51164505Y-70682697D01*
X51164506Y-70682690D01*
X51174999Y-70579986D01*
X51175000Y-70579973D01*
X51175000Y-70380000D01*
X50050000Y-70380000D01*
X50050000Y-71279999D01*
X49549999Y-71279999D01*
X49550000Y-71279998D01*
X49550000Y-68980000D01*
X49125028Y-68980000D01*
X49125012Y-68980001D01*
X49022302Y-68990494D01*
X48855880Y-69045641D01*
X48855875Y-69045643D01*
X48706654Y-69137684D01*
X48582684Y-69261654D01*
X48490643Y-69410875D01*
X48490642Y-69410878D01*
X48478798Y-69446622D01*
X48439025Y-69504067D01*
X48374509Y-69530889D01*
X48305733Y-69518574D01*
X48261322Y-69481251D01*
X48207150Y-69407850D01*
X48097882Y-69327207D01*
X48097880Y-69327206D01*
X47969700Y-69282353D01*
X47939270Y-69279500D01*
X47939266Y-69279500D01*
X46580734Y-69279500D01*
X46580730Y-69279500D01*
X46550300Y-69282353D01*
X46550298Y-69282353D01*
X46422119Y-69327206D01*
X46422114Y-69327209D01*
X46344425Y-69384545D01*
X46278796Y-69408515D01*
X46210626Y-69393199D01*
X46183112Y-69372455D01*
X44936819Y-68126162D01*
X44903334Y-68064839D01*
X44900500Y-68038481D01*
X44900500Y-67959239D01*
X44890573Y-67891108D01*
X44889624Y-67889166D01*
X44839198Y-67786017D01*
X44839196Y-67786015D01*
X44839196Y-67786014D01*
X44756485Y-67703303D01*
X44651391Y-67651926D01*
X44583261Y-67642000D01*
X44583260Y-67642000D01*
X44418018Y-67642000D01*
X44350979Y-67622315D01*
X44305224Y-67569511D01*
X44295280Y-67500353D01*
X44324305Y-67436797D01*
X44330337Y-67430319D01*
X44970890Y-66789767D01*
X45823838Y-65936819D01*
X45885161Y-65903334D01*
X45911519Y-65900500D01*
X46399270Y-65900500D01*
X46429699Y-65897646D01*
X46429701Y-65897646D01*
X46548425Y-65856102D01*
X46557882Y-65852793D01*
X46557882Y-65852792D01*
X46566652Y-65849724D01*
X46567318Y-65851628D01*
X46589143Y-65848490D01*
X46620001Y-65842209D01*
X46623467Y-65843555D01*
X46627147Y-65843026D01*
X46655781Y-65856102D01*
X46685132Y-65867500D01*
X46687320Y-65870506D01*
X46690703Y-65872051D01*
X46707725Y-65898539D01*
X46726251Y-65923989D01*
X46727053Y-65928614D01*
X46728477Y-65930829D01*
X46733500Y-65965764D01*
X46733500Y-66055500D01*
X46713815Y-66122539D01*
X46661011Y-66168294D01*
X46609500Y-66179500D01*
X46580730Y-66179500D01*
X46550300Y-66182353D01*
X46550298Y-66182353D01*
X46422119Y-66227206D01*
X46422117Y-66227207D01*
X46312850Y-66307850D01*
X46232207Y-66417117D01*
X46232206Y-66417119D01*
X46187353Y-66545298D01*
X46187353Y-66545300D01*
X46184500Y-66575730D01*
X46184500Y-67484269D01*
X46187353Y-67514699D01*
X46187353Y-67514701D01*
X46225010Y-67622315D01*
X46232207Y-67642882D01*
X46312850Y-67752150D01*
X46422118Y-67832793D01*
X46464845Y-67847744D01*
X46550299Y-67877646D01*
X46580730Y-67880500D01*
X46580734Y-67880500D01*
X47939270Y-67880500D01*
X47969699Y-67877646D01*
X47969701Y-67877646D01*
X48033790Y-67855219D01*
X48097882Y-67832793D01*
X48207150Y-67752150D01*
X48287793Y-67642882D01*
X48313467Y-67569511D01*
X48332646Y-67514701D01*
X48332646Y-67514699D01*
X48335500Y-67484269D01*
X48335500Y-66575730D01*
X48332646Y-66545300D01*
X48332646Y-66545298D01*
X48287793Y-66417119D01*
X48287792Y-66417117D01*
X48276502Y-66401819D01*
X48207150Y-66307850D01*
X48097882Y-66227207D01*
X48097880Y-66227206D01*
X47969700Y-66182353D01*
X47939270Y-66179500D01*
X47939266Y-66179500D01*
X47508500Y-66179500D01*
X47441461Y-66159815D01*
X47395706Y-66107011D01*
X47384500Y-66055500D01*
X47384500Y-66014391D01*
X47404185Y-65947352D01*
X47456989Y-65901597D01*
X47526147Y-65891653D01*
X47549458Y-65897351D01*
X47550301Y-65897646D01*
X47565517Y-65899073D01*
X47580730Y-65900500D01*
X47580734Y-65900500D01*
X48939270Y-65900500D01*
X48969699Y-65897646D01*
X48969701Y-65897646D01*
X49033790Y-65875219D01*
X49097882Y-65852793D01*
X49207150Y-65772150D01*
X49287793Y-65662882D01*
X49325420Y-65555350D01*
X49332646Y-65534701D01*
X49332646Y-65534699D01*
X49335500Y-65504269D01*
X49335500Y-65499500D01*
X49338050Y-65490814D01*
X49336762Y-65481853D01*
X49347740Y-65457812D01*
X49355185Y-65432461D01*
X49362025Y-65426533D01*
X49365787Y-65418297D01*
X49388021Y-65404007D01*
X49407989Y-65386706D01*
X49418503Y-65384418D01*
X49424565Y-65380523D01*
X49459500Y-65375500D01*
X49600500Y-65375500D01*
X49667539Y-65395185D01*
X49713294Y-65447989D01*
X49724500Y-65499500D01*
X49724500Y-65504269D01*
X49727353Y-65534699D01*
X49727353Y-65534701D01*
X49772206Y-65662880D01*
X49772207Y-65662882D01*
X49852850Y-65772150D01*
X49962118Y-65852793D01*
X49971575Y-65856102D01*
X50090299Y-65897646D01*
X50120730Y-65900500D01*
X50120734Y-65900500D01*
X51479270Y-65900500D01*
X51509699Y-65897646D01*
X51509701Y-65897646D01*
X51573790Y-65875219D01*
X51637882Y-65852793D01*
X51747150Y-65772150D01*
X51827793Y-65662882D01*
X51865420Y-65555350D01*
X51872646Y-65534701D01*
X51872646Y-65534699D01*
X51875500Y-65504269D01*
X51875500Y-65462189D01*
X51895185Y-65395150D01*
X51947989Y-65349395D01*
X52017147Y-65339451D01*
X52080703Y-65368476D01*
X52087181Y-65374508D01*
X53013138Y-66300465D01*
X53087361Y-66343318D01*
X53170147Y-66365500D01*
X53255853Y-66365500D01*
X58016297Y-66365500D01*
X58083336Y-66385185D01*
X58103978Y-66401819D01*
X58304978Y-66602819D01*
X58338463Y-66664142D01*
X58333479Y-66733834D01*
X58291607Y-66789767D01*
X58226143Y-66814184D01*
X58217297Y-66814500D01*
X57105730Y-66814500D01*
X57075300Y-66817353D01*
X57075298Y-66817353D01*
X56947119Y-66862206D01*
X56947117Y-66862207D01*
X56837850Y-66942850D01*
X56757207Y-67052117D01*
X56757206Y-67052119D01*
X56712353Y-67180298D01*
X56712353Y-67180300D01*
X56709500Y-67210730D01*
X56709500Y-67698481D01*
X56700855Y-67727921D01*
X56694332Y-67757908D01*
X56690577Y-67762923D01*
X56689815Y-67765520D01*
X56673181Y-67786162D01*
X56603662Y-67855681D01*
X56542339Y-67889166D01*
X56515981Y-67892000D01*
X55807304Y-67892000D01*
X55740265Y-67872315D01*
X55695904Y-67822461D01*
X55684197Y-67798515D01*
X55601485Y-67715803D01*
X55496391Y-67664426D01*
X55428261Y-67654500D01*
X55428260Y-67654500D01*
X55061740Y-67654500D01*
X55061739Y-67654500D01*
X54993608Y-67664426D01*
X54888514Y-67715803D01*
X54805803Y-67798514D01*
X54754427Y-67903607D01*
X54744500Y-67971739D01*
X54744500Y-68050981D01*
X54724815Y-68118020D01*
X54708181Y-68138662D01*
X54700888Y-68145954D01*
X54700885Y-68145958D01*
X54624228Y-68260682D01*
X54624221Y-68260695D01*
X54571421Y-68388167D01*
X54571418Y-68388177D01*
X54544500Y-68523504D01*
X54544500Y-68523507D01*
X54544500Y-68661493D01*
X54544500Y-68661495D01*
X54544499Y-68661495D01*
X54571418Y-68796822D01*
X54571421Y-68796832D01*
X54624221Y-68924304D01*
X54624228Y-68924317D01*
X54700885Y-69039041D01*
X54708177Y-69046333D01*
X54741665Y-69107655D01*
X54744500Y-69134018D01*
X54744500Y-69213260D01*
X54754426Y-69281391D01*
X54805803Y-69386485D01*
X54888514Y-69469196D01*
X54888515Y-69469196D01*
X54888517Y-69469198D01*
X54993607Y-69520573D01*
X55017286Y-69524023D01*
X55061739Y-69530500D01*
X55061740Y-69530500D01*
X55428261Y-69530500D01*
X55452790Y-69526926D01*
X55496393Y-69520573D01*
X55601483Y-69469198D01*
X55684198Y-69386483D01*
X55691056Y-69372455D01*
X55695904Y-69362539D01*
X55743032Y-69310957D01*
X55807304Y-69293000D01*
X56926496Y-69293000D01*
X57047696Y-69268891D01*
X57061828Y-69266080D01*
X57125569Y-69239677D01*
X57189307Y-69213277D01*
X57189308Y-69213276D01*
X57189311Y-69213275D01*
X57304043Y-69136614D01*
X57888838Y-68551819D01*
X57950161Y-68518334D01*
X57976519Y-68515500D01*
X58464270Y-68515500D01*
X58477791Y-68514231D01*
X58494699Y-68512646D01*
X58495536Y-68512352D01*
X58496198Y-68512319D01*
X58502073Y-68511036D01*
X58502285Y-68512007D01*
X58565312Y-68508785D01*
X58625943Y-68543508D01*
X58658176Y-68605498D01*
X58660500Y-68629391D01*
X58660500Y-69377811D01*
X58640815Y-69444850D01*
X58624181Y-69465492D01*
X58211492Y-69878181D01*
X58150169Y-69911666D01*
X58123811Y-69914500D01*
X57105730Y-69914500D01*
X57075300Y-69917353D01*
X57075298Y-69917353D01*
X56947119Y-69962206D01*
X56947117Y-69962207D01*
X56837850Y-70042850D01*
X56757207Y-70152117D01*
X56757206Y-70152119D01*
X56712353Y-70280298D01*
X56712353Y-70280300D01*
X56709500Y-70310730D01*
X56709500Y-71219269D01*
X56712353Y-71249699D01*
X56712353Y-71249701D01*
X56721309Y-71275293D01*
X56724871Y-71345072D01*
X56690143Y-71405699D01*
X56628150Y-71437927D01*
X56558574Y-71431522D01*
X56516587Y-71403929D01*
X55942545Y-70829887D01*
X55827807Y-70753222D01*
X55700332Y-70700421D01*
X55700322Y-70700418D01*
X55564996Y-70673500D01*
X55564994Y-70673500D01*
X55427006Y-70673500D01*
X55427004Y-70673500D01*
X55291677Y-70700418D01*
X55291676Y-70700419D01*
X55291675Y-70700419D01*
X55291672Y-70700420D01*
X55224431Y-70728272D01*
X55166952Y-70752080D01*
X55097482Y-70759548D01*
X55035003Y-70728272D01*
X54999351Y-70668183D01*
X54995500Y-70637518D01*
X54995500Y-70398504D01*
X54968581Y-70263177D01*
X54968580Y-70263176D01*
X54968580Y-70263172D01*
X54966977Y-70259302D01*
X54915778Y-70135695D01*
X54915771Y-70135682D01*
X54839114Y-70020958D01*
X54839111Y-70020954D01*
X54831819Y-70013662D01*
X54798334Y-69952339D01*
X54795500Y-69925981D01*
X54795500Y-69846739D01*
X54785573Y-69778608D01*
X54785573Y-69778607D01*
X54734198Y-69673517D01*
X54734196Y-69673515D01*
X54734196Y-69673514D01*
X54651485Y-69590803D01*
X54546391Y-69539426D01*
X54478261Y-69529500D01*
X54478260Y-69529500D01*
X54111740Y-69529500D01*
X54111739Y-69529500D01*
X54043608Y-69539426D01*
X53938514Y-69590803D01*
X53855802Y-69673515D01*
X53844096Y-69697461D01*
X53796968Y-69749043D01*
X53732696Y-69767000D01*
X53616175Y-69767000D01*
X53549136Y-69747315D01*
X53503381Y-69694511D01*
X53493437Y-69625353D01*
X53522462Y-69561797D01*
X53581240Y-69524023D01*
X53594861Y-69521046D01*
X53596390Y-69520574D01*
X53596391Y-69520573D01*
X53596393Y-69520573D01*
X53701483Y-69469198D01*
X53784198Y-69386483D01*
X53835573Y-69281393D01*
X53845500Y-69213260D01*
X53845500Y-69134018D01*
X53865185Y-69066979D01*
X53881823Y-69046333D01*
X53882515Y-69045641D01*
X53889114Y-69039042D01*
X53965775Y-68924311D01*
X54018580Y-68796828D01*
X54045500Y-68661493D01*
X54045500Y-68523507D01*
X54045500Y-68523504D01*
X54018581Y-68388177D01*
X54018580Y-68388176D01*
X54018580Y-68388172D01*
X54018578Y-68388167D01*
X53965778Y-68260695D01*
X53965771Y-68260682D01*
X53889114Y-68145958D01*
X53889111Y-68145954D01*
X53881819Y-68138662D01*
X53848334Y-68077339D01*
X53845500Y-68050981D01*
X53845500Y-67971739D01*
X53835573Y-67903607D01*
X53824277Y-67880500D01*
X53784198Y-67798517D01*
X53784196Y-67798515D01*
X53784196Y-67798514D01*
X53701485Y-67715803D01*
X53596391Y-67664426D01*
X53528261Y-67654500D01*
X53528260Y-67654500D01*
X53161740Y-67654500D01*
X53161739Y-67654500D01*
X53093608Y-67664426D01*
X52988514Y-67715803D01*
X52905802Y-67798515D01*
X52894096Y-67822461D01*
X52846968Y-67874043D01*
X52782696Y-67892000D01*
X51704019Y-67892000D01*
X51636980Y-67872315D01*
X51616338Y-67855681D01*
X50911819Y-67151162D01*
X50878334Y-67089839D01*
X50875500Y-67063481D01*
X50875500Y-66575730D01*
X50872646Y-66545300D01*
X50872646Y-66545298D01*
X50827793Y-66417119D01*
X50827792Y-66417117D01*
X50816502Y-66401819D01*
X50747150Y-66307850D01*
X50637882Y-66227207D01*
X50637880Y-66227206D01*
X50509700Y-66182353D01*
X50479270Y-66179500D01*
X50479266Y-66179500D01*
X49120734Y-66179500D01*
X49120730Y-66179500D01*
X49090300Y-66182353D01*
X49090298Y-66182353D01*
X48962119Y-66227206D01*
X48962117Y-66227207D01*
X48852850Y-66307850D01*
X48772207Y-66417117D01*
X48772206Y-66417119D01*
X48727353Y-66545298D01*
X48727353Y-66545300D01*
X48724500Y-66575730D01*
X48724500Y-67484269D01*
X48727353Y-67514699D01*
X48727353Y-67514701D01*
X48765010Y-67622315D01*
X48772207Y-67642882D01*
X48852850Y-67752150D01*
X48962118Y-67832793D01*
X49004845Y-67847744D01*
X49090299Y-67877646D01*
X49120730Y-67880500D01*
X49120734Y-67880500D01*
X49608481Y-67880500D01*
X49675520Y-67900185D01*
X49696162Y-67916819D01*
X50547661Y-68768319D01*
X50581146Y-68829642D01*
X50576162Y-68899334D01*
X50534290Y-68955267D01*
X50468826Y-68979684D01*
X50459980Y-68980000D01*
X50050000Y-68980000D01*
X50050000Y-69880000D01*
X51174999Y-69880000D01*
X51174999Y-69680028D01*
X51174998Y-69680013D01*
X51164506Y-69577304D01*
X51121539Y-69447641D01*
X51119137Y-69377812D01*
X51154868Y-69317770D01*
X51217389Y-69286577D01*
X51263438Y-69287019D01*
X51293505Y-69293000D01*
X51293506Y-69293000D01*
X51293507Y-69293000D01*
X52782696Y-69293000D01*
X52849735Y-69312685D01*
X52894096Y-69362539D01*
X52905802Y-69386484D01*
X52988514Y-69469196D01*
X52988515Y-69469196D01*
X52988517Y-69469198D01*
X53093607Y-69520573D01*
X53117286Y-69524023D01*
X53161739Y-69530500D01*
X53345479Y-69530500D01*
X53367754Y-69537040D01*
X53390879Y-69539110D01*
X53400649Y-69546700D01*
X53412518Y-69550185D01*
X53427718Y-69567727D01*
X53446057Y-69581973D01*
X53450173Y-69593641D01*
X53458273Y-69602989D01*
X53461577Y-69625967D01*
X53469301Y-69647863D01*
X53466456Y-69659901D01*
X53468217Y-69672147D01*
X53458571Y-69693267D01*
X53453233Y-69715860D01*
X53444331Y-69724449D01*
X53439192Y-69735703D01*
X53419661Y-69748254D01*
X53402954Y-69764376D01*
X53384380Y-69770927D01*
X53380414Y-69773477D01*
X53369670Y-69776117D01*
X53307090Y-69788565D01*
X53307089Y-69788565D01*
X53293631Y-69791242D01*
X53280173Y-69793919D01*
X53280171Y-69793920D01*
X53227366Y-69815792D01*
X53227364Y-69815793D01*
X53227363Y-69815792D01*
X53152691Y-69846723D01*
X53056666Y-69910886D01*
X53037960Y-69923384D01*
X53037954Y-69923389D01*
X52287888Y-70673453D01*
X52287887Y-70673454D01*
X52211222Y-70788192D01*
X52158421Y-70915667D01*
X52158418Y-70915677D01*
X52131500Y-71051003D01*
X52131500Y-71051006D01*
X52131500Y-71188994D01*
X52131500Y-71188996D01*
X52131499Y-71188996D01*
X52158418Y-71324322D01*
X52158421Y-71324332D01*
X52211222Y-71451807D01*
X52287887Y-71566545D01*
X52385454Y-71664112D01*
X52500192Y-71740777D01*
X52627667Y-71793578D01*
X52627672Y-71793580D01*
X52627676Y-71793580D01*
X52627677Y-71793581D01*
X52763003Y-71820500D01*
X52763006Y-71820500D01*
X52900996Y-71820500D01*
X52992040Y-71802389D01*
X53036328Y-71793580D01*
X53148568Y-71747089D01*
X53163807Y-71740777D01*
X53163808Y-71740776D01*
X53163811Y-71740775D01*
X53278543Y-71664114D01*
X53382819Y-71559837D01*
X53444141Y-71526353D01*
X53513833Y-71531337D01*
X53569767Y-71573208D01*
X53594184Y-71638672D01*
X53594500Y-71647519D01*
X53594500Y-72538481D01*
X53574815Y-72605520D01*
X53558181Y-72626162D01*
X53026162Y-73158181D01*
X52964839Y-73191666D01*
X52938481Y-73194500D01*
X51825730Y-73194500D01*
X51795300Y-73197353D01*
X51795298Y-73197353D01*
X51667119Y-73242206D01*
X51667117Y-73242207D01*
X51557850Y-73322850D01*
X51477207Y-73432117D01*
X51477206Y-73432119D01*
X51432353Y-73560298D01*
X51432353Y-73560300D01*
X51429500Y-73590730D01*
X51429500Y-74999269D01*
X51432353Y-75029699D01*
X51432353Y-75029700D01*
X51432650Y-75030547D01*
X51432683Y-75031212D01*
X51433964Y-75037073D01*
X51432993Y-75037284D01*
X51436211Y-75100326D01*
X51401481Y-75160953D01*
X51339487Y-75193179D01*
X51315608Y-75195500D01*
X48662519Y-75195500D01*
X48595480Y-75175815D01*
X48574838Y-75159181D01*
X48206819Y-74791162D01*
X48173334Y-74729839D01*
X48170500Y-74703481D01*
X48170500Y-73590730D01*
X48167646Y-73560300D01*
X48167646Y-73560298D01*
X48122793Y-73432119D01*
X48122792Y-73432117D01*
X48122790Y-73432114D01*
X48042150Y-73322850D01*
X47932882Y-73242207D01*
X47932880Y-73242206D01*
X47804700Y-73197353D01*
X47774270Y-73194500D01*
X47774266Y-73194500D01*
X47312518Y-73194500D01*
X47283077Y-73185855D01*
X47253091Y-73179332D01*
X47248075Y-73175577D01*
X47245479Y-73174815D01*
X47224837Y-73158181D01*
X47166542Y-73099886D01*
X45277546Y-71210888D01*
X45277545Y-71210887D01*
X45162807Y-71134222D01*
X45035332Y-71081421D01*
X45035322Y-71081418D01*
X44899996Y-71054500D01*
X44899994Y-71054500D01*
X44762006Y-71054500D01*
X44762004Y-71054500D01*
X44626677Y-71081418D01*
X44626667Y-71081421D01*
X44499192Y-71134222D01*
X44384454Y-71210887D01*
X44384453Y-71210888D01*
X44362181Y-71233161D01*
X44300858Y-71266646D01*
X44231166Y-71261662D01*
X44175233Y-71219790D01*
X44150816Y-71154326D01*
X44150500Y-71145480D01*
X44150500Y-70386004D01*
X44123581Y-70250677D01*
X44123580Y-70250676D01*
X44123580Y-70250672D01*
X44123578Y-70250667D01*
X44070778Y-70123195D01*
X44070771Y-70123182D01*
X43994114Y-70008458D01*
X43994111Y-70008454D01*
X43986819Y-70001162D01*
X43953334Y-69939839D01*
X43950500Y-69913481D01*
X43950500Y-69834239D01*
X43940573Y-69766108D01*
X43940573Y-69766107D01*
X43889198Y-69661017D01*
X43889196Y-69661015D01*
X43889196Y-69661014D01*
X43806485Y-69578303D01*
X43804441Y-69577304D01*
X43701393Y-69526927D01*
X43701391Y-69526926D01*
X43633261Y-69517000D01*
X43633260Y-69517000D01*
X43266740Y-69517000D01*
X43266739Y-69517000D01*
X43198608Y-69526926D01*
X43093514Y-69578303D01*
X43010803Y-69661014D01*
X42958903Y-69767179D01*
X42912021Y-69818612D01*
X42903822Y-69823607D01*
X42878189Y-69834225D01*
X42795465Y-69889500D01*
X42793310Y-69890940D01*
X42763454Y-69910888D01*
X41681181Y-70993161D01*
X41619858Y-71026646D01*
X41550166Y-71021662D01*
X41494233Y-70979790D01*
X41469816Y-70914326D01*
X41469500Y-70905480D01*
X41469500Y-65736000D01*
X41489185Y-65668961D01*
X41541989Y-65623206D01*
X41593500Y-65612000D01*
X42168000Y-65612000D01*
X42168000Y-64695012D01*
X42225007Y-64727925D01*
X42352174Y-64762000D01*
X42483826Y-64762000D01*
X42610993Y-64727925D01*
X42668000Y-64695012D01*
X42668000Y-65612000D01*
X43315828Y-65612000D01*
X43315844Y-65611999D01*
X43375372Y-65605598D01*
X43375379Y-65605596D01*
X43510086Y-65555354D01*
X43510093Y-65555350D01*
X43625187Y-65469190D01*
X43625190Y-65469187D01*
X43711350Y-65354093D01*
X43711354Y-65354086D01*
X43761596Y-65219379D01*
X43761598Y-65219372D01*
X43767999Y-65159844D01*
X43768000Y-65159827D01*
X43768000Y-64512000D01*
X42851012Y-64512000D01*
X42883925Y-64454993D01*
X42918000Y-64327826D01*
X42918000Y-64196174D01*
X42883925Y-64069007D01*
X42851012Y-64012000D01*
X43768000Y-64012000D01*
X43768000Y-63364172D01*
X43767999Y-63364155D01*
X43761598Y-63304627D01*
X43761596Y-63304620D01*
X43711354Y-63169913D01*
X43711350Y-63169906D01*
X43625190Y-63054812D01*
X43625187Y-63054809D01*
X43510093Y-62968649D01*
X43510086Y-62968645D01*
X43375379Y-62918403D01*
X43375372Y-62918401D01*
X43315844Y-62912000D01*
X42913565Y-62912000D01*
X42846526Y-62892315D01*
X42800771Y-62839511D01*
X42790827Y-62770353D01*
X42819852Y-62706797D01*
X42866112Y-62673439D01*
X42876534Y-62669122D01*
X42915598Y-62652941D01*
X43087655Y-62537977D01*
X43233977Y-62391655D01*
X43348941Y-62219598D01*
X43428130Y-62028420D01*
X43468500Y-61825465D01*
X43468500Y-61618535D01*
X43444530Y-61498027D01*
X43450757Y-61428436D01*
X43493620Y-61373258D01*
X43559510Y-61350014D01*
X43627507Y-61366082D01*
G37*
%TD.AperFunction*%
%TA.AperFunction,Conductor*%
G36*
X48654909Y-57145519D02*
G01*
X48662383Y-57145686D01*
X48685542Y-57161311D01*
X48710370Y-57174110D01*
X48712482Y-57176173D01*
X50438181Y-58901872D01*
X50471666Y-58963195D01*
X50474500Y-58989553D01*
X50474500Y-60975500D01*
X50454815Y-61042539D01*
X50402011Y-61088294D01*
X50350500Y-61099500D01*
X50120730Y-61099500D01*
X50090300Y-61102353D01*
X50090298Y-61102353D01*
X49962119Y-61147206D01*
X49962117Y-61147207D01*
X49852850Y-61227850D01*
X49772207Y-61337117D01*
X49772206Y-61337119D01*
X49727353Y-61465298D01*
X49727353Y-61465300D01*
X49724500Y-61495730D01*
X49724500Y-62404269D01*
X49727353Y-62434699D01*
X49727353Y-62434701D01*
X49771697Y-62561424D01*
X49772207Y-62562882D01*
X49852850Y-62672150D01*
X49962118Y-62752793D01*
X50004845Y-62767744D01*
X50090299Y-62797646D01*
X50120730Y-62800500D01*
X50120734Y-62800500D01*
X51479270Y-62800500D01*
X51509699Y-62797646D01*
X51509701Y-62797646D01*
X51587698Y-62770353D01*
X51637882Y-62752793D01*
X51747150Y-62672150D01*
X51754729Y-62661879D01*
X51810375Y-62619629D01*
X51880031Y-62614169D01*
X51941581Y-62647235D01*
X51975484Y-62708328D01*
X51978500Y-62735512D01*
X51978500Y-64264487D01*
X51958815Y-64331526D01*
X51906011Y-64377281D01*
X51836853Y-64387225D01*
X51773297Y-64358200D01*
X51754730Y-64338121D01*
X51750614Y-64332544D01*
X51747150Y-64327850D01*
X51637882Y-64247207D01*
X51637880Y-64247206D01*
X51509700Y-64202353D01*
X51479270Y-64199500D01*
X51479266Y-64199500D01*
X50120734Y-64199500D01*
X50120730Y-64199500D01*
X50090300Y-64202353D01*
X50090298Y-64202353D01*
X49962119Y-64247206D01*
X49962117Y-64247207D01*
X49852850Y-64327850D01*
X49772207Y-64437117D01*
X49772206Y-64437119D01*
X49727353Y-64565298D01*
X49727353Y-64565300D01*
X49724500Y-64595730D01*
X49724500Y-64600500D01*
X49721949Y-64609185D01*
X49723238Y-64618147D01*
X49712259Y-64642187D01*
X49704815Y-64667539D01*
X49697974Y-64673466D01*
X49694213Y-64681703D01*
X49671978Y-64695992D01*
X49652011Y-64713294D01*
X49641496Y-64715581D01*
X49635435Y-64719477D01*
X49600500Y-64724500D01*
X49459500Y-64724500D01*
X49392461Y-64704815D01*
X49346706Y-64652011D01*
X49335500Y-64600500D01*
X49335500Y-64595730D01*
X49332646Y-64565300D01*
X49332646Y-64565298D01*
X49299006Y-64469163D01*
X49287793Y-64437118D01*
X49207150Y-64327850D01*
X49097882Y-64247207D01*
X49097880Y-64247206D01*
X48969700Y-64202353D01*
X48939270Y-64199500D01*
X48939266Y-64199500D01*
X48455500Y-64199500D01*
X48446814Y-64196949D01*
X48437853Y-64198238D01*
X48413812Y-64187259D01*
X48388461Y-64179815D01*
X48382533Y-64172974D01*
X48374297Y-64169213D01*
X48360007Y-64146978D01*
X48342706Y-64127011D01*
X48340418Y-64116496D01*
X48336523Y-64110435D01*
X48331500Y-64075500D01*
X48331500Y-64074830D01*
X48351185Y-64007791D01*
X48370022Y-63987320D01*
X48368969Y-63986267D01*
X48404970Y-63950266D01*
X48486520Y-63868716D01*
X48565577Y-63731784D01*
X48606500Y-63579057D01*
X48606500Y-63420943D01*
X48565577Y-63268216D01*
X48565573Y-63268209D01*
X48486524Y-63131290D01*
X48486518Y-63131282D01*
X48368969Y-63013733D01*
X48370987Y-63011714D01*
X48337933Y-62966431D01*
X48333788Y-62896684D01*
X48368009Y-62835769D01*
X48429731Y-62803025D01*
X48454628Y-62800500D01*
X48939270Y-62800500D01*
X48969699Y-62797646D01*
X48969701Y-62797646D01*
X49047698Y-62770353D01*
X49097882Y-62752793D01*
X49207150Y-62672150D01*
X49287793Y-62562882D01*
X49318785Y-62474311D01*
X49332646Y-62434701D01*
X49332646Y-62434699D01*
X49335500Y-62404269D01*
X49335500Y-61495730D01*
X49332646Y-61465300D01*
X49332646Y-61465298D01*
X49291936Y-61348959D01*
X49287793Y-61337118D01*
X49207150Y-61227850D01*
X49097882Y-61147207D01*
X49097880Y-61147206D01*
X48969700Y-61102353D01*
X48939270Y-61099500D01*
X48939266Y-61099500D01*
X48709500Y-61099500D01*
X48642461Y-61079815D01*
X48596706Y-61027011D01*
X48585500Y-60975500D01*
X48585500Y-57488148D01*
X48585500Y-57488147D01*
X48581917Y-57474774D01*
X48563318Y-57405361D01*
X48520465Y-57331138D01*
X48517464Y-57328137D01*
X48510885Y-57312835D01*
X48507528Y-57285104D01*
X48500941Y-57257955D01*
X48503386Y-57250890D01*
X48502488Y-57243471D01*
X48514655Y-57218327D01*
X48523793Y-57191928D01*
X48529668Y-57187307D01*
X48532924Y-57180580D01*
X48556754Y-57166006D01*
X48578714Y-57148737D01*
X48586154Y-57148026D01*
X48592531Y-57144127D01*
X48620460Y-57144750D01*
X48648267Y-57142095D01*
X48654909Y-57145519D01*
G37*
%TD.AperFunction*%
%TA.AperFunction,Conductor*%
G36*
X44631850Y-54367185D02*
G01*
X44652492Y-54383819D01*
X46734370Y-56465696D01*
X46767855Y-56527019D01*
X46769018Y-56554816D01*
X46770500Y-56554816D01*
X46770500Y-56721056D01*
X46811423Y-56873783D01*
X46811426Y-56873790D01*
X46890475Y-57010709D01*
X46890479Y-57010714D01*
X46890480Y-57010716D01*
X47002284Y-57122520D01*
X47002286Y-57122521D01*
X47002290Y-57122524D01*
X47114499Y-57187307D01*
X47139216Y-57201577D01*
X47291943Y-57242500D01*
X47291945Y-57242500D01*
X47458185Y-57242500D01*
X47458185Y-57245683D01*
X47512398Y-57254102D01*
X47547302Y-57278629D01*
X47898181Y-57629508D01*
X47931666Y-57690831D01*
X47934500Y-57717189D01*
X47934500Y-60975500D01*
X47914815Y-61042539D01*
X47862011Y-61088294D01*
X47810500Y-61099500D01*
X47580730Y-61099500D01*
X47550300Y-61102353D01*
X47550298Y-61102353D01*
X47422119Y-61147206D01*
X47422117Y-61147207D01*
X47380546Y-61177888D01*
X47312850Y-61227850D01*
X47310611Y-61230884D01*
X47258677Y-61301252D01*
X47203029Y-61343502D01*
X47133372Y-61348959D01*
X47071823Y-61315892D01*
X47041201Y-61266619D01*
X47029360Y-61230884D01*
X47029356Y-61230875D01*
X46937315Y-61081654D01*
X46813345Y-60957684D01*
X46664124Y-60865643D01*
X46664119Y-60865641D01*
X46497697Y-60810494D01*
X46497690Y-60810493D01*
X46394986Y-60800000D01*
X45970000Y-60800000D01*
X45970000Y-63099999D01*
X46394972Y-63099999D01*
X46394986Y-63099998D01*
X46497697Y-63089505D01*
X46664119Y-63034358D01*
X46664124Y-63034356D01*
X46813345Y-62942315D01*
X46937315Y-62818345D01*
X47029356Y-62669124D01*
X47029356Y-62669122D01*
X47041200Y-62633380D01*
X47080972Y-62575935D01*
X47145487Y-62549110D01*
X47214263Y-62561424D01*
X47258677Y-62598748D01*
X47312850Y-62672150D01*
X47422118Y-62752793D01*
X47453063Y-62763621D01*
X47550295Y-62797645D01*
X47550299Y-62797645D01*
X47550301Y-62797646D01*
X47570862Y-62799574D01*
X47635768Y-62825430D01*
X47676394Y-62882274D01*
X47679839Y-62952059D01*
X47645008Y-63012628D01*
X47638876Y-63017887D01*
X47525481Y-63131282D01*
X47525475Y-63131290D01*
X47446426Y-63268209D01*
X47446423Y-63268216D01*
X47405500Y-63420943D01*
X47405500Y-63579057D01*
X47445628Y-63728815D01*
X47446423Y-63731783D01*
X47446426Y-63731790D01*
X47525475Y-63868709D01*
X47525481Y-63868717D01*
X47643031Y-63986267D01*
X47641802Y-63987495D01*
X47654674Y-64007524D01*
X47673179Y-64032855D01*
X47674008Y-64037609D01*
X47675477Y-64039895D01*
X47680500Y-64074830D01*
X47680500Y-64077228D01*
X47660815Y-64144267D01*
X47608011Y-64190022D01*
X47568080Y-64200686D01*
X47550299Y-64202353D01*
X47550298Y-64202353D01*
X47422119Y-64247206D01*
X47422113Y-64247209D01*
X47394014Y-64267948D01*
X47328385Y-64291919D01*
X47260215Y-64276603D01*
X47232700Y-64255859D01*
X46790378Y-63813537D01*
X46790376Y-63813535D01*
X46753264Y-63792108D01*
X46716154Y-63770682D01*
X46674760Y-63759591D01*
X46633367Y-63748500D01*
X46633366Y-63748500D01*
X46183675Y-63748500D01*
X46116636Y-63728815D01*
X46095994Y-63712181D01*
X45506319Y-63122506D01*
X45472834Y-63061183D01*
X45470000Y-63034825D01*
X45470000Y-60800000D01*
X45045028Y-60800000D01*
X45045012Y-60800001D01*
X44942302Y-60810494D01*
X44775880Y-60865641D01*
X44775875Y-60865643D01*
X44626654Y-60957684D01*
X44502683Y-61081655D01*
X44502681Y-61081658D01*
X44496234Y-61092110D01*
X44444284Y-61138832D01*
X44375321Y-61150052D01*
X44311240Y-61122206D01*
X44303017Y-61114690D01*
X41162508Y-57974181D01*
X41129023Y-57912858D01*
X41134007Y-57843166D01*
X41175879Y-57787233D01*
X41241343Y-57762816D01*
X41250189Y-57762500D01*
X43035249Y-57762500D01*
X43035252Y-57762500D01*
X43105832Y-57756086D01*
X43268242Y-57705478D01*
X43413821Y-57617472D01*
X43534108Y-57497185D01*
X43622114Y-57351606D01*
X43672722Y-57189196D01*
X43679136Y-57118616D01*
X43679136Y-56005384D01*
X43672722Y-55934804D01*
X43622114Y-55772394D01*
X43534108Y-55626815D01*
X43534106Y-55626813D01*
X43534105Y-55626811D01*
X43413824Y-55506530D01*
X43413821Y-55506528D01*
X43268242Y-55418522D01*
X43242129Y-55410385D01*
X43183982Y-55371648D01*
X43156008Y-55307623D01*
X43167089Y-55238638D01*
X43213708Y-55186595D01*
X43242128Y-55173615D01*
X43268242Y-55165478D01*
X43413821Y-55077472D01*
X43534108Y-54957185D01*
X43622114Y-54811606D01*
X43672722Y-54649196D01*
X43679136Y-54578616D01*
X43679136Y-54471500D01*
X43698821Y-54404461D01*
X43751625Y-54358706D01*
X43803136Y-54347500D01*
X44564811Y-54347500D01*
X44631850Y-54367185D01*
G37*
%TD.AperFunction*%
%TA.AperFunction,Conductor*%
G36*
X48181924Y-55373251D02*
G01*
X51942181Y-59133508D01*
X51975666Y-59194831D01*
X51978500Y-59221189D01*
X51978500Y-61164487D01*
X51958815Y-61231526D01*
X51906011Y-61277281D01*
X51836853Y-61287225D01*
X51773297Y-61258200D01*
X51754730Y-61238121D01*
X51753548Y-61236519D01*
X51747150Y-61227850D01*
X51637882Y-61147207D01*
X51637880Y-61147206D01*
X51509700Y-61102353D01*
X51479270Y-61099500D01*
X51479266Y-61099500D01*
X51249500Y-61099500D01*
X51182461Y-61079815D01*
X51136706Y-61027011D01*
X51125500Y-60975500D01*
X51125500Y-58760513D01*
X51125500Y-58760511D01*
X51103318Y-58677726D01*
X51103318Y-58677725D01*
X51060465Y-58603502D01*
X48006447Y-55549484D01*
X48004609Y-55546118D01*
X48001357Y-55544081D01*
X47987993Y-55515688D01*
X47972962Y-55488161D01*
X47972761Y-55483327D01*
X47971602Y-55480864D01*
X47971195Y-55445572D01*
X47971310Y-55444701D01*
X47999600Y-55380815D01*
X48057939Y-55342365D01*
X48127804Y-55341560D01*
X48181924Y-55373251D01*
G37*
%TD.AperFunction*%
%TD*%
M02*
