M48
; DRILL file {KiCad 9.0.1} date 2025-05-22T11:03:52-0400
; FORMAT={-:-/ absolute / inch / decimal}
; #@! TF.CreationDate,2025-05-22T11:03:52-04:00
; #@! TF.GenerationSoftware,Kicad,Pcbnew,9.0.1
; #@! TF.FileFunction,Plated,1,2,PTH
FMAT,2
INCH
; #@! TA.AperFunction,Plated,PTH,ViaDrill
T1C0.0157
; #@! TA.AperFunction,Plated,PTH,ComponentDrill
T2C0.0394
%
G90
G05
T1
X1.66Y-2.815
X1.745Y-2.515
X1.765Y-2.825
X1.77Y-2.325
X1.78Y-2.095
X1.865Y-2.18
X1.865Y-2.23
X1.89Y-2.5
X1.91Y-1.95
X1.945Y-2.33
X1.95Y-2.5
X1.975Y-1.835
X1.985Y-2.005
X1.985Y-2.165
X2.015Y-2.215
X2.03Y-2.375
X2.08Y-2.8
X2.1Y-1.6
X2.1106Y-2.2016
X2.115Y-1.945
X2.115Y-2.055
X2.16Y-1.91
X2.1849Y-2.81
X2.1855Y-1.6482
X2.19Y-2.035
X2.2Y-1.8
X2.24Y-2.305
X2.3012Y-2.0352
X2.3251Y-1.9036
X2.3298Y-2.1269
X2.355Y-2.38
T2
X1.67Y-2.43
X1.67Y-2.53
M30
