%TF.GenerationSoftware,KiCad,Pcbnew,9.0.1*%
%TF.CreationDate,2025-05-22T11:03:56-04:00*%
%TF.ProjectId,Pneumatactors_1Xiao_PiezoPumps_2Valves,506e6575-6d61-4746-9163-746f72735f31,rev?*%
%TF.SameCoordinates,Original*%
%TF.FileFunction,Soldermask,Top*%
%TF.FilePolarity,Negative*%
%FSLAX46Y46*%
G04 Gerber Fmt 4.6, Leading zero omitted, Abs format (unit mm)*
G04 Created by KiCad (PCBNEW 9.0.1) date 2025-05-22 11:03:56*
%MOMM*%
%LPD*%
G01*
G04 APERTURE LIST*
G04 Aperture macros list*
%AMRoundRect*
0 Rectangle with rounded corners*
0 $1 Rounding radius*
0 $2 $3 $4 $5 $6 $7 $8 $9 X,Y pos of 4 corners*
0 Add a 4 corners polygon primitive as box body*
4,1,4,$2,$3,$4,$5,$6,$7,$8,$9,$2,$3,0*
0 Add four circle primitives for the rounded corners*
1,1,$1+$1,$2,$3*
1,1,$1+$1,$4,$5*
1,1,$1+$1,$6,$7*
1,1,$1+$1,$8,$9*
0 Add four rect primitives between the rounded corners*
20,1,$1+$1,$2,$3,$4,$5,0*
20,1,$1+$1,$4,$5,$6,$7,0*
20,1,$1+$1,$6,$7,$8,$9,0*
20,1,$1+$1,$8,$9,$2,$3,0*%
G04 Aperture macros list end*
%ADD10RoundRect,0.250000X-0.625000X0.400000X-0.625000X-0.400000X0.625000X-0.400000X0.625000X0.400000X0*%
%ADD11RoundRect,0.250000X0.625000X-0.400000X0.625000X0.400000X-0.625000X0.400000X-0.625000X-0.400000X0*%
%ADD12RoundRect,0.250000X1.000000X0.650000X-1.000000X0.650000X-1.000000X-0.650000X1.000000X-0.650000X0*%
%ADD13RoundRect,0.150000X-0.150000X0.587500X-0.150000X-0.587500X0.150000X-0.587500X0.150000X0.587500X0*%
%ADD14C,1.700000*%
%ADD15RoundRect,0.300400X1.000400X0.300400X-1.000400X0.300400X-1.000400X-0.300400X1.000400X-0.300400X0*%
%ADD16RoundRect,0.525400X-0.900400X-0.525400X0.900400X-0.525400X0.900400X0.525400X-0.900400X0.525400X0*%
%ADD17R,1.700000X1.700000*%
G04 APERTURE END LIST*
D10*
%TO.C,R6*%
X48260000Y-65050000D03*
X48260000Y-61950000D03*
%TD*%
%TO.C,R1*%
X47260000Y-70130000D03*
X47260000Y-67030000D03*
%TD*%
D11*
%TO.C,R2*%
X57785000Y-67665000D03*
X57785000Y-70765000D03*
%TD*%
D12*
%TO.C,D2*%
X42720000Y-74295000D03*
X46720000Y-74295000D03*
%TD*%
D13*
%TO.C,Q1*%
X43450000Y-70455000D03*
X42500000Y-68580000D03*
X44400000Y-68580000D03*
%TD*%
D14*
%TO.C,U1*%
X51428636Y-47930000D03*
X48888636Y-47930000D03*
X51428636Y-45390000D03*
X48888636Y-45390000D03*
X51428636Y-42850000D03*
X48888636Y-42850000D03*
X51428636Y-40310000D03*
X48888636Y-40310000D03*
D15*
X45713636Y-46655000D03*
X45713636Y-48560000D03*
D16*
X58268636Y-41322000D03*
X58268636Y-43862000D03*
X58268636Y-46402000D03*
X58268636Y-48942000D03*
X58268636Y-51482000D03*
X58268636Y-54022000D03*
X58268636Y-56562000D03*
X42103636Y-56562000D03*
X42103636Y-54022000D03*
X42103636Y-51482000D03*
X42103636Y-48942000D03*
X42103636Y-46402000D03*
X42103636Y-43862000D03*
X42103636Y-41322000D03*
%TD*%
D12*
%TO.C,D1*%
X53880000Y-63246000D03*
X57880000Y-63246000D03*
%TD*%
D10*
%TO.C,R5*%
X50800000Y-65050000D03*
X50800000Y-61950000D03*
%TD*%
D11*
%TO.C,R3*%
X45720000Y-61950000D03*
X45720000Y-65050000D03*
%TD*%
D10*
%TO.C,R4*%
X49800000Y-70130000D03*
X49800000Y-67030000D03*
%TD*%
D13*
%TO.C,Q2*%
X54295000Y-70467500D03*
X53345000Y-68592500D03*
X55245000Y-68592500D03*
%TD*%
D12*
%TO.C,D3*%
X52880000Y-74295000D03*
X56880000Y-74295000D03*
%TD*%
D14*
%TO.C,J3*%
X42418000Y-61722000D03*
D17*
X42418000Y-64262000D03*
%TD*%
M02*
