%TF.GenerationSoftware,KiCad,Pcbnew,9.0.1*%
%TF.CreationDate,2025-05-22T11:03:56-04:00*%
%TF.ProjectId,Pneumatactors_1Xiao_PiezoPumps_2Valves,506e6575-6d61-4746-9163-746f72735f31,rev?*%
%TF.SameCoordinates,Original*%
%TF.FileFunction,Legend,Top*%
%TF.FilePolarity,Positive*%
%FSLAX46Y46*%
G04 Gerber Fmt 4.6, Leading zero omitted, Abs format (unit mm)*
G04 Created by KiCad (PCBNEW 9.0.1) date 2025-05-22 11:03:56*
%MOMM*%
%LPD*%
G01*
G04 APERTURE LIST*
%ADD10C,0.150000*%
%ADD11C,0.106680*%
%ADD12C,0.120000*%
%ADD13C,0.508000*%
%ADD14C,0.504000*%
%ADD15C,0.100000*%
%ADD16C,0.127000*%
G04 APERTURE END LIST*
D10*
X40540438Y-65531904D02*
X40492819Y-65627142D01*
X40492819Y-65627142D02*
X40492819Y-65769999D01*
X40492819Y-65769999D02*
X40540438Y-65912856D01*
X40540438Y-65912856D02*
X40635676Y-66008094D01*
X40635676Y-66008094D02*
X40730914Y-66055713D01*
X40730914Y-66055713D02*
X40921390Y-66103332D01*
X40921390Y-66103332D02*
X41064247Y-66103332D01*
X41064247Y-66103332D02*
X41254723Y-66055713D01*
X41254723Y-66055713D02*
X41349961Y-66008094D01*
X41349961Y-66008094D02*
X41445200Y-65912856D01*
X41445200Y-65912856D02*
X41492819Y-65769999D01*
X41492819Y-65769999D02*
X41492819Y-65674761D01*
X41492819Y-65674761D02*
X41445200Y-65531904D01*
X41445200Y-65531904D02*
X41397580Y-65484285D01*
X41397580Y-65484285D02*
X41064247Y-65484285D01*
X41064247Y-65484285D02*
X41064247Y-65674761D01*
X41492819Y-65055713D02*
X40492819Y-65055713D01*
X40492819Y-65055713D02*
X41492819Y-64484285D01*
X41492819Y-64484285D02*
X40492819Y-64484285D01*
X41492819Y-64008094D02*
X40492819Y-64008094D01*
X40492819Y-64008094D02*
X40492819Y-63769999D01*
X40492819Y-63769999D02*
X40540438Y-63627142D01*
X40540438Y-63627142D02*
X40635676Y-63531904D01*
X40635676Y-63531904D02*
X40730914Y-63484285D01*
X40730914Y-63484285D02*
X40921390Y-63436666D01*
X40921390Y-63436666D02*
X41064247Y-63436666D01*
X41064247Y-63436666D02*
X41254723Y-63484285D01*
X41254723Y-63484285D02*
X41349961Y-63531904D01*
X41349961Y-63531904D02*
X41445200Y-63627142D01*
X41445200Y-63627142D02*
X41492819Y-63769999D01*
X41492819Y-63769999D02*
X41492819Y-64008094D01*
X40492819Y-61150476D02*
X40492819Y-61626666D01*
X40492819Y-61626666D02*
X40969009Y-61674285D01*
X40969009Y-61674285D02*
X40921390Y-61626666D01*
X40921390Y-61626666D02*
X40873771Y-61531428D01*
X40873771Y-61531428D02*
X40873771Y-61293333D01*
X40873771Y-61293333D02*
X40921390Y-61198095D01*
X40921390Y-61198095D02*
X40969009Y-61150476D01*
X40969009Y-61150476D02*
X41064247Y-61102857D01*
X41064247Y-61102857D02*
X41302342Y-61102857D01*
X41302342Y-61102857D02*
X41397580Y-61150476D01*
X41397580Y-61150476D02*
X41445200Y-61198095D01*
X41445200Y-61198095D02*
X41492819Y-61293333D01*
X41492819Y-61293333D02*
X41492819Y-61531428D01*
X41492819Y-61531428D02*
X41445200Y-61626666D01*
X41445200Y-61626666D02*
X41397580Y-61674285D01*
X40492819Y-60817142D02*
X41492819Y-60483809D01*
X41492819Y-60483809D02*
X40492819Y-60150476D01*
X48093333Y-60779819D02*
X47760000Y-60303628D01*
X47521905Y-60779819D02*
X47521905Y-59779819D01*
X47521905Y-59779819D02*
X47902857Y-59779819D01*
X47902857Y-59779819D02*
X47998095Y-59827438D01*
X47998095Y-59827438D02*
X48045714Y-59875057D01*
X48045714Y-59875057D02*
X48093333Y-59970295D01*
X48093333Y-59970295D02*
X48093333Y-60113152D01*
X48093333Y-60113152D02*
X48045714Y-60208390D01*
X48045714Y-60208390D02*
X47998095Y-60256009D01*
X47998095Y-60256009D02*
X47902857Y-60303628D01*
X47902857Y-60303628D02*
X47521905Y-60303628D01*
X48950476Y-59779819D02*
X48760000Y-59779819D01*
X48760000Y-59779819D02*
X48664762Y-59827438D01*
X48664762Y-59827438D02*
X48617143Y-59875057D01*
X48617143Y-59875057D02*
X48521905Y-60017914D01*
X48521905Y-60017914D02*
X48474286Y-60208390D01*
X48474286Y-60208390D02*
X48474286Y-60589342D01*
X48474286Y-60589342D02*
X48521905Y-60684580D01*
X48521905Y-60684580D02*
X48569524Y-60732200D01*
X48569524Y-60732200D02*
X48664762Y-60779819D01*
X48664762Y-60779819D02*
X48855238Y-60779819D01*
X48855238Y-60779819D02*
X48950476Y-60732200D01*
X48950476Y-60732200D02*
X48998095Y-60684580D01*
X48998095Y-60684580D02*
X49045714Y-60589342D01*
X49045714Y-60589342D02*
X49045714Y-60351247D01*
X49045714Y-60351247D02*
X48998095Y-60256009D01*
X48998095Y-60256009D02*
X48950476Y-60208390D01*
X48950476Y-60208390D02*
X48855238Y-60160771D01*
X48855238Y-60160771D02*
X48664762Y-60160771D01*
X48664762Y-60160771D02*
X48569524Y-60208390D01*
X48569524Y-60208390D02*
X48521905Y-60256009D01*
X48521905Y-60256009D02*
X48474286Y-60351247D01*
X47109333Y-72209819D02*
X46776000Y-71733628D01*
X46537905Y-72209819D02*
X46537905Y-71209819D01*
X46537905Y-71209819D02*
X46918857Y-71209819D01*
X46918857Y-71209819D02*
X47014095Y-71257438D01*
X47014095Y-71257438D02*
X47061714Y-71305057D01*
X47061714Y-71305057D02*
X47109333Y-71400295D01*
X47109333Y-71400295D02*
X47109333Y-71543152D01*
X47109333Y-71543152D02*
X47061714Y-71638390D01*
X47061714Y-71638390D02*
X47014095Y-71686009D01*
X47014095Y-71686009D02*
X46918857Y-71733628D01*
X46918857Y-71733628D02*
X46537905Y-71733628D01*
X48061714Y-72209819D02*
X47490286Y-72209819D01*
X47776000Y-72209819D02*
X47776000Y-71209819D01*
X47776000Y-71209819D02*
X47680762Y-71352676D01*
X47680762Y-71352676D02*
X47585524Y-71447914D01*
X47585524Y-71447914D02*
X47490286Y-71495533D01*
X57618333Y-66494819D02*
X57285000Y-66018628D01*
X57046905Y-66494819D02*
X57046905Y-65494819D01*
X57046905Y-65494819D02*
X57427857Y-65494819D01*
X57427857Y-65494819D02*
X57523095Y-65542438D01*
X57523095Y-65542438D02*
X57570714Y-65590057D01*
X57570714Y-65590057D02*
X57618333Y-65685295D01*
X57618333Y-65685295D02*
X57618333Y-65828152D01*
X57618333Y-65828152D02*
X57570714Y-65923390D01*
X57570714Y-65923390D02*
X57523095Y-65971009D01*
X57523095Y-65971009D02*
X57427857Y-66018628D01*
X57427857Y-66018628D02*
X57046905Y-66018628D01*
X57999286Y-65590057D02*
X58046905Y-65542438D01*
X58046905Y-65542438D02*
X58142143Y-65494819D01*
X58142143Y-65494819D02*
X58380238Y-65494819D01*
X58380238Y-65494819D02*
X58475476Y-65542438D01*
X58475476Y-65542438D02*
X58523095Y-65590057D01*
X58523095Y-65590057D02*
X58570714Y-65685295D01*
X58570714Y-65685295D02*
X58570714Y-65780533D01*
X58570714Y-65780533D02*
X58523095Y-65923390D01*
X58523095Y-65923390D02*
X57951667Y-66494819D01*
X57951667Y-66494819D02*
X58570714Y-66494819D01*
X43981905Y-77249819D02*
X43981905Y-76249819D01*
X43981905Y-76249819D02*
X44220000Y-76249819D01*
X44220000Y-76249819D02*
X44362857Y-76297438D01*
X44362857Y-76297438D02*
X44458095Y-76392676D01*
X44458095Y-76392676D02*
X44505714Y-76487914D01*
X44505714Y-76487914D02*
X44553333Y-76678390D01*
X44553333Y-76678390D02*
X44553333Y-76821247D01*
X44553333Y-76821247D02*
X44505714Y-77011723D01*
X44505714Y-77011723D02*
X44458095Y-77106961D01*
X44458095Y-77106961D02*
X44362857Y-77202200D01*
X44362857Y-77202200D02*
X44220000Y-77249819D01*
X44220000Y-77249819D02*
X43981905Y-77249819D01*
X44934286Y-76345057D02*
X44981905Y-76297438D01*
X44981905Y-76297438D02*
X45077143Y-76249819D01*
X45077143Y-76249819D02*
X45315238Y-76249819D01*
X45315238Y-76249819D02*
X45410476Y-76297438D01*
X45410476Y-76297438D02*
X45458095Y-76345057D01*
X45458095Y-76345057D02*
X45505714Y-76440295D01*
X45505714Y-76440295D02*
X45505714Y-76535533D01*
X45505714Y-76535533D02*
X45458095Y-76678390D01*
X45458095Y-76678390D02*
X44886667Y-77249819D01*
X44886667Y-77249819D02*
X45505714Y-77249819D01*
X41444057Y-69612738D02*
X41396438Y-69707976D01*
X41396438Y-69707976D02*
X41301200Y-69803214D01*
X41301200Y-69803214D02*
X41158342Y-69946071D01*
X41158342Y-69946071D02*
X41110723Y-70041309D01*
X41110723Y-70041309D02*
X41110723Y-70136547D01*
X41348819Y-70088928D02*
X41301200Y-70184166D01*
X41301200Y-70184166D02*
X41205961Y-70279404D01*
X41205961Y-70279404D02*
X41015485Y-70327023D01*
X41015485Y-70327023D02*
X40682152Y-70327023D01*
X40682152Y-70327023D02*
X40491676Y-70279404D01*
X40491676Y-70279404D02*
X40396438Y-70184166D01*
X40396438Y-70184166D02*
X40348819Y-70088928D01*
X40348819Y-70088928D02*
X40348819Y-69898452D01*
X40348819Y-69898452D02*
X40396438Y-69803214D01*
X40396438Y-69803214D02*
X40491676Y-69707976D01*
X40491676Y-69707976D02*
X40682152Y-69660357D01*
X40682152Y-69660357D02*
X41015485Y-69660357D01*
X41015485Y-69660357D02*
X41205961Y-69707976D01*
X41205961Y-69707976D02*
X41301200Y-69803214D01*
X41301200Y-69803214D02*
X41348819Y-69898452D01*
X41348819Y-69898452D02*
X41348819Y-70088928D01*
X41348819Y-68707976D02*
X41348819Y-69279404D01*
X41348819Y-68993690D02*
X40348819Y-68993690D01*
X40348819Y-68993690D02*
X40491676Y-69088928D01*
X40491676Y-69088928D02*
X40586914Y-69184166D01*
X40586914Y-69184166D02*
X40634533Y-69279404D01*
D11*
X41421450Y-36511391D02*
X41421450Y-37144698D01*
X41421450Y-37144698D02*
X41458704Y-37219204D01*
X41458704Y-37219204D02*
X41495957Y-37256458D01*
X41495957Y-37256458D02*
X41570464Y-37293711D01*
X41570464Y-37293711D02*
X41719477Y-37293711D01*
X41719477Y-37293711D02*
X41793984Y-37256458D01*
X41793984Y-37256458D02*
X41831237Y-37219204D01*
X41831237Y-37219204D02*
X41868490Y-37144698D01*
X41868490Y-37144698D02*
X41868490Y-36511391D01*
X42650810Y-37293711D02*
X42203770Y-37293711D01*
X42427290Y-37293711D02*
X42427290Y-36511391D01*
X42427290Y-36511391D02*
X42352783Y-36623151D01*
X42352783Y-36623151D02*
X42278277Y-36697658D01*
X42278277Y-36697658D02*
X42203770Y-36734911D01*
D10*
X55141905Y-61160819D02*
X55141905Y-60160819D01*
X55141905Y-60160819D02*
X55380000Y-60160819D01*
X55380000Y-60160819D02*
X55522857Y-60208438D01*
X55522857Y-60208438D02*
X55618095Y-60303676D01*
X55618095Y-60303676D02*
X55665714Y-60398914D01*
X55665714Y-60398914D02*
X55713333Y-60589390D01*
X55713333Y-60589390D02*
X55713333Y-60732247D01*
X55713333Y-60732247D02*
X55665714Y-60922723D01*
X55665714Y-60922723D02*
X55618095Y-61017961D01*
X55618095Y-61017961D02*
X55522857Y-61113200D01*
X55522857Y-61113200D02*
X55380000Y-61160819D01*
X55380000Y-61160819D02*
X55141905Y-61160819D01*
X56665714Y-61160819D02*
X56094286Y-61160819D01*
X56380000Y-61160819D02*
X56380000Y-60160819D01*
X56380000Y-60160819D02*
X56284762Y-60303676D01*
X56284762Y-60303676D02*
X56189524Y-60398914D01*
X56189524Y-60398914D02*
X56094286Y-60446533D01*
X50633333Y-60779819D02*
X50300000Y-60303628D01*
X50061905Y-60779819D02*
X50061905Y-59779819D01*
X50061905Y-59779819D02*
X50442857Y-59779819D01*
X50442857Y-59779819D02*
X50538095Y-59827438D01*
X50538095Y-59827438D02*
X50585714Y-59875057D01*
X50585714Y-59875057D02*
X50633333Y-59970295D01*
X50633333Y-59970295D02*
X50633333Y-60113152D01*
X50633333Y-60113152D02*
X50585714Y-60208390D01*
X50585714Y-60208390D02*
X50538095Y-60256009D01*
X50538095Y-60256009D02*
X50442857Y-60303628D01*
X50442857Y-60303628D02*
X50061905Y-60303628D01*
X51538095Y-59779819D02*
X51061905Y-59779819D01*
X51061905Y-59779819D02*
X51014286Y-60256009D01*
X51014286Y-60256009D02*
X51061905Y-60208390D01*
X51061905Y-60208390D02*
X51157143Y-60160771D01*
X51157143Y-60160771D02*
X51395238Y-60160771D01*
X51395238Y-60160771D02*
X51490476Y-60208390D01*
X51490476Y-60208390D02*
X51538095Y-60256009D01*
X51538095Y-60256009D02*
X51585714Y-60351247D01*
X51585714Y-60351247D02*
X51585714Y-60589342D01*
X51585714Y-60589342D02*
X51538095Y-60684580D01*
X51538095Y-60684580D02*
X51490476Y-60732200D01*
X51490476Y-60732200D02*
X51395238Y-60779819D01*
X51395238Y-60779819D02*
X51157143Y-60779819D01*
X51157143Y-60779819D02*
X51061905Y-60732200D01*
X51061905Y-60732200D02*
X51014286Y-60684580D01*
X45553333Y-60779819D02*
X45220000Y-60303628D01*
X44981905Y-60779819D02*
X44981905Y-59779819D01*
X44981905Y-59779819D02*
X45362857Y-59779819D01*
X45362857Y-59779819D02*
X45458095Y-59827438D01*
X45458095Y-59827438D02*
X45505714Y-59875057D01*
X45505714Y-59875057D02*
X45553333Y-59970295D01*
X45553333Y-59970295D02*
X45553333Y-60113152D01*
X45553333Y-60113152D02*
X45505714Y-60208390D01*
X45505714Y-60208390D02*
X45458095Y-60256009D01*
X45458095Y-60256009D02*
X45362857Y-60303628D01*
X45362857Y-60303628D02*
X44981905Y-60303628D01*
X45886667Y-59779819D02*
X46505714Y-59779819D01*
X46505714Y-59779819D02*
X46172381Y-60160771D01*
X46172381Y-60160771D02*
X46315238Y-60160771D01*
X46315238Y-60160771D02*
X46410476Y-60208390D01*
X46410476Y-60208390D02*
X46458095Y-60256009D01*
X46458095Y-60256009D02*
X46505714Y-60351247D01*
X46505714Y-60351247D02*
X46505714Y-60589342D01*
X46505714Y-60589342D02*
X46458095Y-60684580D01*
X46458095Y-60684580D02*
X46410476Y-60732200D01*
X46410476Y-60732200D02*
X46315238Y-60779819D01*
X46315238Y-60779819D02*
X46029524Y-60779819D01*
X46029524Y-60779819D02*
X45934286Y-60732200D01*
X45934286Y-60732200D02*
X45886667Y-60684580D01*
X49617333Y-72209819D02*
X49284000Y-71733628D01*
X49045905Y-72209819D02*
X49045905Y-71209819D01*
X49045905Y-71209819D02*
X49426857Y-71209819D01*
X49426857Y-71209819D02*
X49522095Y-71257438D01*
X49522095Y-71257438D02*
X49569714Y-71305057D01*
X49569714Y-71305057D02*
X49617333Y-71400295D01*
X49617333Y-71400295D02*
X49617333Y-71543152D01*
X49617333Y-71543152D02*
X49569714Y-71638390D01*
X49569714Y-71638390D02*
X49522095Y-71686009D01*
X49522095Y-71686009D02*
X49426857Y-71733628D01*
X49426857Y-71733628D02*
X49045905Y-71733628D01*
X50474476Y-71543152D02*
X50474476Y-72209819D01*
X50236381Y-71162200D02*
X49998286Y-71876485D01*
X49998286Y-71876485D02*
X50617333Y-71876485D01*
X52366057Y-69691238D02*
X52318438Y-69786476D01*
X52318438Y-69786476D02*
X52223200Y-69881714D01*
X52223200Y-69881714D02*
X52080342Y-70024571D01*
X52080342Y-70024571D02*
X52032723Y-70119809D01*
X52032723Y-70119809D02*
X52032723Y-70215047D01*
X52270819Y-70167428D02*
X52223200Y-70262666D01*
X52223200Y-70262666D02*
X52127961Y-70357904D01*
X52127961Y-70357904D02*
X51937485Y-70405523D01*
X51937485Y-70405523D02*
X51604152Y-70405523D01*
X51604152Y-70405523D02*
X51413676Y-70357904D01*
X51413676Y-70357904D02*
X51318438Y-70262666D01*
X51318438Y-70262666D02*
X51270819Y-70167428D01*
X51270819Y-70167428D02*
X51270819Y-69976952D01*
X51270819Y-69976952D02*
X51318438Y-69881714D01*
X51318438Y-69881714D02*
X51413676Y-69786476D01*
X51413676Y-69786476D02*
X51604152Y-69738857D01*
X51604152Y-69738857D02*
X51937485Y-69738857D01*
X51937485Y-69738857D02*
X52127961Y-69786476D01*
X52127961Y-69786476D02*
X52223200Y-69881714D01*
X52223200Y-69881714D02*
X52270819Y-69976952D01*
X52270819Y-69976952D02*
X52270819Y-70167428D01*
X51366057Y-69357904D02*
X51318438Y-69310285D01*
X51318438Y-69310285D02*
X51270819Y-69215047D01*
X51270819Y-69215047D02*
X51270819Y-68976952D01*
X51270819Y-68976952D02*
X51318438Y-68881714D01*
X51318438Y-68881714D02*
X51366057Y-68834095D01*
X51366057Y-68834095D02*
X51461295Y-68786476D01*
X51461295Y-68786476D02*
X51556533Y-68786476D01*
X51556533Y-68786476D02*
X51699390Y-68834095D01*
X51699390Y-68834095D02*
X52270819Y-69405523D01*
X52270819Y-69405523D02*
X52270819Y-68786476D01*
X54141905Y-77249819D02*
X54141905Y-76249819D01*
X54141905Y-76249819D02*
X54380000Y-76249819D01*
X54380000Y-76249819D02*
X54522857Y-76297438D01*
X54522857Y-76297438D02*
X54618095Y-76392676D01*
X54618095Y-76392676D02*
X54665714Y-76487914D01*
X54665714Y-76487914D02*
X54713333Y-76678390D01*
X54713333Y-76678390D02*
X54713333Y-76821247D01*
X54713333Y-76821247D02*
X54665714Y-77011723D01*
X54665714Y-77011723D02*
X54618095Y-77106961D01*
X54618095Y-77106961D02*
X54522857Y-77202200D01*
X54522857Y-77202200D02*
X54380000Y-77249819D01*
X54380000Y-77249819D02*
X54141905Y-77249819D01*
X55046667Y-76249819D02*
X55665714Y-76249819D01*
X55665714Y-76249819D02*
X55332381Y-76630771D01*
X55332381Y-76630771D02*
X55475238Y-76630771D01*
X55475238Y-76630771D02*
X55570476Y-76678390D01*
X55570476Y-76678390D02*
X55618095Y-76726009D01*
X55618095Y-76726009D02*
X55665714Y-76821247D01*
X55665714Y-76821247D02*
X55665714Y-77059342D01*
X55665714Y-77059342D02*
X55618095Y-77154580D01*
X55618095Y-77154580D02*
X55570476Y-77202200D01*
X55570476Y-77202200D02*
X55475238Y-77249819D01*
X55475238Y-77249819D02*
X55189524Y-77249819D01*
X55189524Y-77249819D02*
X55094286Y-77202200D01*
X55094286Y-77202200D02*
X55046667Y-77154580D01*
X42211666Y-58509819D02*
X42211666Y-59224104D01*
X42211666Y-59224104D02*
X42164047Y-59366961D01*
X42164047Y-59366961D02*
X42068809Y-59462200D01*
X42068809Y-59462200D02*
X41925952Y-59509819D01*
X41925952Y-59509819D02*
X41830714Y-59509819D01*
X42592619Y-58509819D02*
X43211666Y-58509819D01*
X43211666Y-58509819D02*
X42878333Y-58890771D01*
X42878333Y-58890771D02*
X43021190Y-58890771D01*
X43021190Y-58890771D02*
X43116428Y-58938390D01*
X43116428Y-58938390D02*
X43164047Y-58986009D01*
X43164047Y-58986009D02*
X43211666Y-59081247D01*
X43211666Y-59081247D02*
X43211666Y-59319342D01*
X43211666Y-59319342D02*
X43164047Y-59414580D01*
X43164047Y-59414580D02*
X43116428Y-59462200D01*
X43116428Y-59462200D02*
X43021190Y-59509819D01*
X43021190Y-59509819D02*
X42735476Y-59509819D01*
X42735476Y-59509819D02*
X42640238Y-59462200D01*
X42640238Y-59462200D02*
X42592619Y-59414580D01*
D12*
%TO.C,R6*%
X49170000Y-62772936D02*
X49170000Y-64227064D01*
X47350000Y-62772936D02*
X47350000Y-64227064D01*
%TO.C,R1*%
X48170000Y-67852936D02*
X48170000Y-69307064D01*
X46350000Y-67852936D02*
X46350000Y-69307064D01*
%TO.C,R2*%
X58695000Y-69942064D02*
X58695000Y-68487936D01*
X56875000Y-69942064D02*
X56875000Y-68487936D01*
%TO.C,D2*%
X48230000Y-75945000D02*
X48230000Y-72645000D01*
X48230000Y-75945000D02*
X42720000Y-75945000D01*
X48230000Y-72645000D02*
X42720000Y-72645000D01*
D13*
%TO.C,J4*%
X46465500Y-51386100D02*
G75*
G02*
X45703500Y-51386100I-381000J0D01*
G01*
X45703500Y-51386100D02*
G75*
G02*
X46465500Y-51386100I381000J0D01*
G01*
D12*
%TO.C,Q1*%
X45290000Y-68595000D02*
X44960000Y-68355000D01*
X45290000Y-68115000D01*
X45290000Y-68595000D01*
G36*
X45290000Y-68595000D02*
G01*
X44960000Y-68355000D01*
X45290000Y-68115000D01*
X45290000Y-68595000D01*
G37*
X45010000Y-69517500D02*
X45010000Y-70167500D01*
X45010000Y-69517500D02*
X45010000Y-68867500D01*
X41890000Y-69517500D02*
X41890000Y-70167500D01*
X41890000Y-69517500D02*
X41890000Y-68867500D01*
%TO.C,U1*%
D14*
X42527636Y-39544000D02*
G75*
G02*
X42023636Y-39544000I-252000J0D01*
G01*
X42023636Y-39544000D02*
G75*
G02*
X42527636Y-39544000I252000J0D01*
G01*
X41310636Y-38821000D02*
G75*
G02*
X40806636Y-38821000I-252000J0D01*
G01*
X40806636Y-38821000D02*
G75*
G02*
X41310636Y-38821000I252000J0D01*
G01*
D15*
X59048636Y-57455000D02*
G75*
G02*
X57143636Y-59360006I-1905006J0D01*
G01*
X57143636Y-38405000D02*
G75*
G02*
X59048630Y-40310000I-6J-1905000D01*
G01*
D16*
X54162636Y-36895000D02*
G75*
G02*
X54662630Y-37395000I-6J-500000D01*
G01*
X45667364Y-37394728D02*
G75*
G02*
X46167364Y-36895001I500018J-291D01*
G01*
D15*
X43173636Y-59360000D02*
G75*
G02*
X41268636Y-57455000I1J1905001D01*
G01*
X41268636Y-40306000D02*
G75*
G02*
X43173636Y-38401000I1905001J-1D01*
G01*
X59048636Y-57455000D02*
X59048636Y-40310000D01*
X57143636Y-38405000D02*
X43173636Y-38405000D01*
D16*
X54662636Y-37395000D02*
X54662636Y-38405000D01*
X46167364Y-36895000D02*
X54162636Y-36895000D01*
X45663636Y-38405000D02*
X45667364Y-37394728D01*
D15*
X43173636Y-59360000D02*
X57143636Y-59360000D01*
X41268636Y-57455000D02*
X41268636Y-40310000D01*
D12*
%TO.C,D1*%
X59390000Y-64896000D02*
X59390000Y-61596000D01*
X59390000Y-64896000D02*
X53880000Y-64896000D01*
X59390000Y-61596000D02*
X53880000Y-61596000D01*
%TO.C,R5*%
X51710000Y-62772936D02*
X51710000Y-64227064D01*
X49890000Y-62772936D02*
X49890000Y-64227064D01*
%TO.C,R3*%
X46630000Y-64227064D02*
X46630000Y-62772936D01*
X44810000Y-64227064D02*
X44810000Y-62772936D01*
D13*
%TO.C,J1*%
X53991500Y-38823900D02*
G75*
G02*
X53229500Y-38823900I-381000J0D01*
G01*
X53229500Y-38823900D02*
G75*
G02*
X53991500Y-38823900I381000J0D01*
G01*
%TO.C,J2*%
X53991500Y-52158900D02*
G75*
G02*
X53229500Y-52158900I-381000J0D01*
G01*
X53229500Y-52158900D02*
G75*
G02*
X53991500Y-52158900I381000J0D01*
G01*
D12*
%TO.C,R4*%
X50710000Y-67852936D02*
X50710000Y-69307064D01*
X48890000Y-67852936D02*
X48890000Y-69307064D01*
%TO.C,Q2*%
X56135000Y-68607500D02*
X55805000Y-68367500D01*
X56135000Y-68127500D01*
X56135000Y-68607500D01*
G36*
X56135000Y-68607500D02*
G01*
X55805000Y-68367500D01*
X56135000Y-68127500D01*
X56135000Y-68607500D01*
G37*
X55855000Y-69530000D02*
X55855000Y-70180000D01*
X55855000Y-69530000D02*
X55855000Y-68880000D01*
X52735000Y-69530000D02*
X52735000Y-70180000D01*
X52735000Y-69530000D02*
X52735000Y-68880000D01*
%TO.C,D3*%
X58390000Y-75945000D02*
X58390000Y-72645000D01*
X58390000Y-75945000D02*
X52880000Y-75945000D01*
X58390000Y-72645000D02*
X52880000Y-72645000D01*
%TO.C,J3*%
X43798000Y-65642000D02*
X42418000Y-65642000D01*
X43798000Y-64262000D02*
X43798000Y-65642000D01*
X43798000Y-62992000D02*
X43798000Y-60342000D01*
X43798000Y-62992000D02*
X41038000Y-62992000D01*
X43798000Y-60342000D02*
X41038000Y-60342000D01*
X41038000Y-62992000D02*
X41038000Y-60342000D01*
%TD*%
M02*
