%TF.GenerationSoftware,KiCad,Pcbnew,9.0.1*%
%TF.CreationDate,2025-05-22T11:03:56-04:00*%
%TF.ProjectId,Pneumatactors_1Xiao_PiezoPumps_2Valves,506e6575-6d61-4746-9163-746f72735f31,rev?*%
%TF.SameCoordinates,Original*%
%TF.FileFunction,Copper,L2,Bot*%
%TF.FilePolarity,Positive*%
%FSLAX46Y46*%
G04 Gerber Fmt 4.6, Leading zero omitted, Abs format (unit mm)*
G04 Created by KiCad (PCBNEW 9.0.1) date 2025-05-22 11:03:56*
%MOMM*%
%LPD*%
G01*
G04 APERTURE LIST*
G04 Aperture macros list*
%AMRoundRect*
0 Rectangle with rounded corners*
0 $1 Rounding radius*
0 $2 $3 $4 $5 $6 $7 $8 $9 X,Y pos of 4 corners*
0 Add a 4 corners polygon primitive as box body*
4,1,4,$2,$3,$4,$5,$6,$7,$8,$9,$2,$3,0*
0 Add four circle primitives for the rounded corners*
1,1,$1+$1,$2,$3*
1,1,$1+$1,$4,$5*
1,1,$1+$1,$6,$7*
1,1,$1+$1,$8,$9*
0 Add four rect primitives between the rounded corners*
20,1,$1+$1,$2,$3,$4,$5,0*
20,1,$1+$1,$4,$5,$6,$7,0*
20,1,$1+$1,$6,$7,$8,$9,0*
20,1,$1+$1,$8,$9,$2,$3,0*%
G04 Aperture macros list end*
%TA.AperFunction,SMDPad,CuDef*%
%ADD10R,3.098800X2.209800*%
%TD*%
%TA.AperFunction,SMDPad,CuDef*%
%ADD11R,1.701800X0.812800*%
%TD*%
%TA.AperFunction,SMDPad,CuDef*%
%ADD12RoundRect,0.250001X0.499999X1.449999X-0.499999X1.449999X-0.499999X-1.449999X0.499999X-1.449999X0*%
%TD*%
%TA.AperFunction,SMDPad,CuDef*%
%ADD13RoundRect,0.250000X0.250000X1.500000X-0.250000X1.500000X-0.250000X-1.500000X0.250000X-1.500000X0*%
%TD*%
%TA.AperFunction,ComponentPad*%
%ADD14C,1.700000*%
%TD*%
%TA.AperFunction,ComponentPad*%
%ADD15R,1.700000X1.700000*%
%TD*%
%TA.AperFunction,ViaPad*%
%ADD16C,0.800000*%
%TD*%
%TA.AperFunction,Conductor*%
%ADD17C,1.000000*%
%TD*%
%TA.AperFunction,Conductor*%
%ADD18C,0.250000*%
%TD*%
G04 APERTURE END LIST*
D10*
%TO.P,J4,7*%
%TO.N,N/C*%
X43184501Y-50175000D03*
%TO.P,J4,6*%
X43184501Y-40075000D03*
D11*
%TO.P,J4,5,5*%
%TO.N,P3_A*%
X46084500Y-42625000D03*
%TO.P,J4,4,4*%
%TO.N,GND*%
X46084500Y-43875000D03*
%TO.P,J4,3,3*%
%TO.N,SCL*%
X46084500Y-45125000D03*
%TO.P,J4,2,2*%
%TO.N,SDA*%
X46084500Y-46375000D03*
%TO.P,J4,1,1*%
%TO.N,5V*%
X46084500Y-47625000D03*
%TD*%
D12*
%TO.P,J6,MP*%
%TO.N,N/C*%
X51625000Y-74330000D03*
X58325000Y-74330000D03*
D13*
%TO.P,J6,2,Pin_2*%
%TO.N,5V*%
X53975000Y-68580000D03*
%TO.P,J6,1,Pin_1*%
%TO.N,Net-(D3-A)*%
X55975000Y-68580000D03*
%TD*%
D10*
%TO.P,J1,7*%
%TO.N,N/C*%
X56510499Y-40035000D03*
%TO.P,J1,6*%
X56510499Y-50135000D03*
D11*
%TO.P,J1,5,5*%
%TO.N,P1_A*%
X53610500Y-47585000D03*
%TO.P,J1,4,4*%
%TO.N,GND*%
X53610500Y-46335000D03*
%TO.P,J1,3,3*%
%TO.N,SCL*%
X53610500Y-45085000D03*
%TO.P,J1,2,2*%
%TO.N,SDA*%
X53610500Y-43835000D03*
%TO.P,J1,1,1*%
%TO.N,5V*%
X53610500Y-42585000D03*
%TD*%
D12*
%TO.P,J5,MP*%
%TO.N,N/C*%
X42005000Y-74330000D03*
X48705000Y-74330000D03*
D13*
%TO.P,J5,2,Pin_2*%
%TO.N,5V*%
X44355000Y-68580000D03*
%TO.P,J5,1,Pin_1*%
%TO.N,Net-(D2-A)*%
X46355000Y-68580000D03*
%TD*%
D10*
%TO.P,J2,7*%
%TO.N,N/C*%
X56510499Y-53370000D03*
%TO.P,J2,6*%
X56510499Y-63470000D03*
D11*
%TO.P,J2,5,5*%
%TO.N,P2_A*%
X53610500Y-60920000D03*
%TO.P,J2,4,4*%
%TO.N,GND*%
X53610500Y-59670000D03*
%TO.P,J2,3,3*%
%TO.N,SCL*%
X53610500Y-58420000D03*
%TO.P,J2,2,2*%
%TO.N,SDA*%
X53610500Y-57170000D03*
%TO.P,J2,1,1*%
%TO.N,5V*%
X53610500Y-55920000D03*
%TD*%
D14*
%TO.P,J3,2,Pin_2*%
%TO.N,5V*%
X42418000Y-61722000D03*
D15*
%TO.P,J3,1,Pin_1*%
%TO.N,GND*%
X42418000Y-64262000D03*
%TD*%
D16*
%TO.N,GND*%
X48514000Y-49530000D03*
%TO.N,SCL*%
X53340000Y-40640000D03*
%TO.N,P3_A*%
X59058289Y-48351184D03*
%TO.N,SCL*%
X55512399Y-41864966D03*
%TO.N,GND*%
X54864000Y-48514000D03*
%TO.N,5V*%
X53610500Y-55920000D03*
%TO.N,GND*%
X49403000Y-59182000D03*
%TO.N,3V3*%
X50419000Y-54991000D03*
X48006000Y-63500000D03*
%TO.N,5V*%
X55496000Y-71374000D03*
%TO.N,Net-(D1-K)*%
X53721000Y-52197000D03*
X53721000Y-49403000D03*
%TO.N,P1_A*%
X59176696Y-54022000D03*
%TO.N,GND*%
X56896000Y-58547000D03*
%TO.N,5V*%
X44831000Y-71755000D03*
%TO.N,Net-(D3-A)*%
X52832000Y-71120000D03*
%TO.N,GND*%
X55626000Y-51689000D03*
X50419000Y-50927000D03*
%TO.N,P2_A*%
X58451696Y-51694319D03*
%TO.N,SDA*%
X47369818Y-55373182D03*
X45210818Y-53214182D03*
%TO.N,SCL*%
X47371000Y-56642000D03*
%TO.N,GND*%
X51562000Y-60325000D03*
X44323000Y-63881000D03*
X44958000Y-59055000D03*
%TO.N,Net-(D2-A)*%
X42164000Y-71501000D03*
%TO.N,GND*%
X59817000Y-60452000D03*
X50165000Y-46609000D03*
X51181000Y-56261000D03*
X49530000Y-63500000D03*
X55880000Y-45720000D03*
%TD*%
D17*
%TO.N,5V*%
X42418000Y-57658000D02*
X43688000Y-56388000D01*
D18*
%TO.N,3V3*%
X46643818Y-62137818D02*
X48006000Y-63500000D01*
X50419000Y-54991000D02*
X48133000Y-54991000D01*
X47069098Y-54647182D02*
X46643818Y-55072462D01*
X47789182Y-54647182D02*
X47069098Y-54647182D01*
%TO.N,SCL*%
X54787400Y-55187600D02*
X54787400Y-57902400D01*
X47371000Y-56642000D02*
X49149000Y-58420000D01*
X52433600Y-52833800D02*
X54787400Y-55187600D01*
X49149000Y-58420000D02*
X53610500Y-58420000D01*
X53610500Y-45085000D02*
X52951200Y-45085000D01*
X54269800Y-58420000D02*
X53610500Y-58420000D01*
X52951200Y-45085000D02*
X52433600Y-45602600D01*
X52433600Y-45602600D02*
X52433600Y-52833800D01*
X54787400Y-57902400D02*
X54269800Y-58420000D01*
%TO.N,SDA*%
X47369818Y-55373182D02*
X49166636Y-57170000D01*
X49166636Y-57170000D02*
X53610500Y-57170000D01*
X47243060Y-46375000D02*
X46084500Y-46375000D01*
D17*
%TO.N,Net-(D2-A)*%
X45328470Y-72956000D02*
X46355000Y-71929470D01*
X43932844Y-72956000D02*
X45328470Y-72956000D01*
X42164000Y-71501000D02*
X42477844Y-71501000D01*
X42477844Y-71501000D02*
X43932844Y-72956000D01*
X46355000Y-71929470D02*
X46355000Y-68580000D01*
%TO.N,Net-(D1-K)*%
X53721000Y-52197000D02*
X53721000Y-49403000D01*
D18*
%TO.N,3V3*%
X48133000Y-54991000D02*
X47789182Y-54647182D01*
X46643818Y-55072462D02*
X46643818Y-62137818D01*
%TO.N,SDA*%
X54693800Y-41759000D02*
X51859060Y-41759000D01*
X53610500Y-43835000D02*
X54711400Y-43835000D01*
X54787400Y-43759000D02*
X54787400Y-41852600D01*
X52951200Y-43835000D02*
X53610500Y-43835000D01*
X51859060Y-41759000D02*
X47243060Y-46375000D01*
X54711400Y-43835000D02*
X54787400Y-43759000D01*
X52433600Y-44964790D02*
X52433600Y-44352600D01*
X52433600Y-44352600D02*
X52951200Y-43835000D01*
X54787400Y-41852600D02*
X54693800Y-41759000D01*
%TO.N,P2_A*%
X58451696Y-59912304D02*
X58451696Y-51694319D01*
X57444000Y-60920000D02*
X58451696Y-59912304D01*
X53610500Y-60920000D02*
X57444000Y-60920000D01*
%TO.N,P1_A*%
X59176696Y-49494897D02*
X59176696Y-54022000D01*
X53610500Y-47585000D02*
X57266799Y-47585000D01*
X57266799Y-47585000D02*
X59176696Y-49494897D01*
D17*
%TO.N,Net-(D3-A)*%
X54286999Y-72574999D02*
X55993471Y-72574999D01*
X52832000Y-71120000D02*
X54286999Y-72574999D01*
X55993471Y-72574999D02*
X56696999Y-71871471D01*
X56696999Y-71871471D02*
X56696999Y-69301999D01*
%TO.N,5V*%
X53610500Y-42585000D02*
X52201200Y-42585000D01*
X44831000Y-71755000D02*
X44831000Y-69056000D01*
X42418000Y-61722000D02*
X42418000Y-57658000D01*
X50903500Y-53213000D02*
X53610500Y-55920000D01*
X46863000Y-53213000D02*
X50903500Y-53213000D01*
X44831000Y-69056000D02*
X44355000Y-68580000D01*
X55496000Y-71374000D02*
X53975000Y-69853000D01*
X53975000Y-69853000D02*
X53975000Y-68580000D01*
%TO.N,Net-(D3-A)*%
X56696999Y-69301999D02*
X55975000Y-68580000D01*
D18*
%TO.N,P3_A*%
X46084500Y-42625000D02*
X46084500Y-42133500D01*
X46084500Y-42133500D02*
X49613900Y-38604100D01*
D17*
%TO.N,5V*%
X42799000Y-61341000D02*
X42418000Y-61722000D01*
X46863000Y-53213000D02*
X43688000Y-56388000D01*
X44754768Y-52113182D02*
X43688000Y-53179950D01*
X46084500Y-51463583D02*
X45434901Y-52113182D01*
X46084500Y-47625000D02*
X46084500Y-51463583D01*
X45434901Y-52113182D02*
X44754768Y-52113182D01*
X43688000Y-53179950D02*
X43688000Y-56388000D01*
D18*
%TO.N,SCL*%
X47855250Y-45125000D02*
X52340250Y-40640000D01*
X52340250Y-40640000D02*
X53340000Y-40640000D01*
X46084500Y-45125000D02*
X47855250Y-45125000D01*
D17*
%TO.N,5V*%
X52201200Y-42585000D02*
X47161200Y-47625000D01*
X47161200Y-47625000D02*
X46084500Y-47625000D01*
D18*
%TO.N,SDA*%
X45693678Y-53214182D02*
X46520860Y-52387000D01*
X45210818Y-53214182D02*
X45693678Y-53214182D01*
X47054000Y-52387000D02*
X51982600Y-47458400D01*
X51982600Y-45415790D02*
X52433600Y-44964790D01*
X51982600Y-47458400D02*
X51982600Y-45415790D01*
X46520860Y-52387000D02*
X47054000Y-52387000D01*
%TO.N,SCL*%
X53610500Y-45085000D02*
X54099210Y-45085000D01*
X54099210Y-45085000D02*
X55512399Y-43671811D01*
X55512399Y-43671811D02*
X55512399Y-41864966D01*
%TO.N,P3_A*%
X49613900Y-38604100D02*
X58385899Y-38604100D01*
X58385899Y-38604100D02*
X59058289Y-39276490D01*
X59058289Y-39276490D02*
X59058289Y-48351184D01*
%TD*%
%TA.AperFunction,Conductor*%
%TO.N,GND*%
G36*
X49439425Y-38120185D02*
G01*
X49485180Y-38172989D01*
X49495124Y-38242147D01*
X49466099Y-38305703D01*
X49434385Y-38331888D01*
X49414038Y-38343634D01*
X45824037Y-41933635D01*
X45824035Y-41933638D01*
X45811065Y-41956101D01*
X45760501Y-42004315D01*
X45703680Y-42018100D01*
X45213847Y-42018100D01*
X45155370Y-42029731D01*
X45155369Y-42029732D01*
X45089047Y-42074047D01*
X45044732Y-42140369D01*
X45044731Y-42140370D01*
X45033100Y-42198847D01*
X45033100Y-42932043D01*
X45013415Y-42999082D01*
X44983412Y-43031309D01*
X44876409Y-43111412D01*
X44790249Y-43226506D01*
X44790245Y-43226513D01*
X44740003Y-43361220D01*
X44740001Y-43361227D01*
X44733600Y-43420755D01*
X44733600Y-43625000D01*
X47435400Y-43625000D01*
X47435400Y-43420772D01*
X47435399Y-43420755D01*
X47428998Y-43361227D01*
X47428996Y-43361220D01*
X47378754Y-43226513D01*
X47378750Y-43226506D01*
X47292590Y-43111412D01*
X47185588Y-43031309D01*
X47143718Y-42975375D01*
X47135900Y-42932043D01*
X47135900Y-42198849D01*
X47135899Y-42198847D01*
X47124268Y-42140370D01*
X47124267Y-42140369D01*
X47079952Y-42074047D01*
X47013630Y-42029732D01*
X47013629Y-42029731D01*
X46955152Y-42018100D01*
X46949088Y-42017503D01*
X46949325Y-42015086D01*
X46892550Y-41998415D01*
X46846795Y-41945611D01*
X46836851Y-41876453D01*
X46865876Y-41812897D01*
X46871908Y-41806419D01*
X49712408Y-38965919D01*
X49773731Y-38932434D01*
X49800089Y-38929600D01*
X54636599Y-38929600D01*
X54703638Y-38949285D01*
X54749393Y-39002089D01*
X54760599Y-39053600D01*
X54760599Y-41159652D01*
X54772230Y-41218129D01*
X54772231Y-41218130D01*
X54787251Y-41240609D01*
X54808129Y-41307287D01*
X54789644Y-41374667D01*
X54737666Y-41421357D01*
X54684149Y-41433500D01*
X53629392Y-41433500D01*
X53562353Y-41413815D01*
X53516598Y-41361011D01*
X53506654Y-41291853D01*
X53535679Y-41228297D01*
X53567392Y-41202113D01*
X53640944Y-41159648D01*
X53708716Y-41120520D01*
X53820520Y-41008716D01*
X53899577Y-40871784D01*
X53940500Y-40719057D01*
X53940500Y-40560943D01*
X53899577Y-40408216D01*
X53883018Y-40379535D01*
X53820524Y-40271290D01*
X53820518Y-40271282D01*
X53708717Y-40159481D01*
X53708709Y-40159475D01*
X53571790Y-40080426D01*
X53571786Y-40080424D01*
X53571784Y-40080423D01*
X53419057Y-40039500D01*
X53260943Y-40039500D01*
X53108216Y-40080423D01*
X53108209Y-40080426D01*
X52971290Y-40159475D01*
X52971282Y-40159481D01*
X52853733Y-40277031D01*
X52851487Y-40274785D01*
X52807145Y-40307179D01*
X52765170Y-40314500D01*
X52297397Y-40314500D01*
X52214611Y-40336682D01*
X52214608Y-40336683D01*
X52177500Y-40358107D01*
X52177500Y-40358108D01*
X52140388Y-40379535D01*
X52140385Y-40379537D01*
X47756742Y-44763181D01*
X47729814Y-44777884D01*
X47703996Y-44794477D01*
X47697795Y-44795368D01*
X47695419Y-44796666D01*
X47669061Y-44799500D01*
X47419853Y-44799500D01*
X47352814Y-44779815D01*
X47307059Y-44727011D01*
X47297115Y-44657853D01*
X47320587Y-44601188D01*
X47378752Y-44523489D01*
X47378754Y-44523486D01*
X47428996Y-44388779D01*
X47428998Y-44388772D01*
X47435399Y-44329244D01*
X47435400Y-44329227D01*
X47435400Y-44125000D01*
X44733600Y-44125000D01*
X44733600Y-44329244D01*
X44740001Y-44388772D01*
X44740003Y-44388779D01*
X44790245Y-44523486D01*
X44790249Y-44523493D01*
X44876409Y-44638587D01*
X44876412Y-44638590D01*
X44983411Y-44718690D01*
X45025282Y-44774623D01*
X45033100Y-44817956D01*
X45033100Y-45551152D01*
X45044731Y-45609629D01*
X45044732Y-45609630D01*
X45092493Y-45681109D01*
X45113371Y-45747786D01*
X45094887Y-45815167D01*
X45092493Y-45818891D01*
X45044732Y-45890369D01*
X45044731Y-45890370D01*
X45033100Y-45948847D01*
X45033100Y-46801152D01*
X45044731Y-46859629D01*
X45044732Y-46859630D01*
X45092493Y-46931109D01*
X45113371Y-46997786D01*
X45094887Y-47065167D01*
X45092493Y-47068891D01*
X45044732Y-47140369D01*
X45044731Y-47140370D01*
X45033100Y-47198847D01*
X45033100Y-48051152D01*
X45044731Y-48109629D01*
X45044732Y-48109630D01*
X45089047Y-48175952D01*
X45155369Y-48220267D01*
X45155370Y-48220268D01*
X45213847Y-48231899D01*
X45213850Y-48231900D01*
X45213852Y-48231900D01*
X45260000Y-48231900D01*
X45327039Y-48251585D01*
X45372794Y-48304389D01*
X45384000Y-48355900D01*
X45384000Y-51122064D01*
X45375355Y-51151504D01*
X45368832Y-51181491D01*
X45365077Y-51186506D01*
X45364315Y-51189103D01*
X45347681Y-51209745D01*
X45181063Y-51376363D01*
X45119740Y-51409848D01*
X45093382Y-51412682D01*
X45058401Y-51412682D01*
X44991362Y-51392997D01*
X44945607Y-51340193D01*
X44934401Y-51288682D01*
X44934401Y-49050349D01*
X44934400Y-49050347D01*
X44922769Y-48991870D01*
X44922768Y-48991869D01*
X44878453Y-48925547D01*
X44812131Y-48881232D01*
X44812130Y-48881231D01*
X44753653Y-48869600D01*
X44753649Y-48869600D01*
X41615353Y-48869600D01*
X41615348Y-48869600D01*
X41556871Y-48881231D01*
X41556870Y-48881232D01*
X41490548Y-48925547D01*
X41446233Y-48991869D01*
X41446232Y-48991870D01*
X41434601Y-49050347D01*
X41434601Y-51299652D01*
X41446232Y-51358129D01*
X41446233Y-51358130D01*
X41490548Y-51424452D01*
X41556870Y-51468767D01*
X41556871Y-51468768D01*
X41615348Y-51480399D01*
X41615351Y-51480400D01*
X41615353Y-51480400D01*
X44097530Y-51480400D01*
X44164569Y-51500085D01*
X44210324Y-51552889D01*
X44220268Y-51622047D01*
X44191243Y-51685603D01*
X44185211Y-51692081D01*
X43143888Y-52733403D01*
X43143882Y-52733411D01*
X43069010Y-52845466D01*
X43067232Y-52848126D01*
X43067223Y-52848142D01*
X43014420Y-52975621D01*
X43014418Y-52975627D01*
X42987500Y-53110954D01*
X42987500Y-56046480D01*
X42967815Y-56113519D01*
X42951181Y-56134161D01*
X41873888Y-57211453D01*
X41873887Y-57211454D01*
X41797222Y-57326192D01*
X41744421Y-57453667D01*
X41744418Y-57453677D01*
X41717500Y-57589004D01*
X41717500Y-60885505D01*
X41697815Y-60952544D01*
X41681181Y-60973186D01*
X41602025Y-61052341D01*
X41602024Y-61052342D01*
X41487058Y-61224403D01*
X41407870Y-61415579D01*
X41407868Y-61415587D01*
X41367500Y-61618530D01*
X41367500Y-61825469D01*
X41407868Y-62028412D01*
X41407870Y-62028420D01*
X41469096Y-62176233D01*
X41487059Y-62219598D01*
X41516365Y-62263458D01*
X41602024Y-62391657D01*
X41748342Y-62537975D01*
X41748345Y-62537977D01*
X41920402Y-62652941D01*
X41959993Y-62669340D01*
X41969888Y-62673439D01*
X42024291Y-62717280D01*
X42046356Y-62783574D01*
X42029077Y-62851274D01*
X41977939Y-62898884D01*
X41922435Y-62912000D01*
X41520155Y-62912000D01*
X41460627Y-62918401D01*
X41460620Y-62918403D01*
X41325913Y-62968645D01*
X41325906Y-62968649D01*
X41210812Y-63054809D01*
X41210809Y-63054812D01*
X41124649Y-63169906D01*
X41124645Y-63169913D01*
X41074403Y-63304620D01*
X41074401Y-63304627D01*
X41068000Y-63364155D01*
X41068000Y-64012000D01*
X41984988Y-64012000D01*
X41952075Y-64069007D01*
X41918000Y-64196174D01*
X41918000Y-64327826D01*
X41952075Y-64454993D01*
X41984988Y-64512000D01*
X41068000Y-64512000D01*
X41068000Y-65159844D01*
X41074401Y-65219372D01*
X41074403Y-65219379D01*
X41124645Y-65354086D01*
X41124649Y-65354093D01*
X41210809Y-65469187D01*
X41210812Y-65469190D01*
X41325906Y-65555350D01*
X41325913Y-65555354D01*
X41460620Y-65605596D01*
X41460627Y-65605598D01*
X41520155Y-65611999D01*
X41520172Y-65612000D01*
X42168000Y-65612000D01*
X42168000Y-64695012D01*
X42225007Y-64727925D01*
X42352174Y-64762000D01*
X42483826Y-64762000D01*
X42610993Y-64727925D01*
X42668000Y-64695012D01*
X42668000Y-65612000D01*
X43315828Y-65612000D01*
X43315844Y-65611999D01*
X43375372Y-65605598D01*
X43375379Y-65605596D01*
X43510086Y-65555354D01*
X43510093Y-65555350D01*
X43625187Y-65469190D01*
X43625190Y-65469187D01*
X43711350Y-65354093D01*
X43711354Y-65354086D01*
X43761596Y-65219379D01*
X43761598Y-65219372D01*
X43767999Y-65159844D01*
X43768000Y-65159827D01*
X43768000Y-64512000D01*
X42851012Y-64512000D01*
X42883925Y-64454993D01*
X42918000Y-64327826D01*
X42918000Y-64196174D01*
X42883925Y-64069007D01*
X42851012Y-64012000D01*
X43768000Y-64012000D01*
X43768000Y-63364172D01*
X43767999Y-63364155D01*
X43761598Y-63304627D01*
X43761596Y-63304620D01*
X43711354Y-63169913D01*
X43711350Y-63169906D01*
X43625190Y-63054812D01*
X43625187Y-63054809D01*
X43510093Y-62968649D01*
X43510086Y-62968645D01*
X43375379Y-62918403D01*
X43375372Y-62918401D01*
X43315844Y-62912000D01*
X42913565Y-62912000D01*
X42846526Y-62892315D01*
X42800771Y-62839511D01*
X42790827Y-62770353D01*
X42819852Y-62706797D01*
X42866112Y-62673439D01*
X42871608Y-62671162D01*
X42915598Y-62652941D01*
X43087655Y-62537977D01*
X43233977Y-62391655D01*
X43348941Y-62219598D01*
X43428130Y-62028420D01*
X43468500Y-61825465D01*
X43468500Y-61618535D01*
X43467325Y-61612629D01*
X43472768Y-61551753D01*
X43470811Y-61551160D01*
X43472575Y-61545338D01*
X43472580Y-61545329D01*
X43499499Y-61409994D01*
X43499499Y-61272006D01*
X43472580Y-61136672D01*
X43419774Y-61009189D01*
X43419772Y-61009186D01*
X43419770Y-61009182D01*
X43343113Y-60894456D01*
X43245543Y-60796886D01*
X43173609Y-60748822D01*
X43128804Y-60695210D01*
X43118500Y-60645720D01*
X43118500Y-57999519D01*
X43138185Y-57932480D01*
X43154819Y-57911838D01*
X46106637Y-54960020D01*
X46167960Y-54926535D01*
X46237652Y-54931519D01*
X46293585Y-54973391D01*
X46318002Y-55038855D01*
X46318318Y-55047701D01*
X46318318Y-62180670D01*
X46340500Y-62263458D01*
X46361926Y-62300568D01*
X46383353Y-62337680D01*
X46383355Y-62337682D01*
X47369370Y-63323697D01*
X47402855Y-63385020D01*
X47404017Y-63412816D01*
X47405500Y-63412816D01*
X47405500Y-63579056D01*
X47446423Y-63731783D01*
X47446426Y-63731790D01*
X47525475Y-63868709D01*
X47525479Y-63868714D01*
X47525480Y-63868716D01*
X47637284Y-63980520D01*
X47637286Y-63980521D01*
X47637290Y-63980524D01*
X47691809Y-64012000D01*
X47774216Y-64059577D01*
X47926943Y-64100500D01*
X47926945Y-64100500D01*
X48085055Y-64100500D01*
X48085057Y-64100500D01*
X48237784Y-64059577D01*
X48374716Y-63980520D01*
X48486520Y-63868716D01*
X48565577Y-63731784D01*
X48606500Y-63579057D01*
X48606500Y-63420943D01*
X48565577Y-63268216D01*
X48565573Y-63268209D01*
X48486524Y-63131290D01*
X48486518Y-63131282D01*
X48374717Y-63019481D01*
X48374709Y-63019475D01*
X48237790Y-62940426D01*
X48237786Y-62940424D01*
X48237784Y-62940423D01*
X48085057Y-62899500D01*
X47926943Y-62899500D01*
X47918816Y-62899500D01*
X47918816Y-62896332D01*
X47864504Y-62887851D01*
X47829697Y-62863370D01*
X47311674Y-62345347D01*
X54760599Y-62345347D01*
X54760599Y-64594652D01*
X54772230Y-64653129D01*
X54772231Y-64653130D01*
X54816546Y-64719452D01*
X54882868Y-64763767D01*
X54882869Y-64763768D01*
X54941346Y-64775399D01*
X54941349Y-64775400D01*
X54941351Y-64775400D01*
X58079649Y-64775400D01*
X58079650Y-64775399D01*
X58094467Y-64772452D01*
X58138128Y-64763768D01*
X58138128Y-64763767D01*
X58138130Y-64763767D01*
X58204451Y-64719452D01*
X58248766Y-64653131D01*
X58248766Y-64653129D01*
X58248767Y-64653129D01*
X58260398Y-64594652D01*
X58260399Y-64594650D01*
X58260399Y-62345349D01*
X58260398Y-62345347D01*
X58248767Y-62286870D01*
X58248766Y-62286869D01*
X58204451Y-62220547D01*
X58138129Y-62176232D01*
X58138128Y-62176231D01*
X58079651Y-62164600D01*
X58079647Y-62164600D01*
X54941351Y-62164600D01*
X54941346Y-62164600D01*
X54882869Y-62176231D01*
X54882868Y-62176232D01*
X54816546Y-62220547D01*
X54772231Y-62286869D01*
X54772230Y-62286870D01*
X54760599Y-62345347D01*
X47311674Y-62345347D01*
X47005637Y-62039310D01*
X46972152Y-61977987D01*
X46969318Y-61951629D01*
X46969318Y-57316781D01*
X46989003Y-57249742D01*
X47041807Y-57203987D01*
X47110965Y-57194043D01*
X47131323Y-57199629D01*
X47131365Y-57199473D01*
X47139214Y-57201576D01*
X47139216Y-57201577D01*
X47291943Y-57242500D01*
X47291945Y-57242500D01*
X47458185Y-57242500D01*
X47458185Y-57245683D01*
X47512398Y-57254102D01*
X47547302Y-57278629D01*
X48213925Y-57945251D01*
X48888533Y-58619859D01*
X48888535Y-58619862D01*
X48949138Y-58680465D01*
X48986250Y-58701891D01*
X48995370Y-58707157D01*
X48995373Y-58707159D01*
X49023358Y-58723317D01*
X49023360Y-58723317D01*
X49023361Y-58723318D01*
X49106147Y-58745501D01*
X49106149Y-58745501D01*
X49199449Y-58745501D01*
X49199465Y-58745500D01*
X52275147Y-58745500D01*
X52342186Y-58765185D01*
X52387941Y-58817989D01*
X52397885Y-58887147D01*
X52374413Y-58943812D01*
X52316247Y-59021510D01*
X52316245Y-59021513D01*
X52266003Y-59156220D01*
X52266001Y-59156227D01*
X52259600Y-59215755D01*
X52259600Y-59420000D01*
X54961400Y-59420000D01*
X54961400Y-59215772D01*
X54961399Y-59215755D01*
X54954998Y-59156227D01*
X54954996Y-59156220D01*
X54904754Y-59021513D01*
X54904750Y-59021506D01*
X54818590Y-58906412D01*
X54711588Y-58826309D01*
X54708851Y-58822653D01*
X54704697Y-58820756D01*
X54688105Y-58794938D01*
X54669718Y-58770375D01*
X54668702Y-58764747D01*
X54666923Y-58761978D01*
X54661900Y-58727043D01*
X54661900Y-58539589D01*
X54681585Y-58472550D01*
X54698219Y-58451908D01*
X55047865Y-58102262D01*
X55090718Y-58028039D01*
X55112900Y-57945253D01*
X55112900Y-57859547D01*
X55112900Y-55144747D01*
X55092887Y-55070057D01*
X55092886Y-55070055D01*
X55090718Y-55061961D01*
X55090717Y-55061960D01*
X55047865Y-54987738D01*
X54947208Y-54887081D01*
X54913723Y-54825758D01*
X54918707Y-54756066D01*
X54960579Y-54700133D01*
X55026043Y-54675716D01*
X55034889Y-54675400D01*
X58002196Y-54675400D01*
X58069235Y-54695085D01*
X58114990Y-54747889D01*
X58126196Y-54799400D01*
X58126196Y-59726115D01*
X58106511Y-59793154D01*
X58089877Y-59813796D01*
X57345492Y-60558181D01*
X57284169Y-60591666D01*
X57257811Y-60594500D01*
X54945853Y-60594500D01*
X54878814Y-60574815D01*
X54833059Y-60522011D01*
X54823115Y-60452853D01*
X54846587Y-60396188D01*
X54904752Y-60318489D01*
X54904754Y-60318486D01*
X54954996Y-60183779D01*
X54954998Y-60183772D01*
X54961399Y-60124244D01*
X54961400Y-60124227D01*
X54961400Y-59920000D01*
X52259600Y-59920000D01*
X52259600Y-60124244D01*
X52266001Y-60183772D01*
X52266003Y-60183779D01*
X52316245Y-60318486D01*
X52316249Y-60318493D01*
X52402409Y-60433587D01*
X52402412Y-60433590D01*
X52509411Y-60513690D01*
X52551282Y-60569623D01*
X52559100Y-60612956D01*
X52559100Y-61346152D01*
X52570731Y-61404629D01*
X52570732Y-61404630D01*
X52615047Y-61470952D01*
X52681369Y-61515267D01*
X52681370Y-61515268D01*
X52739847Y-61526899D01*
X52739850Y-61526900D01*
X52739852Y-61526900D01*
X54481150Y-61526900D01*
X54481151Y-61526899D01*
X54495968Y-61523952D01*
X54539629Y-61515268D01*
X54539629Y-61515267D01*
X54539631Y-61515267D01*
X54605952Y-61470952D01*
X54650267Y-61404631D01*
X54653847Y-61386632D01*
X54662068Y-61345308D01*
X54694453Y-61283397D01*
X54755169Y-61248823D01*
X54783685Y-61245500D01*
X57486851Y-61245500D01*
X57486853Y-61245500D01*
X57569639Y-61223318D01*
X57643862Y-61180465D01*
X58712161Y-60112166D01*
X58755013Y-60037943D01*
X58755014Y-60037942D01*
X58777196Y-59955157D01*
X58777196Y-54697685D01*
X58796881Y-54630646D01*
X58849685Y-54584891D01*
X58918843Y-54574947D01*
X58936942Y-54579913D01*
X58937061Y-54579473D01*
X58944910Y-54581576D01*
X58944912Y-54581577D01*
X59097639Y-54622500D01*
X59097641Y-54622500D01*
X59255751Y-54622500D01*
X59255753Y-54622500D01*
X59408480Y-54581577D01*
X59545412Y-54502520D01*
X59657216Y-54390716D01*
X59736273Y-54253784D01*
X59777196Y-54101057D01*
X59777196Y-53942943D01*
X59736273Y-53790216D01*
X59681131Y-53694706D01*
X59657220Y-53653290D01*
X59657214Y-53653282D01*
X59539665Y-53535733D01*
X59541903Y-53533494D01*
X59509494Y-53489080D01*
X59502196Y-53447169D01*
X59502196Y-49452046D01*
X59502196Y-49452044D01*
X59480014Y-49369259D01*
X59480014Y-49369258D01*
X59437161Y-49295035D01*
X59253581Y-49111455D01*
X59220096Y-49050132D01*
X59225080Y-48980440D01*
X59266952Y-48924507D01*
X59283262Y-48915219D01*
X59283035Y-48914825D01*
X59426998Y-48831708D01*
X59426997Y-48831708D01*
X59427005Y-48831704D01*
X59538809Y-48719900D01*
X59617866Y-48582968D01*
X59658789Y-48430241D01*
X59658789Y-48272127D01*
X59617866Y-48119400D01*
X59589131Y-48069629D01*
X59538813Y-47982474D01*
X59538807Y-47982466D01*
X59421258Y-47864917D01*
X59423496Y-47862678D01*
X59391087Y-47818264D01*
X59383789Y-47776353D01*
X59383789Y-39233639D01*
X59383789Y-39233637D01*
X59361607Y-39150852D01*
X59361607Y-39150851D01*
X59318754Y-39076628D01*
X58585761Y-38343635D01*
X58565412Y-38331886D01*
X58517197Y-38281320D01*
X58503975Y-38212713D01*
X58529943Y-38147848D01*
X58586857Y-38107320D01*
X58627413Y-38100500D01*
X60200500Y-38100500D01*
X60267539Y-38120185D01*
X60313294Y-38172989D01*
X60324500Y-38224500D01*
X60324500Y-77345500D01*
X60304815Y-77412539D01*
X60252011Y-77458294D01*
X60200500Y-77469500D01*
X40129500Y-77469500D01*
X40062461Y-77449815D01*
X40016706Y-77397011D01*
X40005500Y-77345500D01*
X40005500Y-72825731D01*
X41054500Y-72825731D01*
X41054500Y-75834258D01*
X41057354Y-75864698D01*
X41057354Y-75864699D01*
X41102206Y-75992881D01*
X41102207Y-75992882D01*
X41182850Y-76102150D01*
X41292118Y-76182793D01*
X41420302Y-76227646D01*
X41420301Y-76227646D01*
X41424271Y-76228018D01*
X41450735Y-76230500D01*
X42559264Y-76230499D01*
X42589698Y-76227646D01*
X42717882Y-76182793D01*
X42827150Y-76102150D01*
X42907793Y-75992882D01*
X42952646Y-75864698D01*
X42955500Y-75834265D01*
X42955499Y-73268673D01*
X42975184Y-73201635D01*
X43027987Y-73155880D01*
X43097146Y-73145936D01*
X43160702Y-73174961D01*
X43167180Y-73180993D01*
X43486297Y-73500111D01*
X43486298Y-73500112D01*
X43601036Y-73576777D01*
X43728511Y-73629578D01*
X43728516Y-73629580D01*
X43728520Y-73629580D01*
X43728521Y-73629581D01*
X43863847Y-73656500D01*
X43863850Y-73656500D01*
X45397466Y-73656500D01*
X45488510Y-73638389D01*
X45532798Y-73629580D01*
X45596539Y-73603177D01*
X45660277Y-73576777D01*
X45660278Y-73576776D01*
X45660281Y-73576775D01*
X45775013Y-73500114D01*
X46156017Y-73119110D01*
X46449397Y-72825731D01*
X47754500Y-72825731D01*
X47754500Y-75834258D01*
X47757354Y-75864698D01*
X47757354Y-75864699D01*
X47802206Y-75992881D01*
X47802207Y-75992882D01*
X47882850Y-76102150D01*
X47992118Y-76182793D01*
X48120302Y-76227646D01*
X48120301Y-76227646D01*
X48124271Y-76228018D01*
X48150735Y-76230500D01*
X49259264Y-76230499D01*
X49289698Y-76227646D01*
X49417882Y-76182793D01*
X49527150Y-76102150D01*
X49607793Y-75992882D01*
X49652646Y-75864698D01*
X49655500Y-75834265D01*
X49655499Y-72825736D01*
X49655499Y-72825731D01*
X50674500Y-72825731D01*
X50674500Y-75834258D01*
X50677354Y-75864698D01*
X50677354Y-75864699D01*
X50722206Y-75992881D01*
X50722207Y-75992882D01*
X50802850Y-76102150D01*
X50912118Y-76182793D01*
X51040302Y-76227646D01*
X51040301Y-76227646D01*
X51044271Y-76228018D01*
X51070735Y-76230500D01*
X52179264Y-76230499D01*
X52209698Y-76227646D01*
X52337882Y-76182793D01*
X52447150Y-76102150D01*
X52527793Y-75992882D01*
X52572646Y-75864698D01*
X52575500Y-75834265D01*
X52575499Y-72825736D01*
X52572646Y-72795302D01*
X52527793Y-72667118D01*
X52447150Y-72557850D01*
X52337882Y-72477207D01*
X52337881Y-72477206D01*
X52209695Y-72432353D01*
X52209698Y-72432353D01*
X52179268Y-72429500D01*
X51070741Y-72429500D01*
X51040301Y-72432354D01*
X51040300Y-72432354D01*
X50912118Y-72477206D01*
X50802850Y-72557850D01*
X50722206Y-72667118D01*
X50677353Y-72795302D01*
X50674500Y-72825731D01*
X49655499Y-72825731D01*
X49652646Y-72795302D01*
X49607793Y-72667118D01*
X49527150Y-72557850D01*
X49417882Y-72477207D01*
X49417881Y-72477206D01*
X49289695Y-72432353D01*
X49289698Y-72432353D01*
X49259268Y-72429500D01*
X48150741Y-72429500D01*
X48120301Y-72432354D01*
X48120300Y-72432354D01*
X47992118Y-72477206D01*
X47882850Y-72557850D01*
X47802206Y-72667118D01*
X47757353Y-72795302D01*
X47754500Y-72825731D01*
X46449397Y-72825731D01*
X46539973Y-72735155D01*
X46899111Y-72376016D01*
X46899112Y-72376015D01*
X46899114Y-72376013D01*
X46975775Y-72261281D01*
X47028580Y-72133798D01*
X47055500Y-71998464D01*
X47055500Y-71860476D01*
X47055500Y-71188996D01*
X52131499Y-71188996D01*
X52158418Y-71324322D01*
X52158421Y-71324332D01*
X52211222Y-71451807D01*
X52287887Y-71566545D01*
X52287888Y-71566546D01*
X53742885Y-73021541D01*
X53840454Y-73119110D01*
X53840458Y-73119114D01*
X53955183Y-73195771D01*
X53955184Y-73195771D01*
X53955188Y-73195774D01*
X54045331Y-73233112D01*
X54082670Y-73248579D01*
X54109590Y-73253933D01*
X54183696Y-73268674D01*
X54218005Y-73275499D01*
X54218006Y-73275499D01*
X56062467Y-73275499D01*
X56170883Y-73253933D01*
X56197799Y-73248579D01*
X56261540Y-73222176D01*
X56325278Y-73195776D01*
X56325279Y-73195775D01*
X56325282Y-73195774D01*
X56440014Y-73119113D01*
X56589815Y-72969312D01*
X56733397Y-72825731D01*
X57374500Y-72825731D01*
X57374500Y-75834258D01*
X57377354Y-75864698D01*
X57377354Y-75864699D01*
X57422206Y-75992881D01*
X57422207Y-75992882D01*
X57502850Y-76102150D01*
X57612118Y-76182793D01*
X57740302Y-76227646D01*
X57740301Y-76227646D01*
X57744271Y-76228018D01*
X57770735Y-76230500D01*
X58879264Y-76230499D01*
X58909698Y-76227646D01*
X59037882Y-76182793D01*
X59147150Y-76102150D01*
X59227793Y-75992882D01*
X59272646Y-75864698D01*
X59275500Y-75834265D01*
X59275499Y-72825736D01*
X59272646Y-72795302D01*
X59227793Y-72667118D01*
X59147150Y-72557850D01*
X59037882Y-72477207D01*
X59037881Y-72477206D01*
X58909695Y-72432353D01*
X58909698Y-72432353D01*
X58879268Y-72429500D01*
X57770741Y-72429500D01*
X57740301Y-72432354D01*
X57740300Y-72432354D01*
X57612118Y-72477206D01*
X57502850Y-72557850D01*
X57422206Y-72667118D01*
X57377353Y-72795302D01*
X57374500Y-72825731D01*
X56733397Y-72825731D01*
X56823973Y-72735155D01*
X57241110Y-72318017D01*
X57241111Y-72318016D01*
X57241113Y-72318014D01*
X57317774Y-72203282D01*
X57325810Y-72183883D01*
X57351537Y-72121771D01*
X57370579Y-72075799D01*
X57396091Y-71947545D01*
X57397499Y-71940467D01*
X57397499Y-69233003D01*
X57370580Y-69097676D01*
X57370579Y-69097675D01*
X57370579Y-69097671D01*
X57317774Y-68970188D01*
X57278768Y-68911811D01*
X57241113Y-68855456D01*
X57241110Y-68855452D01*
X56711819Y-68326161D01*
X56678334Y-68264838D01*
X56675500Y-68238480D01*
X56675500Y-67025730D01*
X56672646Y-66995300D01*
X56672646Y-66995298D01*
X56627793Y-66867119D01*
X56627792Y-66867117D01*
X56547150Y-66757850D01*
X56437882Y-66677207D01*
X56437880Y-66677206D01*
X56309700Y-66632353D01*
X56279270Y-66629500D01*
X56279266Y-66629500D01*
X55670734Y-66629500D01*
X55670730Y-66629500D01*
X55640300Y-66632353D01*
X55640298Y-66632353D01*
X55512119Y-66677206D01*
X55512117Y-66677207D01*
X55402850Y-66757850D01*
X55322207Y-66867117D01*
X55322206Y-66867119D01*
X55277353Y-66995298D01*
X55277353Y-66995300D01*
X55274500Y-67025730D01*
X55274500Y-69862481D01*
X55254815Y-69929520D01*
X55202011Y-69975275D01*
X55132853Y-69985219D01*
X55069297Y-69956194D01*
X55062819Y-69950162D01*
X54711819Y-69599162D01*
X54678334Y-69537839D01*
X54675500Y-69511481D01*
X54675500Y-67025730D01*
X54672646Y-66995300D01*
X54672646Y-66995298D01*
X54627793Y-66867119D01*
X54627792Y-66867117D01*
X54547150Y-66757850D01*
X54437882Y-66677207D01*
X54437880Y-66677206D01*
X54309700Y-66632353D01*
X54279270Y-66629500D01*
X54279266Y-66629500D01*
X53670734Y-66629500D01*
X53670730Y-66629500D01*
X53640300Y-66632353D01*
X53640298Y-66632353D01*
X53512119Y-66677206D01*
X53512117Y-66677207D01*
X53402850Y-66757850D01*
X53322207Y-66867117D01*
X53322206Y-66867119D01*
X53277353Y-66995298D01*
X53277353Y-66995300D01*
X53274500Y-67025730D01*
X53274500Y-70134269D01*
X53277353Y-70164699D01*
X53277353Y-70164701D01*
X53322206Y-70292880D01*
X53322209Y-70292886D01*
X53355330Y-70337763D01*
X53379301Y-70403392D01*
X53363985Y-70471562D01*
X53314245Y-70520630D01*
X53245873Y-70535017D01*
X53186670Y-70514499D01*
X53163807Y-70499222D01*
X53036332Y-70446421D01*
X53036322Y-70446418D01*
X52900996Y-70419500D01*
X52900994Y-70419500D01*
X52763006Y-70419500D01*
X52763004Y-70419500D01*
X52627677Y-70446418D01*
X52627667Y-70446421D01*
X52500192Y-70499222D01*
X52385454Y-70575887D01*
X52287887Y-70673454D01*
X52211222Y-70788192D01*
X52158421Y-70915667D01*
X52158418Y-70915677D01*
X52131500Y-71051003D01*
X52131500Y-71051006D01*
X52131500Y-71188994D01*
X52131500Y-71188996D01*
X52131499Y-71188996D01*
X47055500Y-71188996D01*
X47055500Y-68511007D01*
X47055500Y-68511006D01*
X47055500Y-67025734D01*
X47052646Y-66995301D01*
X47052646Y-66995300D01*
X47052646Y-66995298D01*
X47007793Y-66867119D01*
X47007792Y-66867117D01*
X46927150Y-66757850D01*
X46817882Y-66677207D01*
X46817880Y-66677206D01*
X46689700Y-66632353D01*
X46659270Y-66629500D01*
X46659266Y-66629500D01*
X46050734Y-66629500D01*
X46050730Y-66629500D01*
X46020300Y-66632353D01*
X46020298Y-66632353D01*
X45892119Y-66677206D01*
X45892117Y-66677207D01*
X45782850Y-66757850D01*
X45702207Y-66867117D01*
X45702206Y-66867119D01*
X45657353Y-66995298D01*
X45657353Y-66995300D01*
X45654500Y-67025730D01*
X45654500Y-68618814D01*
X45634815Y-68685853D01*
X45582011Y-68731608D01*
X45512853Y-68741552D01*
X45449297Y-68712527D01*
X45427398Y-68687705D01*
X45375114Y-68609457D01*
X45375111Y-68609453D01*
X45091819Y-68326161D01*
X45058334Y-68264838D01*
X45055500Y-68238480D01*
X45055500Y-67025730D01*
X45052646Y-66995300D01*
X45052646Y-66995298D01*
X45007793Y-66867119D01*
X45007792Y-66867117D01*
X44927150Y-66757850D01*
X44817882Y-66677207D01*
X44817880Y-66677206D01*
X44689700Y-66632353D01*
X44659270Y-66629500D01*
X44659266Y-66629500D01*
X44050734Y-66629500D01*
X44050730Y-66629500D01*
X44020300Y-66632353D01*
X44020298Y-66632353D01*
X43892119Y-66677206D01*
X43892117Y-66677207D01*
X43782850Y-66757850D01*
X43702207Y-66867117D01*
X43702206Y-66867119D01*
X43657353Y-66995298D01*
X43657353Y-66995300D01*
X43654500Y-67025730D01*
X43654500Y-70134269D01*
X43657353Y-70164699D01*
X43657353Y-70164701D01*
X43702206Y-70292880D01*
X43702207Y-70292882D01*
X43782850Y-70402150D01*
X43892118Y-70482793D01*
X43924163Y-70494006D01*
X44020298Y-70527646D01*
X44027670Y-70529256D01*
X44027266Y-70531102D01*
X44082968Y-70553280D01*
X44123604Y-70610118D01*
X44130500Y-70650895D01*
X44130500Y-71823995D01*
X44134928Y-71846259D01*
X44128699Y-71915850D01*
X44085834Y-71971026D01*
X44019944Y-71994269D01*
X43951948Y-71978200D01*
X43925629Y-71958128D01*
X42924390Y-70956888D01*
X42924389Y-70956887D01*
X42809651Y-70880222D01*
X42682176Y-70827421D01*
X42682166Y-70827418D01*
X42546840Y-70800500D01*
X42546838Y-70800500D01*
X42546837Y-70800500D01*
X42095007Y-70800500D01*
X42095005Y-70800500D01*
X41959677Y-70827418D01*
X41959667Y-70827421D01*
X41832195Y-70880221D01*
X41832182Y-70880228D01*
X41717458Y-70956885D01*
X41717454Y-70956888D01*
X41619888Y-71054454D01*
X41619885Y-71054458D01*
X41543228Y-71169182D01*
X41543221Y-71169195D01*
X41490421Y-71296667D01*
X41490418Y-71296677D01*
X41463500Y-71432004D01*
X41463500Y-71432007D01*
X41463500Y-71569993D01*
X41463500Y-71569995D01*
X41463499Y-71569995D01*
X41490418Y-71705322D01*
X41490421Y-71705332D01*
X41543221Y-71832804D01*
X41543228Y-71832817D01*
X41619885Y-71947541D01*
X41619888Y-71947545D01*
X41717454Y-72045111D01*
X41717458Y-72045114D01*
X41832182Y-72121771D01*
X41832195Y-72121778D01*
X41959667Y-72174578D01*
X41959672Y-72174580D01*
X41990700Y-72180751D01*
X42006440Y-72183883D01*
X42068351Y-72216267D01*
X42102925Y-72276983D01*
X42099186Y-72346752D01*
X42058320Y-72403425D01*
X41993302Y-72429006D01*
X41982249Y-72429500D01*
X41450741Y-72429500D01*
X41420301Y-72432354D01*
X41420300Y-72432354D01*
X41292118Y-72477206D01*
X41182850Y-72557850D01*
X41102206Y-72667118D01*
X41057353Y-72795302D01*
X41054500Y-72825731D01*
X40005500Y-72825731D01*
X40005500Y-38950347D01*
X41434601Y-38950347D01*
X41434601Y-41199652D01*
X41446232Y-41258129D01*
X41446233Y-41258130D01*
X41490548Y-41324452D01*
X41556870Y-41368767D01*
X41556871Y-41368768D01*
X41615348Y-41380399D01*
X41615351Y-41380400D01*
X41615353Y-41380400D01*
X44753651Y-41380400D01*
X44753652Y-41380399D01*
X44768469Y-41377452D01*
X44812130Y-41368768D01*
X44812130Y-41368767D01*
X44812132Y-41368767D01*
X44878453Y-41324452D01*
X44922768Y-41258131D01*
X44922768Y-41258129D01*
X44922769Y-41258129D01*
X44934400Y-41199652D01*
X44934401Y-41199650D01*
X44934401Y-38950349D01*
X44934400Y-38950347D01*
X44922769Y-38891870D01*
X44922768Y-38891869D01*
X44878453Y-38825547D01*
X44812131Y-38781232D01*
X44812130Y-38781231D01*
X44753653Y-38769600D01*
X44753649Y-38769600D01*
X41615353Y-38769600D01*
X41615348Y-38769600D01*
X41556871Y-38781231D01*
X41556870Y-38781232D01*
X41490548Y-38825547D01*
X41446233Y-38891869D01*
X41446232Y-38891870D01*
X41434601Y-38950347D01*
X40005500Y-38950347D01*
X40005500Y-38224500D01*
X40025185Y-38157461D01*
X40077989Y-38111706D01*
X40129500Y-38100500D01*
X49372386Y-38100500D01*
X49439425Y-38120185D01*
G37*
%TD.AperFunction*%
%TA.AperFunction,Conductor*%
G36*
X50629020Y-53933185D02*
G01*
X50649662Y-53949819D01*
X52522781Y-55822938D01*
X52556266Y-55884261D01*
X52559100Y-55910619D01*
X52559100Y-56346152D01*
X52570731Y-56404629D01*
X52570732Y-56404630D01*
X52618493Y-56476109D01*
X52639371Y-56542786D01*
X52628685Y-56595402D01*
X52619484Y-56616083D01*
X52615048Y-56619048D01*
X52570733Y-56685369D01*
X52559100Y-56743852D01*
X52559100Y-56751815D01*
X52550609Y-56770902D01*
X52536587Y-56787408D01*
X52526547Y-56806603D01*
X52514413Y-56813512D01*
X52505375Y-56824153D01*
X52484653Y-56830458D01*
X52465831Y-56841177D01*
X52439255Y-56844273D01*
X52438532Y-56844494D01*
X52438192Y-56844397D01*
X52437315Y-56844500D01*
X49352825Y-56844500D01*
X49285786Y-56824815D01*
X49265144Y-56808181D01*
X48006447Y-55549484D01*
X47972962Y-55488161D01*
X47971812Y-55460367D01*
X47970318Y-55460367D01*
X47970318Y-55440500D01*
X47990003Y-55373461D01*
X48042807Y-55327706D01*
X48094318Y-55316500D01*
X48175853Y-55316500D01*
X49844170Y-55316500D01*
X49911209Y-55336185D01*
X49931679Y-55355022D01*
X49932733Y-55353969D01*
X49938480Y-55359716D01*
X50050284Y-55471520D01*
X50050286Y-55471521D01*
X50050290Y-55471524D01*
X50185323Y-55549484D01*
X50187216Y-55550577D01*
X50339943Y-55591500D01*
X50339945Y-55591500D01*
X50498055Y-55591500D01*
X50498057Y-55591500D01*
X50650784Y-55550577D01*
X50787716Y-55471520D01*
X50899520Y-55359716D01*
X50978577Y-55222784D01*
X51019500Y-55070057D01*
X51019500Y-54911943D01*
X50978577Y-54759216D01*
X50944466Y-54700133D01*
X50899524Y-54622290D01*
X50899518Y-54622282D01*
X50787717Y-54510481D01*
X50787709Y-54510475D01*
X50650790Y-54431426D01*
X50650786Y-54431424D01*
X50650784Y-54431423D01*
X50498057Y-54390500D01*
X50339943Y-54390500D01*
X50187216Y-54431423D01*
X50187209Y-54431426D01*
X50050290Y-54510475D01*
X50050282Y-54510481D01*
X49932733Y-54628031D01*
X49930487Y-54625785D01*
X49886145Y-54658179D01*
X49844170Y-54665500D01*
X48319189Y-54665500D01*
X48252150Y-54645815D01*
X48231508Y-54629181D01*
X47989046Y-54386719D01*
X47989044Y-54386717D01*
X47951932Y-54365290D01*
X47914822Y-54343864D01*
X47873428Y-54332773D01*
X47832035Y-54321682D01*
X47832034Y-54321682D01*
X47119561Y-54321682D01*
X47111954Y-54321681D01*
X47111951Y-54321681D01*
X47044336Y-54321681D01*
X46977297Y-54301996D01*
X46931543Y-54249191D01*
X46921600Y-54180032D01*
X46946596Y-54125300D01*
X46950625Y-54116478D01*
X46956657Y-54110000D01*
X47116838Y-53949819D01*
X47178161Y-53916334D01*
X47204519Y-53913500D01*
X50561981Y-53913500D01*
X50629020Y-53933185D01*
G37*
%TD.AperFunction*%
%TA.AperFunction,Conductor*%
G36*
X52027434Y-47976407D02*
G01*
X52083367Y-48018279D01*
X52107784Y-48083743D01*
X52108100Y-48092589D01*
X52108100Y-52876652D01*
X52130282Y-52959440D01*
X52139625Y-52975622D01*
X52173135Y-53033662D01*
X52173137Y-53033664D01*
X54240892Y-55101419D01*
X54251504Y-55120855D01*
X54266005Y-55137589D01*
X54267921Y-55150920D01*
X54274377Y-55162742D01*
X54272797Y-55184828D01*
X54275949Y-55206747D01*
X54270353Y-55218998D01*
X54269393Y-55232434D01*
X54256122Y-55250160D01*
X54246924Y-55270303D01*
X54235592Y-55277585D01*
X54227521Y-55288367D01*
X54206775Y-55296104D01*
X54188146Y-55308077D01*
X54166227Y-55311228D01*
X54162057Y-55312784D01*
X54153211Y-55313100D01*
X54045619Y-55313100D01*
X53978580Y-55293415D01*
X53957938Y-55276781D01*
X51350046Y-52668888D01*
X51350045Y-52668887D01*
X51235307Y-52592222D01*
X51107832Y-52539421D01*
X51107822Y-52539418D01*
X50972496Y-52512500D01*
X50972494Y-52512500D01*
X50972493Y-52512500D01*
X47688189Y-52512500D01*
X47621150Y-52492815D01*
X47575395Y-52440011D01*
X47565451Y-52370853D01*
X47594476Y-52307297D01*
X47600508Y-52300819D01*
X51896419Y-48004908D01*
X51957742Y-47971423D01*
X52027434Y-47976407D01*
G37*
%TD.AperFunction*%
%TA.AperFunction,Conductor*%
G36*
X57147649Y-47930185D02*
G01*
X57168291Y-47946819D01*
X57839391Y-48617919D01*
X57872876Y-48679242D01*
X57867892Y-48748934D01*
X57826020Y-48804867D01*
X57760556Y-48829284D01*
X57751710Y-48829600D01*
X54941346Y-48829600D01*
X54882869Y-48841231D01*
X54882868Y-48841232D01*
X54816546Y-48885547D01*
X54772231Y-48951869D01*
X54772230Y-48951870D01*
X54760599Y-49010347D01*
X54760599Y-51259652D01*
X54772230Y-51318129D01*
X54772231Y-51318130D01*
X54816546Y-51384452D01*
X54882868Y-51428767D01*
X54882869Y-51428768D01*
X54941346Y-51440399D01*
X54941349Y-51440400D01*
X54941351Y-51440400D01*
X57736451Y-51440400D01*
X57803490Y-51460085D01*
X57849245Y-51512889D01*
X57859189Y-51582047D01*
X57856225Y-51596495D01*
X57851196Y-51615260D01*
X57851196Y-51615262D01*
X57851196Y-51773376D01*
X57887404Y-51908509D01*
X57885742Y-51978356D01*
X57846580Y-52036219D01*
X57782351Y-52063723D01*
X57767630Y-52064600D01*
X54941346Y-52064600D01*
X54882869Y-52076231D01*
X54882868Y-52076232D01*
X54816546Y-52120547D01*
X54772231Y-52186869D01*
X54772230Y-52186870D01*
X54760599Y-52245347D01*
X54760599Y-54401110D01*
X54740914Y-54468149D01*
X54688110Y-54513904D01*
X54618952Y-54523848D01*
X54555396Y-54494823D01*
X54548918Y-54488791D01*
X52795419Y-52735292D01*
X52761934Y-52673969D01*
X52759100Y-52647611D01*
X52759100Y-52265995D01*
X53020499Y-52265995D01*
X53047418Y-52401322D01*
X53047421Y-52401332D01*
X53100221Y-52528804D01*
X53100228Y-52528817D01*
X53176885Y-52643541D01*
X53176888Y-52643545D01*
X53274454Y-52741111D01*
X53274458Y-52741114D01*
X53389182Y-52817771D01*
X53389195Y-52817778D01*
X53516667Y-52870578D01*
X53516672Y-52870580D01*
X53516676Y-52870580D01*
X53516677Y-52870581D01*
X53652004Y-52897500D01*
X53652007Y-52897500D01*
X53789995Y-52897500D01*
X53894802Y-52876652D01*
X53925328Y-52870580D01*
X54052811Y-52817775D01*
X54167542Y-52741114D01*
X54265114Y-52643542D01*
X54341775Y-52528811D01*
X54394580Y-52401328D01*
X54421500Y-52265993D01*
X54421500Y-49334007D01*
X54421500Y-49334004D01*
X54394581Y-49198677D01*
X54394580Y-49198676D01*
X54394580Y-49198672D01*
X54358454Y-49111455D01*
X54341778Y-49071195D01*
X54341771Y-49071182D01*
X54265114Y-48956458D01*
X54265111Y-48956454D01*
X54167545Y-48858888D01*
X54167541Y-48858885D01*
X54052817Y-48782228D01*
X54052804Y-48782221D01*
X53925332Y-48729421D01*
X53925322Y-48729418D01*
X53789995Y-48702500D01*
X53789993Y-48702500D01*
X53652007Y-48702500D01*
X53652005Y-48702500D01*
X53516677Y-48729418D01*
X53516667Y-48729421D01*
X53389195Y-48782221D01*
X53389182Y-48782228D01*
X53274458Y-48858885D01*
X53274454Y-48858888D01*
X53176888Y-48956454D01*
X53176885Y-48956458D01*
X53100228Y-49071182D01*
X53100221Y-49071195D01*
X53047421Y-49198667D01*
X53047418Y-49198677D01*
X53020500Y-49334004D01*
X53020500Y-49334007D01*
X53020500Y-52265993D01*
X53020500Y-52265995D01*
X53020499Y-52265995D01*
X52759100Y-52265995D01*
X52759100Y-48315900D01*
X52778785Y-48248861D01*
X52831589Y-48203106D01*
X52883100Y-48191900D01*
X54481150Y-48191900D01*
X54481151Y-48191899D01*
X54495968Y-48188952D01*
X54539629Y-48180268D01*
X54539629Y-48180267D01*
X54539631Y-48180267D01*
X54605952Y-48135952D01*
X54650267Y-48069631D01*
X54653943Y-48051152D01*
X54662068Y-48010308D01*
X54694453Y-47948397D01*
X54755169Y-47913823D01*
X54783685Y-47910500D01*
X57080610Y-47910500D01*
X57147649Y-47930185D01*
G37*
%TD.AperFunction*%
%TA.AperFunction,Conductor*%
G36*
X52478434Y-43400936D02*
G01*
X52534367Y-43442808D01*
X52558784Y-43508272D01*
X52559100Y-43517118D01*
X52559100Y-43715411D01*
X52539415Y-43782450D01*
X52522781Y-43803092D01*
X52173137Y-44152735D01*
X52173133Y-44152741D01*
X52130281Y-44226961D01*
X52130282Y-44226962D01*
X52108100Y-44309747D01*
X52108100Y-44778601D01*
X52088415Y-44845640D01*
X52071781Y-44866282D01*
X51722137Y-45215925D01*
X51722135Y-45215928D01*
X51679283Y-45290149D01*
X51665353Y-45342136D01*
X51657100Y-45372934D01*
X51657100Y-47272211D01*
X51637415Y-47339250D01*
X51620781Y-47359892D01*
X46955492Y-52025181D01*
X46928564Y-52039884D01*
X46902746Y-52056477D01*
X46896545Y-52057368D01*
X46894169Y-52058666D01*
X46867811Y-52061500D01*
X46759457Y-52061500D01*
X46692418Y-52041815D01*
X46646663Y-51989011D01*
X46636719Y-51919853D01*
X46656354Y-51868610D01*
X46658218Y-51865819D01*
X46705275Y-51795394D01*
X46758080Y-51667911D01*
X46775160Y-51582047D01*
X46785000Y-51532579D01*
X46785000Y-48449500D01*
X46804685Y-48382461D01*
X46857489Y-48336706D01*
X46909000Y-48325500D01*
X47230196Y-48325500D01*
X47321240Y-48307389D01*
X47365528Y-48298580D01*
X47429391Y-48272127D01*
X47493007Y-48245777D01*
X47493008Y-48245776D01*
X47493011Y-48245775D01*
X47607743Y-48169114D01*
X52347419Y-43429436D01*
X52408742Y-43395952D01*
X52478434Y-43400936D01*
G37*
%TD.AperFunction*%
%TA.AperFunction,Conductor*%
G36*
X58465602Y-39144576D02*
G01*
X58472080Y-39150608D01*
X58696470Y-39374998D01*
X58729955Y-39436321D01*
X58732789Y-39462679D01*
X58732789Y-47776353D01*
X58713104Y-47843392D01*
X58694271Y-47863868D01*
X58695320Y-47864917D01*
X58577770Y-47982466D01*
X58577764Y-47982474D01*
X58494648Y-48126438D01*
X58492555Y-48125230D01*
X58456395Y-48170082D01*
X58390096Y-48192132D01*
X58322400Y-48174837D01*
X58298017Y-48155891D01*
X57466663Y-47324537D01*
X57466661Y-47324535D01*
X57429549Y-47303108D01*
X57392439Y-47281682D01*
X57351045Y-47270591D01*
X57309652Y-47259500D01*
X57309651Y-47259500D01*
X54945853Y-47259500D01*
X54878814Y-47239815D01*
X54833059Y-47187011D01*
X54823115Y-47117853D01*
X54846587Y-47061188D01*
X54904752Y-46983489D01*
X54904754Y-46983486D01*
X54954996Y-46848779D01*
X54954998Y-46848772D01*
X54961399Y-46789244D01*
X54961400Y-46789227D01*
X54961400Y-46585000D01*
X53734500Y-46585000D01*
X53667461Y-46565315D01*
X53621706Y-46512511D01*
X53610500Y-46461000D01*
X53610500Y-46209000D01*
X53630185Y-46141961D01*
X53682989Y-46096206D01*
X53734500Y-46085000D01*
X54961400Y-46085000D01*
X54961400Y-45880772D01*
X54961399Y-45880755D01*
X54954998Y-45821227D01*
X54954996Y-45821220D01*
X54904754Y-45686513D01*
X54904750Y-45686506D01*
X54818590Y-45571412D01*
X54711588Y-45491309D01*
X54669718Y-45435375D01*
X54661900Y-45392043D01*
X54661900Y-45033999D01*
X54681585Y-44966960D01*
X54698219Y-44946318D01*
X55202637Y-44441900D01*
X55772864Y-43871673D01*
X55815717Y-43797450D01*
X55837899Y-43714664D01*
X55837899Y-43628958D01*
X55837899Y-42439796D01*
X55857584Y-42372757D01*
X55876421Y-42352286D01*
X55875368Y-42351233D01*
X55911898Y-42314703D01*
X55992919Y-42233682D01*
X56071976Y-42096750D01*
X56112899Y-41944023D01*
X56112899Y-41785909D01*
X56071976Y-41633182D01*
X56010326Y-41526400D01*
X55993853Y-41458499D01*
X56016706Y-41392473D01*
X56071627Y-41349282D01*
X56117713Y-41340400D01*
X58079649Y-41340400D01*
X58079650Y-41340399D01*
X58094467Y-41337452D01*
X58138128Y-41328768D01*
X58138128Y-41328767D01*
X58138130Y-41328767D01*
X58204451Y-41284452D01*
X58248766Y-41218131D01*
X58248766Y-41218129D01*
X58248767Y-41218129D01*
X58260398Y-41159652D01*
X58260399Y-41159650D01*
X58260399Y-39238289D01*
X58280084Y-39171250D01*
X58332888Y-39125495D01*
X58402046Y-39115551D01*
X58465602Y-39144576D01*
G37*
%TD.AperFunction*%
%TD*%
M02*
